<?xml version="1.0" encoding="utf-8" standalone="no"?>
<!DOCTYPE svg PUBLIC "-//W3C//DTD SVG 1.1//EN"
  "http://www.w3.org/Graphics/SVG/1.1/DTD/svg11.dtd">
<!-- Created with matplotlib (http://matplotlib.org/) -->
<svg height="897pt" version="1.1" viewBox="0 0 2003 897" width="2003pt" xmlns="http://www.w3.org/2000/svg" xmlns:xlink="http://www.w3.org/1999/xlink">
 <defs>
  <style type="text/css">
*{stroke-linecap:butt;stroke-linejoin:round;stroke-miterlimit:100000;}
  </style>
 </defs>
 <g id="figure_1">
  <g id="patch_1">
   <path d="M 0 897.3 
L 2003.4 897.3 
L 2003.4 0 
L 0 0 
z
" style="fill:#ffffff;"/>
  </g>
  <g id="axes_1">
   <g id="patch_2">
    <path d="M 250.425 807.57 
L 1689.3369 807.57 
L 1689.3369 89.73 
L 250.425 89.73 
z
" style="fill:#eaeaf2;"/>
   </g>
   <g id="matplotlib.axis_1">
    <g id="xtick_1">
     <g id="line2d_1">
      <defs>
       <path d="M 0 0 
L 0 0 
" id="m15e390c27a" style="stroke:#262626;stroke-width:0.5;"/>
      </defs>
      <g>
       <use style="fill:#262626;stroke:#262626;stroke-width:0.5;" x="610.152975" xlink:href="#m15e390c27a" y="807.57"/>
      </g>
     </g>
     <g id="line2d_2">
      <g>
       <use style="fill:#262626;stroke:#262626;stroke-width:0.5;" x="610.152975" xlink:href="#m15e390c27a" y="89.73"/>
      </g>
     </g>
     <g id="text_1">
      <!-- Upload -->
      <defs>
       <path d="M 30.609375 48.390625 
Q 23.390625 48.390625 19.1875 42.75 
Q 14.984375 37.109375 14.984375 27.296875 
Q 14.984375 17.484375 19.15625 11.84375 
Q 23.34375 6.203125 30.609375 6.203125 
Q 37.796875 6.203125 41.984375 11.859375 
Q 46.1875 17.53125 46.1875 27.296875 
Q 46.1875 37.015625 41.984375 42.703125 
Q 37.796875 48.390625 30.609375 48.390625 
M 30.609375 56 
Q 42.328125 56 49.015625 48.375 
Q 55.71875 40.765625 55.71875 27.296875 
Q 55.71875 13.875 49.015625 6.21875 
Q 42.328125 -1.421875 30.609375 -1.421875 
Q 18.84375 -1.421875 12.171875 6.21875 
Q 5.515625 13.875 5.515625 27.296875 
Q 5.515625 40.765625 12.171875 48.375 
Q 18.84375 56 30.609375 56 
" id="BitstreamVeraSans-Roman-6f"/>
       <path d="M 9.421875 75.984375 
L 18.40625 75.984375 
L 18.40625 0 
L 9.421875 0 
z
" id="BitstreamVeraSans-Roman-6c"/>
       <path d="M 8.6875 72.90625 
L 18.609375 72.90625 
L 18.609375 28.609375 
Q 18.609375 16.890625 22.84375 11.734375 
Q 27.09375 6.59375 36.625 6.59375 
Q 46.09375 6.59375 50.34375 11.734375 
Q 54.59375 16.890625 54.59375 28.609375 
L 54.59375 72.90625 
L 64.5 72.90625 
L 64.5 27.390625 
Q 64.5 13.140625 57.4375 5.859375 
Q 50.390625 -1.421875 36.625 -1.421875 
Q 22.796875 -1.421875 15.734375 5.859375 
Q 8.6875 13.140625 8.6875 27.390625 
z
" id="BitstreamVeraSans-Roman-55"/>
       <path d="M 45.40625 46.390625 
L 45.40625 75.984375 
L 54.390625 75.984375 
L 54.390625 0 
L 45.40625 0 
L 45.40625 8.203125 
Q 42.578125 3.328125 38.25 0.953125 
Q 33.9375 -1.421875 27.875 -1.421875 
Q 17.96875 -1.421875 11.734375 6.484375 
Q 5.515625 14.40625 5.515625 27.296875 
Q 5.515625 40.1875 11.734375 48.09375 
Q 17.96875 56 27.875 56 
Q 33.9375 56 38.25 53.625 
Q 42.578125 51.265625 45.40625 46.390625 
M 14.796875 27.296875 
Q 14.796875 17.390625 18.875 11.75 
Q 22.953125 6.109375 30.078125 6.109375 
Q 37.203125 6.109375 41.296875 11.75 
Q 45.40625 17.390625 45.40625 27.296875 
Q 45.40625 37.203125 41.296875 42.84375 
Q 37.203125 48.484375 30.078125 48.484375 
Q 22.953125 48.484375 18.875 42.84375 
Q 14.796875 37.203125 14.796875 27.296875 
" id="BitstreamVeraSans-Roman-64"/>
       <path d="M 34.28125 27.484375 
Q 23.390625 27.484375 19.1875 25 
Q 14.984375 22.515625 14.984375 16.5 
Q 14.984375 11.71875 18.140625 8.90625 
Q 21.296875 6.109375 26.703125 6.109375 
Q 34.1875 6.109375 38.703125 11.40625 
Q 43.21875 16.703125 43.21875 25.484375 
L 43.21875 27.484375 
z
M 52.203125 31.203125 
L 52.203125 0 
L 43.21875 0 
L 43.21875 8.296875 
Q 40.140625 3.328125 35.546875 0.953125 
Q 30.953125 -1.421875 24.3125 -1.421875 
Q 15.921875 -1.421875 10.953125 3.296875 
Q 6 8.015625 6 15.921875 
Q 6 25.140625 12.171875 29.828125 
Q 18.359375 34.515625 30.609375 34.515625 
L 43.21875 34.515625 
L 43.21875 35.40625 
Q 43.21875 41.609375 39.140625 45 
Q 35.0625 48.390625 27.6875 48.390625 
Q 23 48.390625 18.546875 47.265625 
Q 14.109375 46.140625 10.015625 43.890625 
L 10.015625 52.203125 
Q 14.9375 54.109375 19.578125 55.046875 
Q 24.21875 56 28.609375 56 
Q 40.484375 56 46.34375 49.84375 
Q 52.203125 43.703125 52.203125 31.203125 
" id="BitstreamVeraSans-Roman-61"/>
       <path d="M 18.109375 8.203125 
L 18.109375 -20.796875 
L 9.078125 -20.796875 
L 9.078125 54.6875 
L 18.109375 54.6875 
L 18.109375 46.390625 
Q 20.953125 51.265625 25.265625 53.625 
Q 29.59375 56 35.59375 56 
Q 45.5625 56 51.78125 48.09375 
Q 58.015625 40.1875 58.015625 27.296875 
Q 58.015625 14.40625 51.78125 6.484375 
Q 45.5625 -1.421875 35.59375 -1.421875 
Q 29.59375 -1.421875 25.265625 0.953125 
Q 20.953125 3.328125 18.109375 8.203125 
M 48.6875 27.296875 
Q 48.6875 37.203125 44.609375 42.84375 
Q 40.53125 48.484375 33.40625 48.484375 
Q 26.265625 48.484375 22.1875 42.84375 
Q 18.109375 37.203125 18.109375 27.296875 
Q 18.109375 17.390625 22.1875 11.75 
Q 26.265625 6.109375 33.40625 6.109375 
Q 40.53125 6.109375 44.609375 11.75 
Q 48.6875 17.390625 48.6875 27.296875 
" id="BitstreamVeraSans-Roman-70"/>
      </defs>
      <g style="fill:#262626;" transform="translate(589.1286 820.688125)scale(0.12 -0.12)">
       <use xlink:href="#BitstreamVeraSans-Roman-55"/>
       <use x="73.193359375" xlink:href="#BitstreamVeraSans-Roman-70"/>
       <use x="136.669921875" xlink:href="#BitstreamVeraSans-Roman-6c"/>
       <use x="164.453125" xlink:href="#BitstreamVeraSans-Roman-6f"/>
       <use x="225.634765625" xlink:href="#BitstreamVeraSans-Roman-61"/>
       <use x="286.9140625" xlink:href="#BitstreamVeraSans-Roman-64"/>
      </g>
     </g>
    </g>
    <g id="xtick_2">
     <g id="line2d_3">
      <g>
       <use style="fill:#262626;stroke:#262626;stroke-width:0.5;" x="1329.608925" xlink:href="#m15e390c27a" y="807.57"/>
      </g>
     </g>
     <g id="line2d_4">
      <g>
       <use style="fill:#262626;stroke:#262626;stroke-width:0.5;" x="1329.608925" xlink:href="#m15e390c27a" y="89.73"/>
      </g>
     </g>
     <g id="text_2">
      <!-- Ping (ms) -->
      <defs>
       <path id="BitstreamVeraSans-Roman-20"/>
       <path d="M 54.890625 33.015625 
L 54.890625 0 
L 45.90625 0 
L 45.90625 32.71875 
Q 45.90625 40.484375 42.875 44.328125 
Q 39.84375 48.1875 33.796875 48.1875 
Q 26.515625 48.1875 22.3125 43.546875 
Q 18.109375 38.921875 18.109375 30.90625 
L 18.109375 0 
L 9.078125 0 
L 9.078125 54.6875 
L 18.109375 54.6875 
L 18.109375 46.1875 
Q 21.34375 51.125 25.703125 53.5625 
Q 30.078125 56 35.796875 56 
Q 45.21875 56 50.046875 50.171875 
Q 54.890625 44.34375 54.890625 33.015625 
" id="BitstreamVeraSans-Roman-6e"/>
       <path d="M 31 75.875 
Q 24.46875 64.65625 21.28125 53.65625 
Q 18.109375 42.671875 18.109375 31.390625 
Q 18.109375 20.125 21.3125 9.0625 
Q 24.515625 -2 31 -13.1875 
L 23.1875 -13.1875 
Q 15.875 -1.703125 12.234375 9.375 
Q 8.59375 20.453125 8.59375 31.390625 
Q 8.59375 42.28125 12.203125 53.3125 
Q 15.828125 64.359375 23.1875 75.875 
z
" id="BitstreamVeraSans-Roman-28"/>
       <path d="M 19.671875 64.796875 
L 19.671875 37.40625 
L 32.078125 37.40625 
Q 38.96875 37.40625 42.71875 40.96875 
Q 46.484375 44.53125 46.484375 51.125 
Q 46.484375 57.671875 42.71875 61.234375 
Q 38.96875 64.796875 32.078125 64.796875 
z
M 9.8125 72.90625 
L 32.078125 72.90625 
Q 44.34375 72.90625 50.609375 67.359375 
Q 56.890625 61.8125 56.890625 51.125 
Q 56.890625 40.328125 50.609375 34.8125 
Q 44.34375 29.296875 32.078125 29.296875 
L 19.671875 29.296875 
L 19.671875 0 
L 9.8125 0 
z
" id="BitstreamVeraSans-Roman-50"/>
       <path d="M 8.015625 75.875 
L 15.828125 75.875 
Q 23.140625 64.359375 26.78125 53.3125 
Q 30.421875 42.28125 30.421875 31.390625 
Q 30.421875 20.453125 26.78125 9.375 
Q 23.140625 -1.703125 15.828125 -13.1875 
L 8.015625 -13.1875 
Q 14.5 -2 17.703125 9.0625 
Q 20.90625 20.125 20.90625 31.390625 
Q 20.90625 42.671875 17.703125 53.65625 
Q 14.5 64.65625 8.015625 75.875 
" id="BitstreamVeraSans-Roman-29"/>
       <path d="M 9.421875 54.6875 
L 18.40625 54.6875 
L 18.40625 0 
L 9.421875 0 
z
M 9.421875 75.984375 
L 18.40625 75.984375 
L 18.40625 64.59375 
L 9.421875 64.59375 
z
" id="BitstreamVeraSans-Roman-69"/>
       <path d="M 52 44.1875 
Q 55.375 50.25 60.0625 53.125 
Q 64.75 56 71.09375 56 
Q 79.640625 56 84.28125 50.015625 
Q 88.921875 44.046875 88.921875 33.015625 
L 88.921875 0 
L 79.890625 0 
L 79.890625 32.71875 
Q 79.890625 40.578125 77.09375 44.375 
Q 74.3125 48.1875 68.609375 48.1875 
Q 61.625 48.1875 57.5625 43.546875 
Q 53.515625 38.921875 53.515625 30.90625 
L 53.515625 0 
L 44.484375 0 
L 44.484375 32.71875 
Q 44.484375 40.625 41.703125 44.40625 
Q 38.921875 48.1875 33.109375 48.1875 
Q 26.21875 48.1875 22.15625 43.53125 
Q 18.109375 38.875 18.109375 30.90625 
L 18.109375 0 
L 9.078125 0 
L 9.078125 54.6875 
L 18.109375 54.6875 
L 18.109375 46.1875 
Q 21.1875 51.21875 25.484375 53.609375 
Q 29.78125 56 35.6875 56 
Q 41.65625 56 45.828125 52.96875 
Q 50 49.953125 52 44.1875 
" id="BitstreamVeraSans-Roman-6d"/>
       <path d="M 45.40625 27.984375 
Q 45.40625 37.75 41.375 43.109375 
Q 37.359375 48.484375 30.078125 48.484375 
Q 22.859375 48.484375 18.828125 43.109375 
Q 14.796875 37.75 14.796875 27.984375 
Q 14.796875 18.265625 18.828125 12.890625 
Q 22.859375 7.515625 30.078125 7.515625 
Q 37.359375 7.515625 41.375 12.890625 
Q 45.40625 18.265625 45.40625 27.984375 
M 54.390625 6.78125 
Q 54.390625 -7.171875 48.1875 -13.984375 
Q 42 -20.796875 29.203125 -20.796875 
Q 24.46875 -20.796875 20.265625 -20.09375 
Q 16.0625 -19.390625 12.109375 -17.921875 
L 12.109375 -9.1875 
Q 16.0625 -11.328125 19.921875 -12.34375 
Q 23.78125 -13.375 27.78125 -13.375 
Q 36.625 -13.375 41.015625 -8.765625 
Q 45.40625 -4.15625 45.40625 5.171875 
L 45.40625 9.625 
Q 42.625 4.78125 38.28125 2.390625 
Q 33.9375 0 27.875 0 
Q 17.828125 0 11.671875 7.65625 
Q 5.515625 15.328125 5.515625 27.984375 
Q 5.515625 40.671875 11.671875 48.328125 
Q 17.828125 56 27.875 56 
Q 33.9375 56 38.28125 53.609375 
Q 42.625 51.21875 45.40625 46.390625 
L 45.40625 54.6875 
L 54.390625 54.6875 
z
" id="BitstreamVeraSans-Roman-67"/>
       <path d="M 44.28125 53.078125 
L 44.28125 44.578125 
Q 40.484375 46.53125 36.375 47.5 
Q 32.28125 48.484375 27.875 48.484375 
Q 21.1875 48.484375 17.84375 46.4375 
Q 14.5 44.390625 14.5 40.28125 
Q 14.5 37.15625 16.890625 35.375 
Q 19.28125 33.59375 26.515625 31.984375 
L 29.59375 31.296875 
Q 39.15625 29.25 43.1875 25.515625 
Q 47.21875 21.78125 47.21875 15.09375 
Q 47.21875 7.46875 41.1875 3.015625 
Q 35.15625 -1.421875 24.609375 -1.421875 
Q 20.21875 -1.421875 15.453125 -0.5625 
Q 10.6875 0.296875 5.421875 2 
L 5.421875 11.28125 
Q 10.40625 8.6875 15.234375 7.390625 
Q 20.0625 6.109375 24.8125 6.109375 
Q 31.15625 6.109375 34.5625 8.28125 
Q 37.984375 10.453125 37.984375 14.40625 
Q 37.984375 18.0625 35.515625 20.015625 
Q 33.0625 21.96875 24.703125 23.78125 
L 21.578125 24.515625 
Q 13.234375 26.265625 9.515625 29.90625 
Q 5.8125 33.546875 5.8125 39.890625 
Q 5.8125 47.609375 11.28125 51.796875 
Q 16.75 56 26.8125 56 
Q 31.78125 56 36.171875 55.265625 
Q 40.578125 54.546875 44.28125 53.078125 
" id="BitstreamVeraSans-Roman-73"/>
      </defs>
      <g style="fill:#262626;" transform="translate(1301.1558 820.688125)scale(0.12 -0.12)">
       <use xlink:href="#BitstreamVeraSans-Roman-50"/>
       <use x="60.271484375" xlink:href="#BitstreamVeraSans-Roman-69"/>
       <use x="88.0546875" xlink:href="#BitstreamVeraSans-Roman-6e"/>
       <use x="151.43359375" xlink:href="#BitstreamVeraSans-Roman-67"/>
       <use x="214.91015625" xlink:href="#BitstreamVeraSans-Roman-20"/>
       <use x="246.697265625" xlink:href="#BitstreamVeraSans-Roman-28"/>
       <use x="285.7109375" xlink:href="#BitstreamVeraSans-Roman-6d"/>
       <use x="383.123046875" xlink:href="#BitstreamVeraSans-Roman-73"/>
       <use x="435.22265625" xlink:href="#BitstreamVeraSans-Roman-29"/>
      </g>
     </g>
    </g>
   </g>
   <g id="matplotlib.axis_2">
    <g id="ytick_1">
     <g id="line2d_5">
      <g>
       <use style="fill:#262626;stroke:#262626;stroke-width:0.5;" x="250.425" xlink:href="#m15e390c27a" y="722.79669668"/>
      </g>
     </g>
     <g id="text_3">
      <!-- 2 -->
      <defs>
       <path d="M 19.1875 8.296875 
L 53.609375 8.296875 
L 53.609375 0 
L 7.328125 0 
L 7.328125 8.296875 
Q 12.9375 14.109375 22.625 23.890625 
Q 32.328125 33.6875 34.8125 36.53125 
Q 39.546875 41.84375 41.421875 45.53125 
Q 43.3125 49.21875 43.3125 52.78125 
Q 43.3125 58.59375 39.234375 62.25 
Q 35.15625 65.921875 28.609375 65.921875 
Q 23.96875 65.921875 18.8125 64.3125 
Q 13.671875 62.703125 7.8125 59.421875 
L 7.8125 69.390625 
Q 13.765625 71.78125 18.9375 73 
Q 24.125 74.21875 28.421875 74.21875 
Q 39.75 74.21875 46.484375 68.546875 
Q 53.21875 62.890625 53.21875 53.421875 
Q 53.21875 48.921875 51.53125 44.890625 
Q 49.859375 40.875 45.40625 35.40625 
Q 44.1875 33.984375 37.640625 27.21875 
Q 31.109375 20.453125 19.1875 8.296875 
" id="BitstreamVeraSans-Roman-32"/>
      </defs>
      <g style="fill:#262626;" transform="translate(238.79 726.10794668)scale(0.12 -0.12)">
       <use xlink:href="#BitstreamVeraSans-Roman-32"/>
      </g>
     </g>
    </g>
    <g id="ytick_2">
     <g id="line2d_6">
      <g>
       <use style="fill:#262626;stroke:#262626;stroke-width:0.5;" x="250.425" xlink:href="#m15e390c27a" y="605.562792257"/>
      </g>
     </g>
     <g id="text_4">
      <!-- 4 -->
      <defs>
       <path d="M 37.796875 64.3125 
L 12.890625 25.390625 
L 37.796875 25.390625 
z
M 35.203125 72.90625 
L 47.609375 72.90625 
L 47.609375 25.390625 
L 58.015625 25.390625 
L 58.015625 17.1875 
L 47.609375 17.1875 
L 47.609375 0 
L 37.796875 0 
L 37.796875 17.1875 
L 4.890625 17.1875 
L 4.890625 26.703125 
z
" id="BitstreamVeraSans-Roman-34"/>
      </defs>
      <g style="fill:#262626;" transform="translate(238.79 608.874042257)scale(0.12 -0.12)">
       <use xlink:href="#BitstreamVeraSans-Roman-34"/>
      </g>
     </g>
    </g>
    <g id="ytick_3">
     <g id="line2d_7">
      <g>
       <use style="fill:#262626;stroke:#262626;stroke-width:0.5;" x="250.425" xlink:href="#m15e390c27a" y="488.328887833"/>
      </g>
     </g>
     <g id="text_5">
      <!-- 6 -->
      <defs>
       <path d="M 33.015625 40.375 
Q 26.375 40.375 22.484375 35.828125 
Q 18.609375 31.296875 18.609375 23.390625 
Q 18.609375 15.53125 22.484375 10.953125 
Q 26.375 6.390625 33.015625 6.390625 
Q 39.65625 6.390625 43.53125 10.953125 
Q 47.40625 15.53125 47.40625 23.390625 
Q 47.40625 31.296875 43.53125 35.828125 
Q 39.65625 40.375 33.015625 40.375 
M 52.59375 71.296875 
L 52.59375 62.3125 
Q 48.875 64.0625 45.09375 64.984375 
Q 41.3125 65.921875 37.59375 65.921875 
Q 27.828125 65.921875 22.671875 59.328125 
Q 17.53125 52.734375 16.796875 39.40625 
Q 19.671875 43.65625 24.015625 45.921875 
Q 28.375 48.1875 33.59375 48.1875 
Q 44.578125 48.1875 50.953125 41.515625 
Q 57.328125 34.859375 57.328125 23.390625 
Q 57.328125 12.15625 50.6875 5.359375 
Q 44.046875 -1.421875 33.015625 -1.421875 
Q 20.359375 -1.421875 13.671875 8.265625 
Q 6.984375 17.96875 6.984375 36.375 
Q 6.984375 53.65625 15.1875 63.9375 
Q 23.390625 74.21875 37.203125 74.21875 
Q 40.921875 74.21875 44.703125 73.484375 
Q 48.484375 72.75 52.59375 71.296875 
" id="BitstreamVeraSans-Roman-36"/>
      </defs>
      <g style="fill:#262626;" transform="translate(238.79 491.640137833)scale(0.12 -0.12)">
       <use xlink:href="#BitstreamVeraSans-Roman-36"/>
      </g>
     </g>
    </g>
    <g id="ytick_4">
     <g id="line2d_8">
      <g>
       <use style="fill:#262626;stroke:#262626;stroke-width:0.5;" x="250.425" xlink:href="#m15e390c27a" y="371.09498341"/>
      </g>
     </g>
     <g id="text_6">
      <!-- 8 -->
      <defs>
       <path d="M 31.78125 34.625 
Q 24.75 34.625 20.71875 30.859375 
Q 16.703125 27.09375 16.703125 20.515625 
Q 16.703125 13.921875 20.71875 10.15625 
Q 24.75 6.390625 31.78125 6.390625 
Q 38.8125 6.390625 42.859375 10.171875 
Q 46.921875 13.96875 46.921875 20.515625 
Q 46.921875 27.09375 42.890625 30.859375 
Q 38.875 34.625 31.78125 34.625 
M 21.921875 38.8125 
Q 15.578125 40.375 12.03125 44.71875 
Q 8.5 49.078125 8.5 55.328125 
Q 8.5 64.0625 14.71875 69.140625 
Q 20.953125 74.21875 31.78125 74.21875 
Q 42.671875 74.21875 48.875 69.140625 
Q 55.078125 64.0625 55.078125 55.328125 
Q 55.078125 49.078125 51.53125 44.71875 
Q 48 40.375 41.703125 38.8125 
Q 48.828125 37.15625 52.796875 32.3125 
Q 56.78125 27.484375 56.78125 20.515625 
Q 56.78125 9.90625 50.3125 4.234375 
Q 43.84375 -1.421875 31.78125 -1.421875 
Q 19.734375 -1.421875 13.25 4.234375 
Q 6.78125 9.90625 6.78125 20.515625 
Q 6.78125 27.484375 10.78125 32.3125 
Q 14.796875 37.15625 21.921875 38.8125 
M 18.3125 54.390625 
Q 18.3125 48.734375 21.84375 45.5625 
Q 25.390625 42.390625 31.78125 42.390625 
Q 38.140625 42.390625 41.71875 45.5625 
Q 45.3125 48.734375 45.3125 54.390625 
Q 45.3125 60.0625 41.71875 63.234375 
Q 38.140625 66.40625 31.78125 66.40625 
Q 25.390625 66.40625 21.84375 63.234375 
Q 18.3125 60.0625 18.3125 54.390625 
" id="BitstreamVeraSans-Roman-38"/>
      </defs>
      <g style="fill:#262626;" transform="translate(238.79 374.40623341)scale(0.12 -0.12)">
       <use xlink:href="#BitstreamVeraSans-Roman-38"/>
      </g>
     </g>
    </g>
    <g id="ytick_5">
     <g id="line2d_9">
      <g>
       <use style="fill:#262626;stroke:#262626;stroke-width:0.5;" x="250.425" xlink:href="#m15e390c27a" y="253.861078986"/>
      </g>
     </g>
     <g id="text_7">
      <!-- 10 -->
      <defs>
       <path d="M 31.78125 66.40625 
Q 24.171875 66.40625 20.328125 58.90625 
Q 16.5 51.421875 16.5 36.375 
Q 16.5 21.390625 20.328125 13.890625 
Q 24.171875 6.390625 31.78125 6.390625 
Q 39.453125 6.390625 43.28125 13.890625 
Q 47.125 21.390625 47.125 36.375 
Q 47.125 51.421875 43.28125 58.90625 
Q 39.453125 66.40625 31.78125 66.40625 
M 31.78125 74.21875 
Q 44.046875 74.21875 50.515625 64.515625 
Q 56.984375 54.828125 56.984375 36.375 
Q 56.984375 17.96875 50.515625 8.265625 
Q 44.046875 -1.421875 31.78125 -1.421875 
Q 19.53125 -1.421875 13.0625 8.265625 
Q 6.59375 17.96875 6.59375 36.375 
Q 6.59375 54.828125 13.0625 64.515625 
Q 19.53125 74.21875 31.78125 74.21875 
" id="BitstreamVeraSans-Roman-30"/>
       <path d="M 12.40625 8.296875 
L 28.515625 8.296875 
L 28.515625 63.921875 
L 10.984375 60.40625 
L 10.984375 69.390625 
L 28.421875 72.90625 
L 38.28125 72.90625 
L 38.28125 8.296875 
L 54.390625 8.296875 
L 54.390625 0 
L 12.40625 0 
z
" id="BitstreamVeraSans-Roman-31"/>
      </defs>
      <g style="fill:#262626;" transform="translate(231.155 257.172328986)scale(0.12 -0.12)">
       <use xlink:href="#BitstreamVeraSans-Roman-31"/>
       <use x="63.623046875" xlink:href="#BitstreamVeraSans-Roman-30"/>
      </g>
     </g>
    </g>
    <g id="ytick_6">
     <g id="line2d_10">
      <g>
       <use style="fill:#262626;stroke:#262626;stroke-width:0.5;" x="250.425" xlink:href="#m15e390c27a" y="136.627174563"/>
      </g>
     </g>
     <g id="text_8">
      <!-- 12 -->
      <g style="fill:#262626;" transform="translate(231.155 139.938424563)scale(0.12 -0.12)">
       <use xlink:href="#BitstreamVeraSans-Roman-31"/>
       <use x="63.623046875" xlink:href="#BitstreamVeraSans-Roman-32"/>
      </g>
     </g>
    </g>
    <g id="ytick_7">
     <g id="line2d_11">
      <g>
       <use style="fill:#262626;stroke:#262626;stroke-width:0.5;" x="250.425" xlink:href="#m15e390c27a" y="781.413648892"/>
      </g>
     </g>
    </g>
    <g id="ytick_8">
     <g id="line2d_12">
      <g>
       <use style="fill:#262626;stroke:#262626;stroke-width:0.5;" x="250.425" xlink:href="#m15e390c27a" y="752.105172786"/>
      </g>
     </g>
    </g>
    <g id="ytick_9">
     <g id="line2d_13">
      <g>
       <use style="fill:#262626;stroke:#262626;stroke-width:0.5;" x="250.425" xlink:href="#m15e390c27a" y="693.488220575"/>
      </g>
     </g>
    </g>
    <g id="ytick_10">
     <g id="line2d_14">
      <g>
       <use style="fill:#262626;stroke:#262626;stroke-width:0.5;" x="250.425" xlink:href="#m15e390c27a" y="664.179744469"/>
      </g>
     </g>
    </g>
    <g id="ytick_11">
     <g id="line2d_15">
      <g>
       <use style="fill:#262626;stroke:#262626;stroke-width:0.5;" x="250.425" xlink:href="#m15e390c27a" y="634.871268363"/>
      </g>
     </g>
    </g>
    <g id="ytick_12">
     <g id="line2d_16">
      <g>
       <use style="fill:#262626;stroke:#262626;stroke-width:0.5;" x="250.425" xlink:href="#m15e390c27a" y="576.254316151"/>
      </g>
     </g>
    </g>
    <g id="ytick_13">
     <g id="line2d_17">
      <g>
       <use style="fill:#262626;stroke:#262626;stroke-width:0.5;" x="250.425" xlink:href="#m15e390c27a" y="546.945840045"/>
      </g>
     </g>
    </g>
    <g id="ytick_14">
     <g id="line2d_18">
      <g>
       <use style="fill:#262626;stroke:#262626;stroke-width:0.5;" x="250.425" xlink:href="#m15e390c27a" y="517.637363939"/>
      </g>
     </g>
    </g>
    <g id="ytick_15">
     <g id="line2d_19">
      <g>
       <use style="fill:#262626;stroke:#262626;stroke-width:0.5;" x="250.425" xlink:href="#m15e390c27a" y="459.020411727"/>
      </g>
     </g>
    </g>
    <g id="ytick_16">
     <g id="line2d_20">
      <g>
       <use style="fill:#262626;stroke:#262626;stroke-width:0.5;" x="250.425" xlink:href="#m15e390c27a" y="429.711935622"/>
      </g>
     </g>
    </g>
    <g id="ytick_17">
     <g id="line2d_21">
      <g>
       <use style="fill:#262626;stroke:#262626;stroke-width:0.5;" x="250.425" xlink:href="#m15e390c27a" y="400.403459516"/>
      </g>
     </g>
    </g>
    <g id="ytick_18">
     <g id="line2d_22">
      <g>
       <use style="fill:#262626;stroke:#262626;stroke-width:0.5;" x="250.425" xlink:href="#m15e390c27a" y="341.786507304"/>
      </g>
     </g>
    </g>
    <g id="ytick_19">
     <g id="line2d_23">
      <g>
       <use style="fill:#262626;stroke:#262626;stroke-width:0.5;" x="250.425" xlink:href="#m15e390c27a" y="312.478031198"/>
      </g>
     </g>
    </g>
    <g id="ytick_20">
     <g id="line2d_24">
      <g>
       <use style="fill:#262626;stroke:#262626;stroke-width:0.5;" x="250.425" xlink:href="#m15e390c27a" y="283.169555092"/>
      </g>
     </g>
    </g>
    <g id="ytick_21">
     <g id="line2d_25">
      <g>
       <use style="fill:#262626;stroke:#262626;stroke-width:0.5;" x="250.425" xlink:href="#m15e390c27a" y="224.55260288"/>
      </g>
     </g>
    </g>
    <g id="ytick_22">
     <g id="line2d_26">
      <g>
       <use style="fill:#262626;stroke:#262626;stroke-width:0.5;" x="250.425" xlink:href="#m15e390c27a" y="195.244126775"/>
      </g>
     </g>
    </g>
    <g id="ytick_23">
     <g id="line2d_27">
      <g>
       <use style="fill:#262626;stroke:#262626;stroke-width:0.5;" x="250.425" xlink:href="#m15e390c27a" y="165.935650669"/>
      </g>
     </g>
    </g>
    <g id="ytick_24">
     <g id="line2d_28">
      <g>
       <use style="fill:#262626;stroke:#262626;stroke-width:0.5;" x="250.425" xlink:href="#m15e390c27a" y="107.318698457"/>
      </g>
     </g>
    </g>
    <g id="text_9">
     <!-- Mbits/s -->
     <defs>
      <path d="M 18.3125 70.21875 
L 18.3125 54.6875 
L 36.8125 54.6875 
L 36.8125 47.703125 
L 18.3125 47.703125 
L 18.3125 18.015625 
Q 18.3125 11.328125 20.140625 9.421875 
Q 21.96875 7.515625 27.59375 7.515625 
L 36.8125 7.515625 
L 36.8125 0 
L 27.59375 0 
Q 17.1875 0 13.234375 3.875 
Q 9.28125 7.765625 9.28125 18.015625 
L 9.28125 47.703125 
L 2.6875 47.703125 
L 2.6875 54.6875 
L 9.28125 54.6875 
L 9.28125 70.21875 
z
" id="BitstreamVeraSans-Roman-74"/>
      <path d="M 9.8125 72.90625 
L 24.515625 72.90625 
L 43.109375 23.296875 
L 61.8125 72.90625 
L 76.515625 72.90625 
L 76.515625 0 
L 66.890625 0 
L 66.890625 64.015625 
L 48.09375 14.015625 
L 38.1875 14.015625 
L 19.390625 64.015625 
L 19.390625 0 
L 9.8125 0 
z
" id="BitstreamVeraSans-Roman-4d"/>
      <path d="M 25.390625 72.90625 
L 33.6875 72.90625 
L 8.296875 -9.28125 
L 0 -9.28125 
z
" id="BitstreamVeraSans-Roman-2f"/>
      <path d="M 48.6875 27.296875 
Q 48.6875 37.203125 44.609375 42.84375 
Q 40.53125 48.484375 33.40625 48.484375 
Q 26.265625 48.484375 22.1875 42.84375 
Q 18.109375 37.203125 18.109375 27.296875 
Q 18.109375 17.390625 22.1875 11.75 
Q 26.265625 6.109375 33.40625 6.109375 
Q 40.53125 6.109375 44.609375 11.75 
Q 48.6875 17.390625 48.6875 27.296875 
M 18.109375 46.390625 
Q 20.953125 51.265625 25.265625 53.625 
Q 29.59375 56 35.59375 56 
Q 45.5625 56 51.78125 48.09375 
Q 58.015625 40.1875 58.015625 27.296875 
Q 58.015625 14.40625 51.78125 6.484375 
Q 45.5625 -1.421875 35.59375 -1.421875 
Q 29.59375 -1.421875 25.265625 0.953125 
Q 20.953125 3.328125 18.109375 8.203125 
L 18.109375 0 
L 9.078125 0 
L 9.078125 75.984375 
L 18.109375 75.984375 
z
" id="BitstreamVeraSans-Roman-62"/>
     </defs>
     <g style="fill:#262626;" transform="translate(223.659375 469.9275)rotate(-90.0)scale(0.12 -0.12)">
      <use xlink:href="#BitstreamVeraSans-Roman-4d"/>
      <use x="86.279296875" xlink:href="#BitstreamVeraSans-Roman-62"/>
      <use x="149.755859375" xlink:href="#BitstreamVeraSans-Roman-69"/>
      <use x="177.5390625" xlink:href="#BitstreamVeraSans-Roman-74"/>
      <use x="216.748046875" xlink:href="#BitstreamVeraSans-Roman-73"/>
      <use x="268.84765625" xlink:href="#BitstreamVeraSans-Roman-2f"/>
      <use x="302.5390625" xlink:href="#BitstreamVeraSans-Roman-73"/>
     </g>
    </g>
   </g>
   <g id="line2d_29">
    <path clip-path="url(#p93dfa34019)" d="M 310.379662 735.63857 
L 350.349437 735.63857 
L 350.349437 440.310801 
L 310.379662 440.310801 
L 310.379662 735.63857 
" style="fill:none;stroke:#1b9e77;stroke-linecap:round;"/>
   </g>
   <g id="line2d_30">
    <path clip-path="url(#p93dfa34019)" d="M 330.36455 735.63857 
L 330.36455 789.758385 
" style="fill:none;stroke:#1b9e77;stroke-dasharray:6.000000,6.000000;stroke-dashoffset:0.0;"/>
   </g>
   <g id="line2d_31">
    <path clip-path="url(#p93dfa34019)" d="M 330.36455 440.310801 
L 330.36455 133.696327 
" style="fill:none;stroke:#1b9e77;stroke-dasharray:6.000000,6.000000;stroke-dashoffset:0.0;"/>
   </g>
   <g id="line2d_32">
    <path clip-path="url(#p93dfa34019)" d="M 320.372106 789.758385 
L 340.356994 789.758385 
" style="fill:none;stroke:#1b9e77;stroke-linecap:round;"/>
   </g>
   <g id="line2d_33">
    <path clip-path="url(#p93dfa34019)" d="M 320.372106 133.696327 
L 340.356994 133.696327 
" style="fill:none;stroke:#1b9e77;stroke-linecap:round;"/>
   </g>
   <g id="line2d_34">
    <path clip-path="url(#p93dfa34019)" d="M 310.379662 630.376 
L 350.349437 630.376 
" style="fill:none;stroke:#ff0000;stroke-linecap:round;"/>
   </g>
   <g id="line2d_35"/>
   <g id="line2d_36">
    <path clip-path="url(#p93dfa34019)" d="M 390.319212 726.505167 
L 430.288987 726.505167 
L 430.288987 452.906527 
L 390.319212 452.906527 
L 390.319212 726.505167 
" style="fill:none;stroke:#d95f02;stroke-linecap:round;"/>
   </g>
   <g id="line2d_37">
    <path clip-path="url(#p93dfa34019)" d="M 410.3041 726.505167 
L 410.3041 791.703161 
" style="fill:none;stroke:#d95f02;stroke-dasharray:6.000000,6.000000;stroke-dashoffset:0.0;"/>
   </g>
   <g id="line2d_38">
    <path clip-path="url(#p93dfa34019)" d="M 410.3041 452.906527 
L 410.3041 192.916585 
" style="fill:none;stroke:#d95f02;stroke-dasharray:6.000000,6.000000;stroke-dashoffset:0.0;"/>
   </g>
   <g id="line2d_39">
    <path clip-path="url(#p93dfa34019)" d="M 400.311656 791.703161 
L 420.296544 791.703161 
" style="fill:none;stroke:#d95f02;stroke-linecap:round;"/>
   </g>
   <g id="line2d_40">
    <path clip-path="url(#p93dfa34019)" d="M 400.311656 192.916585 
L 420.296544 192.916585 
" style="fill:none;stroke:#d95f02;stroke-linecap:round;"/>
   </g>
   <g id="line2d_41">
    <path clip-path="url(#p93dfa34019)" d="M 390.319212 635.177635 
L 430.288987 635.177635 
" style="fill:none;stroke:#ff0000;stroke-linecap:round;"/>
   </g>
   <g id="line2d_42"/>
   <g id="line2d_43">
    <path clip-path="url(#p93dfa34019)" d="M 470.258762 738.273568 
L 510.228538 738.273568 
L 510.228538 411.034037 
L 470.258762 411.034037 
L 470.258762 738.273568 
" style="fill:none;stroke:#7570b3;stroke-linecap:round;"/>
   </g>
   <g id="line2d_44">
    <path clip-path="url(#p93dfa34019)" d="M 490.24365 738.273568 
L 490.24365 794.020801 
" style="fill:none;stroke:#7570b3;stroke-dasharray:6.000000,6.000000;stroke-dashoffset:0.0;"/>
   </g>
   <g id="line2d_45">
    <path clip-path="url(#p93dfa34019)" d="M 490.24365 411.034037 
L 490.24365 96.767647 
" style="fill:none;stroke:#7570b3;stroke-dasharray:6.000000,6.000000;stroke-dashoffset:0.0;"/>
   </g>
   <g id="line2d_46">
    <path clip-path="url(#p93dfa34019)" d="M 480.251206 794.020801 
L 500.236094 794.020801 
" style="fill:none;stroke:#7570b3;stroke-linecap:round;"/>
   </g>
   <g id="line2d_47">
    <path clip-path="url(#p93dfa34019)" d="M 480.251206 96.767647 
L 500.236094 96.767647 
" style="fill:none;stroke:#7570b3;stroke-linecap:round;"/>
   </g>
   <g id="line2d_48">
    <path clip-path="url(#p93dfa34019)" d="M 470.258762 620.419644 
L 510.228538 620.419644 
" style="fill:none;stroke:#ff0000;stroke-linecap:round;"/>
   </g>
   <g id="line2d_49"/>
   <g id="line2d_50">
    <path clip-path="url(#p93dfa34019)" d="M 550.198312 726.31736 
L 590.168087 726.31736 
L 590.168087 393.102621 
L 550.198312 393.102621 
L 550.198312 726.31736 
" style="fill:none;stroke:#e7298a;stroke-linecap:round;"/>
   </g>
   <g id="line2d_51">
    <path clip-path="url(#p93dfa34019)" d="M 570.1832 726.31736 
L 570.1832 800.532353 
" style="fill:none;stroke:#e7298a;stroke-dasharray:6.000000,6.000000;stroke-dashoffset:0.0;"/>
   </g>
   <g id="line2d_52">
    <path clip-path="url(#p93dfa34019)" d="M 570.1832 393.102621 
L 570.1832 109.077207 
" style="fill:none;stroke:#e7298a;stroke-dasharray:6.000000,6.000000;stroke-dashoffset:0.0;"/>
   </g>
   <g id="line2d_53">
    <path clip-path="url(#p93dfa34019)" d="M 560.190756 800.532353 
L 580.175644 800.532353 
" style="fill:none;stroke:#e7298a;stroke-linecap:round;"/>
   </g>
   <g id="line2d_54">
    <path clip-path="url(#p93dfa34019)" d="M 560.190756 109.077207 
L 580.175644 109.077207 
" style="fill:none;stroke:#e7298a;stroke-linecap:round;"/>
   </g>
   <g id="line2d_55">
    <path clip-path="url(#p93dfa34019)" d="M 550.198312 625.62781 
L 590.168087 625.62781 
" style="fill:none;stroke:#ff0000;stroke-linecap:round;"/>
   </g>
   <g id="line2d_56"/>
   <g id="line2d_57">
    <path clip-path="url(#p93dfa34019)" d="M 630.137862 770.131443 
L 670.107638 770.131443 
L 670.107638 405.368543 
L 630.137862 405.368543 
L 630.137862 770.131443 
" style="fill:none;stroke:#66a61e;stroke-linecap:round;"/>
   </g>
   <g id="line2d_58">
    <path clip-path="url(#p93dfa34019)" d="M 650.12275 770.131443 
L 650.12275 794.634986 
" style="fill:none;stroke:#66a61e;stroke-dasharray:6.000000,6.000000;stroke-dashoffset:0.0;"/>
   </g>
   <g id="line2d_59">
    <path clip-path="url(#p93dfa34019)" d="M 650.12275 405.368543 
L 650.12275 118.455919 
" style="fill:none;stroke:#66a61e;stroke-dasharray:6.000000,6.000000;stroke-dashoffset:0.0;"/>
   </g>
   <g id="line2d_60">
    <path clip-path="url(#p93dfa34019)" d="M 640.130306 794.634986 
L 660.115194 794.634986 
" style="fill:none;stroke:#66a61e;stroke-linecap:round;"/>
   </g>
   <g id="line2d_61">
    <path clip-path="url(#p93dfa34019)" d="M 640.130306 118.455919 
L 660.115194 118.455919 
" style="fill:none;stroke:#66a61e;stroke-linecap:round;"/>
   </g>
   <g id="line2d_62">
    <path clip-path="url(#p93dfa34019)" d="M 630.137862 646.52759 
L 670.107638 646.52759 
" style="fill:none;stroke:#ff0000;stroke-linecap:round;"/>
   </g>
   <g id="line2d_63"/>
   <g id="line2d_64">
    <path clip-path="url(#p93dfa34019)" d="M 710.077412 735.63857 
L 750.047187 735.63857 
L 750.047187 440.310801 
L 710.077412 440.310801 
L 710.077412 735.63857 
" style="fill:none;stroke:#e6ab02;stroke-linecap:round;"/>
   </g>
   <g id="line2d_65">
    <path clip-path="url(#p93dfa34019)" d="M 730.0623 735.63857 
L 730.0623 789.758385 
" style="fill:none;stroke:#e6ab02;stroke-dasharray:6.000000,6.000000;stroke-dashoffset:0.0;"/>
   </g>
   <g id="line2d_66">
    <path clip-path="url(#p93dfa34019)" d="M 730.0623 440.310801 
L 730.0623 133.696327 
" style="fill:none;stroke:#e6ab02;stroke-dasharray:6.000000,6.000000;stroke-dashoffset:0.0;"/>
   </g>
   <g id="line2d_67">
    <path clip-path="url(#p93dfa34019)" d="M 720.069856 789.758385 
L 740.054744 789.758385 
" style="fill:none;stroke:#e6ab02;stroke-linecap:round;"/>
   </g>
   <g id="line2d_68">
    <path clip-path="url(#p93dfa34019)" d="M 720.069856 133.696327 
L 740.054744 133.696327 
" style="fill:none;stroke:#e6ab02;stroke-linecap:round;"/>
   </g>
   <g id="line2d_69">
    <path clip-path="url(#p93dfa34019)" d="M 710.077412 630.376 
L 750.047187 630.376 
" style="fill:none;stroke:#ff0000;stroke-linecap:round;"/>
   </g>
   <g id="line2d_70"/>
   <g id="line2d_71">
    <path clip-path="url(#p93dfa34019)" d="M 790.016962 771.760977 
L 829.986737 771.760977 
L 829.986737 464.705473 
L 790.016962 464.705473 
L 790.016962 771.760977 
" style="fill:none;stroke:#a6761d;stroke-linecap:round;"/>
   </g>
   <g id="line2d_72">
    <path clip-path="url(#p93dfa34019)" d="M 810.00185 771.760977 
L 810.00185 784.033926 
" style="fill:none;stroke:#a6761d;stroke-dasharray:6.000000,6.000000;stroke-dashoffset:0.0;"/>
   </g>
   <g id="line2d_73">
    <path clip-path="url(#p93dfa34019)" d="M 810.00185 464.705473 
L 810.00185 234.517358 
" style="fill:none;stroke:#a6761d;stroke-dasharray:6.000000,6.000000;stroke-dashoffset:0.0;"/>
   </g>
   <g id="line2d_74">
    <path clip-path="url(#p93dfa34019)" d="M 800.009406 784.033926 
L 819.994294 784.033926 
" style="fill:none;stroke:#a6761d;stroke-linecap:round;"/>
   </g>
   <g id="line2d_75">
    <path clip-path="url(#p93dfa34019)" d="M 800.009406 234.517358 
L 819.994294 234.517358 
" style="fill:none;stroke:#a6761d;stroke-linecap:round;"/>
   </g>
   <g id="line2d_76">
    <path clip-path="url(#p93dfa34019)" d="M 790.016962 700.246567 
L 829.986737 700.246567 
" style="fill:none;stroke:#ff0000;stroke-linecap:round;"/>
   </g>
   <g id="line2d_77"/>
   <g id="line2d_78">
    <path clip-path="url(#p93dfa34019)" d="M 869.956512 579.733164 
L 909.926287 579.733164 
L 909.926287 568.384617 
L 869.956512 568.384617 
L 869.956512 579.733164 
" style="fill:none;stroke:#666666;stroke-linecap:round;"/>
   </g>
   <g id="line2d_79">
    <path clip-path="url(#p93dfa34019)" d="M 889.9414 579.733164 
L 889.9414 592.175415 
" style="fill:none;stroke:#666666;stroke-dasharray:6.000000,6.000000;stroke-dashoffset:0.0;"/>
   </g>
   <g id="line2d_80">
    <path clip-path="url(#p93dfa34019)" d="M 889.9414 568.384617 
L 889.9414 552.175313 
" style="fill:none;stroke:#666666;stroke-dasharray:6.000000,6.000000;stroke-dashoffset:0.0;"/>
   </g>
   <g id="line2d_81">
    <path clip-path="url(#p93dfa34019)" d="M 879.948956 592.175415 
L 899.933844 592.175415 
" style="fill:none;stroke:#666666;stroke-linecap:round;"/>
   </g>
   <g id="line2d_82">
    <path clip-path="url(#p93dfa34019)" d="M 879.948956 552.175313 
L 899.933844 552.175313 
" style="fill:none;stroke:#666666;stroke-linecap:round;"/>
   </g>
   <g id="line2d_83">
    <path clip-path="url(#p93dfa34019)" d="M 869.956512 573.710044 
L 909.926287 573.710044 
" style="fill:none;stroke:#ff0000;stroke-linecap:round;"/>
   </g>
   <g id="line2d_84">
    <defs>
     <path d="M -3 0 
L 3 0 
M 0 3 
L 0 -3 
" id="m208f8f8855" style="stroke:#666666;stroke-width:0.5;"/>
    </defs>
    <g clip-path="url(#p93dfa34019)">
     <use style="fill:#0000ff;stroke:#666666;stroke-width:0.5;" x="889.9414" xlink:href="#m208f8f8855" y="605.572835332"/>
     <use style="fill:#0000ff;stroke:#666666;stroke-width:0.5;" x="889.9414" xlink:href="#m208f8f8855" y="617.47292533"/>
     <use style="fill:#0000ff;stroke:#666666;stroke-width:0.5;" x="889.9414" xlink:href="#m208f8f8855" y="550.684486832"/>
     <use style="fill:#0000ff;stroke:#666666;stroke-width:0.5;" x="889.9414" xlink:href="#m208f8f8855" y="443.309105661"/>
     <use style="fill:#0000ff;stroke:#666666;stroke-width:0.5;" x="889.9414" xlink:href="#m208f8f8855" y="440.705284825"/>
     <use style="fill:#0000ff;stroke:#666666;stroke-width:0.5;" x="889.9414" xlink:href="#m208f8f8855" y="489.318682025"/>
     <use style="fill:#0000ff;stroke:#666666;stroke-width:0.5;" x="889.9414" xlink:href="#m208f8f8855" y="546.7763204"/>
     <use style="fill:#0000ff;stroke:#666666;stroke-width:0.5;" x="889.9414" xlink:href="#m208f8f8855" y="547.945305685"/>
     <use style="fill:#0000ff;stroke:#666666;stroke-width:0.5;" x="889.9414" xlink:href="#m208f8f8855" y="543.639499073"/>
     <use style="fill:#0000ff;stroke:#666666;stroke-width:0.5;" x="889.9414" xlink:href="#m208f8f8855" y="530.662908565"/>
     <use style="fill:#0000ff;stroke:#666666;stroke-width:0.5;" x="889.9414" xlink:href="#m208f8f8855" y="406.265154737"/>
    </g>
   </g>
   <g id="line2d_85">
    <path clip-path="url(#p93dfa34019)" d="M 969.88095 807.57 
L 969.88095 89.73 
" style="fill:none;stroke:#000000;stroke-dasharray:1.000000,3.000000;stroke-dashoffset:0.0;stroke-width:0.5;"/>
   </g>
   <g id="patch_3">
    <path d="M 250.425 89.73 
L 1689.3369 89.73 
" style="fill:none;"/>
   </g>
   <g id="patch_4">
    <path d="M 1689.3369 807.57 
L 1689.3369 89.73 
" style="fill:none;"/>
   </g>
   <g id="patch_5">
    <path d="M 250.425 807.57 
L 1689.3369 807.57 
" style="fill:none;"/>
   </g>
   <g id="patch_6">
    <path d="M 250.425 807.57 
L 250.425 89.73 
" style="fill:none;"/>
   </g>
   <g id="legend_1">
    <g id="line2d_86">
     <path d="M 1851.615609 97.825198 
L 1871.607609 97.825198 
" style="fill:none;stroke:#1b9e77;stroke-linecap:round;"/>
    </g>
    <g id="line2d_87"/>
    <g id="text_10">
     <!-- normal-base -->
     <defs>
      <path d="M 56.203125 29.59375 
L 56.203125 25.203125 
L 14.890625 25.203125 
Q 15.484375 15.921875 20.484375 11.0625 
Q 25.484375 6.203125 34.421875 6.203125 
Q 39.59375 6.203125 44.453125 7.46875 
Q 49.3125 8.734375 54.109375 11.28125 
L 54.109375 2.78125 
Q 49.265625 0.734375 44.1875 -0.34375 
Q 39.109375 -1.421875 33.890625 -1.421875 
Q 20.796875 -1.421875 13.15625 6.1875 
Q 5.515625 13.8125 5.515625 26.8125 
Q 5.515625 40.234375 12.765625 48.109375 
Q 20.015625 56 32.328125 56 
Q 43.359375 56 49.78125 48.890625 
Q 56.203125 41.796875 56.203125 29.59375 
M 47.21875 32.234375 
Q 47.125 39.59375 43.09375 43.984375 
Q 39.0625 48.390625 32.421875 48.390625 
Q 24.90625 48.390625 20.390625 44.140625 
Q 15.875 39.890625 15.1875 32.171875 
z
" id="BitstreamVeraSans-Roman-65"/>
      <path d="M 41.109375 46.296875 
Q 39.59375 47.171875 37.8125 47.578125 
Q 36.03125 48 33.890625 48 
Q 26.265625 48 22.1875 43.046875 
Q 18.109375 38.09375 18.109375 28.8125 
L 18.109375 0 
L 9.078125 0 
L 9.078125 54.6875 
L 18.109375 54.6875 
L 18.109375 46.1875 
Q 20.953125 51.171875 25.484375 53.578125 
Q 30.03125 56 36.53125 56 
Q 37.453125 56 38.578125 55.875 
Q 39.703125 55.765625 41.0625 55.515625 
z
" id="BitstreamVeraSans-Roman-72"/>
      <path d="M 4.890625 31.390625 
L 31.203125 31.390625 
L 31.203125 23.390625 
L 4.890625 23.390625 
z
" id="BitstreamVeraSans-Roman-2d"/>
     </defs>
     <g style="fill:#262626;" transform="translate(1879.604409 101.323798125)scale(0.09996 -0.09996)">
      <use xlink:href="#BitstreamVeraSans-Roman-6e"/>
      <use x="63.37890625" xlink:href="#BitstreamVeraSans-Roman-6f"/>
      <use x="124.560546875" xlink:href="#BitstreamVeraSans-Roman-72"/>
      <use x="165.658203125" xlink:href="#BitstreamVeraSans-Roman-6d"/>
      <use x="263.0703125" xlink:href="#BitstreamVeraSans-Roman-61"/>
      <use x="324.349609375" xlink:href="#BitstreamVeraSans-Roman-6c"/>
      <use x="352.1328125" xlink:href="#BitstreamVeraSans-Roman-2d"/>
      <use x="388.216796875" xlink:href="#BitstreamVeraSans-Roman-62"/>
      <use x="451.693359375" xlink:href="#BitstreamVeraSans-Roman-61"/>
      <use x="512.97265625" xlink:href="#BitstreamVeraSans-Roman-73"/>
      <use x="565.072265625" xlink:href="#BitstreamVeraSans-Roman-65"/>
     </g>
    </g>
    <g id="line2d_88">
     <path d="M 1851.615609 112.497452 
L 1871.607609 112.497452 
" style="fill:none;stroke:#d95f02;stroke-linecap:round;"/>
    </g>
    <g id="line2d_89"/>
    <g id="text_11">
     <!-- normal-taildrop -->
     <g style="fill:#262626;" transform="translate(1879.604409 115.996051875)scale(0.09996 -0.09996)">
      <use xlink:href="#BitstreamVeraSans-Roman-6e"/>
      <use x="63.37890625" xlink:href="#BitstreamVeraSans-Roman-6f"/>
      <use x="124.560546875" xlink:href="#BitstreamVeraSans-Roman-72"/>
      <use x="165.658203125" xlink:href="#BitstreamVeraSans-Roman-6d"/>
      <use x="263.0703125" xlink:href="#BitstreamVeraSans-Roman-61"/>
      <use x="324.349609375" xlink:href="#BitstreamVeraSans-Roman-6c"/>
      <use x="352.1328125" xlink:href="#BitstreamVeraSans-Roman-2d"/>
      <use x="388.216796875" xlink:href="#BitstreamVeraSans-Roman-74"/>
      <use x="427.42578125" xlink:href="#BitstreamVeraSans-Roman-61"/>
      <use x="488.705078125" xlink:href="#BitstreamVeraSans-Roman-69"/>
      <use x="516.48828125" xlink:href="#BitstreamVeraSans-Roman-6c"/>
      <use x="544.271484375" xlink:href="#BitstreamVeraSans-Roman-64"/>
      <use x="607.748046875" xlink:href="#BitstreamVeraSans-Roman-72"/>
      <use x="648.830078125" xlink:href="#BitstreamVeraSans-Roman-6f"/>
      <use x="710.01171875" xlink:href="#BitstreamVeraSans-Roman-70"/>
     </g>
    </g>
    <g id="line2d_90">
     <path d="M 1851.615609 127.169706 
L 1871.607609 127.169706 
" style="fill:none;stroke:#7570b3;stroke-linecap:round;"/>
    </g>
    <g id="line2d_91"/>
    <g id="text_12">
     <!-- normal-fq -->
     <defs>
      <path d="M 37.109375 75.984375 
L 37.109375 68.5 
L 28.515625 68.5 
Q 23.6875 68.5 21.796875 66.546875 
Q 19.921875 64.59375 19.921875 59.515625 
L 19.921875 54.6875 
L 34.71875 54.6875 
L 34.71875 47.703125 
L 19.921875 47.703125 
L 19.921875 0 
L 10.890625 0 
L 10.890625 47.703125 
L 2.296875 47.703125 
L 2.296875 54.6875 
L 10.890625 54.6875 
L 10.890625 58.5 
Q 10.890625 67.625 15.140625 71.796875 
Q 19.390625 75.984375 28.609375 75.984375 
z
" id="BitstreamVeraSans-Roman-66"/>
      <path d="M 14.796875 27.296875 
Q 14.796875 17.390625 18.875 11.75 
Q 22.953125 6.109375 30.078125 6.109375 
Q 37.203125 6.109375 41.296875 11.75 
Q 45.40625 17.390625 45.40625 27.296875 
Q 45.40625 37.203125 41.296875 42.84375 
Q 37.203125 48.484375 30.078125 48.484375 
Q 22.953125 48.484375 18.875 42.84375 
Q 14.796875 37.203125 14.796875 27.296875 
M 45.40625 8.203125 
Q 42.578125 3.328125 38.25 0.953125 
Q 33.9375 -1.421875 27.875 -1.421875 
Q 17.96875 -1.421875 11.734375 6.484375 
Q 5.515625 14.40625 5.515625 27.296875 
Q 5.515625 40.1875 11.734375 48.09375 
Q 17.96875 56 27.875 56 
Q 33.9375 56 38.25 53.625 
Q 42.578125 51.265625 45.40625 46.390625 
L 45.40625 54.6875 
L 54.390625 54.6875 
L 54.390625 -20.796875 
L 45.40625 -20.796875 
z
" id="BitstreamVeraSans-Roman-71"/>
     </defs>
     <g style="fill:#262626;" transform="translate(1879.604409 130.668305625)scale(0.09996 -0.09996)">
      <use xlink:href="#BitstreamVeraSans-Roman-6e"/>
      <use x="63.37890625" xlink:href="#BitstreamVeraSans-Roman-6f"/>
      <use x="124.560546875" xlink:href="#BitstreamVeraSans-Roman-72"/>
      <use x="165.658203125" xlink:href="#BitstreamVeraSans-Roman-6d"/>
      <use x="263.0703125" xlink:href="#BitstreamVeraSans-Roman-61"/>
      <use x="324.349609375" xlink:href="#BitstreamVeraSans-Roman-6c"/>
      <use x="352.1328125" xlink:href="#BitstreamVeraSans-Roman-2d"/>
      <use x="388.216796875" xlink:href="#BitstreamVeraSans-Roman-66"/>
      <use x="423.421875" xlink:href="#BitstreamVeraSans-Roman-71"/>
     </g>
    </g>
    <g id="line2d_92">
     <path d="M 1851.615609 141.841959 
L 1871.607609 141.841959 
" style="fill:none;stroke:#e7298a;stroke-linecap:round;"/>
    </g>
    <g id="line2d_93"/>
    <g id="text_13">
     <!-- normal-fqcodel -->
     <defs>
      <path d="M 48.78125 52.59375 
L 48.78125 44.1875 
Q 44.96875 46.296875 41.140625 47.34375 
Q 37.3125 48.390625 33.40625 48.390625 
Q 24.65625 48.390625 19.8125 42.84375 
Q 14.984375 37.3125 14.984375 27.296875 
Q 14.984375 17.28125 19.8125 11.734375 
Q 24.65625 6.203125 33.40625 6.203125 
Q 37.3125 6.203125 41.140625 7.25 
Q 44.96875 8.296875 48.78125 10.40625 
L 48.78125 2.09375 
Q 45.015625 0.34375 40.984375 -0.53125 
Q 36.96875 -1.421875 32.421875 -1.421875 
Q 20.0625 -1.421875 12.78125 6.34375 
Q 5.515625 14.109375 5.515625 27.296875 
Q 5.515625 40.671875 12.859375 48.328125 
Q 20.21875 56 33.015625 56 
Q 37.15625 56 41.109375 55.140625 
Q 45.0625 54.296875 48.78125 52.59375 
" id="BitstreamVeraSans-Roman-63"/>
     </defs>
     <g style="fill:#262626;" transform="translate(1879.604409 145.340559375)scale(0.09996 -0.09996)">
      <use xlink:href="#BitstreamVeraSans-Roman-6e"/>
      <use x="63.37890625" xlink:href="#BitstreamVeraSans-Roman-6f"/>
      <use x="124.560546875" xlink:href="#BitstreamVeraSans-Roman-72"/>
      <use x="165.658203125" xlink:href="#BitstreamVeraSans-Roman-6d"/>
      <use x="263.0703125" xlink:href="#BitstreamVeraSans-Roman-61"/>
      <use x="324.349609375" xlink:href="#BitstreamVeraSans-Roman-6c"/>
      <use x="352.1328125" xlink:href="#BitstreamVeraSans-Roman-2d"/>
      <use x="388.216796875" xlink:href="#BitstreamVeraSans-Roman-66"/>
      <use x="423.421875" xlink:href="#BitstreamVeraSans-Roman-71"/>
      <use x="486.8984375" xlink:href="#BitstreamVeraSans-Roman-63"/>
      <use x="541.87890625" xlink:href="#BitstreamVeraSans-Roman-6f"/>
      <use x="603.060546875" xlink:href="#BitstreamVeraSans-Roman-64"/>
      <use x="666.537109375" xlink:href="#BitstreamVeraSans-Roman-65"/>
      <use x="728.060546875" xlink:href="#BitstreamVeraSans-Roman-6c"/>
     </g>
    </g>
    <g id="line2d_94">
     <path d="M 1851.615609 156.514213 
L 1871.607609 156.514213 
" style="fill:none;stroke:#66a61e;stroke-linecap:round;"/>
    </g>
    <g id="line2d_95"/>
    <g id="text_14">
     <!-- dql-base -->
     <g style="fill:#262626;" transform="translate(1879.604409 160.012813125)scale(0.09996 -0.09996)">
      <use xlink:href="#BitstreamVeraSans-Roman-64"/>
      <use x="63.4765625" xlink:href="#BitstreamVeraSans-Roman-71"/>
      <use x="126.953125" xlink:href="#BitstreamVeraSans-Roman-6c"/>
      <use x="154.736328125" xlink:href="#BitstreamVeraSans-Roman-2d"/>
      <use x="190.8203125" xlink:href="#BitstreamVeraSans-Roman-62"/>
      <use x="254.296875" xlink:href="#BitstreamVeraSans-Roman-61"/>
      <use x="315.576171875" xlink:href="#BitstreamVeraSans-Roman-73"/>
      <use x="367.67578125" xlink:href="#BitstreamVeraSans-Roman-65"/>
     </g>
    </g>
    <g id="line2d_96">
     <path d="M 1851.615609 171.186467 
L 1871.607609 171.186467 
" style="fill:none;stroke:#e6ab02;stroke-linecap:round;"/>
    </g>
    <g id="line2d_97"/>
    <g id="text_15">
     <!-- normal-base -->
     <g style="fill:#262626;" transform="translate(1879.604409 174.685066875)scale(0.09996 -0.09996)">
      <use xlink:href="#BitstreamVeraSans-Roman-6e"/>
      <use x="63.37890625" xlink:href="#BitstreamVeraSans-Roman-6f"/>
      <use x="124.560546875" xlink:href="#BitstreamVeraSans-Roman-72"/>
      <use x="165.658203125" xlink:href="#BitstreamVeraSans-Roman-6d"/>
      <use x="263.0703125" xlink:href="#BitstreamVeraSans-Roman-61"/>
      <use x="324.349609375" xlink:href="#BitstreamVeraSans-Roman-6c"/>
      <use x="352.1328125" xlink:href="#BitstreamVeraSans-Roman-2d"/>
      <use x="388.216796875" xlink:href="#BitstreamVeraSans-Roman-62"/>
      <use x="451.693359375" xlink:href="#BitstreamVeraSans-Roman-61"/>
      <use x="512.97265625" xlink:href="#BitstreamVeraSans-Roman-73"/>
      <use x="565.072265625" xlink:href="#BitstreamVeraSans-Roman-65"/>
     </g>
    </g>
    <g id="line2d_98">
     <path d="M 1851.615609 185.858721 
L 1871.607609 185.858721 
" style="fill:none;stroke:#a6761d;stroke-linecap:round;"/>
    </g>
    <g id="line2d_99"/>
    <g id="text_16">
     <!-- dql-fq -->
     <g style="fill:#262626;" transform="translate(1879.604409 189.357320625)scale(0.09996 -0.09996)">
      <use xlink:href="#BitstreamVeraSans-Roman-64"/>
      <use x="63.4765625" xlink:href="#BitstreamVeraSans-Roman-71"/>
      <use x="126.953125" xlink:href="#BitstreamVeraSans-Roman-6c"/>
      <use x="154.736328125" xlink:href="#BitstreamVeraSans-Roman-2d"/>
      <use x="190.8203125" xlink:href="#BitstreamVeraSans-Roman-66"/>
      <use x="226.025390625" xlink:href="#BitstreamVeraSans-Roman-71"/>
     </g>
    </g>
    <g id="line2d_100">
     <path d="M 1851.615609 200.530974 
L 1871.607609 200.530974 
" style="fill:none;stroke:#666666;stroke-linecap:round;"/>
    </g>
    <g id="line2d_101"/>
    <g id="text_17">
     <!-- dql-fqcodel -->
     <g style="fill:#262626;" transform="translate(1879.604409 204.029574375)scale(0.09996 -0.09996)">
      <use xlink:href="#BitstreamVeraSans-Roman-64"/>
      <use x="63.4765625" xlink:href="#BitstreamVeraSans-Roman-71"/>
      <use x="126.953125" xlink:href="#BitstreamVeraSans-Roman-6c"/>
      <use x="154.736328125" xlink:href="#BitstreamVeraSans-Roman-2d"/>
      <use x="190.8203125" xlink:href="#BitstreamVeraSans-Roman-66"/>
      <use x="226.025390625" xlink:href="#BitstreamVeraSans-Roman-71"/>
      <use x="289.501953125" xlink:href="#BitstreamVeraSans-Roman-63"/>
      <use x="344.482421875" xlink:href="#BitstreamVeraSans-Roman-6f"/>
      <use x="405.6640625" xlink:href="#BitstreamVeraSans-Roman-64"/>
      <use x="469.140625" xlink:href="#BitstreamVeraSans-Roman-65"/>
      <use x="530.6640625" xlink:href="#BitstreamVeraSans-Roman-6c"/>
     </g>
    </g>
   </g>
  </g>
  <g id="axes_2">
   <g id="matplotlib.axis_3">
    <g id="ytick_25">
     <g id="line2d_102">
      <g>
       <use style="fill:#262626;stroke:#262626;stroke-width:0.5;" x="1689.3369" xlink:href="#m15e390c27a" y="96.5012349604"/>
      </g>
     </g>
     <g id="text_18">
      <!-- 0 -->
      <g style="fill:#262626;" transform="translate(1693.3369 99.8124849604)scale(0.12 -0.12)">
       <use xlink:href="#BitstreamVeraSans-Roman-30"/>
      </g>
     </g>
    </g>
    <g id="ytick_26">
     <g id="line2d_103">
      <g>
       <use style="fill:#262626;stroke:#262626;stroke-width:0.5;" x="1689.3369" xlink:href="#m15e390c27a" y="240.507774641"/>
      </g>
     </g>
     <g id="text_19">
      <!-- 1000 -->
      <g style="fill:#262626;" transform="translate(1693.3369 243.819024641)scale(0.12 -0.12)">
       <use xlink:href="#BitstreamVeraSans-Roman-31"/>
       <use x="63.623046875" xlink:href="#BitstreamVeraSans-Roman-30"/>
       <use x="127.24609375" xlink:href="#BitstreamVeraSans-Roman-30"/>
       <use x="190.869140625" xlink:href="#BitstreamVeraSans-Roman-30"/>
      </g>
     </g>
    </g>
    <g id="ytick_27">
     <g id="line2d_104">
      <g>
       <use style="fill:#262626;stroke:#262626;stroke-width:0.5;" x="1689.3369" xlink:href="#m15e390c27a" y="384.514314321"/>
      </g>
     </g>
     <g id="text_20">
      <!-- 2000 -->
      <g style="fill:#262626;" transform="translate(1693.3369 387.825564321)scale(0.12 -0.12)">
       <use xlink:href="#BitstreamVeraSans-Roman-32"/>
       <use x="63.623046875" xlink:href="#BitstreamVeraSans-Roman-30"/>
       <use x="127.24609375" xlink:href="#BitstreamVeraSans-Roman-30"/>
       <use x="190.869140625" xlink:href="#BitstreamVeraSans-Roman-30"/>
      </g>
     </g>
    </g>
    <g id="ytick_28">
     <g id="line2d_105">
      <g>
       <use style="fill:#262626;stroke:#262626;stroke-width:0.5;" x="1689.3369" xlink:href="#m15e390c27a" y="528.520854002"/>
      </g>
     </g>
     <g id="text_21">
      <!-- 3000 -->
      <defs>
       <path d="M 40.578125 39.3125 
Q 47.65625 37.796875 51.625 33 
Q 55.609375 28.21875 55.609375 21.1875 
Q 55.609375 10.40625 48.1875 4.484375 
Q 40.765625 -1.421875 27.09375 -1.421875 
Q 22.515625 -1.421875 17.65625 -0.515625 
Q 12.796875 0.390625 7.625 2.203125 
L 7.625 11.71875 
Q 11.71875 9.328125 16.59375 8.109375 
Q 21.484375 6.890625 26.8125 6.890625 
Q 36.078125 6.890625 40.9375 10.546875 
Q 45.796875 14.203125 45.796875 21.1875 
Q 45.796875 27.640625 41.28125 31.265625 
Q 36.765625 34.90625 28.71875 34.90625 
L 20.21875 34.90625 
L 20.21875 43.015625 
L 29.109375 43.015625 
Q 36.375 43.015625 40.234375 45.921875 
Q 44.09375 48.828125 44.09375 54.296875 
Q 44.09375 59.90625 40.109375 62.90625 
Q 36.140625 65.921875 28.71875 65.921875 
Q 24.65625 65.921875 20.015625 65.03125 
Q 15.375 64.15625 9.8125 62.3125 
L 9.8125 71.09375 
Q 15.4375 72.65625 20.34375 73.4375 
Q 25.25 74.21875 29.59375 74.21875 
Q 40.828125 74.21875 47.359375 69.109375 
Q 53.90625 64.015625 53.90625 55.328125 
Q 53.90625 49.265625 50.4375 45.09375 
Q 46.96875 40.921875 40.578125 39.3125 
" id="BitstreamVeraSans-Roman-33"/>
      </defs>
      <g style="fill:#262626;" transform="translate(1693.3369 531.832104002)scale(0.12 -0.12)">
       <use xlink:href="#BitstreamVeraSans-Roman-33"/>
       <use x="63.623046875" xlink:href="#BitstreamVeraSans-Roman-30"/>
       <use x="127.24609375" xlink:href="#BitstreamVeraSans-Roman-30"/>
       <use x="190.869140625" xlink:href="#BitstreamVeraSans-Roman-30"/>
      </g>
     </g>
    </g>
    <g id="ytick_29">
     <g id="line2d_106">
      <g>
       <use style="fill:#262626;stroke:#262626;stroke-width:0.5;" x="1689.3369" xlink:href="#m15e390c27a" y="672.527393682"/>
      </g>
     </g>
     <g id="text_22">
      <!-- 4000 -->
      <g style="fill:#262626;" transform="translate(1693.3369 675.838643682)scale(0.12 -0.12)">
       <use xlink:href="#BitstreamVeraSans-Roman-34"/>
       <use x="63.623046875" xlink:href="#BitstreamVeraSans-Roman-30"/>
       <use x="127.24609375" xlink:href="#BitstreamVeraSans-Roman-30"/>
       <use x="190.869140625" xlink:href="#BitstreamVeraSans-Roman-30"/>
      </g>
     </g>
    </g>
    <g id="ytick_30">
     <g id="line2d_107">
      <g>
       <use style="fill:#262626;stroke:#262626;stroke-width:0.5;" x="1689.3369" xlink:href="#m15e390c27a" y="125.302542897"/>
      </g>
     </g>
    </g>
    <g id="ytick_31">
     <g id="line2d_108">
      <g>
       <use style="fill:#262626;stroke:#262626;stroke-width:0.5;" x="1689.3369" xlink:href="#m15e390c27a" y="154.103850833"/>
      </g>
     </g>
    </g>
    <g id="ytick_32">
     <g id="line2d_109">
      <g>
       <use style="fill:#262626;stroke:#262626;stroke-width:0.5;" x="1689.3369" xlink:href="#m15e390c27a" y="182.905158769"/>
      </g>
     </g>
    </g>
    <g id="ytick_33">
     <g id="line2d_110">
      <g>
       <use style="fill:#262626;stroke:#262626;stroke-width:0.5;" x="1689.3369" xlink:href="#m15e390c27a" y="211.706466705"/>
      </g>
     </g>
    </g>
    <g id="ytick_34">
     <g id="line2d_111">
      <g>
       <use style="fill:#262626;stroke:#262626;stroke-width:0.5;" x="1689.3369" xlink:href="#m15e390c27a" y="269.309082577"/>
      </g>
     </g>
    </g>
    <g id="ytick_35">
     <g id="line2d_112">
      <g>
       <use style="fill:#262626;stroke:#262626;stroke-width:0.5;" x="1689.3369" xlink:href="#m15e390c27a" y="298.110390513"/>
      </g>
     </g>
    </g>
    <g id="ytick_36">
     <g id="line2d_113">
      <g>
       <use style="fill:#262626;stroke:#262626;stroke-width:0.5;" x="1689.3369" xlink:href="#m15e390c27a" y="326.911698449"/>
      </g>
     </g>
    </g>
    <g id="ytick_37">
     <g id="line2d_114">
      <g>
       <use style="fill:#262626;stroke:#262626;stroke-width:0.5;" x="1689.3369" xlink:href="#m15e390c27a" y="355.713006385"/>
      </g>
     </g>
    </g>
    <g id="ytick_38">
     <g id="line2d_115">
      <g>
       <use style="fill:#262626;stroke:#262626;stroke-width:0.5;" x="1689.3369" xlink:href="#m15e390c27a" y="413.315622257"/>
      </g>
     </g>
    </g>
    <g id="ytick_39">
     <g id="line2d_116">
      <g>
       <use style="fill:#262626;stroke:#262626;stroke-width:0.5;" x="1689.3369" xlink:href="#m15e390c27a" y="442.116930194"/>
      </g>
     </g>
    </g>
    <g id="ytick_40">
     <g id="line2d_117">
      <g>
       <use style="fill:#262626;stroke:#262626;stroke-width:0.5;" x="1689.3369" xlink:href="#m15e390c27a" y="470.91823813"/>
      </g>
     </g>
    </g>
    <g id="ytick_41">
     <g id="line2d_118">
      <g>
       <use style="fill:#262626;stroke:#262626;stroke-width:0.5;" x="1689.3369" xlink:href="#m15e390c27a" y="499.719546066"/>
      </g>
     </g>
    </g>
    <g id="ytick_42">
     <g id="line2d_119">
      <g>
       <use style="fill:#262626;stroke:#262626;stroke-width:0.5;" x="1689.3369" xlink:href="#m15e390c27a" y="557.322161938"/>
      </g>
     </g>
    </g>
    <g id="ytick_43">
     <g id="line2d_120">
      <g>
       <use style="fill:#262626;stroke:#262626;stroke-width:0.5;" x="1689.3369" xlink:href="#m15e390c27a" y="586.123469874"/>
      </g>
     </g>
    </g>
    <g id="ytick_44">
     <g id="line2d_121">
      <g>
       <use style="fill:#262626;stroke:#262626;stroke-width:0.5;" x="1689.3369" xlink:href="#m15e390c27a" y="614.92477781"/>
      </g>
     </g>
    </g>
    <g id="ytick_45">
     <g id="line2d_122">
      <g>
       <use style="fill:#262626;stroke:#262626;stroke-width:0.5;" x="1689.3369" xlink:href="#m15e390c27a" y="643.726085746"/>
      </g>
     </g>
    </g>
    <g id="ytick_46">
     <g id="line2d_123">
      <g>
       <use style="fill:#262626;stroke:#262626;stroke-width:0.5;" x="1689.3369" xlink:href="#m15e390c27a" y="701.328701618"/>
      </g>
     </g>
    </g>
    <g id="ytick_47">
     <g id="line2d_124">
      <g>
       <use style="fill:#262626;stroke:#262626;stroke-width:0.5;" x="1689.3369" xlink:href="#m15e390c27a" y="730.130009555"/>
      </g>
     </g>
    </g>
    <g id="ytick_48">
     <g id="line2d_125">
      <g>
       <use style="fill:#262626;stroke:#262626;stroke-width:0.5;" x="1689.3369" xlink:href="#m15e390c27a" y="758.931317491"/>
      </g>
     </g>
    </g>
    <g id="ytick_49">
     <g id="line2d_126">
      <g>
       <use style="fill:#262626;stroke:#262626;stroke-width:0.5;" x="1689.3369" xlink:href="#m15e390c27a" y="787.732625427"/>
      </g>
     </g>
    </g>
    <g id="text_23">
     <!-- Latency (ms) -->
     <defs>
      <path d="M 9.8125 72.90625 
L 19.671875 72.90625 
L 19.671875 8.296875 
L 55.171875 8.296875 
L 55.171875 0 
L 9.8125 0 
z
" id="BitstreamVeraSans-Roman-4c"/>
      <path d="M 32.171875 -5.078125 
Q 28.375 -14.84375 24.75 -17.8125 
Q 21.140625 -20.796875 15.09375 -20.796875 
L 7.90625 -20.796875 
L 7.90625 -13.28125 
L 13.1875 -13.28125 
Q 16.890625 -13.28125 18.9375 -11.515625 
Q 21 -9.765625 23.484375 -3.21875 
L 25.09375 0.875 
L 2.984375 54.6875 
L 12.5 54.6875 
L 29.59375 11.921875 
L 46.6875 54.6875 
L 56.203125 54.6875 
z
" id="BitstreamVeraSans-Roman-79"/>
     </defs>
     <g style="fill:#262626;" transform="translate(1737.995025 487.925625)rotate(-90.0)scale(0.12 -0.12)">
      <use xlink:href="#BitstreamVeraSans-Roman-4c"/>
      <use x="55.712890625" xlink:href="#BitstreamVeraSans-Roman-61"/>
      <use x="116.9921875" xlink:href="#BitstreamVeraSans-Roman-74"/>
      <use x="156.201171875" xlink:href="#BitstreamVeraSans-Roman-65"/>
      <use x="217.724609375" xlink:href="#BitstreamVeraSans-Roman-6e"/>
      <use x="281.103515625" xlink:href="#BitstreamVeraSans-Roman-63"/>
      <use x="336.083984375" xlink:href="#BitstreamVeraSans-Roman-79"/>
      <use x="395.263671875" xlink:href="#BitstreamVeraSans-Roman-20"/>
      <use x="427.05078125" xlink:href="#BitstreamVeraSans-Roman-28"/>
      <use x="466.064453125" xlink:href="#BitstreamVeraSans-Roman-6d"/>
      <use x="563.4765625" xlink:href="#BitstreamVeraSans-Roman-73"/>
      <use x="615.576171875" xlink:href="#BitstreamVeraSans-Roman-29"/>
     </g>
    </g>
   </g>
   <g id="line2d_127">
    <path clip-path="url(#p93dfa34019)" d="M 1029.835613 169.992566 
L 1069.805388 169.992566 
L 1069.805388 447.484733 
L 1029.835613 447.484733 
L 1029.835613 169.992566 
" style="fill:none;stroke:#1b9e77;stroke-linecap:round;"/>
   </g>
   <g id="line2d_128">
    <path clip-path="url(#p93dfa34019)" d="M 1049.8205 169.992566 
L 1049.8205 96.767647 
" style="fill:none;stroke:#1b9e77;stroke-dasharray:6.000000,6.000000;stroke-dashoffset:0.0;"/>
   </g>
   <g id="line2d_129">
    <path clip-path="url(#p93dfa34019)" d="M 1049.8205 447.484733 
L 1049.8205 470.715244 
" style="fill:none;stroke:#1b9e77;stroke-dasharray:6.000000,6.000000;stroke-dashoffset:0.0;"/>
   </g>
   <g id="line2d_130">
    <path clip-path="url(#p93dfa34019)" d="M 1039.828056 96.767647 
L 1059.812944 96.767647 
" style="fill:none;stroke:#1b9e77;stroke-linecap:round;"/>
   </g>
   <g id="line2d_131">
    <path clip-path="url(#p93dfa34019)" d="M 1039.828056 470.715244 
L 1059.812944 470.715244 
" style="fill:none;stroke:#1b9e77;stroke-linecap:round;"/>
   </g>
   <g id="line2d_132">
    <path clip-path="url(#p93dfa34019)" d="M 1029.835613 386.688273 
L 1069.805388 386.688273 
" style="fill:none;stroke:#ff0000;stroke-linecap:round;"/>
   </g>
   <g id="line2d_133"/>
   <g id="line2d_134">
    <path clip-path="url(#p93dfa34019)" d="M 1109.775163 170.70931 
L 1149.744937 170.70931 
L 1149.744937 416.694522 
L 1109.775163 416.694522 
L 1109.775163 170.70931 
" style="fill:none;stroke:#d95f02;stroke-linecap:round;"/>
   </g>
   <g id="line2d_135">
    <path clip-path="url(#p93dfa34019)" d="M 1129.76005 170.70931 
L 1129.76005 96.771247 
" style="fill:none;stroke:#d95f02;stroke-dasharray:6.000000,6.000000;stroke-dashoffset:0.0;"/>
   </g>
   <g id="line2d_136">
    <path clip-path="url(#p93dfa34019)" d="M 1129.76005 416.694522 
L 1129.76005 471.807902 
" style="fill:none;stroke:#d95f02;stroke-dasharray:6.000000,6.000000;stroke-dashoffset:0.0;"/>
   </g>
   <g id="line2d_137">
    <path clip-path="url(#p93dfa34019)" d="M 1119.767606 96.771247 
L 1139.752494 96.771247 
" style="fill:none;stroke:#d95f02;stroke-linecap:round;"/>
   </g>
   <g id="line2d_138">
    <path clip-path="url(#p93dfa34019)" d="M 1119.767606 471.807902 
L 1139.752494 471.807902 
" style="fill:none;stroke:#d95f02;stroke-linecap:round;"/>
   </g>
   <g id="line2d_139">
    <path clip-path="url(#p93dfa34019)" d="M 1109.775163 359.391976 
L 1149.744937 359.391976 
" style="fill:none;stroke:#ff0000;stroke-linecap:round;"/>
   </g>
   <g id="line2d_140"/>
   <g id="line2d_141">
    <path clip-path="url(#p93dfa34019)" d="M 1189.714712 169.847882 
L 1229.684487 169.847882 
L 1229.684487 434.08485 
L 1189.714712 434.08485 
L 1189.714712 169.847882 
" style="fill:none;stroke:#7570b3;stroke-linecap:round;"/>
   </g>
   <g id="line2d_142">
    <path clip-path="url(#p93dfa34019)" d="M 1209.6996 169.847882 
L 1209.6996 96.772327 
" style="fill:none;stroke:#7570b3;stroke-dasharray:6.000000,6.000000;stroke-dashoffset:0.0;"/>
   </g>
   <g id="line2d_143">
    <path clip-path="url(#p93dfa34019)" d="M 1209.6996 434.08485 
L 1209.6996 472.303898 
" style="fill:none;stroke:#7570b3;stroke-dasharray:6.000000,6.000000;stroke-dashoffset:0.0;"/>
   </g>
   <g id="line2d_144">
    <path clip-path="url(#p93dfa34019)" d="M 1199.707156 96.772327 
L 1219.692044 96.772327 
" style="fill:none;stroke:#7570b3;stroke-linecap:round;"/>
   </g>
   <g id="line2d_145">
    <path clip-path="url(#p93dfa34019)" d="M 1199.707156 472.303898 
L 1219.692044 472.303898 
" style="fill:none;stroke:#7570b3;stroke-linecap:round;"/>
   </g>
   <g id="line2d_146">
    <path clip-path="url(#p93dfa34019)" d="M 1189.714712 383.598889 
L 1229.684487 383.598889 
" style="fill:none;stroke:#ff0000;stroke-linecap:round;"/>
   </g>
   <g id="line2d_147"/>
   <g id="line2d_148">
    <path clip-path="url(#p93dfa34019)" d="M 1269.654262 169.556401 
L 1309.624037 169.556401 
L 1309.624037 451.219121 
L 1269.654262 451.219121 
L 1269.654262 169.556401 
" style="fill:none;stroke:#e7298a;stroke-linecap:round;"/>
   </g>
   <g id="line2d_149">
    <path clip-path="url(#p93dfa34019)" d="M 1289.63915 169.556401 
L 1289.63915 96.770812 
" style="fill:none;stroke:#e7298a;stroke-dasharray:6.000000,6.000000;stroke-dashoffset:0.0;"/>
   </g>
   <g id="line2d_150">
    <path clip-path="url(#p93dfa34019)" d="M 1289.63915 451.219121 
L 1289.63915 489.115938 
" style="fill:none;stroke:#e7298a;stroke-dasharray:6.000000,6.000000;stroke-dashoffset:0.0;"/>
   </g>
   <g id="line2d_151">
    <path clip-path="url(#p93dfa34019)" d="M 1279.646706 96.770812 
L 1299.631594 96.770812 
" style="fill:none;stroke:#e7298a;stroke-linecap:round;"/>
   </g>
   <g id="line2d_152">
    <path clip-path="url(#p93dfa34019)" d="M 1279.646706 489.115938 
L 1299.631594 489.115938 
" style="fill:none;stroke:#e7298a;stroke-linecap:round;"/>
   </g>
   <g id="line2d_153">
    <path clip-path="url(#p93dfa34019)" d="M 1269.654262 404.53748 
L 1309.624037 404.53748 
" style="fill:none;stroke:#ff0000;stroke-linecap:round;"/>
   </g>
   <g id="line2d_154"/>
   <g id="line2d_155">
    <path clip-path="url(#p93dfa34019)" d="M 1349.593813 168.069242 
L 1389.563587 168.069242 
L 1389.563587 643.382813 
L 1349.593813 643.382813 
L 1349.593813 168.069242 
" style="fill:none;stroke:#66a61e;stroke-linecap:round;"/>
   </g>
   <g id="line2d_156">
    <path clip-path="url(#p93dfa34019)" d="M 1369.5787 168.069242 
L 1369.5787 96.775207 
" style="fill:none;stroke:#66a61e;stroke-dasharray:6.000000,6.000000;stroke-dashoffset:0.0;"/>
   </g>
   <g id="line2d_157">
    <path clip-path="url(#p93dfa34019)" d="M 1369.5787 643.382813 
L 1369.5787 800.532353 
" style="fill:none;stroke:#66a61e;stroke-dasharray:6.000000,6.000000;stroke-dashoffset:0.0;"/>
   </g>
   <g id="line2d_158">
    <path clip-path="url(#p93dfa34019)" d="M 1359.586256 96.775207 
L 1379.571144 96.775207 
" style="fill:none;stroke:#66a61e;stroke-linecap:round;"/>
   </g>
   <g id="line2d_159">
    <path clip-path="url(#p93dfa34019)" d="M 1359.586256 800.532353 
L 1379.571144 800.532353 
" style="fill:none;stroke:#66a61e;stroke-linecap:round;"/>
   </g>
   <g id="line2d_160">
    <path clip-path="url(#p93dfa34019)" d="M 1349.593813 468.732109 
L 1389.563587 468.732109 
" style="fill:none;stroke:#ff0000;stroke-linecap:round;"/>
   </g>
   <g id="line2d_161"/>
   <g id="line2d_162">
    <path clip-path="url(#p93dfa34019)" d="M 1429.533362 169.992566 
L 1469.503137 169.992566 
L 1469.503137 447.484733 
L 1429.533362 447.484733 
L 1429.533362 169.992566 
" style="fill:none;stroke:#e6ab02;stroke-linecap:round;"/>
   </g>
   <g id="line2d_163">
    <path clip-path="url(#p93dfa34019)" d="M 1449.51825 169.992566 
L 1449.51825 96.767647 
" style="fill:none;stroke:#e6ab02;stroke-dasharray:6.000000,6.000000;stroke-dashoffset:0.0;"/>
   </g>
   <g id="line2d_164">
    <path clip-path="url(#p93dfa34019)" d="M 1449.51825 447.484733 
L 1449.51825 470.715244 
" style="fill:none;stroke:#e6ab02;stroke-dasharray:6.000000,6.000000;stroke-dashoffset:0.0;"/>
   </g>
   <g id="line2d_165">
    <path clip-path="url(#p93dfa34019)" d="M 1439.525806 96.767647 
L 1459.510694 96.767647 
" style="fill:none;stroke:#e6ab02;stroke-linecap:round;"/>
   </g>
   <g id="line2d_166">
    <path clip-path="url(#p93dfa34019)" d="M 1439.525806 470.715244 
L 1459.510694 470.715244 
" style="fill:none;stroke:#e6ab02;stroke-linecap:round;"/>
   </g>
   <g id="line2d_167">
    <path clip-path="url(#p93dfa34019)" d="M 1429.533362 386.688273 
L 1469.503137 386.688273 
" style="fill:none;stroke:#ff0000;stroke-linecap:round;"/>
   </g>
   <g id="line2d_168"/>
   <g id="line2d_169">
    <path clip-path="url(#p93dfa34019)" d="M 1509.472912 97.855849 
L 1549.442687 97.855849 
L 1549.442687 98.31517 
L 1509.472912 98.31517 
L 1509.472912 97.855849 
" style="fill:none;stroke:#a6761d;stroke-linecap:round;"/>
   </g>
   <g id="line2d_170">
    <path clip-path="url(#p93dfa34019)" d="M 1529.4578 97.855849 
L 1529.4578 97.610133 
" style="fill:none;stroke:#a6761d;stroke-dasharray:6.000000,6.000000;stroke-dashoffset:0.0;"/>
   </g>
   <g id="line2d_171">
    <path clip-path="url(#p93dfa34019)" d="M 1529.4578 98.31517 
L 1529.4578 98.945962 
" style="fill:none;stroke:#a6761d;stroke-dasharray:6.000000,6.000000;stroke-dashoffset:0.0;"/>
   </g>
   <g id="line2d_172">
    <path clip-path="url(#p93dfa34019)" d="M 1519.465356 97.610133 
L 1539.450244 97.610133 
" style="fill:none;stroke:#a6761d;stroke-linecap:round;"/>
   </g>
   <g id="line2d_173">
    <path clip-path="url(#p93dfa34019)" d="M 1519.465356 98.945962 
L 1539.450244 98.945962 
" style="fill:none;stroke:#a6761d;stroke-linecap:round;"/>
   </g>
   <g id="line2d_174">
    <path clip-path="url(#p93dfa34019)" d="M 1509.472912 98.069951 
L 1549.442687 98.069951 
" style="fill:none;stroke:#ff0000;stroke-linecap:round;"/>
   </g>
   <g id="line2d_175">
    <defs>
     <path d="M -3 0 
L 3 0 
M 0 3 
L 0 -3 
" id="m7ba3e957bb" style="stroke:#a6761d;stroke-width:0.5;"/>
    </defs>
    <g clip-path="url(#p93dfa34019)">
     <use style="fill:#0000ff;stroke:#a6761d;stroke-width:0.5;" x="1529.4578" xlink:href="#m7ba3e957bb" y="96.7798876147"/>
     <use style="fill:#0000ff;stroke:#a6761d;stroke-width:0.5;" x="1529.4578" xlink:href="#m7ba3e957bb" y="96.8505666889"/>
     <use style="fill:#0000ff;stroke:#a6761d;stroke-width:0.5;" x="1529.4578" xlink:href="#m7ba3e957bb" y="96.8097746637"/>
     <use style="fill:#0000ff;stroke:#a6761d;stroke-width:0.5;" x="1529.4578" xlink:href="#m7ba3e957bb" y="96.8051976054"/>
     <use style="fill:#0000ff;stroke:#a6761d;stroke-width:0.5;" x="1529.4578" xlink:href="#m7ba3e957bb" y="96.8050189244"/>
     <use style="fill:#0000ff;stroke:#a6761d;stroke-width:0.5;" x="1529.4578" xlink:href="#m7ba3e957bb" y="96.8050689584"/>
     <use style="fill:#0000ff;stroke:#a6761d;stroke-width:0.5;" x="1529.4578" xlink:href="#m7ba3e957bb" y="96.8021114949"/>
     <use style="fill:#0000ff;stroke:#a6761d;stroke-width:0.5;" x="1529.4578" xlink:href="#m7ba3e957bb" y="96.8024753127"/>
     <use style="fill:#0000ff;stroke:#a6761d;stroke-width:0.5;" x="1529.4578" xlink:href="#m7ba3e957bb" y="96.7991838618"/>
     <use style="fill:#0000ff;stroke:#a6761d;stroke-width:0.5;" x="1529.4578" xlink:href="#m7ba3e957bb" y="96.8075694828"/>
     <use style="fill:#0000ff;stroke:#a6761d;stroke-width:0.5;" x="1529.4578" xlink:href="#m7ba3e957bb" y="96.7980299494"/>
     <use style="fill:#0000ff;stroke:#a6761d;stroke-width:0.5;" x="1529.4578" xlink:href="#m7ba3e957bb" y="96.8137176986"/>
     <use style="fill:#0000ff;stroke:#a6761d;stroke-width:0.5;" x="1529.4578" xlink:href="#m7ba3e957bb" y="96.8071941218"/>
     <use style="fill:#0000ff;stroke:#a6761d;stroke-width:0.5;" x="1529.4578" xlink:href="#m7ba3e957bb" y="96.8188066299"/>
     <use style="fill:#0000ff;stroke:#a6761d;stroke-width:0.5;" x="1529.4578" xlink:href="#m7ba3e957bb" y="96.8180494189"/>
     <use style="fill:#0000ff;stroke:#a6761d;stroke-width:0.5;" x="1529.4578" xlink:href="#m7ba3e957bb" y="96.8047385589"/>
     <use style="fill:#0000ff;stroke:#a6761d;stroke-width:0.5;" x="1529.4578" xlink:href="#m7ba3e957bb" y="96.8041864886"/>
     <use style="fill:#0000ff;stroke:#a6761d;stroke-width:0.5;" x="1529.4578" xlink:href="#m7ba3e957bb" y="96.8005529274"/>
     <use style="fill:#0000ff;stroke:#a6761d;stroke-width:0.5;" x="1529.4578" xlink:href="#m7ba3e957bb" y="96.7945017903"/>
     <use style="fill:#0000ff;stroke:#a6761d;stroke-width:0.5;" x="1529.4578" xlink:href="#m7ba3e957bb" y="96.7935328391"/>
     <use style="fill:#0000ff;stroke:#a6761d;stroke-width:0.5;" x="1529.4578" xlink:href="#m7ba3e957bb" y="96.8075489556"/>
     <use style="fill:#0000ff;stroke:#a6761d;stroke-width:0.5;" x="1529.4578" xlink:href="#m7ba3e957bb" y="96.8058256198"/>
     <use style="fill:#0000ff;stroke:#a6761d;stroke-width:0.5;" x="1529.4578" xlink:href="#m7ba3e957bb" y="96.8054214246"/>
     <use style="fill:#0000ff;stroke:#a6761d;stroke-width:0.5;" x="1529.4578" xlink:href="#m7ba3e957bb" y="96.8081071871"/>
     <use style="fill:#0000ff;stroke:#a6761d;stroke-width:0.5;" x="1529.4578" xlink:href="#m7ba3e957bb" y="96.8035906863"/>
     <use style="fill:#0000ff;stroke:#a6761d;stroke-width:0.5;" x="1529.4578" xlink:href="#m7ba3e957bb" y="96.854652868"/>
     <use style="fill:#0000ff;stroke:#a6761d;stroke-width:0.5;" x="1529.4578" xlink:href="#m7ba3e957bb" y="99.1696899649"/>
     <use style="fill:#0000ff;stroke:#a6761d;stroke-width:0.5;" x="1529.4578" xlink:href="#m7ba3e957bb" y="99.0156093845"/>
     <use style="fill:#0000ff;stroke:#a6761d;stroke-width:0.5;" x="1529.4578" xlink:href="#m7ba3e957bb" y="100.103437778"/>
     <use style="fill:#0000ff;stroke:#a6761d;stroke-width:0.5;" x="1529.4578" xlink:href="#m7ba3e957bb" y="99.3720195255"/>
     <use style="fill:#0000ff;stroke:#a6761d;stroke-width:0.5;" x="1529.4578" xlink:href="#m7ba3e957bb" y="99.2650735026"/>
     <use style="fill:#0000ff;stroke:#a6761d;stroke-width:0.5;" x="1529.4578" xlink:href="#m7ba3e957bb" y="99.170085043"/>
     <use style="fill:#0000ff;stroke:#a6761d;stroke-width:0.5;" x="1529.4578" xlink:href="#m7ba3e957bb" y="99.2160504953"/>
     <use style="fill:#0000ff;stroke:#a6761d;stroke-width:0.5;" x="1529.4578" xlink:href="#m7ba3e957bb" y="99.425606093"/>
    </g>
   </g>
   <g id="line2d_176">
    <path clip-path="url(#p93dfa34019)" d="M 1589.412462 97.805479 
L 1629.382237 97.805479 
L 1629.382237 98.312664 
L 1589.412462 98.312664 
L 1589.412462 97.805479 
" style="fill:none;stroke:#666666;stroke-linecap:round;"/>
   </g>
   <g id="line2d_177">
    <path clip-path="url(#p93dfa34019)" d="M 1609.39735 97.805479 
L 1609.39735 97.284756 
" style="fill:none;stroke:#666666;stroke-dasharray:6.000000,6.000000;stroke-dashoffset:0.0;"/>
   </g>
   <g id="line2d_178">
    <path clip-path="url(#p93dfa34019)" d="M 1609.39735 98.312664 
L 1609.39735 99.047599 
" style="fill:none;stroke:#666666;stroke-dasharray:6.000000,6.000000;stroke-dashoffset:0.0;"/>
   </g>
   <g id="line2d_179">
    <path clip-path="url(#p93dfa34019)" d="M 1599.404906 97.284756 
L 1619.389794 97.284756 
" style="fill:none;stroke:#666666;stroke-linecap:round;"/>
   </g>
   <g id="line2d_180">
    <path clip-path="url(#p93dfa34019)" d="M 1599.404906 99.047599 
L 1619.389794 99.047599 
" style="fill:none;stroke:#666666;stroke-linecap:round;"/>
   </g>
   <g id="line2d_181">
    <path clip-path="url(#p93dfa34019)" d="M 1589.412462 98.055321 
L 1629.382237 98.055321 
" style="fill:none;stroke:#ff0000;stroke-linecap:round;"/>
   </g>
   <g id="line2d_182">
    <g clip-path="url(#p93dfa34019)">
     <use style="fill:#0000ff;stroke:#666666;stroke-width:0.5;" x="1609.39735" xlink:href="#m208f8f8855" y="96.7698071569"/>
     <use style="fill:#0000ff;stroke:#666666;stroke-width:0.5;" x="1609.39735" xlink:href="#m208f8f8855" y="96.7967394845"/>
     <use style="fill:#0000ff;stroke:#666666;stroke-width:0.5;" x="1609.39735" xlink:href="#m208f8f8855" y="96.7813505035"/>
     <use style="fill:#0000ff;stroke:#666666;stroke-width:0.5;" x="1609.39735" xlink:href="#m208f8f8855" y="96.8032448958"/>
     <use style="fill:#0000ff;stroke:#666666;stroke-width:0.5;" x="1609.39735" xlink:href="#m208f8f8855" y="96.8000861754"/>
     <use style="fill:#0000ff;stroke:#666666;stroke-width:0.5;" x="1609.39735" xlink:href="#m208f8f8855" y="96.7924610125"/>
     <use style="fill:#0000ff;stroke:#666666;stroke-width:0.5;" x="1609.39735" xlink:href="#m208f8f8855" y="96.7977534184"/>
     <use style="fill:#0000ff;stroke:#666666;stroke-width:0.5;" x="1609.39735" xlink:href="#m208f8f8855" y="96.8044374835"/>
     <use style="fill:#0000ff;stroke:#666666;stroke-width:0.5;" x="1609.39735" xlink:href="#m208f8f8855" y="96.7911481776"/>
     <use style="fill:#0000ff;stroke:#666666;stroke-width:0.5;" x="1609.39735" xlink:href="#m208f8f8855" y="96.7945683517"/>
     <use style="fill:#0000ff;stroke:#666666;stroke-width:0.5;" x="1609.39735" xlink:href="#m208f8f8855" y="96.8075082335"/>
     <use style="fill:#0000ff;stroke:#666666;stroke-width:0.5;" x="1609.39735" xlink:href="#m208f8f8855" y="96.7949387702"/>
     <use style="fill:#0000ff;stroke:#666666;stroke-width:0.5;" x="1609.39735" xlink:href="#m208f8f8855" y="96.7952185813"/>
     <use style="fill:#0000ff;stroke:#666666;stroke-width:0.5;" x="1609.39735" xlink:href="#m208f8f8855" y="96.7974927037"/>
     <use style="fill:#0000ff;stroke:#666666;stroke-width:0.5;" x="1609.39735" xlink:href="#m208f8f8855" y="96.7993953489"/>
     <use style="fill:#0000ff;stroke:#666666;stroke-width:0.5;" x="1609.39735" xlink:href="#m208f8f8855" y="96.8018155656"/>
     <use style="fill:#0000ff;stroke:#666666;stroke-width:0.5;" x="1609.39735" xlink:href="#m208f8f8855" y="96.7940297302"/>
     <use style="fill:#0000ff;stroke:#666666;stroke-width:0.5;" x="1609.39735" xlink:href="#m208f8f8855" y="96.8019864268"/>
     <use style="fill:#0000ff;stroke:#666666;stroke-width:0.5;" x="1609.39735" xlink:href="#m208f8f8855" y="96.7986535646"/>
     <use style="fill:#0000ff;stroke:#666666;stroke-width:0.5;" x="1609.39735" xlink:href="#m208f8f8855" y="96.8003878459"/>
     <use style="fill:#0000ff;stroke:#666666;stroke-width:0.5;" x="1609.39735" xlink:href="#m208f8f8855" y="96.8016528117"/>
     <use style="fill:#0000ff;stroke:#666666;stroke-width:0.5;" x="1609.39735" xlink:href="#m208f8f8855" y="96.8015589743"/>
     <use style="fill:#0000ff;stroke:#666666;stroke-width:0.5;" x="1609.39735" xlink:href="#m208f8f8855" y="96.8045074383"/>
     <use style="fill:#0000ff;stroke:#666666;stroke-width:0.5;" x="1609.39735" xlink:href="#m208f8f8855" y="96.8010802214"/>
     <use style="fill:#0000ff;stroke:#666666;stroke-width:0.5;" x="1609.39735" xlink:href="#m208f8f8855" y="96.7977304686"/>
     <use style="fill:#0000ff;stroke:#666666;stroke-width:0.5;" x="1609.39735" xlink:href="#m208f8f8855" y="96.8041793974"/>
     <use style="fill:#0000ff;stroke:#666666;stroke-width:0.5;" x="1609.39735" xlink:href="#m208f8f8855" y="96.8333486777"/>
     <use style="fill:#0000ff;stroke:#666666;stroke-width:0.5;" x="1609.39735" xlink:href="#m208f8f8855" y="96.7996782639"/>
     <use style="fill:#0000ff;stroke:#666666;stroke-width:0.5;" x="1609.39735" xlink:href="#m208f8f8855" y="96.7915712176"/>
     <use style="fill:#0000ff;stroke:#666666;stroke-width:0.5;" x="1609.39735" xlink:href="#m208f8f8855" y="96.798075204"/>
     <use style="fill:#0000ff;stroke:#666666;stroke-width:0.5;" x="1609.39735" xlink:href="#m208f8f8855" y="96.8001849658"/>
     <use style="fill:#0000ff;stroke:#666666;stroke-width:0.5;" x="1609.39735" xlink:href="#m208f8f8855" y="96.7934680519"/>
     <use style="fill:#0000ff;stroke:#666666;stroke-width:0.5;" x="1609.39735" xlink:href="#m208f8f8855" y="96.7931250025"/>
     <use style="fill:#0000ff;stroke:#666666;stroke-width:0.5;" x="1609.39735" xlink:href="#m208f8f8855" y="96.7985232388"/>
     <use style="fill:#0000ff;stroke:#666666;stroke-width:0.5;" x="1609.39735" xlink:href="#m208f8f8855" y="96.8045337334"/>
     <use style="fill:#0000ff;stroke:#666666;stroke-width:0.5;" x="1609.39735" xlink:href="#m208f8f8855" y="96.8055055701"/>
     <use style="fill:#0000ff;stroke:#666666;stroke-width:0.5;" x="1609.39735" xlink:href="#m208f8f8855" y="96.8076567672"/>
     <use style="fill:#0000ff;stroke:#666666;stroke-width:0.5;" x="1609.39735" xlink:href="#m208f8f8855" y="96.8115616303"/>
     <use style="fill:#0000ff;stroke:#666666;stroke-width:0.5;" x="1609.39735" xlink:href="#m208f8f8855" y="96.8156701829"/>
     <use style="fill:#0000ff;stroke:#666666;stroke-width:0.5;" x="1609.39735" xlink:href="#m208f8f8855" y="96.8233765393"/>
     <use style="fill:#0000ff;stroke:#666666;stroke-width:0.5;" x="1609.39735" xlink:href="#m208f8f8855" y="96.8274692128"/>
     <use style="fill:#0000ff;stroke:#666666;stroke-width:0.5;" x="1609.39735" xlink:href="#m208f8f8855" y="96.813104695"/>
     <use style="fill:#0000ff;stroke:#666666;stroke-width:0.5;" x="1609.39735" xlink:href="#m208f8f8855" y="96.8171868968"/>
     <use style="fill:#0000ff;stroke:#666666;stroke-width:0.5;" x="1609.39735" xlink:href="#m208f8f8855" y="96.8197144728"/>
     <use style="fill:#0000ff;stroke:#666666;stroke-width:0.5;" x="1609.39735" xlink:href="#m208f8f8855" y="96.8097984359"/>
     <use style="fill:#0000ff;stroke:#666666;stroke-width:0.5;" x="1609.39735" xlink:href="#m208f8f8855" y="101.379656033"/>
     <use style="fill:#0000ff;stroke:#666666;stroke-width:0.5;" x="1609.39735" xlink:href="#m208f8f8855" y="99.9068669284"/>
     <use style="fill:#0000ff;stroke:#666666;stroke-width:0.5;" x="1609.39735" xlink:href="#m208f8f8855" y="99.1093542828"/>
     <use style="fill:#0000ff;stroke:#666666;stroke-width:0.5;" x="1609.39735" xlink:href="#m208f8f8855" y="99.1754574619"/>
     <use style="fill:#0000ff;stroke:#666666;stroke-width:0.5;" x="1609.39735" xlink:href="#m208f8f8855" y="99.657702117"/>
     <use style="fill:#0000ff;stroke:#666666;stroke-width:0.5;" x="1609.39735" xlink:href="#m208f8f8855" y="99.4761639356"/>
     <use style="fill:#0000ff;stroke:#666666;stroke-width:0.5;" x="1609.39735" xlink:href="#m208f8f8855" y="99.1975921809"/>
     <use style="fill:#0000ff;stroke:#666666;stroke-width:0.5;" x="1609.39735" xlink:href="#m208f8f8855" y="99.2194625527"/>
     <use style="fill:#0000ff;stroke:#666666;stroke-width:0.5;" x="1609.39735" xlink:href="#m208f8f8855" y="99.1028053055"/>
    </g>
   </g>
   <g id="line2d_183">
    <path clip-path="url(#p93dfa34019)" d="M 1689.3369 807.57 
L 1689.3369 89.73 
" style="fill:none;stroke:#000000;stroke-dasharray:1.000000,3.000000;stroke-dashoffset:0.0;stroke-width:0.5;"/>
   </g>
  </g>
  <g id="text_24">
   <!-- RTT Fair upstream only -->
   <defs>
    <path d="M 9.8125 72.90625 
L 51.703125 72.90625 
L 51.703125 64.59375 
L 19.671875 64.59375 
L 19.671875 43.109375 
L 48.578125 43.109375 
L 48.578125 34.8125 
L 19.671875 34.8125 
L 19.671875 0 
L 9.8125 0 
z
" id="BitstreamVeraSans-Roman-46"/>
    <path d="M 44.390625 34.1875 
Q 47.5625 33.109375 50.5625 29.59375 
Q 53.5625 26.078125 56.59375 19.921875 
L 66.609375 0 
L 56 0 
L 46.6875 18.703125 
Q 43.0625 26.03125 39.671875 28.421875 
Q 36.28125 30.8125 30.421875 30.8125 
L 19.671875 30.8125 
L 19.671875 0 
L 9.8125 0 
L 9.8125 72.90625 
L 32.078125 72.90625 
Q 44.578125 72.90625 50.734375 67.671875 
Q 56.890625 62.453125 56.890625 51.90625 
Q 56.890625 45.015625 53.6875 40.46875 
Q 50.484375 35.9375 44.390625 34.1875 
M 19.671875 64.796875 
L 19.671875 38.921875 
L 32.078125 38.921875 
Q 39.203125 38.921875 42.84375 42.21875 
Q 46.484375 45.515625 46.484375 51.90625 
Q 46.484375 58.296875 42.84375 61.546875 
Q 39.203125 64.796875 32.078125 64.796875 
z
" id="BitstreamVeraSans-Roman-52"/>
    <path d="M 8.5 21.578125 
L 8.5 54.6875 
L 17.484375 54.6875 
L 17.484375 21.921875 
Q 17.484375 14.15625 20.5 10.265625 
Q 23.53125 6.390625 29.59375 6.390625 
Q 36.859375 6.390625 41.078125 11.03125 
Q 45.3125 15.671875 45.3125 23.6875 
L 45.3125 54.6875 
L 54.296875 54.6875 
L 54.296875 0 
L 45.3125 0 
L 45.3125 8.40625 
Q 42.046875 3.421875 37.71875 1 
Q 33.40625 -1.421875 27.6875 -1.421875 
Q 18.265625 -1.421875 13.375 4.4375 
Q 8.5 10.296875 8.5 21.578125 
" id="BitstreamVeraSans-Roman-75"/>
    <path d="M -0.296875 72.90625 
L 61.375 72.90625 
L 61.375 64.59375 
L 35.5 64.59375 
L 35.5 0 
L 25.59375 0 
L 25.59375 64.59375 
L -0.296875 64.59375 
z
" id="BitstreamVeraSans-Roman-54"/>
   </defs>
   <g style="fill:#262626;" transform="translate(920.12265625 10.6378125)scale(0.14 -0.14)">
    <use xlink:href="#BitstreamVeraSans-Roman-52"/>
    <use x="69.373046875" xlink:href="#BitstreamVeraSans-Roman-54"/>
    <use x="130.44140625" xlink:href="#BitstreamVeraSans-Roman-54"/>
    <use x="191.525390625" xlink:href="#BitstreamVeraSans-Roman-20"/>
    <use x="223.3125" xlink:href="#BitstreamVeraSans-Roman-46"/>
    <use x="280.69140625" xlink:href="#BitstreamVeraSans-Roman-61"/>
    <use x="341.970703125" xlink:href="#BitstreamVeraSans-Roman-69"/>
    <use x="369.75390625" xlink:href="#BitstreamVeraSans-Roman-72"/>
    <use x="410.8671875" xlink:href="#BitstreamVeraSans-Roman-20"/>
    <use x="442.654296875" xlink:href="#BitstreamVeraSans-Roman-75"/>
    <use x="506.033203125" xlink:href="#BitstreamVeraSans-Roman-70"/>
    <use x="569.509765625" xlink:href="#BitstreamVeraSans-Roman-73"/>
    <use x="621.609375" xlink:href="#BitstreamVeraSans-Roman-74"/>
    <use x="660.818359375" xlink:href="#BitstreamVeraSans-Roman-72"/>
    <use x="701.900390625" xlink:href="#BitstreamVeraSans-Roman-65"/>
    <use x="763.423828125" xlink:href="#BitstreamVeraSans-Roman-61"/>
    <use x="824.703125" xlink:href="#BitstreamVeraSans-Roman-6d"/>
    <use x="922.115234375" xlink:href="#BitstreamVeraSans-Roman-20"/>
    <use x="953.90234375" xlink:href="#BitstreamVeraSans-Roman-6f"/>
    <use x="1015.08398438" xlink:href="#BitstreamVeraSans-Roman-6e"/>
    <use x="1078.46289062" xlink:href="#BitstreamVeraSans-Roman-6c"/>
    <use x="1106.24609375" xlink:href="#BitstreamVeraSans-Roman-79"/>
   </g>
   <!-- Box plot of totals -->
   <defs>
    <path d="M 19.671875 34.8125 
L 19.671875 8.109375 
L 35.5 8.109375 
Q 43.453125 8.109375 47.28125 11.40625 
Q 51.125 14.703125 51.125 21.484375 
Q 51.125 28.328125 47.28125 31.5625 
Q 43.453125 34.8125 35.5 34.8125 
z
M 19.671875 64.796875 
L 19.671875 42.828125 
L 34.28125 42.828125 
Q 41.5 42.828125 45.03125 45.53125 
Q 48.578125 48.25 48.578125 53.8125 
Q 48.578125 59.328125 45.03125 62.0625 
Q 41.5 64.796875 34.28125 64.796875 
z
M 9.8125 72.90625 
L 35.015625 72.90625 
Q 46.296875 72.90625 52.390625 68.21875 
Q 58.5 63.53125 58.5 54.890625 
Q 58.5 48.1875 55.375 44.234375 
Q 52.25 40.28125 46.1875 39.3125 
Q 53.46875 37.75 57.5 32.78125 
Q 61.53125 27.828125 61.53125 20.40625 
Q 61.53125 10.640625 54.890625 5.3125 
Q 48.25 0 35.984375 0 
L 9.8125 0 
z
" id="BitstreamVeraSans-Roman-42"/>
    <path d="M 54.890625 54.6875 
L 35.109375 28.078125 
L 55.90625 0 
L 45.3125 0 
L 29.390625 21.484375 
L 13.484375 0 
L 2.875 0 
L 24.125 28.609375 
L 4.6875 54.6875 
L 15.28125 54.6875 
L 29.78125 35.203125 
L 44.28125 54.6875 
z
" id="BitstreamVeraSans-Roman-78"/>
   </defs>
   <g style="fill:#262626;" transform="translate(941.98453125 26.31475)scale(0.14 -0.14)">
    <use xlink:href="#BitstreamVeraSans-Roman-42"/>
    <use x="68.603515625" xlink:href="#BitstreamVeraSans-Roman-6f"/>
    <use x="129.73828125" xlink:href="#BitstreamVeraSans-Roman-78"/>
    <use x="188.91796875" xlink:href="#BitstreamVeraSans-Roman-20"/>
    <use x="220.705078125" xlink:href="#BitstreamVeraSans-Roman-70"/>
    <use x="284.181640625" xlink:href="#BitstreamVeraSans-Roman-6c"/>
    <use x="311.96484375" xlink:href="#BitstreamVeraSans-Roman-6f"/>
    <use x="373.146484375" xlink:href="#BitstreamVeraSans-Roman-74"/>
    <use x="412.35546875" xlink:href="#BitstreamVeraSans-Roman-20"/>
    <use x="444.142578125" xlink:href="#BitstreamVeraSans-Roman-6f"/>
    <use x="505.32421875" xlink:href="#BitstreamVeraSans-Roman-66"/>
    <use x="540.529296875" xlink:href="#BitstreamVeraSans-Roman-20"/>
    <use x="572.31640625" xlink:href="#BitstreamVeraSans-Roman-74"/>
    <use x="611.525390625" xlink:href="#BitstreamVeraSans-Roman-6f"/>
    <use x="672.70703125" xlink:href="#BitstreamVeraSans-Roman-74"/>
    <use x="711.916015625" xlink:href="#BitstreamVeraSans-Roman-61"/>
    <use x="773.1953125" xlink:href="#BitstreamVeraSans-Roman-6c"/>
    <use x="800.978515625" xlink:href="#BitstreamVeraSans-Roman-73"/>
   </g>
  </g>
  <g id="text_25">
   <!-- Local/remote: bob-0-ec-vm/192.168.99.2 - Time: 2016-04-12T04:17:23.654556 - Length/step: 30s/0.20s -->
   <defs>
    <path d="M 8.203125 72.90625 
L 55.078125 72.90625 
L 55.078125 68.703125 
L 28.609375 0 
L 18.3125 0 
L 43.21875 64.59375 
L 8.203125 64.59375 
z
" id="BitstreamVeraSans-Roman-37"/>
    <path d="M 10.796875 72.90625 
L 49.515625 72.90625 
L 49.515625 64.59375 
L 19.828125 64.59375 
L 19.828125 46.734375 
Q 21.96875 47.46875 24.109375 47.828125 
Q 26.265625 48.1875 28.421875 48.1875 
Q 40.625 48.1875 47.75 41.5 
Q 54.890625 34.8125 54.890625 23.390625 
Q 54.890625 11.625 47.5625 5.09375 
Q 40.234375 -1.421875 26.90625 -1.421875 
Q 22.3125 -1.421875 17.546875 -0.640625 
Q 12.796875 0.140625 7.71875 1.703125 
L 7.71875 11.625 
Q 12.109375 9.234375 16.796875 8.0625 
Q 21.484375 6.890625 26.703125 6.890625 
Q 35.15625 6.890625 40.078125 11.328125 
Q 45.015625 15.765625 45.015625 23.390625 
Q 45.015625 31 40.078125 35.4375 
Q 35.15625 39.890625 26.703125 39.890625 
Q 22.75 39.890625 18.8125 39.015625 
Q 14.890625 38.140625 10.796875 36.28125 
z
" id="BitstreamVeraSans-Roman-35"/>
    <path d="M 10.984375 1.515625 
L 10.984375 10.5 
Q 14.703125 8.734375 18.5 7.8125 
Q 22.3125 6.890625 25.984375 6.890625 
Q 35.75 6.890625 40.890625 13.453125 
Q 46.046875 20.015625 46.78125 33.40625 
Q 43.953125 29.203125 39.59375 26.953125 
Q 35.25 24.703125 29.984375 24.703125 
Q 19.046875 24.703125 12.671875 31.3125 
Q 6.296875 37.9375 6.296875 49.421875 
Q 6.296875 60.640625 12.9375 67.421875 
Q 19.578125 74.21875 30.609375 74.21875 
Q 43.265625 74.21875 49.921875 64.515625 
Q 56.59375 54.828125 56.59375 36.375 
Q 56.59375 19.140625 48.40625 8.859375 
Q 40.234375 -1.421875 26.421875 -1.421875 
Q 22.703125 -1.421875 18.890625 -0.6875 
Q 15.09375 0.046875 10.984375 1.515625 
M 30.609375 32.421875 
Q 37.25 32.421875 41.125 36.953125 
Q 45.015625 41.5 45.015625 49.421875 
Q 45.015625 57.28125 41.125 61.84375 
Q 37.25 66.40625 30.609375 66.40625 
Q 23.96875 66.40625 20.09375 61.84375 
Q 16.21875 57.28125 16.21875 49.421875 
Q 16.21875 41.5 20.09375 36.953125 
Q 23.96875 32.421875 30.609375 32.421875 
" id="BitstreamVeraSans-Roman-39"/>
    <path d="M 11.71875 12.40625 
L 22.015625 12.40625 
L 22.015625 0 
L 11.71875 0 
z
M 11.71875 51.703125 
L 22.015625 51.703125 
L 22.015625 39.3125 
L 11.71875 39.3125 
z
" id="BitstreamVeraSans-Roman-3a"/>
    <path d="M 10.6875 12.40625 
L 21 12.40625 
L 21 0 
L 10.6875 0 
z
" id="BitstreamVeraSans-Roman-2e"/>
    <path d="M 54.890625 33.015625 
L 54.890625 0 
L 45.90625 0 
L 45.90625 32.71875 
Q 45.90625 40.484375 42.875 44.328125 
Q 39.84375 48.1875 33.796875 48.1875 
Q 26.515625 48.1875 22.3125 43.546875 
Q 18.109375 38.921875 18.109375 30.90625 
L 18.109375 0 
L 9.078125 0 
L 9.078125 75.984375 
L 18.109375 75.984375 
L 18.109375 46.1875 
Q 21.34375 51.125 25.703125 53.5625 
Q 30.078125 56 35.796875 56 
Q 45.21875 56 50.046875 50.171875 
Q 54.890625 44.34375 54.890625 33.015625 
" id="BitstreamVeraSans-Roman-68"/>
    <path d="M 2.984375 54.6875 
L 12.5 54.6875 
L 29.59375 8.796875 
L 46.6875 54.6875 
L 56.203125 54.6875 
L 35.6875 0 
L 23.484375 0 
z
" id="BitstreamVeraSans-Roman-76"/>
   </defs>
   <g style="fill:#262626;" transform="translate(792.73625 895.63625)scale(0.08 -0.08)">
    <use xlink:href="#BitstreamVeraSans-Roman-4c"/>
    <use x="55.697265625" xlink:href="#BitstreamVeraSans-Roman-6f"/>
    <use x="116.87890625" xlink:href="#BitstreamVeraSans-Roman-63"/>
    <use x="171.859375" xlink:href="#BitstreamVeraSans-Roman-61"/>
    <use x="233.138671875" xlink:href="#BitstreamVeraSans-Roman-6c"/>
    <use x="260.921875" xlink:href="#BitstreamVeraSans-Roman-2f"/>
    <use x="294.61328125" xlink:href="#BitstreamVeraSans-Roman-72"/>
    <use x="335.6953125" xlink:href="#BitstreamVeraSans-Roman-65"/>
    <use x="397.21875" xlink:href="#BitstreamVeraSans-Roman-6d"/>
    <use x="494.630859375" xlink:href="#BitstreamVeraSans-Roman-6f"/>
    <use x="555.8125" xlink:href="#BitstreamVeraSans-Roman-74"/>
    <use x="595.021484375" xlink:href="#BitstreamVeraSans-Roman-65"/>
    <use x="656.544921875" xlink:href="#BitstreamVeraSans-Roman-3a"/>
    <use x="690.236328125" xlink:href="#BitstreamVeraSans-Roman-20"/>
    <use x="722.0234375" xlink:href="#BitstreamVeraSans-Roman-62"/>
    <use x="785.5" xlink:href="#BitstreamVeraSans-Roman-6f"/>
    <use x="846.681640625" xlink:href="#BitstreamVeraSans-Roman-62"/>
    <use x="910.158203125" xlink:href="#BitstreamVeraSans-Roman-2d"/>
    <use x="946.2421875" xlink:href="#BitstreamVeraSans-Roman-30"/>
    <use x="1009.86523438" xlink:href="#BitstreamVeraSans-Roman-2d"/>
    <use x="1045.94921875" xlink:href="#BitstreamVeraSans-Roman-65"/>
    <use x="1107.47265625" xlink:href="#BitstreamVeraSans-Roman-63"/>
    <use x="1162.453125" xlink:href="#BitstreamVeraSans-Roman-2d"/>
    <use x="1198.50585938" xlink:href="#BitstreamVeraSans-Roman-76"/>
    <use x="1257.68554688" xlink:href="#BitstreamVeraSans-Roman-6d"/>
    <use x="1355.09765625" xlink:href="#BitstreamVeraSans-Roman-2f"/>
    <use x="1388.7890625" xlink:href="#BitstreamVeraSans-Roman-31"/>
    <use x="1452.41210938" xlink:href="#BitstreamVeraSans-Roman-39"/>
    <use x="1516.03515625" xlink:href="#BitstreamVeraSans-Roman-32"/>
    <use x="1579.65820312" xlink:href="#BitstreamVeraSans-Roman-2e"/>
    <use x="1611.4453125" xlink:href="#BitstreamVeraSans-Roman-31"/>
    <use x="1675.06835938" xlink:href="#BitstreamVeraSans-Roman-36"/>
    <use x="1738.69140625" xlink:href="#BitstreamVeraSans-Roman-38"/>
    <use x="1802.31445312" xlink:href="#BitstreamVeraSans-Roman-2e"/>
    <use x="1834.1015625" xlink:href="#BitstreamVeraSans-Roman-39"/>
    <use x="1897.72460938" xlink:href="#BitstreamVeraSans-Roman-39"/>
    <use x="1961.34765625" xlink:href="#BitstreamVeraSans-Roman-2e"/>
    <use x="1993.13476562" xlink:href="#BitstreamVeraSans-Roman-32"/>
    <use x="2056.7578125" xlink:href="#BitstreamVeraSans-Roman-20"/>
    <use x="2088.54492188" xlink:href="#BitstreamVeraSans-Roman-2d"/>
    <use x="2124.62890625" xlink:href="#BitstreamVeraSans-Roman-20"/>
    <use x="2156.41601562" xlink:href="#BitstreamVeraSans-Roman-54"/>
    <use x="2217.453125" xlink:href="#BitstreamVeraSans-Roman-69"/>
    <use x="2245.23632812" xlink:href="#BitstreamVeraSans-Roman-6d"/>
    <use x="2342.6484375" xlink:href="#BitstreamVeraSans-Roman-65"/>
    <use x="2404.171875" xlink:href="#BitstreamVeraSans-Roman-3a"/>
    <use x="2437.86328125" xlink:href="#BitstreamVeraSans-Roman-20"/>
    <use x="2469.65039062" xlink:href="#BitstreamVeraSans-Roman-32"/>
    <use x="2533.2734375" xlink:href="#BitstreamVeraSans-Roman-30"/>
    <use x="2596.89648438" xlink:href="#BitstreamVeraSans-Roman-31"/>
    <use x="2660.51953125" xlink:href="#BitstreamVeraSans-Roman-36"/>
    <use x="2724.14257812" xlink:href="#BitstreamVeraSans-Roman-2d"/>
    <use x="2760.2265625" xlink:href="#BitstreamVeraSans-Roman-30"/>
    <use x="2823.84960938" xlink:href="#BitstreamVeraSans-Roman-34"/>
    <use x="2887.47265625" xlink:href="#BitstreamVeraSans-Roman-2d"/>
    <use x="2923.55664062" xlink:href="#BitstreamVeraSans-Roman-31"/>
    <use x="2987.1796875" xlink:href="#BitstreamVeraSans-Roman-32"/>
    <use x="3050.80273438" xlink:href="#BitstreamVeraSans-Roman-54"/>
    <use x="3111.88671875" xlink:href="#BitstreamVeraSans-Roman-30"/>
    <use x="3175.50976562" xlink:href="#BitstreamVeraSans-Roman-34"/>
    <use x="3239.1328125" xlink:href="#BitstreamVeraSans-Roman-3a"/>
    <use x="3272.82421875" xlink:href="#BitstreamVeraSans-Roman-31"/>
    <use x="3336.44726562" xlink:href="#BitstreamVeraSans-Roman-37"/>
    <use x="3400.0703125" xlink:href="#BitstreamVeraSans-Roman-3a"/>
    <use x="3433.76171875" xlink:href="#BitstreamVeraSans-Roman-32"/>
    <use x="3497.38476562" xlink:href="#BitstreamVeraSans-Roman-33"/>
    <use x="3561.0078125" xlink:href="#BitstreamVeraSans-Roman-2e"/>
    <use x="3592.79492188" xlink:href="#BitstreamVeraSans-Roman-36"/>
    <use x="3656.41796875" xlink:href="#BitstreamVeraSans-Roman-35"/>
    <use x="3720.04101562" xlink:href="#BitstreamVeraSans-Roman-34"/>
    <use x="3783.6640625" xlink:href="#BitstreamVeraSans-Roman-35"/>
    <use x="3847.28710938" xlink:href="#BitstreamVeraSans-Roman-35"/>
    <use x="3910.91015625" xlink:href="#BitstreamVeraSans-Roman-36"/>
    <use x="3974.53320312" xlink:href="#BitstreamVeraSans-Roman-20"/>
    <use x="4006.3203125" xlink:href="#BitstreamVeraSans-Roman-2d"/>
    <use x="4042.40429688" xlink:href="#BitstreamVeraSans-Roman-20"/>
    <use x="4074.19140625" xlink:href="#BitstreamVeraSans-Roman-4c"/>
    <use x="4129.88867188" xlink:href="#BitstreamVeraSans-Roman-65"/>
    <use x="4191.41210938" xlink:href="#BitstreamVeraSans-Roman-6e"/>
    <use x="4254.79101562" xlink:href="#BitstreamVeraSans-Roman-67"/>
    <use x="4318.26757812" xlink:href="#BitstreamVeraSans-Roman-74"/>
    <use x="4357.4765625" xlink:href="#BitstreamVeraSans-Roman-68"/>
    <use x="4420.85546875" xlink:href="#BitstreamVeraSans-Roman-2f"/>
    <use x="4454.546875" xlink:href="#BitstreamVeraSans-Roman-73"/>
    <use x="4506.64648438" xlink:href="#BitstreamVeraSans-Roman-74"/>
    <use x="4545.85546875" xlink:href="#BitstreamVeraSans-Roman-65"/>
    <use x="4607.37890625" xlink:href="#BitstreamVeraSans-Roman-70"/>
    <use x="4670.85546875" xlink:href="#BitstreamVeraSans-Roman-3a"/>
    <use x="4704.546875" xlink:href="#BitstreamVeraSans-Roman-20"/>
    <use x="4736.33398438" xlink:href="#BitstreamVeraSans-Roman-33"/>
    <use x="4799.95703125" xlink:href="#BitstreamVeraSans-Roman-30"/>
    <use x="4863.58007812" xlink:href="#BitstreamVeraSans-Roman-73"/>
    <use x="4915.6796875" xlink:href="#BitstreamVeraSans-Roman-2f"/>
    <use x="4949.37109375" xlink:href="#BitstreamVeraSans-Roman-30"/>
    <use x="5012.99414062" xlink:href="#BitstreamVeraSans-Roman-2e"/>
    <use x="5044.78125" xlink:href="#BitstreamVeraSans-Roman-32"/>
    <use x="5108.40429688" xlink:href="#BitstreamVeraSans-Roman-30"/>
    <use x="5172.02734375" xlink:href="#BitstreamVeraSans-Roman-73"/>
   </g>
  </g>
 </g>
 <defs>
  <clipPath id="p93dfa34019">
   <rect height="717.84" width="1438.9119" x="250.425" y="89.73"/>
  </clipPath>
 </defs>
</svg>
