<?xml version="1.0" encoding="utf-8" standalone="no"?>
<!DOCTYPE svg PUBLIC "-//W3C//DTD SVG 1.1//EN"
  "http://www.w3.org/Graphics/SVG/1.1/DTD/svg11.dtd">
<!-- Created with matplotlib (http://matplotlib.org/) -->
<svg height="897pt" version="1.1" viewBox="0 0 2004 897" width="2004pt" xmlns="http://www.w3.org/2000/svg" xmlns:xlink="http://www.w3.org/1999/xlink">
 <defs>
  <style type="text/css">
*{stroke-linecap:butt;stroke-linejoin:round;stroke-miterlimit:100000;}
  </style>
 </defs>
 <g id="figure_1">
  <g id="patch_1">
   <path d="M 0 897.3 
L 2004.3 897.3 
L 2004.3 0 
L 0 0 
z
" style="fill:#ffffff;"/>
  </g>
  <g id="axes_1">
   <g id="patch_2">
    <path d="M 250.5375 807.57 
L 1715.473462 807.57 
L 1715.473462 89.73 
L 250.5375 89.73 
z
" style="fill:#eaeaf2;"/>
   </g>
   <g id="matplotlib.axis_1">
    <g id="xtick_1">
     <g id="line2d_1">
      <defs>
       <path d="M 0 0 
L 0 0 
" id="m444513b87b" style="stroke:#262626;stroke-width:0.5;"/>
      </defs>
      <g>
       <use style="fill:#262626;stroke:#262626;stroke-width:0.5;" x="616.771490625" xlink:href="#m444513b87b" y="807.57"/>
      </g>
     </g>
     <g id="line2d_2">
      <g>
       <use style="fill:#262626;stroke:#262626;stroke-width:0.5;" x="616.771490625" xlink:href="#m444513b87b" y="89.73"/>
      </g>
     </g>
     <g id="text_1">
      <!-- Download -->
      <defs>
       <path d="M 54.890625 33.015625 
L 54.890625 0 
L 45.90625 0 
L 45.90625 32.71875 
Q 45.90625 40.484375 42.875 44.328125 
Q 39.84375 48.1875 33.796875 48.1875 
Q 26.515625 48.1875 22.3125 43.546875 
Q 18.109375 38.921875 18.109375 30.90625 
L 18.109375 0 
L 9.078125 0 
L 9.078125 54.6875 
L 18.109375 54.6875 
L 18.109375 46.1875 
Q 21.34375 51.125 25.703125 53.5625 
Q 30.078125 56 35.796875 56 
Q 45.21875 56 50.046875 50.171875 
Q 54.890625 44.34375 54.890625 33.015625 
" id="BitstreamVeraSans-Roman-6e"/>
       <path d="M 30.609375 48.390625 
Q 23.390625 48.390625 19.1875 42.75 
Q 14.984375 37.109375 14.984375 27.296875 
Q 14.984375 17.484375 19.15625 11.84375 
Q 23.34375 6.203125 30.609375 6.203125 
Q 37.796875 6.203125 41.984375 11.859375 
Q 46.1875 17.53125 46.1875 27.296875 
Q 46.1875 37.015625 41.984375 42.703125 
Q 37.796875 48.390625 30.609375 48.390625 
M 30.609375 56 
Q 42.328125 56 49.015625 48.375 
Q 55.71875 40.765625 55.71875 27.296875 
Q 55.71875 13.875 49.015625 6.21875 
Q 42.328125 -1.421875 30.609375 -1.421875 
Q 18.84375 -1.421875 12.171875 6.21875 
Q 5.515625 13.875 5.515625 27.296875 
Q 5.515625 40.765625 12.171875 48.375 
Q 18.84375 56 30.609375 56 
" id="BitstreamVeraSans-Roman-6f"/>
       <path d="M 9.421875 75.984375 
L 18.40625 75.984375 
L 18.40625 0 
L 9.421875 0 
z
" id="BitstreamVeraSans-Roman-6c"/>
       <path d="M 19.671875 64.796875 
L 19.671875 8.109375 
L 31.59375 8.109375 
Q 46.6875 8.109375 53.6875 14.9375 
Q 60.6875 21.78125 60.6875 36.53125 
Q 60.6875 51.171875 53.6875 57.984375 
Q 46.6875 64.796875 31.59375 64.796875 
z
M 9.8125 72.90625 
L 30.078125 72.90625 
Q 51.265625 72.90625 61.171875 64.09375 
Q 71.09375 55.28125 71.09375 36.53125 
Q 71.09375 17.671875 61.125 8.828125 
Q 51.171875 0 30.078125 0 
L 9.8125 0 
z
" id="BitstreamVeraSans-Roman-44"/>
       <path d="M 45.40625 46.390625 
L 45.40625 75.984375 
L 54.390625 75.984375 
L 54.390625 0 
L 45.40625 0 
L 45.40625 8.203125 
Q 42.578125 3.328125 38.25 0.953125 
Q 33.9375 -1.421875 27.875 -1.421875 
Q 17.96875 -1.421875 11.734375 6.484375 
Q 5.515625 14.40625 5.515625 27.296875 
Q 5.515625 40.1875 11.734375 48.09375 
Q 17.96875 56 27.875 56 
Q 33.9375 56 38.25 53.625 
Q 42.578125 51.265625 45.40625 46.390625 
M 14.796875 27.296875 
Q 14.796875 17.390625 18.875 11.75 
Q 22.953125 6.109375 30.078125 6.109375 
Q 37.203125 6.109375 41.296875 11.75 
Q 45.40625 17.390625 45.40625 27.296875 
Q 45.40625 37.203125 41.296875 42.84375 
Q 37.203125 48.484375 30.078125 48.484375 
Q 22.953125 48.484375 18.875 42.84375 
Q 14.796875 37.203125 14.796875 27.296875 
" id="BitstreamVeraSans-Roman-64"/>
       <path d="M 4.203125 54.6875 
L 13.1875 54.6875 
L 24.421875 12.015625 
L 35.59375 54.6875 
L 46.1875 54.6875 
L 57.421875 12.015625 
L 68.609375 54.6875 
L 77.59375 54.6875 
L 63.28125 0 
L 52.6875 0 
L 40.921875 44.828125 
L 29.109375 0 
L 18.5 0 
z
" id="BitstreamVeraSans-Roman-77"/>
       <path d="M 34.28125 27.484375 
Q 23.390625 27.484375 19.1875 25 
Q 14.984375 22.515625 14.984375 16.5 
Q 14.984375 11.71875 18.140625 8.90625 
Q 21.296875 6.109375 26.703125 6.109375 
Q 34.1875 6.109375 38.703125 11.40625 
Q 43.21875 16.703125 43.21875 25.484375 
L 43.21875 27.484375 
z
M 52.203125 31.203125 
L 52.203125 0 
L 43.21875 0 
L 43.21875 8.296875 
Q 40.140625 3.328125 35.546875 0.953125 
Q 30.953125 -1.421875 24.3125 -1.421875 
Q 15.921875 -1.421875 10.953125 3.296875 
Q 6 8.015625 6 15.921875 
Q 6 25.140625 12.171875 29.828125 
Q 18.359375 34.515625 30.609375 34.515625 
L 43.21875 34.515625 
L 43.21875 35.40625 
Q 43.21875 41.609375 39.140625 45 
Q 35.0625 48.390625 27.6875 48.390625 
Q 23 48.390625 18.546875 47.265625 
Q 14.109375 46.140625 10.015625 43.890625 
L 10.015625 52.203125 
Q 14.9375 54.109375 19.578125 55.046875 
Q 24.21875 56 28.609375 56 
Q 40.484375 56 46.34375 49.84375 
Q 52.203125 43.703125 52.203125 31.203125 
" id="BitstreamVeraSans-Roman-61"/>
      </defs>
      <g style="fill:#262626;" transform="translate(586.946803125 820.688125)scale(0.12 -0.12)">
       <use xlink:href="#BitstreamVeraSans-Roman-44"/>
       <use x="77.001953125" xlink:href="#BitstreamVeraSans-Roman-6f"/>
       <use x="138.18359375" xlink:href="#BitstreamVeraSans-Roman-77"/>
       <use x="219.970703125" xlink:href="#BitstreamVeraSans-Roman-6e"/>
       <use x="283.349609375" xlink:href="#BitstreamVeraSans-Roman-6c"/>
       <use x="311.1328125" xlink:href="#BitstreamVeraSans-Roman-6f"/>
       <use x="372.314453125" xlink:href="#BitstreamVeraSans-Roman-61"/>
       <use x="433.59375" xlink:href="#BitstreamVeraSans-Roman-64"/>
      </g>
     </g>
    </g>
    <g id="xtick_2">
     <g id="line2d_3">
      <g>
       <use style="fill:#262626;stroke:#262626;stroke-width:0.5;" x="1349.23947187" xlink:href="#m444513b87b" y="807.57"/>
      </g>
     </g>
     <g id="line2d_4">
      <g>
       <use style="fill:#262626;stroke:#262626;stroke-width:0.5;" x="1349.23947187" xlink:href="#m444513b87b" y="89.73"/>
      </g>
     </g>
     <g id="text_2">
      <!-- Ping (ms) -->
      <defs>
       <path id="BitstreamVeraSans-Roman-20"/>
       <path d="M 8.015625 75.875 
L 15.828125 75.875 
Q 23.140625 64.359375 26.78125 53.3125 
Q 30.421875 42.28125 30.421875 31.390625 
Q 30.421875 20.453125 26.78125 9.375 
Q 23.140625 -1.703125 15.828125 -13.1875 
L 8.015625 -13.1875 
Q 14.5 -2 17.703125 9.0625 
Q 20.90625 20.125 20.90625 31.390625 
Q 20.90625 42.671875 17.703125 53.65625 
Q 14.5 64.65625 8.015625 75.875 
" id="BitstreamVeraSans-Roman-29"/>
       <path d="M 52 44.1875 
Q 55.375 50.25 60.0625 53.125 
Q 64.75 56 71.09375 56 
Q 79.640625 56 84.28125 50.015625 
Q 88.921875 44.046875 88.921875 33.015625 
L 88.921875 0 
L 79.890625 0 
L 79.890625 32.71875 
Q 79.890625 40.578125 77.09375 44.375 
Q 74.3125 48.1875 68.609375 48.1875 
Q 61.625 48.1875 57.5625 43.546875 
Q 53.515625 38.921875 53.515625 30.90625 
L 53.515625 0 
L 44.484375 0 
L 44.484375 32.71875 
Q 44.484375 40.625 41.703125 44.40625 
Q 38.921875 48.1875 33.109375 48.1875 
Q 26.21875 48.1875 22.15625 43.53125 
Q 18.109375 38.875 18.109375 30.90625 
L 18.109375 0 
L 9.078125 0 
L 9.078125 54.6875 
L 18.109375 54.6875 
L 18.109375 46.1875 
Q 21.1875 51.21875 25.484375 53.609375 
Q 29.78125 56 35.6875 56 
Q 41.65625 56 45.828125 52.96875 
Q 50 49.953125 52 44.1875 
" id="BitstreamVeraSans-Roman-6d"/>
       <path d="M 19.671875 64.796875 
L 19.671875 37.40625 
L 32.078125 37.40625 
Q 38.96875 37.40625 42.71875 40.96875 
Q 46.484375 44.53125 46.484375 51.125 
Q 46.484375 57.671875 42.71875 61.234375 
Q 38.96875 64.796875 32.078125 64.796875 
z
M 9.8125 72.90625 
L 32.078125 72.90625 
Q 44.34375 72.90625 50.609375 67.359375 
Q 56.890625 61.8125 56.890625 51.125 
Q 56.890625 40.328125 50.609375 34.8125 
Q 44.34375 29.296875 32.078125 29.296875 
L 19.671875 29.296875 
L 19.671875 0 
L 9.8125 0 
z
" id="BitstreamVeraSans-Roman-50"/>
       <path d="M 9.421875 54.6875 
L 18.40625 54.6875 
L 18.40625 0 
L 9.421875 0 
z
M 9.421875 75.984375 
L 18.40625 75.984375 
L 18.40625 64.59375 
L 9.421875 64.59375 
z
" id="BitstreamVeraSans-Roman-69"/>
       <path d="M 31 75.875 
Q 24.46875 64.65625 21.28125 53.65625 
Q 18.109375 42.671875 18.109375 31.390625 
Q 18.109375 20.125 21.3125 9.0625 
Q 24.515625 -2 31 -13.1875 
L 23.1875 -13.1875 
Q 15.875 -1.703125 12.234375 9.375 
Q 8.59375 20.453125 8.59375 31.390625 
Q 8.59375 42.28125 12.203125 53.3125 
Q 15.828125 64.359375 23.1875 75.875 
z
" id="BitstreamVeraSans-Roman-28"/>
       <path d="M 45.40625 27.984375 
Q 45.40625 37.75 41.375 43.109375 
Q 37.359375 48.484375 30.078125 48.484375 
Q 22.859375 48.484375 18.828125 43.109375 
Q 14.796875 37.75 14.796875 27.984375 
Q 14.796875 18.265625 18.828125 12.890625 
Q 22.859375 7.515625 30.078125 7.515625 
Q 37.359375 7.515625 41.375 12.890625 
Q 45.40625 18.265625 45.40625 27.984375 
M 54.390625 6.78125 
Q 54.390625 -7.171875 48.1875 -13.984375 
Q 42 -20.796875 29.203125 -20.796875 
Q 24.46875 -20.796875 20.265625 -20.09375 
Q 16.0625 -19.390625 12.109375 -17.921875 
L 12.109375 -9.1875 
Q 16.0625 -11.328125 19.921875 -12.34375 
Q 23.78125 -13.375 27.78125 -13.375 
Q 36.625 -13.375 41.015625 -8.765625 
Q 45.40625 -4.15625 45.40625 5.171875 
L 45.40625 9.625 
Q 42.625 4.78125 38.28125 2.390625 
Q 33.9375 0 27.875 0 
Q 17.828125 0 11.671875 7.65625 
Q 5.515625 15.328125 5.515625 27.984375 
Q 5.515625 40.671875 11.671875 48.328125 
Q 17.828125 56 27.875 56 
Q 33.9375 56 38.28125 53.609375 
Q 42.625 51.21875 45.40625 46.390625 
L 45.40625 54.6875 
L 54.390625 54.6875 
z
" id="BitstreamVeraSans-Roman-67"/>
       <path d="M 44.28125 53.078125 
L 44.28125 44.578125 
Q 40.484375 46.53125 36.375 47.5 
Q 32.28125 48.484375 27.875 48.484375 
Q 21.1875 48.484375 17.84375 46.4375 
Q 14.5 44.390625 14.5 40.28125 
Q 14.5 37.15625 16.890625 35.375 
Q 19.28125 33.59375 26.515625 31.984375 
L 29.59375 31.296875 
Q 39.15625 29.25 43.1875 25.515625 
Q 47.21875 21.78125 47.21875 15.09375 
Q 47.21875 7.46875 41.1875 3.015625 
Q 35.15625 -1.421875 24.609375 -1.421875 
Q 20.21875 -1.421875 15.453125 -0.5625 
Q 10.6875 0.296875 5.421875 2 
L 5.421875 11.28125 
Q 10.40625 8.6875 15.234375 7.390625 
Q 20.0625 6.109375 24.8125 6.109375 
Q 31.15625 6.109375 34.5625 8.28125 
Q 37.984375 10.453125 37.984375 14.40625 
Q 37.984375 18.0625 35.515625 20.015625 
Q 33.0625 21.96875 24.703125 23.78125 
L 21.578125 24.515625 
Q 13.234375 26.265625 9.515625 29.90625 
Q 5.8125 33.546875 5.8125 39.890625 
Q 5.8125 47.609375 11.28125 51.796875 
Q 16.75 56 26.8125 56 
Q 31.78125 56 36.171875 55.265625 
Q 40.578125 54.546875 44.28125 53.078125 
" id="BitstreamVeraSans-Roman-73"/>
      </defs>
      <g style="fill:#262626;" transform="translate(1320.78634687 820.688125)scale(0.12 -0.12)">
       <use xlink:href="#BitstreamVeraSans-Roman-50"/>
       <use x="60.271484375" xlink:href="#BitstreamVeraSans-Roman-69"/>
       <use x="88.0546875" xlink:href="#BitstreamVeraSans-Roman-6e"/>
       <use x="151.43359375" xlink:href="#BitstreamVeraSans-Roman-67"/>
       <use x="214.91015625" xlink:href="#BitstreamVeraSans-Roman-20"/>
       <use x="246.697265625" xlink:href="#BitstreamVeraSans-Roman-28"/>
       <use x="285.7109375" xlink:href="#BitstreamVeraSans-Roman-6d"/>
       <use x="383.123046875" xlink:href="#BitstreamVeraSans-Roman-73"/>
       <use x="435.22265625" xlink:href="#BitstreamVeraSans-Roman-29"/>
      </g>
     </g>
    </g>
   </g>
   <g id="matplotlib.axis_2">
    <g id="ytick_1">
     <g id="line2d_5">
      <g>
       <use style="fill:#262626;stroke:#262626;stroke-width:0.5;" x="250.5375" xlink:href="#m444513b87b" y="733.029639091"/>
      </g>
     </g>
     <g id="text_3">
      <!-- 40 -->
      <defs>
       <path d="M 31.78125 66.40625 
Q 24.171875 66.40625 20.328125 58.90625 
Q 16.5 51.421875 16.5 36.375 
Q 16.5 21.390625 20.328125 13.890625 
Q 24.171875 6.390625 31.78125 6.390625 
Q 39.453125 6.390625 43.28125 13.890625 
Q 47.125 21.390625 47.125 36.375 
Q 47.125 51.421875 43.28125 58.90625 
Q 39.453125 66.40625 31.78125 66.40625 
M 31.78125 74.21875 
Q 44.046875 74.21875 50.515625 64.515625 
Q 56.984375 54.828125 56.984375 36.375 
Q 56.984375 17.96875 50.515625 8.265625 
Q 44.046875 -1.421875 31.78125 -1.421875 
Q 19.53125 -1.421875 13.0625 8.265625 
Q 6.59375 17.96875 6.59375 36.375 
Q 6.59375 54.828125 13.0625 64.515625 
Q 19.53125 74.21875 31.78125 74.21875 
" id="BitstreamVeraSans-Roman-30"/>
       <path d="M 37.796875 64.3125 
L 12.890625 25.390625 
L 37.796875 25.390625 
z
M 35.203125 72.90625 
L 47.609375 72.90625 
L 47.609375 25.390625 
L 58.015625 25.390625 
L 58.015625 17.1875 
L 47.609375 17.1875 
L 47.609375 0 
L 37.796875 0 
L 37.796875 17.1875 
L 4.890625 17.1875 
L 4.890625 26.703125 
z
" id="BitstreamVeraSans-Roman-34"/>
      </defs>
      <g style="fill:#262626;" transform="translate(231.2675 736.340889091)scale(0.12 -0.12)">
       <use xlink:href="#BitstreamVeraSans-Roman-34"/>
       <use x="63.623046875" xlink:href="#BitstreamVeraSans-Roman-30"/>
      </g>
     </g>
    </g>
    <g id="ytick_2">
     <g id="line2d_6">
      <g>
       <use style="fill:#262626;stroke:#262626;stroke-width:0.5;" x="250.5375" xlink:href="#m444513b87b" y="604.966595554"/>
      </g>
     </g>
     <g id="text_4">
      <!-- 60 -->
      <defs>
       <path d="M 33.015625 40.375 
Q 26.375 40.375 22.484375 35.828125 
Q 18.609375 31.296875 18.609375 23.390625 
Q 18.609375 15.53125 22.484375 10.953125 
Q 26.375 6.390625 33.015625 6.390625 
Q 39.65625 6.390625 43.53125 10.953125 
Q 47.40625 15.53125 47.40625 23.390625 
Q 47.40625 31.296875 43.53125 35.828125 
Q 39.65625 40.375 33.015625 40.375 
M 52.59375 71.296875 
L 52.59375 62.3125 
Q 48.875 64.0625 45.09375 64.984375 
Q 41.3125 65.921875 37.59375 65.921875 
Q 27.828125 65.921875 22.671875 59.328125 
Q 17.53125 52.734375 16.796875 39.40625 
Q 19.671875 43.65625 24.015625 45.921875 
Q 28.375 48.1875 33.59375 48.1875 
Q 44.578125 48.1875 50.953125 41.515625 
Q 57.328125 34.859375 57.328125 23.390625 
Q 57.328125 12.15625 50.6875 5.359375 
Q 44.046875 -1.421875 33.015625 -1.421875 
Q 20.359375 -1.421875 13.671875 8.265625 
Q 6.984375 17.96875 6.984375 36.375 
Q 6.984375 53.65625 15.1875 63.9375 
Q 23.390625 74.21875 37.203125 74.21875 
Q 40.921875 74.21875 44.703125 73.484375 
Q 48.484375 72.75 52.59375 71.296875 
" id="BitstreamVeraSans-Roman-36"/>
      </defs>
      <g style="fill:#262626;" transform="translate(231.2675 608.277845554)scale(0.12 -0.12)">
       <use xlink:href="#BitstreamVeraSans-Roman-36"/>
       <use x="63.623046875" xlink:href="#BitstreamVeraSans-Roman-30"/>
      </g>
     </g>
    </g>
    <g id="ytick_3">
     <g id="line2d_7">
      <g>
       <use style="fill:#262626;stroke:#262626;stroke-width:0.5;" x="250.5375" xlink:href="#m444513b87b" y="476.903552018"/>
      </g>
     </g>
     <g id="text_5">
      <!-- 80 -->
      <defs>
       <path d="M 31.78125 34.625 
Q 24.75 34.625 20.71875 30.859375 
Q 16.703125 27.09375 16.703125 20.515625 
Q 16.703125 13.921875 20.71875 10.15625 
Q 24.75 6.390625 31.78125 6.390625 
Q 38.8125 6.390625 42.859375 10.171875 
Q 46.921875 13.96875 46.921875 20.515625 
Q 46.921875 27.09375 42.890625 30.859375 
Q 38.875 34.625 31.78125 34.625 
M 21.921875 38.8125 
Q 15.578125 40.375 12.03125 44.71875 
Q 8.5 49.078125 8.5 55.328125 
Q 8.5 64.0625 14.71875 69.140625 
Q 20.953125 74.21875 31.78125 74.21875 
Q 42.671875 74.21875 48.875 69.140625 
Q 55.078125 64.0625 55.078125 55.328125 
Q 55.078125 49.078125 51.53125 44.71875 
Q 48 40.375 41.703125 38.8125 
Q 48.828125 37.15625 52.796875 32.3125 
Q 56.78125 27.484375 56.78125 20.515625 
Q 56.78125 9.90625 50.3125 4.234375 
Q 43.84375 -1.421875 31.78125 -1.421875 
Q 19.734375 -1.421875 13.25 4.234375 
Q 6.78125 9.90625 6.78125 20.515625 
Q 6.78125 27.484375 10.78125 32.3125 
Q 14.796875 37.15625 21.921875 38.8125 
M 18.3125 54.390625 
Q 18.3125 48.734375 21.84375 45.5625 
Q 25.390625 42.390625 31.78125 42.390625 
Q 38.140625 42.390625 41.71875 45.5625 
Q 45.3125 48.734375 45.3125 54.390625 
Q 45.3125 60.0625 41.71875 63.234375 
Q 38.140625 66.40625 31.78125 66.40625 
Q 25.390625 66.40625 21.84375 63.234375 
Q 18.3125 60.0625 18.3125 54.390625 
" id="BitstreamVeraSans-Roman-38"/>
      </defs>
      <g style="fill:#262626;" transform="translate(231.2675 480.214802018)scale(0.12 -0.12)">
       <use xlink:href="#BitstreamVeraSans-Roman-38"/>
       <use x="63.623046875" xlink:href="#BitstreamVeraSans-Roman-30"/>
      </g>
     </g>
    </g>
    <g id="ytick_4">
     <g id="line2d_8">
      <g>
       <use style="fill:#262626;stroke:#262626;stroke-width:0.5;" x="250.5375" xlink:href="#m444513b87b" y="348.840508481"/>
      </g>
     </g>
     <g id="text_6">
      <!-- 100 -->
      <defs>
       <path d="M 12.40625 8.296875 
L 28.515625 8.296875 
L 28.515625 63.921875 
L 10.984375 60.40625 
L 10.984375 69.390625 
L 28.421875 72.90625 
L 38.28125 72.90625 
L 38.28125 8.296875 
L 54.390625 8.296875 
L 54.390625 0 
L 12.40625 0 
z
" id="BitstreamVeraSans-Roman-31"/>
      </defs>
      <g style="fill:#262626;" transform="translate(223.6325 352.151758481)scale(0.12 -0.12)">
       <use xlink:href="#BitstreamVeraSans-Roman-31"/>
       <use x="63.623046875" xlink:href="#BitstreamVeraSans-Roman-30"/>
       <use x="127.24609375" xlink:href="#BitstreamVeraSans-Roman-30"/>
      </g>
     </g>
    </g>
    <g id="ytick_5">
     <g id="line2d_9">
      <g>
       <use style="fill:#262626;stroke:#262626;stroke-width:0.5;" x="250.5375" xlink:href="#m444513b87b" y="220.777464944"/>
      </g>
     </g>
     <g id="text_7">
      <!-- 120 -->
      <defs>
       <path d="M 19.1875 8.296875 
L 53.609375 8.296875 
L 53.609375 0 
L 7.328125 0 
L 7.328125 8.296875 
Q 12.9375 14.109375 22.625 23.890625 
Q 32.328125 33.6875 34.8125 36.53125 
Q 39.546875 41.84375 41.421875 45.53125 
Q 43.3125 49.21875 43.3125 52.78125 
Q 43.3125 58.59375 39.234375 62.25 
Q 35.15625 65.921875 28.609375 65.921875 
Q 23.96875 65.921875 18.8125 64.3125 
Q 13.671875 62.703125 7.8125 59.421875 
L 7.8125 69.390625 
Q 13.765625 71.78125 18.9375 73 
Q 24.125 74.21875 28.421875 74.21875 
Q 39.75 74.21875 46.484375 68.546875 
Q 53.21875 62.890625 53.21875 53.421875 
Q 53.21875 48.921875 51.53125 44.890625 
Q 49.859375 40.875 45.40625 35.40625 
Q 44.1875 33.984375 37.640625 27.21875 
Q 31.109375 20.453125 19.1875 8.296875 
" id="BitstreamVeraSans-Roman-32"/>
      </defs>
      <g style="fill:#262626;" transform="translate(223.6325 224.088714944)scale(0.12 -0.12)">
       <use xlink:href="#BitstreamVeraSans-Roman-31"/>
       <use x="63.623046875" xlink:href="#BitstreamVeraSans-Roman-32"/>
       <use x="127.24609375" xlink:href="#BitstreamVeraSans-Roman-30"/>
      </g>
     </g>
    </g>
    <g id="ytick_6">
     <g id="line2d_10">
      <g>
       <use style="fill:#262626;stroke:#262626;stroke-width:0.5;" x="250.5375" xlink:href="#m444513b87b" y="92.7144214077"/>
      </g>
     </g>
     <g id="text_8">
      <!-- 140 -->
      <g style="fill:#262626;" transform="translate(223.6325 96.0256714077)scale(0.12 -0.12)">
       <use xlink:href="#BitstreamVeraSans-Roman-31"/>
       <use x="63.623046875" xlink:href="#BitstreamVeraSans-Roman-34"/>
       <use x="127.24609375" xlink:href="#BitstreamVeraSans-Roman-30"/>
      </g>
     </g>
    </g>
    <g id="ytick_7">
     <g id="line2d_11">
      <g>
       <use style="fill:#262626;stroke:#262626;stroke-width:0.5;" x="250.5375" xlink:href="#m444513b87b" y="797.061160859"/>
      </g>
     </g>
    </g>
    <g id="ytick_8">
     <g id="line2d_12">
      <g>
       <use style="fill:#262626;stroke:#262626;stroke-width:0.5;" x="250.5375" xlink:href="#m444513b87b" y="765.045399975"/>
      </g>
     </g>
    </g>
    <g id="ytick_9">
     <g id="line2d_13">
      <g>
       <use style="fill:#262626;stroke:#262626;stroke-width:0.5;" x="250.5375" xlink:href="#m444513b87b" y="701.013878207"/>
      </g>
     </g>
    </g>
    <g id="ytick_10">
     <g id="line2d_14">
      <g>
       <use style="fill:#262626;stroke:#262626;stroke-width:0.5;" x="250.5375" xlink:href="#m444513b87b" y="668.998117322"/>
      </g>
     </g>
    </g>
    <g id="ytick_11">
     <g id="line2d_15">
      <g>
       <use style="fill:#262626;stroke:#262626;stroke-width:0.5;" x="250.5375" xlink:href="#m444513b87b" y="636.982356438"/>
      </g>
     </g>
    </g>
    <g id="ytick_12">
     <g id="line2d_16">
      <g>
       <use style="fill:#262626;stroke:#262626;stroke-width:0.5;" x="250.5375" xlink:href="#m444513b87b" y="572.95083467"/>
      </g>
     </g>
    </g>
    <g id="ytick_13">
     <g id="line2d_17">
      <g>
       <use style="fill:#262626;stroke:#262626;stroke-width:0.5;" x="250.5375" xlink:href="#m444513b87b" y="540.935073786"/>
      </g>
     </g>
    </g>
    <g id="ytick_14">
     <g id="line2d_18">
      <g>
       <use style="fill:#262626;stroke:#262626;stroke-width:0.5;" x="250.5375" xlink:href="#m444513b87b" y="508.919312902"/>
      </g>
     </g>
    </g>
    <g id="ytick_15">
     <g id="line2d_19">
      <g>
       <use style="fill:#262626;stroke:#262626;stroke-width:0.5;" x="250.5375" xlink:href="#m444513b87b" y="444.887791133"/>
      </g>
     </g>
    </g>
    <g id="ytick_16">
     <g id="line2d_20">
      <g>
       <use style="fill:#262626;stroke:#262626;stroke-width:0.5;" x="250.5375" xlink:href="#m444513b87b" y="412.872030249"/>
      </g>
     </g>
    </g>
    <g id="ytick_17">
     <g id="line2d_21">
      <g>
       <use style="fill:#262626;stroke:#262626;stroke-width:0.5;" x="250.5375" xlink:href="#m444513b87b" y="380.856269365"/>
      </g>
     </g>
    </g>
    <g id="ytick_18">
     <g id="line2d_22">
      <g>
       <use style="fill:#262626;stroke:#262626;stroke-width:0.5;" x="250.5375" xlink:href="#m444513b87b" y="316.824747597"/>
      </g>
     </g>
    </g>
    <g id="ytick_19">
     <g id="line2d_23">
      <g>
       <use style="fill:#262626;stroke:#262626;stroke-width:0.5;" x="250.5375" xlink:href="#m444513b87b" y="284.808986713"/>
      </g>
     </g>
    </g>
    <g id="ytick_20">
     <g id="line2d_24">
      <g>
       <use style="fill:#262626;stroke:#262626;stroke-width:0.5;" x="250.5375" xlink:href="#m444513b87b" y="252.793225828"/>
      </g>
     </g>
    </g>
    <g id="ytick_21">
     <g id="line2d_25">
      <g>
       <use style="fill:#262626;stroke:#262626;stroke-width:0.5;" x="250.5375" xlink:href="#m444513b87b" y="188.76170406"/>
      </g>
     </g>
    </g>
    <g id="ytick_22">
     <g id="line2d_26">
      <g>
       <use style="fill:#262626;stroke:#262626;stroke-width:0.5;" x="250.5375" xlink:href="#m444513b87b" y="156.745943176"/>
      </g>
     </g>
    </g>
    <g id="ytick_23">
     <g id="line2d_27">
      <g>
       <use style="fill:#262626;stroke:#262626;stroke-width:0.5;" x="250.5375" xlink:href="#m444513b87b" y="124.730182292"/>
      </g>
     </g>
    </g>
    <g id="text_9">
     <!-- Mbits/s -->
     <defs>
      <path d="M 18.3125 70.21875 
L 18.3125 54.6875 
L 36.8125 54.6875 
L 36.8125 47.703125 
L 18.3125 47.703125 
L 18.3125 18.015625 
Q 18.3125 11.328125 20.140625 9.421875 
Q 21.96875 7.515625 27.59375 7.515625 
L 36.8125 7.515625 
L 36.8125 0 
L 27.59375 0 
Q 17.1875 0 13.234375 3.875 
Q 9.28125 7.765625 9.28125 18.015625 
L 9.28125 47.703125 
L 2.6875 47.703125 
L 2.6875 54.6875 
L 9.28125 54.6875 
L 9.28125 70.21875 
z
" id="BitstreamVeraSans-Roman-74"/>
      <path d="M 9.8125 72.90625 
L 24.515625 72.90625 
L 43.109375 23.296875 
L 61.8125 72.90625 
L 76.515625 72.90625 
L 76.515625 0 
L 66.890625 0 
L 66.890625 64.015625 
L 48.09375 14.015625 
L 38.1875 14.015625 
L 19.390625 64.015625 
L 19.390625 0 
L 9.8125 0 
z
" id="BitstreamVeraSans-Roman-4d"/>
      <path d="M 25.390625 72.90625 
L 33.6875 72.90625 
L 8.296875 -9.28125 
L 0 -9.28125 
z
" id="BitstreamVeraSans-Roman-2f"/>
      <path d="M 48.6875 27.296875 
Q 48.6875 37.203125 44.609375 42.84375 
Q 40.53125 48.484375 33.40625 48.484375 
Q 26.265625 48.484375 22.1875 42.84375 
Q 18.109375 37.203125 18.109375 27.296875 
Q 18.109375 17.390625 22.1875 11.75 
Q 26.265625 6.109375 33.40625 6.109375 
Q 40.53125 6.109375 44.609375 11.75 
Q 48.6875 17.390625 48.6875 27.296875 
M 18.109375 46.390625 
Q 20.953125 51.265625 25.265625 53.625 
Q 29.59375 56 35.59375 56 
Q 45.5625 56 51.78125 48.09375 
Q 58.015625 40.1875 58.015625 27.296875 
Q 58.015625 14.40625 51.78125 6.484375 
Q 45.5625 -1.421875 35.59375 -1.421875 
Q 29.59375 -1.421875 25.265625 0.953125 
Q 20.953125 3.328125 18.109375 8.203125 
L 18.109375 0 
L 9.078125 0 
L 9.078125 75.984375 
L 18.109375 75.984375 
z
" id="BitstreamVeraSans-Roman-62"/>
     </defs>
     <g style="fill:#262626;" transform="translate(216.136875 469.9275)rotate(-90.0)scale(0.12 -0.12)">
      <use xlink:href="#BitstreamVeraSans-Roman-4d"/>
      <use x="86.279296875" xlink:href="#BitstreamVeraSans-Roman-62"/>
      <use x="149.755859375" xlink:href="#BitstreamVeraSans-Roman-69"/>
      <use x="177.5390625" xlink:href="#BitstreamVeraSans-Roman-74"/>
      <use x="216.748046875" xlink:href="#BitstreamVeraSans-Roman-73"/>
      <use x="268.84765625" xlink:href="#BitstreamVeraSans-Roman-2f"/>
      <use x="302.5390625" xlink:href="#BitstreamVeraSans-Roman-73"/>
     </g>
    </g>
   </g>
   <g id="line2d_28">
    <path clip-path="url(#p76fad0d343)" d="M 364.070037 474.079535 
L 429.992155 474.079535 
L 429.992155 327.737551 
L 364.070037 327.737551 
L 364.070037 474.079535 
" style="fill:none;stroke:#1b9e77;stroke-linecap:round;"/>
   </g>
   <g id="line2d_29">
    <path clip-path="url(#p76fad0d343)" d="M 397.031096 474.079535 
L 397.031096 680.865114 
" style="fill:none;stroke:#1b9e77;stroke-dasharray:6.000000,6.000000;stroke-dashoffset:0.0;"/>
   </g>
   <g id="line2d_30">
    <path clip-path="url(#p76fad0d343)" d="M 397.031096 327.737551 
L 397.031096 158.803678 
" style="fill:none;stroke:#1b9e77;stroke-dasharray:6.000000,6.000000;stroke-dashoffset:0.0;"/>
   </g>
   <g id="line2d_31">
    <path clip-path="url(#p76fad0d343)" d="M 380.550567 680.865114 
L 413.511626 680.865114 
" style="fill:none;stroke:#1b9e77;stroke-linecap:round;"/>
   </g>
   <g id="line2d_32">
    <path clip-path="url(#p76fad0d343)" d="M 380.550567 158.803678 
L 413.511626 158.803678 
" style="fill:none;stroke:#1b9e77;stroke-linecap:round;"/>
   </g>
   <g id="line2d_33">
    <path clip-path="url(#p76fad0d343)" d="M 364.070037 371.29599 
L 429.992155 371.29599 
" style="fill:none;stroke:#ff0000;stroke-linecap:round;"/>
   </g>
   <g id="line2d_34">
    <defs>
     <path d="M -3 0 
L 3 0 
M 0 3 
L 0 -3 
" id="me071637825" style="stroke:#1b9e77;stroke-width:0.5;"/>
    </defs>
    <g clip-path="url(#p76fad0d343)">
     <use style="fill:#0000ff;stroke:#1b9e77;stroke-width:0.5;" x="397.03109625" xlink:href="#me071637825" y="722.90253586"/>
     <use style="fill:#0000ff;stroke:#1b9e77;stroke-width:0.5;" x="397.03109625" xlink:href="#me071637825" y="698.750688075"/>
     <use style="fill:#0000ff;stroke:#1b9e77;stroke-width:0.5;" x="397.03109625" xlink:href="#me071637825" y="710.244940769"/>
     <use style="fill:#0000ff;stroke:#1b9e77;stroke-width:0.5;" x="397.03109625" xlink:href="#me071637825" y="755.292028029"/>
     <use style="fill:#0000ff;stroke:#1b9e77;stroke-width:0.5;" x="397.03109625" xlink:href="#me071637825" y="716.409537512"/>
     <use style="fill:#0000ff;stroke:#1b9e77;stroke-width:0.5;" x="397.03109625" xlink:href="#me071637825" y="704.970419061"/>
     <use style="fill:#0000ff;stroke:#1b9e77;stroke-width:0.5;" x="397.03109625" xlink:href="#me071637825" y="747.660765893"/>
     <use style="fill:#0000ff;stroke:#1b9e77;stroke-width:0.5;" x="397.03109625" xlink:href="#me071637825" y="764.640105472"/>
     <use style="fill:#0000ff;stroke:#1b9e77;stroke-width:0.5;" x="397.03109625" xlink:href="#me071637825" y="768.954445515"/>
     <use style="fill:#0000ff;stroke:#1b9e77;stroke-width:0.5;" x="397.03109625" xlink:href="#me071637825" y="768.109757382"/>
     <use style="fill:#0000ff;stroke:#1b9e77;stroke-width:0.5;" x="397.03109625" xlink:href="#me071637825" y="772.630505511"/>
     <use style="fill:#0000ff;stroke:#1b9e77;stroke-width:0.5;" x="397.03109625" xlink:href="#me071637825" y="751.150559751"/>
    </g>
   </g>
   <g id="line2d_35">
    <path clip-path="url(#p76fad0d343)" d="M 510.563633 418.675359 
L 576.485752 418.675359 
L 576.485752 309.39561 
L 510.563633 309.39561 
L 510.563633 418.675359 
" style="fill:none;stroke:#d95f02;stroke-linecap:round;"/>
   </g>
   <g id="line2d_36">
    <path clip-path="url(#p76fad0d343)" d="M 543.524693 418.675359 
L 543.524693 575.801011 
" style="fill:none;stroke:#d95f02;stroke-dasharray:6.000000,6.000000;stroke-dashoffset:0.0;"/>
   </g>
   <g id="line2d_37">
    <path clip-path="url(#p76fad0d343)" d="M 543.524693 309.39561 
L 543.524693 165.581169 
" style="fill:none;stroke:#d95f02;stroke-dasharray:6.000000,6.000000;stroke-dashoffset:0.0;"/>
   </g>
   <g id="line2d_38">
    <path clip-path="url(#p76fad0d343)" d="M 527.044163 575.801011 
L 560.005222 575.801011 
" style="fill:none;stroke:#d95f02;stroke-linecap:round;"/>
   </g>
   <g id="line2d_39">
    <path clip-path="url(#p76fad0d343)" d="M 527.044163 165.581169 
L 560.005222 165.581169 
" style="fill:none;stroke:#d95f02;stroke-linecap:round;"/>
   </g>
   <g id="line2d_40">
    <path clip-path="url(#p76fad0d343)" d="M 510.563633 368.479363 
L 576.485752 368.479363 
" style="fill:none;stroke:#ff0000;stroke-linecap:round;"/>
   </g>
   <g id="line2d_41">
    <defs>
     <path d="M -3 0 
L 3 0 
M 0 3 
L 0 -3 
" id="md225b7ab51" style="stroke:#d95f02;stroke-width:0.5;"/>
    </defs>
    <g clip-path="url(#p76fad0d343)">
     <use style="fill:#0000ff;stroke:#d95f02;stroke-width:0.5;" x="543.5246925" xlink:href="#md225b7ab51" y="740.708323322"/>
     <use style="fill:#0000ff;stroke:#d95f02;stroke-width:0.5;" x="543.5246925" xlink:href="#md225b7ab51" y="637.852642497"/>
     <use style="fill:#0000ff;stroke:#d95f02;stroke-width:0.5;" x="543.5246925" xlink:href="#md225b7ab51" y="707.261495045"/>
     <use style="fill:#0000ff;stroke:#d95f02;stroke-width:0.5;" x="543.5246925" xlink:href="#md225b7ab51" y="774.907785653"/>
     <use style="fill:#0000ff;stroke:#d95f02;stroke-width:0.5;" x="543.5246925" xlink:href="#md225b7ab51" y="704.601167217"/>
     <use style="fill:#0000ff;stroke:#d95f02;stroke-width:0.5;" x="543.5246925" xlink:href="#md225b7ab51" y="692.636528437"/>
     <use style="fill:#0000ff;stroke:#d95f02;stroke-width:0.5;" x="543.5246925" xlink:href="#md225b7ab51" y="595.773125749"/>
     <use style="fill:#0000ff;stroke:#d95f02;stroke-width:0.5;" x="543.5246925" xlink:href="#md225b7ab51" y="635.865040735"/>
     <use style="fill:#0000ff;stroke:#d95f02;stroke-width:0.5;" x="543.5246925" xlink:href="#md225b7ab51" y="617.024751168"/>
     <use style="fill:#0000ff;stroke:#d95f02;stroke-width:0.5;" x="543.5246925" xlink:href="#md225b7ab51" y="585.236015289"/>
     <use style="fill:#0000ff;stroke:#d95f02;stroke-width:0.5;" x="543.5246925" xlink:href="#md225b7ab51" y="751.735315757"/>
     <use style="fill:#0000ff;stroke:#d95f02;stroke-width:0.5;" x="543.5246925" xlink:href="#md225b7ab51" y="771.869305396"/>
     <use style="fill:#0000ff;stroke:#d95f02;stroke-width:0.5;" x="543.5246925" xlink:href="#md225b7ab51" y="683.424256277"/>
     <use style="fill:#0000ff;stroke:#d95f02;stroke-width:0.5;" x="543.5246925" xlink:href="#md225b7ab51" y="747.44561766"/>
     <use style="fill:#0000ff;stroke:#d95f02;stroke-width:0.5;" x="543.5246925" xlink:href="#md225b7ab51" y="800.532352941"/>
     <use style="fill:#0000ff;stroke:#d95f02;stroke-width:0.5;" x="543.5246925" xlink:href="#md225b7ab51" y="681.572673166"/>
     <use style="fill:#0000ff;stroke:#d95f02;stroke-width:0.5;" x="543.5246925" xlink:href="#md225b7ab51" y="594.773655899"/>
     <use style="fill:#0000ff;stroke:#d95f02;stroke-width:0.5;" x="543.5246925" xlink:href="#md225b7ab51" y="688.686840616"/>
     <use style="fill:#0000ff;stroke:#d95f02;stroke-width:0.5;" x="543.5246925" xlink:href="#md225b7ab51" y="633.311450264"/>
     <use style="fill:#0000ff;stroke:#d95f02;stroke-width:0.5;" x="543.5246925" xlink:href="#md225b7ab51" y="624.849555554"/>
     <use style="fill:#0000ff;stroke:#d95f02;stroke-width:0.5;" x="543.5246925" xlink:href="#md225b7ab51" y="657.920257459"/>
     <use style="fill:#0000ff;stroke:#d95f02;stroke-width:0.5;" x="543.5246925" xlink:href="#md225b7ab51" y="681.359716998"/>
     <use style="fill:#0000ff;stroke:#d95f02;stroke-width:0.5;" x="543.5246925" xlink:href="#md225b7ab51" y="632.067210354"/>
    </g>
   </g>
   <g id="line2d_42">
    <path clip-path="url(#p76fad0d343)" d="M 657.05723 351.144801 
L 722.979348 351.144801 
L 722.979348 226.459163 
L 657.05723 226.459163 
L 657.05723 351.144801 
" style="fill:none;stroke:#7570b3;stroke-linecap:round;"/>
   </g>
   <g id="line2d_43">
    <path clip-path="url(#p76fad0d343)" d="M 690.018289 351.144801 
L 690.018289 506.697509 
" style="fill:none;stroke:#7570b3;stroke-dasharray:6.000000,6.000000;stroke-dashoffset:0.0;"/>
   </g>
   <g id="line2d_44">
    <path clip-path="url(#p76fad0d343)" d="M 690.018289 226.459163 
L 690.018289 96.767647 
" style="fill:none;stroke:#7570b3;stroke-dasharray:6.000000,6.000000;stroke-dashoffset:0.0;"/>
   </g>
   <g id="line2d_45">
    <path clip-path="url(#p76fad0d343)" d="M 673.537759 506.697509 
L 706.498818 506.697509 
" style="fill:none;stroke:#7570b3;stroke-linecap:round;"/>
   </g>
   <g id="line2d_46">
    <path clip-path="url(#p76fad0d343)" d="M 673.537759 96.767647 
L 706.498818 96.767647 
" style="fill:none;stroke:#7570b3;stroke-linecap:round;"/>
   </g>
   <g id="line2d_47">
    <path clip-path="url(#p76fad0d343)" d="M 657.05723 294.577742 
L 722.979348 294.577742 
" style="fill:none;stroke:#ff0000;stroke-linecap:round;"/>
   </g>
   <g id="line2d_48">
    <defs>
     <path d="M -3 0 
L 3 0 
M 0 3 
L 0 -3 
" id="m76278fc3a6" style="stroke:#7570b3;stroke-width:0.5;"/>
    </defs>
    <g clip-path="url(#p76fad0d343)">
     <use style="fill:#0000ff;stroke:#7570b3;stroke-width:0.5;" x="690.01828875" xlink:href="#m76278fc3a6" y="623.151547736"/>
    </g>
   </g>
   <g id="line2d_49">
    <path clip-path="url(#p76fad0d343)" d="M 803.550826 373.587262 
L 869.472944 373.587262 
L 869.472944 233.359356 
L 803.550826 233.359356 
L 803.550826 373.587262 
" style="fill:none;stroke:#e7298a;stroke-linecap:round;"/>
   </g>
   <g id="line2d_50">
    <path clip-path="url(#p76fad0d343)" d="M 836.511885 373.587262 
L 836.511885 579.578777 
" style="fill:none;stroke:#e7298a;stroke-dasharray:6.000000,6.000000;stroke-dashoffset:0.0;"/>
   </g>
   <g id="line2d_51">
    <path clip-path="url(#p76fad0d343)" d="M 836.511885 233.359356 
L 836.511885 106.326478 
" style="fill:none;stroke:#e7298a;stroke-dasharray:6.000000,6.000000;stroke-dashoffset:0.0;"/>
   </g>
   <g id="line2d_52">
    <path clip-path="url(#p76fad0d343)" d="M 820.031355 579.578777 
L 852.992415 579.578777 
" style="fill:none;stroke:#e7298a;stroke-linecap:round;"/>
   </g>
   <g id="line2d_53">
    <path clip-path="url(#p76fad0d343)" d="M 820.031355 106.326478 
L 852.992415 106.326478 
" style="fill:none;stroke:#e7298a;stroke-linecap:round;"/>
   </g>
   <g id="line2d_54">
    <path clip-path="url(#p76fad0d343)" d="M 803.550826 328.404019 
L 869.472944 328.404019 
" style="fill:none;stroke:#ff0000;stroke-linecap:round;"/>
   </g>
   <g id="line2d_55">
    <defs>
     <path d="M -3 0 
L 3 0 
M 0 3 
L 0 -3 
" id="m2b1a4750df" style="stroke:#e7298a;stroke-width:0.5;"/>
    </defs>
    <g clip-path="url(#p76fad0d343)">
     <use style="fill:#0000ff;stroke:#e7298a;stroke-width:0.5;" x="836.511885" xlink:href="#m2b1a4750df" y="603.301262252"/>
     <use style="fill:#0000ff;stroke:#e7298a;stroke-width:0.5;" x="836.511885" xlink:href="#m2b1a4750df" y="652.558794189"/>
     <use style="fill:#0000ff;stroke:#e7298a;stroke-width:0.5;" x="836.511885" xlink:href="#m2b1a4750df" y="756.365658369"/>
     <use style="fill:#0000ff;stroke:#e7298a;stroke-width:0.5;" x="836.511885" xlink:href="#m2b1a4750df" y="682.019074715"/>
     <use style="fill:#0000ff;stroke:#e7298a;stroke-width:0.5;" x="836.511885" xlink:href="#m2b1a4750df" y="674.445202872"/>
     <use style="fill:#0000ff;stroke:#e7298a;stroke-width:0.5;" x="836.511885" xlink:href="#m2b1a4750df" y="647.010238399"/>
     <use style="fill:#0000ff;stroke:#e7298a;stroke-width:0.5;" x="836.511885" xlink:href="#m2b1a4750df" y="646.259522861"/>
     <use style="fill:#0000ff;stroke:#e7298a;stroke-width:0.5;" x="836.511885" xlink:href="#m2b1a4750df" y="636.936320822"/>
     <use style="fill:#0000ff;stroke:#e7298a;stroke-width:0.5;" x="836.511885" xlink:href="#m2b1a4750df" y="634.035709286"/>
     <use style="fill:#0000ff;stroke:#e7298a;stroke-width:0.5;" x="836.511885" xlink:href="#m2b1a4750df" y="605.04965647"/>
     <use style="fill:#0000ff;stroke:#e7298a;stroke-width:0.5;" x="836.511885" xlink:href="#m2b1a4750df" y="665.308173292"/>
     <use style="fill:#0000ff;stroke:#e7298a;stroke-width:0.5;" x="836.511885" xlink:href="#m2b1a4750df" y="629.685941521"/>
     <use style="fill:#0000ff;stroke:#e7298a;stroke-width:0.5;" x="836.511885" xlink:href="#m2b1a4750df" y="623.653255872"/>
     <use style="fill:#0000ff;stroke:#e7298a;stroke-width:0.5;" x="836.511885" xlink:href="#m2b1a4750df" y="725.139691647"/>
     <use style="fill:#0000ff;stroke:#e7298a;stroke-width:0.5;" x="836.511885" xlink:href="#m2b1a4750df" y="686.413175554"/>
     <use style="fill:#0000ff;stroke:#e7298a;stroke-width:0.5;" x="836.511885" xlink:href="#m2b1a4750df" y="656.140873564"/>
     <use style="fill:#0000ff;stroke:#e7298a;stroke-width:0.5;" x="836.511885" xlink:href="#m2b1a4750df" y="607.024149731"/>
     <use style="fill:#0000ff;stroke:#e7298a;stroke-width:0.5;" x="836.511885" xlink:href="#m2b1a4750df" y="605.160776791"/>
     <use style="fill:#0000ff;stroke:#e7298a;stroke-width:0.5;" x="836.511885" xlink:href="#m2b1a4750df" y="635.980299755"/>
     <use style="fill:#0000ff;stroke:#e7298a;stroke-width:0.5;" x="836.511885" xlink:href="#m2b1a4750df" y="622.497309038"/>
     <use style="fill:#0000ff;stroke:#e7298a;stroke-width:0.5;" x="836.511885" xlink:href="#m2b1a4750df" y="586.15697377"/>
     <use style="fill:#0000ff;stroke:#e7298a;stroke-width:0.5;" x="836.511885" xlink:href="#m2b1a4750df" y="612.402827074"/>
     <use style="fill:#0000ff;stroke:#e7298a;stroke-width:0.5;" x="836.511885" xlink:href="#m2b1a4750df" y="589.604213341"/>
     <use style="fill:#0000ff;stroke:#e7298a;stroke-width:0.5;" x="836.511885" xlink:href="#m2b1a4750df" y="621.934642525"/>
     <use style="fill:#0000ff;stroke:#e7298a;stroke-width:0.5;" x="836.511885" xlink:href="#m2b1a4750df" y="615.461367608"/>
     <use style="fill:#0000ff;stroke:#e7298a;stroke-width:0.5;" x="836.511885" xlink:href="#m2b1a4750df" y="618.204977718"/>
     <use style="fill:#0000ff;stroke:#e7298a;stroke-width:0.5;" x="836.511885" xlink:href="#m2b1a4750df" y="648.247036692"/>
     <use style="fill:#0000ff;stroke:#e7298a;stroke-width:0.5;" x="836.511885" xlink:href="#m2b1a4750df" y="602.542634446"/>
    </g>
   </g>
   <g id="line2d_56">
    <path clip-path="url(#p76fad0d343)" d="M 983.005481 807.57 
L 983.005481 89.73 
" style="fill:none;stroke:#000000;stroke-dasharray:1.000000,3.000000;stroke-dashoffset:0.0;stroke-width:0.5;"/>
   </g>
   <g id="patch_3">
    <path d="M 250.5375 89.73 
L 1715.473462 89.73 
" style="fill:none;"/>
   </g>
   <g id="patch_4">
    <path d="M 1715.473462 807.57 
L 1715.473462 89.73 
" style="fill:none;"/>
   </g>
   <g id="patch_5">
    <path d="M 250.5375 807.57 
L 1715.473462 807.57 
" style="fill:none;"/>
   </g>
   <g id="patch_6">
    <path d="M 250.5375 807.57 
L 250.5375 89.73 
" style="fill:none;"/>
   </g>
   <g id="legend_1">
    <g id="line2d_57">
     <path d="M 1880.614818 97.825198 
L 1900.606818 97.825198 
" style="fill:none;stroke:#1b9e77;stroke-linecap:round;"/>
    </g>
    <g id="line2d_58"/>
    <g id="text_10">
     <!-- CT-10.1 -->
     <defs>
      <path d="M -0.296875 72.90625 
L 61.375 72.90625 
L 61.375 64.59375 
L 35.5 64.59375 
L 35.5 0 
L 25.59375 0 
L 25.59375 64.59375 
L -0.296875 64.59375 
z
" id="BitstreamVeraSans-Roman-54"/>
      <path d="M 64.40625 67.28125 
L 64.40625 56.890625 
Q 59.421875 61.53125 53.78125 63.8125 
Q 48.140625 66.109375 41.796875 66.109375 
Q 29.296875 66.109375 22.65625 58.46875 
Q 16.015625 50.828125 16.015625 36.375 
Q 16.015625 21.96875 22.65625 14.328125 
Q 29.296875 6.6875 41.796875 6.6875 
Q 48.140625 6.6875 53.78125 8.984375 
Q 59.421875 11.28125 64.40625 15.921875 
L 64.40625 5.609375 
Q 59.234375 2.09375 53.4375 0.328125 
Q 47.65625 -1.421875 41.21875 -1.421875 
Q 24.65625 -1.421875 15.125 8.703125 
Q 5.609375 18.84375 5.609375 36.375 
Q 5.609375 53.953125 15.125 64.078125 
Q 24.65625 74.21875 41.21875 74.21875 
Q 47.75 74.21875 53.53125 72.484375 
Q 59.328125 70.75 64.40625 67.28125 
" id="BitstreamVeraSans-Roman-43"/>
      <path d="M 4.890625 31.390625 
L 31.203125 31.390625 
L 31.203125 23.390625 
L 4.890625 23.390625 
z
" id="BitstreamVeraSans-Roman-2d"/>
      <path d="M 10.6875 12.40625 
L 21 12.40625 
L 21 0 
L 10.6875 0 
z
" id="BitstreamVeraSans-Roman-2e"/>
     </defs>
     <g style="fill:#262626;" transform="translate(1908.60361837 101.323798125)scale(0.09996 -0.09996)">
      <use xlink:href="#BitstreamVeraSans-Roman-43"/>
      <use x="69.82421875" xlink:href="#BitstreamVeraSans-Roman-54"/>
      <use x="130.767578125" xlink:href="#BitstreamVeraSans-Roman-2d"/>
      <use x="166.8515625" xlink:href="#BitstreamVeraSans-Roman-31"/>
      <use x="230.474609375" xlink:href="#BitstreamVeraSans-Roman-30"/>
      <use x="294.09765625" xlink:href="#BitstreamVeraSans-Roman-2e"/>
      <use x="325.884765625" xlink:href="#BitstreamVeraSans-Roman-31"/>
     </g>
    </g>
    <g id="line2d_59">
     <path d="M 1880.614818 112.497452 
L 1900.606818 112.497452 
" style="fill:none;stroke:#d95f02;stroke-linecap:round;"/>
    </g>
    <g id="line2d_60"/>
    <g id="text_11">
     <!-- CT-10.1 -->
     <g style="fill:#262626;" transform="translate(1908.60361837 115.996051875)scale(0.09996 -0.09996)">
      <use xlink:href="#BitstreamVeraSans-Roman-43"/>
      <use x="69.82421875" xlink:href="#BitstreamVeraSans-Roman-54"/>
      <use x="130.767578125" xlink:href="#BitstreamVeraSans-Roman-2d"/>
      <use x="166.8515625" xlink:href="#BitstreamVeraSans-Roman-31"/>
      <use x="230.474609375" xlink:href="#BitstreamVeraSans-Roman-30"/>
      <use x="294.09765625" xlink:href="#BitstreamVeraSans-Roman-2e"/>
      <use x="325.884765625" xlink:href="#BitstreamVeraSans-Roman-31"/>
     </g>
    </g>
    <g id="line2d_61">
     <path d="M 1880.614818 127.169706 
L 1900.606818 127.169706 
" style="fill:none;stroke:#7570b3;stroke-linecap:round;"/>
    </g>
    <g id="line2d_62"/>
    <g id="text_12">
     <!-- CT-10.1-fq -->
     <defs>
      <path d="M 37.109375 75.984375 
L 37.109375 68.5 
L 28.515625 68.5 
Q 23.6875 68.5 21.796875 66.546875 
Q 19.921875 64.59375 19.921875 59.515625 
L 19.921875 54.6875 
L 34.71875 54.6875 
L 34.71875 47.703125 
L 19.921875 47.703125 
L 19.921875 0 
L 10.890625 0 
L 10.890625 47.703125 
L 2.296875 47.703125 
L 2.296875 54.6875 
L 10.890625 54.6875 
L 10.890625 58.5 
Q 10.890625 67.625 15.140625 71.796875 
Q 19.390625 75.984375 28.609375 75.984375 
z
" id="BitstreamVeraSans-Roman-66"/>
      <path d="M 14.796875 27.296875 
Q 14.796875 17.390625 18.875 11.75 
Q 22.953125 6.109375 30.078125 6.109375 
Q 37.203125 6.109375 41.296875 11.75 
Q 45.40625 17.390625 45.40625 27.296875 
Q 45.40625 37.203125 41.296875 42.84375 
Q 37.203125 48.484375 30.078125 48.484375 
Q 22.953125 48.484375 18.875 42.84375 
Q 14.796875 37.203125 14.796875 27.296875 
M 45.40625 8.203125 
Q 42.578125 3.328125 38.25 0.953125 
Q 33.9375 -1.421875 27.875 -1.421875 
Q 17.96875 -1.421875 11.734375 6.484375 
Q 5.515625 14.40625 5.515625 27.296875 
Q 5.515625 40.1875 11.734375 48.09375 
Q 17.96875 56 27.875 56 
Q 33.9375 56 38.25 53.625 
Q 42.578125 51.265625 45.40625 46.390625 
L 45.40625 54.6875 
L 54.390625 54.6875 
L 54.390625 -20.796875 
L 45.40625 -20.796875 
z
" id="BitstreamVeraSans-Roman-71"/>
     </defs>
     <g style="fill:#262626;" transform="translate(1908.60361837 130.668305625)scale(0.09996 -0.09996)">
      <use xlink:href="#BitstreamVeraSans-Roman-43"/>
      <use x="69.82421875" xlink:href="#BitstreamVeraSans-Roman-54"/>
      <use x="130.767578125" xlink:href="#BitstreamVeraSans-Roman-2d"/>
      <use x="166.8515625" xlink:href="#BitstreamVeraSans-Roman-31"/>
      <use x="230.474609375" xlink:href="#BitstreamVeraSans-Roman-30"/>
      <use x="294.09765625" xlink:href="#BitstreamVeraSans-Roman-2e"/>
      <use x="325.884765625" xlink:href="#BitstreamVeraSans-Roman-31"/>
      <use x="389.5078125" xlink:href="#BitstreamVeraSans-Roman-2d"/>
      <use x="425.591796875" xlink:href="#BitstreamVeraSans-Roman-66"/>
      <use x="460.796875" xlink:href="#BitstreamVeraSans-Roman-71"/>
     </g>
    </g>
    <g id="line2d_63">
     <path d="M 1880.614818 141.841959 
L 1900.606818 141.841959 
" style="fill:none;stroke:#e7298a;stroke-linecap:round;"/>
    </g>
    <g id="line2d_64"/>
    <g id="text_13">
     <!-- CT-10.1 -->
     <g style="fill:#262626;" transform="translate(1908.60361837 145.340559375)scale(0.09996 -0.09996)">
      <use xlink:href="#BitstreamVeraSans-Roman-43"/>
      <use x="69.82421875" xlink:href="#BitstreamVeraSans-Roman-54"/>
      <use x="130.767578125" xlink:href="#BitstreamVeraSans-Roman-2d"/>
      <use x="166.8515625" xlink:href="#BitstreamVeraSans-Roman-31"/>
      <use x="230.474609375" xlink:href="#BitstreamVeraSans-Roman-30"/>
      <use x="294.09765625" xlink:href="#BitstreamVeraSans-Roman-2e"/>
      <use x="325.884765625" xlink:href="#BitstreamVeraSans-Roman-31"/>
     </g>
    </g>
   </g>
  </g>
  <g id="axes_2">
   <g id="matplotlib.axis_3">
    <g id="ytick_24">
     <g id="line2d_65">
      <g>
       <use style="fill:#262626;stroke:#262626;stroke-width:0.5;" x="1715.4734625" xlink:href="#m444513b87b" y="803.962577366"/>
      </g>
     </g>
     <g id="text_14">
      <!-- 0 -->
      <g style="fill:#262626;" transform="translate(1719.4734625 807.273827366)scale(0.12 -0.12)">
       <use xlink:href="#BitstreamVeraSans-Roman-30"/>
      </g>
     </g>
    </g>
    <g id="ytick_25">
     <g id="line2d_66">
      <g>
       <use style="fill:#262626;stroke:#262626;stroke-width:0.5;" x="1715.4734625" xlink:href="#m444513b87b" y="604.539907386"/>
      </g>
     </g>
     <g id="text_15">
      <!-- 50 -->
      <defs>
       <path d="M 10.796875 72.90625 
L 49.515625 72.90625 
L 49.515625 64.59375 
L 19.828125 64.59375 
L 19.828125 46.734375 
Q 21.96875 47.46875 24.109375 47.828125 
Q 26.265625 48.1875 28.421875 48.1875 
Q 40.625 48.1875 47.75 41.5 
Q 54.890625 34.8125 54.890625 23.390625 
Q 54.890625 11.625 47.5625 5.09375 
Q 40.234375 -1.421875 26.90625 -1.421875 
Q 22.3125 -1.421875 17.546875 -0.640625 
Q 12.796875 0.140625 7.71875 1.703125 
L 7.71875 11.625 
Q 12.109375 9.234375 16.796875 8.0625 
Q 21.484375 6.890625 26.703125 6.890625 
Q 35.15625 6.890625 40.078125 11.328125 
Q 45.015625 15.765625 45.015625 23.390625 
Q 45.015625 31 40.078125 35.4375 
Q 35.15625 39.890625 26.703125 39.890625 
Q 22.75 39.890625 18.8125 39.015625 
Q 14.890625 38.140625 10.796875 36.28125 
z
" id="BitstreamVeraSans-Roman-35"/>
      </defs>
      <g style="fill:#262626;" transform="translate(1719.4734625 607.851157386)scale(0.12 -0.12)">
       <use xlink:href="#BitstreamVeraSans-Roman-35"/>
       <use x="63.623046875" xlink:href="#BitstreamVeraSans-Roman-30"/>
      </g>
     </g>
    </g>
    <g id="ytick_26">
     <g id="line2d_67">
      <g>
       <use style="fill:#262626;stroke:#262626;stroke-width:0.5;" x="1715.4734625" xlink:href="#m444513b87b" y="405.117237407"/>
      </g>
     </g>
     <g id="text_16">
      <!-- 100 -->
      <g style="fill:#262626;" transform="translate(1719.4734625 408.428487407)scale(0.12 -0.12)">
       <use xlink:href="#BitstreamVeraSans-Roman-31"/>
       <use x="63.623046875" xlink:href="#BitstreamVeraSans-Roman-30"/>
       <use x="127.24609375" xlink:href="#BitstreamVeraSans-Roman-30"/>
      </g>
     </g>
    </g>
    <g id="ytick_27">
     <g id="line2d_68">
      <g>
       <use style="fill:#262626;stroke:#262626;stroke-width:0.5;" x="1715.4734625" xlink:href="#m444513b87b" y="205.694567427"/>
      </g>
     </g>
     <g id="text_17">
      <!-- 150 -->
      <g style="fill:#262626;" transform="translate(1719.4734625 209.005817427)scale(0.12 -0.12)">
       <use xlink:href="#BitstreamVeraSans-Roman-31"/>
       <use x="63.623046875" xlink:href="#BitstreamVeraSans-Roman-35"/>
       <use x="127.24609375" xlink:href="#BitstreamVeraSans-Roman-30"/>
      </g>
     </g>
    </g>
    <g id="ytick_28">
     <g id="line2d_69">
      <g>
       <use style="fill:#262626;stroke:#262626;stroke-width:0.5;" x="1715.4734625" xlink:href="#m444513b87b" y="764.07804337"/>
      </g>
     </g>
    </g>
    <g id="ytick_29">
     <g id="line2d_70">
      <g>
       <use style="fill:#262626;stroke:#262626;stroke-width:0.5;" x="1715.4734625" xlink:href="#m444513b87b" y="724.193509374"/>
      </g>
     </g>
    </g>
    <g id="ytick_30">
     <g id="line2d_71">
      <g>
       <use style="fill:#262626;stroke:#262626;stroke-width:0.5;" x="1715.4734625" xlink:href="#m444513b87b" y="684.308975378"/>
      </g>
     </g>
    </g>
    <g id="ytick_31">
     <g id="line2d_72">
      <g>
       <use style="fill:#262626;stroke:#262626;stroke-width:0.5;" x="1715.4734625" xlink:href="#m444513b87b" y="644.424441382"/>
      </g>
     </g>
    </g>
    <g id="ytick_32">
     <g id="line2d_73">
      <g>
       <use style="fill:#262626;stroke:#262626;stroke-width:0.5;" x="1715.4734625" xlink:href="#m444513b87b" y="564.65537339"/>
      </g>
     </g>
    </g>
    <g id="ytick_33">
     <g id="line2d_74">
      <g>
       <use style="fill:#262626;stroke:#262626;stroke-width:0.5;" x="1715.4734625" xlink:href="#m444513b87b" y="524.770839394"/>
      </g>
     </g>
    </g>
    <g id="ytick_34">
     <g id="line2d_75">
      <g>
       <use style="fill:#262626;stroke:#262626;stroke-width:0.5;" x="1715.4734625" xlink:href="#m444513b87b" y="484.886305398"/>
      </g>
     </g>
    </g>
    <g id="ytick_35">
     <g id="line2d_76">
      <g>
       <use style="fill:#262626;stroke:#262626;stroke-width:0.5;" x="1715.4734625" xlink:href="#m444513b87b" y="445.001771403"/>
      </g>
     </g>
    </g>
    <g id="ytick_36">
     <g id="line2d_77">
      <g>
       <use style="fill:#262626;stroke:#262626;stroke-width:0.5;" x="1715.4734625" xlink:href="#m444513b87b" y="365.232703411"/>
      </g>
     </g>
    </g>
    <g id="ytick_37">
     <g id="line2d_78">
      <g>
       <use style="fill:#262626;stroke:#262626;stroke-width:0.5;" x="1715.4734625" xlink:href="#m444513b87b" y="325.348169415"/>
      </g>
     </g>
    </g>
    <g id="ytick_38">
     <g id="line2d_79">
      <g>
       <use style="fill:#262626;stroke:#262626;stroke-width:0.5;" x="1715.4734625" xlink:href="#m444513b87b" y="285.463635419"/>
      </g>
     </g>
    </g>
    <g id="ytick_39">
     <g id="line2d_80">
      <g>
       <use style="fill:#262626;stroke:#262626;stroke-width:0.5;" x="1715.4734625" xlink:href="#m444513b87b" y="245.579101423"/>
      </g>
     </g>
    </g>
    <g id="ytick_40">
     <g id="line2d_81">
      <g>
       <use style="fill:#262626;stroke:#262626;stroke-width:0.5;" x="1715.4734625" xlink:href="#m444513b87b" y="165.810033431"/>
      </g>
     </g>
    </g>
    <g id="ytick_41">
     <g id="line2d_82">
      <g>
       <use style="fill:#262626;stroke:#262626;stroke-width:0.5;" x="1715.4734625" xlink:href="#m444513b87b" y="125.925499436"/>
      </g>
     </g>
    </g>
    <g id="text_18">
     <!-- ms -->
     <g style="fill:#262626;" transform="translate(1756.4965875 457.62)rotate(-90.0)scale(0.12 -0.12)">
      <use xlink:href="#BitstreamVeraSans-Roman-6d"/>
      <use x="97.412109375" xlink:href="#BitstreamVeraSans-Roman-73"/>
     </g>
    </g>
   </g>
   <g id="line2d_83">
    <path clip-path="url(#p76fad0d343)" d="M 1096.538018 712.756857 
L 1162.460137 712.756857 
L 1162.460137 627.988022 
L 1096.538018 627.988022 
L 1096.538018 712.756857 
" style="fill:none;stroke:#1b9e77;stroke-linecap:round;"/>
   </g>
   <g id="line2d_84">
    <path clip-path="url(#p76fad0d343)" d="M 1129.499077 712.756857 
L 1129.499077 799.084545 
" style="fill:none;stroke:#1b9e77;stroke-dasharray:6.000000,6.000000;stroke-dashoffset:0.0;"/>
   </g>
   <g id="line2d_85">
    <path clip-path="url(#p76fad0d343)" d="M 1129.499077 627.988022 
L 1129.499077 512.19586 
" style="fill:none;stroke:#1b9e77;stroke-dasharray:6.000000,6.000000;stroke-dashoffset:0.0;"/>
   </g>
   <g id="line2d_86">
    <path clip-path="url(#p76fad0d343)" d="M 1113.018548 799.084545 
L 1145.979607 799.084545 
" style="fill:none;stroke:#1b9e77;stroke-linecap:round;"/>
   </g>
   <g id="line2d_87">
    <path clip-path="url(#p76fad0d343)" d="M 1113.018548 512.19586 
L 1145.979607 512.19586 
" style="fill:none;stroke:#1b9e77;stroke-linecap:round;"/>
   </g>
   <g id="line2d_88">
    <path clip-path="url(#p76fad0d343)" d="M 1096.538018 671.687647 
L 1162.460137 671.687647 
" style="fill:none;stroke:#ff0000;stroke-linecap:round;"/>
   </g>
   <g id="line2d_89">
    <g clip-path="url(#p76fad0d343)">
     <use style="fill:#0000ff;stroke:#1b9e77;stroke-width:0.5;" x="1129.4990775" xlink:href="#me071637825" y="480.968527743"/>
     <use style="fill:#0000ff;stroke:#1b9e77;stroke-width:0.5;" x="1129.4990775" xlink:href="#me071637825" y="488.0513182"/>
     <use style="fill:#0000ff;stroke:#1b9e77;stroke-width:0.5;" x="1129.4990775" xlink:href="#me071637825" y="490.767690707"/>
    </g>
   </g>
   <g id="line2d_90">
    <path clip-path="url(#p76fad0d343)" d="M 1243.031615 736.191609 
L 1308.953733 736.191609 
L 1308.953733 660.985625 
L 1243.031615 660.985625 
L 1243.031615 736.191609 
" style="fill:none;stroke:#d95f02;stroke-linecap:round;"/>
   </g>
   <g id="line2d_91">
    <path clip-path="url(#p76fad0d343)" d="M 1275.992674 736.191609 
L 1275.992674 800.412831 
" style="fill:none;stroke:#d95f02;stroke-dasharray:6.000000,6.000000;stroke-dashoffset:0.0;"/>
   </g>
   <g id="line2d_92">
    <path clip-path="url(#p76fad0d343)" d="M 1275.992674 660.985625 
L 1275.992674 549.769809 
" style="fill:none;stroke:#d95f02;stroke-dasharray:6.000000,6.000000;stroke-dashoffset:0.0;"/>
   </g>
   <g id="line2d_93">
    <path clip-path="url(#p76fad0d343)" d="M 1259.512144 800.412831 
L 1292.473203 800.412831 
" style="fill:none;stroke:#d95f02;stroke-linecap:round;"/>
   </g>
   <g id="line2d_94">
    <path clip-path="url(#p76fad0d343)" d="M 1259.512144 549.769809 
L 1292.473203 549.769809 
" style="fill:none;stroke:#d95f02;stroke-linecap:round;"/>
   </g>
   <g id="line2d_95">
    <path clip-path="url(#p76fad0d343)" d="M 1243.031615 698.057735 
L 1308.953733 698.057735 
" style="fill:none;stroke:#ff0000;stroke-linecap:round;"/>
   </g>
   <g id="line2d_96">
    <g clip-path="url(#p76fad0d343)">
     <use style="fill:#0000ff;stroke:#d95f02;stroke-width:0.5;" x="1275.99267375" xlink:href="#md225b7ab51" y="535.975023203"/>
     <use style="fill:#0000ff;stroke:#d95f02;stroke-width:0.5;" x="1275.99267375" xlink:href="#md225b7ab51" y="525.361755784"/>
     <use style="fill:#0000ff;stroke:#d95f02;stroke-width:0.5;" x="1275.99267375" xlink:href="#md225b7ab51" y="415.159178781"/>
     <use style="fill:#0000ff;stroke:#d95f02;stroke-width:0.5;" x="1275.99267375" xlink:href="#md225b7ab51" y="96.7676470588"/>
     <use style="fill:#0000ff;stroke:#d95f02;stroke-width:0.5;" x="1275.99267375" xlink:href="#md225b7ab51" y="498.859500037"/>
     <use style="fill:#0000ff;stroke:#d95f02;stroke-width:0.5;" x="1275.99267375" xlink:href="#md225b7ab51" y="291.536387816"/>
     <use style="fill:#0000ff;stroke:#d95f02;stroke-width:0.5;" x="1275.99267375" xlink:href="#md225b7ab51" y="253.120285985"/>
     <use style="fill:#0000ff;stroke:#d95f02;stroke-width:0.5;" x="1275.99267375" xlink:href="#md225b7ab51" y="252.695451422"/>
     <use style="fill:#0000ff;stroke:#d95f02;stroke-width:0.5;" x="1275.99267375" xlink:href="#md225b7ab51" y="540.135517974"/>
     <use style="fill:#0000ff;stroke:#d95f02;stroke-width:0.5;" x="1275.99267375" xlink:href="#md225b7ab51" y="538.673754312"/>
     <use style="fill:#0000ff;stroke:#d95f02;stroke-width:0.5;" x="1275.99267375" xlink:href="#md225b7ab51" y="475.254111196"/>
    </g>
   </g>
   <g id="line2d_97">
    <path clip-path="url(#p76fad0d343)" d="M 1389.525211 735.332127 
L 1455.447329 735.332127 
L 1455.447329 677.145588 
L 1389.525211 677.145588 
L 1389.525211 735.332127 
" style="fill:none;stroke:#7570b3;stroke-linecap:round;"/>
   </g>
   <g id="line2d_98">
    <path clip-path="url(#p76fad0d343)" d="M 1422.48627 735.332127 
L 1422.48627 800.532353 
" style="fill:none;stroke:#7570b3;stroke-dasharray:6.000000,6.000000;stroke-dashoffset:0.0;"/>
   </g>
   <g id="line2d_99">
    <path clip-path="url(#p76fad0d343)" d="M 1422.48627 677.145588 
L 1422.48627 590.70436 
" style="fill:none;stroke:#7570b3;stroke-dasharray:6.000000,6.000000;stroke-dashoffset:0.0;"/>
   </g>
   <g id="line2d_100">
    <path clip-path="url(#p76fad0d343)" d="M 1406.00574 800.532353 
L 1438.9668 800.532353 
" style="fill:none;stroke:#7570b3;stroke-linecap:round;"/>
   </g>
   <g id="line2d_101">
    <path clip-path="url(#p76fad0d343)" d="M 1406.00574 590.70436 
L 1438.9668 590.70436 
" style="fill:none;stroke:#7570b3;stroke-linecap:round;"/>
   </g>
   <g id="line2d_102">
    <path clip-path="url(#p76fad0d343)" d="M 1389.525211 710.537341 
L 1455.447329 710.537341 
" style="fill:none;stroke:#ff0000;stroke-linecap:round;"/>
   </g>
   <g id="line2d_103">
    <g clip-path="url(#p76fad0d343)">
     <use style="fill:#0000ff;stroke:#7570b3;stroke-width:0.5;" x="1422.48627" xlink:href="#m76278fc3a6" y="574.434685049"/>
     <use style="fill:#0000ff;stroke:#7570b3;stroke-width:0.5;" x="1422.48627" xlink:href="#m76278fc3a6" y="518.80312905"/>
     <use style="fill:#0000ff;stroke:#7570b3;stroke-width:0.5;" x="1422.48627" xlink:href="#m76278fc3a6" y="442.288415129"/>
     <use style="fill:#0000ff;stroke:#7570b3;stroke-width:0.5;" x="1422.48627" xlink:href="#m76278fc3a6" y="562.143167878"/>
     <use style="fill:#0000ff;stroke:#7570b3;stroke-width:0.5;" x="1422.48627" xlink:href="#m76278fc3a6" y="558.763919949"/>
     <use style="fill:#0000ff;stroke:#7570b3;stroke-width:0.5;" x="1422.48627" xlink:href="#m76278fc3a6" y="554.996614454"/>
     <use style="fill:#0000ff;stroke:#7570b3;stroke-width:0.5;" x="1422.48627" xlink:href="#m76278fc3a6" y="522.738774014"/>
     <use style="fill:#0000ff;stroke:#7570b3;stroke-width:0.5;" x="1422.48627" xlink:href="#m76278fc3a6" y="587.006299188"/>
     <use style="fill:#0000ff;stroke:#7570b3;stroke-width:0.5;" x="1422.48627" xlink:href="#m76278fc3a6" y="565.928477833"/>
    </g>
   </g>
   <g id="line2d_104">
    <path clip-path="url(#p76fad0d343)" d="M 1536.018807 728.457035 
L 1601.940925 728.457035 
L 1601.940925 655.210783 
L 1536.018807 655.210783 
L 1536.018807 728.457035 
" style="fill:none;stroke:#e7298a;stroke-linecap:round;"/>
   </g>
   <g id="line2d_105">
    <path clip-path="url(#p76fad0d343)" d="M 1568.979866 728.457035 
L 1568.979866 799.415588 
" style="fill:none;stroke:#e7298a;stroke-dasharray:6.000000,6.000000;stroke-dashoffset:0.0;"/>
   </g>
   <g id="line2d_106">
    <path clip-path="url(#p76fad0d343)" d="M 1568.979866 655.210783 
L 1568.979866 564.677075 
" style="fill:none;stroke:#e7298a;stroke-dasharray:6.000000,6.000000;stroke-dashoffset:0.0;"/>
   </g>
   <g id="line2d_107">
    <path clip-path="url(#p76fad0d343)" d="M 1552.499337 799.415588 
L 1585.460396 799.415588 
" style="fill:none;stroke:#e7298a;stroke-linecap:round;"/>
   </g>
   <g id="line2d_108">
    <path clip-path="url(#p76fad0d343)" d="M 1552.499337 564.677075 
L 1585.460396 564.677075 
" style="fill:none;stroke:#e7298a;stroke-linecap:round;"/>
   </g>
   <g id="line2d_109">
    <path clip-path="url(#p76fad0d343)" d="M 1536.018807 701.095223 
L 1601.940925 701.095223 
" style="fill:none;stroke:#ff0000;stroke-linecap:round;"/>
   </g>
   <g id="line2d_110">
    <g clip-path="url(#p76fad0d343)">
     <use style="fill:#0000ff;stroke:#e7298a;stroke-width:0.5;" x="1568.97986625" xlink:href="#m2b1a4750df" y="535.242970757"/>
     <use style="fill:#0000ff;stroke:#e7298a;stroke-width:0.5;" x="1568.97986625" xlink:href="#m2b1a4750df" y="531.138548153"/>
     <use style="fill:#0000ff;stroke:#e7298a;stroke-width:0.5;" x="1568.97986625" xlink:href="#m2b1a4750df" y="470.306578492"/>
     <use style="fill:#0000ff;stroke:#e7298a;stroke-width:0.5;" x="1568.97986625" xlink:href="#m2b1a4750df" y="113.348328381"/>
     <use style="fill:#0000ff;stroke:#e7298a;stroke-width:0.5;" x="1568.97986625" xlink:href="#m2b1a4750df" y="463.068810344"/>
     <use style="fill:#0000ff;stroke:#e7298a;stroke-width:0.5;" x="1568.97986625" xlink:href="#m2b1a4750df" y="225.760309418"/>
     <use style="fill:#0000ff;stroke:#e7298a;stroke-width:0.5;" x="1568.97986625" xlink:href="#m2b1a4750df" y="457.939619658"/>
     <use style="fill:#0000ff;stroke:#e7298a;stroke-width:0.5;" x="1568.97986625" xlink:href="#m2b1a4750df" y="332.633659509"/>
     <use style="fill:#0000ff;stroke:#e7298a;stroke-width:0.5;" x="1568.97986625" xlink:href="#m2b1a4750df" y="540.210748074"/>
    </g>
   </g>
   <g id="line2d_111">
    <path clip-path="url(#p76fad0d343)" d="M 1715.473462 807.57 
L 1715.473462 89.73 
" style="fill:none;stroke:#000000;stroke-dasharray:1.000000,3.000000;stroke-dashoffset:0.0;stroke-width:0.5;"/>
   </g>
  </g>
  <g id="text_19">
   <!-- TCP download - 12 streams w/ping -->
   <defs>
    <path d="M 56.203125 29.59375 
L 56.203125 25.203125 
L 14.890625 25.203125 
Q 15.484375 15.921875 20.484375 11.0625 
Q 25.484375 6.203125 34.421875 6.203125 
Q 39.59375 6.203125 44.453125 7.46875 
Q 49.3125 8.734375 54.109375 11.28125 
L 54.109375 2.78125 
Q 49.265625 0.734375 44.1875 -0.34375 
Q 39.109375 -1.421875 33.890625 -1.421875 
Q 20.796875 -1.421875 13.15625 6.1875 
Q 5.515625 13.8125 5.515625 26.8125 
Q 5.515625 40.234375 12.765625 48.109375 
Q 20.015625 56 32.328125 56 
Q 43.359375 56 49.78125 48.890625 
Q 56.203125 41.796875 56.203125 29.59375 
M 47.21875 32.234375 
Q 47.125 39.59375 43.09375 43.984375 
Q 39.0625 48.390625 32.421875 48.390625 
Q 24.90625 48.390625 20.390625 44.140625 
Q 15.875 39.890625 15.1875 32.171875 
z
" id="BitstreamVeraSans-Roman-65"/>
    <path d="M 41.109375 46.296875 
Q 39.59375 47.171875 37.8125 47.578125 
Q 36.03125 48 33.890625 48 
Q 26.265625 48 22.1875 43.046875 
Q 18.109375 38.09375 18.109375 28.8125 
L 18.109375 0 
L 9.078125 0 
L 9.078125 54.6875 
L 18.109375 54.6875 
L 18.109375 46.1875 
Q 20.953125 51.171875 25.484375 53.578125 
Q 30.03125 56 36.53125 56 
Q 37.453125 56 38.578125 55.875 
Q 39.703125 55.765625 41.0625 55.515625 
z
" id="BitstreamVeraSans-Roman-72"/>
    <path d="M 18.109375 8.203125 
L 18.109375 -20.796875 
L 9.078125 -20.796875 
L 9.078125 54.6875 
L 18.109375 54.6875 
L 18.109375 46.390625 
Q 20.953125 51.265625 25.265625 53.625 
Q 29.59375 56 35.59375 56 
Q 45.5625 56 51.78125 48.09375 
Q 58.015625 40.1875 58.015625 27.296875 
Q 58.015625 14.40625 51.78125 6.484375 
Q 45.5625 -1.421875 35.59375 -1.421875 
Q 29.59375 -1.421875 25.265625 0.953125 
Q 20.953125 3.328125 18.109375 8.203125 
M 48.6875 27.296875 
Q 48.6875 37.203125 44.609375 42.84375 
Q 40.53125 48.484375 33.40625 48.484375 
Q 26.265625 48.484375 22.1875 42.84375 
Q 18.109375 37.203125 18.109375 27.296875 
Q 18.109375 17.390625 22.1875 11.75 
Q 26.265625 6.109375 33.40625 6.109375 
Q 40.53125 6.109375 44.609375 11.75 
Q 48.6875 17.390625 48.6875 27.296875 
" id="BitstreamVeraSans-Roman-70"/>
   </defs>
   <g style="fill:#262626;" transform="translate(880.68578125 10.6378125)scale(0.14 -0.14)">
    <use xlink:href="#BitstreamVeraSans-Roman-54"/>
    <use x="61.005859375" xlink:href="#BitstreamVeraSans-Roman-43"/>
    <use x="130.830078125" xlink:href="#BitstreamVeraSans-Roman-50"/>
    <use x="191.1328125" xlink:href="#BitstreamVeraSans-Roman-20"/>
    <use x="222.919921875" xlink:href="#BitstreamVeraSans-Roman-64"/>
    <use x="286.396484375" xlink:href="#BitstreamVeraSans-Roman-6f"/>
    <use x="347.578125" xlink:href="#BitstreamVeraSans-Roman-77"/>
    <use x="429.365234375" xlink:href="#BitstreamVeraSans-Roman-6e"/>
    <use x="492.744140625" xlink:href="#BitstreamVeraSans-Roman-6c"/>
    <use x="520.52734375" xlink:href="#BitstreamVeraSans-Roman-6f"/>
    <use x="581.708984375" xlink:href="#BitstreamVeraSans-Roman-61"/>
    <use x="642.98828125" xlink:href="#BitstreamVeraSans-Roman-64"/>
    <use x="706.46484375" xlink:href="#BitstreamVeraSans-Roman-20"/>
    <use x="738.251953125" xlink:href="#BitstreamVeraSans-Roman-2d"/>
    <use x="774.3359375" xlink:href="#BitstreamVeraSans-Roman-20"/>
    <use x="806.123046875" xlink:href="#BitstreamVeraSans-Roman-31"/>
    <use x="869.74609375" xlink:href="#BitstreamVeraSans-Roman-32"/>
    <use x="933.369140625" xlink:href="#BitstreamVeraSans-Roman-20"/>
    <use x="965.15625" xlink:href="#BitstreamVeraSans-Roman-73"/>
    <use x="1017.25585938" xlink:href="#BitstreamVeraSans-Roman-74"/>
    <use x="1056.46484375" xlink:href="#BitstreamVeraSans-Roman-72"/>
    <use x="1097.546875" xlink:href="#BitstreamVeraSans-Roman-65"/>
    <use x="1159.0703125" xlink:href="#BitstreamVeraSans-Roman-61"/>
    <use x="1220.34960938" xlink:href="#BitstreamVeraSans-Roman-6d"/>
    <use x="1317.76171875" xlink:href="#BitstreamVeraSans-Roman-73"/>
    <use x="1369.86132812" xlink:href="#BitstreamVeraSans-Roman-20"/>
    <use x="1401.6484375" xlink:href="#BitstreamVeraSans-Roman-77"/>
    <use x="1483.43554688" xlink:href="#BitstreamVeraSans-Roman-2f"/>
    <use x="1517.12695312" xlink:href="#BitstreamVeraSans-Roman-70"/>
    <use x="1580.60351562" xlink:href="#BitstreamVeraSans-Roman-69"/>
    <use x="1608.38671875" xlink:href="#BitstreamVeraSans-Roman-6e"/>
    <use x="1671.765625" xlink:href="#BitstreamVeraSans-Roman-67"/>
   </g>
   <!-- Box plot of totals -->
   <defs>
    <path d="M 19.671875 34.8125 
L 19.671875 8.109375 
L 35.5 8.109375 
Q 43.453125 8.109375 47.28125 11.40625 
Q 51.125 14.703125 51.125 21.484375 
Q 51.125 28.328125 47.28125 31.5625 
Q 43.453125 34.8125 35.5 34.8125 
z
M 19.671875 64.796875 
L 19.671875 42.828125 
L 34.28125 42.828125 
Q 41.5 42.828125 45.03125 45.53125 
Q 48.578125 48.25 48.578125 53.8125 
Q 48.578125 59.328125 45.03125 62.0625 
Q 41.5 64.796875 34.28125 64.796875 
z
M 9.8125 72.90625 
L 35.015625 72.90625 
Q 46.296875 72.90625 52.390625 68.21875 
Q 58.5 63.53125 58.5 54.890625 
Q 58.5 48.1875 55.375 44.234375 
Q 52.25 40.28125 46.1875 39.3125 
Q 53.46875 37.75 57.5 32.78125 
Q 61.53125 27.828125 61.53125 20.40625 
Q 61.53125 10.640625 54.890625 5.3125 
Q 48.25 0 35.984375 0 
L 9.8125 0 
z
" id="BitstreamVeraSans-Roman-42"/>
    <path d="M 54.890625 54.6875 
L 35.109375 28.078125 
L 55.90625 0 
L 45.3125 0 
L 29.390625 21.484375 
L 13.484375 0 
L 2.875 0 
L 24.125 28.609375 
L 4.6875 54.6875 
L 15.28125 54.6875 
L 29.78125 35.203125 
L 44.28125 54.6875 
z
" id="BitstreamVeraSans-Roman-78"/>
   </defs>
   <g style="fill:#262626;" transform="translate(942.43453125 26.31475)scale(0.14 -0.14)">
    <use xlink:href="#BitstreamVeraSans-Roman-42"/>
    <use x="68.603515625" xlink:href="#BitstreamVeraSans-Roman-6f"/>
    <use x="129.73828125" xlink:href="#BitstreamVeraSans-Roman-78"/>
    <use x="188.91796875" xlink:href="#BitstreamVeraSans-Roman-20"/>
    <use x="220.705078125" xlink:href="#BitstreamVeraSans-Roman-70"/>
    <use x="284.181640625" xlink:href="#BitstreamVeraSans-Roman-6c"/>
    <use x="311.96484375" xlink:href="#BitstreamVeraSans-Roman-6f"/>
    <use x="373.146484375" xlink:href="#BitstreamVeraSans-Roman-74"/>
    <use x="412.35546875" xlink:href="#BitstreamVeraSans-Roman-20"/>
    <use x="444.142578125" xlink:href="#BitstreamVeraSans-Roman-6f"/>
    <use x="505.32421875" xlink:href="#BitstreamVeraSans-Roman-66"/>
    <use x="540.529296875" xlink:href="#BitstreamVeraSans-Roman-20"/>
    <use x="572.31640625" xlink:href="#BitstreamVeraSans-Roman-74"/>
    <use x="611.525390625" xlink:href="#BitstreamVeraSans-Roman-6f"/>
    <use x="672.70703125" xlink:href="#BitstreamVeraSans-Roman-74"/>
    <use x="711.916015625" xlink:href="#BitstreamVeraSans-Roman-61"/>
    <use x="773.1953125" xlink:href="#BitstreamVeraSans-Roman-6c"/>
    <use x="800.978515625" xlink:href="#BitstreamVeraSans-Roman-73"/>
   </g>
  </g>
  <g id="text_20">
   <!-- Local/remote: dancer/172.26.16.130 - Time: 2016-05-04T21:38:40.007505 - Length/step: 60s/0.20s -->
   <defs>
    <path d="M 40.578125 39.3125 
Q 47.65625 37.796875 51.625 33 
Q 55.609375 28.21875 55.609375 21.1875 
Q 55.609375 10.40625 48.1875 4.484375 
Q 40.765625 -1.421875 27.09375 -1.421875 
Q 22.515625 -1.421875 17.65625 -0.515625 
Q 12.796875 0.390625 7.625 2.203125 
L 7.625 11.71875 
Q 11.71875 9.328125 16.59375 8.109375 
Q 21.484375 6.890625 26.8125 6.890625 
Q 36.078125 6.890625 40.9375 10.546875 
Q 45.796875 14.203125 45.796875 21.1875 
Q 45.796875 27.640625 41.28125 31.265625 
Q 36.765625 34.90625 28.71875 34.90625 
L 20.21875 34.90625 
L 20.21875 43.015625 
L 29.109375 43.015625 
Q 36.375 43.015625 40.234375 45.921875 
Q 44.09375 48.828125 44.09375 54.296875 
Q 44.09375 59.90625 40.109375 62.90625 
Q 36.140625 65.921875 28.71875 65.921875 
Q 24.65625 65.921875 20.015625 65.03125 
Q 15.375 64.15625 9.8125 62.3125 
L 9.8125 71.09375 
Q 15.4375 72.65625 20.34375 73.4375 
Q 25.25 74.21875 29.59375 74.21875 
Q 40.828125 74.21875 47.359375 69.109375 
Q 53.90625 64.015625 53.90625 55.328125 
Q 53.90625 49.265625 50.4375 45.09375 
Q 46.96875 40.921875 40.578125 39.3125 
" id="BitstreamVeraSans-Roman-33"/>
    <path d="M 9.8125 72.90625 
L 19.671875 72.90625 
L 19.671875 8.296875 
L 55.171875 8.296875 
L 55.171875 0 
L 9.8125 0 
z
" id="BitstreamVeraSans-Roman-4c"/>
    <path d="M 8.203125 72.90625 
L 55.078125 72.90625 
L 55.078125 68.703125 
L 28.609375 0 
L 18.3125 0 
L 43.21875 64.59375 
L 8.203125 64.59375 
z
" id="BitstreamVeraSans-Roman-37"/>
    <path d="M 11.71875 12.40625 
L 22.015625 12.40625 
L 22.015625 0 
L 11.71875 0 
z
M 11.71875 51.703125 
L 22.015625 51.703125 
L 22.015625 39.3125 
L 11.71875 39.3125 
z
" id="BitstreamVeraSans-Roman-3a"/>
    <path d="M 54.890625 33.015625 
L 54.890625 0 
L 45.90625 0 
L 45.90625 32.71875 
Q 45.90625 40.484375 42.875 44.328125 
Q 39.84375 48.1875 33.796875 48.1875 
Q 26.515625 48.1875 22.3125 43.546875 
Q 18.109375 38.921875 18.109375 30.90625 
L 18.109375 0 
L 9.078125 0 
L 9.078125 75.984375 
L 18.109375 75.984375 
L 18.109375 46.1875 
Q 21.34375 51.125 25.703125 53.5625 
Q 30.078125 56 35.796875 56 
Q 45.21875 56 50.046875 50.171875 
Q 54.890625 44.34375 54.890625 33.015625 
" id="BitstreamVeraSans-Roman-68"/>
    <path d="M 48.78125 52.59375 
L 48.78125 44.1875 
Q 44.96875 46.296875 41.140625 47.34375 
Q 37.3125 48.390625 33.40625 48.390625 
Q 24.65625 48.390625 19.8125 42.84375 
Q 14.984375 37.3125 14.984375 27.296875 
Q 14.984375 17.28125 19.8125 11.734375 
Q 24.65625 6.203125 33.40625 6.203125 
Q 37.3125 6.203125 41.140625 7.25 
Q 44.96875 8.296875 48.78125 10.40625 
L 48.78125 2.09375 
Q 45.015625 0.34375 40.984375 -0.53125 
Q 36.96875 -1.421875 32.421875 -1.421875 
Q 20.0625 -1.421875 12.78125 6.34375 
Q 5.515625 14.109375 5.515625 27.296875 
Q 5.515625 40.671875 12.859375 48.328125 
Q 20.21875 56 33.015625 56 
Q 37.15625 56 41.109375 55.140625 
Q 45.0625 54.296875 48.78125 52.59375 
" id="BitstreamVeraSans-Roman-63"/>
   </defs>
   <g style="fill:#262626;" transform="translate(802.134375 895.63625)scale(0.08 -0.08)">
    <use xlink:href="#BitstreamVeraSans-Roman-4c"/>
    <use x="55.697265625" xlink:href="#BitstreamVeraSans-Roman-6f"/>
    <use x="116.87890625" xlink:href="#BitstreamVeraSans-Roman-63"/>
    <use x="171.859375" xlink:href="#BitstreamVeraSans-Roman-61"/>
    <use x="233.138671875" xlink:href="#BitstreamVeraSans-Roman-6c"/>
    <use x="260.921875" xlink:href="#BitstreamVeraSans-Roman-2f"/>
    <use x="294.61328125" xlink:href="#BitstreamVeraSans-Roman-72"/>
    <use x="335.6953125" xlink:href="#BitstreamVeraSans-Roman-65"/>
    <use x="397.21875" xlink:href="#BitstreamVeraSans-Roman-6d"/>
    <use x="494.630859375" xlink:href="#BitstreamVeraSans-Roman-6f"/>
    <use x="555.8125" xlink:href="#BitstreamVeraSans-Roman-74"/>
    <use x="595.021484375" xlink:href="#BitstreamVeraSans-Roman-65"/>
    <use x="656.544921875" xlink:href="#BitstreamVeraSans-Roman-3a"/>
    <use x="690.236328125" xlink:href="#BitstreamVeraSans-Roman-20"/>
    <use x="722.0234375" xlink:href="#BitstreamVeraSans-Roman-64"/>
    <use x="785.5" xlink:href="#BitstreamVeraSans-Roman-61"/>
    <use x="846.779296875" xlink:href="#BitstreamVeraSans-Roman-6e"/>
    <use x="910.158203125" xlink:href="#BitstreamVeraSans-Roman-63"/>
    <use x="965.138671875" xlink:href="#BitstreamVeraSans-Roman-65"/>
    <use x="1026.66210938" xlink:href="#BitstreamVeraSans-Roman-72"/>
    <use x="1067.77539062" xlink:href="#BitstreamVeraSans-Roman-2f"/>
    <use x="1101.46679688" xlink:href="#BitstreamVeraSans-Roman-31"/>
    <use x="1165.08984375" xlink:href="#BitstreamVeraSans-Roman-37"/>
    <use x="1228.71289062" xlink:href="#BitstreamVeraSans-Roman-32"/>
    <use x="1292.3359375" xlink:href="#BitstreamVeraSans-Roman-2e"/>
    <use x="1324.12304688" xlink:href="#BitstreamVeraSans-Roman-32"/>
    <use x="1387.74609375" xlink:href="#BitstreamVeraSans-Roman-36"/>
    <use x="1451.36914062" xlink:href="#BitstreamVeraSans-Roman-2e"/>
    <use x="1483.15625" xlink:href="#BitstreamVeraSans-Roman-31"/>
    <use x="1546.77929688" xlink:href="#BitstreamVeraSans-Roman-36"/>
    <use x="1610.40234375" xlink:href="#BitstreamVeraSans-Roman-2e"/>
    <use x="1642.18945312" xlink:href="#BitstreamVeraSans-Roman-31"/>
    <use x="1705.8125" xlink:href="#BitstreamVeraSans-Roman-33"/>
    <use x="1769.43554688" xlink:href="#BitstreamVeraSans-Roman-30"/>
    <use x="1833.05859375" xlink:href="#BitstreamVeraSans-Roman-20"/>
    <use x="1864.84570312" xlink:href="#BitstreamVeraSans-Roman-2d"/>
    <use x="1900.9296875" xlink:href="#BitstreamVeraSans-Roman-20"/>
    <use x="1932.71679688" xlink:href="#BitstreamVeraSans-Roman-54"/>
    <use x="1993.75390625" xlink:href="#BitstreamVeraSans-Roman-69"/>
    <use x="2021.53710938" xlink:href="#BitstreamVeraSans-Roman-6d"/>
    <use x="2118.94921875" xlink:href="#BitstreamVeraSans-Roman-65"/>
    <use x="2180.47265625" xlink:href="#BitstreamVeraSans-Roman-3a"/>
    <use x="2214.1640625" xlink:href="#BitstreamVeraSans-Roman-20"/>
    <use x="2245.95117188" xlink:href="#BitstreamVeraSans-Roman-32"/>
    <use x="2309.57421875" xlink:href="#BitstreamVeraSans-Roman-30"/>
    <use x="2373.19726562" xlink:href="#BitstreamVeraSans-Roman-31"/>
    <use x="2436.8203125" xlink:href="#BitstreamVeraSans-Roman-36"/>
    <use x="2500.44335938" xlink:href="#BitstreamVeraSans-Roman-2d"/>
    <use x="2536.52734375" xlink:href="#BitstreamVeraSans-Roman-30"/>
    <use x="2600.15039062" xlink:href="#BitstreamVeraSans-Roman-35"/>
    <use x="2663.7734375" xlink:href="#BitstreamVeraSans-Roman-2d"/>
    <use x="2699.85742188" xlink:href="#BitstreamVeraSans-Roman-30"/>
    <use x="2763.48046875" xlink:href="#BitstreamVeraSans-Roman-34"/>
    <use x="2827.10351562" xlink:href="#BitstreamVeraSans-Roman-54"/>
    <use x="2888.1875" xlink:href="#BitstreamVeraSans-Roman-32"/>
    <use x="2951.81054688" xlink:href="#BitstreamVeraSans-Roman-31"/>
    <use x="3015.43359375" xlink:href="#BitstreamVeraSans-Roman-3a"/>
    <use x="3049.125" xlink:href="#BitstreamVeraSans-Roman-33"/>
    <use x="3112.74804688" xlink:href="#BitstreamVeraSans-Roman-38"/>
    <use x="3176.37109375" xlink:href="#BitstreamVeraSans-Roman-3a"/>
    <use x="3210.0625" xlink:href="#BitstreamVeraSans-Roman-34"/>
    <use x="3273.68554688" xlink:href="#BitstreamVeraSans-Roman-30"/>
    <use x="3337.30859375" xlink:href="#BitstreamVeraSans-Roman-2e"/>
    <use x="3369.09570312" xlink:href="#BitstreamVeraSans-Roman-30"/>
    <use x="3432.71875" xlink:href="#BitstreamVeraSans-Roman-30"/>
    <use x="3496.34179688" xlink:href="#BitstreamVeraSans-Roman-37"/>
    <use x="3559.96484375" xlink:href="#BitstreamVeraSans-Roman-35"/>
    <use x="3623.58789062" xlink:href="#BitstreamVeraSans-Roman-30"/>
    <use x="3687.2109375" xlink:href="#BitstreamVeraSans-Roman-35"/>
    <use x="3750.83398438" xlink:href="#BitstreamVeraSans-Roman-20"/>
    <use x="3782.62109375" xlink:href="#BitstreamVeraSans-Roman-2d"/>
    <use x="3818.70507812" xlink:href="#BitstreamVeraSans-Roman-20"/>
    <use x="3850.4921875" xlink:href="#BitstreamVeraSans-Roman-4c"/>
    <use x="3906.18945312" xlink:href="#BitstreamVeraSans-Roman-65"/>
    <use x="3967.71289062" xlink:href="#BitstreamVeraSans-Roman-6e"/>
    <use x="4031.09179688" xlink:href="#BitstreamVeraSans-Roman-67"/>
    <use x="4094.56835938" xlink:href="#BitstreamVeraSans-Roman-74"/>
    <use x="4133.77734375" xlink:href="#BitstreamVeraSans-Roman-68"/>
    <use x="4197.15625" xlink:href="#BitstreamVeraSans-Roman-2f"/>
    <use x="4230.84765625" xlink:href="#BitstreamVeraSans-Roman-73"/>
    <use x="4282.94726562" xlink:href="#BitstreamVeraSans-Roman-74"/>
    <use x="4322.15625" xlink:href="#BitstreamVeraSans-Roman-65"/>
    <use x="4383.6796875" xlink:href="#BitstreamVeraSans-Roman-70"/>
    <use x="4447.15625" xlink:href="#BitstreamVeraSans-Roman-3a"/>
    <use x="4480.84765625" xlink:href="#BitstreamVeraSans-Roman-20"/>
    <use x="4512.63476562" xlink:href="#BitstreamVeraSans-Roman-36"/>
    <use x="4576.2578125" xlink:href="#BitstreamVeraSans-Roman-30"/>
    <use x="4639.88085938" xlink:href="#BitstreamVeraSans-Roman-73"/>
    <use x="4691.98046875" xlink:href="#BitstreamVeraSans-Roman-2f"/>
    <use x="4725.671875" xlink:href="#BitstreamVeraSans-Roman-30"/>
    <use x="4789.29492188" xlink:href="#BitstreamVeraSans-Roman-2e"/>
    <use x="4821.08203125" xlink:href="#BitstreamVeraSans-Roman-32"/>
    <use x="4884.70507812" xlink:href="#BitstreamVeraSans-Roman-30"/>
    <use x="4948.328125" xlink:href="#BitstreamVeraSans-Roman-73"/>
   </g>
  </g>
 </g>
 <defs>
  <clipPath id="p76fad0d343">
   <rect height="717.84" width="1464.9359625" x="250.5375" y="89.73"/>
  </clipPath>
 </defs>
</svg>
