<?xml version="1.0" encoding="utf-8" standalone="no"?>
<!DOCTYPE svg PUBLIC "-//W3C//DTD SVG 1.1//EN"
  "http://www.w3.org/Graphics/SVG/1.1/DTD/svg11.dtd">
<!-- Created with matplotlib (http://matplotlib.org/) -->
<svg height="658pt" version="1.1" viewBox="0 0 1106 658" width="1106pt" xmlns="http://www.w3.org/2000/svg" xmlns:xlink="http://www.w3.org/1999/xlink">
 <defs>
  <style type="text/css">
*{stroke-linecap:butt;stroke-linejoin:round;stroke-miterlimit:100000;}
  </style>
 </defs>
 <g id="figure_1">
  <g id="patch_1">
   <path d="M 0 658.8 
L 1106.1 658.8 
L 1106.1 0 
L 0 0 
z
" style="fill:#ffffff;"/>
  </g>
  <g id="axes_1">
   <g id="patch_2">
    <path d="M 138.2625 592.92 
L 909.6669 592.92 
L 909.6669 65.88 
L 138.2625 65.88 
z
" style="fill:#eaeaf2;"/>
   </g>
   <g id="matplotlib.axis_1">
    <g id="xtick_1">
     <g id="line2d_1">
      <defs>
       <path d="M 0 0 
L 0 0 
" id="med322b4bcf" style="stroke:#262626;stroke-width:0.5;"/>
      </defs>
      <g>
       <use style="fill:#262626;stroke:#262626;stroke-width:0.5;" x="138.2625" xlink:href="#med322b4bcf" y="592.92"/>
      </g>
     </g>
     <g id="line2d_2">
      <g>
       <use style="fill:#262626;stroke:#262626;stroke-width:0.5;" x="138.2625" xlink:href="#med322b4bcf" y="65.88"/>
      </g>
     </g>
     <g id="text_1">
      <!-- 0 -->
      <defs>
       <path d="M 31.78125 66.40625 
Q 24.171875 66.40625 20.328125 58.90625 
Q 16.5 51.421875 16.5 36.375 
Q 16.5 21.390625 20.328125 13.890625 
Q 24.171875 6.390625 31.78125 6.390625 
Q 39.453125 6.390625 43.28125 13.890625 
Q 47.125 21.390625 47.125 36.375 
Q 47.125 51.421875 43.28125 58.90625 
Q 39.453125 66.40625 31.78125 66.40625 
M 31.78125 74.21875 
Q 44.046875 74.21875 50.515625 64.515625 
Q 56.984375 54.828125 56.984375 36.375 
Q 56.984375 17.96875 50.515625 8.265625 
Q 44.046875 -1.421875 31.78125 -1.421875 
Q 19.53125 -1.421875 13.0625 8.265625 
Q 6.59375 17.96875 6.59375 36.375 
Q 6.59375 54.828125 13.0625 64.515625 
Q 19.53125 74.21875 31.78125 74.21875 
" id="BitstreamVeraSans-Roman-30"/>
      </defs>
      <g style="fill:#262626;" transform="translate(134.445 606.038125)scale(0.12 -0.12)">
       <use xlink:href="#BitstreamVeraSans-Roman-30"/>
      </g>
     </g>
    </g>
    <g id="xtick_2">
     <g id="line2d_3">
      <g>
       <use style="fill:#262626;stroke:#262626;stroke-width:0.5;" x="248.463128571" xlink:href="#med322b4bcf" y="592.92"/>
      </g>
     </g>
     <g id="line2d_4">
      <g>
       <use style="fill:#262626;stroke:#262626;stroke-width:0.5;" x="248.463128571" xlink:href="#med322b4bcf" y="65.88"/>
      </g>
     </g>
     <g id="text_2">
      <!-- 10 -->
      <defs>
       <path d="M 12.40625 8.296875 
L 28.515625 8.296875 
L 28.515625 63.921875 
L 10.984375 60.40625 
L 10.984375 69.390625 
L 28.421875 72.90625 
L 38.28125 72.90625 
L 38.28125 8.296875 
L 54.390625 8.296875 
L 54.390625 0 
L 12.40625 0 
z
" id="BitstreamVeraSans-Roman-31"/>
      </defs>
      <g style="fill:#262626;" transform="translate(240.828128571 606.038125)scale(0.12 -0.12)">
       <use xlink:href="#BitstreamVeraSans-Roman-31"/>
       <use x="63.623046875" xlink:href="#BitstreamVeraSans-Roman-30"/>
      </g>
     </g>
    </g>
    <g id="xtick_3">
     <g id="line2d_5">
      <g>
       <use style="fill:#262626;stroke:#262626;stroke-width:0.5;" x="358.663757143" xlink:href="#med322b4bcf" y="592.92"/>
      </g>
     </g>
     <g id="line2d_6">
      <g>
       <use style="fill:#262626;stroke:#262626;stroke-width:0.5;" x="358.663757143" xlink:href="#med322b4bcf" y="65.88"/>
      </g>
     </g>
     <g id="text_3">
      <!-- 20 -->
      <defs>
       <path d="M 19.1875 8.296875 
L 53.609375 8.296875 
L 53.609375 0 
L 7.328125 0 
L 7.328125 8.296875 
Q 12.9375 14.109375 22.625 23.890625 
Q 32.328125 33.6875 34.8125 36.53125 
Q 39.546875 41.84375 41.421875 45.53125 
Q 43.3125 49.21875 43.3125 52.78125 
Q 43.3125 58.59375 39.234375 62.25 
Q 35.15625 65.921875 28.609375 65.921875 
Q 23.96875 65.921875 18.8125 64.3125 
Q 13.671875 62.703125 7.8125 59.421875 
L 7.8125 69.390625 
Q 13.765625 71.78125 18.9375 73 
Q 24.125 74.21875 28.421875 74.21875 
Q 39.75 74.21875 46.484375 68.546875 
Q 53.21875 62.890625 53.21875 53.421875 
Q 53.21875 48.921875 51.53125 44.890625 
Q 49.859375 40.875 45.40625 35.40625 
Q 44.1875 33.984375 37.640625 27.21875 
Q 31.109375 20.453125 19.1875 8.296875 
" id="BitstreamVeraSans-Roman-32"/>
      </defs>
      <g style="fill:#262626;" transform="translate(351.028757143 606.038125)scale(0.12 -0.12)">
       <use xlink:href="#BitstreamVeraSans-Roman-32"/>
       <use x="63.623046875" xlink:href="#BitstreamVeraSans-Roman-30"/>
      </g>
     </g>
    </g>
    <g id="xtick_4">
     <g id="line2d_7">
      <g>
       <use style="fill:#262626;stroke:#262626;stroke-width:0.5;" x="468.864385714" xlink:href="#med322b4bcf" y="592.92"/>
      </g>
     </g>
     <g id="line2d_8">
      <g>
       <use style="fill:#262626;stroke:#262626;stroke-width:0.5;" x="468.864385714" xlink:href="#med322b4bcf" y="65.88"/>
      </g>
     </g>
     <g id="text_4">
      <!-- 30 -->
      <defs>
       <path d="M 40.578125 39.3125 
Q 47.65625 37.796875 51.625 33 
Q 55.609375 28.21875 55.609375 21.1875 
Q 55.609375 10.40625 48.1875 4.484375 
Q 40.765625 -1.421875 27.09375 -1.421875 
Q 22.515625 -1.421875 17.65625 -0.515625 
Q 12.796875 0.390625 7.625 2.203125 
L 7.625 11.71875 
Q 11.71875 9.328125 16.59375 8.109375 
Q 21.484375 6.890625 26.8125 6.890625 
Q 36.078125 6.890625 40.9375 10.546875 
Q 45.796875 14.203125 45.796875 21.1875 
Q 45.796875 27.640625 41.28125 31.265625 
Q 36.765625 34.90625 28.71875 34.90625 
L 20.21875 34.90625 
L 20.21875 43.015625 
L 29.109375 43.015625 
Q 36.375 43.015625 40.234375 45.921875 
Q 44.09375 48.828125 44.09375 54.296875 
Q 44.09375 59.90625 40.109375 62.90625 
Q 36.140625 65.921875 28.71875 65.921875 
Q 24.65625 65.921875 20.015625 65.03125 
Q 15.375 64.15625 9.8125 62.3125 
L 9.8125 71.09375 
Q 15.4375 72.65625 20.34375 73.4375 
Q 25.25 74.21875 29.59375 74.21875 
Q 40.828125 74.21875 47.359375 69.109375 
Q 53.90625 64.015625 53.90625 55.328125 
Q 53.90625 49.265625 50.4375 45.09375 
Q 46.96875 40.921875 40.578125 39.3125 
" id="BitstreamVeraSans-Roman-33"/>
      </defs>
      <g style="fill:#262626;" transform="translate(461.229385714 606.038125)scale(0.12 -0.12)">
       <use xlink:href="#BitstreamVeraSans-Roman-33"/>
       <use x="63.623046875" xlink:href="#BitstreamVeraSans-Roman-30"/>
      </g>
     </g>
    </g>
    <g id="xtick_5">
     <g id="line2d_9">
      <g>
       <use style="fill:#262626;stroke:#262626;stroke-width:0.5;" x="579.065014286" xlink:href="#med322b4bcf" y="592.92"/>
      </g>
     </g>
     <g id="line2d_10">
      <g>
       <use style="fill:#262626;stroke:#262626;stroke-width:0.5;" x="579.065014286" xlink:href="#med322b4bcf" y="65.88"/>
      </g>
     </g>
     <g id="text_5">
      <!-- 40 -->
      <defs>
       <path d="M 37.796875 64.3125 
L 12.890625 25.390625 
L 37.796875 25.390625 
z
M 35.203125 72.90625 
L 47.609375 72.90625 
L 47.609375 25.390625 
L 58.015625 25.390625 
L 58.015625 17.1875 
L 47.609375 17.1875 
L 47.609375 0 
L 37.796875 0 
L 37.796875 17.1875 
L 4.890625 17.1875 
L 4.890625 26.703125 
z
" id="BitstreamVeraSans-Roman-34"/>
      </defs>
      <g style="fill:#262626;" transform="translate(571.430014286 606.038125)scale(0.12 -0.12)">
       <use xlink:href="#BitstreamVeraSans-Roman-34"/>
       <use x="63.623046875" xlink:href="#BitstreamVeraSans-Roman-30"/>
      </g>
     </g>
    </g>
    <g id="xtick_6">
     <g id="line2d_11">
      <g>
       <use style="fill:#262626;stroke:#262626;stroke-width:0.5;" x="689.265642857" xlink:href="#med322b4bcf" y="592.92"/>
      </g>
     </g>
     <g id="line2d_12">
      <g>
       <use style="fill:#262626;stroke:#262626;stroke-width:0.5;" x="689.265642857" xlink:href="#med322b4bcf" y="65.88"/>
      </g>
     </g>
     <g id="text_6">
      <!-- 50 -->
      <defs>
       <path d="M 10.796875 72.90625 
L 49.515625 72.90625 
L 49.515625 64.59375 
L 19.828125 64.59375 
L 19.828125 46.734375 
Q 21.96875 47.46875 24.109375 47.828125 
Q 26.265625 48.1875 28.421875 48.1875 
Q 40.625 48.1875 47.75 41.5 
Q 54.890625 34.8125 54.890625 23.390625 
Q 54.890625 11.625 47.5625 5.09375 
Q 40.234375 -1.421875 26.90625 -1.421875 
Q 22.3125 -1.421875 17.546875 -0.640625 
Q 12.796875 0.140625 7.71875 1.703125 
L 7.71875 11.625 
Q 12.109375 9.234375 16.796875 8.0625 
Q 21.484375 6.890625 26.703125 6.890625 
Q 35.15625 6.890625 40.078125 11.328125 
Q 45.015625 15.765625 45.015625 23.390625 
Q 45.015625 31 40.078125 35.4375 
Q 35.15625 39.890625 26.703125 39.890625 
Q 22.75 39.890625 18.8125 39.015625 
Q 14.890625 38.140625 10.796875 36.28125 
z
" id="BitstreamVeraSans-Roman-35"/>
      </defs>
      <g style="fill:#262626;" transform="translate(681.630642857 606.038125)scale(0.12 -0.12)">
       <use xlink:href="#BitstreamVeraSans-Roman-35"/>
       <use x="63.623046875" xlink:href="#BitstreamVeraSans-Roman-30"/>
      </g>
     </g>
    </g>
    <g id="xtick_7">
     <g id="line2d_13">
      <g>
       <use style="fill:#262626;stroke:#262626;stroke-width:0.5;" x="799.466271429" xlink:href="#med322b4bcf" y="592.92"/>
      </g>
     </g>
     <g id="line2d_14">
      <g>
       <use style="fill:#262626;stroke:#262626;stroke-width:0.5;" x="799.466271429" xlink:href="#med322b4bcf" y="65.88"/>
      </g>
     </g>
     <g id="text_7">
      <!-- 60 -->
      <defs>
       <path d="M 33.015625 40.375 
Q 26.375 40.375 22.484375 35.828125 
Q 18.609375 31.296875 18.609375 23.390625 
Q 18.609375 15.53125 22.484375 10.953125 
Q 26.375 6.390625 33.015625 6.390625 
Q 39.65625 6.390625 43.53125 10.953125 
Q 47.40625 15.53125 47.40625 23.390625 
Q 47.40625 31.296875 43.53125 35.828125 
Q 39.65625 40.375 33.015625 40.375 
M 52.59375 71.296875 
L 52.59375 62.3125 
Q 48.875 64.0625 45.09375 64.984375 
Q 41.3125 65.921875 37.59375 65.921875 
Q 27.828125 65.921875 22.671875 59.328125 
Q 17.53125 52.734375 16.796875 39.40625 
Q 19.671875 43.65625 24.015625 45.921875 
Q 28.375 48.1875 33.59375 48.1875 
Q 44.578125 48.1875 50.953125 41.515625 
Q 57.328125 34.859375 57.328125 23.390625 
Q 57.328125 12.15625 50.6875 5.359375 
Q 44.046875 -1.421875 33.015625 -1.421875 
Q 20.359375 -1.421875 13.671875 8.265625 
Q 6.984375 17.96875 6.984375 36.375 
Q 6.984375 53.65625 15.1875 63.9375 
Q 23.390625 74.21875 37.203125 74.21875 
Q 40.921875 74.21875 44.703125 73.484375 
Q 48.484375 72.75 52.59375 71.296875 
" id="BitstreamVeraSans-Roman-36"/>
      </defs>
      <g style="fill:#262626;" transform="translate(791.831271429 606.038125)scale(0.12 -0.12)">
       <use xlink:href="#BitstreamVeraSans-Roman-36"/>
       <use x="63.623046875" xlink:href="#BitstreamVeraSans-Roman-30"/>
      </g>
     </g>
    </g>
    <g id="xtick_8">
     <g id="line2d_15">
      <g>
       <use style="fill:#262626;stroke:#262626;stroke-width:0.5;" x="909.6669" xlink:href="#med322b4bcf" y="592.92"/>
      </g>
     </g>
     <g id="line2d_16">
      <g>
       <use style="fill:#262626;stroke:#262626;stroke-width:0.5;" x="909.6669" xlink:href="#med322b4bcf" y="65.88"/>
      </g>
     </g>
     <g id="text_8">
      <!-- 70 -->
      <defs>
       <path d="M 8.203125 72.90625 
L 55.078125 72.90625 
L 55.078125 68.703125 
L 28.609375 0 
L 18.3125 0 
L 43.21875 64.59375 
L 8.203125 64.59375 
z
" id="BitstreamVeraSans-Roman-37"/>
      </defs>
      <g style="fill:#262626;" transform="translate(902.0319 606.038125)scale(0.12 -0.12)">
       <use xlink:href="#BitstreamVeraSans-Roman-37"/>
       <use x="63.623046875" xlink:href="#BitstreamVeraSans-Roman-30"/>
      </g>
     </g>
    </g>
    <g id="xtick_9">
     <g id="line2d_17">
      <g>
       <use style="fill:#262626;stroke:#262626;stroke-width:0.5;" x="160.302625714" xlink:href="#med322b4bcf" y="592.92"/>
      </g>
     </g>
     <g id="line2d_18">
      <g>
       <use style="fill:#262626;stroke:#262626;stroke-width:0.5;" x="160.302625714" xlink:href="#med322b4bcf" y="65.88"/>
      </g>
     </g>
    </g>
    <g id="xtick_10">
     <g id="line2d_19">
      <g>
       <use style="fill:#262626;stroke:#262626;stroke-width:0.5;" x="182.342751429" xlink:href="#med322b4bcf" y="592.92"/>
      </g>
     </g>
     <g id="line2d_20">
      <g>
       <use style="fill:#262626;stroke:#262626;stroke-width:0.5;" x="182.342751429" xlink:href="#med322b4bcf" y="65.88"/>
      </g>
     </g>
    </g>
    <g id="xtick_11">
     <g id="line2d_21">
      <g>
       <use style="fill:#262626;stroke:#262626;stroke-width:0.5;" x="204.382877143" xlink:href="#med322b4bcf" y="592.92"/>
      </g>
     </g>
     <g id="line2d_22">
      <g>
       <use style="fill:#262626;stroke:#262626;stroke-width:0.5;" x="204.382877143" xlink:href="#med322b4bcf" y="65.88"/>
      </g>
     </g>
    </g>
    <g id="xtick_12">
     <g id="line2d_23">
      <g>
       <use style="fill:#262626;stroke:#262626;stroke-width:0.5;" x="226.423002857" xlink:href="#med322b4bcf" y="592.92"/>
      </g>
     </g>
     <g id="line2d_24">
      <g>
       <use style="fill:#262626;stroke:#262626;stroke-width:0.5;" x="226.423002857" xlink:href="#med322b4bcf" y="65.88"/>
      </g>
     </g>
    </g>
    <g id="xtick_13">
     <g id="line2d_25">
      <g>
       <use style="fill:#262626;stroke:#262626;stroke-width:0.5;" x="270.503254286" xlink:href="#med322b4bcf" y="592.92"/>
      </g>
     </g>
     <g id="line2d_26">
      <g>
       <use style="fill:#262626;stroke:#262626;stroke-width:0.5;" x="270.503254286" xlink:href="#med322b4bcf" y="65.88"/>
      </g>
     </g>
    </g>
    <g id="xtick_14">
     <g id="line2d_27">
      <g>
       <use style="fill:#262626;stroke:#262626;stroke-width:0.5;" x="292.54338" xlink:href="#med322b4bcf" y="592.92"/>
      </g>
     </g>
     <g id="line2d_28">
      <g>
       <use style="fill:#262626;stroke:#262626;stroke-width:0.5;" x="292.54338" xlink:href="#med322b4bcf" y="65.88"/>
      </g>
     </g>
    </g>
    <g id="xtick_15">
     <g id="line2d_29">
      <g>
       <use style="fill:#262626;stroke:#262626;stroke-width:0.5;" x="314.583505714" xlink:href="#med322b4bcf" y="592.92"/>
      </g>
     </g>
     <g id="line2d_30">
      <g>
       <use style="fill:#262626;stroke:#262626;stroke-width:0.5;" x="314.583505714" xlink:href="#med322b4bcf" y="65.88"/>
      </g>
     </g>
    </g>
    <g id="xtick_16">
     <g id="line2d_31">
      <g>
       <use style="fill:#262626;stroke:#262626;stroke-width:0.5;" x="336.623631429" xlink:href="#med322b4bcf" y="592.92"/>
      </g>
     </g>
     <g id="line2d_32">
      <g>
       <use style="fill:#262626;stroke:#262626;stroke-width:0.5;" x="336.623631429" xlink:href="#med322b4bcf" y="65.88"/>
      </g>
     </g>
    </g>
    <g id="xtick_17">
     <g id="line2d_33">
      <g>
       <use style="fill:#262626;stroke:#262626;stroke-width:0.5;" x="380.703882857" xlink:href="#med322b4bcf" y="592.92"/>
      </g>
     </g>
     <g id="line2d_34">
      <g>
       <use style="fill:#262626;stroke:#262626;stroke-width:0.5;" x="380.703882857" xlink:href="#med322b4bcf" y="65.88"/>
      </g>
     </g>
    </g>
    <g id="xtick_18">
     <g id="line2d_35">
      <g>
       <use style="fill:#262626;stroke:#262626;stroke-width:0.5;" x="402.744008571" xlink:href="#med322b4bcf" y="592.92"/>
      </g>
     </g>
     <g id="line2d_36">
      <g>
       <use style="fill:#262626;stroke:#262626;stroke-width:0.5;" x="402.744008571" xlink:href="#med322b4bcf" y="65.88"/>
      </g>
     </g>
    </g>
    <g id="xtick_19">
     <g id="line2d_37">
      <g>
       <use style="fill:#262626;stroke:#262626;stroke-width:0.5;" x="424.784134286" xlink:href="#med322b4bcf" y="592.92"/>
      </g>
     </g>
     <g id="line2d_38">
      <g>
       <use style="fill:#262626;stroke:#262626;stroke-width:0.5;" x="424.784134286" xlink:href="#med322b4bcf" y="65.88"/>
      </g>
     </g>
    </g>
    <g id="xtick_20">
     <g id="line2d_39">
      <g>
       <use style="fill:#262626;stroke:#262626;stroke-width:0.5;" x="446.82426" xlink:href="#med322b4bcf" y="592.92"/>
      </g>
     </g>
     <g id="line2d_40">
      <g>
       <use style="fill:#262626;stroke:#262626;stroke-width:0.5;" x="446.82426" xlink:href="#med322b4bcf" y="65.88"/>
      </g>
     </g>
    </g>
    <g id="xtick_21">
     <g id="line2d_41">
      <g>
       <use style="fill:#262626;stroke:#262626;stroke-width:0.5;" x="490.904511429" xlink:href="#med322b4bcf" y="592.92"/>
      </g>
     </g>
     <g id="line2d_42">
      <g>
       <use style="fill:#262626;stroke:#262626;stroke-width:0.5;" x="490.904511429" xlink:href="#med322b4bcf" y="65.88"/>
      </g>
     </g>
    </g>
    <g id="xtick_22">
     <g id="line2d_43">
      <g>
       <use style="fill:#262626;stroke:#262626;stroke-width:0.5;" x="512.944637143" xlink:href="#med322b4bcf" y="592.92"/>
      </g>
     </g>
     <g id="line2d_44">
      <g>
       <use style="fill:#262626;stroke:#262626;stroke-width:0.5;" x="512.944637143" xlink:href="#med322b4bcf" y="65.88"/>
      </g>
     </g>
    </g>
    <g id="xtick_23">
     <g id="line2d_45">
      <g>
       <use style="fill:#262626;stroke:#262626;stroke-width:0.5;" x="534.984762857" xlink:href="#med322b4bcf" y="592.92"/>
      </g>
     </g>
     <g id="line2d_46">
      <g>
       <use style="fill:#262626;stroke:#262626;stroke-width:0.5;" x="534.984762857" xlink:href="#med322b4bcf" y="65.88"/>
      </g>
     </g>
    </g>
    <g id="xtick_24">
     <g id="line2d_47">
      <g>
       <use style="fill:#262626;stroke:#262626;stroke-width:0.5;" x="557.024888571" xlink:href="#med322b4bcf" y="592.92"/>
      </g>
     </g>
     <g id="line2d_48">
      <g>
       <use style="fill:#262626;stroke:#262626;stroke-width:0.5;" x="557.024888571" xlink:href="#med322b4bcf" y="65.88"/>
      </g>
     </g>
    </g>
    <g id="xtick_25">
     <g id="line2d_49">
      <g>
       <use style="fill:#262626;stroke:#262626;stroke-width:0.5;" x="601.10514" xlink:href="#med322b4bcf" y="592.92"/>
      </g>
     </g>
     <g id="line2d_50">
      <g>
       <use style="fill:#262626;stroke:#262626;stroke-width:0.5;" x="601.10514" xlink:href="#med322b4bcf" y="65.88"/>
      </g>
     </g>
    </g>
    <g id="xtick_26">
     <g id="line2d_51">
      <g>
       <use style="fill:#262626;stroke:#262626;stroke-width:0.5;" x="623.145265714" xlink:href="#med322b4bcf" y="592.92"/>
      </g>
     </g>
     <g id="line2d_52">
      <g>
       <use style="fill:#262626;stroke:#262626;stroke-width:0.5;" x="623.145265714" xlink:href="#med322b4bcf" y="65.88"/>
      </g>
     </g>
    </g>
    <g id="xtick_27">
     <g id="line2d_53">
      <g>
       <use style="fill:#262626;stroke:#262626;stroke-width:0.5;" x="645.185391429" xlink:href="#med322b4bcf" y="592.92"/>
      </g>
     </g>
     <g id="line2d_54">
      <g>
       <use style="fill:#262626;stroke:#262626;stroke-width:0.5;" x="645.185391429" xlink:href="#med322b4bcf" y="65.88"/>
      </g>
     </g>
    </g>
    <g id="xtick_28">
     <g id="line2d_55">
      <g>
       <use style="fill:#262626;stroke:#262626;stroke-width:0.5;" x="667.225517143" xlink:href="#med322b4bcf" y="592.92"/>
      </g>
     </g>
     <g id="line2d_56">
      <g>
       <use style="fill:#262626;stroke:#262626;stroke-width:0.5;" x="667.225517143" xlink:href="#med322b4bcf" y="65.88"/>
      </g>
     </g>
    </g>
    <g id="xtick_29">
     <g id="line2d_57">
      <g>
       <use style="fill:#262626;stroke:#262626;stroke-width:0.5;" x="711.305768571" xlink:href="#med322b4bcf" y="592.92"/>
      </g>
     </g>
     <g id="line2d_58">
      <g>
       <use style="fill:#262626;stroke:#262626;stroke-width:0.5;" x="711.305768571" xlink:href="#med322b4bcf" y="65.88"/>
      </g>
     </g>
    </g>
    <g id="xtick_30">
     <g id="line2d_59">
      <g>
       <use style="fill:#262626;stroke:#262626;stroke-width:0.5;" x="733.345894286" xlink:href="#med322b4bcf" y="592.92"/>
      </g>
     </g>
     <g id="line2d_60">
      <g>
       <use style="fill:#262626;stroke:#262626;stroke-width:0.5;" x="733.345894286" xlink:href="#med322b4bcf" y="65.88"/>
      </g>
     </g>
    </g>
    <g id="xtick_31">
     <g id="line2d_61">
      <g>
       <use style="fill:#262626;stroke:#262626;stroke-width:0.5;" x="755.38602" xlink:href="#med322b4bcf" y="592.92"/>
      </g>
     </g>
     <g id="line2d_62">
      <g>
       <use style="fill:#262626;stroke:#262626;stroke-width:0.5;" x="755.38602" xlink:href="#med322b4bcf" y="65.88"/>
      </g>
     </g>
    </g>
    <g id="xtick_32">
     <g id="line2d_63">
      <g>
       <use style="fill:#262626;stroke:#262626;stroke-width:0.5;" x="777.426145714" xlink:href="#med322b4bcf" y="592.92"/>
      </g>
     </g>
     <g id="line2d_64">
      <g>
       <use style="fill:#262626;stroke:#262626;stroke-width:0.5;" x="777.426145714" xlink:href="#med322b4bcf" y="65.88"/>
      </g>
     </g>
    </g>
    <g id="xtick_33">
     <g id="line2d_65">
      <g>
       <use style="fill:#262626;stroke:#262626;stroke-width:0.5;" x="821.506397143" xlink:href="#med322b4bcf" y="592.92"/>
      </g>
     </g>
     <g id="line2d_66">
      <g>
       <use style="fill:#262626;stroke:#262626;stroke-width:0.5;" x="821.506397143" xlink:href="#med322b4bcf" y="65.88"/>
      </g>
     </g>
    </g>
    <g id="xtick_34">
     <g id="line2d_67">
      <g>
       <use style="fill:#262626;stroke:#262626;stroke-width:0.5;" x="843.546522857" xlink:href="#med322b4bcf" y="592.92"/>
      </g>
     </g>
     <g id="line2d_68">
      <g>
       <use style="fill:#262626;stroke:#262626;stroke-width:0.5;" x="843.546522857" xlink:href="#med322b4bcf" y="65.88"/>
      </g>
     </g>
    </g>
    <g id="xtick_35">
     <g id="line2d_69">
      <g>
       <use style="fill:#262626;stroke:#262626;stroke-width:0.5;" x="865.586648571" xlink:href="#med322b4bcf" y="592.92"/>
      </g>
     </g>
     <g id="line2d_70">
      <g>
       <use style="fill:#262626;stroke:#262626;stroke-width:0.5;" x="865.586648571" xlink:href="#med322b4bcf" y="65.88"/>
      </g>
     </g>
    </g>
    <g id="xtick_36">
     <g id="line2d_71">
      <g>
       <use style="fill:#262626;stroke:#262626;stroke-width:0.5;" x="887.626774286" xlink:href="#med322b4bcf" y="592.92"/>
      </g>
     </g>
     <g id="line2d_72">
      <g>
       <use style="fill:#262626;stroke:#262626;stroke-width:0.5;" x="887.626774286" xlink:href="#med322b4bcf" y="65.88"/>
      </g>
     </g>
    </g>
    <g id="text_9">
     <!-- Time (s) -->
     <defs>
      <path d="M 56.203125 29.59375 
L 56.203125 25.203125 
L 14.890625 25.203125 
Q 15.484375 15.921875 20.484375 11.0625 
Q 25.484375 6.203125 34.421875 6.203125 
Q 39.59375 6.203125 44.453125 7.46875 
Q 49.3125 8.734375 54.109375 11.28125 
L 54.109375 2.78125 
Q 49.265625 0.734375 44.1875 -0.34375 
Q 39.109375 -1.421875 33.890625 -1.421875 
Q 20.796875 -1.421875 13.15625 6.1875 
Q 5.515625 13.8125 5.515625 26.8125 
Q 5.515625 40.234375 12.765625 48.109375 
Q 20.015625 56 32.328125 56 
Q 43.359375 56 49.78125 48.890625 
Q 56.203125 41.796875 56.203125 29.59375 
M 47.21875 32.234375 
Q 47.125 39.59375 43.09375 43.984375 
Q 39.0625 48.390625 32.421875 48.390625 
Q 24.90625 48.390625 20.390625 44.140625 
Q 15.875 39.890625 15.1875 32.171875 
z
" id="BitstreamVeraSans-Roman-65"/>
      <path d="M 9.421875 54.6875 
L 18.40625 54.6875 
L 18.40625 0 
L 9.421875 0 
z
M 9.421875 75.984375 
L 18.40625 75.984375 
L 18.40625 64.59375 
L 9.421875 64.59375 
z
" id="BitstreamVeraSans-Roman-69"/>
      <path d="M 8.015625 75.875 
L 15.828125 75.875 
Q 23.140625 64.359375 26.78125 53.3125 
Q 30.421875 42.28125 30.421875 31.390625 
Q 30.421875 20.453125 26.78125 9.375 
Q 23.140625 -1.703125 15.828125 -13.1875 
L 8.015625 -13.1875 
Q 14.5 -2 17.703125 9.0625 
Q 20.90625 20.125 20.90625 31.390625 
Q 20.90625 42.671875 17.703125 53.65625 
Q 14.5 64.65625 8.015625 75.875 
" id="BitstreamVeraSans-Roman-29"/>
      <path id="BitstreamVeraSans-Roman-20"/>
      <path d="M 44.28125 53.078125 
L 44.28125 44.578125 
Q 40.484375 46.53125 36.375 47.5 
Q 32.28125 48.484375 27.875 48.484375 
Q 21.1875 48.484375 17.84375 46.4375 
Q 14.5 44.390625 14.5 40.28125 
Q 14.5 37.15625 16.890625 35.375 
Q 19.28125 33.59375 26.515625 31.984375 
L 29.59375 31.296875 
Q 39.15625 29.25 43.1875 25.515625 
Q 47.21875 21.78125 47.21875 15.09375 
Q 47.21875 7.46875 41.1875 3.015625 
Q 35.15625 -1.421875 24.609375 -1.421875 
Q 20.21875 -1.421875 15.453125 -0.5625 
Q 10.6875 0.296875 5.421875 2 
L 5.421875 11.28125 
Q 10.40625 8.6875 15.234375 7.390625 
Q 20.0625 6.109375 24.8125 6.109375 
Q 31.15625 6.109375 34.5625 8.28125 
Q 37.984375 10.453125 37.984375 14.40625 
Q 37.984375 18.0625 35.515625 20.015625 
Q 33.0625 21.96875 24.703125 23.78125 
L 21.578125 24.515625 
Q 13.234375 26.265625 9.515625 29.90625 
Q 5.8125 33.546875 5.8125 39.890625 
Q 5.8125 47.609375 11.28125 51.796875 
Q 16.75 56 26.8125 56 
Q 31.78125 56 36.171875 55.265625 
Q 40.578125 54.546875 44.28125 53.078125 
" id="BitstreamVeraSans-Roman-73"/>
      <path d="M 31 75.875 
Q 24.46875 64.65625 21.28125 53.65625 
Q 18.109375 42.671875 18.109375 31.390625 
Q 18.109375 20.125 21.3125 9.0625 
Q 24.515625 -2 31 -13.1875 
L 23.1875 -13.1875 
Q 15.875 -1.703125 12.234375 9.375 
Q 8.59375 20.453125 8.59375 31.390625 
Q 8.59375 42.28125 12.203125 53.3125 
Q 15.828125 64.359375 23.1875 75.875 
z
" id="BitstreamVeraSans-Roman-28"/>
      <path d="M 52 44.1875 
Q 55.375 50.25 60.0625 53.125 
Q 64.75 56 71.09375 56 
Q 79.640625 56 84.28125 50.015625 
Q 88.921875 44.046875 88.921875 33.015625 
L 88.921875 0 
L 79.890625 0 
L 79.890625 32.71875 
Q 79.890625 40.578125 77.09375 44.375 
Q 74.3125 48.1875 68.609375 48.1875 
Q 61.625 48.1875 57.5625 43.546875 
Q 53.515625 38.921875 53.515625 30.90625 
L 53.515625 0 
L 44.484375 0 
L 44.484375 32.71875 
Q 44.484375 40.625 41.703125 44.40625 
Q 38.921875 48.1875 33.109375 48.1875 
Q 26.21875 48.1875 22.15625 43.53125 
Q 18.109375 38.875 18.109375 30.90625 
L 18.109375 0 
L 9.078125 0 
L 9.078125 54.6875 
L 18.109375 54.6875 
L 18.109375 46.1875 
Q 21.1875 51.21875 25.484375 53.609375 
Q 29.78125 56 35.6875 56 
Q 41.65625 56 45.828125 52.96875 
Q 50 49.953125 52 44.1875 
" id="BitstreamVeraSans-Roman-6d"/>
      <path d="M -0.296875 72.90625 
L 61.375 72.90625 
L 61.375 64.59375 
L 35.5 64.59375 
L 35.5 0 
L 25.59375 0 
L 25.59375 64.59375 
L -0.296875 64.59375 
z
" id="BitstreamVeraSans-Roman-54"/>
     </defs>
     <g style="fill:#262626;" transform="translate(499.385325 622.651875)scale(0.12 -0.12)">
      <use xlink:href="#BitstreamVeraSans-Roman-54"/>
      <use x="61.037109375" xlink:href="#BitstreamVeraSans-Roman-69"/>
      <use x="88.8203125" xlink:href="#BitstreamVeraSans-Roman-6d"/>
      <use x="186.232421875" xlink:href="#BitstreamVeraSans-Roman-65"/>
      <use x="247.755859375" xlink:href="#BitstreamVeraSans-Roman-20"/>
      <use x="279.54296875" xlink:href="#BitstreamVeraSans-Roman-28"/>
      <use x="318.556640625" xlink:href="#BitstreamVeraSans-Roman-73"/>
      <use x="370.65625" xlink:href="#BitstreamVeraSans-Roman-29"/>
     </g>
    </g>
   </g>
   <g id="matplotlib.axis_2">
    <g id="ytick_1">
     <g id="line2d_73">
      <g>
       <use style="fill:#262626;stroke:#262626;stroke-width:0.5;" x="138.2625" xlink:href="#med322b4bcf" y="546.478313638"/>
      </g>
     </g>
     <g id="text_10">
      <!-- 5 -->
      <g style="fill:#262626;" transform="translate(126.6275 549.789563638)scale(0.12 -0.12)">
       <use xlink:href="#BitstreamVeraSans-Roman-35"/>
      </g>
     </g>
    </g>
    <g id="ytick_2">
     <g id="line2d_74">
      <g>
       <use style="fill:#262626;stroke:#262626;stroke-width:0.5;" x="138.2625" xlink:href="#med322b4bcf" y="473.55494343"/>
      </g>
     </g>
     <g id="text_11">
      <!-- 10 -->
      <g style="fill:#262626;" transform="translate(118.9925 476.86619343)scale(0.12 -0.12)">
       <use xlink:href="#BitstreamVeraSans-Roman-31"/>
       <use x="63.623046875" xlink:href="#BitstreamVeraSans-Roman-30"/>
      </g>
     </g>
    </g>
    <g id="ytick_3">
     <g id="line2d_75">
      <g>
       <use style="fill:#262626;stroke:#262626;stroke-width:0.5;" x="138.2625" xlink:href="#med322b4bcf" y="400.631573221"/>
      </g>
     </g>
     <g id="text_12">
      <!-- 15 -->
      <g style="fill:#262626;" transform="translate(118.9925 403.942823221)scale(0.12 -0.12)">
       <use xlink:href="#BitstreamVeraSans-Roman-31"/>
       <use x="63.623046875" xlink:href="#BitstreamVeraSans-Roman-35"/>
      </g>
     </g>
    </g>
    <g id="ytick_4">
     <g id="line2d_76">
      <g>
       <use style="fill:#262626;stroke:#262626;stroke-width:0.5;" x="138.2625" xlink:href="#med322b4bcf" y="327.708203012"/>
      </g>
     </g>
     <g id="text_13">
      <!-- 20 -->
      <g style="fill:#262626;" transform="translate(118.9925 331.019453012)scale(0.12 -0.12)">
       <use xlink:href="#BitstreamVeraSans-Roman-32"/>
       <use x="63.623046875" xlink:href="#BitstreamVeraSans-Roman-30"/>
      </g>
     </g>
    </g>
    <g id="ytick_5">
     <g id="line2d_77">
      <g>
       <use style="fill:#262626;stroke:#262626;stroke-width:0.5;" x="138.2625" xlink:href="#med322b4bcf" y="254.784832804"/>
      </g>
     </g>
     <g id="text_14">
      <!-- 25 -->
      <g style="fill:#262626;" transform="translate(118.9925 258.096082804)scale(0.12 -0.12)">
       <use xlink:href="#BitstreamVeraSans-Roman-32"/>
       <use x="63.623046875" xlink:href="#BitstreamVeraSans-Roman-35"/>
      </g>
     </g>
    </g>
    <g id="ytick_6">
     <g id="line2d_78">
      <g>
       <use style="fill:#262626;stroke:#262626;stroke-width:0.5;" x="138.2625" xlink:href="#med322b4bcf" y="181.861462595"/>
      </g>
     </g>
     <g id="text_15">
      <!-- 30 -->
      <g style="fill:#262626;" transform="translate(118.9925 185.172712595)scale(0.12 -0.12)">
       <use xlink:href="#BitstreamVeraSans-Roman-33"/>
       <use x="63.623046875" xlink:href="#BitstreamVeraSans-Roman-30"/>
      </g>
     </g>
    </g>
    <g id="ytick_7">
     <g id="line2d_79">
      <g>
       <use style="fill:#262626;stroke:#262626;stroke-width:0.5;" x="138.2625" xlink:href="#med322b4bcf" y="108.938092387"/>
      </g>
     </g>
     <g id="text_16">
      <!-- 35 -->
      <g style="fill:#262626;" transform="translate(118.9925 112.249342387)scale(0.12 -0.12)">
       <use xlink:href="#BitstreamVeraSans-Roman-33"/>
       <use x="63.623046875" xlink:href="#BitstreamVeraSans-Roman-35"/>
      </g>
     </g>
    </g>
    <g id="ytick_8">
     <g id="line2d_80">
      <g>
       <use style="fill:#262626;stroke:#262626;stroke-width:0.5;" x="138.2625" xlink:href="#med322b4bcf" y="590.232335764"/>
      </g>
     </g>
    </g>
    <g id="ytick_9">
     <g id="line2d_81">
      <g>
       <use style="fill:#262626;stroke:#262626;stroke-width:0.5;" x="138.2625" xlink:href="#med322b4bcf" y="575.647661722"/>
      </g>
     </g>
    </g>
    <g id="ytick_10">
     <g id="line2d_82">
      <g>
       <use style="fill:#262626;stroke:#262626;stroke-width:0.5;" x="138.2625" xlink:href="#med322b4bcf" y="561.06298768"/>
      </g>
     </g>
    </g>
    <g id="ytick_11">
     <g id="line2d_83">
      <g>
       <use style="fill:#262626;stroke:#262626;stroke-width:0.5;" x="138.2625" xlink:href="#med322b4bcf" y="531.893639597"/>
      </g>
     </g>
    </g>
    <g id="ytick_12">
     <g id="line2d_84">
      <g>
       <use style="fill:#262626;stroke:#262626;stroke-width:0.5;" x="138.2625" xlink:href="#med322b4bcf" y="517.308965555"/>
      </g>
     </g>
    </g>
    <g id="ytick_13">
     <g id="line2d_85">
      <g>
       <use style="fill:#262626;stroke:#262626;stroke-width:0.5;" x="138.2625" xlink:href="#med322b4bcf" y="502.724291513"/>
      </g>
     </g>
    </g>
    <g id="ytick_14">
     <g id="line2d_86">
      <g>
       <use style="fill:#262626;stroke:#262626;stroke-width:0.5;" x="138.2625" xlink:href="#med322b4bcf" y="488.139617471"/>
      </g>
     </g>
    </g>
    <g id="ytick_15">
     <g id="line2d_87">
      <g>
       <use style="fill:#262626;stroke:#262626;stroke-width:0.5;" x="138.2625" xlink:href="#med322b4bcf" y="458.970269388"/>
      </g>
     </g>
    </g>
    <g id="ytick_16">
     <g id="line2d_88">
      <g>
       <use style="fill:#262626;stroke:#262626;stroke-width:0.5;" x="138.2625" xlink:href="#med322b4bcf" y="444.385595346"/>
      </g>
     </g>
    </g>
    <g id="ytick_17">
     <g id="line2d_89">
      <g>
       <use style="fill:#262626;stroke:#262626;stroke-width:0.5;" x="138.2625" xlink:href="#med322b4bcf" y="429.800921305"/>
      </g>
     </g>
    </g>
    <g id="ytick_18">
     <g id="line2d_90">
      <g>
       <use style="fill:#262626;stroke:#262626;stroke-width:0.5;" x="138.2625" xlink:href="#med322b4bcf" y="415.216247263"/>
      </g>
     </g>
    </g>
    <g id="ytick_19">
     <g id="line2d_91">
      <g>
       <use style="fill:#262626;stroke:#262626;stroke-width:0.5;" x="138.2625" xlink:href="#med322b4bcf" y="386.046899179"/>
      </g>
     </g>
    </g>
    <g id="ytick_20">
     <g id="line2d_92">
      <g>
       <use style="fill:#262626;stroke:#262626;stroke-width:0.5;" x="138.2625" xlink:href="#med322b4bcf" y="371.462225138"/>
      </g>
     </g>
    </g>
    <g id="ytick_21">
     <g id="line2d_93">
      <g>
       <use style="fill:#262626;stroke:#262626;stroke-width:0.5;" x="138.2625" xlink:href="#med322b4bcf" y="356.877551096"/>
      </g>
     </g>
    </g>
    <g id="ytick_22">
     <g id="line2d_94">
      <g>
       <use style="fill:#262626;stroke:#262626;stroke-width:0.5;" x="138.2625" xlink:href="#med322b4bcf" y="342.292877054"/>
      </g>
     </g>
    </g>
    <g id="ytick_23">
     <g id="line2d_95">
      <g>
       <use style="fill:#262626;stroke:#262626;stroke-width:0.5;" x="138.2625" xlink:href="#med322b4bcf" y="313.123528971"/>
      </g>
     </g>
    </g>
    <g id="ytick_24">
     <g id="line2d_96">
      <g>
       <use style="fill:#262626;stroke:#262626;stroke-width:0.5;" x="138.2625" xlink:href="#med322b4bcf" y="298.538854929"/>
      </g>
     </g>
    </g>
    <g id="ytick_25">
     <g id="line2d_97">
      <g>
       <use style="fill:#262626;stroke:#262626;stroke-width:0.5;" x="138.2625" xlink:href="#med322b4bcf" y="283.954180887"/>
      </g>
     </g>
    </g>
    <g id="ytick_26">
     <g id="line2d_98">
      <g>
       <use style="fill:#262626;stroke:#262626;stroke-width:0.5;" x="138.2625" xlink:href="#med322b4bcf" y="269.369506846"/>
      </g>
     </g>
    </g>
    <g id="ytick_27">
     <g id="line2d_99">
      <g>
       <use style="fill:#262626;stroke:#262626;stroke-width:0.5;" x="138.2625" xlink:href="#med322b4bcf" y="240.200158762"/>
      </g>
     </g>
    </g>
    <g id="ytick_28">
     <g id="line2d_100">
      <g>
       <use style="fill:#262626;stroke:#262626;stroke-width:0.5;" x="138.2625" xlink:href="#med322b4bcf" y="225.61548472"/>
      </g>
     </g>
    </g>
    <g id="ytick_29">
     <g id="line2d_101">
      <g>
       <use style="fill:#262626;stroke:#262626;stroke-width:0.5;" x="138.2625" xlink:href="#med322b4bcf" y="211.030810679"/>
      </g>
     </g>
    </g>
    <g id="ytick_30">
     <g id="line2d_102">
      <g>
       <use style="fill:#262626;stroke:#262626;stroke-width:0.5;" x="138.2625" xlink:href="#med322b4bcf" y="196.446136637"/>
      </g>
     </g>
    </g>
    <g id="ytick_31">
     <g id="line2d_103">
      <g>
       <use style="fill:#262626;stroke:#262626;stroke-width:0.5;" x="138.2625" xlink:href="#med322b4bcf" y="167.276788553"/>
      </g>
     </g>
    </g>
    <g id="ytick_32">
     <g id="line2d_104">
      <g>
       <use style="fill:#262626;stroke:#262626;stroke-width:0.5;" x="138.2625" xlink:href="#med322b4bcf" y="152.692114512"/>
      </g>
     </g>
    </g>
    <g id="ytick_33">
     <g id="line2d_105">
      <g>
       <use style="fill:#262626;stroke:#262626;stroke-width:0.5;" x="138.2625" xlink:href="#med322b4bcf" y="138.10744047"/>
      </g>
     </g>
    </g>
    <g id="ytick_34">
     <g id="line2d_106">
      <g>
       <use style="fill:#262626;stroke:#262626;stroke-width:0.5;" x="138.2625" xlink:href="#med322b4bcf" y="123.522766428"/>
      </g>
     </g>
    </g>
    <g id="ytick_35">
     <g id="line2d_107">
      <g>
       <use style="fill:#262626;stroke:#262626;stroke-width:0.5;" x="138.2625" xlink:href="#med322b4bcf" y="94.3534183448"/>
      </g>
     </g>
    </g>
    <g id="ytick_36">
     <g id="line2d_108">
      <g>
       <use style="fill:#262626;stroke:#262626;stroke-width:0.5;" x="138.2625" xlink:href="#med322b4bcf" y="79.7687443031"/>
      </g>
     </g>
    </g>
    <g id="text_17">
     <!-- Mbits/s -->
     <defs>
      <path d="M 9.8125 72.90625 
L 24.515625 72.90625 
L 43.109375 23.296875 
L 61.8125 72.90625 
L 76.515625 72.90625 
L 76.515625 0 
L 66.890625 0 
L 66.890625 64.015625 
L 48.09375 14.015625 
L 38.1875 14.015625 
L 19.390625 64.015625 
L 19.390625 0 
L 9.8125 0 
z
" id="BitstreamVeraSans-Roman-4d"/>
      <path d="M 48.6875 27.296875 
Q 48.6875 37.203125 44.609375 42.84375 
Q 40.53125 48.484375 33.40625 48.484375 
Q 26.265625 48.484375 22.1875 42.84375 
Q 18.109375 37.203125 18.109375 27.296875 
Q 18.109375 17.390625 22.1875 11.75 
Q 26.265625 6.109375 33.40625 6.109375 
Q 40.53125 6.109375 44.609375 11.75 
Q 48.6875 17.390625 48.6875 27.296875 
M 18.109375 46.390625 
Q 20.953125 51.265625 25.265625 53.625 
Q 29.59375 56 35.59375 56 
Q 45.5625 56 51.78125 48.09375 
Q 58.015625 40.1875 58.015625 27.296875 
Q 58.015625 14.40625 51.78125 6.484375 
Q 45.5625 -1.421875 35.59375 -1.421875 
Q 29.59375 -1.421875 25.265625 0.953125 
Q 20.953125 3.328125 18.109375 8.203125 
L 18.109375 0 
L 9.078125 0 
L 9.078125 75.984375 
L 18.109375 75.984375 
z
" id="BitstreamVeraSans-Roman-62"/>
      <path d="M 25.390625 72.90625 
L 33.6875 72.90625 
L 8.296875 -9.28125 
L 0 -9.28125 
z
" id="BitstreamVeraSans-Roman-2f"/>
      <path d="M 18.3125 70.21875 
L 18.3125 54.6875 
L 36.8125 54.6875 
L 36.8125 47.703125 
L 18.3125 47.703125 
L 18.3125 18.015625 
Q 18.3125 11.328125 20.140625 9.421875 
Q 21.96875 7.515625 27.59375 7.515625 
L 36.8125 7.515625 
L 36.8125 0 
L 27.59375 0 
Q 17.1875 0 13.234375 3.875 
Q 9.28125 7.765625 9.28125 18.015625 
L 9.28125 47.703125 
L 2.6875 47.703125 
L 2.6875 54.6875 
L 9.28125 54.6875 
L 9.28125 70.21875 
z
" id="BitstreamVeraSans-Roman-74"/>
     </defs>
     <g style="fill:#262626;" transform="translate(111.496875 350.6775)rotate(-90.0)scale(0.12 -0.12)">
      <use xlink:href="#BitstreamVeraSans-Roman-4d"/>
      <use x="86.279296875" xlink:href="#BitstreamVeraSans-Roman-62"/>
      <use x="149.755859375" xlink:href="#BitstreamVeraSans-Roman-69"/>
      <use x="177.5390625" xlink:href="#BitstreamVeraSans-Roman-74"/>
      <use x="216.748046875" xlink:href="#BitstreamVeraSans-Roman-73"/>
      <use x="268.84765625" xlink:href="#BitstreamVeraSans-Roman-2f"/>
      <use x="302.5390625" xlink:href="#BitstreamVeraSans-Roman-73"/>
     </g>
    </g>
   </g>
   <g id="line2d_109">
    <path clip-path="url(#p251635567c)" d="M 195.566827 587.752941 
L 197.770839 514.592881 
L 199.974852 419.330108 
L 202.178865 415.216326 
L 204.382877 441.735409 
L 206.58689 445.001756 
L 208.790902 356.446571 
L 210.994915 290.74229 
L 213.198927 381.24897 
L 215.40294 435.355795 
L 217.606953 426.422312 
L 219.810965 412.071642 
L 222.014978 452.957284 
L 224.21899 463.398856 
L 226.423003 411.323728 
L 228.627015 296.280921 
L 230.831028 218.880694 
L 233.035041 208.029191 
L 235.239053 366.297116 
L 237.443066 382.936177 
L 239.647078 390.681762 
L 241.851091 398.916702 
L 244.055103 413.379975 
L 246.259116 438.888326 
L 248.463129 393.436613 
L 250.667141 293.692454 
L 252.871154 177.724888 
L 255.075166 162.974001 
L 257.279179 150.834097 
L 259.483191 92.888759 
L 261.687204 71.047059 
L 263.891217 96.236511 
L 266.095229 124.725905 
L 268.299242 253.870493 
L 270.503254 291.938362 
L 272.707267 230.62906 
L 274.911279 190.88106 
L 277.115292 252.557591 
L 279.319305 242.906511 
L 281.523317 205.286577 
L 283.72733 176.425521 
L 285.931342 216.106119 
L 290.339367 371.099454 
L 292.54338 349.243942 
L 294.747393 245.389805 
L 296.951405 242.748185 
L 299.155418 298.755226 
L 301.35943 389.635913 
L 303.563443 417.418182 
L 305.767455 326.410754 
L 307.971468 297.805788 
L 310.175481 253.563885 
L 312.379493 189.134108 
L 314.583506 166.020858 
L 316.787518 283.786414 
L 318.991531 447.68682 
L 321.195543 472.730593 
L 323.399556 490.077747 
L 325.603569 482.048007 
L 327.807581 434.416773 
L 330.011594 472.020686 
L 332.215606 473.237127 
L 334.419619 471.874708 
L 336.623631 473.073322 
L 338.827644 472.019428 
L 341.031657 484.148556 
L 343.235669 472.483082 
L 345.439682 459.348616 
L 347.643694 469.980071 
L 349.847707 472.406048 
L 352.051719 471.515973 
L 354.255732 471.454482 
L 356.459745 472.496891 
L 358.663757 471.38312 
L 360.86777 472.859025 
L 363.071782 471.279536 
L 365.275795 471.398778 
L 367.479807 473.533129 
L 369.68382 470.131774 
L 371.887833 472.767995 
L 374.091845 471.435122 
L 376.295858 472.23451 
L 378.49987 476.536336 
L 380.703883 475.107792 
L 382.907895 462.107851 
L 385.111908 471.809629 
L 387.315921 472.148813 
L 389.519933 478.471982 
L 391.723946 478.274346 
L 393.927958 459.622517 
L 396.131971 472.715825 
L 398.335983 468.819473 
L 400.539996 471.409384 
L 402.744009 471.672659 
L 404.948021 473.024332 
L 407.152034 472.165703 
L 409.356046 471.695481 
L 411.560059 480.075908 
L 413.764071 477.79816 
L 415.968084 460.676378 
L 418.172097 476.392824 
L 420.376109 465.880875 
L 422.580122 475.725546 
L 424.784134 466.637362 
L 426.988147 473.198689 
L 429.192159 467.549087 
L 431.396172 481.282558 
L 433.600185 468.785136 
L 435.804197 474.832759 
L 438.00821 466.139889 
L 440.212222 475.092254 
L 442.416235 468.201991 
L 444.620247 468.556302 
L 446.82426 472.540345 
L 449.028273 472.135687 
L 451.232285 471.417832 
L 453.436298 471.75191 
L 455.64031 480.270121 
L 457.844323 468.998368 
L 460.048335 465.886232 
L 462.252348 471.58461 
L 464.456361 471.93731 
L 466.660373 471.617228 
L 468.864386 483.388457 
L 471.068398 462.006788 
L 473.272411 468.726103 
L 475.476423 476.728151 
L 477.680436 481.623028 
L 479.884449 456.916827 
L 482.088461 471.390673 
L 484.292474 472.294951 
L 486.496486 472.14128 
L 488.700499 487.673797 
L 490.904511 487.899228 
L 493.108524 436.479466 
L 495.312537 470.791145 
L 497.516549 472.290087 
L 499.720562 471.898819 
L 501.924574 471.891107 
L 504.128587 472.13613 
L 506.332599 472.229789 
L 508.536612 469.911924 
L 510.740625 476.041848 
L 512.944637 470.323072 
L 515.14865 489.941108 
L 517.352662 453.722642 
L 519.556675 469.602919 
L 521.760687 473.626469 
L 523.9647 478.832685 
L 526.168713 476.517362 
L 528.372725 457.911258 
L 530.576738 472.191385 
L 532.78075 471.104353 
L 534.984763 474.474605 
L 537.188775 478.177641 
L 539.392788 461.417438 
L 541.596801 472.628 
L 543.800813 487.077787 
L 546.004826 473.333923 
L 548.208838 456.379869 
L 550.412851 467.928948 
L 552.616863 472.310543 
L 554.820876 477.426683 
L 557.024889 488.105284 
L 559.228901 517.733549 
L 561.432914 470.041572 
L 563.636926 413.621698 
L 565.840939 460.530701 
L 568.044951 476.532008 
L 570.248964 479.783217 
L 572.452977 467.949871 
L 574.656989 463.789342 
L 576.861002 480.342671 
L 579.065014 467.154113 
L 581.269027 473.750868 
L 583.473039 472.376706 
L 585.677052 473.547184 
L 587.881065 482.307698 
L 590.085077 465.619668 
L 592.28909 460.632426 
L 594.493102 471.569721 
L 596.697115 477.603173 
L 598.901127 481.482172 
L 601.10514 468.350078 
L 603.309153 467.170842 
L 605.513165 463.874388 
L 607.717178 473.562463 
L 609.92119 468.223239 
L 612.125203 472.936438 
L 614.329215 471.339762 
L 616.533228 472.306232 
L 618.737241 472.823151 
L 620.941253 485.588671 
L 623.145266 461.119184 
L 625.349278 467.704519 
L 627.553291 470.942864 
L 629.757303 471.704956 
L 631.961316 480.260666 
L 634.165329 465.836089 
L 636.369341 471.125829 
L 638.573354 477.14723 
L 640.777366 464.85645 
L 642.981379 476.51266 
L 645.185391 467.142312 
L 647.389404 471.451501 
L 649.593417 471.847492 
L 651.797429 473.588098 
L 654.001442 483.817511 
L 656.205454 463.285936 
L 658.409467 465.191395 
L 660.613479 471.925741 
L 662.817492 471.987351 
L 665.021505 475.906772 
L 667.225517 469.125361 
L 669.42953 468.914949 
L 671.633542 480.0232 
L 673.837555 479.330947 
L 676.041567 469.919737 
L 678.24558 495.059125 
L 680.449593 455.034002 
L 682.653605 449.853428 
L 684.857618 472.397649 
L 687.06163 474.687327 
L 689.265643 469.769745 
L 691.469655 472.696532 
L 693.673668 469.663242 
L 695.877681 471.684584 
L 698.081693 479.345737 
L 700.285706 472.138005 
L 702.489718 463.060411 
L 704.693731 471.871103 
L 706.897743 472.038938 
L 709.101756 471.940863 
L 713.509781 472.255238 
L 715.713794 471.248582 
L 717.917806 471.472046 
L 720.121819 472.691123 
L 722.325831 471.668438 
L 724.529844 482.307311 
L 726.733857 470.7744 
L 728.937869 462.084467 
L 731.141882 471.442866 
L 735.549907 472.644674 
L 737.753919 471.856948 
L 739.957932 471.673127 
L 742.161945 472.578367 
L 744.365957 471.526217 
L 746.56997 474.962266 
L 748.773982 471.49582 
L 750.977995 473.468303 
L 753.182007 489.016969 
L 755.38602 472.594689 
L 757.590033 454.621872 
L 759.794045 468.68581 
L 761.998058 471.772265 
L 764.20207 474.096164 
L 766.406083 477.619879 
L 768.610095 465.028368 
L 770.814108 469.542642 
L 773.018121 478.765861 
L 775.222133 486.576106 
L 777.426146 448.57893 
L 779.630158 472.72364 
L 781.834171 470.691931 
L 784.038183 473.089613 
L 786.242196 472.099283 
L 788.446209 484.418398 
L 790.650221 466.484237 
L 792.854234 466.838643 
L 795.058246 467.806107 
L 797.262259 477.443182 
L 799.466271 469.637846 
L 801.670284 467.846714 
L 803.874297 471.932078 
L 808.282322 472.427258 
L 810.486334 478.968856 
L 812.690347 463.466788 
L 814.894359 470.358443 
L 817.098372 471.931333 
L 819.302385 475.054533 
L 821.506397 482.710093 
L 823.71041 460.124347 
L 825.914422 470.913583 
L 828.118435 476.012736 
L 830.322447 474.499766 
L 832.52646 464.134335 
L 834.730473 472.196476 
L 836.934485 471.338684 
L 839.138498 471.291074 
L 841.34251 474.131341 
L 843.546523 470.512147 
L 845.750535 470.357954 
L 847.954548 472.51927 
L 850.158561 471.898122 
L 852.362573 476.120888 
L 854.566586 471.538104 
L 856.770598 451.50825 
L 858.974611 549.686942 
L 858.974611 549.686942 
" style="fill:none;stroke:#1b9e77;stroke-linecap:round;"/>
   </g>
   <g id="patch_3">
    <path d="M 909.6669 592.92 
L 909.6669 65.88 
" style="fill:none;"/>
   </g>
   <g id="patch_4">
    <path d="M 138.2625 592.92 
L 138.2625 65.88 
" style="fill:none;"/>
   </g>
   <g id="patch_5">
    <path d="M 138.2625 592.92 
L 909.6669 592.92 
" style="fill:none;"/>
   </g>
   <g id="patch_6">
    <path d="M 138.2625 65.88 
L 909.6669 65.88 
" style="fill:none;"/>
   </g>
   <g id="legend_1">
    <g id="line2d_110">
     <path d="M 998.519784 73.975198 
L 1018.511784 73.975198 
" style="fill:none;stroke:#1b9e77;stroke-linecap:round;"/>
    </g>
    <g id="line2d_111"/>
    <g id="text_18">
     <!-- Download -->
     <defs>
      <path d="M 54.890625 33.015625 
L 54.890625 0 
L 45.90625 0 
L 45.90625 32.71875 
Q 45.90625 40.484375 42.875 44.328125 
Q 39.84375 48.1875 33.796875 48.1875 
Q 26.515625 48.1875 22.3125 43.546875 
Q 18.109375 38.921875 18.109375 30.90625 
L 18.109375 0 
L 9.078125 0 
L 9.078125 54.6875 
L 18.109375 54.6875 
L 18.109375 46.1875 
Q 21.34375 51.125 25.703125 53.5625 
Q 30.078125 56 35.796875 56 
Q 45.21875 56 50.046875 50.171875 
Q 54.890625 44.34375 54.890625 33.015625 
" id="BitstreamVeraSans-Roman-6e"/>
      <path d="M 19.671875 64.796875 
L 19.671875 8.109375 
L 31.59375 8.109375 
Q 46.6875 8.109375 53.6875 14.9375 
Q 60.6875 21.78125 60.6875 36.53125 
Q 60.6875 51.171875 53.6875 57.984375 
Q 46.6875 64.796875 31.59375 64.796875 
z
M 9.8125 72.90625 
L 30.078125 72.90625 
Q 51.265625 72.90625 61.171875 64.09375 
Q 71.09375 55.28125 71.09375 36.53125 
Q 71.09375 17.671875 61.125 8.828125 
Q 51.171875 0 30.078125 0 
L 9.8125 0 
z
" id="BitstreamVeraSans-Roman-44"/>
      <path d="M 34.28125 27.484375 
Q 23.390625 27.484375 19.1875 25 
Q 14.984375 22.515625 14.984375 16.5 
Q 14.984375 11.71875 18.140625 8.90625 
Q 21.296875 6.109375 26.703125 6.109375 
Q 34.1875 6.109375 38.703125 11.40625 
Q 43.21875 16.703125 43.21875 25.484375 
L 43.21875 27.484375 
z
M 52.203125 31.203125 
L 52.203125 0 
L 43.21875 0 
L 43.21875 8.296875 
Q 40.140625 3.328125 35.546875 0.953125 
Q 30.953125 -1.421875 24.3125 -1.421875 
Q 15.921875 -1.421875 10.953125 3.296875 
Q 6 8.015625 6 15.921875 
Q 6 25.140625 12.171875 29.828125 
Q 18.359375 34.515625 30.609375 34.515625 
L 43.21875 34.515625 
L 43.21875 35.40625 
Q 43.21875 41.609375 39.140625 45 
Q 35.0625 48.390625 27.6875 48.390625 
Q 23 48.390625 18.546875 47.265625 
Q 14.109375 46.140625 10.015625 43.890625 
L 10.015625 52.203125 
Q 14.9375 54.109375 19.578125 55.046875 
Q 24.21875 56 28.609375 56 
Q 40.484375 56 46.34375 49.84375 
Q 52.203125 43.703125 52.203125 31.203125 
" id="BitstreamVeraSans-Roman-61"/>
      <path d="M 4.203125 54.6875 
L 13.1875 54.6875 
L 24.421875 12.015625 
L 35.59375 54.6875 
L 46.1875 54.6875 
L 57.421875 12.015625 
L 68.609375 54.6875 
L 77.59375 54.6875 
L 63.28125 0 
L 52.6875 0 
L 40.921875 44.828125 
L 29.109375 0 
L 18.5 0 
z
" id="BitstreamVeraSans-Roman-77"/>
      <path d="M 9.421875 75.984375 
L 18.40625 75.984375 
L 18.40625 0 
L 9.421875 0 
z
" id="BitstreamVeraSans-Roman-6c"/>
      <path d="M 30.609375 48.390625 
Q 23.390625 48.390625 19.1875 42.75 
Q 14.984375 37.109375 14.984375 27.296875 
Q 14.984375 17.484375 19.15625 11.84375 
Q 23.34375 6.203125 30.609375 6.203125 
Q 37.796875 6.203125 41.984375 11.859375 
Q 46.1875 17.53125 46.1875 27.296875 
Q 46.1875 37.015625 41.984375 42.703125 
Q 37.796875 48.390625 30.609375 48.390625 
M 30.609375 56 
Q 42.328125 56 49.015625 48.375 
Q 55.71875 40.765625 55.71875 27.296875 
Q 55.71875 13.875 49.015625 6.21875 
Q 42.328125 -1.421875 30.609375 -1.421875 
Q 18.84375 -1.421875 12.171875 6.21875 
Q 5.515625 13.875 5.515625 27.296875 
Q 5.515625 40.765625 12.171875 48.375 
Q 18.84375 56 30.609375 56 
" id="BitstreamVeraSans-Roman-6f"/>
      <path d="M 45.40625 46.390625 
L 45.40625 75.984375 
L 54.390625 75.984375 
L 54.390625 0 
L 45.40625 0 
L 45.40625 8.203125 
Q 42.578125 3.328125 38.25 0.953125 
Q 33.9375 -1.421875 27.875 -1.421875 
Q 17.96875 -1.421875 11.734375 6.484375 
Q 5.515625 14.40625 5.515625 27.296875 
Q 5.515625 40.1875 11.734375 48.09375 
Q 17.96875 56 27.875 56 
Q 33.9375 56 38.25 53.625 
Q 42.578125 51.265625 45.40625 46.390625 
M 14.796875 27.296875 
Q 14.796875 17.390625 18.875 11.75 
Q 22.953125 6.109375 30.078125 6.109375 
Q 37.203125 6.109375 41.296875 11.75 
Q 45.40625 17.390625 45.40625 27.296875 
Q 45.40625 37.203125 41.296875 42.84375 
Q 37.203125 48.484375 30.078125 48.484375 
Q 22.953125 48.484375 18.875 42.84375 
Q 14.796875 37.203125 14.796875 27.296875 
" id="BitstreamVeraSans-Roman-64"/>
     </defs>
     <g style="fill:#262626;" transform="translate(1026.508584 77.473798125)scale(0.09996 -0.09996)">
      <use xlink:href="#BitstreamVeraSans-Roman-44"/>
      <use x="77.001953125" xlink:href="#BitstreamVeraSans-Roman-6f"/>
      <use x="138.18359375" xlink:href="#BitstreamVeraSans-Roman-77"/>
      <use x="219.970703125" xlink:href="#BitstreamVeraSans-Roman-6e"/>
      <use x="283.349609375" xlink:href="#BitstreamVeraSans-Roman-6c"/>
      <use x="311.1328125" xlink:href="#BitstreamVeraSans-Roman-6f"/>
      <use x="372.314453125" xlink:href="#BitstreamVeraSans-Roman-61"/>
      <use x="433.59375" xlink:href="#BitstreamVeraSans-Roman-64"/>
     </g>
    </g>
    <g id="line2d_112">
     <path d="M 998.519784 88.647452 
L 1018.511784 88.647452 
" style="fill:none;stroke:#d95f02;stroke-linecap:round;"/>
    </g>
    <g id="line2d_113"/>
    <g id="text_19">
     <!-- Ping (ms) -->
     <defs>
      <path d="M 45.40625 27.984375 
Q 45.40625 37.75 41.375 43.109375 
Q 37.359375 48.484375 30.078125 48.484375 
Q 22.859375 48.484375 18.828125 43.109375 
Q 14.796875 37.75 14.796875 27.984375 
Q 14.796875 18.265625 18.828125 12.890625 
Q 22.859375 7.515625 30.078125 7.515625 
Q 37.359375 7.515625 41.375 12.890625 
Q 45.40625 18.265625 45.40625 27.984375 
M 54.390625 6.78125 
Q 54.390625 -7.171875 48.1875 -13.984375 
Q 42 -20.796875 29.203125 -20.796875 
Q 24.46875 -20.796875 20.265625 -20.09375 
Q 16.0625 -19.390625 12.109375 -17.921875 
L 12.109375 -9.1875 
Q 16.0625 -11.328125 19.921875 -12.34375 
Q 23.78125 -13.375 27.78125 -13.375 
Q 36.625 -13.375 41.015625 -8.765625 
Q 45.40625 -4.15625 45.40625 5.171875 
L 45.40625 9.625 
Q 42.625 4.78125 38.28125 2.390625 
Q 33.9375 0 27.875 0 
Q 17.828125 0 11.671875 7.65625 
Q 5.515625 15.328125 5.515625 27.984375 
Q 5.515625 40.671875 11.671875 48.328125 
Q 17.828125 56 27.875 56 
Q 33.9375 56 38.28125 53.609375 
Q 42.625 51.21875 45.40625 46.390625 
L 45.40625 54.6875 
L 54.390625 54.6875 
z
" id="BitstreamVeraSans-Roman-67"/>
      <path d="M 19.671875 64.796875 
L 19.671875 37.40625 
L 32.078125 37.40625 
Q 38.96875 37.40625 42.71875 40.96875 
Q 46.484375 44.53125 46.484375 51.125 
Q 46.484375 57.671875 42.71875 61.234375 
Q 38.96875 64.796875 32.078125 64.796875 
z
M 9.8125 72.90625 
L 32.078125 72.90625 
Q 44.34375 72.90625 50.609375 67.359375 
Q 56.890625 61.8125 56.890625 51.125 
Q 56.890625 40.328125 50.609375 34.8125 
Q 44.34375 29.296875 32.078125 29.296875 
L 19.671875 29.296875 
L 19.671875 0 
L 9.8125 0 
z
" id="BitstreamVeraSans-Roman-50"/>
     </defs>
     <g style="fill:#262626;" transform="translate(1026.508584 92.146051875)scale(0.09996 -0.09996)">
      <use xlink:href="#BitstreamVeraSans-Roman-50"/>
      <use x="60.271484375" xlink:href="#BitstreamVeraSans-Roman-69"/>
      <use x="88.0546875" xlink:href="#BitstreamVeraSans-Roman-6e"/>
      <use x="151.43359375" xlink:href="#BitstreamVeraSans-Roman-67"/>
      <use x="214.91015625" xlink:href="#BitstreamVeraSans-Roman-20"/>
      <use x="246.697265625" xlink:href="#BitstreamVeraSans-Roman-28"/>
      <use x="285.7109375" xlink:href="#BitstreamVeraSans-Roman-6d"/>
      <use x="383.123046875" xlink:href="#BitstreamVeraSans-Roman-73"/>
      <use x="435.22265625" xlink:href="#BitstreamVeraSans-Roman-29"/>
     </g>
    </g>
   </g>
  </g>
  <g id="axes_2">
   <g id="matplotlib.axis_3">
    <g id="ytick_37">
     <g id="line2d_114">
      <g>
       <use style="fill:#262626;stroke:#262626;stroke-width:0.5;" x="909.6669" xlink:href="#med322b4bcf" y="584.361645146"/>
      </g>
     </g>
     <g id="text_20">
      <!-- 5 -->
      <g style="fill:#262626;" transform="translate(913.6669 587.672895146)scale(0.12 -0.12)">
       <use xlink:href="#BitstreamVeraSans-Roman-35"/>
      </g>
     </g>
    </g>
    <g id="ytick_38">
     <g id="line2d_115">
      <g>
       <use style="fill:#262626;stroke:#262626;stroke-width:0.5;" x="909.6669" xlink:href="#med322b4bcf" y="497.827631058"/>
      </g>
     </g>
     <g id="text_21">
      <!-- 10 -->
      <g style="fill:#262626;" transform="translate(913.6669 501.138881058)scale(0.12 -0.12)">
       <use xlink:href="#BitstreamVeraSans-Roman-31"/>
       <use x="63.623046875" xlink:href="#BitstreamVeraSans-Roman-30"/>
      </g>
     </g>
    </g>
    <g id="ytick_39">
     <g id="line2d_116">
      <g>
       <use style="fill:#262626;stroke:#262626;stroke-width:0.5;" x="909.6669" xlink:href="#med322b4bcf" y="411.29361697"/>
      </g>
     </g>
     <g id="text_22">
      <!-- 15 -->
      <g style="fill:#262626;" transform="translate(913.6669 414.60486697)scale(0.12 -0.12)">
       <use xlink:href="#BitstreamVeraSans-Roman-31"/>
       <use x="63.623046875" xlink:href="#BitstreamVeraSans-Roman-35"/>
      </g>
     </g>
    </g>
    <g id="ytick_40">
     <g id="line2d_117">
      <g>
       <use style="fill:#262626;stroke:#262626;stroke-width:0.5;" x="909.6669" xlink:href="#med322b4bcf" y="324.759602881"/>
      </g>
     </g>
     <g id="text_23">
      <!-- 20 -->
      <g style="fill:#262626;" transform="translate(913.6669 328.070852881)scale(0.12 -0.12)">
       <use xlink:href="#BitstreamVeraSans-Roman-32"/>
       <use x="63.623046875" xlink:href="#BitstreamVeraSans-Roman-30"/>
      </g>
     </g>
    </g>
    <g id="ytick_41">
     <g id="line2d_118">
      <g>
       <use style="fill:#262626;stroke:#262626;stroke-width:0.5;" x="909.6669" xlink:href="#med322b4bcf" y="238.225588793"/>
      </g>
     </g>
     <g id="text_24">
      <!-- 25 -->
      <g style="fill:#262626;" transform="translate(913.6669 241.536838793)scale(0.12 -0.12)">
       <use xlink:href="#BitstreamVeraSans-Roman-32"/>
       <use x="63.623046875" xlink:href="#BitstreamVeraSans-Roman-35"/>
      </g>
     </g>
    </g>
    <g id="ytick_42">
     <g id="line2d_119">
      <g>
       <use style="fill:#262626;stroke:#262626;stroke-width:0.5;" x="909.6669" xlink:href="#med322b4bcf" y="151.691574705"/>
      </g>
     </g>
     <g id="text_25">
      <!-- 30 -->
      <g style="fill:#262626;" transform="translate(913.6669 155.002824705)scale(0.12 -0.12)">
       <use xlink:href="#BitstreamVeraSans-Roman-33"/>
       <use x="63.623046875" xlink:href="#BitstreamVeraSans-Roman-30"/>
      </g>
     </g>
    </g>
    <g id="ytick_43">
     <g id="line2d_120">
      <g>
       <use style="fill:#262626;stroke:#262626;stroke-width:0.5;" x="909.6669" xlink:href="#med322b4bcf" y="567.054842328"/>
      </g>
     </g>
    </g>
    <g id="ytick_44">
     <g id="line2d_121">
      <g>
       <use style="fill:#262626;stroke:#262626;stroke-width:0.5;" x="909.6669" xlink:href="#med322b4bcf" y="549.748039511"/>
      </g>
     </g>
    </g>
    <g id="ytick_45">
     <g id="line2d_122">
      <g>
       <use style="fill:#262626;stroke:#262626;stroke-width:0.5;" x="909.6669" xlink:href="#med322b4bcf" y="532.441236693"/>
      </g>
     </g>
    </g>
    <g id="ytick_46">
     <g id="line2d_123">
      <g>
       <use style="fill:#262626;stroke:#262626;stroke-width:0.5;" x="909.6669" xlink:href="#med322b4bcf" y="515.134433875"/>
      </g>
     </g>
    </g>
    <g id="ytick_47">
     <g id="line2d_124">
      <g>
       <use style="fill:#262626;stroke:#262626;stroke-width:0.5;" x="909.6669" xlink:href="#med322b4bcf" y="480.52082824"/>
      </g>
     </g>
    </g>
    <g id="ytick_48">
     <g id="line2d_125">
      <g>
       <use style="fill:#262626;stroke:#262626;stroke-width:0.5;" x="909.6669" xlink:href="#med322b4bcf" y="463.214025422"/>
      </g>
     </g>
    </g>
    <g id="ytick_49">
     <g id="line2d_126">
      <g>
       <use style="fill:#262626;stroke:#262626;stroke-width:0.5;" x="909.6669" xlink:href="#med322b4bcf" y="445.907222605"/>
      </g>
     </g>
    </g>
    <g id="ytick_50">
     <g id="line2d_127">
      <g>
       <use style="fill:#262626;stroke:#262626;stroke-width:0.5;" x="909.6669" xlink:href="#med322b4bcf" y="428.600419787"/>
      </g>
     </g>
    </g>
    <g id="ytick_51">
     <g id="line2d_128">
      <g>
       <use style="fill:#262626;stroke:#262626;stroke-width:0.5;" x="909.6669" xlink:href="#med322b4bcf" y="393.986814152"/>
      </g>
     </g>
    </g>
    <g id="ytick_52">
     <g id="line2d_129">
      <g>
       <use style="fill:#262626;stroke:#262626;stroke-width:0.5;" x="909.6669" xlink:href="#med322b4bcf" y="376.680011334"/>
      </g>
     </g>
    </g>
    <g id="ytick_53">
     <g id="line2d_130">
      <g>
       <use style="fill:#262626;stroke:#262626;stroke-width:0.5;" x="909.6669" xlink:href="#med322b4bcf" y="359.373208517"/>
      </g>
     </g>
    </g>
    <g id="ytick_54">
     <g id="line2d_131">
      <g>
       <use style="fill:#262626;stroke:#262626;stroke-width:0.5;" x="909.6669" xlink:href="#med322b4bcf" y="342.066405699"/>
      </g>
     </g>
    </g>
    <g id="ytick_55">
     <g id="line2d_132">
      <g>
       <use style="fill:#262626;stroke:#262626;stroke-width:0.5;" x="909.6669" xlink:href="#med322b4bcf" y="307.452800064"/>
      </g>
     </g>
    </g>
    <g id="ytick_56">
     <g id="line2d_133">
      <g>
       <use style="fill:#262626;stroke:#262626;stroke-width:0.5;" x="909.6669" xlink:href="#med322b4bcf" y="290.145997246"/>
      </g>
     </g>
    </g>
    <g id="ytick_57">
     <g id="line2d_134">
      <g>
       <use style="fill:#262626;stroke:#262626;stroke-width:0.5;" x="909.6669" xlink:href="#med322b4bcf" y="272.839194429"/>
      </g>
     </g>
    </g>
    <g id="ytick_58">
     <g id="line2d_135">
      <g>
       <use style="fill:#262626;stroke:#262626;stroke-width:0.5;" x="909.6669" xlink:href="#med322b4bcf" y="255.532391611"/>
      </g>
     </g>
    </g>
    <g id="ytick_59">
     <g id="line2d_136">
      <g>
       <use style="fill:#262626;stroke:#262626;stroke-width:0.5;" x="909.6669" xlink:href="#med322b4bcf" y="220.918785976"/>
      </g>
     </g>
    </g>
    <g id="ytick_60">
     <g id="line2d_137">
      <g>
       <use style="fill:#262626;stroke:#262626;stroke-width:0.5;" x="909.6669" xlink:href="#med322b4bcf" y="203.611983158"/>
      </g>
     </g>
    </g>
    <g id="ytick_61">
     <g id="line2d_138">
      <g>
       <use style="fill:#262626;stroke:#262626;stroke-width:0.5;" x="909.6669" xlink:href="#med322b4bcf" y="186.305180341"/>
      </g>
     </g>
    </g>
    <g id="ytick_62">
     <g id="line2d_139">
      <g>
       <use style="fill:#262626;stroke:#262626;stroke-width:0.5;" x="909.6669" xlink:href="#med322b4bcf" y="168.998377523"/>
      </g>
     </g>
    </g>
    <g id="ytick_63">
     <g id="line2d_140">
      <g>
       <use style="fill:#262626;stroke:#262626;stroke-width:0.5;" x="909.6669" xlink:href="#med322b4bcf" y="134.384771888"/>
      </g>
     </g>
    </g>
    <g id="ytick_64">
     <g id="line2d_141">
      <g>
       <use style="fill:#262626;stroke:#262626;stroke-width:0.5;" x="909.6669" xlink:href="#med322b4bcf" y="117.07796907"/>
      </g>
     </g>
    </g>
    <g id="ytick_65">
     <g id="line2d_142">
      <g>
       <use style="fill:#262626;stroke:#262626;stroke-width:0.5;" x="909.6669" xlink:href="#med322b4bcf" y="99.7711662524"/>
      </g>
     </g>
    </g>
    <g id="ytick_66">
     <g id="line2d_143">
      <g>
       <use style="fill:#262626;stroke:#262626;stroke-width:0.5;" x="909.6669" xlink:href="#med322b4bcf" y="82.4643634348"/>
      </g>
     </g>
    </g>
    <g id="text_26">
     <!-- ms -->
     <g style="fill:#262626;" transform="translate(943.055025 338.37)rotate(-90.0)scale(0.12 -0.12)">
      <use xlink:href="#BitstreamVeraSans-Roman-6d"/>
      <use x="97.412109375" xlink:href="#BitstreamVeraSans-Roman-73"/>
     </g>
    </g>
   </g>
   <g id="line2d_144">
    <path clip-path="url(#p251635567c)" d="M 138.2625 541.959978 
L 140.466513 458.763897 
L 142.670525 579.509532 
L 144.874538 537.182652 
L 147.07855 576.453334 
L 149.282563 513.901746 
L 151.486575 514.359266 
L 153.690588 580.017259 
L 155.894601 569.74961 
L 158.098613 440.726708 
L 160.302626 501.657347 
L 162.506638 565.793497 
L 164.710651 579.583847 
L 166.914663 555.558269 
L 169.118676 541.806767 
L 171.322689 563.490751 
L 173.526701 509.440603 
L 175.730714 524.369913 
L 177.934726 500.627806 
L 180.138739 497.574176 
L 182.342751 552.879905 
L 184.546764 553.540111 
L 186.750777 530.290216 
L 188.954789 572.96556 
L 191.158802 455.429455 
L 193.362814 515.795991 
L 195.566827 386.112011 
L 197.770839 473.427214 
L 199.974852 476.015286 
L 202.178865 486.297505 
L 204.382877 535.167886 
L 206.58689 477.566713 
L 208.790902 490.178472 
L 210.994915 386.830852 
L 213.198927 451.142859 
L 215.40294 478.790148 
L 217.606953 492.291025 
L 219.810965 441.458084 
L 222.014978 517.609704 
L 224.21899 478.008075 
L 226.423003 522.134385 
L 228.627015 561.971341 
L 230.831028 494.318396 
L 233.035041 405.954935 
L 235.239053 339.826314 
L 237.443066 494.333568 
L 239.647078 496.674082 
L 241.851091 526.300046 
L 244.055103 409.192525 
L 246.259116 482.275465 
L 248.463129 441.81178 
L 250.667141 481.318009 
L 252.871154 456.612296 
L 255.075166 503.616695 
L 257.279179 530.636301 
L 259.483191 516.063597 
L 261.687204 504.029616 
L 263.891217 453.735702 
L 266.095229 390.009477 
L 268.299242 410.315641 
L 270.503254 428.553613 
L 272.707267 455.718506 
L 274.911279 415.68506 
L 277.115292 368.02661 
L 279.319305 471.722843 
L 281.523317 536.709734 
L 283.72733 495.20398 
L 285.931342 504.807379 
L 290.339367 433.762853 
L 292.54338 436.039384 
L 294.747393 363.003067 
L 296.951405 377.24473 
L 299.155418 427.630732 
L 301.35943 417.283249 
L 303.563443 463.554364 
L 305.767455 420.69319 
L 307.971468 313.221296 
L 310.175481 388.060281 
L 312.379493 474.902675 
L 314.583506 440.830542 
L 316.787518 425.363755 
L 318.991531 519.704466 
L 321.195543 502.49585 
L 323.399556 497.853652 
L 325.603569 481.355089 
L 327.807581 489.557408 
L 330.011594 545.737216 
L 332.215606 508.288095 
L 334.419619 525.301518 
L 336.623631 551.324647 
L 338.827644 482.39927 
L 341.031657 488.68445 
L 343.235669 500.308747 
L 347.643694 373.311877 
L 349.847707 408.521855 
L 352.051719 567.054842 
L 354.255732 567.297929 
L 356.459745 561.613052 
L 358.663757 571.602904 
L 360.86777 587.752941 
L 363.071782 578.764345 
L 365.275795 575.977391 
L 367.479807 519.572272 
L 369.68382 443.381449 
L 371.887833 441.244305 
L 374.091845 432.187728 
L 376.295858 436.140814 
L 378.49987 459.429047 
L 380.703883 514.080541 
L 382.907895 532.254842 
L 385.111908 538.606469 
L 387.315921 471.814067 
L 389.519933 374.429798 
L 391.723946 518.901303 
L 393.927958 416.233594 
L 396.131971 460.913984 
L 398.335983 526.121716 
L 400.539996 417.324066 
L 402.744009 472.134698 
L 404.948021 570.445483 
L 407.152034 501.55641 
L 409.356046 420.610848 
L 411.560059 508.405818 
L 413.764071 445.327707 
L 415.968084 460.587815 
L 418.172097 504.304172 
L 420.376109 336.114768 
L 422.580122 411.339596 
L 424.784134 530.283891 
L 426.988147 450.148967 
L 429.192159 474.660003 
L 431.396172 376.021221 
L 433.600185 419.407647 
L 435.804197 436.704 
L 438.00821 512.931564 
L 440.212222 450.550753 
L 442.416235 577.215708 
L 444.620247 564.362453 
L 446.82426 568.375015 
L 449.028273 539.898363 
L 451.232285 579.713695 
L 453.436298 537.614714 
L 455.64031 414.342366 
L 457.844323 470.976869 
L 460.048335 548.54867 
L 462.252348 500.165274 
L 464.456361 430.488888 
L 466.660373 459.996005 
L 468.864386 558.839201 
L 471.068398 562.936407 
L 473.272411 554.457046 
L 475.476423 457.044714 
L 477.680436 507.168831 
L 479.884449 543.741393 
L 482.088461 432.79838 
L 484.292474 581.342923 
L 486.496486 512.138285 
L 488.700499 77.108093 
L 490.904511 520.853484 
L 493.108524 544.58101 
L 495.312537 425.678084 
L 497.516549 560.91013 
L 499.720562 506.638921 
L 501.924574 567.876613 
L 504.128587 570.769732 
L 506.332599 574.429238 
L 508.536612 478.005587 
L 510.740625 536.122357 
L 512.944637 561.880955 
L 515.14865 491.31404 
L 517.352662 549.212329 
L 519.556675 443.325888 
L 521.760687 506.068583 
L 523.9647 381.864459 
L 526.168713 376.681544 
L 528.372725 579.28152 
L 530.576738 559.201435 
L 532.78075 493.843479 
L 534.984763 459.894755 
L 537.188775 584.562669 
L 539.392788 551.472323 
L 543.800813 396.407158 
L 546.004826 571.700194 
L 548.208838 392.518733 
L 550.412851 467.504032 
L 552.616863 423.848527 
L 554.820876 471.919551 
L 557.024889 234.018322 
L 559.228901 500.029273 
L 561.432914 561.782519 
L 563.636926 210.351206 
L 565.840939 448.656467 
L 568.044951 523.885919 
L 570.248964 284.511179 
L 572.452977 240.982974 
L 574.656989 449.266194 
L 576.861002 381.290706 
L 579.065014 442.906794 
L 581.269027 489.414576 
L 583.473039 485.296997 
L 585.677052 541.979516 
L 587.881065 466.038788 
L 590.085077 516.472928 
L 592.28909 578.129011 
L 594.493102 475.596 
L 596.697115 466.934253 
L 598.901127 397.361286 
L 601.10514 522.540217 
L 603.309153 341.168426 
L 605.513165 444.154515 
L 607.717178 459.820421 
L 609.92119 508.977401 
L 612.125203 419.847948 
L 614.329215 440.805845 
L 616.533228 449.368583 
L 618.737241 544.081392 
L 620.941253 320.090583 
L 623.145266 410.186251 
L 625.349278 533.705357 
L 627.553291 546.420332 
L 629.757303 540.157777 
L 631.961316 506.512797 
L 634.165329 389.822407 
L 636.369341 363.737446 
L 638.573354 530.898004 
L 640.777366 470.324764 
L 642.981379 446.477129 
L 647.389404 563.127684 
L 649.593417 580.361492 
L 651.797429 478.019379 
L 654.001442 396.746577 
L 656.205454 523.993406 
L 658.409467 553.904825 
L 660.613479 576.845115 
L 662.817492 560.011349 
L 665.021505 492.633041 
L 667.225517 480.710099 
L 669.42953 541.678475 
L 671.633542 502.555066 
L 673.837555 425.307505 
L 676.041567 71.047059 
L 678.24558 297.113098 
L 680.449593 400.554407 
L 682.653605 425.658848 
L 684.857618 546.378981 
L 687.06163 557.764735 
L 689.265643 547.54983 
L 691.469655 510.07827 
L 693.673668 465.712127 
L 695.877681 438.655732 
L 698.081693 422.879786 
L 700.285706 530.371478 
L 702.489718 578.600033 
L 704.693731 449.796237 
L 706.897743 382.912034 
L 709.101756 476.094676 
L 711.305769 561.958729 
L 713.509781 567.131238 
L 715.713794 482.845877 
L 717.917806 432.542474 
L 720.121819 465.231075 
L 722.325831 371.763267 
L 724.529844 426.862044 
L 726.733857 558.818487 
L 728.937869 540.127735 
L 731.141882 532.791338 
L 735.549907 455.407161 
L 737.753919 433.708525 
L 739.957932 481.507023 
L 742.161945 562.647255 
L 744.365957 484.812533 
L 746.56997 490.220015 
L 748.773982 524.433888 
L 750.977995 348.979354 
L 753.182007 237.221813 
L 755.38602 327.015407 
L 757.590033 374.437494 
L 759.794045 391.4621 
L 761.998058 468.954875 
L 764.20207 533.791424 
L 766.406083 572.901688 
L 768.610095 521.455288 
L 770.814108 426.732254 
L 773.018121 456.4272 
L 775.222133 509.955228 
L 777.426146 498.169799 
L 779.630158 479.973533 
L 781.834171 477.236871 
L 784.038183 501.920075 
L 786.242196 466.472133 
L 788.446209 489.395845 
L 790.650221 451.099263 
L 792.854234 489.962173 
L 795.058246 444.431493 
L 797.262259 342.045583 
L 799.466271 450.267294 
L 801.670284 436.614927 
L 803.874297 424.016157 
L 806.078309 545.018704 
L 808.282322 458.180372 
L 810.486334 391.595279 
L 812.690347 452.732656 
L 814.894359 450.582041 
L 817.098372 463.816652 
L 819.302385 464.575394 
L 821.506397 476.785415 
L 823.71041 570.251963 
L 825.914422 563.209382 
L 828.118435 533.478456 
L 830.322447 515.499557 
L 832.52646 446.077815 
L 834.730473 336.66519 
L 836.934485 471.068772 
L 839.138498 472.562402 
L 841.34251 275.103044 
L 843.546523 463.805694 
L 845.750535 461.302362 
L 847.954548 538.474516 
L 850.158561 575.523042 
L 852.362573 522.840715 
L 854.566586 444.586307 
L 856.770598 480.540056 
L 858.974611 586.552968 
L 861.178623 578.777714 
L 863.382636 554.999416 
L 865.586649 546.355562 
L 867.790661 533.422014 
L 869.994674 572.206148 
L 872.198686 507.753784 
L 874.402699 284.161054 
L 876.606711 498.357532 
L 878.810724 532.023712 
L 881.014737 521.623451 
L 883.218749 541.967863 
L 885.422762 573.984886 
L 887.626774 561.518667 
L 889.830787 569.937431 
L 892.034799 526.127704 
L 894.238812 533.135539 
L 896.442825 499.915938 
L 898.646837 464.463037 
L 900.85085 557.364236 
L 903.054862 569.783802 
L 905.258875 514.671725 
L 907.462887 336.974145 
L 909.6669 555.147245 
L 909.6669 555.147245 
" style="fill:none;stroke:#d95f02;stroke-linecap:round;"/>
   </g>
  </g>
  <g id="text_27">
   <!-- TCP download - N streams w/ping -->
   <defs>
    <path d="M 4.890625 31.390625 
L 31.203125 31.390625 
L 31.203125 23.390625 
L 4.890625 23.390625 
z
" id="BitstreamVeraSans-Roman-2d"/>
    <path d="M 64.40625 67.28125 
L 64.40625 56.890625 
Q 59.421875 61.53125 53.78125 63.8125 
Q 48.140625 66.109375 41.796875 66.109375 
Q 29.296875 66.109375 22.65625 58.46875 
Q 16.015625 50.828125 16.015625 36.375 
Q 16.015625 21.96875 22.65625 14.328125 
Q 29.296875 6.6875 41.796875 6.6875 
Q 48.140625 6.6875 53.78125 8.984375 
Q 59.421875 11.28125 64.40625 15.921875 
L 64.40625 5.609375 
Q 59.234375 2.09375 53.4375 0.328125 
Q 47.65625 -1.421875 41.21875 -1.421875 
Q 24.65625 -1.421875 15.125 8.703125 
Q 5.609375 18.84375 5.609375 36.375 
Q 5.609375 53.953125 15.125 64.078125 
Q 24.65625 74.21875 41.21875 74.21875 
Q 47.75 74.21875 53.53125 72.484375 
Q 59.328125 70.75 64.40625 67.28125 
" id="BitstreamVeraSans-Roman-43"/>
    <path d="M 41.109375 46.296875 
Q 39.59375 47.171875 37.8125 47.578125 
Q 36.03125 48 33.890625 48 
Q 26.265625 48 22.1875 43.046875 
Q 18.109375 38.09375 18.109375 28.8125 
L 18.109375 0 
L 9.078125 0 
L 9.078125 54.6875 
L 18.109375 54.6875 
L 18.109375 46.1875 
Q 20.953125 51.171875 25.484375 53.578125 
Q 30.03125 56 36.53125 56 
Q 37.453125 56 38.578125 55.875 
Q 39.703125 55.765625 41.0625 55.515625 
z
" id="BitstreamVeraSans-Roman-72"/>
    <path d="M 9.8125 72.90625 
L 23.09375 72.90625 
L 55.421875 11.921875 
L 55.421875 72.90625 
L 64.984375 72.90625 
L 64.984375 0 
L 51.703125 0 
L 19.390625 60.984375 
L 19.390625 0 
L 9.8125 0 
z
" id="BitstreamVeraSans-Roman-4e"/>
    <path d="M 18.109375 8.203125 
L 18.109375 -20.796875 
L 9.078125 -20.796875 
L 9.078125 54.6875 
L 18.109375 54.6875 
L 18.109375 46.390625 
Q 20.953125 51.265625 25.265625 53.625 
Q 29.59375 56 35.59375 56 
Q 45.5625 56 51.78125 48.09375 
Q 58.015625 40.1875 58.015625 27.296875 
Q 58.015625 14.40625 51.78125 6.484375 
Q 45.5625 -1.421875 35.59375 -1.421875 
Q 29.59375 -1.421875 25.265625 0.953125 
Q 20.953125 3.328125 18.109375 8.203125 
M 48.6875 27.296875 
Q 48.6875 37.203125 44.609375 42.84375 
Q 40.53125 48.484375 33.40625 48.484375 
Q 26.265625 48.484375 22.1875 42.84375 
Q 18.109375 37.203125 18.109375 27.296875 
Q 18.109375 17.390625 22.1875 11.75 
Q 26.265625 6.109375 33.40625 6.109375 
Q 40.53125 6.109375 44.609375 11.75 
Q 48.6875 17.390625 48.6875 27.296875 
" id="BitstreamVeraSans-Roman-70"/>
   </defs>
   <g style="fill:#262626;" transform="translate(435.25640625 10.6378125)scale(0.14 -0.14)">
    <use xlink:href="#BitstreamVeraSans-Roman-54"/>
    <use x="61.005859375" xlink:href="#BitstreamVeraSans-Roman-43"/>
    <use x="130.830078125" xlink:href="#BitstreamVeraSans-Roman-50"/>
    <use x="191.1328125" xlink:href="#BitstreamVeraSans-Roman-20"/>
    <use x="222.919921875" xlink:href="#BitstreamVeraSans-Roman-64"/>
    <use x="286.396484375" xlink:href="#BitstreamVeraSans-Roman-6f"/>
    <use x="347.578125" xlink:href="#BitstreamVeraSans-Roman-77"/>
    <use x="429.365234375" xlink:href="#BitstreamVeraSans-Roman-6e"/>
    <use x="492.744140625" xlink:href="#BitstreamVeraSans-Roman-6c"/>
    <use x="520.52734375" xlink:href="#BitstreamVeraSans-Roman-6f"/>
    <use x="581.708984375" xlink:href="#BitstreamVeraSans-Roman-61"/>
    <use x="642.98828125" xlink:href="#BitstreamVeraSans-Roman-64"/>
    <use x="706.46484375" xlink:href="#BitstreamVeraSans-Roman-20"/>
    <use x="738.251953125" xlink:href="#BitstreamVeraSans-Roman-2d"/>
    <use x="774.3359375" xlink:href="#BitstreamVeraSans-Roman-20"/>
    <use x="806.123046875" xlink:href="#BitstreamVeraSans-Roman-4e"/>
    <use x="880.927734375" xlink:href="#BitstreamVeraSans-Roman-20"/>
    <use x="912.71484375" xlink:href="#BitstreamVeraSans-Roman-73"/>
    <use x="964.814453125" xlink:href="#BitstreamVeraSans-Roman-74"/>
    <use x="1004.0234375" xlink:href="#BitstreamVeraSans-Roman-72"/>
    <use x="1045.10546875" xlink:href="#BitstreamVeraSans-Roman-65"/>
    <use x="1106.62890625" xlink:href="#BitstreamVeraSans-Roman-61"/>
    <use x="1167.908203125" xlink:href="#BitstreamVeraSans-Roman-6d"/>
    <use x="1265.3203125" xlink:href="#BitstreamVeraSans-Roman-73"/>
    <use x="1317.419921875" xlink:href="#BitstreamVeraSans-Roman-20"/>
    <use x="1349.20703125" xlink:href="#BitstreamVeraSans-Roman-77"/>
    <use x="1430.994140625" xlink:href="#BitstreamVeraSans-Roman-2f"/>
    <use x="1464.685546875" xlink:href="#BitstreamVeraSans-Roman-70"/>
    <use x="1528.162109375" xlink:href="#BitstreamVeraSans-Roman-69"/>
    <use x="1555.9453125" xlink:href="#BitstreamVeraSans-Roman-6e"/>
    <use x="1619.32421875" xlink:href="#BitstreamVeraSans-Roman-67"/>
   </g>
   <!-- Bandwidth and ping plot -->
   <defs>
    <path d="M 54.890625 33.015625 
L 54.890625 0 
L 45.90625 0 
L 45.90625 32.71875 
Q 45.90625 40.484375 42.875 44.328125 
Q 39.84375 48.1875 33.796875 48.1875 
Q 26.515625 48.1875 22.3125 43.546875 
Q 18.109375 38.921875 18.109375 30.90625 
L 18.109375 0 
L 9.078125 0 
L 9.078125 75.984375 
L 18.109375 75.984375 
L 18.109375 46.1875 
Q 21.34375 51.125 25.703125 53.5625 
Q 30.078125 56 35.796875 56 
Q 45.21875 56 50.046875 50.171875 
Q 54.890625 44.34375 54.890625 33.015625 
" id="BitstreamVeraSans-Roman-68"/>
    <path d="M 19.671875 34.8125 
L 19.671875 8.109375 
L 35.5 8.109375 
Q 43.453125 8.109375 47.28125 11.40625 
Q 51.125 14.703125 51.125 21.484375 
Q 51.125 28.328125 47.28125 31.5625 
Q 43.453125 34.8125 35.5 34.8125 
z
M 19.671875 64.796875 
L 19.671875 42.828125 
L 34.28125 42.828125 
Q 41.5 42.828125 45.03125 45.53125 
Q 48.578125 48.25 48.578125 53.8125 
Q 48.578125 59.328125 45.03125 62.0625 
Q 41.5 64.796875 34.28125 64.796875 
z
M 9.8125 72.90625 
L 35.015625 72.90625 
Q 46.296875 72.90625 52.390625 68.21875 
Q 58.5 63.53125 58.5 54.890625 
Q 58.5 48.1875 55.375 44.234375 
Q 52.25 40.28125 46.1875 39.3125 
Q 53.46875 37.75 57.5 32.78125 
Q 61.53125 27.828125 61.53125 20.40625 
Q 61.53125 10.640625 54.890625 5.3125 
Q 48.25 0 35.984375 0 
L 9.8125 0 
z
" id="BitstreamVeraSans-Roman-42"/>
   </defs>
   <g style="fill:#262626;" transform="translate(467.25515625 26.31475)scale(0.14 -0.14)">
    <use xlink:href="#BitstreamVeraSans-Roman-42"/>
    <use x="68.603515625" xlink:href="#BitstreamVeraSans-Roman-61"/>
    <use x="129.8828125" xlink:href="#BitstreamVeraSans-Roman-6e"/>
    <use x="193.26171875" xlink:href="#BitstreamVeraSans-Roman-64"/>
    <use x="256.73828125" xlink:href="#BitstreamVeraSans-Roman-77"/>
    <use x="338.525390625" xlink:href="#BitstreamVeraSans-Roman-69"/>
    <use x="366.30859375" xlink:href="#BitstreamVeraSans-Roman-64"/>
    <use x="429.78515625" xlink:href="#BitstreamVeraSans-Roman-74"/>
    <use x="468.994140625" xlink:href="#BitstreamVeraSans-Roman-68"/>
    <use x="532.373046875" xlink:href="#BitstreamVeraSans-Roman-20"/>
    <use x="564.16015625" xlink:href="#BitstreamVeraSans-Roman-61"/>
    <use x="625.439453125" xlink:href="#BitstreamVeraSans-Roman-6e"/>
    <use x="688.818359375" xlink:href="#BitstreamVeraSans-Roman-64"/>
    <use x="752.294921875" xlink:href="#BitstreamVeraSans-Roman-20"/>
    <use x="784.08203125" xlink:href="#BitstreamVeraSans-Roman-70"/>
    <use x="847.55859375" xlink:href="#BitstreamVeraSans-Roman-69"/>
    <use x="875.341796875" xlink:href="#BitstreamVeraSans-Roman-6e"/>
    <use x="938.720703125" xlink:href="#BitstreamVeraSans-Roman-67"/>
    <use x="1002.197265625" xlink:href="#BitstreamVeraSans-Roman-20"/>
    <use x="1033.984375" xlink:href="#BitstreamVeraSans-Roman-70"/>
    <use x="1097.4609375" xlink:href="#BitstreamVeraSans-Roman-6c"/>
    <use x="1125.244140625" xlink:href="#BitstreamVeraSans-Roman-6f"/>
    <use x="1186.42578125" xlink:href="#BitstreamVeraSans-Roman-74"/>
   </g>
   <!-- perg -->
   <g style="fill:#262626;" transform="translate(536.9784375 41.9916875)scale(0.14 -0.14)">
    <use xlink:href="#BitstreamVeraSans-Roman-70"/>
    <use x="63.4765625" xlink:href="#BitstreamVeraSans-Roman-65"/>
    <use x="125.0" xlink:href="#BitstreamVeraSans-Roman-72"/>
    <use x="166.09765625" xlink:href="#BitstreamVeraSans-Roman-67"/>
   </g>
  </g>
  <g id="text_28">
   <!-- Local/remote: dair-2506.local/flent-freemont.bufferbloat.net - Time: 2016-10-19T14:52:27.689109 - Length/step: 60s/0.20s -->
   <defs>
    <path d="M 10.6875 12.40625 
L 21 12.40625 
L 21 0 
L 10.6875 0 
z
" id="BitstreamVeraSans-Roman-2e"/>
    <path d="M 9.8125 72.90625 
L 19.671875 72.90625 
L 19.671875 8.296875 
L 55.171875 8.296875 
L 55.171875 0 
L 9.8125 0 
z
" id="BitstreamVeraSans-Roman-4c"/>
    <path d="M 37.109375 75.984375 
L 37.109375 68.5 
L 28.515625 68.5 
Q 23.6875 68.5 21.796875 66.546875 
Q 19.921875 64.59375 19.921875 59.515625 
L 19.921875 54.6875 
L 34.71875 54.6875 
L 34.71875 47.703125 
L 19.921875 47.703125 
L 19.921875 0 
L 10.890625 0 
L 10.890625 47.703125 
L 2.296875 47.703125 
L 2.296875 54.6875 
L 10.890625 54.6875 
L 10.890625 58.5 
Q 10.890625 67.625 15.140625 71.796875 
Q 19.390625 75.984375 28.609375 75.984375 
z
" id="BitstreamVeraSans-Roman-66"/>
    <path d="M 31.78125 34.625 
Q 24.75 34.625 20.71875 30.859375 
Q 16.703125 27.09375 16.703125 20.515625 
Q 16.703125 13.921875 20.71875 10.15625 
Q 24.75 6.390625 31.78125 6.390625 
Q 38.8125 6.390625 42.859375 10.171875 
Q 46.921875 13.96875 46.921875 20.515625 
Q 46.921875 27.09375 42.890625 30.859375 
Q 38.875 34.625 31.78125 34.625 
M 21.921875 38.8125 
Q 15.578125 40.375 12.03125 44.71875 
Q 8.5 49.078125 8.5 55.328125 
Q 8.5 64.0625 14.71875 69.140625 
Q 20.953125 74.21875 31.78125 74.21875 
Q 42.671875 74.21875 48.875 69.140625 
Q 55.078125 64.0625 55.078125 55.328125 
Q 55.078125 49.078125 51.53125 44.71875 
Q 48 40.375 41.703125 38.8125 
Q 48.828125 37.15625 52.796875 32.3125 
Q 56.78125 27.484375 56.78125 20.515625 
Q 56.78125 9.90625 50.3125 4.234375 
Q 43.84375 -1.421875 31.78125 -1.421875 
Q 19.734375 -1.421875 13.25 4.234375 
Q 6.78125 9.90625 6.78125 20.515625 
Q 6.78125 27.484375 10.78125 32.3125 
Q 14.796875 37.15625 21.921875 38.8125 
M 18.3125 54.390625 
Q 18.3125 48.734375 21.84375 45.5625 
Q 25.390625 42.390625 31.78125 42.390625 
Q 38.140625 42.390625 41.71875 45.5625 
Q 45.3125 48.734375 45.3125 54.390625 
Q 45.3125 60.0625 41.71875 63.234375 
Q 38.140625 66.40625 31.78125 66.40625 
Q 25.390625 66.40625 21.84375 63.234375 
Q 18.3125 60.0625 18.3125 54.390625 
" id="BitstreamVeraSans-Roman-38"/>
    <path d="M 10.984375 1.515625 
L 10.984375 10.5 
Q 14.703125 8.734375 18.5 7.8125 
Q 22.3125 6.890625 25.984375 6.890625 
Q 35.75 6.890625 40.890625 13.453125 
Q 46.046875 20.015625 46.78125 33.40625 
Q 43.953125 29.203125 39.59375 26.953125 
Q 35.25 24.703125 29.984375 24.703125 
Q 19.046875 24.703125 12.671875 31.3125 
Q 6.296875 37.9375 6.296875 49.421875 
Q 6.296875 60.640625 12.9375 67.421875 
Q 19.578125 74.21875 30.609375 74.21875 
Q 43.265625 74.21875 49.921875 64.515625 
Q 56.59375 54.828125 56.59375 36.375 
Q 56.59375 19.140625 48.40625 8.859375 
Q 40.234375 -1.421875 26.421875 -1.421875 
Q 22.703125 -1.421875 18.890625 -0.6875 
Q 15.09375 0.046875 10.984375 1.515625 
M 30.609375 32.421875 
Q 37.25 32.421875 41.125 36.953125 
Q 45.015625 41.5 45.015625 49.421875 
Q 45.015625 57.28125 41.125 61.84375 
Q 37.25 66.40625 30.609375 66.40625 
Q 23.96875 66.40625 20.09375 61.84375 
Q 16.21875 57.28125 16.21875 49.421875 
Q 16.21875 41.5 20.09375 36.953125 
Q 23.96875 32.421875 30.609375 32.421875 
" id="BitstreamVeraSans-Roman-39"/>
    <path d="M 48.78125 52.59375 
L 48.78125 44.1875 
Q 44.96875 46.296875 41.140625 47.34375 
Q 37.3125 48.390625 33.40625 48.390625 
Q 24.65625 48.390625 19.8125 42.84375 
Q 14.984375 37.3125 14.984375 27.296875 
Q 14.984375 17.28125 19.8125 11.734375 
Q 24.65625 6.203125 33.40625 6.203125 
Q 37.3125 6.203125 41.140625 7.25 
Q 44.96875 8.296875 48.78125 10.40625 
L 48.78125 2.09375 
Q 45.015625 0.34375 40.984375 -0.53125 
Q 36.96875 -1.421875 32.421875 -1.421875 
Q 20.0625 -1.421875 12.78125 6.34375 
Q 5.515625 14.109375 5.515625 27.296875 
Q 5.515625 40.671875 12.859375 48.328125 
Q 20.21875 56 33.015625 56 
Q 37.15625 56 41.109375 55.140625 
Q 45.0625 54.296875 48.78125 52.59375 
" id="BitstreamVeraSans-Roman-63"/>
    <path d="M 11.71875 12.40625 
L 22.015625 12.40625 
L 22.015625 0 
L 11.71875 0 
z
M 11.71875 51.703125 
L 22.015625 51.703125 
L 22.015625 39.3125 
L 11.71875 39.3125 
z
" id="BitstreamVeraSans-Roman-3a"/>
    <path d="M 8.5 21.578125 
L 8.5 54.6875 
L 17.484375 54.6875 
L 17.484375 21.921875 
Q 17.484375 14.15625 20.5 10.265625 
Q 23.53125 6.390625 29.59375 6.390625 
Q 36.859375 6.390625 41.078125 11.03125 
Q 45.3125 15.671875 45.3125 23.6875 
L 45.3125 54.6875 
L 54.296875 54.6875 
L 54.296875 0 
L 45.3125 0 
L 45.3125 8.40625 
Q 42.046875 3.421875 37.71875 1 
Q 33.40625 -1.421875 27.6875 -1.421875 
Q 18.265625 -1.421875 13.375 4.4375 
Q 8.5 10.296875 8.5 21.578125 
" id="BitstreamVeraSans-Roman-75"/>
   </defs>
   <g style="fill:#262626;" transform="translate(306.003125 657.13625)scale(0.08 -0.08)">
    <use xlink:href="#BitstreamVeraSans-Roman-4c"/>
    <use x="55.697265625" xlink:href="#BitstreamVeraSans-Roman-6f"/>
    <use x="116.87890625" xlink:href="#BitstreamVeraSans-Roman-63"/>
    <use x="171.859375" xlink:href="#BitstreamVeraSans-Roman-61"/>
    <use x="233.138671875" xlink:href="#BitstreamVeraSans-Roman-6c"/>
    <use x="260.921875" xlink:href="#BitstreamVeraSans-Roman-2f"/>
    <use x="294.61328125" xlink:href="#BitstreamVeraSans-Roman-72"/>
    <use x="335.6953125" xlink:href="#BitstreamVeraSans-Roman-65"/>
    <use x="397.21875" xlink:href="#BitstreamVeraSans-Roman-6d"/>
    <use x="494.630859375" xlink:href="#BitstreamVeraSans-Roman-6f"/>
    <use x="555.8125" xlink:href="#BitstreamVeraSans-Roman-74"/>
    <use x="595.021484375" xlink:href="#BitstreamVeraSans-Roman-65"/>
    <use x="656.544921875" xlink:href="#BitstreamVeraSans-Roman-3a"/>
    <use x="690.236328125" xlink:href="#BitstreamVeraSans-Roman-20"/>
    <use x="722.0234375" xlink:href="#BitstreamVeraSans-Roman-64"/>
    <use x="785.5" xlink:href="#BitstreamVeraSans-Roman-61"/>
    <use x="846.779296875" xlink:href="#BitstreamVeraSans-Roman-69"/>
    <use x="874.5625" xlink:href="#BitstreamVeraSans-Roman-72"/>
    <use x="915.58203125" xlink:href="#BitstreamVeraSans-Roman-2d"/>
    <use x="951.666015625" xlink:href="#BitstreamVeraSans-Roman-32"/>
    <use x="1015.2890625" xlink:href="#BitstreamVeraSans-Roman-35"/>
    <use x="1078.912109375" xlink:href="#BitstreamVeraSans-Roman-30"/>
    <use x="1142.53515625" xlink:href="#BitstreamVeraSans-Roman-36"/>
    <use x="1206.158203125" xlink:href="#BitstreamVeraSans-Roman-2e"/>
    <use x="1237.9453125" xlink:href="#BitstreamVeraSans-Roman-6c"/>
    <use x="1265.728515625" xlink:href="#BitstreamVeraSans-Roman-6f"/>
    <use x="1326.91015625" xlink:href="#BitstreamVeraSans-Roman-63"/>
    <use x="1381.890625" xlink:href="#BitstreamVeraSans-Roman-61"/>
    <use x="1443.169921875" xlink:href="#BitstreamVeraSans-Roman-6c"/>
    <use x="1470.953125" xlink:href="#BitstreamVeraSans-Roman-2f"/>
    <use x="1504.64453125" xlink:href="#BitstreamVeraSans-Roman-66"/>
    <use x="1539.849609375" xlink:href="#BitstreamVeraSans-Roman-6c"/>
    <use x="1567.6328125" xlink:href="#BitstreamVeraSans-Roman-65"/>
    <use x="1629.15625" xlink:href="#BitstreamVeraSans-Roman-6e"/>
    <use x="1692.53515625" xlink:href="#BitstreamVeraSans-Roman-74"/>
    <use x="1731.744140625" xlink:href="#BitstreamVeraSans-Roman-2d"/>
    <use x="1767.828125" xlink:href="#BitstreamVeraSans-Roman-66"/>
    <use x="1803.033203125" xlink:href="#BitstreamVeraSans-Roman-72"/>
    <use x="1844.115234375" xlink:href="#BitstreamVeraSans-Roman-65"/>
    <use x="1905.638671875" xlink:href="#BitstreamVeraSans-Roman-65"/>
    <use x="1967.162109375" xlink:href="#BitstreamVeraSans-Roman-6d"/>
    <use x="2064.57421875" xlink:href="#BitstreamVeraSans-Roman-6f"/>
    <use x="2125.755859375" xlink:href="#BitstreamVeraSans-Roman-6e"/>
    <use x="2189.134765625" xlink:href="#BitstreamVeraSans-Roman-74"/>
    <use x="2228.34375" xlink:href="#BitstreamVeraSans-Roman-2e"/>
    <use x="2260.130859375" xlink:href="#BitstreamVeraSans-Roman-62"/>
    <use x="2323.607421875" xlink:href="#BitstreamVeraSans-Roman-75"/>
    <use x="2386.986328125" xlink:href="#BitstreamVeraSans-Roman-66"/>
    <use x="2422.19140625" xlink:href="#BitstreamVeraSans-Roman-66"/>
    <use x="2457.396484375" xlink:href="#BitstreamVeraSans-Roman-65"/>
    <use x="2518.919921875" xlink:href="#BitstreamVeraSans-Roman-72"/>
    <use x="2560.033203125" xlink:href="#BitstreamVeraSans-Roman-62"/>
    <use x="2623.509765625" xlink:href="#BitstreamVeraSans-Roman-6c"/>
    <use x="2651.29296875" xlink:href="#BitstreamVeraSans-Roman-6f"/>
    <use x="2712.474609375" xlink:href="#BitstreamVeraSans-Roman-61"/>
    <use x="2773.75390625" xlink:href="#BitstreamVeraSans-Roman-74"/>
    <use x="2812.962890625" xlink:href="#BitstreamVeraSans-Roman-2e"/>
    <use x="2844.75" xlink:href="#BitstreamVeraSans-Roman-6e"/>
    <use x="2908.12890625" xlink:href="#BitstreamVeraSans-Roman-65"/>
    <use x="2969.65234375" xlink:href="#BitstreamVeraSans-Roman-74"/>
    <use x="3008.861328125" xlink:href="#BitstreamVeraSans-Roman-20"/>
    <use x="3040.6484375" xlink:href="#BitstreamVeraSans-Roman-2d"/>
    <use x="3076.732421875" xlink:href="#BitstreamVeraSans-Roman-20"/>
    <use x="3108.51953125" xlink:href="#BitstreamVeraSans-Roman-54"/>
    <use x="3169.556640625" xlink:href="#BitstreamVeraSans-Roman-69"/>
    <use x="3197.33984375" xlink:href="#BitstreamVeraSans-Roman-6d"/>
    <use x="3294.751953125" xlink:href="#BitstreamVeraSans-Roman-65"/>
    <use x="3356.275390625" xlink:href="#BitstreamVeraSans-Roman-3a"/>
    <use x="3389.966796875" xlink:href="#BitstreamVeraSans-Roman-20"/>
    <use x="3421.75390625" xlink:href="#BitstreamVeraSans-Roman-32"/>
    <use x="3485.376953125" xlink:href="#BitstreamVeraSans-Roman-30"/>
    <use x="3549.0" xlink:href="#BitstreamVeraSans-Roman-31"/>
    <use x="3612.623046875" xlink:href="#BitstreamVeraSans-Roman-36"/>
    <use x="3676.24609375" xlink:href="#BitstreamVeraSans-Roman-2d"/>
    <use x="3712.330078125" xlink:href="#BitstreamVeraSans-Roman-31"/>
    <use x="3775.953125" xlink:href="#BitstreamVeraSans-Roman-30"/>
    <use x="3839.576171875" xlink:href="#BitstreamVeraSans-Roman-2d"/>
    <use x="3875.66015625" xlink:href="#BitstreamVeraSans-Roman-31"/>
    <use x="3939.283203125" xlink:href="#BitstreamVeraSans-Roman-39"/>
    <use x="4002.90625" xlink:href="#BitstreamVeraSans-Roman-54"/>
    <use x="4063.990234375" xlink:href="#BitstreamVeraSans-Roman-31"/>
    <use x="4127.61328125" xlink:href="#BitstreamVeraSans-Roman-34"/>
    <use x="4191.236328125" xlink:href="#BitstreamVeraSans-Roman-3a"/>
    <use x="4224.927734375" xlink:href="#BitstreamVeraSans-Roman-35"/>
    <use x="4288.55078125" xlink:href="#BitstreamVeraSans-Roman-32"/>
    <use x="4352.173828125" xlink:href="#BitstreamVeraSans-Roman-3a"/>
    <use x="4385.865234375" xlink:href="#BitstreamVeraSans-Roman-32"/>
    <use x="4449.48828125" xlink:href="#BitstreamVeraSans-Roman-37"/>
    <use x="4513.111328125" xlink:href="#BitstreamVeraSans-Roman-2e"/>
    <use x="4544.8984375" xlink:href="#BitstreamVeraSans-Roman-36"/>
    <use x="4608.521484375" xlink:href="#BitstreamVeraSans-Roman-38"/>
    <use x="4672.14453125" xlink:href="#BitstreamVeraSans-Roman-39"/>
    <use x="4735.767578125" xlink:href="#BitstreamVeraSans-Roman-31"/>
    <use x="4799.390625" xlink:href="#BitstreamVeraSans-Roman-30"/>
    <use x="4863.013671875" xlink:href="#BitstreamVeraSans-Roman-39"/>
    <use x="4926.63671875" xlink:href="#BitstreamVeraSans-Roman-20"/>
    <use x="4958.423828125" xlink:href="#BitstreamVeraSans-Roman-2d"/>
    <use x="4994.5078125" xlink:href="#BitstreamVeraSans-Roman-20"/>
    <use x="5026.294921875" xlink:href="#BitstreamVeraSans-Roman-4c"/>
    <use x="5081.9921875" xlink:href="#BitstreamVeraSans-Roman-65"/>
    <use x="5143.515625" xlink:href="#BitstreamVeraSans-Roman-6e"/>
    <use x="5206.89453125" xlink:href="#BitstreamVeraSans-Roman-67"/>
    <use x="5270.37109375" xlink:href="#BitstreamVeraSans-Roman-74"/>
    <use x="5309.580078125" xlink:href="#BitstreamVeraSans-Roman-68"/>
    <use x="5372.958984375" xlink:href="#BitstreamVeraSans-Roman-2f"/>
    <use x="5406.650390625" xlink:href="#BitstreamVeraSans-Roman-73"/>
    <use x="5458.75" xlink:href="#BitstreamVeraSans-Roman-74"/>
    <use x="5497.958984375" xlink:href="#BitstreamVeraSans-Roman-65"/>
    <use x="5559.482421875" xlink:href="#BitstreamVeraSans-Roman-70"/>
    <use x="5622.958984375" xlink:href="#BitstreamVeraSans-Roman-3a"/>
    <use x="5656.650390625" xlink:href="#BitstreamVeraSans-Roman-20"/>
    <use x="5688.4375" xlink:href="#BitstreamVeraSans-Roman-36"/>
    <use x="5752.060546875" xlink:href="#BitstreamVeraSans-Roman-30"/>
    <use x="5815.68359375" xlink:href="#BitstreamVeraSans-Roman-73"/>
    <use x="5867.783203125" xlink:href="#BitstreamVeraSans-Roman-2f"/>
    <use x="5901.474609375" xlink:href="#BitstreamVeraSans-Roman-30"/>
    <use x="5965.09765625" xlink:href="#BitstreamVeraSans-Roman-2e"/>
    <use x="5996.884765625" xlink:href="#BitstreamVeraSans-Roman-32"/>
    <use x="6060.5078125" xlink:href="#BitstreamVeraSans-Roman-30"/>
    <use x="6124.130859375" xlink:href="#BitstreamVeraSans-Roman-73"/>
   </g>
  </g>
 </g>
 <defs>
  <clipPath id="p251635567c">
   <rect height="527.04" width="771.4044" x="138.2625" y="65.88"/>
  </clipPath>
 </defs>
</svg>
