<?xml version="1.0" encoding="utf-8" standalone="no"?>
<!DOCTYPE svg PUBLIC "-//W3C//DTD SVG 1.1//EN"
  "http://www.w3.org/Graphics/SVG/1.1/DTD/svg11.dtd">
<!-- Created with matplotlib (http://matplotlib.org/) -->
<svg height="871pt" version="1.1" viewBox="0 0 2004 871" width="2004pt" xmlns="http://www.w3.org/2000/svg" xmlns:xlink="http://www.w3.org/1999/xlink">
 <defs>
  <style type="text/css">
*{stroke-linecap:butt;stroke-linejoin:round;stroke-miterlimit:100000;}
  </style>
 </defs>
 <g id="figure_1">
  <g id="patch_1">
   <path d="M 0 871.2 
L 2004.3 871.2 
L 2004.3 0 
L 0 0 
z
" style="fill:#ffffff;"/>
  </g>
  <g id="axes_1">
   <g id="patch_2">
    <path d="M 250.5375 784.08 
L 1720.1844 784.08 
L 1720.1844 87.12 
L 250.5375 87.12 
z
" style="fill:#eaeaf2;"/>
   </g>
   <g id="matplotlib.axis_1">
    <g id="xtick_1">
     <g id="line2d_1">
      <defs>
       <path d="M 0 0 
L 0 0 
" id="ma0c2d30976" style="stroke:#262626;stroke-width:0.5;"/>
      </defs>
      <g>
       <use style="fill:#262626;stroke:#262626;stroke-width:0.5;" x="250.5375" xlink:href="#ma0c2d30976" y="784.08"/>
      </g>
     </g>
     <g id="line2d_2">
      <g>
       <use style="fill:#262626;stroke:#262626;stroke-width:0.5;" x="250.5375" xlink:href="#ma0c2d30976" y="87.12"/>
      </g>
     </g>
     <g id="text_1">
      <!-- 0 -->
      <defs>
       <path d="M 31.78125 66.40625 
Q 24.171875 66.40625 20.328125 58.90625 
Q 16.5 51.421875 16.5 36.375 
Q 16.5 21.390625 20.328125 13.890625 
Q 24.171875 6.390625 31.78125 6.390625 
Q 39.453125 6.390625 43.28125 13.890625 
Q 47.125 21.390625 47.125 36.375 
Q 47.125 51.421875 43.28125 58.90625 
Q 39.453125 66.40625 31.78125 66.40625 
M 31.78125 74.21875 
Q 44.046875 74.21875 50.515625 64.515625 
Q 56.984375 54.828125 56.984375 36.375 
Q 56.984375 17.96875 50.515625 8.265625 
Q 44.046875 -1.421875 31.78125 -1.421875 
Q 19.53125 -1.421875 13.0625 8.265625 
Q 6.59375 17.96875 6.59375 36.375 
Q 6.59375 54.828125 13.0625 64.515625 
Q 19.53125 74.21875 31.78125 74.21875 
" id="BitstreamVeraSans-Roman-30"/>
      </defs>
      <g style="fill:#262626;" transform="translate(246.72 797.198125)scale(0.12 -0.12)">
       <use xlink:href="#BitstreamVeraSans-Roman-30"/>
      </g>
     </g>
    </g>
    <g id="xtick_2">
     <g id="line2d_3">
      <g>
       <use style="fill:#262626;stroke:#262626;stroke-width:0.5;" x="460.487057143" xlink:href="#ma0c2d30976" y="784.08"/>
      </g>
     </g>
     <g id="line2d_4">
      <g>
       <use style="fill:#262626;stroke:#262626;stroke-width:0.5;" x="460.487057143" xlink:href="#ma0c2d30976" y="87.12"/>
      </g>
     </g>
     <g id="text_2">
      <!-- 10 -->
      <defs>
       <path d="M 12.40625 8.296875 
L 28.515625 8.296875 
L 28.515625 63.921875 
L 10.984375 60.40625 
L 10.984375 69.390625 
L 28.421875 72.90625 
L 38.28125 72.90625 
L 38.28125 8.296875 
L 54.390625 8.296875 
L 54.390625 0 
L 12.40625 0 
z
" id="BitstreamVeraSans-Roman-31"/>
      </defs>
      <g style="fill:#262626;" transform="translate(452.852057143 797.198125)scale(0.12 -0.12)">
       <use xlink:href="#BitstreamVeraSans-Roman-31"/>
       <use x="63.623046875" xlink:href="#BitstreamVeraSans-Roman-30"/>
      </g>
     </g>
    </g>
    <g id="xtick_3">
     <g id="line2d_5">
      <g>
       <use style="fill:#262626;stroke:#262626;stroke-width:0.5;" x="670.436614286" xlink:href="#ma0c2d30976" y="784.08"/>
      </g>
     </g>
     <g id="line2d_6">
      <g>
       <use style="fill:#262626;stroke:#262626;stroke-width:0.5;" x="670.436614286" xlink:href="#ma0c2d30976" y="87.12"/>
      </g>
     </g>
     <g id="text_3">
      <!-- 20 -->
      <defs>
       <path d="M 19.1875 8.296875 
L 53.609375 8.296875 
L 53.609375 0 
L 7.328125 0 
L 7.328125 8.296875 
Q 12.9375 14.109375 22.625 23.890625 
Q 32.328125 33.6875 34.8125 36.53125 
Q 39.546875 41.84375 41.421875 45.53125 
Q 43.3125 49.21875 43.3125 52.78125 
Q 43.3125 58.59375 39.234375 62.25 
Q 35.15625 65.921875 28.609375 65.921875 
Q 23.96875 65.921875 18.8125 64.3125 
Q 13.671875 62.703125 7.8125 59.421875 
L 7.8125 69.390625 
Q 13.765625 71.78125 18.9375 73 
Q 24.125 74.21875 28.421875 74.21875 
Q 39.75 74.21875 46.484375 68.546875 
Q 53.21875 62.890625 53.21875 53.421875 
Q 53.21875 48.921875 51.53125 44.890625 
Q 49.859375 40.875 45.40625 35.40625 
Q 44.1875 33.984375 37.640625 27.21875 
Q 31.109375 20.453125 19.1875 8.296875 
" id="BitstreamVeraSans-Roman-32"/>
      </defs>
      <g style="fill:#262626;" transform="translate(662.801614286 797.198125)scale(0.12 -0.12)">
       <use xlink:href="#BitstreamVeraSans-Roman-32"/>
       <use x="63.623046875" xlink:href="#BitstreamVeraSans-Roman-30"/>
      </g>
     </g>
    </g>
    <g id="xtick_4">
     <g id="line2d_7">
      <g>
       <use style="fill:#262626;stroke:#262626;stroke-width:0.5;" x="880.386171429" xlink:href="#ma0c2d30976" y="784.08"/>
      </g>
     </g>
     <g id="line2d_8">
      <g>
       <use style="fill:#262626;stroke:#262626;stroke-width:0.5;" x="880.386171429" xlink:href="#ma0c2d30976" y="87.12"/>
      </g>
     </g>
     <g id="text_4">
      <!-- 30 -->
      <defs>
       <path d="M 40.578125 39.3125 
Q 47.65625 37.796875 51.625 33 
Q 55.609375 28.21875 55.609375 21.1875 
Q 55.609375 10.40625 48.1875 4.484375 
Q 40.765625 -1.421875 27.09375 -1.421875 
Q 22.515625 -1.421875 17.65625 -0.515625 
Q 12.796875 0.390625 7.625 2.203125 
L 7.625 11.71875 
Q 11.71875 9.328125 16.59375 8.109375 
Q 21.484375 6.890625 26.8125 6.890625 
Q 36.078125 6.890625 40.9375 10.546875 
Q 45.796875 14.203125 45.796875 21.1875 
Q 45.796875 27.640625 41.28125 31.265625 
Q 36.765625 34.90625 28.71875 34.90625 
L 20.21875 34.90625 
L 20.21875 43.015625 
L 29.109375 43.015625 
Q 36.375 43.015625 40.234375 45.921875 
Q 44.09375 48.828125 44.09375 54.296875 
Q 44.09375 59.90625 40.109375 62.90625 
Q 36.140625 65.921875 28.71875 65.921875 
Q 24.65625 65.921875 20.015625 65.03125 
Q 15.375 64.15625 9.8125 62.3125 
L 9.8125 71.09375 
Q 15.4375 72.65625 20.34375 73.4375 
Q 25.25 74.21875 29.59375 74.21875 
Q 40.828125 74.21875 47.359375 69.109375 
Q 53.90625 64.015625 53.90625 55.328125 
Q 53.90625 49.265625 50.4375 45.09375 
Q 46.96875 40.921875 40.578125 39.3125 
" id="BitstreamVeraSans-Roman-33"/>
      </defs>
      <g style="fill:#262626;" transform="translate(872.751171429 797.198125)scale(0.12 -0.12)">
       <use xlink:href="#BitstreamVeraSans-Roman-33"/>
       <use x="63.623046875" xlink:href="#BitstreamVeraSans-Roman-30"/>
      </g>
     </g>
    </g>
    <g id="xtick_5">
     <g id="line2d_9">
      <g>
       <use style="fill:#262626;stroke:#262626;stroke-width:0.5;" x="1090.33572857" xlink:href="#ma0c2d30976" y="784.08"/>
      </g>
     </g>
     <g id="line2d_10">
      <g>
       <use style="fill:#262626;stroke:#262626;stroke-width:0.5;" x="1090.33572857" xlink:href="#ma0c2d30976" y="87.12"/>
      </g>
     </g>
     <g id="text_5">
      <!-- 40 -->
      <defs>
       <path d="M 37.796875 64.3125 
L 12.890625 25.390625 
L 37.796875 25.390625 
z
M 35.203125 72.90625 
L 47.609375 72.90625 
L 47.609375 25.390625 
L 58.015625 25.390625 
L 58.015625 17.1875 
L 47.609375 17.1875 
L 47.609375 0 
L 37.796875 0 
L 37.796875 17.1875 
L 4.890625 17.1875 
L 4.890625 26.703125 
z
" id="BitstreamVeraSans-Roman-34"/>
      </defs>
      <g style="fill:#262626;" transform="translate(1082.70072857 797.198125)scale(0.12 -0.12)">
       <use xlink:href="#BitstreamVeraSans-Roman-34"/>
       <use x="63.623046875" xlink:href="#BitstreamVeraSans-Roman-30"/>
      </g>
     </g>
    </g>
    <g id="xtick_6">
     <g id="line2d_11">
      <g>
       <use style="fill:#262626;stroke:#262626;stroke-width:0.5;" x="1300.28528571" xlink:href="#ma0c2d30976" y="784.08"/>
      </g>
     </g>
     <g id="line2d_12">
      <g>
       <use style="fill:#262626;stroke:#262626;stroke-width:0.5;" x="1300.28528571" xlink:href="#ma0c2d30976" y="87.12"/>
      </g>
     </g>
     <g id="text_6">
      <!-- 50 -->
      <defs>
       <path d="M 10.796875 72.90625 
L 49.515625 72.90625 
L 49.515625 64.59375 
L 19.828125 64.59375 
L 19.828125 46.734375 
Q 21.96875 47.46875 24.109375 47.828125 
Q 26.265625 48.1875 28.421875 48.1875 
Q 40.625 48.1875 47.75 41.5 
Q 54.890625 34.8125 54.890625 23.390625 
Q 54.890625 11.625 47.5625 5.09375 
Q 40.234375 -1.421875 26.90625 -1.421875 
Q 22.3125 -1.421875 17.546875 -0.640625 
Q 12.796875 0.140625 7.71875 1.703125 
L 7.71875 11.625 
Q 12.109375 9.234375 16.796875 8.0625 
Q 21.484375 6.890625 26.703125 6.890625 
Q 35.15625 6.890625 40.078125 11.328125 
Q 45.015625 15.765625 45.015625 23.390625 
Q 45.015625 31 40.078125 35.4375 
Q 35.15625 39.890625 26.703125 39.890625 
Q 22.75 39.890625 18.8125 39.015625 
Q 14.890625 38.140625 10.796875 36.28125 
z
" id="BitstreamVeraSans-Roman-35"/>
      </defs>
      <g style="fill:#262626;" transform="translate(1292.65028571 797.198125)scale(0.12 -0.12)">
       <use xlink:href="#BitstreamVeraSans-Roman-35"/>
       <use x="63.623046875" xlink:href="#BitstreamVeraSans-Roman-30"/>
      </g>
     </g>
    </g>
    <g id="xtick_7">
     <g id="line2d_13">
      <g>
       <use style="fill:#262626;stroke:#262626;stroke-width:0.5;" x="1510.23484286" xlink:href="#ma0c2d30976" y="784.08"/>
      </g>
     </g>
     <g id="line2d_14">
      <g>
       <use style="fill:#262626;stroke:#262626;stroke-width:0.5;" x="1510.23484286" xlink:href="#ma0c2d30976" y="87.12"/>
      </g>
     </g>
     <g id="text_7">
      <!-- 60 -->
      <defs>
       <path d="M 33.015625 40.375 
Q 26.375 40.375 22.484375 35.828125 
Q 18.609375 31.296875 18.609375 23.390625 
Q 18.609375 15.53125 22.484375 10.953125 
Q 26.375 6.390625 33.015625 6.390625 
Q 39.65625 6.390625 43.53125 10.953125 
Q 47.40625 15.53125 47.40625 23.390625 
Q 47.40625 31.296875 43.53125 35.828125 
Q 39.65625 40.375 33.015625 40.375 
M 52.59375 71.296875 
L 52.59375 62.3125 
Q 48.875 64.0625 45.09375 64.984375 
Q 41.3125 65.921875 37.59375 65.921875 
Q 27.828125 65.921875 22.671875 59.328125 
Q 17.53125 52.734375 16.796875 39.40625 
Q 19.671875 43.65625 24.015625 45.921875 
Q 28.375 48.1875 33.59375 48.1875 
Q 44.578125 48.1875 50.953125 41.515625 
Q 57.328125 34.859375 57.328125 23.390625 
Q 57.328125 12.15625 50.6875 5.359375 
Q 44.046875 -1.421875 33.015625 -1.421875 
Q 20.359375 -1.421875 13.671875 8.265625 
Q 6.984375 17.96875 6.984375 36.375 
Q 6.984375 53.65625 15.1875 63.9375 
Q 23.390625 74.21875 37.203125 74.21875 
Q 40.921875 74.21875 44.703125 73.484375 
Q 48.484375 72.75 52.59375 71.296875 
" id="BitstreamVeraSans-Roman-36"/>
      </defs>
      <g style="fill:#262626;" transform="translate(1502.59984286 797.198125)scale(0.12 -0.12)">
       <use xlink:href="#BitstreamVeraSans-Roman-36"/>
       <use x="63.623046875" xlink:href="#BitstreamVeraSans-Roman-30"/>
      </g>
     </g>
    </g>
    <g id="xtick_8">
     <g id="line2d_15">
      <g>
       <use style="fill:#262626;stroke:#262626;stroke-width:0.5;" x="1720.1844" xlink:href="#ma0c2d30976" y="784.08"/>
      </g>
     </g>
     <g id="line2d_16">
      <g>
       <use style="fill:#262626;stroke:#262626;stroke-width:0.5;" x="1720.1844" xlink:href="#ma0c2d30976" y="87.12"/>
      </g>
     </g>
     <g id="text_8">
      <!-- 70 -->
      <defs>
       <path d="M 8.203125 72.90625 
L 55.078125 72.90625 
L 55.078125 68.703125 
L 28.609375 0 
L 18.3125 0 
L 43.21875 64.59375 
L 8.203125 64.59375 
z
" id="BitstreamVeraSans-Roman-37"/>
      </defs>
      <g style="fill:#262626;" transform="translate(1712.5494 797.198125)scale(0.12 -0.12)">
       <use xlink:href="#BitstreamVeraSans-Roman-37"/>
       <use x="63.623046875" xlink:href="#BitstreamVeraSans-Roman-30"/>
      </g>
     </g>
    </g>
    <g id="xtick_9">
     <g id="line2d_17">
      <g>
       <use style="fill:#262626;stroke:#262626;stroke-width:0.5;" x="292.527411429" xlink:href="#ma0c2d30976" y="784.08"/>
      </g>
     </g>
     <g id="line2d_18">
      <g>
       <use style="fill:#262626;stroke:#262626;stroke-width:0.5;" x="292.527411429" xlink:href="#ma0c2d30976" y="87.12"/>
      </g>
     </g>
    </g>
    <g id="xtick_10">
     <g id="line2d_19">
      <g>
       <use style="fill:#262626;stroke:#262626;stroke-width:0.5;" x="334.517322857" xlink:href="#ma0c2d30976" y="784.08"/>
      </g>
     </g>
     <g id="line2d_20">
      <g>
       <use style="fill:#262626;stroke:#262626;stroke-width:0.5;" x="334.517322857" xlink:href="#ma0c2d30976" y="87.12"/>
      </g>
     </g>
    </g>
    <g id="xtick_11">
     <g id="line2d_21">
      <g>
       <use style="fill:#262626;stroke:#262626;stroke-width:0.5;" x="376.507234286" xlink:href="#ma0c2d30976" y="784.08"/>
      </g>
     </g>
     <g id="line2d_22">
      <g>
       <use style="fill:#262626;stroke:#262626;stroke-width:0.5;" x="376.507234286" xlink:href="#ma0c2d30976" y="87.12"/>
      </g>
     </g>
    </g>
    <g id="xtick_12">
     <g id="line2d_23">
      <g>
       <use style="fill:#262626;stroke:#262626;stroke-width:0.5;" x="418.497145714" xlink:href="#ma0c2d30976" y="784.08"/>
      </g>
     </g>
     <g id="line2d_24">
      <g>
       <use style="fill:#262626;stroke:#262626;stroke-width:0.5;" x="418.497145714" xlink:href="#ma0c2d30976" y="87.12"/>
      </g>
     </g>
    </g>
    <g id="xtick_13">
     <g id="line2d_25">
      <g>
       <use style="fill:#262626;stroke:#262626;stroke-width:0.5;" x="502.476968571" xlink:href="#ma0c2d30976" y="784.08"/>
      </g>
     </g>
     <g id="line2d_26">
      <g>
       <use style="fill:#262626;stroke:#262626;stroke-width:0.5;" x="502.476968571" xlink:href="#ma0c2d30976" y="87.12"/>
      </g>
     </g>
    </g>
    <g id="xtick_14">
     <g id="line2d_27">
      <g>
       <use style="fill:#262626;stroke:#262626;stroke-width:0.5;" x="544.46688" xlink:href="#ma0c2d30976" y="784.08"/>
      </g>
     </g>
     <g id="line2d_28">
      <g>
       <use style="fill:#262626;stroke:#262626;stroke-width:0.5;" x="544.46688" xlink:href="#ma0c2d30976" y="87.12"/>
      </g>
     </g>
    </g>
    <g id="xtick_15">
     <g id="line2d_29">
      <g>
       <use style="fill:#262626;stroke:#262626;stroke-width:0.5;" x="586.456791429" xlink:href="#ma0c2d30976" y="784.08"/>
      </g>
     </g>
     <g id="line2d_30">
      <g>
       <use style="fill:#262626;stroke:#262626;stroke-width:0.5;" x="586.456791429" xlink:href="#ma0c2d30976" y="87.12"/>
      </g>
     </g>
    </g>
    <g id="xtick_16">
     <g id="line2d_31">
      <g>
       <use style="fill:#262626;stroke:#262626;stroke-width:0.5;" x="628.446702857" xlink:href="#ma0c2d30976" y="784.08"/>
      </g>
     </g>
     <g id="line2d_32">
      <g>
       <use style="fill:#262626;stroke:#262626;stroke-width:0.5;" x="628.446702857" xlink:href="#ma0c2d30976" y="87.12"/>
      </g>
     </g>
    </g>
    <g id="xtick_17">
     <g id="line2d_33">
      <g>
       <use style="fill:#262626;stroke:#262626;stroke-width:0.5;" x="712.426525714" xlink:href="#ma0c2d30976" y="784.08"/>
      </g>
     </g>
     <g id="line2d_34">
      <g>
       <use style="fill:#262626;stroke:#262626;stroke-width:0.5;" x="712.426525714" xlink:href="#ma0c2d30976" y="87.12"/>
      </g>
     </g>
    </g>
    <g id="xtick_18">
     <g id="line2d_35">
      <g>
       <use style="fill:#262626;stroke:#262626;stroke-width:0.5;" x="754.416437143" xlink:href="#ma0c2d30976" y="784.08"/>
      </g>
     </g>
     <g id="line2d_36">
      <g>
       <use style="fill:#262626;stroke:#262626;stroke-width:0.5;" x="754.416437143" xlink:href="#ma0c2d30976" y="87.12"/>
      </g>
     </g>
    </g>
    <g id="xtick_19">
     <g id="line2d_37">
      <g>
       <use style="fill:#262626;stroke:#262626;stroke-width:0.5;" x="796.406348571" xlink:href="#ma0c2d30976" y="784.08"/>
      </g>
     </g>
     <g id="line2d_38">
      <g>
       <use style="fill:#262626;stroke:#262626;stroke-width:0.5;" x="796.406348571" xlink:href="#ma0c2d30976" y="87.12"/>
      </g>
     </g>
    </g>
    <g id="xtick_20">
     <g id="line2d_39">
      <g>
       <use style="fill:#262626;stroke:#262626;stroke-width:0.5;" x="838.39626" xlink:href="#ma0c2d30976" y="784.08"/>
      </g>
     </g>
     <g id="line2d_40">
      <g>
       <use style="fill:#262626;stroke:#262626;stroke-width:0.5;" x="838.39626" xlink:href="#ma0c2d30976" y="87.12"/>
      </g>
     </g>
    </g>
    <g id="xtick_21">
     <g id="line2d_41">
      <g>
       <use style="fill:#262626;stroke:#262626;stroke-width:0.5;" x="922.376082857" xlink:href="#ma0c2d30976" y="784.08"/>
      </g>
     </g>
     <g id="line2d_42">
      <g>
       <use style="fill:#262626;stroke:#262626;stroke-width:0.5;" x="922.376082857" xlink:href="#ma0c2d30976" y="87.12"/>
      </g>
     </g>
    </g>
    <g id="xtick_22">
     <g id="line2d_43">
      <g>
       <use style="fill:#262626;stroke:#262626;stroke-width:0.5;" x="964.365994286" xlink:href="#ma0c2d30976" y="784.08"/>
      </g>
     </g>
     <g id="line2d_44">
      <g>
       <use style="fill:#262626;stroke:#262626;stroke-width:0.5;" x="964.365994286" xlink:href="#ma0c2d30976" y="87.12"/>
      </g>
     </g>
    </g>
    <g id="xtick_23">
     <g id="line2d_45">
      <g>
       <use style="fill:#262626;stroke:#262626;stroke-width:0.5;" x="1006.35590571" xlink:href="#ma0c2d30976" y="784.08"/>
      </g>
     </g>
     <g id="line2d_46">
      <g>
       <use style="fill:#262626;stroke:#262626;stroke-width:0.5;" x="1006.35590571" xlink:href="#ma0c2d30976" y="87.12"/>
      </g>
     </g>
    </g>
    <g id="xtick_24">
     <g id="line2d_47">
      <g>
       <use style="fill:#262626;stroke:#262626;stroke-width:0.5;" x="1048.34581714" xlink:href="#ma0c2d30976" y="784.08"/>
      </g>
     </g>
     <g id="line2d_48">
      <g>
       <use style="fill:#262626;stroke:#262626;stroke-width:0.5;" x="1048.34581714" xlink:href="#ma0c2d30976" y="87.12"/>
      </g>
     </g>
    </g>
    <g id="xtick_25">
     <g id="line2d_49">
      <g>
       <use style="fill:#262626;stroke:#262626;stroke-width:0.5;" x="1132.32564" xlink:href="#ma0c2d30976" y="784.08"/>
      </g>
     </g>
     <g id="line2d_50">
      <g>
       <use style="fill:#262626;stroke:#262626;stroke-width:0.5;" x="1132.32564" xlink:href="#ma0c2d30976" y="87.12"/>
      </g>
     </g>
    </g>
    <g id="xtick_26">
     <g id="line2d_51">
      <g>
       <use style="fill:#262626;stroke:#262626;stroke-width:0.5;" x="1174.31555143" xlink:href="#ma0c2d30976" y="784.08"/>
      </g>
     </g>
     <g id="line2d_52">
      <g>
       <use style="fill:#262626;stroke:#262626;stroke-width:0.5;" x="1174.31555143" xlink:href="#ma0c2d30976" y="87.12"/>
      </g>
     </g>
    </g>
    <g id="xtick_27">
     <g id="line2d_53">
      <g>
       <use style="fill:#262626;stroke:#262626;stroke-width:0.5;" x="1216.30546286" xlink:href="#ma0c2d30976" y="784.08"/>
      </g>
     </g>
     <g id="line2d_54">
      <g>
       <use style="fill:#262626;stroke:#262626;stroke-width:0.5;" x="1216.30546286" xlink:href="#ma0c2d30976" y="87.12"/>
      </g>
     </g>
    </g>
    <g id="xtick_28">
     <g id="line2d_55">
      <g>
       <use style="fill:#262626;stroke:#262626;stroke-width:0.5;" x="1258.29537429" xlink:href="#ma0c2d30976" y="784.08"/>
      </g>
     </g>
     <g id="line2d_56">
      <g>
       <use style="fill:#262626;stroke:#262626;stroke-width:0.5;" x="1258.29537429" xlink:href="#ma0c2d30976" y="87.12"/>
      </g>
     </g>
    </g>
    <g id="xtick_29">
     <g id="line2d_57">
      <g>
       <use style="fill:#262626;stroke:#262626;stroke-width:0.5;" x="1342.27519714" xlink:href="#ma0c2d30976" y="784.08"/>
      </g>
     </g>
     <g id="line2d_58">
      <g>
       <use style="fill:#262626;stroke:#262626;stroke-width:0.5;" x="1342.27519714" xlink:href="#ma0c2d30976" y="87.12"/>
      </g>
     </g>
    </g>
    <g id="xtick_30">
     <g id="line2d_59">
      <g>
       <use style="fill:#262626;stroke:#262626;stroke-width:0.5;" x="1384.26510857" xlink:href="#ma0c2d30976" y="784.08"/>
      </g>
     </g>
     <g id="line2d_60">
      <g>
       <use style="fill:#262626;stroke:#262626;stroke-width:0.5;" x="1384.26510857" xlink:href="#ma0c2d30976" y="87.12"/>
      </g>
     </g>
    </g>
    <g id="xtick_31">
     <g id="line2d_61">
      <g>
       <use style="fill:#262626;stroke:#262626;stroke-width:0.5;" x="1426.25502" xlink:href="#ma0c2d30976" y="784.08"/>
      </g>
     </g>
     <g id="line2d_62">
      <g>
       <use style="fill:#262626;stroke:#262626;stroke-width:0.5;" x="1426.25502" xlink:href="#ma0c2d30976" y="87.12"/>
      </g>
     </g>
    </g>
    <g id="xtick_32">
     <g id="line2d_63">
      <g>
       <use style="fill:#262626;stroke:#262626;stroke-width:0.5;" x="1468.24493143" xlink:href="#ma0c2d30976" y="784.08"/>
      </g>
     </g>
     <g id="line2d_64">
      <g>
       <use style="fill:#262626;stroke:#262626;stroke-width:0.5;" x="1468.24493143" xlink:href="#ma0c2d30976" y="87.12"/>
      </g>
     </g>
    </g>
    <g id="xtick_33">
     <g id="line2d_65">
      <g>
       <use style="fill:#262626;stroke:#262626;stroke-width:0.5;" x="1552.22475429" xlink:href="#ma0c2d30976" y="784.08"/>
      </g>
     </g>
     <g id="line2d_66">
      <g>
       <use style="fill:#262626;stroke:#262626;stroke-width:0.5;" x="1552.22475429" xlink:href="#ma0c2d30976" y="87.12"/>
      </g>
     </g>
    </g>
    <g id="xtick_34">
     <g id="line2d_67">
      <g>
       <use style="fill:#262626;stroke:#262626;stroke-width:0.5;" x="1594.21466571" xlink:href="#ma0c2d30976" y="784.08"/>
      </g>
     </g>
     <g id="line2d_68">
      <g>
       <use style="fill:#262626;stroke:#262626;stroke-width:0.5;" x="1594.21466571" xlink:href="#ma0c2d30976" y="87.12"/>
      </g>
     </g>
    </g>
    <g id="xtick_35">
     <g id="line2d_69">
      <g>
       <use style="fill:#262626;stroke:#262626;stroke-width:0.5;" x="1636.20457714" xlink:href="#ma0c2d30976" y="784.08"/>
      </g>
     </g>
     <g id="line2d_70">
      <g>
       <use style="fill:#262626;stroke:#262626;stroke-width:0.5;" x="1636.20457714" xlink:href="#ma0c2d30976" y="87.12"/>
      </g>
     </g>
    </g>
    <g id="xtick_36">
     <g id="line2d_71">
      <g>
       <use style="fill:#262626;stroke:#262626;stroke-width:0.5;" x="1678.19448857" xlink:href="#ma0c2d30976" y="784.08"/>
      </g>
     </g>
     <g id="line2d_72">
      <g>
       <use style="fill:#262626;stroke:#262626;stroke-width:0.5;" x="1678.19448857" xlink:href="#ma0c2d30976" y="87.12"/>
      </g>
     </g>
    </g>
    <g id="text_9">
     <!-- Time (s) -->
     <defs>
      <path id="BitstreamVeraSans-Roman-20"/>
      <path d="M 8.015625 75.875 
L 15.828125 75.875 
Q 23.140625 64.359375 26.78125 53.3125 
Q 30.421875 42.28125 30.421875 31.390625 
Q 30.421875 20.453125 26.78125 9.375 
Q 23.140625 -1.703125 15.828125 -13.1875 
L 8.015625 -13.1875 
Q 14.5 -2 17.703125 9.0625 
Q 20.90625 20.125 20.90625 31.390625 
Q 20.90625 42.671875 17.703125 53.65625 
Q 14.5 64.65625 8.015625 75.875 
" id="BitstreamVeraSans-Roman-29"/>
      <path d="M 31 75.875 
Q 24.46875 64.65625 21.28125 53.65625 
Q 18.109375 42.671875 18.109375 31.390625 
Q 18.109375 20.125 21.3125 9.0625 
Q 24.515625 -2 31 -13.1875 
L 23.1875 -13.1875 
Q 15.875 -1.703125 12.234375 9.375 
Q 8.59375 20.453125 8.59375 31.390625 
Q 8.59375 42.28125 12.203125 53.3125 
Q 15.828125 64.359375 23.1875 75.875 
z
" id="BitstreamVeraSans-Roman-28"/>
      <path d="M 9.421875 54.6875 
L 18.40625 54.6875 
L 18.40625 0 
L 9.421875 0 
z
M 9.421875 75.984375 
L 18.40625 75.984375 
L 18.40625 64.59375 
L 9.421875 64.59375 
z
" id="BitstreamVeraSans-Roman-69"/>
      <path d="M 52 44.1875 
Q 55.375 50.25 60.0625 53.125 
Q 64.75 56 71.09375 56 
Q 79.640625 56 84.28125 50.015625 
Q 88.921875 44.046875 88.921875 33.015625 
L 88.921875 0 
L 79.890625 0 
L 79.890625 32.71875 
Q 79.890625 40.578125 77.09375 44.375 
Q 74.3125 48.1875 68.609375 48.1875 
Q 61.625 48.1875 57.5625 43.546875 
Q 53.515625 38.921875 53.515625 30.90625 
L 53.515625 0 
L 44.484375 0 
L 44.484375 32.71875 
Q 44.484375 40.625 41.703125 44.40625 
Q 38.921875 48.1875 33.109375 48.1875 
Q 26.21875 48.1875 22.15625 43.53125 
Q 18.109375 38.875 18.109375 30.90625 
L 18.109375 0 
L 9.078125 0 
L 9.078125 54.6875 
L 18.109375 54.6875 
L 18.109375 46.1875 
Q 21.1875 51.21875 25.484375 53.609375 
Q 29.78125 56 35.6875 56 
Q 41.65625 56 45.828125 52.96875 
Q 50 49.953125 52 44.1875 
" id="BitstreamVeraSans-Roman-6d"/>
      <path d="M 56.203125 29.59375 
L 56.203125 25.203125 
L 14.890625 25.203125 
Q 15.484375 15.921875 20.484375 11.0625 
Q 25.484375 6.203125 34.421875 6.203125 
Q 39.59375 6.203125 44.453125 7.46875 
Q 49.3125 8.734375 54.109375 11.28125 
L 54.109375 2.78125 
Q 49.265625 0.734375 44.1875 -0.34375 
Q 39.109375 -1.421875 33.890625 -1.421875 
Q 20.796875 -1.421875 13.15625 6.1875 
Q 5.515625 13.8125 5.515625 26.8125 
Q 5.515625 40.234375 12.765625 48.109375 
Q 20.015625 56 32.328125 56 
Q 43.359375 56 49.78125 48.890625 
Q 56.203125 41.796875 56.203125 29.59375 
M 47.21875 32.234375 
Q 47.125 39.59375 43.09375 43.984375 
Q 39.0625 48.390625 32.421875 48.390625 
Q 24.90625 48.390625 20.390625 44.140625 
Q 15.875 39.890625 15.1875 32.171875 
z
" id="BitstreamVeraSans-Roman-65"/>
      <path d="M -0.296875 72.90625 
L 61.375 72.90625 
L 61.375 64.59375 
L 35.5 64.59375 
L 35.5 0 
L 25.59375 0 
L 25.59375 64.59375 
L -0.296875 64.59375 
z
" id="BitstreamVeraSans-Roman-54"/>
      <path d="M 44.28125 53.078125 
L 44.28125 44.578125 
Q 40.484375 46.53125 36.375 47.5 
Q 32.28125 48.484375 27.875 48.484375 
Q 21.1875 48.484375 17.84375 46.4375 
Q 14.5 44.390625 14.5 40.28125 
Q 14.5 37.15625 16.890625 35.375 
Q 19.28125 33.59375 26.515625 31.984375 
L 29.59375 31.296875 
Q 39.15625 29.25 43.1875 25.515625 
Q 47.21875 21.78125 47.21875 15.09375 
Q 47.21875 7.46875 41.1875 3.015625 
Q 35.15625 -1.421875 24.609375 -1.421875 
Q 20.21875 -1.421875 15.453125 -0.5625 
Q 10.6875 0.296875 5.421875 2 
L 5.421875 11.28125 
Q 10.40625 8.6875 15.234375 7.390625 
Q 20.0625 6.109375 24.8125 6.109375 
Q 31.15625 6.109375 34.5625 8.28125 
Q 37.984375 10.453125 37.984375 14.40625 
Q 37.984375 18.0625 35.515625 20.015625 
Q 33.0625 21.96875 24.703125 23.78125 
L 21.578125 24.515625 
Q 13.234375 26.265625 9.515625 29.90625 
Q 5.8125 33.546875 5.8125 39.890625 
Q 5.8125 47.609375 11.28125 51.796875 
Q 16.75 56 26.8125 56 
Q 31.78125 56 36.171875 55.265625 
Q 40.578125 54.546875 44.28125 53.078125 
" id="BitstreamVeraSans-Roman-73"/>
     </defs>
     <g style="fill:#262626;" transform="translate(960.781575 813.811875)scale(0.12 -0.12)">
      <use xlink:href="#BitstreamVeraSans-Roman-54"/>
      <use x="61.037109375" xlink:href="#BitstreamVeraSans-Roman-69"/>
      <use x="88.8203125" xlink:href="#BitstreamVeraSans-Roman-6d"/>
      <use x="186.232421875" xlink:href="#BitstreamVeraSans-Roman-65"/>
      <use x="247.755859375" xlink:href="#BitstreamVeraSans-Roman-20"/>
      <use x="279.54296875" xlink:href="#BitstreamVeraSans-Roman-28"/>
      <use x="318.556640625" xlink:href="#BitstreamVeraSans-Roman-73"/>
      <use x="370.65625" xlink:href="#BitstreamVeraSans-Roman-29"/>
     </g>
    </g>
   </g>
   <g id="matplotlib.axis_2">
    <g id="ytick_1">
     <g id="line2d_73">
      <g>
       <use style="fill:#262626;stroke:#262626;stroke-width:0.5;" x="250.5375" xlink:href="#ma0c2d30976" y="779.852565005"/>
      </g>
     </g>
     <g id="text_10">
      <!-- 0 -->
      <g style="fill:#262626;" transform="translate(238.9025 783.163815005)scale(0.12 -0.12)">
       <use xlink:href="#BitstreamVeraSans-Roman-30"/>
      </g>
     </g>
    </g>
    <g id="ytick_2">
     <g id="line2d_74">
      <g>
       <use style="fill:#262626;stroke:#262626;stroke-width:0.5;" x="250.5375" xlink:href="#ma0c2d30976" y="693.002358958"/>
      </g>
     </g>
     <g id="text_11">
      <!-- 1 -->
      <g style="fill:#262626;" transform="translate(238.9025 696.313608958)scale(0.12 -0.12)">
       <use xlink:href="#BitstreamVeraSans-Roman-31"/>
      </g>
     </g>
    </g>
    <g id="ytick_3">
     <g id="line2d_75">
      <g>
       <use style="fill:#262626;stroke:#262626;stroke-width:0.5;" x="250.5375" xlink:href="#ma0c2d30976" y="606.152152912"/>
      </g>
     </g>
     <g id="text_12">
      <!-- 2 -->
      <g style="fill:#262626;" transform="translate(238.9025 609.463402912)scale(0.12 -0.12)">
       <use xlink:href="#BitstreamVeraSans-Roman-32"/>
      </g>
     </g>
    </g>
    <g id="ytick_4">
     <g id="line2d_76">
      <g>
       <use style="fill:#262626;stroke:#262626;stroke-width:0.5;" x="250.5375" xlink:href="#ma0c2d30976" y="519.301946865"/>
      </g>
     </g>
     <g id="text_13">
      <!-- 3 -->
      <g style="fill:#262626;" transform="translate(238.9025 522.613196865)scale(0.12 -0.12)">
       <use xlink:href="#BitstreamVeraSans-Roman-33"/>
      </g>
     </g>
    </g>
    <g id="ytick_5">
     <g id="line2d_77">
      <g>
       <use style="fill:#262626;stroke:#262626;stroke-width:0.5;" x="250.5375" xlink:href="#ma0c2d30976" y="432.451740819"/>
      </g>
     </g>
     <g id="text_14">
      <!-- 4 -->
      <g style="fill:#262626;" transform="translate(238.9025 435.762990819)scale(0.12 -0.12)">
       <use xlink:href="#BitstreamVeraSans-Roman-34"/>
      </g>
     </g>
    </g>
    <g id="ytick_6">
     <g id="line2d_78">
      <g>
       <use style="fill:#262626;stroke:#262626;stroke-width:0.5;" x="250.5375" xlink:href="#ma0c2d30976" y="345.601534772"/>
      </g>
     </g>
     <g id="text_15">
      <!-- 5 -->
      <g style="fill:#262626;" transform="translate(238.9025 348.912784772)scale(0.12 -0.12)">
       <use xlink:href="#BitstreamVeraSans-Roman-35"/>
      </g>
     </g>
    </g>
    <g id="ytick_7">
     <g id="line2d_79">
      <g>
       <use style="fill:#262626;stroke:#262626;stroke-width:0.5;" x="250.5375" xlink:href="#ma0c2d30976" y="258.751328725"/>
      </g>
     </g>
     <g id="text_16">
      <!-- 6 -->
      <g style="fill:#262626;" transform="translate(238.9025 262.062578725)scale(0.12 -0.12)">
       <use xlink:href="#BitstreamVeraSans-Roman-36"/>
      </g>
     </g>
    </g>
    <g id="ytick_8">
     <g id="line2d_80">
      <g>
       <use style="fill:#262626;stroke:#262626;stroke-width:0.5;" x="250.5375" xlink:href="#ma0c2d30976" y="171.901122679"/>
      </g>
     </g>
     <g id="text_17">
      <!-- 7 -->
      <g style="fill:#262626;" transform="translate(238.9025 175.212372679)scale(0.12 -0.12)">
       <use xlink:href="#BitstreamVeraSans-Roman-37"/>
      </g>
     </g>
    </g>
    <g id="ytick_9">
     <g id="line2d_81">
      <g>
       <use style="fill:#262626;stroke:#262626;stroke-width:0.5;" x="250.5375" xlink:href="#ma0c2d30976" y="762.482523796"/>
      </g>
     </g>
    </g>
    <g id="ytick_10">
     <g id="line2d_82">
      <g>
       <use style="fill:#262626;stroke:#262626;stroke-width:0.5;" x="250.5375" xlink:href="#ma0c2d30976" y="745.112482586"/>
      </g>
     </g>
    </g>
    <g id="ytick_11">
     <g id="line2d_83">
      <g>
       <use style="fill:#262626;stroke:#262626;stroke-width:0.5;" x="250.5375" xlink:href="#ma0c2d30976" y="727.742441377"/>
      </g>
     </g>
    </g>
    <g id="ytick_12">
     <g id="line2d_84">
      <g>
       <use style="fill:#262626;stroke:#262626;stroke-width:0.5;" x="250.5375" xlink:href="#ma0c2d30976" y="710.372400168"/>
      </g>
     </g>
    </g>
    <g id="ytick_13">
     <g id="line2d_85">
      <g>
       <use style="fill:#262626;stroke:#262626;stroke-width:0.5;" x="250.5375" xlink:href="#ma0c2d30976" y="693.002358958"/>
      </g>
     </g>
    </g>
    <g id="ytick_14">
     <g id="line2d_86">
      <g>
       <use style="fill:#262626;stroke:#262626;stroke-width:0.5;" x="250.5375" xlink:href="#ma0c2d30976" y="675.632317749"/>
      </g>
     </g>
    </g>
    <g id="ytick_15">
     <g id="line2d_87">
      <g>
       <use style="fill:#262626;stroke:#262626;stroke-width:0.5;" x="250.5375" xlink:href="#ma0c2d30976" y="658.26227654"/>
      </g>
     </g>
    </g>
    <g id="ytick_16">
     <g id="line2d_88">
      <g>
       <use style="fill:#262626;stroke:#262626;stroke-width:0.5;" x="250.5375" xlink:href="#ma0c2d30976" y="640.89223533"/>
      </g>
     </g>
    </g>
    <g id="ytick_17">
     <g id="line2d_89">
      <g>
       <use style="fill:#262626;stroke:#262626;stroke-width:0.5;" x="250.5375" xlink:href="#ma0c2d30976" y="623.522194121"/>
      </g>
     </g>
    </g>
    <g id="ytick_18">
     <g id="line2d_90">
      <g>
       <use style="fill:#262626;stroke:#262626;stroke-width:0.5;" x="250.5375" xlink:href="#ma0c2d30976" y="606.152152912"/>
      </g>
     </g>
    </g>
    <g id="ytick_19">
     <g id="line2d_91">
      <g>
       <use style="fill:#262626;stroke:#262626;stroke-width:0.5;" x="250.5375" xlink:href="#ma0c2d30976" y="588.782111702"/>
      </g>
     </g>
    </g>
    <g id="ytick_20">
     <g id="line2d_92">
      <g>
       <use style="fill:#262626;stroke:#262626;stroke-width:0.5;" x="250.5375" xlink:href="#ma0c2d30976" y="571.412070493"/>
      </g>
     </g>
    </g>
    <g id="ytick_21">
     <g id="line2d_93">
      <g>
       <use style="fill:#262626;stroke:#262626;stroke-width:0.5;" x="250.5375" xlink:href="#ma0c2d30976" y="554.042029284"/>
      </g>
     </g>
    </g>
    <g id="ytick_22">
     <g id="line2d_94">
      <g>
       <use style="fill:#262626;stroke:#262626;stroke-width:0.5;" x="250.5375" xlink:href="#ma0c2d30976" y="536.671988074"/>
      </g>
     </g>
    </g>
    <g id="ytick_23">
     <g id="line2d_95">
      <g>
       <use style="fill:#262626;stroke:#262626;stroke-width:0.5;" x="250.5375" xlink:href="#ma0c2d30976" y="519.301946865"/>
      </g>
     </g>
    </g>
    <g id="ytick_24">
     <g id="line2d_96">
      <g>
       <use style="fill:#262626;stroke:#262626;stroke-width:0.5;" x="250.5375" xlink:href="#ma0c2d30976" y="501.931905656"/>
      </g>
     </g>
    </g>
    <g id="ytick_25">
     <g id="line2d_97">
      <g>
       <use style="fill:#262626;stroke:#262626;stroke-width:0.5;" x="250.5375" xlink:href="#ma0c2d30976" y="484.561864447"/>
      </g>
     </g>
    </g>
    <g id="ytick_26">
     <g id="line2d_98">
      <g>
       <use style="fill:#262626;stroke:#262626;stroke-width:0.5;" x="250.5375" xlink:href="#ma0c2d30976" y="467.191823237"/>
      </g>
     </g>
    </g>
    <g id="ytick_27">
     <g id="line2d_99">
      <g>
       <use style="fill:#262626;stroke:#262626;stroke-width:0.5;" x="250.5375" xlink:href="#ma0c2d30976" y="449.821782028"/>
      </g>
     </g>
    </g>
    <g id="ytick_28">
     <g id="line2d_100">
      <g>
       <use style="fill:#262626;stroke:#262626;stroke-width:0.5;" x="250.5375" xlink:href="#ma0c2d30976" y="432.451740819"/>
      </g>
     </g>
    </g>
    <g id="ytick_29">
     <g id="line2d_101">
      <g>
       <use style="fill:#262626;stroke:#262626;stroke-width:0.5;" x="250.5375" xlink:href="#ma0c2d30976" y="415.081699609"/>
      </g>
     </g>
    </g>
    <g id="ytick_30">
     <g id="line2d_102">
      <g>
       <use style="fill:#262626;stroke:#262626;stroke-width:0.5;" x="250.5375" xlink:href="#ma0c2d30976" y="397.7116584"/>
      </g>
     </g>
    </g>
    <g id="ytick_31">
     <g id="line2d_103">
      <g>
       <use style="fill:#262626;stroke:#262626;stroke-width:0.5;" x="250.5375" xlink:href="#ma0c2d30976" y="380.341617191"/>
      </g>
     </g>
    </g>
    <g id="ytick_32">
     <g id="line2d_104">
      <g>
       <use style="fill:#262626;stroke:#262626;stroke-width:0.5;" x="250.5375" xlink:href="#ma0c2d30976" y="362.971575981"/>
      </g>
     </g>
    </g>
    <g id="ytick_33">
     <g id="line2d_105">
      <g>
       <use style="fill:#262626;stroke:#262626;stroke-width:0.5;" x="250.5375" xlink:href="#ma0c2d30976" y="345.601534772"/>
      </g>
     </g>
    </g>
    <g id="ytick_34">
     <g id="line2d_106">
      <g>
       <use style="fill:#262626;stroke:#262626;stroke-width:0.5;" x="250.5375" xlink:href="#ma0c2d30976" y="328.231493563"/>
      </g>
     </g>
    </g>
    <g id="ytick_35">
     <g id="line2d_107">
      <g>
       <use style="fill:#262626;stroke:#262626;stroke-width:0.5;" x="250.5375" xlink:href="#ma0c2d30976" y="310.861452353"/>
      </g>
     </g>
    </g>
    <g id="ytick_36">
     <g id="line2d_108">
      <g>
       <use style="fill:#262626;stroke:#262626;stroke-width:0.5;" x="250.5375" xlink:href="#ma0c2d30976" y="293.491411144"/>
      </g>
     </g>
    </g>
    <g id="ytick_37">
     <g id="line2d_109">
      <g>
       <use style="fill:#262626;stroke:#262626;stroke-width:0.5;" x="250.5375" xlink:href="#ma0c2d30976" y="276.121369935"/>
      </g>
     </g>
    </g>
    <g id="ytick_38">
     <g id="line2d_110">
      <g>
       <use style="fill:#262626;stroke:#262626;stroke-width:0.5;" x="250.5375" xlink:href="#ma0c2d30976" y="258.751328725"/>
      </g>
     </g>
    </g>
    <g id="ytick_39">
     <g id="line2d_111">
      <g>
       <use style="fill:#262626;stroke:#262626;stroke-width:0.5;" x="250.5375" xlink:href="#ma0c2d30976" y="241.381287516"/>
      </g>
     </g>
    </g>
    <g id="ytick_40">
     <g id="line2d_112">
      <g>
       <use style="fill:#262626;stroke:#262626;stroke-width:0.5;" x="250.5375" xlink:href="#ma0c2d30976" y="224.011246307"/>
      </g>
     </g>
    </g>
    <g id="ytick_41">
     <g id="line2d_113">
      <g>
       <use style="fill:#262626;stroke:#262626;stroke-width:0.5;" x="250.5375" xlink:href="#ma0c2d30976" y="206.641205097"/>
      </g>
     </g>
    </g>
    <g id="ytick_42">
     <g id="line2d_114">
      <g>
       <use style="fill:#262626;stroke:#262626;stroke-width:0.5;" x="250.5375" xlink:href="#ma0c2d30976" y="189.271163888"/>
      </g>
     </g>
    </g>
    <g id="ytick_43">
     <g id="line2d_115">
      <g>
       <use style="fill:#262626;stroke:#262626;stroke-width:0.5;" x="250.5375" xlink:href="#ma0c2d30976" y="171.901122679"/>
      </g>
     </g>
    </g>
    <g id="ytick_44">
     <g id="line2d_116">
      <g>
       <use style="fill:#262626;stroke:#262626;stroke-width:0.5;" x="250.5375" xlink:href="#ma0c2d30976" y="154.531081469"/>
      </g>
     </g>
    </g>
    <g id="ytick_45">
     <g id="line2d_117">
      <g>
       <use style="fill:#262626;stroke:#262626;stroke-width:0.5;" x="250.5375" xlink:href="#ma0c2d30976" y="137.16104026"/>
      </g>
     </g>
    </g>
    <g id="ytick_46">
     <g id="line2d_118">
      <g>
       <use style="fill:#262626;stroke:#262626;stroke-width:0.5;" x="250.5375" xlink:href="#ma0c2d30976" y="119.790999051"/>
      </g>
     </g>
    </g>
    <g id="ytick_47">
     <g id="line2d_119">
      <g>
       <use style="fill:#262626;stroke:#262626;stroke-width:0.5;" x="250.5375" xlink:href="#ma0c2d30976" y="102.420957842"/>
      </g>
     </g>
    </g>
    <g id="text_18">
     <!-- Mbits/s -->
     <defs>
      <path d="M 18.3125 70.21875 
L 18.3125 54.6875 
L 36.8125 54.6875 
L 36.8125 47.703125 
L 18.3125 47.703125 
L 18.3125 18.015625 
Q 18.3125 11.328125 20.140625 9.421875 
Q 21.96875 7.515625 27.59375 7.515625 
L 36.8125 7.515625 
L 36.8125 0 
L 27.59375 0 
Q 17.1875 0 13.234375 3.875 
Q 9.28125 7.765625 9.28125 18.015625 
L 9.28125 47.703125 
L 2.6875 47.703125 
L 2.6875 54.6875 
L 9.28125 54.6875 
L 9.28125 70.21875 
z
" id="BitstreamVeraSans-Roman-74"/>
      <path d="M 9.8125 72.90625 
L 24.515625 72.90625 
L 43.109375 23.296875 
L 61.8125 72.90625 
L 76.515625 72.90625 
L 76.515625 0 
L 66.890625 0 
L 66.890625 64.015625 
L 48.09375 14.015625 
L 38.1875 14.015625 
L 19.390625 64.015625 
L 19.390625 0 
L 9.8125 0 
z
" id="BitstreamVeraSans-Roman-4d"/>
      <path d="M 25.390625 72.90625 
L 33.6875 72.90625 
L 8.296875 -9.28125 
L 0 -9.28125 
z
" id="BitstreamVeraSans-Roman-2f"/>
      <path d="M 48.6875 27.296875 
Q 48.6875 37.203125 44.609375 42.84375 
Q 40.53125 48.484375 33.40625 48.484375 
Q 26.265625 48.484375 22.1875 42.84375 
Q 18.109375 37.203125 18.109375 27.296875 
Q 18.109375 17.390625 22.1875 11.75 
Q 26.265625 6.109375 33.40625 6.109375 
Q 40.53125 6.109375 44.609375 11.75 
Q 48.6875 17.390625 48.6875 27.296875 
M 18.109375 46.390625 
Q 20.953125 51.265625 25.265625 53.625 
Q 29.59375 56 35.59375 56 
Q 45.5625 56 51.78125 48.09375 
Q 58.015625 40.1875 58.015625 27.296875 
Q 58.015625 14.40625 51.78125 6.484375 
Q 45.5625 -1.421875 35.59375 -1.421875 
Q 29.59375 -1.421875 25.265625 0.953125 
Q 20.953125 3.328125 18.109375 8.203125 
L 18.109375 0 
L 9.078125 0 
L 9.078125 75.984375 
L 18.109375 75.984375 
z
" id="BitstreamVeraSans-Roman-62"/>
     </defs>
     <g style="fill:#262626;" transform="translate(231.406875 456.8775)rotate(-90.0)scale(0.12 -0.12)">
      <use xlink:href="#BitstreamVeraSans-Roman-4d"/>
      <use x="86.279296875" xlink:href="#BitstreamVeraSans-Roman-62"/>
      <use x="149.755859375" xlink:href="#BitstreamVeraSans-Roman-69"/>
      <use x="177.5390625" xlink:href="#BitstreamVeraSans-Roman-74"/>
      <use x="216.748046875" xlink:href="#BitstreamVeraSans-Roman-73"/>
      <use x="268.84765625" xlink:href="#BitstreamVeraSans-Roman-2f"/>
      <use x="302.5390625" xlink:href="#BitstreamVeraSans-Roman-73"/>
     </g>
    </g>
   </g>
   <g id="line2d_120">
    <path clip-path="url(#pd3718a1ffb)" d="M 594.854774 771.241602 
L 611.650738 770.30284 
L 632.645694 762.336995 
M 653.64065 754.234435 
L 670.436614 747.729564 
L 674.635605 686.155514 
L 678.834597 553.872691 
L 683.033588 505.069866 
L 687.232579 579.512933 
L 691.43157 522.853407 
L 695.630561 480.648363 
L 699.829552 464.895096 
L 704.028543 470.975789 
L 708.227535 523.706289 
L 712.426526 561.788478 
L 720.824508 621.388936 
L 725.023499 559.406952 
L 729.22249 406.528824 
L 733.421481 433.403223 
L 737.620473 493.170734 
L 741.819464 557.688052 
L 746.018455 604.620257 
L 750.217446 430.919753 
L 754.416437 337.285584 
L 758.615428 455.989967 
L 762.814419 426.88524 
M 804.804331 622.978756 
L 821.600295 724.36179 
L 825.799287 439.877977 
L 829.998278 395.825204 
L 834.197269 440.054092 
L 838.39626 418.566636 
L 842.595251 372.077801 
L 846.794242 368.94423 
L 850.993233 455.295202 
L 855.192225 513.674816 
L 859.391216 495.972853 
L 863.590207 521.937795 
L 871.988189 611.507039 
L 876.18718 625.860927 
L 884.585163 653.56775 
M 897.182136 667.614672 
L 913.978101 682.624321 
L 918.177092 656.987921 
L 922.376083 607.191159 
L 926.575074 554.68932 
L 930.774065 496.789172 
L 934.973056 494.466803 
L 939.172047 508.930545 
L 943.371039 536.291466 
L 947.57003 561.676643 
L 951.769021 530.617602 
M 993.758932 677.893466 
L 1010.554897 745.960902 
M 1027.350861 737.112079 
L 1044.146826 728.240555 
M 1111.330684 750.110251 
L 1128.126649 756.152005 
L 1132.32564 669.355806 
L 1136.524631 564.960118 
L 1140.723622 508.939111 
L 1144.922613 485.280817 
L 1149.121605 507.580199 
L 1153.320596 472.561799 
L 1157.519587 444.747682 
L 1161.718578 440.569127 
L 1165.917569 469.805805 
L 1170.11656 441.877031 
L 1174.315551 405.143327 
L 1178.514543 405.746771 
L 1182.713534 419.15296 
L 1186.912525 361.946156 
L 1191.111516 442.632833 
L 1195.310507 482.273757 
L 1199.509498 473.501004 
L 1203.708489 471.73707 
L 1207.907481 470.161557 
L 1212.106472 368.824845 
L 1216.305463 427.417163 
L 1220.504454 551.422622 
L 1224.703445 588.728675 
L 1237.300419 663.0887 
L 1241.49941 599.265948 
M 1249.897392 467.384616 
L 1266.693357 635.747452 
L 1270.892348 641.562213 
L 1279.29033 554.557718 
L 1283.489321 328.961985 
L 1287.688312 131.255563 
L 1291.887303 210.068856 
L 1296.086295 179.173238 
L 1300.285286 93.952941 
L 1304.484277 149.702204 
L 1312.882259 330.010704 
M 1329.678224 478.147507 
L 1346.474188 566.686951 
L 1350.673179 554.516137 
L 1367.469144 437.884253 
M 1375.867126 425.611836 
L 1392.663091 476.590697 
M 1468.244931 654.119009 
L 1485.040896 692.915856 
M 1573.21971 704.010372 
L 1590.015675 705.144048 
M 1644.602559 686.973702 
L 1661.398524 681.35103 
L 1665.597515 680.84333 
L 1665.597515 680.84333 
" style="fill:none;stroke:#1b9e77;stroke-linecap:round;"/>
   </g>
   <g id="patch_3">
    <path d="M 250.5375 87.12 
L 1720.1844 87.12 
" style="fill:none;"/>
   </g>
   <g id="patch_4">
    <path d="M 1720.1844 784.08 
L 1720.1844 87.12 
" style="fill:none;"/>
   </g>
   <g id="patch_5">
    <path d="M 250.5375 784.08 
L 1720.1844 784.08 
" style="fill:none;"/>
   </g>
   <g id="patch_6">
    <path d="M 250.5375 784.08 
L 250.5375 87.12 
" style="fill:none;"/>
   </g>
   <g id="legend_1">
    <g id="line2d_121">
     <path d="M 1885.843959 95.215198 
L 1905.835959 95.215198 
" style="fill:none;stroke:#1b9e77;stroke-linecap:round;"/>
    </g>
    <g id="line2d_122"/>
    <g id="text_19">
     <!-- Upload -->
     <defs>
      <path d="M 30.609375 48.390625 
Q 23.390625 48.390625 19.1875 42.75 
Q 14.984375 37.109375 14.984375 27.296875 
Q 14.984375 17.484375 19.15625 11.84375 
Q 23.34375 6.203125 30.609375 6.203125 
Q 37.796875 6.203125 41.984375 11.859375 
Q 46.1875 17.53125 46.1875 27.296875 
Q 46.1875 37.015625 41.984375 42.703125 
Q 37.796875 48.390625 30.609375 48.390625 
M 30.609375 56 
Q 42.328125 56 49.015625 48.375 
Q 55.71875 40.765625 55.71875 27.296875 
Q 55.71875 13.875 49.015625 6.21875 
Q 42.328125 -1.421875 30.609375 -1.421875 
Q 18.84375 -1.421875 12.171875 6.21875 
Q 5.515625 13.875 5.515625 27.296875 
Q 5.515625 40.765625 12.171875 48.375 
Q 18.84375 56 30.609375 56 
" id="BitstreamVeraSans-Roman-6f"/>
      <path d="M 9.421875 75.984375 
L 18.40625 75.984375 
L 18.40625 0 
L 9.421875 0 
z
" id="BitstreamVeraSans-Roman-6c"/>
      <path d="M 8.6875 72.90625 
L 18.609375 72.90625 
L 18.609375 28.609375 
Q 18.609375 16.890625 22.84375 11.734375 
Q 27.09375 6.59375 36.625 6.59375 
Q 46.09375 6.59375 50.34375 11.734375 
Q 54.59375 16.890625 54.59375 28.609375 
L 54.59375 72.90625 
L 64.5 72.90625 
L 64.5 27.390625 
Q 64.5 13.140625 57.4375 5.859375 
Q 50.390625 -1.421875 36.625 -1.421875 
Q 22.796875 -1.421875 15.734375 5.859375 
Q 8.6875 13.140625 8.6875 27.390625 
z
" id="BitstreamVeraSans-Roman-55"/>
      <path d="M 45.40625 46.390625 
L 45.40625 75.984375 
L 54.390625 75.984375 
L 54.390625 0 
L 45.40625 0 
L 45.40625 8.203125 
Q 42.578125 3.328125 38.25 0.953125 
Q 33.9375 -1.421875 27.875 -1.421875 
Q 17.96875 -1.421875 11.734375 6.484375 
Q 5.515625 14.40625 5.515625 27.296875 
Q 5.515625 40.1875 11.734375 48.09375 
Q 17.96875 56 27.875 56 
Q 33.9375 56 38.25 53.625 
Q 42.578125 51.265625 45.40625 46.390625 
M 14.796875 27.296875 
Q 14.796875 17.390625 18.875 11.75 
Q 22.953125 6.109375 30.078125 6.109375 
Q 37.203125 6.109375 41.296875 11.75 
Q 45.40625 17.390625 45.40625 27.296875 
Q 45.40625 37.203125 41.296875 42.84375 
Q 37.203125 48.484375 30.078125 48.484375 
Q 22.953125 48.484375 18.875 42.84375 
Q 14.796875 37.203125 14.796875 27.296875 
" id="BitstreamVeraSans-Roman-64"/>
      <path d="M 34.28125 27.484375 
Q 23.390625 27.484375 19.1875 25 
Q 14.984375 22.515625 14.984375 16.5 
Q 14.984375 11.71875 18.140625 8.90625 
Q 21.296875 6.109375 26.703125 6.109375 
Q 34.1875 6.109375 38.703125 11.40625 
Q 43.21875 16.703125 43.21875 25.484375 
L 43.21875 27.484375 
z
M 52.203125 31.203125 
L 52.203125 0 
L 43.21875 0 
L 43.21875 8.296875 
Q 40.140625 3.328125 35.546875 0.953125 
Q 30.953125 -1.421875 24.3125 -1.421875 
Q 15.921875 -1.421875 10.953125 3.296875 
Q 6 8.015625 6 15.921875 
Q 6 25.140625 12.171875 29.828125 
Q 18.359375 34.515625 30.609375 34.515625 
L 43.21875 34.515625 
L 43.21875 35.40625 
Q 43.21875 41.609375 39.140625 45 
Q 35.0625 48.390625 27.6875 48.390625 
Q 23 48.390625 18.546875 47.265625 
Q 14.109375 46.140625 10.015625 43.890625 
L 10.015625 52.203125 
Q 14.9375 54.109375 19.578125 55.046875 
Q 24.21875 56 28.609375 56 
Q 40.484375 56 46.34375 49.84375 
Q 52.203125 43.703125 52.203125 31.203125 
" id="BitstreamVeraSans-Roman-61"/>
      <path d="M 18.109375 8.203125 
L 18.109375 -20.796875 
L 9.078125 -20.796875 
L 9.078125 54.6875 
L 18.109375 54.6875 
L 18.109375 46.390625 
Q 20.953125 51.265625 25.265625 53.625 
Q 29.59375 56 35.59375 56 
Q 45.5625 56 51.78125 48.09375 
Q 58.015625 40.1875 58.015625 27.296875 
Q 58.015625 14.40625 51.78125 6.484375 
Q 45.5625 -1.421875 35.59375 -1.421875 
Q 29.59375 -1.421875 25.265625 0.953125 
Q 20.953125 3.328125 18.109375 8.203125 
M 48.6875 27.296875 
Q 48.6875 37.203125 44.609375 42.84375 
Q 40.53125 48.484375 33.40625 48.484375 
Q 26.265625 48.484375 22.1875 42.84375 
Q 18.109375 37.203125 18.109375 27.296875 
Q 18.109375 17.390625 22.1875 11.75 
Q 26.265625 6.109375 33.40625 6.109375 
Q 40.53125 6.109375 44.609375 11.75 
Q 48.6875 17.390625 48.6875 27.296875 
" id="BitstreamVeraSans-Roman-70"/>
     </defs>
     <g style="fill:#262626;" transform="translate(1913.832759 98.713798125)scale(0.09996 -0.09996)">
      <use xlink:href="#BitstreamVeraSans-Roman-55"/>
      <use x="73.193359375" xlink:href="#BitstreamVeraSans-Roman-70"/>
      <use x="136.669921875" xlink:href="#BitstreamVeraSans-Roman-6c"/>
      <use x="164.453125" xlink:href="#BitstreamVeraSans-Roman-6f"/>
      <use x="225.634765625" xlink:href="#BitstreamVeraSans-Roman-61"/>
      <use x="286.9140625" xlink:href="#BitstreamVeraSans-Roman-64"/>
     </g>
    </g>
    <g id="line2d_123">
     <path d="M 1885.843959 109.887452 
L 1905.835959 109.887452 
" style="fill:none;stroke:#d95f02;stroke-linecap:round;"/>
    </g>
    <g id="line2d_124"/>
    <g id="text_20">
     <!-- Ping (ms) -->
     <defs>
      <path d="M 19.671875 64.796875 
L 19.671875 37.40625 
L 32.078125 37.40625 
Q 38.96875 37.40625 42.71875 40.96875 
Q 46.484375 44.53125 46.484375 51.125 
Q 46.484375 57.671875 42.71875 61.234375 
Q 38.96875 64.796875 32.078125 64.796875 
z
M 9.8125 72.90625 
L 32.078125 72.90625 
Q 44.34375 72.90625 50.609375 67.359375 
Q 56.890625 61.8125 56.890625 51.125 
Q 56.890625 40.328125 50.609375 34.8125 
Q 44.34375 29.296875 32.078125 29.296875 
L 19.671875 29.296875 
L 19.671875 0 
L 9.8125 0 
z
" id="BitstreamVeraSans-Roman-50"/>
      <path d="M 54.890625 33.015625 
L 54.890625 0 
L 45.90625 0 
L 45.90625 32.71875 
Q 45.90625 40.484375 42.875 44.328125 
Q 39.84375 48.1875 33.796875 48.1875 
Q 26.515625 48.1875 22.3125 43.546875 
Q 18.109375 38.921875 18.109375 30.90625 
L 18.109375 0 
L 9.078125 0 
L 9.078125 54.6875 
L 18.109375 54.6875 
L 18.109375 46.1875 
Q 21.34375 51.125 25.703125 53.5625 
Q 30.078125 56 35.796875 56 
Q 45.21875 56 50.046875 50.171875 
Q 54.890625 44.34375 54.890625 33.015625 
" id="BitstreamVeraSans-Roman-6e"/>
      <path d="M 45.40625 27.984375 
Q 45.40625 37.75 41.375 43.109375 
Q 37.359375 48.484375 30.078125 48.484375 
Q 22.859375 48.484375 18.828125 43.109375 
Q 14.796875 37.75 14.796875 27.984375 
Q 14.796875 18.265625 18.828125 12.890625 
Q 22.859375 7.515625 30.078125 7.515625 
Q 37.359375 7.515625 41.375 12.890625 
Q 45.40625 18.265625 45.40625 27.984375 
M 54.390625 6.78125 
Q 54.390625 -7.171875 48.1875 -13.984375 
Q 42 -20.796875 29.203125 -20.796875 
Q 24.46875 -20.796875 20.265625 -20.09375 
Q 16.0625 -19.390625 12.109375 -17.921875 
L 12.109375 -9.1875 
Q 16.0625 -11.328125 19.921875 -12.34375 
Q 23.78125 -13.375 27.78125 -13.375 
Q 36.625 -13.375 41.015625 -8.765625 
Q 45.40625 -4.15625 45.40625 5.171875 
L 45.40625 9.625 
Q 42.625 4.78125 38.28125 2.390625 
Q 33.9375 0 27.875 0 
Q 17.828125 0 11.671875 7.65625 
Q 5.515625 15.328125 5.515625 27.984375 
Q 5.515625 40.671875 11.671875 48.328125 
Q 17.828125 56 27.875 56 
Q 33.9375 56 38.28125 53.609375 
Q 42.625 51.21875 45.40625 46.390625 
L 45.40625 54.6875 
L 54.390625 54.6875 
z
" id="BitstreamVeraSans-Roman-67"/>
     </defs>
     <g style="fill:#262626;" transform="translate(1913.832759 113.386051875)scale(0.09996 -0.09996)">
      <use xlink:href="#BitstreamVeraSans-Roman-50"/>
      <use x="60.271484375" xlink:href="#BitstreamVeraSans-Roman-69"/>
      <use x="88.0546875" xlink:href="#BitstreamVeraSans-Roman-6e"/>
      <use x="151.43359375" xlink:href="#BitstreamVeraSans-Roman-67"/>
      <use x="214.91015625" xlink:href="#BitstreamVeraSans-Roman-20"/>
      <use x="246.697265625" xlink:href="#BitstreamVeraSans-Roman-28"/>
      <use x="285.7109375" xlink:href="#BitstreamVeraSans-Roman-6d"/>
      <use x="383.123046875" xlink:href="#BitstreamVeraSans-Roman-73"/>
      <use x="435.22265625" xlink:href="#BitstreamVeraSans-Roman-29"/>
     </g>
    </g>
   </g>
  </g>
  <g id="axes_2">
   <g id="matplotlib.axis_3">
    <g id="ytick_48">
     <g id="line2d_125">
      <g>
       <use style="fill:#262626;stroke:#262626;stroke-width:0.5;" x="1720.1844" xlink:href="#ma0c2d30976" y="783.201189026"/>
      </g>
     </g>
     <g id="text_21">
      <!-- 0 -->
      <g style="fill:#262626;" transform="translate(1724.1844 786.512439026)scale(0.12 -0.12)">
       <use xlink:href="#BitstreamVeraSans-Roman-30"/>
      </g>
     </g>
    </g>
    <g id="ytick_49">
     <g id="line2d_126">
      <g>
       <use style="fill:#262626;stroke:#262626;stroke-width:0.5;" x="1720.1844" xlink:href="#ma0c2d30976" y="681.607766309"/>
      </g>
     </g>
     <g id="text_22">
      <!-- 500 -->
      <g style="fill:#262626;" transform="translate(1724.1844 684.919016309)scale(0.12 -0.12)">
       <use xlink:href="#BitstreamVeraSans-Roman-35"/>
       <use x="63.623046875" xlink:href="#BitstreamVeraSans-Roman-30"/>
       <use x="127.24609375" xlink:href="#BitstreamVeraSans-Roman-30"/>
      </g>
     </g>
    </g>
    <g id="ytick_50">
     <g id="line2d_127">
      <g>
       <use style="fill:#262626;stroke:#262626;stroke-width:0.5;" x="1720.1844" xlink:href="#ma0c2d30976" y="580.014343592"/>
      </g>
     </g>
     <g id="text_23">
      <!-- 1000 -->
      <g style="fill:#262626;" transform="translate(1724.1844 583.325593592)scale(0.12 -0.12)">
       <use xlink:href="#BitstreamVeraSans-Roman-31"/>
       <use x="63.623046875" xlink:href="#BitstreamVeraSans-Roman-30"/>
       <use x="127.24609375" xlink:href="#BitstreamVeraSans-Roman-30"/>
       <use x="190.869140625" xlink:href="#BitstreamVeraSans-Roman-30"/>
      </g>
     </g>
    </g>
    <g id="ytick_51">
     <g id="line2d_128">
      <g>
       <use style="fill:#262626;stroke:#262626;stroke-width:0.5;" x="1720.1844" xlink:href="#ma0c2d30976" y="478.420920876"/>
      </g>
     </g>
     <g id="text_24">
      <!-- 1500 -->
      <g style="fill:#262626;" transform="translate(1724.1844 481.732170876)scale(0.12 -0.12)">
       <use xlink:href="#BitstreamVeraSans-Roman-31"/>
       <use x="63.623046875" xlink:href="#BitstreamVeraSans-Roman-35"/>
       <use x="127.24609375" xlink:href="#BitstreamVeraSans-Roman-30"/>
       <use x="190.869140625" xlink:href="#BitstreamVeraSans-Roman-30"/>
      </g>
     </g>
    </g>
    <g id="ytick_52">
     <g id="line2d_129">
      <g>
       <use style="fill:#262626;stroke:#262626;stroke-width:0.5;" x="1720.1844" xlink:href="#ma0c2d30976" y="376.827498159"/>
      </g>
     </g>
     <g id="text_25">
      <!-- 2000 -->
      <g style="fill:#262626;" transform="translate(1724.1844 380.138748159)scale(0.12 -0.12)">
       <use xlink:href="#BitstreamVeraSans-Roman-32"/>
       <use x="63.623046875" xlink:href="#BitstreamVeraSans-Roman-30"/>
       <use x="127.24609375" xlink:href="#BitstreamVeraSans-Roman-30"/>
       <use x="190.869140625" xlink:href="#BitstreamVeraSans-Roman-30"/>
      </g>
     </g>
    </g>
    <g id="ytick_53">
     <g id="line2d_130">
      <g>
       <use style="fill:#262626;stroke:#262626;stroke-width:0.5;" x="1720.1844" xlink:href="#ma0c2d30976" y="275.234075442"/>
      </g>
     </g>
     <g id="text_26">
      <!-- 2500 -->
      <g style="fill:#262626;" transform="translate(1724.1844 278.545325442)scale(0.12 -0.12)">
       <use xlink:href="#BitstreamVeraSans-Roman-32"/>
       <use x="63.623046875" xlink:href="#BitstreamVeraSans-Roman-35"/>
       <use x="127.24609375" xlink:href="#BitstreamVeraSans-Roman-30"/>
       <use x="190.869140625" xlink:href="#BitstreamVeraSans-Roman-30"/>
      </g>
     </g>
    </g>
    <g id="ytick_54">
     <g id="line2d_131">
      <g>
       <use style="fill:#262626;stroke:#262626;stroke-width:0.5;" x="1720.1844" xlink:href="#ma0c2d30976" y="173.640652726"/>
      </g>
     </g>
     <g id="text_27">
      <!-- 3000 -->
      <g style="fill:#262626;" transform="translate(1724.1844 176.951902726)scale(0.12 -0.12)">
       <use xlink:href="#BitstreamVeraSans-Roman-33"/>
       <use x="63.623046875" xlink:href="#BitstreamVeraSans-Roman-30"/>
       <use x="127.24609375" xlink:href="#BitstreamVeraSans-Roman-30"/>
       <use x="190.869140625" xlink:href="#BitstreamVeraSans-Roman-30"/>
      </g>
     </g>
    </g>
    <g id="ytick_55">
     <g id="line2d_132">
      <g>
       <use style="fill:#262626;stroke:#262626;stroke-width:0.5;" x="1720.1844" xlink:href="#ma0c2d30976" y="762.882504483"/>
      </g>
     </g>
    </g>
    <g id="ytick_56">
     <g id="line2d_133">
      <g>
       <use style="fill:#262626;stroke:#262626;stroke-width:0.5;" x="1720.1844" xlink:href="#ma0c2d30976" y="742.563819939"/>
      </g>
     </g>
    </g>
    <g id="ytick_57">
     <g id="line2d_134">
      <g>
       <use style="fill:#262626;stroke:#262626;stroke-width:0.5;" x="1720.1844" xlink:href="#ma0c2d30976" y="722.245135396"/>
      </g>
     </g>
    </g>
    <g id="ytick_58">
     <g id="line2d_135">
      <g>
       <use style="fill:#262626;stroke:#262626;stroke-width:0.5;" x="1720.1844" xlink:href="#ma0c2d30976" y="701.926450853"/>
      </g>
     </g>
    </g>
    <g id="ytick_59">
     <g id="line2d_136">
      <g>
       <use style="fill:#262626;stroke:#262626;stroke-width:0.5;" x="1720.1844" xlink:href="#ma0c2d30976" y="661.289081766"/>
      </g>
     </g>
    </g>
    <g id="ytick_60">
     <g id="line2d_137">
      <g>
       <use style="fill:#262626;stroke:#262626;stroke-width:0.5;" x="1720.1844" xlink:href="#ma0c2d30976" y="640.970397222"/>
      </g>
     </g>
    </g>
    <g id="ytick_61">
     <g id="line2d_138">
      <g>
       <use style="fill:#262626;stroke:#262626;stroke-width:0.5;" x="1720.1844" xlink:href="#ma0c2d30976" y="620.651712679"/>
      </g>
     </g>
    </g>
    <g id="ytick_62">
     <g id="line2d_139">
      <g>
       <use style="fill:#262626;stroke:#262626;stroke-width:0.5;" x="1720.1844" xlink:href="#ma0c2d30976" y="600.333028136"/>
      </g>
     </g>
    </g>
    <g id="ytick_63">
     <g id="line2d_140">
      <g>
       <use style="fill:#262626;stroke:#262626;stroke-width:0.5;" x="1720.1844" xlink:href="#ma0c2d30976" y="559.695659049"/>
      </g>
     </g>
    </g>
    <g id="ytick_64">
     <g id="line2d_141">
      <g>
       <use style="fill:#262626;stroke:#262626;stroke-width:0.5;" x="1720.1844" xlink:href="#ma0c2d30976" y="539.376974506"/>
      </g>
     </g>
    </g>
    <g id="ytick_65">
     <g id="line2d_142">
      <g>
       <use style="fill:#262626;stroke:#262626;stroke-width:0.5;" x="1720.1844" xlink:href="#ma0c2d30976" y="519.058289962"/>
      </g>
     </g>
    </g>
    <g id="ytick_66">
     <g id="line2d_143">
      <g>
       <use style="fill:#262626;stroke:#262626;stroke-width:0.5;" x="1720.1844" xlink:href="#ma0c2d30976" y="498.739605419"/>
      </g>
     </g>
    </g>
    <g id="ytick_67">
     <g id="line2d_144">
      <g>
       <use style="fill:#262626;stroke:#262626;stroke-width:0.5;" x="1720.1844" xlink:href="#ma0c2d30976" y="458.102236332"/>
      </g>
     </g>
    </g>
    <g id="ytick_68">
     <g id="line2d_145">
      <g>
       <use style="fill:#262626;stroke:#262626;stroke-width:0.5;" x="1720.1844" xlink:href="#ma0c2d30976" y="437.783551789"/>
      </g>
     </g>
    </g>
    <g id="ytick_69">
     <g id="line2d_146">
      <g>
       <use style="fill:#262626;stroke:#262626;stroke-width:0.5;" x="1720.1844" xlink:href="#ma0c2d30976" y="417.464867246"/>
      </g>
     </g>
    </g>
    <g id="ytick_70">
     <g id="line2d_147">
      <g>
       <use style="fill:#262626;stroke:#262626;stroke-width:0.5;" x="1720.1844" xlink:href="#ma0c2d30976" y="397.146182702"/>
      </g>
     </g>
    </g>
    <g id="ytick_71">
     <g id="line2d_148">
      <g>
       <use style="fill:#262626;stroke:#262626;stroke-width:0.5;" x="1720.1844" xlink:href="#ma0c2d30976" y="356.508813616"/>
      </g>
     </g>
    </g>
    <g id="ytick_72">
     <g id="line2d_149">
      <g>
       <use style="fill:#262626;stroke:#262626;stroke-width:0.5;" x="1720.1844" xlink:href="#ma0c2d30976" y="336.190129072"/>
      </g>
     </g>
    </g>
    <g id="ytick_73">
     <g id="line2d_150">
      <g>
       <use style="fill:#262626;stroke:#262626;stroke-width:0.5;" x="1720.1844" xlink:href="#ma0c2d30976" y="315.871444529"/>
      </g>
     </g>
    </g>
    <g id="ytick_74">
     <g id="line2d_151">
      <g>
       <use style="fill:#262626;stroke:#262626;stroke-width:0.5;" x="1720.1844" xlink:href="#ma0c2d30976" y="295.552759986"/>
      </g>
     </g>
    </g>
    <g id="ytick_75">
     <g id="line2d_152">
      <g>
       <use style="fill:#262626;stroke:#262626;stroke-width:0.5;" x="1720.1844" xlink:href="#ma0c2d30976" y="254.915390899"/>
      </g>
     </g>
    </g>
    <g id="ytick_76">
     <g id="line2d_153">
      <g>
       <use style="fill:#262626;stroke:#262626;stroke-width:0.5;" x="1720.1844" xlink:href="#ma0c2d30976" y="234.596706356"/>
      </g>
     </g>
    </g>
    <g id="ytick_77">
     <g id="line2d_154">
      <g>
       <use style="fill:#262626;stroke:#262626;stroke-width:0.5;" x="1720.1844" xlink:href="#ma0c2d30976" y="214.278021812"/>
      </g>
     </g>
    </g>
    <g id="ytick_78">
     <g id="line2d_155">
      <g>
       <use style="fill:#262626;stroke:#262626;stroke-width:0.5;" x="1720.1844" xlink:href="#ma0c2d30976" y="193.959337269"/>
      </g>
     </g>
    </g>
    <g id="ytick_79">
     <g id="line2d_156">
      <g>
       <use style="fill:#262626;stroke:#262626;stroke-width:0.5;" x="1720.1844" xlink:href="#ma0c2d30976" y="153.321968182"/>
      </g>
     </g>
    </g>
    <g id="ytick_80">
     <g id="line2d_157">
      <g>
       <use style="fill:#262626;stroke:#262626;stroke-width:0.5;" x="1720.1844" xlink:href="#ma0c2d30976" y="133.003283639"/>
      </g>
     </g>
    </g>
    <g id="ytick_81">
     <g id="line2d_158">
      <g>
       <use style="fill:#262626;stroke:#262626;stroke-width:0.5;" x="1720.1844" xlink:href="#ma0c2d30976" y="112.684599096"/>
      </g>
     </g>
    </g>
    <g id="ytick_82">
     <g id="line2d_159">
      <g>
       <use style="fill:#262626;stroke:#262626;stroke-width:0.5;" x="1720.1844" xlink:href="#ma0c2d30976" y="92.3659145524"/>
      </g>
     </g>
    </g>
    <g id="text_28">
     <!-- Latency (ms) -->
     <defs>
      <path d="M 9.8125 72.90625 
L 19.671875 72.90625 
L 19.671875 8.296875 
L 55.171875 8.296875 
L 55.171875 0 
L 9.8125 0 
z
" id="BitstreamVeraSans-Roman-4c"/>
      <path d="M 48.78125 52.59375 
L 48.78125 44.1875 
Q 44.96875 46.296875 41.140625 47.34375 
Q 37.3125 48.390625 33.40625 48.390625 
Q 24.65625 48.390625 19.8125 42.84375 
Q 14.984375 37.3125 14.984375 27.296875 
Q 14.984375 17.28125 19.8125 11.734375 
Q 24.65625 6.203125 33.40625 6.203125 
Q 37.3125 6.203125 41.140625 7.25 
Q 44.96875 8.296875 48.78125 10.40625 
L 48.78125 2.09375 
Q 45.015625 0.34375 40.984375 -0.53125 
Q 36.96875 -1.421875 32.421875 -1.421875 
Q 20.0625 -1.421875 12.78125 6.34375 
Q 5.515625 14.109375 5.515625 27.296875 
Q 5.515625 40.671875 12.859375 48.328125 
Q 20.21875 56 33.015625 56 
Q 37.15625 56 41.109375 55.140625 
Q 45.0625 54.296875 48.78125 52.59375 
" id="BitstreamVeraSans-Roman-63"/>
      <path d="M 32.171875 -5.078125 
Q 28.375 -14.84375 24.75 -17.8125 
Q 21.140625 -20.796875 15.09375 -20.796875 
L 7.90625 -20.796875 
L 7.90625 -13.28125 
L 13.1875 -13.28125 
Q 16.890625 -13.28125 18.9375 -11.515625 
Q 21 -9.765625 23.484375 -3.21875 
L 25.09375 0.875 
L 2.984375 54.6875 
L 12.5 54.6875 
L 29.59375 11.921875 
L 46.6875 54.6875 
L 56.203125 54.6875 
z
" id="BitstreamVeraSans-Roman-79"/>
     </defs>
     <g style="fill:#262626;" transform="translate(1768.842525 474.875625)rotate(-90.0)scale(0.12 -0.12)">
      <use xlink:href="#BitstreamVeraSans-Roman-4c"/>
      <use x="55.712890625" xlink:href="#BitstreamVeraSans-Roman-61"/>
      <use x="116.9921875" xlink:href="#BitstreamVeraSans-Roman-74"/>
      <use x="156.201171875" xlink:href="#BitstreamVeraSans-Roman-65"/>
      <use x="217.724609375" xlink:href="#BitstreamVeraSans-Roman-6e"/>
      <use x="281.103515625" xlink:href="#BitstreamVeraSans-Roman-63"/>
      <use x="336.083984375" xlink:href="#BitstreamVeraSans-Roman-79"/>
      <use x="395.263671875" xlink:href="#BitstreamVeraSans-Roman-20"/>
      <use x="427.05078125" xlink:href="#BitstreamVeraSans-Roman-28"/>
      <use x="466.064453125" xlink:href="#BitstreamVeraSans-Roman-6d"/>
      <use x="563.4765625" xlink:href="#BitstreamVeraSans-Roman-73"/>
      <use x="615.576171875" xlink:href="#BitstreamVeraSans-Roman-29"/>
     </g>
    </g>
   </g>
   <g id="line2d_160">
    <path clip-path="url(#pd3718a1ffb)" d="M 250.5375 733.014038 
L 254.736491 774.303277 
L 263.134473 732.648403 
L 267.333465 737.884124 
L 271.532456 716.758126 
L 275.731447 776.487774 
L 288.32842 693.434443 
L 292.527411 744.480433 
L 296.726403 733.285364 
L 300.925394 775.318643 
L 305.124385 770.305358 
L 309.323376 744.521403 
L 321.920349 651.122145 
L 326.119341 750.678392 
L 330.318332 745.297347 
L 334.517323 740.262232 
L 338.716314 737.98253 
L 342.915305 730.487253 
L 347.114296 716.35013 
L 355.512279 683.124078 
M 372.308243 553.985613 
L 389.104208 412.045506 
L 393.303199 672.726281 
L 401.701181 653.73599 
M 422.696137 459.842271 
L 439.492101 332.022422 
M 452.089075 284.638995 
L 468.885039 170.630418 
L 473.084031 182.770992 
L 485.681004 93.952941 
L 489.879995 409.067161 
L 494.078986 566.528044 
L 498.277977 599.455095 
L 506.67596 548.023796 
L 510.874951 683.467848 
L 515.073942 662.784802 
L 519.272933 728.627697 
L 523.471924 722.4596 
L 531.869907 668.131656 
L 536.068898 730.20182 
L 540.267889 735.704115 
L 544.46688 730.503762 
M 552.864862 691.332394 
L 569.660827 556.719936 
L 573.859818 691.85935 
L 582.2578 639.430085 
L 586.456791 604.441083 
L 590.655783 709.730991 
L 594.854774 693.159244 
L 607.451747 597.277564 
L 611.650738 599.618921 
L 615.849729 741.235188 
L 624.247712 684.701463 
L 628.446703 739.184444 
L 632.645694 771.212701 
L 636.844685 770.811108 
L 645.242667 725.142885 
L 649.441659 718.050283 
L 653.64065 759.185134 
L 662.038632 760.272469 
L 666.237623 767.078811 
L 670.436614 684.383229 
L 674.635605 650.051248 
L 678.834597 769.037842 
L 683.033588 760.413003 
L 687.232579 770.741396 
L 691.43157 776.106688 
L 695.630561 772.996272 
L 699.829552 769.003351 
L 704.028543 753.738881 
L 708.227535 752.482463 
L 712.426526 745.221814 
L 720.824508 690.771128 
L 725.023499 768.97046 
L 729.22249 770.304902 
L 733.421481 770.888075 
L 737.620473 752.654181 
L 741.819464 731.574493 
L 746.018455 775.052996 
L 750.217446 770.189547 
L 754.416437 766.953701 
L 758.615428 764.76537 
L 762.814419 760.951348 
L 767.013411 763.673668 
M 800.60534 478.193033 
L 817.401304 329.031717 
L 821.600295 680.39043 
L 825.799287 773.668001 
L 829.998278 768.003078 
L 834.197269 769.554411 
L 838.39626 767.933029 
L 842.595251 763.619245 
L 846.794242 539.868646 
L 850.993233 754.859387 
L 855.192225 759.441885 
L 863.590207 725.843942 
L 867.789198 714.165469 
L 871.988189 745.734593 
L 876.18718 734.995848 
L 880.386171 732.18138 
M 888.784154 726.748292 
L 905.580118 616.512579 
L 909.779109 714.301235 
L 913.978101 764.391171 
L 918.177092 764.773404 
L 922.376083 761.969261 
L 926.575074 768.376046 
L 930.774065 766.839812 
L 934.973056 768.452055 
L 939.172047 766.337341 
L 943.371039 762.034007 
L 947.57003 759.569392 
M 955.968012 719.200868 
L 972.763977 586.704938 
L 976.962968 580.475708 
M 985.36095 685.796271 
L 1002.156915 550.599095 
L 1006.355906 718.523593 
L 1010.554897 715.513235 
L 1014.753888 725.971233 
L 1027.350861 630.469372 
L 1031.549853 728.341638 
L 1035.748844 716.660955 
L 1039.947835 711.504482 
L 1044.146826 742.960952 
L 1048.345817 730.52594 
L 1052.544808 715.544699 
L 1056.743799 686.04236 
L 1073.539764 551.905287 
L 1077.738755 519.476741 
L 1081.937746 507.713027 
L 1086.136737 699.224417 
L 1090.335729 682.780899 
M 1098.733711 695.403898 
L 1115.529675 558.248815 
L 1119.728667 545.04553 
L 1123.927658 759.953408 
L 1128.126649 760.802751 
L 1132.32564 777.247059 
L 1136.524631 775.867452 
L 1140.723622 771.415374 
L 1144.922613 774.784897 
L 1149.121605 774.914211 
L 1153.320596 769.763992 
L 1157.519587 764.052485 
L 1161.718578 776.839414 
L 1165.917569 771.810545 
L 1170.11656 770.591272 
L 1174.315551 765.43951 
L 1178.514543 773.807918 
L 1182.713534 770.755614 
L 1186.912525 761.19596 
L 1191.111516 774.913716 
L 1195.310507 772.867604 
L 1199.509498 770.345463 
L 1203.708489 760.70707 
L 1207.907481 761.276897 
L 1212.106472 762.123649 
L 1216.305463 748.432808 
L 1220.504454 730.297214 
L 1224.703445 738.80239 
L 1237.300419 645.182438 
L 1241.49941 752.987173 
L 1245.698401 744.800179 
L 1249.897392 723.31769 
L 1254.096383 727.091703 
L 1258.295374 701.613851 
L 1275.091339 572.144925 
L 1279.29033 751.581406 
L 1283.489321 727.42273 
L 1287.688312 747.532188 
L 1291.887303 739.701385 
L 1296.086295 748.131463 
L 1300.285286 741.511923 
L 1304.484277 740.807637 
L 1321.280241 613.275412 
L 1325.479233 639.829228 
L 1329.678224 625.924908 
L 1338.076206 573.973195 
L 1342.275197 678.310244 
L 1346.474188 739.188076 
L 1350.673179 730.581721 
L 1354.872171 719.375572 
L 1359.071162 711.473676 
L 1363.270153 720.190301 
L 1367.469144 719.261518 
L 1371.668135 725.736997 
L 1375.867126 750.582132 
L 1380.066117 747.849913 
L 1384.265109 728.54494 
L 1388.4641 708.294195 
L 1396.862082 662.197918 
L 1401.061073 694.413744 
L 1405.260064 712.611279 
L 1409.459055 692.249044 
L 1413.658047 680.678875 
L 1422.056029 692.024563 
L 1426.25502 727.117088 
L 1430.454011 730.278328 
L 1434.653002 751.31827 
L 1451.448967 623.459411 
L 1455.647958 655.881062 
M 1468.244931 562.542847 
L 1485.040896 422.219577 
L 1489.239887 757.962664 
L 1493.438878 753.944028 
L 1497.637869 722.52781 
L 1514.433834 590.974072 
L 1518.632825 607.516657 
L 1531.229799 724.868653 
M 1548.025763 615.242151 
L 1564.821728 472.415295 
L 1569.020719 486.902565 
L 1573.21971 332.338025 
L 1577.418701 307.372537 
L 1581.617692 550.169432 
L 1585.816683 678.700004 
L 1590.015675 763.144675 
L 1594.214666 765.146804 
L 1602.612648 725.580933 
L 1606.811639 709.190339 
L 1611.01063 730.425646 
L 1619.408613 678.91462 
L 1623.607604 714.102351 
L 1627.806595 696.140449 
L 1636.204577 639.785425 
L 1640.403568 701.08725 
L 1644.602559 690.060166 
L 1648.801551 707.321601 
L 1653.000542 700.777216 
L 1657.199533 681.50513 
L 1661.398524 750.899944 
L 1665.597515 760.36597 
L 1669.796506 765.19183 
L 1673.995497 753.696912 
L 1678.194489 733.921022 
L 1690.791462 640.099341 
L 1694.990453 612.040355 
L 1699.189444 759.417285 
L 1703.388435 753.880343 
L 1707.587427 750.818509 
L 1711.786418 755.939568 
L 1711.786418 755.939568 
" style="fill:none;stroke:#d95f02;stroke-linecap:round;"/>
   </g>
  </g>
  <g id="text_29">
   <!-- TCP upload stream w/ping -->
   <defs>
    <path d="M 41.109375 46.296875 
Q 39.59375 47.171875 37.8125 47.578125 
Q 36.03125 48 33.890625 48 
Q 26.265625 48 22.1875 43.046875 
Q 18.109375 38.09375 18.109375 28.8125 
L 18.109375 0 
L 9.078125 0 
L 9.078125 54.6875 
L 18.109375 54.6875 
L 18.109375 46.1875 
Q 20.953125 51.171875 25.484375 53.578125 
Q 30.03125 56 36.53125 56 
Q 37.453125 56 38.578125 55.875 
Q 39.703125 55.765625 41.0625 55.515625 
z
" id="BitstreamVeraSans-Roman-72"/>
    <path d="M 8.5 21.578125 
L 8.5 54.6875 
L 17.484375 54.6875 
L 17.484375 21.921875 
Q 17.484375 14.15625 20.5 10.265625 
Q 23.53125 6.390625 29.59375 6.390625 
Q 36.859375 6.390625 41.078125 11.03125 
Q 45.3125 15.671875 45.3125 23.6875 
L 45.3125 54.6875 
L 54.296875 54.6875 
L 54.296875 0 
L 45.3125 0 
L 45.3125 8.40625 
Q 42.046875 3.421875 37.71875 1 
Q 33.40625 -1.421875 27.6875 -1.421875 
Q 18.265625 -1.421875 13.375 4.4375 
Q 8.5 10.296875 8.5 21.578125 
" id="BitstreamVeraSans-Roman-75"/>
    <path d="M 64.40625 67.28125 
L 64.40625 56.890625 
Q 59.421875 61.53125 53.78125 63.8125 
Q 48.140625 66.109375 41.796875 66.109375 
Q 29.296875 66.109375 22.65625 58.46875 
Q 16.015625 50.828125 16.015625 36.375 
Q 16.015625 21.96875 22.65625 14.328125 
Q 29.296875 6.6875 41.796875 6.6875 
Q 48.140625 6.6875 53.78125 8.984375 
Q 59.421875 11.28125 64.40625 15.921875 
L 64.40625 5.609375 
Q 59.234375 2.09375 53.4375 0.328125 
Q 47.65625 -1.421875 41.21875 -1.421875 
Q 24.65625 -1.421875 15.125 8.703125 
Q 5.609375 18.84375 5.609375 36.375 
Q 5.609375 53.953125 15.125 64.078125 
Q 24.65625 74.21875 41.21875 74.21875 
Q 47.75 74.21875 53.53125 72.484375 
Q 59.328125 70.75 64.40625 67.28125 
" id="BitstreamVeraSans-Roman-43"/>
    <path d="M 4.203125 54.6875 
L 13.1875 54.6875 
L 24.421875 12.015625 
L 35.59375 54.6875 
L 46.1875 54.6875 
L 57.421875 12.015625 
L 68.609375 54.6875 
L 77.59375 54.6875 
L 63.28125 0 
L 52.6875 0 
L 40.921875 44.828125 
L 29.109375 0 
L 18.5 0 
z
" id="BitstreamVeraSans-Roman-77"/>
   </defs>
   <g style="fill:#262626;" transform="translate(910.2225 10.6378125)scale(0.14 -0.14)">
    <use xlink:href="#BitstreamVeraSans-Roman-54"/>
    <use x="61.005859375" xlink:href="#BitstreamVeraSans-Roman-43"/>
    <use x="130.830078125" xlink:href="#BitstreamVeraSans-Roman-50"/>
    <use x="191.1328125" xlink:href="#BitstreamVeraSans-Roman-20"/>
    <use x="222.919921875" xlink:href="#BitstreamVeraSans-Roman-75"/>
    <use x="286.298828125" xlink:href="#BitstreamVeraSans-Roman-70"/>
    <use x="349.775390625" xlink:href="#BitstreamVeraSans-Roman-6c"/>
    <use x="377.55859375" xlink:href="#BitstreamVeraSans-Roman-6f"/>
    <use x="438.740234375" xlink:href="#BitstreamVeraSans-Roman-61"/>
    <use x="500.01953125" xlink:href="#BitstreamVeraSans-Roman-64"/>
    <use x="563.49609375" xlink:href="#BitstreamVeraSans-Roman-20"/>
    <use x="595.283203125" xlink:href="#BitstreamVeraSans-Roman-73"/>
    <use x="647.3828125" xlink:href="#BitstreamVeraSans-Roman-74"/>
    <use x="686.591796875" xlink:href="#BitstreamVeraSans-Roman-72"/>
    <use x="727.673828125" xlink:href="#BitstreamVeraSans-Roman-65"/>
    <use x="789.197265625" xlink:href="#BitstreamVeraSans-Roman-61"/>
    <use x="850.4765625" xlink:href="#BitstreamVeraSans-Roman-6d"/>
    <use x="947.888671875" xlink:href="#BitstreamVeraSans-Roman-20"/>
    <use x="979.67578125" xlink:href="#BitstreamVeraSans-Roman-77"/>
    <use x="1061.46289062" xlink:href="#BitstreamVeraSans-Roman-2f"/>
    <use x="1095.15429688" xlink:href="#BitstreamVeraSans-Roman-70"/>
    <use x="1158.63085938" xlink:href="#BitstreamVeraSans-Roman-69"/>
    <use x="1186.4140625" xlink:href="#BitstreamVeraSans-Roman-6e"/>
    <use x="1249.79296875" xlink:href="#BitstreamVeraSans-Roman-67"/>
   </g>
   <!-- Bandwidth and ping plot -->
   <defs>
    <path d="M 19.671875 34.8125 
L 19.671875 8.109375 
L 35.5 8.109375 
Q 43.453125 8.109375 47.28125 11.40625 
Q 51.125 14.703125 51.125 21.484375 
Q 51.125 28.328125 47.28125 31.5625 
Q 43.453125 34.8125 35.5 34.8125 
z
M 19.671875 64.796875 
L 19.671875 42.828125 
L 34.28125 42.828125 
Q 41.5 42.828125 45.03125 45.53125 
Q 48.578125 48.25 48.578125 53.8125 
Q 48.578125 59.328125 45.03125 62.0625 
Q 41.5 64.796875 34.28125 64.796875 
z
M 9.8125 72.90625 
L 35.015625 72.90625 
Q 46.296875 72.90625 52.390625 68.21875 
Q 58.5 63.53125 58.5 54.890625 
Q 58.5 48.1875 55.375 44.234375 
Q 52.25 40.28125 46.1875 39.3125 
Q 53.46875 37.75 57.5 32.78125 
Q 61.53125 27.828125 61.53125 20.40625 
Q 61.53125 10.640625 54.890625 5.3125 
Q 48.25 0 35.984375 0 
L 9.8125 0 
z
" id="BitstreamVeraSans-Roman-42"/>
    <path d="M 54.890625 33.015625 
L 54.890625 0 
L 45.90625 0 
L 45.90625 32.71875 
Q 45.90625 40.484375 42.875 44.328125 
Q 39.84375 48.1875 33.796875 48.1875 
Q 26.515625 48.1875 22.3125 43.546875 
Q 18.109375 38.921875 18.109375 30.90625 
L 18.109375 0 
L 9.078125 0 
L 9.078125 75.984375 
L 18.109375 75.984375 
L 18.109375 46.1875 
Q 21.34375 51.125 25.703125 53.5625 
Q 30.078125 56 35.796875 56 
Q 45.21875 56 50.046875 50.171875 
Q 54.890625 44.34375 54.890625 33.015625 
" id="BitstreamVeraSans-Roman-68"/>
   </defs>
   <g style="fill:#262626;" transform="translate(916.35515625 26.31475)scale(0.14 -0.14)">
    <use xlink:href="#BitstreamVeraSans-Roman-42"/>
    <use x="68.603515625" xlink:href="#BitstreamVeraSans-Roman-61"/>
    <use x="129.8828125" xlink:href="#BitstreamVeraSans-Roman-6e"/>
    <use x="193.26171875" xlink:href="#BitstreamVeraSans-Roman-64"/>
    <use x="256.73828125" xlink:href="#BitstreamVeraSans-Roman-77"/>
    <use x="338.525390625" xlink:href="#BitstreamVeraSans-Roman-69"/>
    <use x="366.30859375" xlink:href="#BitstreamVeraSans-Roman-64"/>
    <use x="429.78515625" xlink:href="#BitstreamVeraSans-Roman-74"/>
    <use x="468.994140625" xlink:href="#BitstreamVeraSans-Roman-68"/>
    <use x="532.373046875" xlink:href="#BitstreamVeraSans-Roman-20"/>
    <use x="564.16015625" xlink:href="#BitstreamVeraSans-Roman-61"/>
    <use x="625.439453125" xlink:href="#BitstreamVeraSans-Roman-6e"/>
    <use x="688.818359375" xlink:href="#BitstreamVeraSans-Roman-64"/>
    <use x="752.294921875" xlink:href="#BitstreamVeraSans-Roman-20"/>
    <use x="784.08203125" xlink:href="#BitstreamVeraSans-Roman-70"/>
    <use x="847.55859375" xlink:href="#BitstreamVeraSans-Roman-69"/>
    <use x="875.341796875" xlink:href="#BitstreamVeraSans-Roman-6e"/>
    <use x="938.720703125" xlink:href="#BitstreamVeraSans-Roman-67"/>
    <use x="1002.19726562" xlink:href="#BitstreamVeraSans-Roman-20"/>
    <use x="1033.984375" xlink:href="#BitstreamVeraSans-Roman-70"/>
    <use x="1097.4609375" xlink:href="#BitstreamVeraSans-Roman-6c"/>
    <use x="1125.24414062" xlink:href="#BitstreamVeraSans-Roman-6f"/>
    <use x="1186.42578125" xlink:href="#BitstreamVeraSans-Roman-74"/>
   </g>
   <!-- bmx6 -->
   <defs>
    <path d="M 54.890625 54.6875 
L 35.109375 28.078125 
L 55.90625 0 
L 45.3125 0 
L 29.390625 21.484375 
L 13.484375 0 
L 2.875 0 
L 24.125 28.609375 
L 4.6875 54.6875 
L 15.28125 54.6875 
L 29.78125 35.203125 
L 44.28125 54.6875 
z
" id="BitstreamVeraSans-Roman-78"/>
   </defs>
   <g style="fill:#262626;" transform="translate(982.29078125 41.9916875)scale(0.14 -0.14)">
    <use xlink:href="#BitstreamVeraSans-Roman-62"/>
    <use x="63.4765625" xlink:href="#BitstreamVeraSans-Roman-6d"/>
    <use x="160.888671875" xlink:href="#BitstreamVeraSans-Roman-78"/>
    <use x="220.068359375" xlink:href="#BitstreamVeraSans-Roman-36"/>
   </g>
  </g>
  <g id="text_30">
   <!-- Local/remote: nomad/172.17.27.154 - Time: 2016-05-06T12:30:38.764219 - Length/step: 60s/0.20s -->
   <defs>
    <path d="M 31.78125 34.625 
Q 24.75 34.625 20.71875 30.859375 
Q 16.703125 27.09375 16.703125 20.515625 
Q 16.703125 13.921875 20.71875 10.15625 
Q 24.75 6.390625 31.78125 6.390625 
Q 38.8125 6.390625 42.859375 10.171875 
Q 46.921875 13.96875 46.921875 20.515625 
Q 46.921875 27.09375 42.890625 30.859375 
Q 38.875 34.625 31.78125 34.625 
M 21.921875 38.8125 
Q 15.578125 40.375 12.03125 44.71875 
Q 8.5 49.078125 8.5 55.328125 
Q 8.5 64.0625 14.71875 69.140625 
Q 20.953125 74.21875 31.78125 74.21875 
Q 42.671875 74.21875 48.875 69.140625 
Q 55.078125 64.0625 55.078125 55.328125 
Q 55.078125 49.078125 51.53125 44.71875 
Q 48 40.375 41.703125 38.8125 
Q 48.828125 37.15625 52.796875 32.3125 
Q 56.78125 27.484375 56.78125 20.515625 
Q 56.78125 9.90625 50.3125 4.234375 
Q 43.84375 -1.421875 31.78125 -1.421875 
Q 19.734375 -1.421875 13.25 4.234375 
Q 6.78125 9.90625 6.78125 20.515625 
Q 6.78125 27.484375 10.78125 32.3125 
Q 14.796875 37.15625 21.921875 38.8125 
M 18.3125 54.390625 
Q 18.3125 48.734375 21.84375 45.5625 
Q 25.390625 42.390625 31.78125 42.390625 
Q 38.140625 42.390625 41.71875 45.5625 
Q 45.3125 48.734375 45.3125 54.390625 
Q 45.3125 60.0625 41.71875 63.234375 
Q 38.140625 66.40625 31.78125 66.40625 
Q 25.390625 66.40625 21.84375 63.234375 
Q 18.3125 60.0625 18.3125 54.390625 
" id="BitstreamVeraSans-Roman-38"/>
    <path d="M 11.71875 12.40625 
L 22.015625 12.40625 
L 22.015625 0 
L 11.71875 0 
z
M 11.71875 51.703125 
L 22.015625 51.703125 
L 22.015625 39.3125 
L 11.71875 39.3125 
z
" id="BitstreamVeraSans-Roman-3a"/>
    <path d="M 10.6875 12.40625 
L 21 12.40625 
L 21 0 
L 10.6875 0 
z
" id="BitstreamVeraSans-Roman-2e"/>
    <path d="M 4.890625 31.390625 
L 31.203125 31.390625 
L 31.203125 23.390625 
L 4.890625 23.390625 
z
" id="BitstreamVeraSans-Roman-2d"/>
    <path d="M 10.984375 1.515625 
L 10.984375 10.5 
Q 14.703125 8.734375 18.5 7.8125 
Q 22.3125 6.890625 25.984375 6.890625 
Q 35.75 6.890625 40.890625 13.453125 
Q 46.046875 20.015625 46.78125 33.40625 
Q 43.953125 29.203125 39.59375 26.953125 
Q 35.25 24.703125 29.984375 24.703125 
Q 19.046875 24.703125 12.671875 31.3125 
Q 6.296875 37.9375 6.296875 49.421875 
Q 6.296875 60.640625 12.9375 67.421875 
Q 19.578125 74.21875 30.609375 74.21875 
Q 43.265625 74.21875 49.921875 64.515625 
Q 56.59375 54.828125 56.59375 36.375 
Q 56.59375 19.140625 48.40625 8.859375 
Q 40.234375 -1.421875 26.421875 -1.421875 
Q 22.703125 -1.421875 18.890625 -0.6875 
Q 15.09375 0.046875 10.984375 1.515625 
M 30.609375 32.421875 
Q 37.25 32.421875 41.125 36.953125 
Q 45.015625 41.5 45.015625 49.421875 
Q 45.015625 57.28125 41.125 61.84375 
Q 37.25 66.40625 30.609375 66.40625 
Q 23.96875 66.40625 20.09375 61.84375 
Q 16.21875 57.28125 16.21875 49.421875 
Q 16.21875 41.5 20.09375 36.953125 
Q 23.96875 32.421875 30.609375 32.421875 
" id="BitstreamVeraSans-Roman-39"/>
   </defs>
   <g style="fill:#262626;" transform="translate(802.095625 869.53625)scale(0.08 -0.08)">
    <use xlink:href="#BitstreamVeraSans-Roman-4c"/>
    <use x="55.697265625" xlink:href="#BitstreamVeraSans-Roman-6f"/>
    <use x="116.87890625" xlink:href="#BitstreamVeraSans-Roman-63"/>
    <use x="171.859375" xlink:href="#BitstreamVeraSans-Roman-61"/>
    <use x="233.138671875" xlink:href="#BitstreamVeraSans-Roman-6c"/>
    <use x="260.921875" xlink:href="#BitstreamVeraSans-Roman-2f"/>
    <use x="294.61328125" xlink:href="#BitstreamVeraSans-Roman-72"/>
    <use x="335.6953125" xlink:href="#BitstreamVeraSans-Roman-65"/>
    <use x="397.21875" xlink:href="#BitstreamVeraSans-Roman-6d"/>
    <use x="494.630859375" xlink:href="#BitstreamVeraSans-Roman-6f"/>
    <use x="555.8125" xlink:href="#BitstreamVeraSans-Roman-74"/>
    <use x="595.021484375" xlink:href="#BitstreamVeraSans-Roman-65"/>
    <use x="656.544921875" xlink:href="#BitstreamVeraSans-Roman-3a"/>
    <use x="690.236328125" xlink:href="#BitstreamVeraSans-Roman-20"/>
    <use x="722.0234375" xlink:href="#BitstreamVeraSans-Roman-6e"/>
    <use x="785.40234375" xlink:href="#BitstreamVeraSans-Roman-6f"/>
    <use x="846.583984375" xlink:href="#BitstreamVeraSans-Roman-6d"/>
    <use x="943.99609375" xlink:href="#BitstreamVeraSans-Roman-61"/>
    <use x="1005.27539062" xlink:href="#BitstreamVeraSans-Roman-64"/>
    <use x="1068.75195312" xlink:href="#BitstreamVeraSans-Roman-2f"/>
    <use x="1102.44335938" xlink:href="#BitstreamVeraSans-Roman-31"/>
    <use x="1166.06640625" xlink:href="#BitstreamVeraSans-Roman-37"/>
    <use x="1229.68945312" xlink:href="#BitstreamVeraSans-Roman-32"/>
    <use x="1293.3125" xlink:href="#BitstreamVeraSans-Roman-2e"/>
    <use x="1325.09960938" xlink:href="#BitstreamVeraSans-Roman-31"/>
    <use x="1388.72265625" xlink:href="#BitstreamVeraSans-Roman-37"/>
    <use x="1452.34570312" xlink:href="#BitstreamVeraSans-Roman-2e"/>
    <use x="1484.1328125" xlink:href="#BitstreamVeraSans-Roman-32"/>
    <use x="1547.75585938" xlink:href="#BitstreamVeraSans-Roman-37"/>
    <use x="1611.37890625" xlink:href="#BitstreamVeraSans-Roman-2e"/>
    <use x="1643.16601562" xlink:href="#BitstreamVeraSans-Roman-31"/>
    <use x="1706.7890625" xlink:href="#BitstreamVeraSans-Roman-35"/>
    <use x="1770.41210938" xlink:href="#BitstreamVeraSans-Roman-34"/>
    <use x="1834.03515625" xlink:href="#BitstreamVeraSans-Roman-20"/>
    <use x="1865.82226562" xlink:href="#BitstreamVeraSans-Roman-2d"/>
    <use x="1901.90625" xlink:href="#BitstreamVeraSans-Roman-20"/>
    <use x="1933.69335938" xlink:href="#BitstreamVeraSans-Roman-54"/>
    <use x="1994.73046875" xlink:href="#BitstreamVeraSans-Roman-69"/>
    <use x="2022.51367188" xlink:href="#BitstreamVeraSans-Roman-6d"/>
    <use x="2119.92578125" xlink:href="#BitstreamVeraSans-Roman-65"/>
    <use x="2181.44921875" xlink:href="#BitstreamVeraSans-Roman-3a"/>
    <use x="2215.140625" xlink:href="#BitstreamVeraSans-Roman-20"/>
    <use x="2246.92773438" xlink:href="#BitstreamVeraSans-Roman-32"/>
    <use x="2310.55078125" xlink:href="#BitstreamVeraSans-Roman-30"/>
    <use x="2374.17382812" xlink:href="#BitstreamVeraSans-Roman-31"/>
    <use x="2437.796875" xlink:href="#BitstreamVeraSans-Roman-36"/>
    <use x="2501.41992188" xlink:href="#BitstreamVeraSans-Roman-2d"/>
    <use x="2537.50390625" xlink:href="#BitstreamVeraSans-Roman-30"/>
    <use x="2601.12695312" xlink:href="#BitstreamVeraSans-Roman-35"/>
    <use x="2664.75" xlink:href="#BitstreamVeraSans-Roman-2d"/>
    <use x="2700.83398438" xlink:href="#BitstreamVeraSans-Roman-30"/>
    <use x="2764.45703125" xlink:href="#BitstreamVeraSans-Roman-36"/>
    <use x="2828.08007812" xlink:href="#BitstreamVeraSans-Roman-54"/>
    <use x="2889.1640625" xlink:href="#BitstreamVeraSans-Roman-31"/>
    <use x="2952.78710938" xlink:href="#BitstreamVeraSans-Roman-32"/>
    <use x="3016.41015625" xlink:href="#BitstreamVeraSans-Roman-3a"/>
    <use x="3050.1015625" xlink:href="#BitstreamVeraSans-Roman-33"/>
    <use x="3113.72460938" xlink:href="#BitstreamVeraSans-Roman-30"/>
    <use x="3177.34765625" xlink:href="#BitstreamVeraSans-Roman-3a"/>
    <use x="3211.0390625" xlink:href="#BitstreamVeraSans-Roman-33"/>
    <use x="3274.66210938" xlink:href="#BitstreamVeraSans-Roman-38"/>
    <use x="3338.28515625" xlink:href="#BitstreamVeraSans-Roman-2e"/>
    <use x="3370.07226562" xlink:href="#BitstreamVeraSans-Roman-37"/>
    <use x="3433.6953125" xlink:href="#BitstreamVeraSans-Roman-36"/>
    <use x="3497.31835938" xlink:href="#BitstreamVeraSans-Roman-34"/>
    <use x="3560.94140625" xlink:href="#BitstreamVeraSans-Roman-32"/>
    <use x="3624.56445312" xlink:href="#BitstreamVeraSans-Roman-31"/>
    <use x="3688.1875" xlink:href="#BitstreamVeraSans-Roman-39"/>
    <use x="3751.81054688" xlink:href="#BitstreamVeraSans-Roman-20"/>
    <use x="3783.59765625" xlink:href="#BitstreamVeraSans-Roman-2d"/>
    <use x="3819.68164062" xlink:href="#BitstreamVeraSans-Roman-20"/>
    <use x="3851.46875" xlink:href="#BitstreamVeraSans-Roman-4c"/>
    <use x="3907.16601562" xlink:href="#BitstreamVeraSans-Roman-65"/>
    <use x="3968.68945312" xlink:href="#BitstreamVeraSans-Roman-6e"/>
    <use x="4032.06835938" xlink:href="#BitstreamVeraSans-Roman-67"/>
    <use x="4095.54492188" xlink:href="#BitstreamVeraSans-Roman-74"/>
    <use x="4134.75390625" xlink:href="#BitstreamVeraSans-Roman-68"/>
    <use x="4198.1328125" xlink:href="#BitstreamVeraSans-Roman-2f"/>
    <use x="4231.82421875" xlink:href="#BitstreamVeraSans-Roman-73"/>
    <use x="4283.92382812" xlink:href="#BitstreamVeraSans-Roman-74"/>
    <use x="4323.1328125" xlink:href="#BitstreamVeraSans-Roman-65"/>
    <use x="4384.65625" xlink:href="#BitstreamVeraSans-Roman-70"/>
    <use x="4448.1328125" xlink:href="#BitstreamVeraSans-Roman-3a"/>
    <use x="4481.82421875" xlink:href="#BitstreamVeraSans-Roman-20"/>
    <use x="4513.61132812" xlink:href="#BitstreamVeraSans-Roman-36"/>
    <use x="4577.234375" xlink:href="#BitstreamVeraSans-Roman-30"/>
    <use x="4640.85742188" xlink:href="#BitstreamVeraSans-Roman-73"/>
    <use x="4692.95703125" xlink:href="#BitstreamVeraSans-Roman-2f"/>
    <use x="4726.6484375" xlink:href="#BitstreamVeraSans-Roman-30"/>
    <use x="4790.27148438" xlink:href="#BitstreamVeraSans-Roman-2e"/>
    <use x="4822.05859375" xlink:href="#BitstreamVeraSans-Roman-32"/>
    <use x="4885.68164062" xlink:href="#BitstreamVeraSans-Roman-30"/>
    <use x="4949.3046875" xlink:href="#BitstreamVeraSans-Roman-73"/>
   </g>
  </g>
 </g>
 <defs>
  <clipPath id="pd3718a1ffb">
   <rect height="696.96" width="1469.6469" x="250.5375" y="87.12"/>
  </clipPath>
 </defs>
</svg>
