<?xml version="1.0" encoding="utf-8" standalone="no"?>
<!DOCTYPE svg PUBLIC "-//W3C//DTD SVG 1.1//EN"
  "http://www.w3.org/Graphics/SVG/1.1/DTD/svg11.dtd">
<!-- Created with matplotlib (http://matplotlib.org/) -->
<svg height="862pt" version="1.1" viewBox="0 0 1989 862" width="1989pt" xmlns="http://www.w3.org/2000/svg" xmlns:xlink="http://www.w3.org/1999/xlink">
 <defs>
  <style type="text/css">
*{stroke-linecap:butt;stroke-linejoin:round;stroke-miterlimit:100000;}
  </style>
 </defs>
 <g id="figure_1">
  <g id="patch_1">
   <path d="M 0 862.2 
L 1989 862.2 
L 1989 0 
L 0 0 
z
" style="fill:#ffffff;"/>
  </g>
  <g id="axes_1">
   <g id="patch_2">
    <path d="M 248.625 775.98 
L 1503.4644 775.98 
L 1503.4644 86.22 
L 248.625 86.22 
z
" style="fill:#eaeaf2;"/>
   </g>
   <g id="matplotlib.axis_1">
    <g id="xtick_1">
     <g id="line2d_1">
      <path clip-path="url(#p14f8dba177)" d="M 478.302369 775.98 
L 478.302369 86.22 
" style="fill:none;stroke:#ffffff;stroke-linecap:round;stroke-width:0.5;"/>
     </g>
     <g id="line2d_2">
      <defs>
       <path d="M 0 0 
L 0 0 
" id="m175815f9da" style="stroke:#262626;stroke-width:0.5;"/>
      </defs>
      <g>
       <use style="fill:#262626;stroke:#262626;stroke-width:0.5;" x="478.30236942" xlink:href="#m175815f9da" y="775.98"/>
      </g>
     </g>
     <g id="line2d_3">
      <g>
       <use style="fill:#262626;stroke:#262626;stroke-width:0.5;" x="478.30236942" xlink:href="#m175815f9da" y="86.22"/>
      </g>
     </g>
     <g id="text_1">
      <!-- 20 -->
      <defs>
       <path d="M 19.1875 8.296875 
L 53.609375 8.296875 
L 53.609375 0 
L 7.328125 0 
L 7.328125 8.296875 
Q 12.9375 14.109375 22.625 23.890625 
Q 32.328125 33.6875 34.8125 36.53125 
Q 39.546875 41.84375 41.421875 45.53125 
Q 43.3125 49.21875 43.3125 52.78125 
Q 43.3125 58.59375 39.234375 62.25 
Q 35.15625 65.921875 28.609375 65.921875 
Q 23.96875 65.921875 18.8125 64.3125 
Q 13.671875 62.703125 7.8125 59.421875 
L 7.8125 69.390625 
Q 13.765625 71.78125 18.9375 73 
Q 24.125 74.21875 28.421875 74.21875 
Q 39.75 74.21875 46.484375 68.546875 
Q 53.21875 62.890625 53.21875 53.421875 
Q 53.21875 48.921875 51.53125 44.890625 
Q 49.859375 40.875 45.40625 35.40625 
Q 44.1875 33.984375 37.640625 27.21875 
Q 31.109375 20.453125 19.1875 8.296875 
" id="BitstreamVeraSans-Roman-32"/>
       <path d="M 31.78125 66.40625 
Q 24.171875 66.40625 20.328125 58.90625 
Q 16.5 51.421875 16.5 36.375 
Q 16.5 21.390625 20.328125 13.890625 
Q 24.171875 6.390625 31.78125 6.390625 
Q 39.453125 6.390625 43.28125 13.890625 
Q 47.125 21.390625 47.125 36.375 
Q 47.125 51.421875 43.28125 58.90625 
Q 39.453125 66.40625 31.78125 66.40625 
M 31.78125 74.21875 
Q 44.046875 74.21875 50.515625 64.515625 
Q 56.984375 54.828125 56.984375 36.375 
Q 56.984375 17.96875 50.515625 8.265625 
Q 44.046875 -1.421875 31.78125 -1.421875 
Q 19.53125 -1.421875 13.0625 8.265625 
Q 6.59375 17.96875 6.59375 36.375 
Q 6.59375 54.828125 13.0625 64.515625 
Q 19.53125 74.21875 31.78125 74.21875 
" id="BitstreamVeraSans-Roman-30"/>
      </defs>
      <g style="fill:#262626;" transform="translate(470.66736942 789.098125)scale(0.12 -0.12)">
       <use xlink:href="#BitstreamVeraSans-Roman-32"/>
       <use x="63.623046875" xlink:href="#BitstreamVeraSans-Roman-30"/>
      </g>
     </g>
    </g>
    <g id="xtick_2">
     <g id="line2d_4">
      <path clip-path="url(#p14f8dba177)" d="M 738.267964 775.98 
L 738.267964 86.22 
" style="fill:none;stroke:#ffffff;stroke-linecap:round;stroke-width:0.5;"/>
     </g>
     <g id="line2d_5">
      <g>
       <use style="fill:#262626;stroke:#262626;stroke-width:0.5;" x="738.267963872" xlink:href="#m175815f9da" y="775.98"/>
      </g>
     </g>
     <g id="line2d_6">
      <g>
       <use style="fill:#262626;stroke:#262626;stroke-width:0.5;" x="738.267963872" xlink:href="#m175815f9da" y="86.22"/>
      </g>
     </g>
     <g id="text_2">
      <!-- 40 -->
      <defs>
       <path d="M 37.796875 64.3125 
L 12.890625 25.390625 
L 37.796875 25.390625 
z
M 35.203125 72.90625 
L 47.609375 72.90625 
L 47.609375 25.390625 
L 58.015625 25.390625 
L 58.015625 17.1875 
L 47.609375 17.1875 
L 47.609375 0 
L 37.796875 0 
L 37.796875 17.1875 
L 4.890625 17.1875 
L 4.890625 26.703125 
z
" id="BitstreamVeraSans-Roman-34"/>
      </defs>
      <g style="fill:#262626;" transform="translate(730.632963872 789.098125)scale(0.12 -0.12)">
       <use xlink:href="#BitstreamVeraSans-Roman-34"/>
       <use x="63.623046875" xlink:href="#BitstreamVeraSans-Roman-30"/>
      </g>
     </g>
    </g>
    <g id="xtick_3">
     <g id="line2d_7">
      <path clip-path="url(#p14f8dba177)" d="M 998.233558 775.98 
L 998.233558 86.22 
" style="fill:none;stroke:#ffffff;stroke-linecap:round;stroke-width:0.5;"/>
     </g>
     <g id="line2d_8">
      <g>
       <use style="fill:#262626;stroke:#262626;stroke-width:0.5;" x="998.233558323" xlink:href="#m175815f9da" y="775.98"/>
      </g>
     </g>
     <g id="line2d_9">
      <g>
       <use style="fill:#262626;stroke:#262626;stroke-width:0.5;" x="998.233558323" xlink:href="#m175815f9da" y="86.22"/>
      </g>
     </g>
     <g id="text_3">
      <!-- 60 -->
      <defs>
       <path d="M 33.015625 40.375 
Q 26.375 40.375 22.484375 35.828125 
Q 18.609375 31.296875 18.609375 23.390625 
Q 18.609375 15.53125 22.484375 10.953125 
Q 26.375 6.390625 33.015625 6.390625 
Q 39.65625 6.390625 43.53125 10.953125 
Q 47.40625 15.53125 47.40625 23.390625 
Q 47.40625 31.296875 43.53125 35.828125 
Q 39.65625 40.375 33.015625 40.375 
M 52.59375 71.296875 
L 52.59375 62.3125 
Q 48.875 64.0625 45.09375 64.984375 
Q 41.3125 65.921875 37.59375 65.921875 
Q 27.828125 65.921875 22.671875 59.328125 
Q 17.53125 52.734375 16.796875 39.40625 
Q 19.671875 43.65625 24.015625 45.921875 
Q 28.375 48.1875 33.59375 48.1875 
Q 44.578125 48.1875 50.953125 41.515625 
Q 57.328125 34.859375 57.328125 23.390625 
Q 57.328125 12.15625 50.6875 5.359375 
Q 44.046875 -1.421875 33.015625 -1.421875 
Q 20.359375 -1.421875 13.671875 8.265625 
Q 6.984375 17.96875 6.984375 36.375 
Q 6.984375 53.65625 15.1875 63.9375 
Q 23.390625 74.21875 37.203125 74.21875 
Q 40.921875 74.21875 44.703125 73.484375 
Q 48.484375 72.75 52.59375 71.296875 
" id="BitstreamVeraSans-Roman-36"/>
      </defs>
      <g style="fill:#262626;" transform="translate(990.598558323 789.098125)scale(0.12 -0.12)">
       <use xlink:href="#BitstreamVeraSans-Roman-36"/>
       <use x="63.623046875" xlink:href="#BitstreamVeraSans-Roman-30"/>
      </g>
     </g>
    </g>
    <g id="xtick_4">
     <g id="line2d_10">
      <path clip-path="url(#p14f8dba177)" d="M 1258.199153 775.98 
L 1258.199153 86.22 
" style="fill:none;stroke:#ffffff;stroke-linecap:round;stroke-width:0.5;"/>
     </g>
     <g id="line2d_11">
      <g>
       <use style="fill:#262626;stroke:#262626;stroke-width:0.5;" x="1258.19915277" xlink:href="#m175815f9da" y="775.98"/>
      </g>
     </g>
     <g id="line2d_12">
      <g>
       <use style="fill:#262626;stroke:#262626;stroke-width:0.5;" x="1258.19915277" xlink:href="#m175815f9da" y="86.22"/>
      </g>
     </g>
     <g id="text_4">
      <!-- 80 -->
      <defs>
       <path d="M 31.78125 34.625 
Q 24.75 34.625 20.71875 30.859375 
Q 16.703125 27.09375 16.703125 20.515625 
Q 16.703125 13.921875 20.71875 10.15625 
Q 24.75 6.390625 31.78125 6.390625 
Q 38.8125 6.390625 42.859375 10.171875 
Q 46.921875 13.96875 46.921875 20.515625 
Q 46.921875 27.09375 42.890625 30.859375 
Q 38.875 34.625 31.78125 34.625 
M 21.921875 38.8125 
Q 15.578125 40.375 12.03125 44.71875 
Q 8.5 49.078125 8.5 55.328125 
Q 8.5 64.0625 14.71875 69.140625 
Q 20.953125 74.21875 31.78125 74.21875 
Q 42.671875 74.21875 48.875 69.140625 
Q 55.078125 64.0625 55.078125 55.328125 
Q 55.078125 49.078125 51.53125 44.71875 
Q 48 40.375 41.703125 38.8125 
Q 48.828125 37.15625 52.796875 32.3125 
Q 56.78125 27.484375 56.78125 20.515625 
Q 56.78125 9.90625 50.3125 4.234375 
Q 43.84375 -1.421875 31.78125 -1.421875 
Q 19.734375 -1.421875 13.25 4.234375 
Q 6.78125 9.90625 6.78125 20.515625 
Q 6.78125 27.484375 10.78125 32.3125 
Q 14.796875 37.15625 21.921875 38.8125 
M 18.3125 54.390625 
Q 18.3125 48.734375 21.84375 45.5625 
Q 25.390625 42.390625 31.78125 42.390625 
Q 38.140625 42.390625 41.71875 45.5625 
Q 45.3125 48.734375 45.3125 54.390625 
Q 45.3125 60.0625 41.71875 63.234375 
Q 38.140625 66.40625 31.78125 66.40625 
Q 25.390625 66.40625 21.84375 63.234375 
Q 18.3125 60.0625 18.3125 54.390625 
" id="BitstreamVeraSans-Roman-38"/>
      </defs>
      <g style="fill:#262626;" transform="translate(1250.56415277 789.098125)scale(0.12 -0.12)">
       <use xlink:href="#BitstreamVeraSans-Roman-38"/>
       <use x="63.623046875" xlink:href="#BitstreamVeraSans-Roman-30"/>
      </g>
     </g>
    </g>
    <g id="xtick_5">
     <g id="line2d_13">
      <g>
       <use style="fill:#262626;stroke:#262626;stroke-width:0.5;" x="283.328173581" xlink:href="#m175815f9da" y="775.98"/>
      </g>
     </g>
     <g id="line2d_14">
      <g>
       <use style="fill:#262626;stroke:#262626;stroke-width:0.5;" x="283.328173581" xlink:href="#m175815f9da" y="86.22"/>
      </g>
     </g>
    </g>
    <g id="xtick_6">
     <g id="line2d_15">
      <g>
       <use style="fill:#262626;stroke:#262626;stroke-width:0.5;" x="348.319572194" xlink:href="#m175815f9da" y="775.98"/>
      </g>
     </g>
     <g id="line2d_16">
      <g>
       <use style="fill:#262626;stroke:#262626;stroke-width:0.5;" x="348.319572194" xlink:href="#m175815f9da" y="86.22"/>
      </g>
     </g>
    </g>
    <g id="xtick_7">
     <g id="line2d_17">
      <g>
       <use style="fill:#262626;stroke:#262626;stroke-width:0.5;" x="413.310970807" xlink:href="#m175815f9da" y="775.98"/>
      </g>
     </g>
     <g id="line2d_18">
      <g>
       <use style="fill:#262626;stroke:#262626;stroke-width:0.5;" x="413.310970807" xlink:href="#m175815f9da" y="86.22"/>
      </g>
     </g>
    </g>
    <g id="xtick_8">
     <g id="line2d_19">
      <g>
       <use style="fill:#262626;stroke:#262626;stroke-width:0.5;" x="543.293768033" xlink:href="#m175815f9da" y="775.98"/>
      </g>
     </g>
     <g id="line2d_20">
      <g>
       <use style="fill:#262626;stroke:#262626;stroke-width:0.5;" x="543.293768033" xlink:href="#m175815f9da" y="86.22"/>
      </g>
     </g>
    </g>
    <g id="xtick_9">
     <g id="line2d_21">
      <g>
       <use style="fill:#262626;stroke:#262626;stroke-width:0.5;" x="608.285166646" xlink:href="#m175815f9da" y="775.98"/>
      </g>
     </g>
     <g id="line2d_22">
      <g>
       <use style="fill:#262626;stroke:#262626;stroke-width:0.5;" x="608.285166646" xlink:href="#m175815f9da" y="86.22"/>
      </g>
     </g>
    </g>
    <g id="xtick_10">
     <g id="line2d_23">
      <g>
       <use style="fill:#262626;stroke:#262626;stroke-width:0.5;" x="673.276565259" xlink:href="#m175815f9da" y="775.98"/>
      </g>
     </g>
     <g id="line2d_24">
      <g>
       <use style="fill:#262626;stroke:#262626;stroke-width:0.5;" x="673.276565259" xlink:href="#m175815f9da" y="86.22"/>
      </g>
     </g>
    </g>
    <g id="xtick_11">
     <g id="line2d_25">
      <g>
       <use style="fill:#262626;stroke:#262626;stroke-width:0.5;" x="803.259362485" xlink:href="#m175815f9da" y="775.98"/>
      </g>
     </g>
     <g id="line2d_26">
      <g>
       <use style="fill:#262626;stroke:#262626;stroke-width:0.5;" x="803.259362485" xlink:href="#m175815f9da" y="86.22"/>
      </g>
     </g>
    </g>
    <g id="xtick_12">
     <g id="line2d_27">
      <g>
       <use style="fill:#262626;stroke:#262626;stroke-width:0.5;" x="868.250761097" xlink:href="#m175815f9da" y="775.98"/>
      </g>
     </g>
     <g id="line2d_28">
      <g>
       <use style="fill:#262626;stroke:#262626;stroke-width:0.5;" x="868.250761097" xlink:href="#m175815f9da" y="86.22"/>
      </g>
     </g>
    </g>
    <g id="xtick_13">
     <g id="line2d_29">
      <g>
       <use style="fill:#262626;stroke:#262626;stroke-width:0.5;" x="933.24215971" xlink:href="#m175815f9da" y="775.98"/>
      </g>
     </g>
     <g id="line2d_30">
      <g>
       <use style="fill:#262626;stroke:#262626;stroke-width:0.5;" x="933.24215971" xlink:href="#m175815f9da" y="86.22"/>
      </g>
     </g>
    </g>
    <g id="xtick_14">
     <g id="line2d_31">
      <g>
       <use style="fill:#262626;stroke:#262626;stroke-width:0.5;" x="1063.22495694" xlink:href="#m175815f9da" y="775.98"/>
      </g>
     </g>
     <g id="line2d_32">
      <g>
       <use style="fill:#262626;stroke:#262626;stroke-width:0.5;" x="1063.22495694" xlink:href="#m175815f9da" y="86.22"/>
      </g>
     </g>
    </g>
    <g id="xtick_15">
     <g id="line2d_33">
      <g>
       <use style="fill:#262626;stroke:#262626;stroke-width:0.5;" x="1128.21635555" xlink:href="#m175815f9da" y="775.98"/>
      </g>
     </g>
     <g id="line2d_34">
      <g>
       <use style="fill:#262626;stroke:#262626;stroke-width:0.5;" x="1128.21635555" xlink:href="#m175815f9da" y="86.22"/>
      </g>
     </g>
    </g>
    <g id="xtick_16">
     <g id="line2d_35">
      <g>
       <use style="fill:#262626;stroke:#262626;stroke-width:0.5;" x="1193.20775416" xlink:href="#m175815f9da" y="775.98"/>
      </g>
     </g>
     <g id="line2d_36">
      <g>
       <use style="fill:#262626;stroke:#262626;stroke-width:0.5;" x="1193.20775416" xlink:href="#m175815f9da" y="86.22"/>
      </g>
     </g>
    </g>
    <g id="xtick_17">
     <g id="line2d_37">
      <g>
       <use style="fill:#262626;stroke:#262626;stroke-width:0.5;" x="1323.19055139" xlink:href="#m175815f9da" y="775.98"/>
      </g>
     </g>
     <g id="line2d_38">
      <g>
       <use style="fill:#262626;stroke:#262626;stroke-width:0.5;" x="1323.19055139" xlink:href="#m175815f9da" y="86.22"/>
      </g>
     </g>
    </g>
    <g id="xtick_18">
     <g id="line2d_39">
      <g>
       <use style="fill:#262626;stroke:#262626;stroke-width:0.5;" x="1388.18195" xlink:href="#m175815f9da" y="775.98"/>
      </g>
     </g>
     <g id="line2d_40">
      <g>
       <use style="fill:#262626;stroke:#262626;stroke-width:0.5;" x="1388.18195" xlink:href="#m175815f9da" y="86.22"/>
      </g>
     </g>
    </g>
    <g id="xtick_19">
     <g id="line2d_41">
      <g>
       <use style="fill:#262626;stroke:#262626;stroke-width:0.5;" x="1453.17334861" xlink:href="#m175815f9da" y="775.98"/>
      </g>
     </g>
     <g id="line2d_42">
      <g>
       <use style="fill:#262626;stroke:#262626;stroke-width:0.5;" x="1453.17334861" xlink:href="#m175815f9da" y="86.22"/>
      </g>
     </g>
    </g>
    <g id="text_5">
     <!-- ms -->
     <defs>
      <path d="M 52 44.1875 
Q 55.375 50.25 60.0625 53.125 
Q 64.75 56 71.09375 56 
Q 79.640625 56 84.28125 50.015625 
Q 88.921875 44.046875 88.921875 33.015625 
L 88.921875 0 
L 79.890625 0 
L 79.890625 32.71875 
Q 79.890625 40.578125 77.09375 44.375 
Q 74.3125 48.1875 68.609375 48.1875 
Q 61.625 48.1875 57.5625 43.546875 
Q 53.515625 38.921875 53.515625 30.90625 
L 53.515625 0 
L 44.484375 0 
L 44.484375 32.71875 
Q 44.484375 40.625 41.703125 44.40625 
Q 38.921875 48.1875 33.109375 48.1875 
Q 26.21875 48.1875 22.15625 43.53125 
Q 18.109375 38.875 18.109375 30.90625 
L 18.109375 0 
L 9.078125 0 
L 9.078125 54.6875 
L 18.109375 54.6875 
L 18.109375 46.1875 
Q 21.1875 51.21875 25.484375 53.609375 
Q 29.78125 56 35.6875 56 
Q 41.65625 56 45.828125 52.96875 
Q 50 49.953125 52 44.1875 
" id="BitstreamVeraSans-Roman-6d"/>
      <path d="M 44.28125 53.078125 
L 44.28125 44.578125 
Q 40.484375 46.53125 36.375 47.5 
Q 32.28125 48.484375 27.875 48.484375 
Q 21.1875 48.484375 17.84375 46.4375 
Q 14.5 44.390625 14.5 40.28125 
Q 14.5 37.15625 16.890625 35.375 
Q 19.28125 33.59375 26.515625 31.984375 
L 29.59375 31.296875 
Q 39.15625 29.25 43.1875 25.515625 
Q 47.21875 21.78125 47.21875 15.09375 
Q 47.21875 7.46875 41.1875 3.015625 
Q 35.15625 -1.421875 24.609375 -1.421875 
Q 20.21875 -1.421875 15.453125 -0.5625 
Q 10.6875 0.296875 5.421875 2 
L 5.421875 11.28125 
Q 10.40625 8.6875 15.234375 7.390625 
Q 20.0625 6.109375 24.8125 6.109375 
Q 31.15625 6.109375 34.5625 8.28125 
Q 37.984375 10.453125 37.984375 14.40625 
Q 37.984375 18.0625 35.515625 20.015625 
Q 33.0625 21.96875 24.703125 23.78125 
L 21.578125 24.515625 
Q 13.234375 26.265625 9.515625 29.90625 
Q 5.8125 33.546875 5.8125 39.890625 
Q 5.8125 47.609375 11.28125 51.796875 
Q 16.75 56 26.8125 56 
Q 31.78125 56 36.171875 55.265625 
Q 40.578125 54.546875 44.28125 53.078125 
" id="BitstreamVeraSans-Roman-73"/>
     </defs>
     <g style="fill:#262626;" transform="translate(867.0747 805.711875)scale(0.12 -0.12)">
      <use xlink:href="#BitstreamVeraSans-Roman-6d"/>
      <use x="97.412109375" xlink:href="#BitstreamVeraSans-Roman-73"/>
     </g>
    </g>
   </g>
   <g id="matplotlib.axis_2">
    <g id="ytick_1">
     <g id="line2d_43">
      <path clip-path="url(#p14f8dba177)" d="M 248.625 775.98 
L 1503.4644 775.98 
" style="fill:none;stroke:#ffffff;stroke-linecap:round;stroke-width:0.5;"/>
     </g>
     <g id="line2d_44">
      <g>
       <use style="fill:#262626;stroke:#262626;stroke-width:0.5;" x="248.625" xlink:href="#m175815f9da" y="775.98"/>
      </g>
     </g>
     <g id="line2d_45">
      <g>
       <use style="fill:#262626;stroke:#262626;stroke-width:0.5;" x="1503.4644" xlink:href="#m175815f9da" y="775.98"/>
      </g>
     </g>
     <g id="text_6">
      <!-- 0.0 -->
      <defs>
       <path d="M 10.6875 12.40625 
L 21 12.40625 
L 21 0 
L 10.6875 0 
z
" id="BitstreamVeraSans-Roman-2e"/>
      </defs>
      <g style="fill:#262626;" transform="translate(225.54125 779.29125)scale(0.12 -0.12)">
       <use xlink:href="#BitstreamVeraSans-Roman-30"/>
       <use x="63.623046875" xlink:href="#BitstreamVeraSans-Roman-2e"/>
       <use x="95.41015625" xlink:href="#BitstreamVeraSans-Roman-30"/>
      </g>
     </g>
    </g>
    <g id="ytick_2">
     <g id="line2d_46">
      <path clip-path="url(#p14f8dba177)" d="M 248.625 632.369007 
L 1503.4644 632.369007 
" style="fill:none;stroke:#ffffff;stroke-linecap:round;stroke-width:0.5;"/>
     </g>
     <g id="line2d_47">
      <g>
       <use style="fill:#262626;stroke:#262626;stroke-width:0.5;" x="248.625" xlink:href="#m175815f9da" y="632.369007335"/>
      </g>
     </g>
     <g id="line2d_48">
      <g>
       <use style="fill:#262626;stroke:#262626;stroke-width:0.5;" x="1503.4644" xlink:href="#m175815f9da" y="632.369007335"/>
      </g>
     </g>
     <g id="text_7">
      <!-- 0.2 -->
      <g style="fill:#262626;" transform="translate(225.54125 635.680257335)scale(0.12 -0.12)">
       <use xlink:href="#BitstreamVeraSans-Roman-30"/>
       <use x="63.623046875" xlink:href="#BitstreamVeraSans-Roman-2e"/>
       <use x="95.41015625" xlink:href="#BitstreamVeraSans-Roman-32"/>
      </g>
     </g>
    </g>
    <g id="ytick_3">
     <g id="line2d_49">
      <path clip-path="url(#p14f8dba177)" d="M 248.625 488.758015 
L 1503.4644 488.758015 
" style="fill:none;stroke:#ffffff;stroke-linecap:round;stroke-width:0.5;"/>
     </g>
     <g id="line2d_50">
      <g>
       <use style="fill:#262626;stroke:#262626;stroke-width:0.5;" x="248.625" xlink:href="#m175815f9da" y="488.75801467"/>
      </g>
     </g>
     <g id="line2d_51">
      <g>
       <use style="fill:#262626;stroke:#262626;stroke-width:0.5;" x="1503.4644" xlink:href="#m175815f9da" y="488.75801467"/>
      </g>
     </g>
     <g id="text_8">
      <!-- 0.4 -->
      <g style="fill:#262626;" transform="translate(225.54125 492.06926467)scale(0.12 -0.12)">
       <use xlink:href="#BitstreamVeraSans-Roman-30"/>
       <use x="63.623046875" xlink:href="#BitstreamVeraSans-Roman-2e"/>
       <use x="95.41015625" xlink:href="#BitstreamVeraSans-Roman-34"/>
      </g>
     </g>
    </g>
    <g id="ytick_4">
     <g id="line2d_52">
      <path clip-path="url(#p14f8dba177)" d="M 248.625 345.147022 
L 1503.4644 345.147022 
" style="fill:none;stroke:#ffffff;stroke-linecap:round;stroke-width:0.5;"/>
     </g>
     <g id="line2d_53">
      <g>
       <use style="fill:#262626;stroke:#262626;stroke-width:0.5;" x="248.625" xlink:href="#m175815f9da" y="345.147022005"/>
      </g>
     </g>
     <g id="line2d_54">
      <g>
       <use style="fill:#262626;stroke:#262626;stroke-width:0.5;" x="1503.4644" xlink:href="#m175815f9da" y="345.147022005"/>
      </g>
     </g>
     <g id="text_9">
      <!-- 0.6 -->
      <g style="fill:#262626;" transform="translate(225.54125 348.458272005)scale(0.12 -0.12)">
       <use xlink:href="#BitstreamVeraSans-Roman-30"/>
       <use x="63.623046875" xlink:href="#BitstreamVeraSans-Roman-2e"/>
       <use x="95.41015625" xlink:href="#BitstreamVeraSans-Roman-36"/>
      </g>
     </g>
    </g>
    <g id="ytick_5">
     <g id="line2d_55">
      <path clip-path="url(#p14f8dba177)" d="M 248.625 201.536029 
L 1503.4644 201.536029 
" style="fill:none;stroke:#ffffff;stroke-linecap:round;stroke-width:0.5;"/>
     </g>
     <g id="line2d_56">
      <g>
       <use style="fill:#262626;stroke:#262626;stroke-width:0.5;" x="248.625" xlink:href="#m175815f9da" y="201.53602934"/>
      </g>
     </g>
     <g id="line2d_57">
      <g>
       <use style="fill:#262626;stroke:#262626;stroke-width:0.5;" x="1503.4644" xlink:href="#m175815f9da" y="201.53602934"/>
      </g>
     </g>
     <g id="text_10">
      <!-- 0.8 -->
      <g style="fill:#262626;" transform="translate(225.54125 204.84727934)scale(0.12 -0.12)">
       <use xlink:href="#BitstreamVeraSans-Roman-30"/>
       <use x="63.623046875" xlink:href="#BitstreamVeraSans-Roman-2e"/>
       <use x="95.41015625" xlink:href="#BitstreamVeraSans-Roman-38"/>
      </g>
     </g>
    </g>
    <g id="ytick_6">
     <g id="line2d_58">
      <g>
       <use style="fill:#262626;stroke:#262626;stroke-width:0.5;" x="248.625" xlink:href="#m175815f9da" y="740.077251834"/>
      </g>
     </g>
     <g id="line2d_59">
      <g>
       <use style="fill:#262626;stroke:#262626;stroke-width:0.5;" x="1503.4644" xlink:href="#m175815f9da" y="740.077251834"/>
      </g>
     </g>
    </g>
    <g id="ytick_7">
     <g id="line2d_60">
      <g>
       <use style="fill:#262626;stroke:#262626;stroke-width:0.5;" x="248.625" xlink:href="#m175815f9da" y="704.174503667"/>
      </g>
     </g>
     <g id="line2d_61">
      <g>
       <use style="fill:#262626;stroke:#262626;stroke-width:0.5;" x="1503.4644" xlink:href="#m175815f9da" y="704.174503667"/>
      </g>
     </g>
    </g>
    <g id="ytick_8">
     <g id="line2d_62">
      <g>
       <use style="fill:#262626;stroke:#262626;stroke-width:0.5;" x="248.625" xlink:href="#m175815f9da" y="668.271755501"/>
      </g>
     </g>
     <g id="line2d_63">
      <g>
       <use style="fill:#262626;stroke:#262626;stroke-width:0.5;" x="1503.4644" xlink:href="#m175815f9da" y="668.271755501"/>
      </g>
     </g>
    </g>
    <g id="ytick_9">
     <g id="line2d_64">
      <g>
       <use style="fill:#262626;stroke:#262626;stroke-width:0.5;" x="248.625" xlink:href="#m175815f9da" y="596.466259169"/>
      </g>
     </g>
     <g id="line2d_65">
      <g>
       <use style="fill:#262626;stroke:#262626;stroke-width:0.5;" x="1503.4644" xlink:href="#m175815f9da" y="596.466259169"/>
      </g>
     </g>
    </g>
    <g id="ytick_10">
     <g id="line2d_66">
      <g>
       <use style="fill:#262626;stroke:#262626;stroke-width:0.5;" x="248.625" xlink:href="#m175815f9da" y="560.563511002"/>
      </g>
     </g>
     <g id="line2d_67">
      <g>
       <use style="fill:#262626;stroke:#262626;stroke-width:0.5;" x="1503.4644" xlink:href="#m175815f9da" y="560.563511002"/>
      </g>
     </g>
    </g>
    <g id="ytick_11">
     <g id="line2d_68">
      <g>
       <use style="fill:#262626;stroke:#262626;stroke-width:0.5;" x="248.625" xlink:href="#m175815f9da" y="524.660762836"/>
      </g>
     </g>
     <g id="line2d_69">
      <g>
       <use style="fill:#262626;stroke:#262626;stroke-width:0.5;" x="1503.4644" xlink:href="#m175815f9da" y="524.660762836"/>
      </g>
     </g>
    </g>
    <g id="ytick_12">
     <g id="line2d_70">
      <g>
       <use style="fill:#262626;stroke:#262626;stroke-width:0.5;" x="248.625" xlink:href="#m175815f9da" y="452.855266504"/>
      </g>
     </g>
     <g id="line2d_71">
      <g>
       <use style="fill:#262626;stroke:#262626;stroke-width:0.5;" x="1503.4644" xlink:href="#m175815f9da" y="452.855266504"/>
      </g>
     </g>
    </g>
    <g id="ytick_13">
     <g id="line2d_72">
      <g>
       <use style="fill:#262626;stroke:#262626;stroke-width:0.5;" x="248.625" xlink:href="#m175815f9da" y="416.952518337"/>
      </g>
     </g>
     <g id="line2d_73">
      <g>
       <use style="fill:#262626;stroke:#262626;stroke-width:0.5;" x="1503.4644" xlink:href="#m175815f9da" y="416.952518337"/>
      </g>
     </g>
    </g>
    <g id="ytick_14">
     <g id="line2d_74">
      <g>
       <use style="fill:#262626;stroke:#262626;stroke-width:0.5;" x="248.625" xlink:href="#m175815f9da" y="381.049770171"/>
      </g>
     </g>
     <g id="line2d_75">
      <g>
       <use style="fill:#262626;stroke:#262626;stroke-width:0.5;" x="1503.4644" xlink:href="#m175815f9da" y="381.049770171"/>
      </g>
     </g>
    </g>
    <g id="ytick_15">
     <g id="line2d_76">
      <g>
       <use style="fill:#262626;stroke:#262626;stroke-width:0.5;" x="248.625" xlink:href="#m175815f9da" y="309.244273839"/>
      </g>
     </g>
     <g id="line2d_77">
      <g>
       <use style="fill:#262626;stroke:#262626;stroke-width:0.5;" x="1503.4644" xlink:href="#m175815f9da" y="309.244273839"/>
      </g>
     </g>
    </g>
    <g id="ytick_16">
     <g id="line2d_78">
      <g>
       <use style="fill:#262626;stroke:#262626;stroke-width:0.5;" x="248.625" xlink:href="#m175815f9da" y="273.341525672"/>
      </g>
     </g>
     <g id="line2d_79">
      <g>
       <use style="fill:#262626;stroke:#262626;stroke-width:0.5;" x="1503.4644" xlink:href="#m175815f9da" y="273.341525672"/>
      </g>
     </g>
    </g>
    <g id="ytick_17">
     <g id="line2d_80">
      <g>
       <use style="fill:#262626;stroke:#262626;stroke-width:0.5;" x="248.625" xlink:href="#m175815f9da" y="237.438777506"/>
      </g>
     </g>
     <g id="line2d_81">
      <g>
       <use style="fill:#262626;stroke:#262626;stroke-width:0.5;" x="1503.4644" xlink:href="#m175815f9da" y="237.438777506"/>
      </g>
     </g>
    </g>
    <g id="ytick_18">
     <g id="line2d_82">
      <g>
       <use style="fill:#262626;stroke:#262626;stroke-width:0.5;" x="248.625" xlink:href="#m175815f9da" y="165.633281174"/>
      </g>
     </g>
     <g id="line2d_83">
      <g>
       <use style="fill:#262626;stroke:#262626;stroke-width:0.5;" x="1503.4644" xlink:href="#m175815f9da" y="165.633281174"/>
      </g>
     </g>
    </g>
    <g id="ytick_19">
     <g id="line2d_84">
      <g>
       <use style="fill:#262626;stroke:#262626;stroke-width:0.5;" x="248.625" xlink:href="#m175815f9da" y="129.730533007"/>
      </g>
     </g>
     <g id="line2d_85">
      <g>
       <use style="fill:#262626;stroke:#262626;stroke-width:0.5;" x="1503.4644" xlink:href="#m175815f9da" y="129.730533007"/>
      </g>
     </g>
    </g>
    <g id="ytick_20">
     <g id="line2d_86">
      <g>
       <use style="fill:#262626;stroke:#262626;stroke-width:0.5;" x="248.625" xlink:href="#m175815f9da" y="93.8277848411"/>
      </g>
     </g>
     <g id="line2d_87">
      <g>
       <use style="fill:#262626;stroke:#262626;stroke-width:0.5;" x="1503.4644" xlink:href="#m175815f9da" y="93.8277848411"/>
      </g>
     </g>
    </g>
    <g id="text_11">
     <!-- Cumulative probability -->
     <defs>
      <path id="BitstreamVeraSans-Roman-20"/>
      <path d="M 41.109375 46.296875 
Q 39.59375 47.171875 37.8125 47.578125 
Q 36.03125 48 33.890625 48 
Q 26.265625 48 22.1875 43.046875 
Q 18.109375 38.09375 18.109375 28.8125 
L 18.109375 0 
L 9.078125 0 
L 9.078125 54.6875 
L 18.109375 54.6875 
L 18.109375 46.1875 
Q 20.953125 51.171875 25.484375 53.578125 
Q 30.03125 56 36.53125 56 
Q 37.453125 56 38.578125 55.875 
Q 39.703125 55.765625 41.0625 55.515625 
z
" id="BitstreamVeraSans-Roman-72"/>
      <path d="M 30.609375 48.390625 
Q 23.390625 48.390625 19.1875 42.75 
Q 14.984375 37.109375 14.984375 27.296875 
Q 14.984375 17.484375 19.15625 11.84375 
Q 23.34375 6.203125 30.609375 6.203125 
Q 37.796875 6.203125 41.984375 11.859375 
Q 46.1875 17.53125 46.1875 27.296875 
Q 46.1875 37.015625 41.984375 42.703125 
Q 37.796875 48.390625 30.609375 48.390625 
M 30.609375 56 
Q 42.328125 56 49.015625 48.375 
Q 55.71875 40.765625 55.71875 27.296875 
Q 55.71875 13.875 49.015625 6.21875 
Q 42.328125 -1.421875 30.609375 -1.421875 
Q 18.84375 -1.421875 12.171875 6.21875 
Q 5.515625 13.875 5.515625 27.296875 
Q 5.515625 40.765625 12.171875 48.375 
Q 18.84375 56 30.609375 56 
" id="BitstreamVeraSans-Roman-6f"/>
      <path d="M 9.421875 75.984375 
L 18.40625 75.984375 
L 18.40625 0 
L 9.421875 0 
z
" id="BitstreamVeraSans-Roman-6c"/>
      <path d="M 56.203125 29.59375 
L 56.203125 25.203125 
L 14.890625 25.203125 
Q 15.484375 15.921875 20.484375 11.0625 
Q 25.484375 6.203125 34.421875 6.203125 
Q 39.59375 6.203125 44.453125 7.46875 
Q 49.3125 8.734375 54.109375 11.28125 
L 54.109375 2.78125 
Q 49.265625 0.734375 44.1875 -0.34375 
Q 39.109375 -1.421875 33.890625 -1.421875 
Q 20.796875 -1.421875 13.15625 6.1875 
Q 5.515625 13.8125 5.515625 26.8125 
Q 5.515625 40.234375 12.765625 48.109375 
Q 20.015625 56 32.328125 56 
Q 43.359375 56 49.78125 48.890625 
Q 56.203125 41.796875 56.203125 29.59375 
M 47.21875 32.234375 
Q 47.125 39.59375 43.09375 43.984375 
Q 39.0625 48.390625 32.421875 48.390625 
Q 24.90625 48.390625 20.390625 44.140625 
Q 15.875 39.890625 15.1875 32.171875 
z
" id="BitstreamVeraSans-Roman-65"/>
      <path d="M 64.40625 67.28125 
L 64.40625 56.890625 
Q 59.421875 61.53125 53.78125 63.8125 
Q 48.140625 66.109375 41.796875 66.109375 
Q 29.296875 66.109375 22.65625 58.46875 
Q 16.015625 50.828125 16.015625 36.375 
Q 16.015625 21.96875 22.65625 14.328125 
Q 29.296875 6.6875 41.796875 6.6875 
Q 48.140625 6.6875 53.78125 8.984375 
Q 59.421875 11.28125 64.40625 15.921875 
L 64.40625 5.609375 
Q 59.234375 2.09375 53.4375 0.328125 
Q 47.65625 -1.421875 41.21875 -1.421875 
Q 24.65625 -1.421875 15.125 8.703125 
Q 5.609375 18.84375 5.609375 36.375 
Q 5.609375 53.953125 15.125 64.078125 
Q 24.65625 74.21875 41.21875 74.21875 
Q 47.75 74.21875 53.53125 72.484375 
Q 59.328125 70.75 64.40625 67.28125 
" id="BitstreamVeraSans-Roman-43"/>
      <path d="M 32.171875 -5.078125 
Q 28.375 -14.84375 24.75 -17.8125 
Q 21.140625 -20.796875 15.09375 -20.796875 
L 7.90625 -20.796875 
L 7.90625 -13.28125 
L 13.1875 -13.28125 
Q 16.890625 -13.28125 18.9375 -11.515625 
Q 21 -9.765625 23.484375 -3.21875 
L 25.09375 0.875 
L 2.984375 54.6875 
L 12.5 54.6875 
L 29.59375 11.921875 
L 46.6875 54.6875 
L 56.203125 54.6875 
z
" id="BitstreamVeraSans-Roman-79"/>
      <path d="M 2.984375 54.6875 
L 12.5 54.6875 
L 29.59375 8.796875 
L 46.6875 54.6875 
L 56.203125 54.6875 
L 35.6875 0 
L 23.484375 0 
z
" id="BitstreamVeraSans-Roman-76"/>
      <path d="M 9.421875 54.6875 
L 18.40625 54.6875 
L 18.40625 0 
L 9.421875 0 
z
M 9.421875 75.984375 
L 18.40625 75.984375 
L 18.40625 64.59375 
L 9.421875 64.59375 
z
" id="BitstreamVeraSans-Roman-69"/>
      <path d="M 18.3125 70.21875 
L 18.3125 54.6875 
L 36.8125 54.6875 
L 36.8125 47.703125 
L 18.3125 47.703125 
L 18.3125 18.015625 
Q 18.3125 11.328125 20.140625 9.421875 
Q 21.96875 7.515625 27.59375 7.515625 
L 36.8125 7.515625 
L 36.8125 0 
L 27.59375 0 
Q 17.1875 0 13.234375 3.875 
Q 9.28125 7.765625 9.28125 18.015625 
L 9.28125 47.703125 
L 2.6875 47.703125 
L 2.6875 54.6875 
L 9.28125 54.6875 
L 9.28125 70.21875 
z
" id="BitstreamVeraSans-Roman-74"/>
      <path d="M 8.5 21.578125 
L 8.5 54.6875 
L 17.484375 54.6875 
L 17.484375 21.921875 
Q 17.484375 14.15625 20.5 10.265625 
Q 23.53125 6.390625 29.59375 6.390625 
Q 36.859375 6.390625 41.078125 11.03125 
Q 45.3125 15.671875 45.3125 23.6875 
L 45.3125 54.6875 
L 54.296875 54.6875 
L 54.296875 0 
L 45.3125 0 
L 45.3125 8.40625 
Q 42.046875 3.421875 37.71875 1 
Q 33.40625 -1.421875 27.6875 -1.421875 
Q 18.265625 -1.421875 13.375 4.4375 
Q 8.5 10.296875 8.5 21.578125 
" id="BitstreamVeraSans-Roman-75"/>
      <path d="M 34.28125 27.484375 
Q 23.390625 27.484375 19.1875 25 
Q 14.984375 22.515625 14.984375 16.5 
Q 14.984375 11.71875 18.140625 8.90625 
Q 21.296875 6.109375 26.703125 6.109375 
Q 34.1875 6.109375 38.703125 11.40625 
Q 43.21875 16.703125 43.21875 25.484375 
L 43.21875 27.484375 
z
M 52.203125 31.203125 
L 52.203125 0 
L 43.21875 0 
L 43.21875 8.296875 
Q 40.140625 3.328125 35.546875 0.953125 
Q 30.953125 -1.421875 24.3125 -1.421875 
Q 15.921875 -1.421875 10.953125 3.296875 
Q 6 8.015625 6 15.921875 
Q 6 25.140625 12.171875 29.828125 
Q 18.359375 34.515625 30.609375 34.515625 
L 43.21875 34.515625 
L 43.21875 35.40625 
Q 43.21875 41.609375 39.140625 45 
Q 35.0625 48.390625 27.6875 48.390625 
Q 23 48.390625 18.546875 47.265625 
Q 14.109375 46.140625 10.015625 43.890625 
L 10.015625 52.203125 
Q 14.9375 54.109375 19.578125 55.046875 
Q 24.21875 56 28.609375 56 
Q 40.484375 56 46.34375 49.84375 
Q 52.203125 43.703125 52.203125 31.203125 
" id="BitstreamVeraSans-Roman-61"/>
      <path d="M 18.109375 8.203125 
L 18.109375 -20.796875 
L 9.078125 -20.796875 
L 9.078125 54.6875 
L 18.109375 54.6875 
L 18.109375 46.390625 
Q 20.953125 51.265625 25.265625 53.625 
Q 29.59375 56 35.59375 56 
Q 45.5625 56 51.78125 48.09375 
Q 58.015625 40.1875 58.015625 27.296875 
Q 58.015625 14.40625 51.78125 6.484375 
Q 45.5625 -1.421875 35.59375 -1.421875 
Q 29.59375 -1.421875 25.265625 0.953125 
Q 20.953125 3.328125 18.109375 8.203125 
M 48.6875 27.296875 
Q 48.6875 37.203125 44.609375 42.84375 
Q 40.53125 48.484375 33.40625 48.484375 
Q 26.265625 48.484375 22.1875 42.84375 
Q 18.109375 37.203125 18.109375 27.296875 
Q 18.109375 17.390625 22.1875 11.75 
Q 26.265625 6.109375 33.40625 6.109375 
Q 40.53125 6.109375 44.609375 11.75 
Q 48.6875 17.390625 48.6875 27.296875 
" id="BitstreamVeraSans-Roman-70"/>
      <path d="M 48.6875 27.296875 
Q 48.6875 37.203125 44.609375 42.84375 
Q 40.53125 48.484375 33.40625 48.484375 
Q 26.265625 48.484375 22.1875 42.84375 
Q 18.109375 37.203125 18.109375 27.296875 
Q 18.109375 17.390625 22.1875 11.75 
Q 26.265625 6.109375 33.40625 6.109375 
Q 40.53125 6.109375 44.609375 11.75 
Q 48.6875 17.390625 48.6875 27.296875 
M 18.109375 46.390625 
Q 20.953125 51.265625 25.265625 53.625 
Q 29.59375 56 35.59375 56 
Q 45.5625 56 51.78125 48.09375 
Q 58.015625 40.1875 58.015625 27.296875 
Q 58.015625 14.40625 51.78125 6.484375 
Q 45.5625 -1.421875 35.59375 -1.421875 
Q 29.59375 -1.421875 25.265625 0.953125 
Q 20.953125 3.328125 18.109375 8.203125 
L 18.109375 0 
L 9.078125 0 
L 9.078125 75.984375 
L 18.109375 75.984375 
z
" id="BitstreamVeraSans-Roman-62"/>
     </defs>
     <g style="fill:#262626;" transform="translate(218.045625 499.3959375)rotate(-90.0)scale(0.12 -0.12)">
      <use xlink:href="#BitstreamVeraSans-Roman-43"/>
      <use x="69.82421875" xlink:href="#BitstreamVeraSans-Roman-75"/>
      <use x="133.203125" xlink:href="#BitstreamVeraSans-Roman-6d"/>
      <use x="230.615234375" xlink:href="#BitstreamVeraSans-Roman-75"/>
      <use x="293.994140625" xlink:href="#BitstreamVeraSans-Roman-6c"/>
      <use x="321.77734375" xlink:href="#BitstreamVeraSans-Roman-61"/>
      <use x="383.056640625" xlink:href="#BitstreamVeraSans-Roman-74"/>
      <use x="422.265625" xlink:href="#BitstreamVeraSans-Roman-69"/>
      <use x="450.048828125" xlink:href="#BitstreamVeraSans-Roman-76"/>
      <use x="509.228515625" xlink:href="#BitstreamVeraSans-Roman-65"/>
      <use x="570.751953125" xlink:href="#BitstreamVeraSans-Roman-20"/>
      <use x="602.5390625" xlink:href="#BitstreamVeraSans-Roman-70"/>
      <use x="666.015625" xlink:href="#BitstreamVeraSans-Roman-72"/>
      <use x="707.09765625" xlink:href="#BitstreamVeraSans-Roman-6f"/>
      <use x="768.279296875" xlink:href="#BitstreamVeraSans-Roman-62"/>
      <use x="831.755859375" xlink:href="#BitstreamVeraSans-Roman-61"/>
      <use x="893.03515625" xlink:href="#BitstreamVeraSans-Roman-62"/>
      <use x="956.51171875" xlink:href="#BitstreamVeraSans-Roman-69"/>
      <use x="984.294921875" xlink:href="#BitstreamVeraSans-Roman-6c"/>
      <use x="1012.078125" xlink:href="#BitstreamVeraSans-Roman-69"/>
      <use x="1039.86132812" xlink:href="#BitstreamVeraSans-Roman-74"/>
      <use x="1079.0703125" xlink:href="#BitstreamVeraSans-Roman-79"/>
     </g>
    </g>
   </g>
   <g id="line2d_88">
    <path clip-path="url(#p14f8dba177)" d="M 245.342131 775.98 
L 248.33723 757.568334 
L 284.278419 757.568334 
L 287.273518 752.965418 
L 359.155894 752.965418 
L 362.150993 748.362501 
L 883.298225 748.362501 
L 886.293324 743.759585 
L 907.259017 743.759585 
L 910.254116 739.156669 
L 916.244314 739.156669 
L 919.239413 734.553752 
L 937.210008 734.553752 
L 940.205107 729.950836 
L 952.185503 729.950836 
L 958.175701 720.745003 
L 961.1708 720.745003 
L 964.165899 716.142086 
L 1000.107087 716.142086 
L 1003.102186 711.53917 
L 1006.097285 711.53917 
L 1009.092384 706.936254 
L 1021.07278 706.936254 
L 1024.06788 697.730421 
L 1027.062979 697.730421 
L 1030.058078 693.127504 
L 1033.053177 683.921671 
L 1045.033573 683.921671 
L 1051.023771 674.715839 
L 1054.01887 665.510006 
L 1063.004167 665.510006 
L 1065.999266 656.304173 
L 1071.989464 656.304173 
L 1074.984563 651.701256 
L 1077.979662 651.701256 
L 1083.96986 642.495423 
L 1086.964959 642.495423 
L 1092.955157 624.083758 
L 1101.940454 610.275008 
L 1104.935553 610.275008 
L 1107.930652 591.863343 
L 1110.925751 591.863343 
L 1113.92085 587.260426 
L 1116.91595 587.260426 
L 1119.911049 578.054593 
L 1122.906148 578.054593 
L 1125.901247 573.451677 
L 1128.896346 559.642928 
L 1131.891445 541.231262 
L 1134.886544 536.628346 
L 1137.881643 522.819596 
L 1140.876742 522.819596 
L 1146.86694 513.613763 
L 1149.862039 504.407931 
L 1152.857138 499.805014 
L 1155.852237 499.805014 
L 1158.847336 490.599181 
L 1161.842435 490.599181 
L 1164.837534 476.790432 
L 1167.832633 458.378766 
L 1170.827732 458.378766 
L 1173.822831 453.77585 
L 1179.813029 435.364184 
L 1182.808128 430.761268 
L 1185.803227 430.761268 
L 1188.798326 421.555435 
L 1191.793425 416.952518 
L 1194.788524 407.746685 
L 1197.783623 403.143769 
L 1200.778722 384.732103 
L 1206.76892 366.320438 
L 1209.764019 352.511688 
L 1218.749317 324.89419 
L 1224.739515 324.89419 
L 1230.729713 306.482524 
L 1233.724812 301.879608 
L 1236.719911 301.879608 
L 1239.71501 297.276691 
L 1245.705208 278.865025 
L 1251.695406 269.659193 
L 1254.690505 260.45336 
L 1257.685604 255.850443 
L 1266.670901 228.232945 
L 1278.651297 228.232945 
L 1281.646396 219.027112 
L 1293.626792 200.615446 
L 1299.61699 200.615446 
L 1305.607189 191.409613 
L 1308.602288 182.20378 
L 1317.587585 182.20378 
L 1320.582684 172.997947 
L 1326.572882 172.997947 
L 1329.567981 168.395031 
L 1350.533674 168.395031 
L 1353.528773 159.189198 
L 1356.523872 159.189198 
L 1359.518971 154.586282 
L 1368.504268 154.586282 
L 1371.499367 149.983365 
L 1374.494466 149.983365 
L 1380.484664 140.777532 
L 1395.460159 140.777532 
L 1398.455259 131.5717 
L 1413.430754 131.5717 
L 1416.425853 126.968783 
L 1422.416051 126.968783 
L 1425.41115 117.76295 
L 1428.406249 117.76295 
L 1431.401348 113.160034 
L 1437.391546 113.160034 
L 1440.386645 103.954201 
L 1452.367041 103.954201 
L 1455.36214 99.351285 
L 1458.357239 99.351285 
L 1461.352338 94.748368 
L 1467.342536 94.748368 
L 1470.337635 90.145452 
L 1476.327833 90.145452 
L 1479.322932 85.542535 
L 1990 85.542535 
L 1990 85.542535 
" style="fill:none;stroke:#1b9e77;stroke-linecap:round;"/>
   </g>
   <g id="line2d_89">
    <path clip-path="url(#p14f8dba177)" d="M 245.011675 775.98 
L 246.00252 762.171251 
L 246.993364 757.568334 
L 256.901807 757.568334 
L 257.892651 752.965418 
L 322.297529 752.965418 
L 323.288374 748.362501 
L 392.647474 748.362501 
L 393.638318 743.759585 
L 396.610851 743.759585 
L 397.601695 739.156669 
L 523.438919 739.156669 
L 524.429764 734.553752 
L 536.319895 734.553752 
L 537.310739 729.950836 
L 544.246649 729.950836 
L 545.237494 725.347919 
L 547.219182 725.347919 
L 548.210026 720.745003 
L 564.063535 720.745003 
L 565.054379 716.142086 
L 602.706462 716.142086 
L 603.697306 711.53917 
L 635.404324 711.53917 
L 636.395168 706.936254 
L 639.367701 706.936254 
L 640.358545 702.333337 
L 646.303611 702.333337 
L 648.285299 693.127504 
L 655.221209 693.127504 
L 657.202898 683.921671 
L 658.193742 674.715839 
L 661.166275 674.715839 
L 662.157119 670.112922 
L 675.038095 670.112922 
L 676.028939 665.510006 
L 680.983161 665.510006 
L 681.974005 660.907089 
L 690.891604 660.907089 
L 691.882448 656.304173 
L 699.809202 656.304173 
L 700.800046 651.701256 
L 734.488752 651.701256 
L 735.479596 647.09834 
L 737.461285 647.09834 
L 738.452129 642.495423 
L 740.433818 642.495423 
L 741.424662 637.892507 
L 745.388039 637.892507 
L 748.360572 624.083758 
L 751.333105 624.083758 
L 753.314793 614.877925 
L 754.305638 614.877925 
L 755.296482 610.275008 
L 765.204925 610.275008 
L 768.177458 596.466259 
L 769.168302 596.466259 
L 770.159146 591.863343 
L 772.140835 591.863343 
L 773.131679 587.260426 
L 778.085901 587.260426 
L 779.076745 582.65751 
L 780.067589 582.65751 
L 782.049278 573.451677 
L 784.030966 573.451677 
L 785.021811 568.848761 
L 788.985188 568.848761 
L 790.966876 559.642928 
L 791.957721 559.642928 
L 792.948565 555.040011 
L 801.866163 555.040011 
L 803.847852 545.834178 
L 807.811229 545.834178 
L 808.802073 541.231262 
L 810.783762 541.231262 
L 811.774606 536.628346 
L 813.756295 536.628346 
L 815.737983 527.422513 
L 819.701361 527.422513 
L 820.692205 522.819596 
L 831.591492 522.819596 
L 832.582336 513.613763 
L 837.536558 513.613763 
L 838.527402 504.407931 
L 841.499935 504.407931 
L 843.481623 495.202098 
L 844.472468 495.202098 
L 845.463312 490.599181 
L 852.399222 490.599181 
L 853.390066 481.393348 
L 854.380911 476.790432 
L 855.371755 476.790432 
L 856.362599 472.187516 
L 859.335132 472.187516 
L 860.325976 467.584599 
L 865.280198 467.584599 
L 866.271042 462.981683 
L 878.161173 462.981683 
L 879.152018 458.378766 
L 887.078772 458.378766 
L 888.069616 453.77585 
L 889.060461 453.77585 
L 890.051305 449.172933 
L 893.023838 449.172933 
L 895.005526 439.9671 
L 895.996371 426.158351 
L 899.959748 426.158351 
L 900.950592 421.555435 
L 901.941436 421.555435 
L 902.932281 416.952518 
L 906.895658 416.952518 
L 907.886502 412.349602 
L 910.859035 412.349602 
L 911.849879 407.746685 
L 914.822412 407.746685 
L 915.813256 398.540853 
L 917.794945 389.33502 
L 918.785789 380.129187 
L 925.721699 380.129187 
L 926.712543 375.52627 
L 929.685076 375.52627 
L 930.675921 370.923354 
L 931.666765 370.923354 
L 933.648453 361.717521 
L 943.556896 361.717521 
L 944.547741 352.511688 
L 946.529429 352.511688 
L 947.520273 347.908772 
L 949.501962 347.908772 
L 950.492806 343.305855 
L 953.465339 343.305855 
L 955.447028 334.100023 
L 959.410405 334.100023 
L 960.401249 324.89419 
L 961.392093 324.89419 
L 962.382938 320.291273 
L 963.373782 320.291273 
L 964.364626 315.688357 
L 966.346315 315.688357 
L 967.337159 306.482524 
L 969.318848 297.276691 
L 972.291381 297.276691 
L 973.282225 292.673775 
L 977.245602 292.673775 
L 978.236446 288.070858 
L 981.208979 288.070858 
L 982.199823 283.467942 
L 983.190668 283.467942 
L 984.181512 278.865025 
L 985.172356 278.865025 
L 986.1632 274.262109 
L 989.135733 274.262109 
L 990.126578 269.659193 
L 994.089955 269.659193 
L 995.080799 265.056276 
L 996.071643 265.056276 
L 997.062488 260.45336 
L 998.053332 260.45336 
L 1000.03502 251.247527 
L 1001.025865 242.041694 
L 1007.961775 242.041694 
L 1008.952619 237.438778 
L 1011.925152 237.438778 
L 1012.915996 223.630028 
L 1013.90684 223.630028 
L 1014.897685 219.027112 
L 1019.851906 219.027112 
L 1020.84275 214.424195 
L 1031.742038 214.424195 
L 1032.732882 209.821279 
L 1034.71457 209.821279 
L 1035.705415 205.218362 
L 1039.668792 205.218362 
L 1040.659636 200.615446 
L 1044.623013 200.615446 
L 1045.613858 196.01253 
L 1050.568079 196.01253 
L 1051.558923 186.806697 
L 1053.540612 186.806697 
L 1054.531456 182.20378 
L 1056.513145 182.20378 
L 1057.503989 177.600864 
L 1060.476522 177.600864 
L 1061.467366 172.997947 
L 1069.39412 172.997947 
L 1070.384965 168.395031 
L 1078.311719 168.395031 
L 1079.302563 163.792115 
L 1092.183539 163.792115 
L 1093.174383 159.189198 
L 1094.165228 149.983365 
L 1095.156072 149.983365 
L 1096.146916 140.777532 
L 1101.101138 140.777532 
L 1103.082826 131.5717 
L 1105.064515 131.5717 
L 1106.055359 126.968783 
L 1110.018736 126.968783 
L 1112.991269 113.160034 
L 1116.954646 113.160034 
L 1118.936335 103.954201 
L 1127.853933 103.954201 
L 1128.844778 99.351285 
L 1129.835622 90.145452 
L 1130.826466 90.145452 
L 1131.81731 85.542535 
L 1132.808155 85.542535 
L 1133.798999 80.939619 
L 1135.780688 80.939619 
L 1136.771532 76.336702 
L 1162.533483 76.336702 
L 1163.524328 71.733786 
L 1164.515172 71.733786 
L 1165.506016 67.13087 
L 1184.332058 67.13087 
L 1185.322902 62.527953 
L 1235.85596 62.527953 
L 1236.846805 57.925037 
L 1236.846805 57.925037 
" style="fill:none;stroke:#d95f02;stroke-dasharray:6.000000,6.000000;stroke-dashoffset:0.0;"/>
   </g>
   <g id="line2d_90">
    <path clip-path="url(#p14f8dba177)" d="M 236.062886 775.98 
L 236.471736 762.171251 
L 236.880585 762.171251 
L 237.289434 757.568334 
L 240.56023 757.568334 
L 240.969079 752.965418 
L 260.185003 752.965418 
L 260.593853 748.362501 
L 305.976141 748.362501 
L 306.384991 743.759585 
L 319.059324 743.759585 
L 319.468173 739.156669 
L 326.827463 739.156669 
L 327.236313 734.553752 
L 328.462861 734.553752 
L 329.28056 725.347919 
L 329.689409 725.347919 
L 330.098259 720.745003 
L 331.324807 720.745003 
L 331.733657 716.142086 
L 337.866398 716.142086 
L 338.275248 711.53917 
L 343.590291 711.53917 
L 343.99914 706.936254 
L 349.314183 706.936254 
L 349.723032 702.333337 
L 357.491172 702.333337 
L 357.900021 697.730421 
L 358.308871 697.730421 
L 358.71772 693.127504 
L 366.48586 693.127504 
L 366.894709 688.524588 
L 367.303559 688.524588 
L 367.712408 683.921671 
L 370.983204 683.921671 
L 371.392053 679.318755 
L 372.618601 679.318755 
L 373.027451 674.715839 
L 373.4363 674.715839 
L 373.84515 670.112922 
L 377.524795 670.112922 
L 377.933644 665.510006 
L 378.342494 656.304173 
L 379.977891 656.304173 
L 380.79559 647.09834 
L 386.928332 647.09834 
L 387.337181 642.495423 
L 387.746031 642.495423 
L 388.15488 637.892507 
L 389.790278 637.892507 
L 390.199128 633.289591 
L 392.243375 633.289591 
L 392.652224 628.686674 
L 393.061074 628.686674 
L 393.469923 624.083758 
L 393.878773 624.083758 
L 394.287622 619.480841 
L 395.92302 619.480841 
L 396.331869 614.877925 
L 396.740719 614.877925 
L 397.149568 610.275008 
L 397.558418 610.275008 
L 397.967267 605.672092 
L 400.420364 605.672092 
L 401.238063 596.466259 
L 403.691159 596.466259 
L 404.100009 587.260426 
L 404.917708 587.260426 
L 405.326557 578.054593 
L 405.735407 573.451677 
L 408.188503 573.451677 
L 408.597353 568.848761 
L 409.006202 568.848761 
L 409.415052 559.642928 
L 409.823901 555.040011 
L 410.23275 555.040011 
L 411.050449 545.834178 
L 414.730094 545.834178 
L 415.138944 536.628346 
L 415.547793 532.025429 
L 415.956643 532.025429 
L 416.365492 527.422513 
L 418.00089 527.422513 
L 418.818589 518.21668 
L 419.227438 509.010847 
L 419.636288 504.407931 
L 420.453987 504.407931 
L 421.271685 495.202098 
L 422.498234 495.202098 
L 422.907083 490.599181 
L 423.315933 472.187516 
L 423.724782 467.584599 
L 424.133632 467.584599 
L 424.542481 462.981683 
L 424.951331 462.981683 
L 425.36018 458.378766 
L 427.404427 458.378766 
L 427.813277 453.77585 
L 428.630976 453.77585 
L 429.039825 449.172933 
L 433.128319 449.172933 
L 433.946018 439.9671 
L 434.354868 439.9671 
L 434.763717 435.364184 
L 435.172567 435.364184 
L 435.581416 430.761268 
L 435.990266 430.761268 
L 436.399115 421.555435 
L 437.625663 421.555435 
L 438.034513 416.952518 
L 438.443362 416.952518 
L 438.852212 412.349602 
L 439.261061 412.349602 
L 439.669911 403.143769 
L 440.07876 403.143769 
L 440.896459 393.937936 
L 442.531857 393.937936 
L 442.940706 389.33502 
L 444.576104 389.33502 
L 445.802652 375.52627 
L 446.620351 375.52627 
L 447.43805 366.320438 
L 450.299996 366.320438 
L 450.708846 361.717521 
L 452.753093 361.717521 
L 453.161942 357.114605 
L 454.79734 357.114605 
L 455.20619 352.511688 
L 457.659286 352.511688 
L 458.068136 347.908772 
L 458.476985 347.908772 
L 458.885835 338.702939 
L 463.792028 338.702939 
L 464.200877 334.100023 
L 465.018576 334.100023 
L 465.427426 329.497106 
L 466.653974 329.497106 
L 467.062824 324.89419 
L 467.471673 324.89419 
L 467.880522 320.291273 
L 468.289372 320.291273 
L 468.698221 315.688357 
L 469.107071 315.688357 
L 469.51592 311.08544 
L 470.742469 311.08544 
L 471.151318 306.482524 
L 473.195565 306.482524 
L 474.830963 288.070858 
L 476.87521 288.070858 
L 477.28406 283.467942 
L 478.510608 283.467942 
L 478.919457 278.865025 
L 479.328307 278.865025 
L 479.737156 274.262109 
L 480.554855 274.262109 
L 480.963705 269.659193 
L 481.372554 269.659193 
L 481.781404 265.056276 
L 482.190253 255.850443 
L 482.599102 255.850443 
L 483.007952 251.247527 
L 483.825651 251.247527 
L 484.2345 246.64461 
L 487.096446 246.64461 
L 487.505296 242.041694 
L 488.322995 242.041694 
L 488.731844 228.232945 
L 489.140694 228.232945 
L 489.549543 223.630028 
L 490.367242 223.630028 
L 490.776091 219.027112 
L 491.59379 219.027112 
L 492.00264 214.424195 
L 492.411489 214.424195 
L 492.820339 209.821279 
L 494.864586 209.821279 
L 495.273435 205.218362 
L 496.499984 205.218362 
L 496.908833 200.615446 
L 501.406177 200.615446 
L 501.815026 196.01253 
L 503.041575 196.01253 
L 503.450424 186.806697 
L 503.859274 182.20378 
L 504.676973 182.20378 
L 506.31237 163.792115 
L 509.583166 163.792115 
L 510.809714 149.983365 
L 512.853962 149.983365 
L 513.262811 145.380449 
L 516.942456 145.380449 
L 517.351305 140.777532 
L 518.169004 140.777532 
L 518.577854 136.174616 
L 529.207939 136.174616 
L 529.616789 131.5717 
L 534.931832 131.5717 
L 535.340681 126.968783 
L 537.384928 126.968783 
L 538.202627 117.76295 
L 539.429176 117.76295 
L 539.838025 113.160034 
L 550.87696 113.160034 
L 551.28581 108.557117 
L 551.694659 108.557117 
L 552.103508 103.954201 
L 554.147756 103.954201 
L 554.556605 99.351285 
L 554.965455 99.351285 
L 555.374304 94.748368 
L 557.418551 94.748368 
L 557.827401 90.145452 
L 571.319432 90.145452 
L 571.728282 85.542535 
L 613.430925 85.542535 
L 613.839775 80.939619 
L 617.928269 80.939619 
L 618.337119 76.336702 
L 623.652162 76.336702 
L 624.061011 71.733786 
L 640.823838 71.733786 
L 641.232688 67.13087 
L 641.641537 67.13087 
L 642.050387 62.527953 
L 644.912333 62.527953 
L 645.321182 57.925037 
L 645.321182 57.925037 
" style="fill:none;stroke:#7570b3;stroke-dasharray:1.000000,3.000000;stroke-dashoffset:0.0;"/>
   </g>
   <g id="line2d_91">
    <path clip-path="url(#p14f8dba177)" d="M 235.831868 775.98 
L 236.475511 766.774167 
L 237.119155 766.774167 
L 237.762798 762.171251 
L 238.406442 752.965418 
L 239.693729 752.965418 
L 240.337372 748.362501 
L 284.105127 748.362501 
L 284.748771 743.759585 
L 309.207222 743.759585 
L 309.850866 739.156669 
L 311.138153 739.156669 
L 311.781796 734.553752 
L 316.2873 734.553752 
L 316.930944 729.950836 
L 319.505518 729.950836 
L 320.149161 725.347919 
L 323.367378 725.347919 
L 324.011022 720.745003 
L 334.309317 720.745003 
L 334.952961 716.142086 
L 338.171178 716.142086 
L 338.814821 711.53917 
L 340.745752 711.53917 
L 341.389395 706.936254 
L 342.033039 706.936254 
L 342.676682 697.730421 
L 345.894899 697.730421 
L 346.538543 693.127504 
L 351.044047 693.127504 
L 351.687691 688.524588 
L 354.262264 688.524588 
L 354.905908 683.921671 
L 358.124125 683.921671 
L 359.411412 674.715839 
L 361.985986 674.715839 
L 362.629629 670.112922 
L 364.56056 670.112922 
L 365.204203 665.510006 
L 366.49149 665.510006 
L 367.778777 656.304173 
L 369.066064 656.304173 
L 369.709707 651.701256 
L 370.353351 651.701256 
L 370.996994 647.09834 
L 371.640638 647.09834 
L 372.284281 642.495423 
L 374.215212 642.495423 
L 374.858855 637.892507 
L 375.502499 637.892507 
L 376.789785 628.686674 
L 377.433429 628.686674 
L 378.077072 624.083758 
L 380.008003 624.083758 
L 380.651646 619.480841 
L 381.29529 619.480841 
L 381.938933 614.877925 
L 383.22622 596.466259 
L 386.444437 596.466259 
L 387.088081 587.260426 
L 388.375368 587.260426 
L 389.019011 582.65751 
L 390.306298 564.245844 
L 391.593585 564.245844 
L 392.237228 555.040011 
L 392.880872 550.437095 
L 393.524515 541.231262 
L 394.168159 541.231262 
L 395.455446 532.025429 
L 396.099089 522.819596 
L 396.742733 522.819596 
L 397.386376 518.21668 
L 398.03002 509.010847 
L 399.317307 509.010847 
L 399.96095 504.407931 
L 400.604593 504.407931 
L 403.179167 485.996265 
L 403.822811 485.996265 
L 404.466454 481.393348 
L 405.110098 481.393348 
L 405.753741 467.584599 
L 406.397385 449.172933 
L 407.684671 449.172933 
L 408.328315 444.570017 
L 408.971958 444.570017 
L 409.615602 439.9671 
L 411.546532 439.9671 
L 412.190176 435.364184 
L 414.121106 435.364184 
L 415.408393 426.158351 
L 417.982967 426.158351 
L 418.62661 416.952518 
L 419.270254 416.952518 
L 419.913897 412.349602 
L 421.201184 412.349602 
L 421.844828 407.746685 
L 423.132115 407.746685 
L 424.419401 398.540853 
L 425.063045 398.540853 
L 425.706688 389.33502 
L 426.993975 389.33502 
L 427.637619 375.52627 
L 432.786766 375.52627 
L 433.43041 370.923354 
L 434.074053 361.717521 
L 435.36134 361.717521 
L 436.648627 352.511688 
L 437.292271 352.511688 
L 437.935914 347.908772 
L 438.579558 338.702939 
L 439.223201 334.100023 
L 440.510488 334.100023 
L 441.154131 329.497106 
L 442.441418 329.497106 
L 443.085062 324.89419 
L 443.728705 324.89419 
L 444.372349 320.291273 
L 445.659636 320.291273 
L 446.946923 311.08544 
L 447.590566 311.08544 
L 448.234209 306.482524 
L 450.16514 306.482524 
L 450.808783 301.879608 
L 451.452427 301.879608 
L 452.09607 297.276691 
L 454.027001 297.276691 
L 454.670644 292.673775 
L 456.601574 292.673775 
L 457.245218 288.070858 
L 460.463435 288.070858 
L 461.107079 283.467942 
L 466.89987 283.467942 
L 468.187157 274.262109 
L 468.8308 274.262109 
L 470.118087 265.056276 
L 471.405374 265.056276 
L 473.979948 246.64461 
L 475.910878 246.64461 
L 476.554522 242.041694 
L 479.772739 242.041694 
L 480.416382 237.438778 
L 481.060026 237.438778 
L 481.703669 232.835861 
L 484.921887 232.835861 
L 485.56553 228.232945 
L 486.852817 228.232945 
L 487.49646 223.630028 
L 488.783747 223.630028 
L 489.427391 219.027112 
L 493.289252 219.027112 
L 493.932895 214.424195 
L 495.220182 214.424195 
L 495.863825 209.821279 
L 497.151112 209.821279 
L 497.794756 205.218362 
L 502.30026 205.218362 
L 504.23119 191.409613 
L 505.518477 191.409613 
L 506.162121 186.806697 
L 507.449408 186.806697 
L 508.093051 182.20378 
L 510.023982 182.20378 
L 510.667625 177.600864 
L 511.954912 177.600864 
L 512.598555 168.395031 
L 513.885842 159.189198 
L 519.678633 159.189198 
L 520.96592 149.983365 
L 526.758711 149.983365 
L 527.402355 145.380449 
L 549.929876 145.380449 
L 550.573519 140.777532 
L 555.079024 140.777532 
L 555.722667 136.174616 
L 564.090032 136.174616 
L 564.733676 131.5717 
L 587.261197 131.5717 
L 587.90484 126.968783 
L 599.490422 126.968783 
L 600.134066 122.365867 
L 600.777709 122.365867 
L 601.421353 117.76295 
L 603.352283 117.76295 
L 603.995927 113.160034 
L 616.868796 113.160034 
L 617.512439 108.557117 
L 634.247169 108.557117 
L 634.890813 103.954201 
L 640.683604 103.954201 
L 641.327247 99.351285 
L 646.476395 99.351285 
L 647.120038 94.748368 
L 647.763682 85.542535 
L 667.072986 85.542535 
L 667.716629 80.939619 
L 714.058958 80.939619 
L 714.702602 76.336702 
L 753.321209 76.336702 
L 753.964853 71.733786 
L 772.630513 71.733786 
L 773.274156 67.13087 
L 786.147026 67.13087 
L 786.790669 62.527953 
L 879.475327 62.527953 
L 880.118971 57.925037 
L 880.118971 57.925037 
" style="fill:none;stroke:#e7298a;stroke-dasharray:8.000000,4.000000,2.000000,4.000000;stroke-dashoffset:0.0;"/>
   </g>
   <g id="patch_3">
    <path d="M 248.625 86.22 
L 1503.4644 86.22 
" style="fill:none;"/>
   </g>
   <g id="patch_4">
    <path d="M 1503.4644 775.98 
L 1503.4644 86.22 
" style="fill:none;"/>
   </g>
   <g id="patch_5">
    <path d="M 248.625 775.98 
L 1503.4644 775.98 
" style="fill:none;"/>
   </g>
   <g id="patch_6">
    <path d="M 248.625 775.98 
L 248.625 86.22 
" style="fill:none;"/>
   </g>
   <g id="legend_1">
    <g id="line2d_92">
     <path d="M 1532.559588 94.315198 
L 1552.551588 94.315198 
" style="fill:none;stroke:#1b9e77;stroke-linecap:round;"/>
    </g>
    <g id="line2d_93"/>
    <g id="text_12">
     <!-- Ping (ms) - flow=12_old_wifi_wifi_noscan_ecn=no -->
     <defs>
      <path d="M 12.40625 8.296875 
L 28.515625 8.296875 
L 28.515625 63.921875 
L 10.984375 60.40625 
L 10.984375 69.390625 
L 28.421875 72.90625 
L 38.28125 72.90625 
L 38.28125 8.296875 
L 54.390625 8.296875 
L 54.390625 0 
L 12.40625 0 
z
" id="BitstreamVeraSans-Roman-31"/>
      <path d="M 50.984375 -16.609375 
L 50.984375 -23.578125 
L -0.984375 -23.578125 
L -0.984375 -16.609375 
z
" id="BitstreamVeraSans-Roman-5f"/>
      <path d="M 54.890625 33.015625 
L 54.890625 0 
L 45.90625 0 
L 45.90625 32.71875 
Q 45.90625 40.484375 42.875 44.328125 
Q 39.84375 48.1875 33.796875 48.1875 
Q 26.515625 48.1875 22.3125 43.546875 
Q 18.109375 38.921875 18.109375 30.90625 
L 18.109375 0 
L 9.078125 0 
L 9.078125 54.6875 
L 18.109375 54.6875 
L 18.109375 46.1875 
Q 21.34375 51.125 25.703125 53.5625 
Q 30.078125 56 35.796875 56 
Q 45.21875 56 50.046875 50.171875 
Q 54.890625 44.34375 54.890625 33.015625 
" id="BitstreamVeraSans-Roman-6e"/>
      <path d="M 31 75.875 
Q 24.46875 64.65625 21.28125 53.65625 
Q 18.109375 42.671875 18.109375 31.390625 
Q 18.109375 20.125 21.3125 9.0625 
Q 24.515625 -2 31 -13.1875 
L 23.1875 -13.1875 
Q 15.875 -1.703125 12.234375 9.375 
Q 8.59375 20.453125 8.59375 31.390625 
Q 8.59375 42.28125 12.203125 53.3125 
Q 15.828125 64.359375 23.1875 75.875 
z
" id="BitstreamVeraSans-Roman-28"/>
      <path d="M 19.671875 64.796875 
L 19.671875 37.40625 
L 32.078125 37.40625 
Q 38.96875 37.40625 42.71875 40.96875 
Q 46.484375 44.53125 46.484375 51.125 
Q 46.484375 57.671875 42.71875 61.234375 
Q 38.96875 64.796875 32.078125 64.796875 
z
M 9.8125 72.90625 
L 32.078125 72.90625 
Q 44.34375 72.90625 50.609375 67.359375 
Q 56.890625 61.8125 56.890625 51.125 
Q 56.890625 40.328125 50.609375 34.8125 
Q 44.34375 29.296875 32.078125 29.296875 
L 19.671875 29.296875 
L 19.671875 0 
L 9.8125 0 
z
" id="BitstreamVeraSans-Roman-50"/>
      <path d="M 8.015625 75.875 
L 15.828125 75.875 
Q 23.140625 64.359375 26.78125 53.3125 
Q 30.421875 42.28125 30.421875 31.390625 
Q 30.421875 20.453125 26.78125 9.375 
Q 23.140625 -1.703125 15.828125 -13.1875 
L 8.015625 -13.1875 
Q 14.5 -2 17.703125 9.0625 
Q 20.90625 20.125 20.90625 31.390625 
Q 20.90625 42.671875 17.703125 53.65625 
Q 14.5 64.65625 8.015625 75.875 
" id="BitstreamVeraSans-Roman-29"/>
      <path d="M 4.890625 31.390625 
L 31.203125 31.390625 
L 31.203125 23.390625 
L 4.890625 23.390625 
z
" id="BitstreamVeraSans-Roman-2d"/>
      <path d="M 10.59375 45.40625 
L 73.1875 45.40625 
L 73.1875 37.203125 
L 10.59375 37.203125 
z
M 10.59375 25.484375 
L 73.1875 25.484375 
L 73.1875 17.1875 
L 10.59375 17.1875 
z
" id="BitstreamVeraSans-Roman-3d"/>
      <path d="M 45.40625 46.390625 
L 45.40625 75.984375 
L 54.390625 75.984375 
L 54.390625 0 
L 45.40625 0 
L 45.40625 8.203125 
Q 42.578125 3.328125 38.25 0.953125 
Q 33.9375 -1.421875 27.875 -1.421875 
Q 17.96875 -1.421875 11.734375 6.484375 
Q 5.515625 14.40625 5.515625 27.296875 
Q 5.515625 40.1875 11.734375 48.09375 
Q 17.96875 56 27.875 56 
Q 33.9375 56 38.25 53.625 
Q 42.578125 51.265625 45.40625 46.390625 
M 14.796875 27.296875 
Q 14.796875 17.390625 18.875 11.75 
Q 22.953125 6.109375 30.078125 6.109375 
Q 37.203125 6.109375 41.296875 11.75 
Q 45.40625 17.390625 45.40625 27.296875 
Q 45.40625 37.203125 41.296875 42.84375 
Q 37.203125 48.484375 30.078125 48.484375 
Q 22.953125 48.484375 18.875 42.84375 
Q 14.796875 37.203125 14.796875 27.296875 
" id="BitstreamVeraSans-Roman-64"/>
      <path d="M 4.203125 54.6875 
L 13.1875 54.6875 
L 24.421875 12.015625 
L 35.59375 54.6875 
L 46.1875 54.6875 
L 57.421875 12.015625 
L 68.609375 54.6875 
L 77.59375 54.6875 
L 63.28125 0 
L 52.6875 0 
L 40.921875 44.828125 
L 29.109375 0 
L 18.5 0 
z
" id="BitstreamVeraSans-Roman-77"/>
      <path d="M 45.40625 27.984375 
Q 45.40625 37.75 41.375 43.109375 
Q 37.359375 48.484375 30.078125 48.484375 
Q 22.859375 48.484375 18.828125 43.109375 
Q 14.796875 37.75 14.796875 27.984375 
Q 14.796875 18.265625 18.828125 12.890625 
Q 22.859375 7.515625 30.078125 7.515625 
Q 37.359375 7.515625 41.375 12.890625 
Q 45.40625 18.265625 45.40625 27.984375 
M 54.390625 6.78125 
Q 54.390625 -7.171875 48.1875 -13.984375 
Q 42 -20.796875 29.203125 -20.796875 
Q 24.46875 -20.796875 20.265625 -20.09375 
Q 16.0625 -19.390625 12.109375 -17.921875 
L 12.109375 -9.1875 
Q 16.0625 -11.328125 19.921875 -12.34375 
Q 23.78125 -13.375 27.78125 -13.375 
Q 36.625 -13.375 41.015625 -8.765625 
Q 45.40625 -4.15625 45.40625 5.171875 
L 45.40625 9.625 
Q 42.625 4.78125 38.28125 2.390625 
Q 33.9375 0 27.875 0 
Q 17.828125 0 11.671875 7.65625 
Q 5.515625 15.328125 5.515625 27.984375 
Q 5.515625 40.671875 11.671875 48.328125 
Q 17.828125 56 27.875 56 
Q 33.9375 56 38.28125 53.609375 
Q 42.625 51.21875 45.40625 46.390625 
L 45.40625 54.6875 
L 54.390625 54.6875 
z
" id="BitstreamVeraSans-Roman-67"/>
      <path d="M 37.109375 75.984375 
L 37.109375 68.5 
L 28.515625 68.5 
Q 23.6875 68.5 21.796875 66.546875 
Q 19.921875 64.59375 19.921875 59.515625 
L 19.921875 54.6875 
L 34.71875 54.6875 
L 34.71875 47.703125 
L 19.921875 47.703125 
L 19.921875 0 
L 10.890625 0 
L 10.890625 47.703125 
L 2.296875 47.703125 
L 2.296875 54.6875 
L 10.890625 54.6875 
L 10.890625 58.5 
Q 10.890625 67.625 15.140625 71.796875 
Q 19.390625 75.984375 28.609375 75.984375 
z
" id="BitstreamVeraSans-Roman-66"/>
      <path d="M 48.78125 52.59375 
L 48.78125 44.1875 
Q 44.96875 46.296875 41.140625 47.34375 
Q 37.3125 48.390625 33.40625 48.390625 
Q 24.65625 48.390625 19.8125 42.84375 
Q 14.984375 37.3125 14.984375 27.296875 
Q 14.984375 17.28125 19.8125 11.734375 
Q 24.65625 6.203125 33.40625 6.203125 
Q 37.3125 6.203125 41.140625 7.25 
Q 44.96875 8.296875 48.78125 10.40625 
L 48.78125 2.09375 
Q 45.015625 0.34375 40.984375 -0.53125 
Q 36.96875 -1.421875 32.421875 -1.421875 
Q 20.0625 -1.421875 12.78125 6.34375 
Q 5.515625 14.109375 5.515625 27.296875 
Q 5.515625 40.671875 12.859375 48.328125 
Q 20.21875 56 33.015625 56 
Q 37.15625 56 41.109375 55.140625 
Q 45.0625 54.296875 48.78125 52.59375 
" id="BitstreamVeraSans-Roman-63"/>
     </defs>
     <g style="fill:#262626;" transform="translate(1560.548388 97.813798125)scale(0.09996 -0.09996)">
      <use xlink:href="#BitstreamVeraSans-Roman-50"/>
      <use x="60.271484375" xlink:href="#BitstreamVeraSans-Roman-69"/>
      <use x="88.0546875" xlink:href="#BitstreamVeraSans-Roman-6e"/>
      <use x="151.43359375" xlink:href="#BitstreamVeraSans-Roman-67"/>
      <use x="214.91015625" xlink:href="#BitstreamVeraSans-Roman-20"/>
      <use x="246.697265625" xlink:href="#BitstreamVeraSans-Roman-28"/>
      <use x="285.7109375" xlink:href="#BitstreamVeraSans-Roman-6d"/>
      <use x="383.123046875" xlink:href="#BitstreamVeraSans-Roman-73"/>
      <use x="435.22265625" xlink:href="#BitstreamVeraSans-Roman-29"/>
      <use x="474.236328125" xlink:href="#BitstreamVeraSans-Roman-20"/>
      <use x="506.0234375" xlink:href="#BitstreamVeraSans-Roman-2d"/>
      <use x="542.107421875" xlink:href="#BitstreamVeraSans-Roman-20"/>
      <use x="573.89453125" xlink:href="#BitstreamVeraSans-Roman-66"/>
      <use x="609.099609375" xlink:href="#BitstreamVeraSans-Roman-6c"/>
      <use x="636.8828125" xlink:href="#BitstreamVeraSans-Roman-6f"/>
      <use x="698.064453125" xlink:href="#BitstreamVeraSans-Roman-77"/>
      <use x="779.8515625" xlink:href="#BitstreamVeraSans-Roman-3d"/>
      <use x="863.640625" xlink:href="#BitstreamVeraSans-Roman-31"/>
      <use x="927.263671875" xlink:href="#BitstreamVeraSans-Roman-32"/>
      <use x="990.88671875" xlink:href="#BitstreamVeraSans-Roman-5f"/>
      <use x="1040.88671875" xlink:href="#BitstreamVeraSans-Roman-6f"/>
      <use x="1102.06835938" xlink:href="#BitstreamVeraSans-Roman-6c"/>
      <use x="1129.8515625" xlink:href="#BitstreamVeraSans-Roman-64"/>
      <use x="1193.328125" xlink:href="#BitstreamVeraSans-Roman-5f"/>
      <use x="1243.328125" xlink:href="#BitstreamVeraSans-Roman-77"/>
      <use x="1325.11523438" xlink:href="#BitstreamVeraSans-Roman-69"/>
      <use x="1352.8984375" xlink:href="#BitstreamVeraSans-Roman-66"/>
      <use x="1388.10351562" xlink:href="#BitstreamVeraSans-Roman-69"/>
      <use x="1415.88671875" xlink:href="#BitstreamVeraSans-Roman-5f"/>
      <use x="1465.88671875" xlink:href="#BitstreamVeraSans-Roman-77"/>
      <use x="1547.67382812" xlink:href="#BitstreamVeraSans-Roman-69"/>
      <use x="1575.45703125" xlink:href="#BitstreamVeraSans-Roman-66"/>
      <use x="1610.66210938" xlink:href="#BitstreamVeraSans-Roman-69"/>
      <use x="1638.4453125" xlink:href="#BitstreamVeraSans-Roman-5f"/>
      <use x="1688.4453125" xlink:href="#BitstreamVeraSans-Roman-6e"/>
      <use x="1751.82421875" xlink:href="#BitstreamVeraSans-Roman-6f"/>
      <use x="1813.00585938" xlink:href="#BitstreamVeraSans-Roman-73"/>
      <use x="1865.10546875" xlink:href="#BitstreamVeraSans-Roman-63"/>
      <use x="1920.0859375" xlink:href="#BitstreamVeraSans-Roman-61"/>
      <use x="1981.36523438" xlink:href="#BitstreamVeraSans-Roman-6e"/>
      <use x="2044.74414062" xlink:href="#BitstreamVeraSans-Roman-5f"/>
      <use x="2094.74414062" xlink:href="#BitstreamVeraSans-Roman-65"/>
      <use x="2156.26757812" xlink:href="#BitstreamVeraSans-Roman-63"/>
      <use x="2211.24804688" xlink:href="#BitstreamVeraSans-Roman-6e"/>
      <use x="2274.62695312" xlink:href="#BitstreamVeraSans-Roman-3d"/>
      <use x="2358.41601562" xlink:href="#BitstreamVeraSans-Roman-6e"/>
      <use x="2421.79492188" xlink:href="#BitstreamVeraSans-Roman-6f"/>
     </g>
    </g>
    <g id="line2d_94">
     <path d="M 1532.559588 109.265466 
L 1552.551588 109.265466 
" style="fill:none;stroke:#d95f02;stroke-dasharray:6.000000,6.000000;stroke-dashoffset:0.0;"/>
    </g>
    <g id="line2d_95"/>
    <g id="text_13">
     <!-- Ping (ms) - flow=1_old_wifi_wifi_ecn=no -->
     <g style="fill:#262626;" transform="translate(1560.548388 112.764065625)scale(0.09996 -0.09996)">
      <use xlink:href="#BitstreamVeraSans-Roman-50"/>
      <use x="60.271484375" xlink:href="#BitstreamVeraSans-Roman-69"/>
      <use x="88.0546875" xlink:href="#BitstreamVeraSans-Roman-6e"/>
      <use x="151.43359375" xlink:href="#BitstreamVeraSans-Roman-67"/>
      <use x="214.91015625" xlink:href="#BitstreamVeraSans-Roman-20"/>
      <use x="246.697265625" xlink:href="#BitstreamVeraSans-Roman-28"/>
      <use x="285.7109375" xlink:href="#BitstreamVeraSans-Roman-6d"/>
      <use x="383.123046875" xlink:href="#BitstreamVeraSans-Roman-73"/>
      <use x="435.22265625" xlink:href="#BitstreamVeraSans-Roman-29"/>
      <use x="474.236328125" xlink:href="#BitstreamVeraSans-Roman-20"/>
      <use x="506.0234375" xlink:href="#BitstreamVeraSans-Roman-2d"/>
      <use x="542.107421875" xlink:href="#BitstreamVeraSans-Roman-20"/>
      <use x="573.89453125" xlink:href="#BitstreamVeraSans-Roman-66"/>
      <use x="609.099609375" xlink:href="#BitstreamVeraSans-Roman-6c"/>
      <use x="636.8828125" xlink:href="#BitstreamVeraSans-Roman-6f"/>
      <use x="698.064453125" xlink:href="#BitstreamVeraSans-Roman-77"/>
      <use x="779.8515625" xlink:href="#BitstreamVeraSans-Roman-3d"/>
      <use x="863.640625" xlink:href="#BitstreamVeraSans-Roman-31"/>
      <use x="927.263671875" xlink:href="#BitstreamVeraSans-Roman-5f"/>
      <use x="977.263671875" xlink:href="#BitstreamVeraSans-Roman-6f"/>
      <use x="1038.4453125" xlink:href="#BitstreamVeraSans-Roman-6c"/>
      <use x="1066.22851562" xlink:href="#BitstreamVeraSans-Roman-64"/>
      <use x="1129.70507812" xlink:href="#BitstreamVeraSans-Roman-5f"/>
      <use x="1179.70507812" xlink:href="#BitstreamVeraSans-Roman-77"/>
      <use x="1261.4921875" xlink:href="#BitstreamVeraSans-Roman-69"/>
      <use x="1289.27539062" xlink:href="#BitstreamVeraSans-Roman-66"/>
      <use x="1324.48046875" xlink:href="#BitstreamVeraSans-Roman-69"/>
      <use x="1352.26367188" xlink:href="#BitstreamVeraSans-Roman-5f"/>
      <use x="1402.26367188" xlink:href="#BitstreamVeraSans-Roman-77"/>
      <use x="1484.05078125" xlink:href="#BitstreamVeraSans-Roman-69"/>
      <use x="1511.83398438" xlink:href="#BitstreamVeraSans-Roman-66"/>
      <use x="1547.0390625" xlink:href="#BitstreamVeraSans-Roman-69"/>
      <use x="1574.82226562" xlink:href="#BitstreamVeraSans-Roman-5f"/>
      <use x="1624.82226562" xlink:href="#BitstreamVeraSans-Roman-65"/>
      <use x="1686.34570312" xlink:href="#BitstreamVeraSans-Roman-63"/>
      <use x="1741.32617188" xlink:href="#BitstreamVeraSans-Roman-6e"/>
      <use x="1804.70507812" xlink:href="#BitstreamVeraSans-Roman-3d"/>
      <use x="1888.49414062" xlink:href="#BitstreamVeraSans-Roman-6e"/>
      <use x="1951.87304688" xlink:href="#BitstreamVeraSans-Roman-6f"/>
     </g>
    </g>
    <g id="line2d_96">
     <path d="M 1532.559588 124.215733 
L 1552.551588 124.215733 
" style="fill:none;stroke:#7570b3;stroke-dasharray:1.000000,3.000000;stroke-dashoffset:0.0;"/>
    </g>
    <g id="line2d_97"/>
    <g id="text_14">
     <!-- Ping (ms) - flow=12_new_wifi_leth_5ghz_ecn=yes -->
     <defs>
      <path d="M 5.515625 54.6875 
L 48.1875 54.6875 
L 48.1875 46.484375 
L 14.40625 7.171875 
L 48.1875 7.171875 
L 48.1875 0 
L 4.296875 0 
L 4.296875 8.203125 
L 38.09375 47.515625 
L 5.515625 47.515625 
z
" id="BitstreamVeraSans-Roman-7a"/>
      <path d="M 54.890625 33.015625 
L 54.890625 0 
L 45.90625 0 
L 45.90625 32.71875 
Q 45.90625 40.484375 42.875 44.328125 
Q 39.84375 48.1875 33.796875 48.1875 
Q 26.515625 48.1875 22.3125 43.546875 
Q 18.109375 38.921875 18.109375 30.90625 
L 18.109375 0 
L 9.078125 0 
L 9.078125 75.984375 
L 18.109375 75.984375 
L 18.109375 46.1875 
Q 21.34375 51.125 25.703125 53.5625 
Q 30.078125 56 35.796875 56 
Q 45.21875 56 50.046875 50.171875 
Q 54.890625 44.34375 54.890625 33.015625 
" id="BitstreamVeraSans-Roman-68"/>
      <path d="M 10.796875 72.90625 
L 49.515625 72.90625 
L 49.515625 64.59375 
L 19.828125 64.59375 
L 19.828125 46.734375 
Q 21.96875 47.46875 24.109375 47.828125 
Q 26.265625 48.1875 28.421875 48.1875 
Q 40.625 48.1875 47.75 41.5 
Q 54.890625 34.8125 54.890625 23.390625 
Q 54.890625 11.625 47.5625 5.09375 
Q 40.234375 -1.421875 26.90625 -1.421875 
Q 22.3125 -1.421875 17.546875 -0.640625 
Q 12.796875 0.140625 7.71875 1.703125 
L 7.71875 11.625 
Q 12.109375 9.234375 16.796875 8.0625 
Q 21.484375 6.890625 26.703125 6.890625 
Q 35.15625 6.890625 40.078125 11.328125 
Q 45.015625 15.765625 45.015625 23.390625 
Q 45.015625 31 40.078125 35.4375 
Q 35.15625 39.890625 26.703125 39.890625 
Q 22.75 39.890625 18.8125 39.015625 
Q 14.890625 38.140625 10.796875 36.28125 
z
" id="BitstreamVeraSans-Roman-35"/>
     </defs>
     <g style="fill:#262626;" transform="translate(1560.548388 127.714333125)scale(0.09996 -0.09996)">
      <use xlink:href="#BitstreamVeraSans-Roman-50"/>
      <use x="60.271484375" xlink:href="#BitstreamVeraSans-Roman-69"/>
      <use x="88.0546875" xlink:href="#BitstreamVeraSans-Roman-6e"/>
      <use x="151.43359375" xlink:href="#BitstreamVeraSans-Roman-67"/>
      <use x="214.91015625" xlink:href="#BitstreamVeraSans-Roman-20"/>
      <use x="246.697265625" xlink:href="#BitstreamVeraSans-Roman-28"/>
      <use x="285.7109375" xlink:href="#BitstreamVeraSans-Roman-6d"/>
      <use x="383.123046875" xlink:href="#BitstreamVeraSans-Roman-73"/>
      <use x="435.22265625" xlink:href="#BitstreamVeraSans-Roman-29"/>
      <use x="474.236328125" xlink:href="#BitstreamVeraSans-Roman-20"/>
      <use x="506.0234375" xlink:href="#BitstreamVeraSans-Roman-2d"/>
      <use x="542.107421875" xlink:href="#BitstreamVeraSans-Roman-20"/>
      <use x="573.89453125" xlink:href="#BitstreamVeraSans-Roman-66"/>
      <use x="609.099609375" xlink:href="#BitstreamVeraSans-Roman-6c"/>
      <use x="636.8828125" xlink:href="#BitstreamVeraSans-Roman-6f"/>
      <use x="698.064453125" xlink:href="#BitstreamVeraSans-Roman-77"/>
      <use x="779.8515625" xlink:href="#BitstreamVeraSans-Roman-3d"/>
      <use x="863.640625" xlink:href="#BitstreamVeraSans-Roman-31"/>
      <use x="927.263671875" xlink:href="#BitstreamVeraSans-Roman-32"/>
      <use x="990.88671875" xlink:href="#BitstreamVeraSans-Roman-5f"/>
      <use x="1040.88671875" xlink:href="#BitstreamVeraSans-Roman-6e"/>
      <use x="1104.265625" xlink:href="#BitstreamVeraSans-Roman-65"/>
      <use x="1165.7890625" xlink:href="#BitstreamVeraSans-Roman-77"/>
      <use x="1247.57617188" xlink:href="#BitstreamVeraSans-Roman-5f"/>
      <use x="1297.57617188" xlink:href="#BitstreamVeraSans-Roman-77"/>
      <use x="1379.36328125" xlink:href="#BitstreamVeraSans-Roman-69"/>
      <use x="1407.14648438" xlink:href="#BitstreamVeraSans-Roman-66"/>
      <use x="1442.3515625" xlink:href="#BitstreamVeraSans-Roman-69"/>
      <use x="1470.13476562" xlink:href="#BitstreamVeraSans-Roman-5f"/>
      <use x="1520.13476562" xlink:href="#BitstreamVeraSans-Roman-6c"/>
      <use x="1547.91796875" xlink:href="#BitstreamVeraSans-Roman-65"/>
      <use x="1609.44140625" xlink:href="#BitstreamVeraSans-Roman-74"/>
      <use x="1648.65039062" xlink:href="#BitstreamVeraSans-Roman-68"/>
      <use x="1712.02929688" xlink:href="#BitstreamVeraSans-Roman-5f"/>
      <use x="1762.02929688" xlink:href="#BitstreamVeraSans-Roman-35"/>
      <use x="1825.65234375" xlink:href="#BitstreamVeraSans-Roman-67"/>
      <use x="1889.12890625" xlink:href="#BitstreamVeraSans-Roman-68"/>
      <use x="1952.5078125" xlink:href="#BitstreamVeraSans-Roman-7a"/>
      <use x="2004.99804688" xlink:href="#BitstreamVeraSans-Roman-5f"/>
      <use x="2054.99804688" xlink:href="#BitstreamVeraSans-Roman-65"/>
      <use x="2116.52148438" xlink:href="#BitstreamVeraSans-Roman-63"/>
      <use x="2171.50195312" xlink:href="#BitstreamVeraSans-Roman-6e"/>
      <use x="2234.88085938" xlink:href="#BitstreamVeraSans-Roman-3d"/>
      <use x="2318.66992188" xlink:href="#BitstreamVeraSans-Roman-79"/>
      <use x="2377.84960938" xlink:href="#BitstreamVeraSans-Roman-65"/>
      <use x="2439.37304688" xlink:href="#BitstreamVeraSans-Roman-73"/>
     </g>
    </g>
    <g id="line2d_98">
     <path d="M 1532.559588 139.166001 
L 1552.551588 139.166001 
" style="fill:none;stroke:#e7298a;stroke-dasharray:8.000000,4.000000,2.000000,4.000000;stroke-dashoffset:0.0;"/>
    </g>
    <g id="line2d_99"/>
    <g id="text_15">
     <!-- Ping (ms) - flow=1_new_wifi_leth_5ghz_ecn=yes -->
     <g style="fill:#262626;" transform="translate(1560.548388 142.664600625)scale(0.09996 -0.09996)">
      <use xlink:href="#BitstreamVeraSans-Roman-50"/>
      <use x="60.271484375" xlink:href="#BitstreamVeraSans-Roman-69"/>
      <use x="88.0546875" xlink:href="#BitstreamVeraSans-Roman-6e"/>
      <use x="151.43359375" xlink:href="#BitstreamVeraSans-Roman-67"/>
      <use x="214.91015625" xlink:href="#BitstreamVeraSans-Roman-20"/>
      <use x="246.697265625" xlink:href="#BitstreamVeraSans-Roman-28"/>
      <use x="285.7109375" xlink:href="#BitstreamVeraSans-Roman-6d"/>
      <use x="383.123046875" xlink:href="#BitstreamVeraSans-Roman-73"/>
      <use x="435.22265625" xlink:href="#BitstreamVeraSans-Roman-29"/>
      <use x="474.236328125" xlink:href="#BitstreamVeraSans-Roman-20"/>
      <use x="506.0234375" xlink:href="#BitstreamVeraSans-Roman-2d"/>
      <use x="542.107421875" xlink:href="#BitstreamVeraSans-Roman-20"/>
      <use x="573.89453125" xlink:href="#BitstreamVeraSans-Roman-66"/>
      <use x="609.099609375" xlink:href="#BitstreamVeraSans-Roman-6c"/>
      <use x="636.8828125" xlink:href="#BitstreamVeraSans-Roman-6f"/>
      <use x="698.064453125" xlink:href="#BitstreamVeraSans-Roman-77"/>
      <use x="779.8515625" xlink:href="#BitstreamVeraSans-Roman-3d"/>
      <use x="863.640625" xlink:href="#BitstreamVeraSans-Roman-31"/>
      <use x="927.263671875" xlink:href="#BitstreamVeraSans-Roman-5f"/>
      <use x="977.263671875" xlink:href="#BitstreamVeraSans-Roman-6e"/>
      <use x="1040.64257812" xlink:href="#BitstreamVeraSans-Roman-65"/>
      <use x="1102.16601562" xlink:href="#BitstreamVeraSans-Roman-77"/>
      <use x="1183.953125" xlink:href="#BitstreamVeraSans-Roman-5f"/>
      <use x="1233.953125" xlink:href="#BitstreamVeraSans-Roman-77"/>
      <use x="1315.74023438" xlink:href="#BitstreamVeraSans-Roman-69"/>
      <use x="1343.5234375" xlink:href="#BitstreamVeraSans-Roman-66"/>
      <use x="1378.72851562" xlink:href="#BitstreamVeraSans-Roman-69"/>
      <use x="1406.51171875" xlink:href="#BitstreamVeraSans-Roman-5f"/>
      <use x="1456.51171875" xlink:href="#BitstreamVeraSans-Roman-6c"/>
      <use x="1484.29492188" xlink:href="#BitstreamVeraSans-Roman-65"/>
      <use x="1545.81835938" xlink:href="#BitstreamVeraSans-Roman-74"/>
      <use x="1585.02734375" xlink:href="#BitstreamVeraSans-Roman-68"/>
      <use x="1648.40625" xlink:href="#BitstreamVeraSans-Roman-5f"/>
      <use x="1698.40625" xlink:href="#BitstreamVeraSans-Roman-35"/>
      <use x="1762.02929688" xlink:href="#BitstreamVeraSans-Roman-67"/>
      <use x="1825.50585938" xlink:href="#BitstreamVeraSans-Roman-68"/>
      <use x="1888.88476562" xlink:href="#BitstreamVeraSans-Roman-7a"/>
      <use x="1941.375" xlink:href="#BitstreamVeraSans-Roman-5f"/>
      <use x="1991.375" xlink:href="#BitstreamVeraSans-Roman-65"/>
      <use x="2052.8984375" xlink:href="#BitstreamVeraSans-Roman-63"/>
      <use x="2107.87890625" xlink:href="#BitstreamVeraSans-Roman-6e"/>
      <use x="2171.2578125" xlink:href="#BitstreamVeraSans-Roman-3d"/>
      <use x="2255.046875" xlink:href="#BitstreamVeraSans-Roman-79"/>
      <use x="2314.2265625" xlink:href="#BitstreamVeraSans-Roman-65"/>
      <use x="2375.75" xlink:href="#BitstreamVeraSans-Roman-73"/>
     </g>
    </g>
   </g>
  </g>
  <g id="text_16">
   <!-- TCP download - N streams w/ping -->
   <defs>
    <path d="M 9.8125 72.90625 
L 23.09375 72.90625 
L 55.421875 11.921875 
L 55.421875 72.90625 
L 64.984375 72.90625 
L 64.984375 0 
L 51.703125 0 
L 19.390625 60.984375 
L 19.390625 0 
L 9.8125 0 
z
" id="BitstreamVeraSans-Roman-4e"/>
    <path d="M -0.296875 72.90625 
L 61.375 72.90625 
L 61.375 64.59375 
L 35.5 64.59375 
L 35.5 0 
L 25.59375 0 
L 25.59375 64.59375 
L -0.296875 64.59375 
z
" id="BitstreamVeraSans-Roman-54"/>
    <path d="M 25.390625 72.90625 
L 33.6875 72.90625 
L 8.296875 -9.28125 
L 0 -9.28125 
z
" id="BitstreamVeraSans-Roman-2f"/>
   </defs>
   <g style="fill:#262626;" transform="translate(876.70640625 10.6378125)scale(0.14 -0.14)">
    <use xlink:href="#BitstreamVeraSans-Roman-54"/>
    <use x="61.005859375" xlink:href="#BitstreamVeraSans-Roman-43"/>
    <use x="130.830078125" xlink:href="#BitstreamVeraSans-Roman-50"/>
    <use x="191.1328125" xlink:href="#BitstreamVeraSans-Roman-20"/>
    <use x="222.919921875" xlink:href="#BitstreamVeraSans-Roman-64"/>
    <use x="286.396484375" xlink:href="#BitstreamVeraSans-Roman-6f"/>
    <use x="347.578125" xlink:href="#BitstreamVeraSans-Roman-77"/>
    <use x="429.365234375" xlink:href="#BitstreamVeraSans-Roman-6e"/>
    <use x="492.744140625" xlink:href="#BitstreamVeraSans-Roman-6c"/>
    <use x="520.52734375" xlink:href="#BitstreamVeraSans-Roman-6f"/>
    <use x="581.708984375" xlink:href="#BitstreamVeraSans-Roman-61"/>
    <use x="642.98828125" xlink:href="#BitstreamVeraSans-Roman-64"/>
    <use x="706.46484375" xlink:href="#BitstreamVeraSans-Roman-20"/>
    <use x="738.251953125" xlink:href="#BitstreamVeraSans-Roman-2d"/>
    <use x="774.3359375" xlink:href="#BitstreamVeraSans-Roman-20"/>
    <use x="806.123046875" xlink:href="#BitstreamVeraSans-Roman-4e"/>
    <use x="880.927734375" xlink:href="#BitstreamVeraSans-Roman-20"/>
    <use x="912.71484375" xlink:href="#BitstreamVeraSans-Roman-73"/>
    <use x="964.814453125" xlink:href="#BitstreamVeraSans-Roman-74"/>
    <use x="1004.0234375" xlink:href="#BitstreamVeraSans-Roman-72"/>
    <use x="1045.10546875" xlink:href="#BitstreamVeraSans-Roman-65"/>
    <use x="1106.62890625" xlink:href="#BitstreamVeraSans-Roman-61"/>
    <use x="1167.90820312" xlink:href="#BitstreamVeraSans-Roman-6d"/>
    <use x="1265.3203125" xlink:href="#BitstreamVeraSans-Roman-73"/>
    <use x="1317.41992188" xlink:href="#BitstreamVeraSans-Roman-20"/>
    <use x="1349.20703125" xlink:href="#BitstreamVeraSans-Roman-77"/>
    <use x="1430.99414062" xlink:href="#BitstreamVeraSans-Roman-2f"/>
    <use x="1464.68554688" xlink:href="#BitstreamVeraSans-Roman-70"/>
    <use x="1528.16210938" xlink:href="#BitstreamVeraSans-Roman-69"/>
    <use x="1555.9453125" xlink:href="#BitstreamVeraSans-Roman-6e"/>
    <use x="1619.32421875" xlink:href="#BitstreamVeraSans-Roman-67"/>
   </g>
   <!-- Ping CDF plot -->
   <defs>
    <path d="M 9.8125 72.90625 
L 51.703125 72.90625 
L 51.703125 64.59375 
L 19.671875 64.59375 
L 19.671875 43.109375 
L 48.578125 43.109375 
L 48.578125 34.8125 
L 19.671875 34.8125 
L 19.671875 0 
L 9.8125 0 
z
" id="BitstreamVeraSans-Roman-46"/>
    <path d="M 19.671875 64.796875 
L 19.671875 8.109375 
L 31.59375 8.109375 
Q 46.6875 8.109375 53.6875 14.9375 
Q 60.6875 21.78125 60.6875 36.53125 
Q 60.6875 51.171875 53.6875 57.984375 
Q 46.6875 64.796875 31.59375 64.796875 
z
M 9.8125 72.90625 
L 30.078125 72.90625 
Q 51.265625 72.90625 61.171875 64.09375 
Q 71.09375 55.28125 71.09375 36.53125 
Q 71.09375 17.671875 61.125 8.828125 
Q 51.171875 0 30.078125 0 
L 9.8125 0 
z
" id="BitstreamVeraSans-Roman-44"/>
   </defs>
   <g style="fill:#262626;" transform="translate(947.2871875 26.31475)scale(0.14 -0.14)">
    <use xlink:href="#BitstreamVeraSans-Roman-50"/>
    <use x="60.271484375" xlink:href="#BitstreamVeraSans-Roman-69"/>
    <use x="88.0546875" xlink:href="#BitstreamVeraSans-Roman-6e"/>
    <use x="151.43359375" xlink:href="#BitstreamVeraSans-Roman-67"/>
    <use x="214.91015625" xlink:href="#BitstreamVeraSans-Roman-20"/>
    <use x="246.697265625" xlink:href="#BitstreamVeraSans-Roman-43"/>
    <use x="316.521484375" xlink:href="#BitstreamVeraSans-Roman-44"/>
    <use x="393.5234375" xlink:href="#BitstreamVeraSans-Roman-46"/>
    <use x="451.04296875" xlink:href="#BitstreamVeraSans-Roman-20"/>
    <use x="482.830078125" xlink:href="#BitstreamVeraSans-Roman-70"/>
    <use x="546.306640625" xlink:href="#BitstreamVeraSans-Roman-6c"/>
    <use x="574.08984375" xlink:href="#BitstreamVeraSans-Roman-6f"/>
    <use x="635.271484375" xlink:href="#BitstreamVeraSans-Roman-74"/>
   </g>
  </g>
  <g id="text_17">
   <!-- Local/remote: nemesis/172.21.66.218 - Time: 2016-08-23T04:39:58.280259 - Length/step: 30s/0.20s -->
   <defs>
    <path d="M 40.578125 39.3125 
Q 47.65625 37.796875 51.625 33 
Q 55.609375 28.21875 55.609375 21.1875 
Q 55.609375 10.40625 48.1875 4.484375 
Q 40.765625 -1.421875 27.09375 -1.421875 
Q 22.515625 -1.421875 17.65625 -0.515625 
Q 12.796875 0.390625 7.625 2.203125 
L 7.625 11.71875 
Q 11.71875 9.328125 16.59375 8.109375 
Q 21.484375 6.890625 26.8125 6.890625 
Q 36.078125 6.890625 40.9375 10.546875 
Q 45.796875 14.203125 45.796875 21.1875 
Q 45.796875 27.640625 41.28125 31.265625 
Q 36.765625 34.90625 28.71875 34.90625 
L 20.21875 34.90625 
L 20.21875 43.015625 
L 29.109375 43.015625 
Q 36.375 43.015625 40.234375 45.921875 
Q 44.09375 48.828125 44.09375 54.296875 
Q 44.09375 59.90625 40.109375 62.90625 
Q 36.140625 65.921875 28.71875 65.921875 
Q 24.65625 65.921875 20.015625 65.03125 
Q 15.375 64.15625 9.8125 62.3125 
L 9.8125 71.09375 
Q 15.4375 72.65625 20.34375 73.4375 
Q 25.25 74.21875 29.59375 74.21875 
Q 40.828125 74.21875 47.359375 69.109375 
Q 53.90625 64.015625 53.90625 55.328125 
Q 53.90625 49.265625 50.4375 45.09375 
Q 46.96875 40.921875 40.578125 39.3125 
" id="BitstreamVeraSans-Roman-33"/>
    <path d="M 10.984375 1.515625 
L 10.984375 10.5 
Q 14.703125 8.734375 18.5 7.8125 
Q 22.3125 6.890625 25.984375 6.890625 
Q 35.75 6.890625 40.890625 13.453125 
Q 46.046875 20.015625 46.78125 33.40625 
Q 43.953125 29.203125 39.59375 26.953125 
Q 35.25 24.703125 29.984375 24.703125 
Q 19.046875 24.703125 12.671875 31.3125 
Q 6.296875 37.9375 6.296875 49.421875 
Q 6.296875 60.640625 12.9375 67.421875 
Q 19.578125 74.21875 30.609375 74.21875 
Q 43.265625 74.21875 49.921875 64.515625 
Q 56.59375 54.828125 56.59375 36.375 
Q 56.59375 19.140625 48.40625 8.859375 
Q 40.234375 -1.421875 26.421875 -1.421875 
Q 22.703125 -1.421875 18.890625 -0.6875 
Q 15.09375 0.046875 10.984375 1.515625 
M 30.609375 32.421875 
Q 37.25 32.421875 41.125 36.953125 
Q 45.015625 41.5 45.015625 49.421875 
Q 45.015625 57.28125 41.125 61.84375 
Q 37.25 66.40625 30.609375 66.40625 
Q 23.96875 66.40625 20.09375 61.84375 
Q 16.21875 57.28125 16.21875 49.421875 
Q 16.21875 41.5 20.09375 36.953125 
Q 23.96875 32.421875 30.609375 32.421875 
" id="BitstreamVeraSans-Roman-39"/>
    <path d="M 11.71875 12.40625 
L 22.015625 12.40625 
L 22.015625 0 
L 11.71875 0 
z
M 11.71875 51.703125 
L 22.015625 51.703125 
L 22.015625 39.3125 
L 11.71875 39.3125 
z
" id="BitstreamVeraSans-Roman-3a"/>
    <path d="M 9.8125 72.90625 
L 19.671875 72.90625 
L 19.671875 8.296875 
L 55.171875 8.296875 
L 55.171875 0 
L 9.8125 0 
z
" id="BitstreamVeraSans-Roman-4c"/>
    <path d="M 8.203125 72.90625 
L 55.078125 72.90625 
L 55.078125 68.703125 
L 28.609375 0 
L 18.3125 0 
L 43.21875 64.59375 
L 8.203125 64.59375 
z
" id="BitstreamVeraSans-Roman-37"/>
   </defs>
   <g style="fill:#262626;" transform="translate(791.6825 860.53625)scale(0.08 -0.08)">
    <use xlink:href="#BitstreamVeraSans-Roman-4c"/>
    <use x="55.697265625" xlink:href="#BitstreamVeraSans-Roman-6f"/>
    <use x="116.87890625" xlink:href="#BitstreamVeraSans-Roman-63"/>
    <use x="171.859375" xlink:href="#BitstreamVeraSans-Roman-61"/>
    <use x="233.138671875" xlink:href="#BitstreamVeraSans-Roman-6c"/>
    <use x="260.921875" xlink:href="#BitstreamVeraSans-Roman-2f"/>
    <use x="294.61328125" xlink:href="#BitstreamVeraSans-Roman-72"/>
    <use x="335.6953125" xlink:href="#BitstreamVeraSans-Roman-65"/>
    <use x="397.21875" xlink:href="#BitstreamVeraSans-Roman-6d"/>
    <use x="494.630859375" xlink:href="#BitstreamVeraSans-Roman-6f"/>
    <use x="555.8125" xlink:href="#BitstreamVeraSans-Roman-74"/>
    <use x="595.021484375" xlink:href="#BitstreamVeraSans-Roman-65"/>
    <use x="656.544921875" xlink:href="#BitstreamVeraSans-Roman-3a"/>
    <use x="690.236328125" xlink:href="#BitstreamVeraSans-Roman-20"/>
    <use x="722.0234375" xlink:href="#BitstreamVeraSans-Roman-6e"/>
    <use x="785.40234375" xlink:href="#BitstreamVeraSans-Roman-65"/>
    <use x="846.92578125" xlink:href="#BitstreamVeraSans-Roman-6d"/>
    <use x="944.337890625" xlink:href="#BitstreamVeraSans-Roman-65"/>
    <use x="1005.86132812" xlink:href="#BitstreamVeraSans-Roman-73"/>
    <use x="1057.9609375" xlink:href="#BitstreamVeraSans-Roman-69"/>
    <use x="1085.74414062" xlink:href="#BitstreamVeraSans-Roman-73"/>
    <use x="1137.84375" xlink:href="#BitstreamVeraSans-Roman-2f"/>
    <use x="1171.53515625" xlink:href="#BitstreamVeraSans-Roman-31"/>
    <use x="1235.15820312" xlink:href="#BitstreamVeraSans-Roman-37"/>
    <use x="1298.78125" xlink:href="#BitstreamVeraSans-Roman-32"/>
    <use x="1362.40429688" xlink:href="#BitstreamVeraSans-Roman-2e"/>
    <use x="1394.19140625" xlink:href="#BitstreamVeraSans-Roman-32"/>
    <use x="1457.81445312" xlink:href="#BitstreamVeraSans-Roman-31"/>
    <use x="1521.4375" xlink:href="#BitstreamVeraSans-Roman-2e"/>
    <use x="1553.22460938" xlink:href="#BitstreamVeraSans-Roman-36"/>
    <use x="1616.84765625" xlink:href="#BitstreamVeraSans-Roman-36"/>
    <use x="1680.47070312" xlink:href="#BitstreamVeraSans-Roman-2e"/>
    <use x="1712.2578125" xlink:href="#BitstreamVeraSans-Roman-32"/>
    <use x="1775.88085938" xlink:href="#BitstreamVeraSans-Roman-31"/>
    <use x="1839.50390625" xlink:href="#BitstreamVeraSans-Roman-38"/>
    <use x="1903.12695312" xlink:href="#BitstreamVeraSans-Roman-20"/>
    <use x="1934.9140625" xlink:href="#BitstreamVeraSans-Roman-2d"/>
    <use x="1970.99804688" xlink:href="#BitstreamVeraSans-Roman-20"/>
    <use x="2002.78515625" xlink:href="#BitstreamVeraSans-Roman-54"/>
    <use x="2063.82226562" xlink:href="#BitstreamVeraSans-Roman-69"/>
    <use x="2091.60546875" xlink:href="#BitstreamVeraSans-Roman-6d"/>
    <use x="2189.01757812" xlink:href="#BitstreamVeraSans-Roman-65"/>
    <use x="2250.54101562" xlink:href="#BitstreamVeraSans-Roman-3a"/>
    <use x="2284.23242188" xlink:href="#BitstreamVeraSans-Roman-20"/>
    <use x="2316.01953125" xlink:href="#BitstreamVeraSans-Roman-32"/>
    <use x="2379.64257812" xlink:href="#BitstreamVeraSans-Roman-30"/>
    <use x="2443.265625" xlink:href="#BitstreamVeraSans-Roman-31"/>
    <use x="2506.88867188" xlink:href="#BitstreamVeraSans-Roman-36"/>
    <use x="2570.51171875" xlink:href="#BitstreamVeraSans-Roman-2d"/>
    <use x="2606.59570312" xlink:href="#BitstreamVeraSans-Roman-30"/>
    <use x="2670.21875" xlink:href="#BitstreamVeraSans-Roman-38"/>
    <use x="2733.84179688" xlink:href="#BitstreamVeraSans-Roman-2d"/>
    <use x="2769.92578125" xlink:href="#BitstreamVeraSans-Roman-32"/>
    <use x="2833.54882812" xlink:href="#BitstreamVeraSans-Roman-33"/>
    <use x="2897.171875" xlink:href="#BitstreamVeraSans-Roman-54"/>
    <use x="2958.25585938" xlink:href="#BitstreamVeraSans-Roman-30"/>
    <use x="3021.87890625" xlink:href="#BitstreamVeraSans-Roman-34"/>
    <use x="3085.50195312" xlink:href="#BitstreamVeraSans-Roman-3a"/>
    <use x="3119.19335938" xlink:href="#BitstreamVeraSans-Roman-33"/>
    <use x="3182.81640625" xlink:href="#BitstreamVeraSans-Roman-39"/>
    <use x="3246.43945312" xlink:href="#BitstreamVeraSans-Roman-3a"/>
    <use x="3280.13085938" xlink:href="#BitstreamVeraSans-Roman-35"/>
    <use x="3343.75390625" xlink:href="#BitstreamVeraSans-Roman-38"/>
    <use x="3407.37695312" xlink:href="#BitstreamVeraSans-Roman-2e"/>
    <use x="3439.1640625" xlink:href="#BitstreamVeraSans-Roman-32"/>
    <use x="3502.78710938" xlink:href="#BitstreamVeraSans-Roman-38"/>
    <use x="3566.41015625" xlink:href="#BitstreamVeraSans-Roman-30"/>
    <use x="3630.03320312" xlink:href="#BitstreamVeraSans-Roman-32"/>
    <use x="3693.65625" xlink:href="#BitstreamVeraSans-Roman-35"/>
    <use x="3757.27929688" xlink:href="#BitstreamVeraSans-Roman-39"/>
    <use x="3820.90234375" xlink:href="#BitstreamVeraSans-Roman-20"/>
    <use x="3852.68945312" xlink:href="#BitstreamVeraSans-Roman-2d"/>
    <use x="3888.7734375" xlink:href="#BitstreamVeraSans-Roman-20"/>
    <use x="3920.56054688" xlink:href="#BitstreamVeraSans-Roman-4c"/>
    <use x="3976.2578125" xlink:href="#BitstreamVeraSans-Roman-65"/>
    <use x="4037.78125" xlink:href="#BitstreamVeraSans-Roman-6e"/>
    <use x="4101.16015625" xlink:href="#BitstreamVeraSans-Roman-67"/>
    <use x="4164.63671875" xlink:href="#BitstreamVeraSans-Roman-74"/>
    <use x="4203.84570312" xlink:href="#BitstreamVeraSans-Roman-68"/>
    <use x="4267.22460938" xlink:href="#BitstreamVeraSans-Roman-2f"/>
    <use x="4300.91601562" xlink:href="#BitstreamVeraSans-Roman-73"/>
    <use x="4353.015625" xlink:href="#BitstreamVeraSans-Roman-74"/>
    <use x="4392.22460938" xlink:href="#BitstreamVeraSans-Roman-65"/>
    <use x="4453.74804688" xlink:href="#BitstreamVeraSans-Roman-70"/>
    <use x="4517.22460938" xlink:href="#BitstreamVeraSans-Roman-3a"/>
    <use x="4550.91601562" xlink:href="#BitstreamVeraSans-Roman-20"/>
    <use x="4582.703125" xlink:href="#BitstreamVeraSans-Roman-33"/>
    <use x="4646.32617188" xlink:href="#BitstreamVeraSans-Roman-30"/>
    <use x="4709.94921875" xlink:href="#BitstreamVeraSans-Roman-73"/>
    <use x="4762.04882812" xlink:href="#BitstreamVeraSans-Roman-2f"/>
    <use x="4795.74023438" xlink:href="#BitstreamVeraSans-Roman-30"/>
    <use x="4859.36328125" xlink:href="#BitstreamVeraSans-Roman-2e"/>
    <use x="4891.15039062" xlink:href="#BitstreamVeraSans-Roman-32"/>
    <use x="4954.7734375" xlink:href="#BitstreamVeraSans-Roman-30"/>
    <use x="5018.39648438" xlink:href="#BitstreamVeraSans-Roman-73"/>
   </g>
  </g>
 </g>
 <defs>
  <clipPath id="p14f8dba177">
   <rect height="689.76" width="1254.8394" x="248.625" y="86.22"/>
  </clipPath>
 </defs>
</svg>
