<?xml version="1.0" encoding="utf-8" standalone="no"?>
<!DOCTYPE svg PUBLIC "-//W3C//DTD SVG 1.1//EN"
  "http://www.w3.org/Graphics/SVG/1.1/DTD/svg11.dtd">
<!-- Created with matplotlib (http://matplotlib.org/) -->
<svg height="305pt" version="1.1" viewBox="0 0 826 305" width="826pt" xmlns="http://www.w3.org/2000/svg" xmlns:xlink="http://www.w3.org/1999/xlink">
 <defs>
  <style type="text/css">
*{stroke-linecap:butt;stroke-linejoin:round;stroke-miterlimit:100000;}
  </style>
 </defs>
 <g id="figure_1">
  <g id="patch_1">
   <path d="M 0 305.1 
L 826.2 305.1 
L 826.2 0 
L 0 0 
z
" style="fill:#ffffff;"/>
  </g>
  <g id="axes_1">
   <g id="patch_2">
    <path d="M 103.275 274.59 
L 647.9694 274.59 
L 647.9694 30.51 
L 103.275 30.51 
z
" style="fill:#eaeaf2;"/>
   </g>
   <g id="matplotlib.axis_1">
    <g id="xtick_1">
     <g id="line2d_1">
      <path clip-path="url(#p4f3fa88831)" d="M 186.152932 274.59 
L 186.152932 30.51 
" style="fill:none;stroke:#ffffff;stroke-linecap:round;stroke-width:0.5;"/>
     </g>
     <g id="line2d_2">
      <defs>
       <path d="M 0 0 
L 0 0 
" id="mf44e914ba6" style="stroke:#262626;stroke-width:0.5;"/>
      </defs>
      <g>
       <use style="fill:#262626;stroke:#262626;stroke-width:0.5;" x="186.152931587" xlink:href="#mf44e914ba6" y="274.59"/>
      </g>
     </g>
     <g id="line2d_3">
      <g>
       <use style="fill:#262626;stroke:#262626;stroke-width:0.5;" x="186.152931587" xlink:href="#mf44e914ba6" y="30.51"/>
      </g>
     </g>
     <g id="text_1">
      <!-- 20 -->
      <defs>
       <path d="M 19.1875 8.296875 
L 53.609375 8.296875 
L 53.609375 0 
L 7.328125 0 
L 7.328125 8.296875 
Q 12.9375 14.109375 22.625 23.890625 
Q 32.328125 33.6875 34.8125 36.53125 
Q 39.546875 41.84375 41.421875 45.53125 
Q 43.3125 49.21875 43.3125 52.78125 
Q 43.3125 58.59375 39.234375 62.25 
Q 35.15625 65.921875 28.609375 65.921875 
Q 23.96875 65.921875 18.8125 64.3125 
Q 13.671875 62.703125 7.8125 59.421875 
L 7.8125 69.390625 
Q 13.765625 71.78125 18.9375 73 
Q 24.125 74.21875 28.421875 74.21875 
Q 39.75 74.21875 46.484375 68.546875 
Q 53.21875 62.890625 53.21875 53.421875 
Q 53.21875 48.921875 51.53125 44.890625 
Q 49.859375 40.875 45.40625 35.40625 
Q 44.1875 33.984375 37.640625 27.21875 
Q 31.109375 20.453125 19.1875 8.296875 
" id="BitstreamVeraSans-Roman-32"/>
       <path d="M 31.78125 66.40625 
Q 24.171875 66.40625 20.328125 58.90625 
Q 16.5 51.421875 16.5 36.375 
Q 16.5 21.390625 20.328125 13.890625 
Q 24.171875 6.390625 31.78125 6.390625 
Q 39.453125 6.390625 43.28125 13.890625 
Q 47.125 21.390625 47.125 36.375 
Q 47.125 51.421875 43.28125 58.90625 
Q 39.453125 66.40625 31.78125 66.40625 
M 31.78125 74.21875 
Q 44.046875 74.21875 50.515625 64.515625 
Q 56.984375 54.828125 56.984375 36.375 
Q 56.984375 17.96875 50.515625 8.265625 
Q 44.046875 -1.421875 31.78125 -1.421875 
Q 19.53125 -1.421875 13.0625 8.265625 
Q 6.59375 17.96875 6.59375 36.375 
Q 6.59375 54.828125 13.0625 64.515625 
Q 19.53125 74.21875 31.78125 74.21875 
" id="BitstreamVeraSans-Roman-30"/>
      </defs>
      <g style="fill:#262626;" transform="translate(178.517931587 287.708125)scale(0.12 -0.12)">
       <use xlink:href="#BitstreamVeraSans-Roman-32"/>
       <use x="63.623046875" xlink:href="#BitstreamVeraSans-Roman-30"/>
      </g>
     </g>
    </g>
    <g id="xtick_2">
     <g id="line2d_4">
      <path clip-path="url(#p4f3fa88831)" d="M 288.778813 274.59 
L 288.778813 30.51 
" style="fill:none;stroke:#ffffff;stroke-linecap:round;stroke-width:0.5;"/>
     </g>
     <g id="line2d_5">
      <g>
       <use style="fill:#262626;stroke:#262626;stroke-width:0.5;" x="288.778813456" xlink:href="#mf44e914ba6" y="274.59"/>
      </g>
     </g>
     <g id="line2d_6">
      <g>
       <use style="fill:#262626;stroke:#262626;stroke-width:0.5;" x="288.778813456" xlink:href="#mf44e914ba6" y="30.51"/>
      </g>
     </g>
     <g id="text_2">
      <!-- 40 -->
      <defs>
       <path d="M 37.796875 64.3125 
L 12.890625 25.390625 
L 37.796875 25.390625 
z
M 35.203125 72.90625 
L 47.609375 72.90625 
L 47.609375 25.390625 
L 58.015625 25.390625 
L 58.015625 17.1875 
L 47.609375 17.1875 
L 47.609375 0 
L 37.796875 0 
L 37.796875 17.1875 
L 4.890625 17.1875 
L 4.890625 26.703125 
z
" id="BitstreamVeraSans-Roman-34"/>
      </defs>
      <g style="fill:#262626;" transform="translate(281.143813456 287.708125)scale(0.12 -0.12)">
       <use xlink:href="#BitstreamVeraSans-Roman-34"/>
       <use x="63.623046875" xlink:href="#BitstreamVeraSans-Roman-30"/>
      </g>
     </g>
    </g>
    <g id="xtick_3">
     <g id="line2d_7">
      <path clip-path="url(#p4f3fa88831)" d="M 391.404695 274.59 
L 391.404695 30.51 
" style="fill:none;stroke:#ffffff;stroke-linecap:round;stroke-width:0.5;"/>
     </g>
     <g id="line2d_8">
      <g>
       <use style="fill:#262626;stroke:#262626;stroke-width:0.5;" x="391.404695326" xlink:href="#mf44e914ba6" y="274.59"/>
      </g>
     </g>
     <g id="line2d_9">
      <g>
       <use style="fill:#262626;stroke:#262626;stroke-width:0.5;" x="391.404695326" xlink:href="#mf44e914ba6" y="30.51"/>
      </g>
     </g>
     <g id="text_3">
      <!-- 60 -->
      <defs>
       <path d="M 33.015625 40.375 
Q 26.375 40.375 22.484375 35.828125 
Q 18.609375 31.296875 18.609375 23.390625 
Q 18.609375 15.53125 22.484375 10.953125 
Q 26.375 6.390625 33.015625 6.390625 
Q 39.65625 6.390625 43.53125 10.953125 
Q 47.40625 15.53125 47.40625 23.390625 
Q 47.40625 31.296875 43.53125 35.828125 
Q 39.65625 40.375 33.015625 40.375 
M 52.59375 71.296875 
L 52.59375 62.3125 
Q 48.875 64.0625 45.09375 64.984375 
Q 41.3125 65.921875 37.59375 65.921875 
Q 27.828125 65.921875 22.671875 59.328125 
Q 17.53125 52.734375 16.796875 39.40625 
Q 19.671875 43.65625 24.015625 45.921875 
Q 28.375 48.1875 33.59375 48.1875 
Q 44.578125 48.1875 50.953125 41.515625 
Q 57.328125 34.859375 57.328125 23.390625 
Q 57.328125 12.15625 50.6875 5.359375 
Q 44.046875 -1.421875 33.015625 -1.421875 
Q 20.359375 -1.421875 13.671875 8.265625 
Q 6.984375 17.96875 6.984375 36.375 
Q 6.984375 53.65625 15.1875 63.9375 
Q 23.390625 74.21875 37.203125 74.21875 
Q 40.921875 74.21875 44.703125 73.484375 
Q 48.484375 72.75 52.59375 71.296875 
" id="BitstreamVeraSans-Roman-36"/>
      </defs>
      <g style="fill:#262626;" transform="translate(383.769695326 287.708125)scale(0.12 -0.12)">
       <use xlink:href="#BitstreamVeraSans-Roman-36"/>
       <use x="63.623046875" xlink:href="#BitstreamVeraSans-Roman-30"/>
      </g>
     </g>
    </g>
    <g id="xtick_4">
     <g id="line2d_10">
      <path clip-path="url(#p4f3fa88831)" d="M 494.030577 274.59 
L 494.030577 30.51 
" style="fill:none;stroke:#ffffff;stroke-linecap:round;stroke-width:0.5;"/>
     </g>
     <g id="line2d_11">
      <g>
       <use style="fill:#262626;stroke:#262626;stroke-width:0.5;" x="494.030577196" xlink:href="#mf44e914ba6" y="274.59"/>
      </g>
     </g>
     <g id="line2d_12">
      <g>
       <use style="fill:#262626;stroke:#262626;stroke-width:0.5;" x="494.030577196" xlink:href="#mf44e914ba6" y="30.51"/>
      </g>
     </g>
     <g id="text_4">
      <!-- 80 -->
      <defs>
       <path d="M 31.78125 34.625 
Q 24.75 34.625 20.71875 30.859375 
Q 16.703125 27.09375 16.703125 20.515625 
Q 16.703125 13.921875 20.71875 10.15625 
Q 24.75 6.390625 31.78125 6.390625 
Q 38.8125 6.390625 42.859375 10.171875 
Q 46.921875 13.96875 46.921875 20.515625 
Q 46.921875 27.09375 42.890625 30.859375 
Q 38.875 34.625 31.78125 34.625 
M 21.921875 38.8125 
Q 15.578125 40.375 12.03125 44.71875 
Q 8.5 49.078125 8.5 55.328125 
Q 8.5 64.0625 14.71875 69.140625 
Q 20.953125 74.21875 31.78125 74.21875 
Q 42.671875 74.21875 48.875 69.140625 
Q 55.078125 64.0625 55.078125 55.328125 
Q 55.078125 49.078125 51.53125 44.71875 
Q 48 40.375 41.703125 38.8125 
Q 48.828125 37.15625 52.796875 32.3125 
Q 56.78125 27.484375 56.78125 20.515625 
Q 56.78125 9.90625 50.3125 4.234375 
Q 43.84375 -1.421875 31.78125 -1.421875 
Q 19.734375 -1.421875 13.25 4.234375 
Q 6.78125 9.90625 6.78125 20.515625 
Q 6.78125 27.484375 10.78125 32.3125 
Q 14.796875 37.15625 21.921875 38.8125 
M 18.3125 54.390625 
Q 18.3125 48.734375 21.84375 45.5625 
Q 25.390625 42.390625 31.78125 42.390625 
Q 38.140625 42.390625 41.71875 45.5625 
Q 45.3125 48.734375 45.3125 54.390625 
Q 45.3125 60.0625 41.71875 63.234375 
Q 38.140625 66.40625 31.78125 66.40625 
Q 25.390625 66.40625 21.84375 63.234375 
Q 18.3125 60.0625 18.3125 54.390625 
" id="BitstreamVeraSans-Roman-38"/>
      </defs>
      <g style="fill:#262626;" transform="translate(486.395577196 287.708125)scale(0.12 -0.12)">
       <use xlink:href="#BitstreamVeraSans-Roman-38"/>
       <use x="63.623046875" xlink:href="#BitstreamVeraSans-Roman-30"/>
      </g>
     </g>
    </g>
    <g id="xtick_5">
     <g id="line2d_13">
      <path clip-path="url(#p4f3fa88831)" d="M 596.656459 274.59 
L 596.656459 30.51 
" style="fill:none;stroke:#ffffff;stroke-linecap:round;stroke-width:0.5;"/>
     </g>
     <g id="line2d_14">
      <g>
       <use style="fill:#262626;stroke:#262626;stroke-width:0.5;" x="596.656459065" xlink:href="#mf44e914ba6" y="274.59"/>
      </g>
     </g>
     <g id="line2d_15">
      <g>
       <use style="fill:#262626;stroke:#262626;stroke-width:0.5;" x="596.656459065" xlink:href="#mf44e914ba6" y="30.51"/>
      </g>
     </g>
     <g id="text_5">
      <!-- 100 -->
      <defs>
       <path d="M 12.40625 8.296875 
L 28.515625 8.296875 
L 28.515625 63.921875 
L 10.984375 60.40625 
L 10.984375 69.390625 
L 28.421875 72.90625 
L 38.28125 72.90625 
L 38.28125 8.296875 
L 54.390625 8.296875 
L 54.390625 0 
L 12.40625 0 
z
" id="BitstreamVeraSans-Roman-31"/>
      </defs>
      <g style="fill:#262626;" transform="translate(585.203959065 287.708125)scale(0.12 -0.12)">
       <use xlink:href="#BitstreamVeraSans-Roman-31"/>
       <use x="63.623046875" xlink:href="#BitstreamVeraSans-Roman-30"/>
       <use x="127.24609375" xlink:href="#BitstreamVeraSans-Roman-30"/>
      </g>
     </g>
    </g>
    <g id="xtick_6">
     <g id="line2d_16">
      <g>
       <use style="fill:#262626;stroke:#262626;stroke-width:0.5;" x="109.183520185" xlink:href="#mf44e914ba6" y="274.59"/>
      </g>
     </g>
     <g id="line2d_17">
      <g>
       <use style="fill:#262626;stroke:#262626;stroke-width:0.5;" x="109.183520185" xlink:href="#mf44e914ba6" y="30.51"/>
      </g>
     </g>
    </g>
    <g id="xtick_7">
     <g id="line2d_18">
      <g>
       <use style="fill:#262626;stroke:#262626;stroke-width:0.5;" x="134.839990652" xlink:href="#mf44e914ba6" y="274.59"/>
      </g>
     </g>
     <g id="line2d_19">
      <g>
       <use style="fill:#262626;stroke:#262626;stroke-width:0.5;" x="134.839990652" xlink:href="#mf44e914ba6" y="30.51"/>
      </g>
     </g>
    </g>
    <g id="xtick_8">
     <g id="line2d_20">
      <g>
       <use style="fill:#262626;stroke:#262626;stroke-width:0.5;" x="160.496461119" xlink:href="#mf44e914ba6" y="274.59"/>
      </g>
     </g>
     <g id="line2d_21">
      <g>
       <use style="fill:#262626;stroke:#262626;stroke-width:0.5;" x="160.496461119" xlink:href="#mf44e914ba6" y="30.51"/>
      </g>
     </g>
    </g>
    <g id="xtick_9">
     <g id="line2d_22">
      <g>
       <use style="fill:#262626;stroke:#262626;stroke-width:0.5;" x="211.809402054" xlink:href="#mf44e914ba6" y="274.59"/>
      </g>
     </g>
     <g id="line2d_23">
      <g>
       <use style="fill:#262626;stroke:#262626;stroke-width:0.5;" x="211.809402054" xlink:href="#mf44e914ba6" y="30.51"/>
      </g>
     </g>
    </g>
    <g id="xtick_10">
     <g id="line2d_24">
      <g>
       <use style="fill:#262626;stroke:#262626;stroke-width:0.5;" x="237.465872522" xlink:href="#mf44e914ba6" y="274.59"/>
      </g>
     </g>
     <g id="line2d_25">
      <g>
       <use style="fill:#262626;stroke:#262626;stroke-width:0.5;" x="237.465872522" xlink:href="#mf44e914ba6" y="30.51"/>
      </g>
     </g>
    </g>
    <g id="xtick_11">
     <g id="line2d_26">
      <g>
       <use style="fill:#262626;stroke:#262626;stroke-width:0.5;" x="263.122342989" xlink:href="#mf44e914ba6" y="274.59"/>
      </g>
     </g>
     <g id="line2d_27">
      <g>
       <use style="fill:#262626;stroke:#262626;stroke-width:0.5;" x="263.122342989" xlink:href="#mf44e914ba6" y="30.51"/>
      </g>
     </g>
    </g>
    <g id="xtick_12">
     <g id="line2d_28">
      <g>
       <use style="fill:#262626;stroke:#262626;stroke-width:0.5;" x="314.435283924" xlink:href="#mf44e914ba6" y="274.59"/>
      </g>
     </g>
     <g id="line2d_29">
      <g>
       <use style="fill:#262626;stroke:#262626;stroke-width:0.5;" x="314.435283924" xlink:href="#mf44e914ba6" y="30.51"/>
      </g>
     </g>
    </g>
    <g id="xtick_13">
     <g id="line2d_30">
      <g>
       <use style="fill:#262626;stroke:#262626;stroke-width:0.5;" x="340.091754391" xlink:href="#mf44e914ba6" y="274.59"/>
      </g>
     </g>
     <g id="line2d_31">
      <g>
       <use style="fill:#262626;stroke:#262626;stroke-width:0.5;" x="340.091754391" xlink:href="#mf44e914ba6" y="30.51"/>
      </g>
     </g>
    </g>
    <g id="xtick_14">
     <g id="line2d_32">
      <g>
       <use style="fill:#262626;stroke:#262626;stroke-width:0.5;" x="365.748224859" xlink:href="#mf44e914ba6" y="274.59"/>
      </g>
     </g>
     <g id="line2d_33">
      <g>
       <use style="fill:#262626;stroke:#262626;stroke-width:0.5;" x="365.748224859" xlink:href="#mf44e914ba6" y="30.51"/>
      </g>
     </g>
    </g>
    <g id="xtick_15">
     <g id="line2d_34">
      <g>
       <use style="fill:#262626;stroke:#262626;stroke-width:0.5;" x="417.061165793" xlink:href="#mf44e914ba6" y="274.59"/>
      </g>
     </g>
     <g id="line2d_35">
      <g>
       <use style="fill:#262626;stroke:#262626;stroke-width:0.5;" x="417.061165793" xlink:href="#mf44e914ba6" y="30.51"/>
      </g>
     </g>
    </g>
    <g id="xtick_16">
     <g id="line2d_36">
      <g>
       <use style="fill:#262626;stroke:#262626;stroke-width:0.5;" x="442.717636261" xlink:href="#mf44e914ba6" y="274.59"/>
      </g>
     </g>
     <g id="line2d_37">
      <g>
       <use style="fill:#262626;stroke:#262626;stroke-width:0.5;" x="442.717636261" xlink:href="#mf44e914ba6" y="30.51"/>
      </g>
     </g>
    </g>
    <g id="xtick_17">
     <g id="line2d_38">
      <g>
       <use style="fill:#262626;stroke:#262626;stroke-width:0.5;" x="468.374106728" xlink:href="#mf44e914ba6" y="274.59"/>
      </g>
     </g>
     <g id="line2d_39">
      <g>
       <use style="fill:#262626;stroke:#262626;stroke-width:0.5;" x="468.374106728" xlink:href="#mf44e914ba6" y="30.51"/>
      </g>
     </g>
    </g>
    <g id="xtick_18">
     <g id="line2d_40">
      <g>
       <use style="fill:#262626;stroke:#262626;stroke-width:0.5;" x="519.687047663" xlink:href="#mf44e914ba6" y="274.59"/>
      </g>
     </g>
     <g id="line2d_41">
      <g>
       <use style="fill:#262626;stroke:#262626;stroke-width:0.5;" x="519.687047663" xlink:href="#mf44e914ba6" y="30.51"/>
      </g>
     </g>
    </g>
    <g id="xtick_19">
     <g id="line2d_42">
      <g>
       <use style="fill:#262626;stroke:#262626;stroke-width:0.5;" x="545.34351813" xlink:href="#mf44e914ba6" y="274.59"/>
      </g>
     </g>
     <g id="line2d_43">
      <g>
       <use style="fill:#262626;stroke:#262626;stroke-width:0.5;" x="545.34351813" xlink:href="#mf44e914ba6" y="30.51"/>
      </g>
     </g>
    </g>
    <g id="xtick_20">
     <g id="line2d_44">
      <g>
       <use style="fill:#262626;stroke:#262626;stroke-width:0.5;" x="570.999988598" xlink:href="#mf44e914ba6" y="274.59"/>
      </g>
     </g>
     <g id="line2d_45">
      <g>
       <use style="fill:#262626;stroke:#262626;stroke-width:0.5;" x="570.999988598" xlink:href="#mf44e914ba6" y="30.51"/>
      </g>
     </g>
    </g>
    <g id="xtick_21">
     <g id="line2d_46">
      <g>
       <use style="fill:#262626;stroke:#262626;stroke-width:0.5;" x="622.312929533" xlink:href="#mf44e914ba6" y="274.59"/>
      </g>
     </g>
     <g id="line2d_47">
      <g>
       <use style="fill:#262626;stroke:#262626;stroke-width:0.5;" x="622.312929533" xlink:href="#mf44e914ba6" y="30.51"/>
      </g>
     </g>
    </g>
    <g id="xtick_22">
     <g id="line2d_48">
      <g>
       <use style="fill:#262626;stroke:#262626;stroke-width:0.5;" x="647.9694" xlink:href="#mf44e914ba6" y="274.59"/>
      </g>
     </g>
     <g id="line2d_49">
      <g>
       <use style="fill:#262626;stroke:#262626;stroke-width:0.5;" x="647.9694" xlink:href="#mf44e914ba6" y="30.51"/>
      </g>
     </g>
    </g>
    <g id="text_6">
     <!-- Latency (ms) -->
     <defs>
      <path id="BitstreamVeraSans-Roman-20"/>
      <path d="M 52 44.1875 
Q 55.375 50.25 60.0625 53.125 
Q 64.75 56 71.09375 56 
Q 79.640625 56 84.28125 50.015625 
Q 88.921875 44.046875 88.921875 33.015625 
L 88.921875 0 
L 79.890625 0 
L 79.890625 32.71875 
Q 79.890625 40.578125 77.09375 44.375 
Q 74.3125 48.1875 68.609375 48.1875 
Q 61.625 48.1875 57.5625 43.546875 
Q 53.515625 38.921875 53.515625 30.90625 
L 53.515625 0 
L 44.484375 0 
L 44.484375 32.71875 
Q 44.484375 40.625 41.703125 44.40625 
Q 38.921875 48.1875 33.109375 48.1875 
Q 26.21875 48.1875 22.15625 43.53125 
Q 18.109375 38.875 18.109375 30.90625 
L 18.109375 0 
L 9.078125 0 
L 9.078125 54.6875 
L 18.109375 54.6875 
L 18.109375 46.1875 
Q 21.1875 51.21875 25.484375 53.609375 
Q 29.78125 56 35.6875 56 
Q 41.65625 56 45.828125 52.96875 
Q 50 49.953125 52 44.1875 
" id="BitstreamVeraSans-Roman-6d"/>
      <path d="M 9.8125 72.90625 
L 19.671875 72.90625 
L 19.671875 8.296875 
L 55.171875 8.296875 
L 55.171875 0 
L 9.8125 0 
z
" id="BitstreamVeraSans-Roman-4c"/>
      <path d="M 54.890625 33.015625 
L 54.890625 0 
L 45.90625 0 
L 45.90625 32.71875 
Q 45.90625 40.484375 42.875 44.328125 
Q 39.84375 48.1875 33.796875 48.1875 
Q 26.515625 48.1875 22.3125 43.546875 
Q 18.109375 38.921875 18.109375 30.90625 
L 18.109375 0 
L 9.078125 0 
L 9.078125 54.6875 
L 18.109375 54.6875 
L 18.109375 46.1875 
Q 21.34375 51.125 25.703125 53.5625 
Q 30.078125 56 35.796875 56 
Q 45.21875 56 50.046875 50.171875 
Q 54.890625 44.34375 54.890625 33.015625 
" id="BitstreamVeraSans-Roman-6e"/>
      <path d="M 31 75.875 
Q 24.46875 64.65625 21.28125 53.65625 
Q 18.109375 42.671875 18.109375 31.390625 
Q 18.109375 20.125 21.3125 9.0625 
Q 24.515625 -2 31 -13.1875 
L 23.1875 -13.1875 
Q 15.875 -1.703125 12.234375 9.375 
Q 8.59375 20.453125 8.59375 31.390625 
Q 8.59375 42.28125 12.203125 53.3125 
Q 15.828125 64.359375 23.1875 75.875 
z
" id="BitstreamVeraSans-Roman-28"/>
      <path d="M 8.015625 75.875 
L 15.828125 75.875 
Q 23.140625 64.359375 26.78125 53.3125 
Q 30.421875 42.28125 30.421875 31.390625 
Q 30.421875 20.453125 26.78125 9.375 
Q 23.140625 -1.703125 15.828125 -13.1875 
L 8.015625 -13.1875 
Q 14.5 -2 17.703125 9.0625 
Q 20.90625 20.125 20.90625 31.390625 
Q 20.90625 42.671875 17.703125 53.65625 
Q 14.5 64.65625 8.015625 75.875 
" id="BitstreamVeraSans-Roman-29"/>
      <path d="M 32.171875 -5.078125 
Q 28.375 -14.84375 24.75 -17.8125 
Q 21.140625 -20.796875 15.09375 -20.796875 
L 7.90625 -20.796875 
L 7.90625 -13.28125 
L 13.1875 -13.28125 
Q 16.890625 -13.28125 18.9375 -11.515625 
Q 21 -9.765625 23.484375 -3.21875 
L 25.09375 0.875 
L 2.984375 54.6875 
L 12.5 54.6875 
L 29.59375 11.921875 
L 46.6875 54.6875 
L 56.203125 54.6875 
z
" id="BitstreamVeraSans-Roman-79"/>
      <path d="M 56.203125 29.59375 
L 56.203125 25.203125 
L 14.890625 25.203125 
Q 15.484375 15.921875 20.484375 11.0625 
Q 25.484375 6.203125 34.421875 6.203125 
Q 39.59375 6.203125 44.453125 7.46875 
Q 49.3125 8.734375 54.109375 11.28125 
L 54.109375 2.78125 
Q 49.265625 0.734375 44.1875 -0.34375 
Q 39.109375 -1.421875 33.890625 -1.421875 
Q 20.796875 -1.421875 13.15625 6.1875 
Q 5.515625 13.8125 5.515625 26.8125 
Q 5.515625 40.234375 12.765625 48.109375 
Q 20.015625 56 32.328125 56 
Q 43.359375 56 49.78125 48.890625 
Q 56.203125 41.796875 56.203125 29.59375 
M 47.21875 32.234375 
Q 47.125 39.59375 43.09375 43.984375 
Q 39.0625 48.390625 32.421875 48.390625 
Q 24.90625 48.390625 20.390625 44.140625 
Q 15.875 39.890625 15.1875 32.171875 
z
" id="BitstreamVeraSans-Roman-65"/>
      <path d="M 18.3125 70.21875 
L 18.3125 54.6875 
L 36.8125 54.6875 
L 36.8125 47.703125 
L 18.3125 47.703125 
L 18.3125 18.015625 
Q 18.3125 11.328125 20.140625 9.421875 
Q 21.96875 7.515625 27.59375 7.515625 
L 36.8125 7.515625 
L 36.8125 0 
L 27.59375 0 
Q 17.1875 0 13.234375 3.875 
Q 9.28125 7.765625 9.28125 18.015625 
L 9.28125 47.703125 
L 2.6875 47.703125 
L 2.6875 54.6875 
L 9.28125 54.6875 
L 9.28125 70.21875 
z
" id="BitstreamVeraSans-Roman-74"/>
      <path d="M 34.28125 27.484375 
Q 23.390625 27.484375 19.1875 25 
Q 14.984375 22.515625 14.984375 16.5 
Q 14.984375 11.71875 18.140625 8.90625 
Q 21.296875 6.109375 26.703125 6.109375 
Q 34.1875 6.109375 38.703125 11.40625 
Q 43.21875 16.703125 43.21875 25.484375 
L 43.21875 27.484375 
z
M 52.203125 31.203125 
L 52.203125 0 
L 43.21875 0 
L 43.21875 8.296875 
Q 40.140625 3.328125 35.546875 0.953125 
Q 30.953125 -1.421875 24.3125 -1.421875 
Q 15.921875 -1.421875 10.953125 3.296875 
Q 6 8.015625 6 15.921875 
Q 6 25.140625 12.171875 29.828125 
Q 18.359375 34.515625 30.609375 34.515625 
L 43.21875 34.515625 
L 43.21875 35.40625 
Q 43.21875 41.609375 39.140625 45 
Q 35.0625 48.390625 27.6875 48.390625 
Q 23 48.390625 18.546875 47.265625 
Q 14.109375 46.140625 10.015625 43.890625 
L 10.015625 52.203125 
Q 14.9375 54.109375 19.578125 55.046875 
Q 24.21875 56 28.609375 56 
Q 40.484375 56 46.34375 49.84375 
Q 52.203125 43.703125 52.203125 31.203125 
" id="BitstreamVeraSans-Roman-61"/>
      <path d="M 44.28125 53.078125 
L 44.28125 44.578125 
Q 40.484375 46.53125 36.375 47.5 
Q 32.28125 48.484375 27.875 48.484375 
Q 21.1875 48.484375 17.84375 46.4375 
Q 14.5 44.390625 14.5 40.28125 
Q 14.5 37.15625 16.890625 35.375 
Q 19.28125 33.59375 26.515625 31.984375 
L 29.59375 31.296875 
Q 39.15625 29.25 43.1875 25.515625 
Q 47.21875 21.78125 47.21875 15.09375 
Q 47.21875 7.46875 41.1875 3.015625 
Q 35.15625 -1.421875 24.609375 -1.421875 
Q 20.21875 -1.421875 15.453125 -0.5625 
Q 10.6875 0.296875 5.421875 2 
L 5.421875 11.28125 
Q 10.40625 8.6875 15.234375 7.390625 
Q 20.0625 6.109375 24.8125 6.109375 
Q 31.15625 6.109375 34.5625 8.28125 
Q 37.984375 10.453125 37.984375 14.40625 
Q 37.984375 18.0625 35.515625 20.015625 
Q 33.0625 21.96875 24.703125 23.78125 
L 21.578125 24.515625 
Q 13.234375 26.265625 9.515625 29.90625 
Q 5.8125 33.546875 5.8125 39.890625 
Q 5.8125 47.609375 11.28125 51.796875 
Q 16.75 56 26.8125 56 
Q 31.78125 56 36.171875 55.265625 
Q 40.578125 54.546875 44.28125 53.078125 
" id="BitstreamVeraSans-Roman-73"/>
      <path d="M 48.78125 52.59375 
L 48.78125 44.1875 
Q 44.96875 46.296875 41.140625 47.34375 
Q 37.3125 48.390625 33.40625 48.390625 
Q 24.65625 48.390625 19.8125 42.84375 
Q 14.984375 37.3125 14.984375 27.296875 
Q 14.984375 17.28125 19.8125 11.734375 
Q 24.65625 6.203125 33.40625 6.203125 
Q 37.3125 6.203125 41.140625 7.25 
Q 44.96875 8.296875 48.78125 10.40625 
L 48.78125 2.09375 
Q 45.015625 0.34375 40.984375 -0.53125 
Q 36.96875 -1.421875 32.421875 -1.421875 
Q 20.0625 -1.421875 12.78125 6.34375 
Q 5.515625 14.109375 5.515625 27.296875 
Q 5.515625 40.671875 12.859375 48.328125 
Q 20.21875 56 33.015625 56 
Q 37.15625 56 41.109375 55.140625 
Q 45.0625 54.296875 48.78125 52.59375 
" id="BitstreamVeraSans-Roman-63"/>
     </defs>
     <g style="fill:#262626;" transform="translate(336.346575 304.321875)scale(0.12 -0.12)">
      <use xlink:href="#BitstreamVeraSans-Roman-4c"/>
      <use x="55.712890625" xlink:href="#BitstreamVeraSans-Roman-61"/>
      <use x="116.9921875" xlink:href="#BitstreamVeraSans-Roman-74"/>
      <use x="156.201171875" xlink:href="#BitstreamVeraSans-Roman-65"/>
      <use x="217.724609375" xlink:href="#BitstreamVeraSans-Roman-6e"/>
      <use x="281.103515625" xlink:href="#BitstreamVeraSans-Roman-63"/>
      <use x="336.083984375" xlink:href="#BitstreamVeraSans-Roman-79"/>
      <use x="395.263671875" xlink:href="#BitstreamVeraSans-Roman-20"/>
      <use x="427.05078125" xlink:href="#BitstreamVeraSans-Roman-28"/>
      <use x="466.064453125" xlink:href="#BitstreamVeraSans-Roman-6d"/>
      <use x="563.4765625" xlink:href="#BitstreamVeraSans-Roman-73"/>
      <use x="615.576171875" xlink:href="#BitstreamVeraSans-Roman-29"/>
     </g>
    </g>
   </g>
   <g id="matplotlib.axis_2">
    <g id="ytick_1">
     <g id="line2d_50">
      <path clip-path="url(#p4f3fa88831)" d="M 103.275 274.59 
L 647.9694 274.59 
" style="fill:none;stroke:#ffffff;stroke-linecap:round;stroke-width:0.5;"/>
     </g>
     <g id="line2d_51">
      <g>
       <use style="fill:#262626;stroke:#262626;stroke-width:0.5;" x="103.275" xlink:href="#mf44e914ba6" y="274.59"/>
      </g>
     </g>
     <g id="line2d_52">
      <g>
       <use style="fill:#262626;stroke:#262626;stroke-width:0.5;" x="647.9694" xlink:href="#mf44e914ba6" y="274.59"/>
      </g>
     </g>
     <g id="text_7">
      <!-- 0.0 -->
      <defs>
       <path d="M 10.6875 12.40625 
L 21 12.40625 
L 21 0 
L 10.6875 0 
z
" id="BitstreamVeraSans-Roman-2e"/>
      </defs>
      <g style="fill:#262626;" transform="translate(80.19125 277.90125)scale(0.12 -0.12)">
       <use xlink:href="#BitstreamVeraSans-Roman-30"/>
       <use x="63.623046875" xlink:href="#BitstreamVeraSans-Roman-2e"/>
       <use x="95.41015625" xlink:href="#BitstreamVeraSans-Roman-30"/>
      </g>
     </g>
    </g>
    <g id="ytick_2">
     <g id="line2d_53">
      <path clip-path="url(#p4f3fa88831)" d="M 103.275 225.774 
L 647.9694 225.774 
" style="fill:none;stroke:#ffffff;stroke-linecap:round;stroke-width:0.5;"/>
     </g>
     <g id="line2d_54">
      <g>
       <use style="fill:#262626;stroke:#262626;stroke-width:0.5;" x="103.275" xlink:href="#mf44e914ba6" y="225.774"/>
      </g>
     </g>
     <g id="line2d_55">
      <g>
       <use style="fill:#262626;stroke:#262626;stroke-width:0.5;" x="647.9694" xlink:href="#mf44e914ba6" y="225.774"/>
      </g>
     </g>
     <g id="text_8">
      <!-- 0.2 -->
      <g style="fill:#262626;" transform="translate(80.19125 229.08525)scale(0.12 -0.12)">
       <use xlink:href="#BitstreamVeraSans-Roman-30"/>
       <use x="63.623046875" xlink:href="#BitstreamVeraSans-Roman-2e"/>
       <use x="95.41015625" xlink:href="#BitstreamVeraSans-Roman-32"/>
      </g>
     </g>
    </g>
    <g id="ytick_3">
     <g id="line2d_56">
      <path clip-path="url(#p4f3fa88831)" d="M 103.275 176.958 
L 647.9694 176.958 
" style="fill:none;stroke:#ffffff;stroke-linecap:round;stroke-width:0.5;"/>
     </g>
     <g id="line2d_57">
      <g>
       <use style="fill:#262626;stroke:#262626;stroke-width:0.5;" x="103.275" xlink:href="#mf44e914ba6" y="176.958"/>
      </g>
     </g>
     <g id="line2d_58">
      <g>
       <use style="fill:#262626;stroke:#262626;stroke-width:0.5;" x="647.9694" xlink:href="#mf44e914ba6" y="176.958"/>
      </g>
     </g>
     <g id="text_9">
      <!-- 0.4 -->
      <g style="fill:#262626;" transform="translate(80.19125 180.26925)scale(0.12 -0.12)">
       <use xlink:href="#BitstreamVeraSans-Roman-30"/>
       <use x="63.623046875" xlink:href="#BitstreamVeraSans-Roman-2e"/>
       <use x="95.41015625" xlink:href="#BitstreamVeraSans-Roman-34"/>
      </g>
     </g>
    </g>
    <g id="ytick_4">
     <g id="line2d_59">
      <path clip-path="url(#p4f3fa88831)" d="M 103.275 128.142 
L 647.9694 128.142 
" style="fill:none;stroke:#ffffff;stroke-linecap:round;stroke-width:0.5;"/>
     </g>
     <g id="line2d_60">
      <g>
       <use style="fill:#262626;stroke:#262626;stroke-width:0.5;" x="103.275" xlink:href="#mf44e914ba6" y="128.142"/>
      </g>
     </g>
     <g id="line2d_61">
      <g>
       <use style="fill:#262626;stroke:#262626;stroke-width:0.5;" x="647.9694" xlink:href="#mf44e914ba6" y="128.142"/>
      </g>
     </g>
     <g id="text_10">
      <!-- 0.6 -->
      <g style="fill:#262626;" transform="translate(80.19125 131.45325)scale(0.12 -0.12)">
       <use xlink:href="#BitstreamVeraSans-Roman-30"/>
       <use x="63.623046875" xlink:href="#BitstreamVeraSans-Roman-2e"/>
       <use x="95.41015625" xlink:href="#BitstreamVeraSans-Roman-36"/>
      </g>
     </g>
    </g>
    <g id="ytick_5">
     <g id="line2d_62">
      <path clip-path="url(#p4f3fa88831)" d="M 103.275 79.326 
L 647.9694 79.326 
" style="fill:none;stroke:#ffffff;stroke-linecap:round;stroke-width:0.5;"/>
     </g>
     <g id="line2d_63">
      <g>
       <use style="fill:#262626;stroke:#262626;stroke-width:0.5;" x="103.275" xlink:href="#mf44e914ba6" y="79.326"/>
      </g>
     </g>
     <g id="line2d_64">
      <g>
       <use style="fill:#262626;stroke:#262626;stroke-width:0.5;" x="647.9694" xlink:href="#mf44e914ba6" y="79.326"/>
      </g>
     </g>
     <g id="text_11">
      <!-- 0.8 -->
      <g style="fill:#262626;" transform="translate(80.19125 82.63725)scale(0.12 -0.12)">
       <use xlink:href="#BitstreamVeraSans-Roman-30"/>
       <use x="63.623046875" xlink:href="#BitstreamVeraSans-Roman-2e"/>
       <use x="95.41015625" xlink:href="#BitstreamVeraSans-Roman-38"/>
      </g>
     </g>
    </g>
    <g id="ytick_6">
     <g id="line2d_65">
      <path clip-path="url(#p4f3fa88831)" d="M 103.275 30.51 
L 647.9694 30.51 
" style="fill:none;stroke:#ffffff;stroke-linecap:round;stroke-width:0.5;"/>
     </g>
     <g id="line2d_66">
      <g>
       <use style="fill:#262626;stroke:#262626;stroke-width:0.5;" x="103.275" xlink:href="#mf44e914ba6" y="30.51"/>
      </g>
     </g>
     <g id="line2d_67">
      <g>
       <use style="fill:#262626;stroke:#262626;stroke-width:0.5;" x="647.9694" xlink:href="#mf44e914ba6" y="30.51"/>
      </g>
     </g>
     <g id="text_12">
      <!-- 1.0 -->
      <g style="fill:#262626;" transform="translate(80.19125 33.82125)scale(0.12 -0.12)">
       <use xlink:href="#BitstreamVeraSans-Roman-31"/>
       <use x="63.623046875" xlink:href="#BitstreamVeraSans-Roman-2e"/>
       <use x="95.41015625" xlink:href="#BitstreamVeraSans-Roman-30"/>
      </g>
     </g>
    </g>
    <g id="ytick_7">
     <g id="line2d_68">
      <g>
       <use style="fill:#262626;stroke:#262626;stroke-width:0.5;" x="103.275" xlink:href="#mf44e914ba6" y="262.386"/>
      </g>
     </g>
     <g id="line2d_69">
      <g>
       <use style="fill:#262626;stroke:#262626;stroke-width:0.5;" x="647.9694" xlink:href="#mf44e914ba6" y="262.386"/>
      </g>
     </g>
    </g>
    <g id="ytick_8">
     <g id="line2d_70">
      <g>
       <use style="fill:#262626;stroke:#262626;stroke-width:0.5;" x="103.275" xlink:href="#mf44e914ba6" y="250.182"/>
      </g>
     </g>
     <g id="line2d_71">
      <g>
       <use style="fill:#262626;stroke:#262626;stroke-width:0.5;" x="647.9694" xlink:href="#mf44e914ba6" y="250.182"/>
      </g>
     </g>
    </g>
    <g id="ytick_9">
     <g id="line2d_72">
      <g>
       <use style="fill:#262626;stroke:#262626;stroke-width:0.5;" x="103.275" xlink:href="#mf44e914ba6" y="237.978"/>
      </g>
     </g>
     <g id="line2d_73">
      <g>
       <use style="fill:#262626;stroke:#262626;stroke-width:0.5;" x="647.9694" xlink:href="#mf44e914ba6" y="237.978"/>
      </g>
     </g>
    </g>
    <g id="ytick_10">
     <g id="line2d_74">
      <g>
       <use style="fill:#262626;stroke:#262626;stroke-width:0.5;" x="103.275" xlink:href="#mf44e914ba6" y="213.57"/>
      </g>
     </g>
     <g id="line2d_75">
      <g>
       <use style="fill:#262626;stroke:#262626;stroke-width:0.5;" x="647.9694" xlink:href="#mf44e914ba6" y="213.57"/>
      </g>
     </g>
    </g>
    <g id="ytick_11">
     <g id="line2d_76">
      <g>
       <use style="fill:#262626;stroke:#262626;stroke-width:0.5;" x="103.275" xlink:href="#mf44e914ba6" y="201.366"/>
      </g>
     </g>
     <g id="line2d_77">
      <g>
       <use style="fill:#262626;stroke:#262626;stroke-width:0.5;" x="647.9694" xlink:href="#mf44e914ba6" y="201.366"/>
      </g>
     </g>
    </g>
    <g id="ytick_12">
     <g id="line2d_78">
      <g>
       <use style="fill:#262626;stroke:#262626;stroke-width:0.5;" x="103.275" xlink:href="#mf44e914ba6" y="189.162"/>
      </g>
     </g>
     <g id="line2d_79">
      <g>
       <use style="fill:#262626;stroke:#262626;stroke-width:0.5;" x="647.9694" xlink:href="#mf44e914ba6" y="189.162"/>
      </g>
     </g>
    </g>
    <g id="ytick_13">
     <g id="line2d_80">
      <g>
       <use style="fill:#262626;stroke:#262626;stroke-width:0.5;" x="103.275" xlink:href="#mf44e914ba6" y="164.754"/>
      </g>
     </g>
     <g id="line2d_81">
      <g>
       <use style="fill:#262626;stroke:#262626;stroke-width:0.5;" x="647.9694" xlink:href="#mf44e914ba6" y="164.754"/>
      </g>
     </g>
    </g>
    <g id="ytick_14">
     <g id="line2d_82">
      <g>
       <use style="fill:#262626;stroke:#262626;stroke-width:0.5;" x="103.275" xlink:href="#mf44e914ba6" y="152.55"/>
      </g>
     </g>
     <g id="line2d_83">
      <g>
       <use style="fill:#262626;stroke:#262626;stroke-width:0.5;" x="647.9694" xlink:href="#mf44e914ba6" y="152.55"/>
      </g>
     </g>
    </g>
    <g id="ytick_15">
     <g id="line2d_84">
      <g>
       <use style="fill:#262626;stroke:#262626;stroke-width:0.5;" x="103.275" xlink:href="#mf44e914ba6" y="140.346"/>
      </g>
     </g>
     <g id="line2d_85">
      <g>
       <use style="fill:#262626;stroke:#262626;stroke-width:0.5;" x="647.9694" xlink:href="#mf44e914ba6" y="140.346"/>
      </g>
     </g>
    </g>
    <g id="ytick_16">
     <g id="line2d_86">
      <g>
       <use style="fill:#262626;stroke:#262626;stroke-width:0.5;" x="103.275" xlink:href="#mf44e914ba6" y="115.938"/>
      </g>
     </g>
     <g id="line2d_87">
      <g>
       <use style="fill:#262626;stroke:#262626;stroke-width:0.5;" x="647.9694" xlink:href="#mf44e914ba6" y="115.938"/>
      </g>
     </g>
    </g>
    <g id="ytick_17">
     <g id="line2d_88">
      <g>
       <use style="fill:#262626;stroke:#262626;stroke-width:0.5;" x="103.275" xlink:href="#mf44e914ba6" y="103.734"/>
      </g>
     </g>
     <g id="line2d_89">
      <g>
       <use style="fill:#262626;stroke:#262626;stroke-width:0.5;" x="647.9694" xlink:href="#mf44e914ba6" y="103.734"/>
      </g>
     </g>
    </g>
    <g id="ytick_18">
     <g id="line2d_90">
      <g>
       <use style="fill:#262626;stroke:#262626;stroke-width:0.5;" x="103.275" xlink:href="#mf44e914ba6" y="91.53"/>
      </g>
     </g>
     <g id="line2d_91">
      <g>
       <use style="fill:#262626;stroke:#262626;stroke-width:0.5;" x="647.9694" xlink:href="#mf44e914ba6" y="91.53"/>
      </g>
     </g>
    </g>
    <g id="ytick_19">
     <g id="line2d_92">
      <g>
       <use style="fill:#262626;stroke:#262626;stroke-width:0.5;" x="103.275" xlink:href="#mf44e914ba6" y="67.122"/>
      </g>
     </g>
     <g id="line2d_93">
      <g>
       <use style="fill:#262626;stroke:#262626;stroke-width:0.5;" x="647.9694" xlink:href="#mf44e914ba6" y="67.122"/>
      </g>
     </g>
    </g>
    <g id="ytick_20">
     <g id="line2d_94">
      <g>
       <use style="fill:#262626;stroke:#262626;stroke-width:0.5;" x="103.275" xlink:href="#mf44e914ba6" y="54.918"/>
      </g>
     </g>
     <g id="line2d_95">
      <g>
       <use style="fill:#262626;stroke:#262626;stroke-width:0.5;" x="647.9694" xlink:href="#mf44e914ba6" y="54.918"/>
      </g>
     </g>
    </g>
    <g id="ytick_21">
     <g id="line2d_96">
      <g>
       <use style="fill:#262626;stroke:#262626;stroke-width:0.5;" x="103.275" xlink:href="#mf44e914ba6" y="42.714"/>
      </g>
     </g>
     <g id="line2d_97">
      <g>
       <use style="fill:#262626;stroke:#262626;stroke-width:0.5;" x="647.9694" xlink:href="#mf44e914ba6" y="42.714"/>
      </g>
     </g>
    </g>
    <g id="text_13">
     <!-- Cumulative probability -->
     <defs>
      <path d="M 30.609375 48.390625 
Q 23.390625 48.390625 19.1875 42.75 
Q 14.984375 37.109375 14.984375 27.296875 
Q 14.984375 17.484375 19.15625 11.84375 
Q 23.34375 6.203125 30.609375 6.203125 
Q 37.796875 6.203125 41.984375 11.859375 
Q 46.1875 17.53125 46.1875 27.296875 
Q 46.1875 37.015625 41.984375 42.703125 
Q 37.796875 48.390625 30.609375 48.390625 
M 30.609375 56 
Q 42.328125 56 49.015625 48.375 
Q 55.71875 40.765625 55.71875 27.296875 
Q 55.71875 13.875 49.015625 6.21875 
Q 42.328125 -1.421875 30.609375 -1.421875 
Q 18.84375 -1.421875 12.171875 6.21875 
Q 5.515625 13.875 5.515625 27.296875 
Q 5.515625 40.765625 12.171875 48.375 
Q 18.84375 56 30.609375 56 
" id="BitstreamVeraSans-Roman-6f"/>
      <path d="M 9.421875 75.984375 
L 18.40625 75.984375 
L 18.40625 0 
L 9.421875 0 
z
" id="BitstreamVeraSans-Roman-6c"/>
      <path d="M 9.421875 54.6875 
L 18.40625 54.6875 
L 18.40625 0 
L 9.421875 0 
z
M 9.421875 75.984375 
L 18.40625 75.984375 
L 18.40625 64.59375 
L 9.421875 64.59375 
z
" id="BitstreamVeraSans-Roman-69"/>
      <path d="M 2.984375 54.6875 
L 12.5 54.6875 
L 29.59375 8.796875 
L 46.6875 54.6875 
L 56.203125 54.6875 
L 35.6875 0 
L 23.484375 0 
z
" id="BitstreamVeraSans-Roman-76"/>
      <path d="M 64.40625 67.28125 
L 64.40625 56.890625 
Q 59.421875 61.53125 53.78125 63.8125 
Q 48.140625 66.109375 41.796875 66.109375 
Q 29.296875 66.109375 22.65625 58.46875 
Q 16.015625 50.828125 16.015625 36.375 
Q 16.015625 21.96875 22.65625 14.328125 
Q 29.296875 6.6875 41.796875 6.6875 
Q 48.140625 6.6875 53.78125 8.984375 
Q 59.421875 11.28125 64.40625 15.921875 
L 64.40625 5.609375 
Q 59.234375 2.09375 53.4375 0.328125 
Q 47.65625 -1.421875 41.21875 -1.421875 
Q 24.65625 -1.421875 15.125 8.703125 
Q 5.609375 18.84375 5.609375 36.375 
Q 5.609375 53.953125 15.125 64.078125 
Q 24.65625 74.21875 41.21875 74.21875 
Q 47.75 74.21875 53.53125 72.484375 
Q 59.328125 70.75 64.40625 67.28125 
" id="BitstreamVeraSans-Roman-43"/>
      <path d="M 8.5 21.578125 
L 8.5 54.6875 
L 17.484375 54.6875 
L 17.484375 21.921875 
Q 17.484375 14.15625 20.5 10.265625 
Q 23.53125 6.390625 29.59375 6.390625 
Q 36.859375 6.390625 41.078125 11.03125 
Q 45.3125 15.671875 45.3125 23.6875 
L 45.3125 54.6875 
L 54.296875 54.6875 
L 54.296875 0 
L 45.3125 0 
L 45.3125 8.40625 
Q 42.046875 3.421875 37.71875 1 
Q 33.40625 -1.421875 27.6875 -1.421875 
Q 18.265625 -1.421875 13.375 4.4375 
Q 8.5 10.296875 8.5 21.578125 
" id="BitstreamVeraSans-Roman-75"/>
      <path d="M 41.109375 46.296875 
Q 39.59375 47.171875 37.8125 47.578125 
Q 36.03125 48 33.890625 48 
Q 26.265625 48 22.1875 43.046875 
Q 18.109375 38.09375 18.109375 28.8125 
L 18.109375 0 
L 9.078125 0 
L 9.078125 54.6875 
L 18.109375 54.6875 
L 18.109375 46.1875 
Q 20.953125 51.171875 25.484375 53.578125 
Q 30.03125 56 36.53125 56 
Q 37.453125 56 38.578125 55.875 
Q 39.703125 55.765625 41.0625 55.515625 
z
" id="BitstreamVeraSans-Roman-72"/>
      <path d="M 18.109375 8.203125 
L 18.109375 -20.796875 
L 9.078125 -20.796875 
L 9.078125 54.6875 
L 18.109375 54.6875 
L 18.109375 46.390625 
Q 20.953125 51.265625 25.265625 53.625 
Q 29.59375 56 35.59375 56 
Q 45.5625 56 51.78125 48.09375 
Q 58.015625 40.1875 58.015625 27.296875 
Q 58.015625 14.40625 51.78125 6.484375 
Q 45.5625 -1.421875 35.59375 -1.421875 
Q 29.59375 -1.421875 25.265625 0.953125 
Q 20.953125 3.328125 18.109375 8.203125 
M 48.6875 27.296875 
Q 48.6875 37.203125 44.609375 42.84375 
Q 40.53125 48.484375 33.40625 48.484375 
Q 26.265625 48.484375 22.1875 42.84375 
Q 18.109375 37.203125 18.109375 27.296875 
Q 18.109375 17.390625 22.1875 11.75 
Q 26.265625 6.109375 33.40625 6.109375 
Q 40.53125 6.109375 44.609375 11.75 
Q 48.6875 17.390625 48.6875 27.296875 
" id="BitstreamVeraSans-Roman-70"/>
      <path d="M 48.6875 27.296875 
Q 48.6875 37.203125 44.609375 42.84375 
Q 40.53125 48.484375 33.40625 48.484375 
Q 26.265625 48.484375 22.1875 42.84375 
Q 18.109375 37.203125 18.109375 27.296875 
Q 18.109375 17.390625 22.1875 11.75 
Q 26.265625 6.109375 33.40625 6.109375 
Q 40.53125 6.109375 44.609375 11.75 
Q 48.6875 17.390625 48.6875 27.296875 
M 18.109375 46.390625 
Q 20.953125 51.265625 25.265625 53.625 
Q 29.59375 56 35.59375 56 
Q 45.5625 56 51.78125 48.09375 
Q 58.015625 40.1875 58.015625 27.296875 
Q 58.015625 14.40625 51.78125 6.484375 
Q 45.5625 -1.421875 35.59375 -1.421875 
Q 29.59375 -1.421875 25.265625 0.953125 
Q 20.953125 3.328125 18.109375 8.203125 
L 18.109375 0 
L 9.078125 0 
L 9.078125 75.984375 
L 18.109375 75.984375 
z
" id="BitstreamVeraSans-Roman-62"/>
     </defs>
     <g style="fill:#262626;" transform="translate(72.695625 220.8459375)rotate(-90.0)scale(0.12 -0.12)">
      <use xlink:href="#BitstreamVeraSans-Roman-43"/>
      <use x="69.82421875" xlink:href="#BitstreamVeraSans-Roman-75"/>
      <use x="133.203125" xlink:href="#BitstreamVeraSans-Roman-6d"/>
      <use x="230.615234375" xlink:href="#BitstreamVeraSans-Roman-75"/>
      <use x="293.994140625" xlink:href="#BitstreamVeraSans-Roman-6c"/>
      <use x="321.77734375" xlink:href="#BitstreamVeraSans-Roman-61"/>
      <use x="383.056640625" xlink:href="#BitstreamVeraSans-Roman-74"/>
      <use x="422.265625" xlink:href="#BitstreamVeraSans-Roman-69"/>
      <use x="450.048828125" xlink:href="#BitstreamVeraSans-Roman-76"/>
      <use x="509.228515625" xlink:href="#BitstreamVeraSans-Roman-65"/>
      <use x="570.751953125" xlink:href="#BitstreamVeraSans-Roman-20"/>
      <use x="602.5390625" xlink:href="#BitstreamVeraSans-Roman-70"/>
      <use x="666.015625" xlink:href="#BitstreamVeraSans-Roman-72"/>
      <use x="707.09765625" xlink:href="#BitstreamVeraSans-Roman-6f"/>
      <use x="768.279296875" xlink:href="#BitstreamVeraSans-Roman-62"/>
      <use x="831.755859375" xlink:href="#BitstreamVeraSans-Roman-61"/>
      <use x="893.03515625" xlink:href="#BitstreamVeraSans-Roman-62"/>
      <use x="956.51171875" xlink:href="#BitstreamVeraSans-Roman-69"/>
      <use x="984.294921875" xlink:href="#BitstreamVeraSans-Roman-6c"/>
      <use x="1012.078125" xlink:href="#BitstreamVeraSans-Roman-69"/>
      <use x="1039.86132812" xlink:href="#BitstreamVeraSans-Roman-74"/>
      <use x="1079.0703125" xlink:href="#BitstreamVeraSans-Roman-79"/>
     </g>
    </g>
   </g>
   <g id="line2d_98">
    <path clip-path="url(#p4f3fa88831)" d="M 117.262142 274.59 
L 117.384851 274.3866 
L 117.630268 274.3866 
L 117.752977 274.1832 
L 118.36652 274.1832 
L 118.489229 273.9798 
L 120.084442 273.9798 
L 120.207151 273.7764 
L 121.066112 273.7764 
L 121.311529 273.3696 
L 121.802364 273.3696 
L 121.925073 273.1662 
L 122.17049 273.1662 
L 122.293199 272.9628 
L 122.784034 272.9628 
L 122.906743 272.7594 
L 123.15216 272.7594 
L 123.397577 272.3526 
L 123.765703 272.3526 
L 124.13383 271.9458 
L 124.379247 271.9458 
L 124.624664 270.9288 
L 125.483625 269.7084 
L 125.729043 269.7084 
L 125.851752 269.3016 
L 125.97446 269.3016 
L 126.588004 268.0812 
L 126.710712 267.6744 
L 126.833421 267.6744 
L 126.95613 267.471 
L 127.201547 267.471 
L 128.060508 266.0472 
L 128.305926 266.0472 
L 128.674052 265.2336 
L 128.796761 264.8268 
L 129.410304 264.8268 
L 129.533013 264.42 
L 129.655721 264.42 
L 130.391974 263.1996 
L 130.637391 262.1826 
L 131.005517 261.369 
L 131.128226 260.352 
L 131.250935 260.352 
L 131.496352 259.5384 
L 131.864478 257.0976 
L 131.987187 257.0976 
L 132.232604 256.4874 
L 133.091565 254.8602 
L 133.336983 253.233 
L 133.459691 252.8262 
L 133.5824 252.8262 
L 134.073235 250.7922 
L 134.318652 250.3854 
L 134.56407 248.9616 
L 134.809487 247.5378 
L 135.177613 246.114 
L 135.423031 246.114 
L 135.913866 245.5038 
L 136.527409 241.8426 
L 136.650118 241.8426 
L 137.018244 240.4188 
L 137.140953 240.4188 
L 137.509079 239.6052 
L 137.877205 237.3678 
L 138.122622 236.1474 
L 138.36804 235.5372 
L 138.613457 234.3168 
L 138.858875 233.7066 
L 139.227001 230.6556 
L 139.472418 229.4352 
L 139.595127 229.0284 
L 139.963253 226.1808 
L 140.085962 225.9774 
L 140.331379 224.3502 
L 140.822214 221.706 
L 140.944923 221.2992 
L 141.313049 218.655 
L 141.435757 218.4516 
L 141.803884 216.621 
L 142.049301 214.1802 
L 142.417427 212.7564 
L 142.662845 209.502 
L 142.908262 208.2816 
L 143.153679 207.468 
L 143.399097 206.2476 
L 143.521806 206.0442 
L 144.258058 202.383 
L 144.380766 202.383 
L 144.99431 197.7048 
L 145.117019 197.7048 
L 145.362436 196.4844 
L 145.485145 196.0776 
L 145.730562 194.0436 
L 145.97598 193.0266 
L 146.221397 192.0096 
L 146.344106 191.3994 
L 147.448484 181.2294 
L 147.939319 179.3988 
L 148.307445 177.7716 
L 148.79828 173.2968 
L 149.166406 170.856 
L 149.411824 168.6186 
L 149.902658 165.9744 
L 150.638911 160.4826 
L 151.252454 157.8384 
L 151.497872 157.2282 
L 151.62058 156.8214 
L 152.111415 153.567 
L 152.479541 151.3296 
L 152.847667 147.6684 
L 153.338502 145.8378 
L 153.829337 142.38 
L 154.074754 141.7698 
L 154.197463 141.363 
L 154.320172 141.363 
L 154.442881 141.1596 
L 155.179133 137.9052 
L 155.301841 137.4984 
L 155.42455 137.4984 
L 155.915385 133.8372 
L 156.283511 132.4134 
L 156.528929 130.5828 
L 156.774346 129.5658 
L 157.019763 127.3284 
L 157.265181 125.091 
L 157.510598 123.6672 
L 157.633307 122.8536 
L 157.878724 120.4128 
L 158.001433 119.8026 
L 158.124142 119.8026 
L 158.983103 115.1244 
L 159.351229 112.887 
L 159.719355 110.6496 
L 159.842064 110.6496 
L 160.087481 109.6326 
L 160.455607 107.802 
L 161.069151 105.768 
L 161.314568 104.5476 
L 161.682694 103.1238 
L 162.296238 100.4796 
L 162.418947 100.0728 
L 162.541655 100.0728 
L 162.787073 98.4456 
L 163.400616 96.615 
L 163.646034 95.1912 
L 164.01416 94.3776 
L 164.259577 93.7674 
L 164.382286 93.7674 
L 164.627703 92.1402 
L 164.750412 91.7334 
L 164.873121 91.7334 
L 164.995829 90.7164 
L 165.118538 90.7164 
L 165.732082 87.8688 
L 165.85479 87.8688 
L 165.977499 87.2586 
L 166.100208 87.2586 
L 166.222917 86.6484 
L 166.345625 86.6484 
L 166.468334 86.445 
L 166.83646 84.411 
L 167.081877 82.7838 
L 167.450004 81.5634 
L 167.572712 81.5634 
L 167.81813 80.5464 
L 168.063547 79.7328 
L 168.308965 79.1226 
L 168.554382 78.5124 
L 168.677091 78.5124 
L 169.167926 76.6818 
L 169.413343 75.4614 
L 170.026886 73.6308 
L 170.149595 73.4274 
L 170.395013 72.4104 
L 171.6221 70.3764 
L 171.867517 69.5628 
L 172.358352 68.7492 
L 172.603769 67.9356 
L 172.726478 67.9356 
L 172.849187 67.7322 
L 173.094604 66.5118 
L 173.217313 66.5118 
L 174.198983 64.6812 
L 174.567109 63.2574 
L 174.935235 63.2574 
L 175.057944 62.8506 
L 175.180652 62.037 
L 175.303361 62.037 
L 175.42607 61.8336 
L 175.794196 60.4098 
L 176.039613 59.5962 
L 176.162322 59.5962 
L 176.775865 57.7656 
L 177.143992 57.7656 
L 178.371079 55.935 
L 178.616496 55.935 
L 178.739205 55.5282 
L 178.984622 55.5282 
L 179.352748 54.918 
L 179.598166 54.918 
L 179.720874 54.5112 
L 180.089001 54.5112 
L 180.457127 54.1044 
L 180.579835 54.1044 
L 180.947961 53.0874 
L 181.07067 52.884 
L 181.316088 52.884 
L 181.561505 52.4772 
L 181.929631 50.85 
L 182.297757 50.85 
L 182.420466 50.4432 
L 182.543175 50.4432 
L 183.03401 49.0194 
L 183.156718 49.0194 
L 183.402136 48.2058 
L 183.524844 48.2058 
L 183.647553 47.799 
L 183.770262 47.799 
L 184.629223 46.3752 
L 184.87464 46.3752 
L 185.733601 45.1548 
L 185.85631 45.1548 
L 187.819649 42.1038 
L 187.942358 42.1038 
L 188.555901 41.2902 
L 188.801319 41.2902 
L 188.924028 41.0868 
L 189.292154 41.0868 
L 189.66028 40.68 
L 190.028406 40.68 
L 190.151115 40.2732 
L 190.273823 40.2732 
L 190.396532 39.8664 
L 190.519241 39.8664 
L 190.641949 39.663 
L 191.255493 39.663 
L 191.378202 39.4596 
L 191.623619 39.4596 
L 191.746328 39.2562 
L 192.359871 39.2562 
L 192.727997 38.8494 
L 193.096124 38.8494 
L 193.46425 38.2392 
L 193.709667 38.2392 
L 193.832376 37.8324 
L 194.200502 37.8324 
L 194.323211 37.629 
L 195.182172 37.629 
L 195.673006 37.0188 
L 196.163841 37.0188 
L 196.531967 36.612 
L 197.022802 36.612 
L 197.26822 35.7984 
L 197.513637 35.7984 
L 197.759055 35.3916 
L 198.004472 35.3916 
L 198.127181 35.1882 
L 198.372598 35.1882 
L 198.495307 34.9848 
L 198.986142 34.9848 
L 199.354268 34.578 
L 200.09052 34.578 
L 200.458646 34.1712 
L 201.931151 34.1712 
L 202.176568 33.7644 
L 202.544694 33.7644 
L 202.91282 32.9508 
L 204.753451 32.9508 
L 204.87616 32.7474 
L 207.330334 32.7474 
L 207.453042 32.544 
L 208.557421 32.544 
L 208.68013 32.3406 
L 213.097643 32.3406 
L 213.220352 32.1372 
L 214.570148 32.1372 
L 214.692856 31.9338 
L 215.060982 31.9338 
L 215.183691 31.7304 
L 216.778904 31.7304 
L 216.901613 31.527 
L 217.392448 31.527 
L 217.515157 31.3236 
L 218.864952 31.3236 
L 218.987661 31.1202 
L 221.319126 31.1202 
L 221.441835 30.9168 
L 235.18521 30.9168 
L 235.307919 30.7134 
L 239.97085 30.7134 
L 240.093559 30.51 
L 240.093559 30.51 
" style="fill:none;stroke:#1b9e77;stroke-linecap:round;"/>
   </g>
   <g id="line2d_99">
    <path clip-path="url(#p4f3fa88831)" d="M 103.275 274.59 
L 103.67802 274.3866 
L 105.693117 274.3866 
L 106.096137 274.1832 
L 109.320293 274.1832 
L 109.723313 273.573 
L 110.126332 273.573 
L 110.529352 273.3696 
L 111.738411 273.3696 
L 112.54445 272.9628 
L 112.947469 272.556 
L 113.350489 272.3526 
L 113.753508 272.3526 
L 114.156528 271.539 
L 114.559547 271.1322 
L 114.962567 270.9288 
L 115.365586 270.522 
L 115.768606 269.9118 
L 116.977665 268.6914 
L 117.380684 268.488 
L 117.783704 267.8778 
L 118.186723 267.6744 
L 118.992762 266.454 
L 119.395782 266.2506 
L 119.798802 265.437 
L 120.201821 265.0302 
L 120.604841 264.2166 
L 121.00786 263.8098 
L 121.41088 262.386 
L 121.813899 261.9792 
L 122.216919 261.9792 
L 123.022958 259.9452 
L 123.425977 259.7418 
L 123.828997 259.335 
L 124.232017 257.7078 
L 124.635036 257.0976 
L 125.441075 255.4704 
L 126.247114 252.8262 
L 126.650134 252.4194 
L 127.053153 250.9956 
L 127.859193 249.165 
L 128.262212 247.9446 
L 129.471271 245.7072 
L 133.098447 232.893 
L 133.501466 232.2828 
L 135.516564 224.3502 
L 136.322603 219.672 
L 136.725623 217.8414 
L 137.128642 215.4006 
L 137.531662 214.3836 
L 137.934681 212.7564 
L 138.337701 209.7054 
L 138.74072 207.8748 
L 139.546759 202.383 
L 139.949779 201.1626 
L 140.352799 199.1286 
L 141.158838 196.4844 
L 141.561857 194.247 
L 142.367896 187.7382 
L 142.770916 186.111 
L 143.173935 183.8736 
L 143.576955 180.6192 
L 143.979974 178.992 
L 144.786014 173.0934 
L 145.592053 170.0424 
L 145.995072 167.1948 
L 146.398092 166.1778 
L 146.801111 163.5336 
L 147.60715 160.0758 
L 148.01017 158.8554 
L 148.816209 154.584 
L 149.219229 152.9568 
L 150.428287 144.8208 
L 150.831307 144.0072 
L 151.234326 142.5834 
L 151.637346 140.346 
L 152.443385 137.7018 
L 153.249424 132.8202 
L 153.652444 131.3964 
L 154.055463 129.159 
L 154.861502 126.108 
L 155.667541 122.4468 
L 156.070561 120.6162 
L 156.473581 120.006 
L 157.682639 114.921 
L 158.488678 112.887 
L 158.891698 111.4632 
L 159.294717 108.819 
L 159.697737 107.1918 
L 161.309815 103.3272 
L 161.712835 102.717 
L 162.115854 101.4966 
L 162.518874 100.8864 
L 162.921893 100.4796 
L 163.324913 99.666 
L 164.130952 97.2252 
L 164.533972 95.1912 
L 164.936991 94.1742 
L 165.74303 91.7334 
L 166.14605 91.53 
L 166.952089 89.2926 
L 167.355108 88.8858 
L 167.758128 87.462 
L 168.161147 85.428 
L 169.370206 81.36 
L 169.773226 80.9532 
L 170.176245 80.343 
L 170.579265 79.1226 
L 171.385304 78.309 
L 171.788323 77.6988 
L 172.191343 76.6818 
L 172.594362 76.0716 
L 173.803421 73.224 
L 174.206441 73.0206 
L 174.60946 72.207 
L 175.01248 71.8002 
L 175.818519 70.5798 
L 177.027578 67.9356 
L 177.833617 66.105 
L 178.236636 65.4948 
L 178.639656 64.6812 
L 179.042675 64.4778 
L 179.445695 63.8676 
L 179.848714 63.4608 
L 180.251734 63.4608 
L 180.654753 63.054 
L 181.057773 62.8506 
L 181.460793 62.037 
L 181.863812 60.4098 
L 182.266832 60.2064 
L 182.669851 59.5962 
L 183.072871 59.1894 
L 183.47589 58.5792 
L 184.684949 56.1384 
L 185.087969 55.7316 
L 185.490988 55.1214 
L 185.894008 54.918 
L 186.297027 54.918 
L 186.700047 53.901 
L 187.909105 52.6806 
L 188.312125 52.4772 
L 189.118164 51.2568 
L 189.521184 51.2568 
L 189.924203 50.2398 
L 190.730242 49.833 
L 191.536281 49.833 
L 191.939301 49.2228 
L 192.34232 49.2228 
L 192.74534 48.816 
L 193.14836 48.0024 
L 193.551379 47.799 
L 193.954399 47.3922 
L 194.357418 47.3922 
L 195.163457 46.9854 
L 195.566477 46.5786 
L 195.969496 46.5786 
L 197.178555 45.9684 
L 197.581575 45.3582 
L 198.387614 44.9514 
L 198.790633 44.9514 
L 199.999692 44.3412 
L 201.208751 44.3412 
L 201.61177 44.1378 
L 202.820829 44.1378 
L 203.223848 43.731 
L 204.029887 43.3242 
L 204.835926 43.3242 
L 205.641966 42.5106 
L 206.044985 42.5106 
L 206.448005 42.1038 
L 206.851024 42.1038 
L 207.254044 41.9004 
L 207.657063 41.9004 
L 208.463102 41.4936 
L 209.269141 41.4936 
L 209.672161 41.0868 
L 210.4782 40.68 
L 211.284239 40.68 
L 212.090278 40.2732 
L 212.896317 40.2732 
L 213.299337 40.0698 
L 216.523493 40.0698 
L 216.926513 39.8664 
L 218.538591 39.8664 
L 218.941611 39.663 
L 221.359728 39.663 
L 221.762748 39.2562 
L 222.165767 39.0528 
L 222.568787 39.0528 
L 222.971806 38.8494 
L 224.986904 38.8494 
L 225.389923 38.4426 
L 226.195963 38.4426 
L 226.598982 38.0358 
L 227.002002 38.0358 
L 227.405021 37.629 
L 227.808041 37.629 
L 228.21106 37.4256 
L 228.61408 37.0188 
L 229.017099 36.8154 
L 232.644275 36.8154 
L 233.047295 36.612 
L 233.853334 36.612 
L 234.659373 36.2052 
L 235.062393 35.7984 
L 237.07749 35.7984 
L 237.48051 35.3916 
L 237.883529 35.1882 
L 241.913725 35.1882 
L 242.316745 34.7814 
L 242.719764 34.7814 
L 243.122784 34.578 
L 245.137881 34.578 
L 245.540901 34.3746 
L 247.555999 34.3746 
L 247.959018 34.1712 
L 248.765057 34.1712 
L 249.168077 33.9678 
L 257.228468 33.9678 
L 257.631487 33.7644 
L 258.034507 33.7644 
L 258.437527 33.561 
L 260.452624 33.561 
L 260.855644 33.3576 
L 261.258663 32.9508 
L 264.885839 32.9508 
L 265.288859 32.7474 
L 265.691878 32.7474 
L 266.094898 32.3406 
L 274.155289 32.3406 
L 274.558308 32.1372 
L 278.185484 32.1372 
L 278.588504 31.9338 
L 292.291169 31.9338 
L 292.694188 31.7304 
L 295.918345 31.7304 
L 296.321364 31.527 
L 366.043746 31.527 
L 366.446766 31.3236 
L 413.600053 31.3236 
L 414.003073 31.1202 
L 436.169148 31.1202 
L 436.572167 30.9168 
L 506.294549 30.9168 
L 506.697569 30.7134 
L 506.697569 30.7134 
" style="fill:none;stroke:#d95f02;stroke-linecap:round;"/>
   </g>
   <g id="line2d_100">
    <path clip-path="url(#p4f3fa88831)" d="M 110.078639 274.59 
L 110.222944 274.3866 
L 115.706507 274.3866 
L 115.850811 274.1832 
L 116.860941 274.1832 
L 117.005246 273.9798 
L 117.871072 273.9798 
L 118.015376 273.7764 
L 118.303984 273.7764 
L 118.448289 273.573 
L 118.736897 273.573 
L 119.16981 272.9628 
L 120.17994 272.9628 
L 120.324245 272.556 
L 120.612853 272.556 
L 120.901462 272.1492 
L 121.622983 272.1492 
L 121.767288 271.9458 
L 122.055896 271.9458 
L 122.633113 271.1322 
L 122.777418 271.1322 
L 122.921722 270.7254 
L 123.066026 269.9118 
L 123.498939 269.9118 
L 123.643244 269.7084 
L 123.931852 269.0982 
L 124.076156 269.0982 
L 124.364765 268.6914 
L 124.653374 268.0812 
L 124.941982 268.0812 
L 125.086287 267.6744 
L 125.230591 267.6744 
L 125.519199 267.0642 
L 125.807808 266.6574 
L 125.952112 266.2506 
L 126.096417 266.2506 
L 126.240721 265.8438 
L 126.385025 265.8438 
L 126.673634 265.437 
L 126.817938 264.8268 
L 126.962242 264.8268 
L 127.683764 262.9962 
L 128.405285 261.9792 
L 128.54959 261.369 
L 128.838198 261.369 
L 128.982503 261.1656 
L 129.126807 261.1656 
L 129.415416 260.7588 
L 129.992633 259.335 
L 130.281241 258.9282 
L 130.56985 258.1146 
L 130.714154 258.1146 
L 130.858459 257.301 
L 131.147067 257.301 
L 131.57998 256.284 
L 131.724284 256.0806 
L 132.734414 253.233 
L 133.023023 252.216 
L 133.455936 250.7922 
L 133.60024 250.5888 
L 133.888849 249.7752 
L 134.033153 249.7752 
L 134.177457 249.5718 
L 134.321762 249.165 
L 135.187588 243.6732 
L 135.331892 243.6732 
L 135.764805 242.2494 
L 136.053413 240.012 
L 136.197718 238.995 
L 136.342022 238.7916 
L 137.207848 235.5372 
L 137.352152 235.1304 
L 138.217978 230.859 
L 138.362282 230.6556 
L 138.650891 229.6386 
L 138.795195 229.4352 
L 139.228108 227.6046 
L 139.372412 227.6046 
L 139.805325 225.9774 
L 139.949629 225.774 
L 140.093934 225.3672 
L 140.671151 222.723 
L 140.815455 222.1128 
L 141.104064 220.2822 
L 141.536977 218.655 
L 141.681281 218.655 
L 141.825585 218.2482 
L 142.691411 212.553 
L 143.845846 208.0782 
L 143.99015 207.8748 
L 144.423063 206.451 
L 144.567367 206.2476 
L 145.00028 203.6034 
L 145.288889 202.5864 
L 146.01041 199.5354 
L 146.443323 196.281 
L 146.876236 194.8572 
L 147.164844 193.8402 
L 147.886366 190.3824 
L 148.03067 189.5688 
L 148.174975 189.5688 
L 148.607887 185.9076 
L 149.618018 180.4158 
L 149.762322 180.2124 
L 150.05093 178.1784 
L 150.195235 177.975 
L 150.483843 176.5512 
L 152.504104 165.771 
L 153.225625 162.9234 
L 153.514234 160.8894 
L 153.658538 160.686 
L 153.947147 157.8384 
L 154.091451 157.2282 
L 154.668668 152.9568 
L 155.101581 150.9228 
L 155.39019 149.0922 
L 155.967407 145.431 
L 156.111711 143.8038 
L 156.256015 143.6004 
L 156.544624 142.5834 
L 156.688928 141.363 
L 156.833233 141.1596 
L 157.121841 139.5324 
L 157.41045 137.0916 
L 157.554754 137.0916 
L 157.843363 134.244 
L 158.42058 131.3964 
L 159.286406 125.9046 
L 160.873753 117.3618 
L 161.018057 116.955 
L 161.739579 112.0734 
L 162.172492 110.6496 
L 162.316796 110.0394 
L 162.4611 108.819 
L 162.605405 108.819 
L 163.038317 107.3952 
L 163.759839 104.1408 
L 164.192752 101.7 
L 164.337056 101.4966 
L 164.625665 100.0728 
L 165.058578 99.0558 
L 165.202882 99.0558 
L 165.491491 97.8354 
L 165.780099 96.8184 
L 166.068708 95.1912 
L 166.357316 93.9708 
L 166.645925 93.3606 
L 166.790229 93.1572 
L 167.656055 89.6994 
L 167.800359 89.496 
L 168.088968 88.6824 
L 168.233272 88.6824 
L 168.521881 87.0552 
L 168.810489 85.428 
L 169.099098 84.0042 
L 169.387707 83.5974 
L 169.82062 82.5804 
L 169.964924 82.377 
L 170.253532 80.9532 
L 170.397837 80.7498 
L 170.686445 80.1396 
L 171.119358 77.6988 
L 171.407967 77.0886 
L 171.696575 75.4614 
L 172.562401 72.207 
L 172.706706 72.0036 
L 173.283923 70.3764 
L 173.428227 70.3764 
L 173.572531 70.173 
L 173.716836 70.173 
L 173.86114 69.9696 
L 174.005444 69.3594 
L 174.149749 69.3594 
L 174.726966 67.7322 
L 174.87127 67.7322 
L 175.015574 67.5288 
L 175.592792 66.105 
L 175.8814 65.6982 
L 176.025704 65.6982 
L 176.314313 65.2914 
L 176.602922 65.2914 
L 176.747226 64.4778 
L 176.89153 64.4778 
L 177.180139 64.071 
L 178.190269 61.2234 
L 178.334573 61.2234 
L 178.478878 61.02 
L 178.767486 59.5962 
L 178.91179 58.986 
L 179.200399 58.986 
L 179.344703 58.5792 
L 179.633312 57.3588 
L 179.921921 57.3588 
L 180.066225 57.1554 
L 181.220659 54.1044 
L 181.653572 54.1044 
L 181.797876 53.901 
L 181.942181 53.0874 
L 182.375094 53.0874 
L 182.519398 52.884 
L 182.663702 52.884 
L 182.808007 52.6806 
L 182.952311 52.2738 
L 183.096615 52.2738 
L 183.240919 52.0704 
L 183.529528 50.6466 
L 183.818137 50.6466 
L 184.106745 50.0364 
L 184.395354 49.6296 
L 184.539658 49.6296 
L 184.828267 49.0194 
L 185.116875 48.6126 
L 185.549788 48.6126 
L 185.982701 48.0024 
L 186.127005 48.0024 
L 186.27131 47.799 
L 186.415614 47.3922 
L 186.559918 47.3922 
L 186.848527 46.9854 
L 186.992831 46.9854 
L 187.28144 46.5786 
L 187.714353 46.5786 
L 187.858657 45.9684 
L 188.147266 45.9684 
L 188.435874 45.5616 
L 188.724483 45.5616 
L 188.868787 45.3582 
L 189.013091 45.3582 
L 189.3017 44.5446 
L 189.446004 44.5446 
L 189.590309 44.3412 
L 190.31183 44.3412 
L 190.456134 43.9344 
L 190.744743 43.9344 
L 191.033352 43.5276 
L 191.177656 43.5276 
L 191.466265 42.9174 
L 191.610569 42.9174 
L 191.754873 42.714 
L 192.187786 42.714 
L 192.33209 42.5106 
L 192.476395 42.5106 
L 192.620699 42.3072 
L 192.909308 42.3072 
L 193.34222 41.2902 
L 193.486525 41.0868 
L 193.775133 41.0868 
L 194.352351 39.663 
L 194.929568 39.663 
L 195.073872 39.4596 
L 195.362481 39.4596 
L 195.506785 39.2562 
L 195.651089 39.2562 
L 195.795394 39.0528 
L 195.939698 39.0528 
L 196.372611 38.4426 
L 196.805524 38.4426 
L 196.949828 38.2392 
L 197.238437 38.2392 
L 197.382741 38.0358 
L 198.104262 38.0358 
L 198.248567 37.8324 
L 199.69161 37.8324 
L 199.980218 37.4256 
L 200.557435 37.4256 
L 200.70174 37.2222 
L 201.278957 37.2222 
L 201.567566 36.612 
L 202.289087 36.612 
L 202.433391 36.4086 
L 202.577696 36.4086 
L 202.722 36.2052 
L 202.866304 36.2052 
L 203.010609 35.7984 
L 203.299217 35.7984 
L 203.587826 35.3916 
L 203.73213 35.3916 
L 203.876434 35.1882 
L 204.597956 35.1882 
L 204.886564 34.7814 
L 205.463782 34.7814 
L 205.608086 34.578 
L 205.75239 34.578 
L 205.896695 34.3746 
L 206.185303 34.3746 
L 206.473912 33.561 
L 206.618216 33.3576 
L 207.916955 33.3576 
L 208.061259 33.1542 
L 208.349868 33.1542 
L 208.494172 32.9508 
L 209.359998 32.9508 
L 209.504302 32.7474 
L 209.792911 32.7474 
L 210.081519 32.3406 
L 210.658736 32.3406 
L 210.803041 32.1372 
L 211.235954 32.1372 
L 211.380258 31.9338 
L 216.430908 31.9338 
L 216.575213 31.7304 
L 218.018256 31.7304 
L 218.16256 31.527 
L 221.770168 31.527 
L 221.914472 31.3236 
L 224.079036 31.3236 
L 224.223341 31.1202 
L 232.448686 31.1202 
L 232.59299 30.9168 
L 238.076553 30.9168 
L 238.220858 30.7134 
L 254.382939 30.7134 
L 254.527244 30.51 
L 254.527244 30.51 
" style="fill:none;stroke:#7570b3;stroke-linecap:round;"/>
   </g>
   <g id="line2d_101">
    <path clip-path="url(#p4f3fa88831)" d="M 108.204788 274.59 
L 108.702488 274.3866 
L 110.195589 274.3866 
L 110.693289 274.1832 
L 112.68409 274.1832 
L 113.18179 273.573 
L 113.679491 273.1662 
L 114.674891 273.1662 
L 115.172591 272.7594 
L 115.670292 272.1492 
L 116.167992 272.1492 
L 116.665692 271.9458 
L 117.163392 271.3356 
L 117.661093 270.9288 
L 118.158793 270.3186 
L 118.656493 270.1152 
L 119.154194 269.7084 
L 119.651894 268.6914 
L 120.149594 268.488 
L 120.647294 267.471 
L 121.144995 267.0642 
L 121.642695 265.8438 
L 122.140395 265.6404 
L 122.638095 264.6234 
L 123.135796 264.42 
L 124.131196 262.1826 
L 124.628897 260.1486 
L 125.624297 259.335 
L 126.619698 257.0976 
L 127.117398 255.6738 
L 128.112798 251.6058 
L 129.605899 244.4868 
L 130.103599 242.8596 
L 132.592101 228.0114 
L 133.089801 226.1808 
L 134.085202 218.4516 
L 134.582902 214.9938 
L 135.578302 209.7054 
L 136.573703 206.6544 
L 137.071403 203.4 
L 137.569103 200.9592 
L 138.564504 195.0606 
L 139.559905 190.179 
L 140.057605 188.7552 
L 140.555305 186.5178 
L 141.053005 182.6532 
L 141.550706 181.4328 
L 142.048406 178.3818 
L 144.039207 169.0254 
L 144.536907 165.771 
L 145.034608 164.754 
L 145.532308 160.686 
L 146.030008 158.8554 
L 147.025409 154.1772 
L 147.523109 152.3466 
L 148.518509 146.8548 
L 149.01621 145.8378 
L 149.51391 143.397 
L 150.01161 140.1426 
L 151.007011 135.8712 
L 152.002411 132.6168 
L 152.500112 129.7692 
L 153.495512 126.5148 
L 153.993212 125.2944 
L 155.486313 117.3618 
L 156.979414 111.4632 
L 158.472515 109.0224 
L 158.970215 106.1748 
L 159.467915 104.751 
L 159.965616 102.5136 
L 160.463316 99.4626 
L 160.961016 97.632 
L 161.458716 96.8184 
L 161.956417 94.7844 
L 163.449517 90.7164 
L 163.947218 87.8688 
L 164.444918 87.0552 
L 164.942618 86.6484 
L 165.440319 85.2246 
L 166.435719 83.1906 
L 166.933419 81.5634 
L 167.43112 80.9532 
L 168.42652 78.5124 
L 168.92422 77.9022 
L 170.417321 73.4274 
L 170.915021 72.8172 
L 171.910422 69.7662 
L 172.408122 69.3594 
L 172.905823 68.5458 
L 174.398923 64.4778 
L 174.896624 64.2744 
L 176.389724 61.4268 
L 176.887425 61.02 
L 178.380525 58.7826 
L 178.878226 58.1724 
L 179.375926 56.952 
L 179.873626 56.1384 
L 180.371327 55.935 
L 180.869027 54.7146 
L 181.366727 54.1044 
L 181.864427 53.0874 
L 182.859828 52.2738 
L 183.357528 51.6636 
L 183.855228 51.6636 
L 184.352929 50.85 
L 184.850629 50.4432 
L 185.348329 50.2398 
L 185.84603 49.6296 
L 186.34373 49.2228 
L 186.84143 48.4092 
L 187.33913 48.0024 
L 187.836831 47.1888 
L 188.334531 47.1888 
L 188.832231 46.5786 
L 189.329931 46.1718 
L 189.827632 46.1718 
L 190.325332 45.5616 
L 191.320732 45.1548 
L 191.818433 44.5446 
L 192.316133 44.3412 
L 192.813833 44.3412 
L 193.311534 43.5276 
L 193.809234 43.3242 
L 194.306934 43.3242 
L 194.804634 42.9174 
L 195.302335 42.714 
L 195.800035 42.3072 
L 196.297735 42.3072 
L 198.288536 41.4936 
L 198.786236 41.4936 
L 199.781637 41.0868 
L 200.279337 41.0868 
L 202.270138 40.2732 
L 202.767839 40.2732 
L 203.265539 40.0698 
L 203.763239 40.0698 
L 204.260939 39.8664 
L 206.749441 39.8664 
L 207.247141 39.4596 
L 211.228743 39.4596 
L 211.726443 39.2562 
L 213.219544 39.2562 
L 213.717245 39.0528 
L 214.712645 39.0528 
L 215.210345 38.8494 
L 216.205746 38.8494 
L 216.703446 38.646 
L 220.187348 38.646 
L 220.685048 38.4426 
L 225.164351 38.4426 
L 225.662051 38.2392 
L 228.648253 38.2392 
L 229.643653 37.8324 
L 230.639054 37.8324 
L 231.136754 37.629 
L 231.634454 37.629 
L 232.629855 37.2222 
L 233.625255 37.2222 
L 234.122956 37.0188 
L 236.611457 37.0188 
L 237.109157 36.8154 
L 239.099958 36.8154 
L 240.095359 36.4086 
L 241.58846 36.4086 
L 242.08616 36.2052 
L 242.58386 36.2052 
L 243.579261 35.7984 
L 251.044765 35.7984 
L 251.542465 35.595 
L 254.030966 35.595 
L 254.528667 35.3916 
L 255.524067 35.3916 
L 256.519468 34.9848 
L 259.505669 34.9848 
L 260.003369 34.7814 
L 276.925179 34.7814 
L 277.422879 34.578 
L 279.91138 34.578 
L 280.40908 34.3746 
L 281.404481 34.3746 
L 281.902181 34.1712 
L 293.846988 34.1712 
L 294.344688 33.9678 
L 298.82399 33.9678 
L 299.321691 33.7644 
L 310.768797 33.7644 
L 311.266497 33.561 
L 318.234301 33.561 
L 318.732001 33.3576 
L 321.718203 33.3576 
L 322.215903 33.1542 
L 325.202105 33.1542 
L 325.699805 32.9508 
L 326.695205 32.9508 
L 327.192906 32.7474 
L 328.686007 32.7474 
L 329.183707 32.544 
L 330.676808 32.544 
L 331.174508 32.3406 
L 338.142312 32.3406 
L 338.640012 32.1372 
L 371.98593 32.1372 
L 372.48363 31.9338 
L 373.479031 31.9338 
L 373.976731 31.7304 
L 376.962933 31.7304 
L 377.460633 31.527 
L 449.627172 31.527 
L 450.124872 31.3236 
L 466.051281 31.3236 
L 466.548981 31.1202 
L 527.766114 31.1202 
L 528.263814 30.9168 
L 605.407356 30.9168 
L 605.905056 30.7134 
L 606.900456 30.7134 
L 606.900456 30.7134 
" style="fill:none;stroke:#e7298a;stroke-linecap:round;"/>
   </g>
   <g id="line2d_102">
    <path clip-path="url(#p4f3fa88831)" d="M 111.808665 274.59 
L 112.041694 274.3866 
L 121.12981 274.3866 
L 121.362838 274.1832 
L 126.023411 274.1832 
L 126.256439 273.9798 
L 127.188554 273.9798 
L 127.421582 273.7764 
L 129.285811 273.7764 
L 129.51884 273.573 
L 130.217926 273.573 
L 130.450955 273.3696 
L 130.683983 273.3696 
L 131.15004 272.7594 
L 131.616098 272.7594 
L 132.315183 271.7424 
L 133.247298 270.9288 
L 133.946384 270.9288 
L 134.64547 269.9118 
L 134.878498 268.8948 
L 135.111527 268.6914 
L 136.043641 266.454 
L 136.509699 265.437 
L 136.975756 264.0132 
L 137.441813 262.9962 
L 137.674842 262.386 
L 137.90787 262.386 
L 138.606956 259.7418 
L 139.073013 257.9112 
L 140.005128 254.25 
L 140.238156 252.216 
L 140.471185 251.199 
L 140.704214 250.7922 
L 140.937242 249.9786 
L 141.636328 246.5208 
L 142.335414 240.4188 
L 143.0345 236.7576 
L 143.267528 235.944 
L 143.966614 230.2488 
L 144.6657 225.774 
L 146.2969 210.3156 
L 146.529929 209.0952 
L 147.462043 201.1626 
L 148.161129 194.6538 
L 149.093244 185.9076 
L 149.326272 183.2634 
L 149.559301 182.2464 
L 150.258387 174.5172 
L 150.957473 166.9914 
L 151.190501 165.5676 
L 151.656559 161.703 
L 151.889587 160.4826 
L 154.452902 134.8542 
L 155.151988 128.142 
L 155.385016 126.3114 
L 155.618045 125.4978 
L 156.317131 119.8026 
L 157.948331 110.853 
L 158.647417 104.5476 
L 158.880446 103.1238 
L 159.113474 100.683 
L 159.346503 99.666 
L 159.81256 96.615 
L 160.045589 96.0048 
L 160.278617 94.9878 
L 160.977703 90.7164 
L 161.676789 87.462 
L 162.142846 85.2246 
L 162.608904 82.5804 
L 162.841932 82.377 
L 163.307989 80.7498 
L 163.541018 79.5294 
L 163.774047 77.6988 
L 164.473132 75.6648 
L 164.706161 74.4444 
L 164.93919 73.8342 
L 165.172218 73.8342 
L 165.638276 70.9866 
L 166.104333 67.9356 
L 166.337361 67.122 
L 166.57039 66.7152 
L 167.036447 64.071 
L 167.502504 62.8506 
L 167.968562 61.2234 
L 168.667648 60.2064 
L 168.900676 58.986 
L 170.298848 55.3248 
L 170.531876 54.3078 
L 171.463991 52.4772 
L 171.69702 51.4602 
L 171.930048 51.4602 
L 172.862163 47.799 
L 173.095191 47.5956 
L 173.561249 46.1718 
L 173.794277 45.765 
L 174.027306 45.765 
L 174.493363 45.3582 
L 174.726392 44.3412 
L 176.357592 41.4936 
L 176.823649 41.4936 
L 177.056678 41.2902 
L 177.289706 40.68 
L 177.755764 40.2732 
L 178.454849 40.2732 
L 178.687878 39.8664 
L 178.920907 39.8664 
L 179.153935 39.663 
L 179.386964 39.663 
L 179.619993 39.4596 
L 179.853021 39.4596 
L 180.08605 39.2562 
L 180.319078 39.2562 
L 181.251193 38.4426 
L 181.484221 38.4426 
L 181.71725 38.2392 
L 182.416336 38.2392 
L 182.882393 37.8324 
L 184.979651 37.8324 
L 185.678737 37.2222 
L 187.309937 37.2222 
L 187.542965 36.8154 
L 187.775994 36.8154 
L 188.47508 36.2052 
L 191.737481 36.2052 
L 191.970509 36.0018 
L 192.203538 36.0018 
L 192.669595 35.595 
L 194.999881 35.595 
L 195.23291 35.3916 
L 198.029253 35.3916 
L 198.262282 34.9848 
L 198.49531 34.9848 
L 198.728339 34.578 
L 205.719198 34.578 
L 205.952226 34.3746 
L 206.651312 34.3746 
L 207.117369 33.9678 
L 207.583426 33.9678 
L 207.816455 33.7644 
L 216.904571 33.7644 
L 217.1376 33.561 
L 218.302743 33.561 
L 218.535771 33.3576 
L 219.001829 33.3576 
L 219.234857 33.1542 
L 219.700915 33.1542 
L 219.933943 32.9508 
L 220.866058 32.9508 
L 221.099086 32.7474 
L 223.662401 32.7474 
L 223.89543 32.544 
L 225.992687 32.544 
L 226.225716 32.3406 
L 226.924802 32.3406 
L 227.15783 32.1372 
L 231.119317 32.1372 
L 231.352345 31.9338 
L 238.576232 31.9338 
L 238.809261 31.7304 
L 243.469833 31.7304 
L 243.702862 31.3236 
L 277.258983 31.3236 
L 277.492011 31.1202 
L 286.813156 31.1202 
L 287.046185 30.9168 
L 311.048132 30.9168 
L 311.281161 30.7134 
L 344.837281 30.7134 
L 345.07031 30.51 
L 345.07031 30.51 
" style="fill:none;stroke:#000000;stroke-linecap:round;stroke-width:2.0;"/>
   </g>
   <g id="patch_3">
    <path d="M 103.275 30.51 
L 647.9694 30.51 
" style="fill:none;"/>
   </g>
   <g id="patch_4">
    <path d="M 647.9694 274.59 
L 647.9694 30.51 
" style="fill:none;"/>
   </g>
   <g id="patch_5">
    <path d="M 103.275 274.59 
L 647.9694 274.59 
" style="fill:none;"/>
   </g>
   <g id="patch_6">
    <path d="M 103.275 274.59 
L 103.275 30.51 
" style="fill:none;"/>
   </g>
   <g id="legend_1">
    <g id="text_14">
     <!-- Ping (ms) -->
     <defs>
      <path d="M 19.671875 64.796875 
L 19.671875 37.40625 
L 32.078125 37.40625 
Q 38.96875 37.40625 42.71875 40.96875 
Q 46.484375 44.53125 46.484375 51.125 
Q 46.484375 57.671875 42.71875 61.234375 
Q 38.96875 64.796875 32.078125 64.796875 
z
M 9.8125 72.90625 
L 32.078125 72.90625 
Q 44.34375 72.90625 50.609375 67.359375 
Q 56.890625 61.8125 56.890625 51.125 
Q 56.890625 40.328125 50.609375 34.8125 
Q 44.34375 29.296875 32.078125 29.296875 
L 19.671875 29.296875 
L 19.671875 0 
L 9.8125 0 
z
" id="BitstreamVeraSans-Roman-50"/>
      <path d="M 45.40625 27.984375 
Q 45.40625 37.75 41.375 43.109375 
Q 37.359375 48.484375 30.078125 48.484375 
Q 22.859375 48.484375 18.828125 43.109375 
Q 14.796875 37.75 14.796875 27.984375 
Q 14.796875 18.265625 18.828125 12.890625 
Q 22.859375 7.515625 30.078125 7.515625 
Q 37.359375 7.515625 41.375 12.890625 
Q 45.40625 18.265625 45.40625 27.984375 
M 54.390625 6.78125 
Q 54.390625 -7.171875 48.1875 -13.984375 
Q 42 -20.796875 29.203125 -20.796875 
Q 24.46875 -20.796875 20.265625 -20.09375 
Q 16.0625 -19.390625 12.109375 -17.921875 
L 12.109375 -9.1875 
Q 16.0625 -11.328125 19.921875 -12.34375 
Q 23.78125 -13.375 27.78125 -13.375 
Q 36.625 -13.375 41.015625 -8.765625 
Q 45.40625 -4.15625 45.40625 5.171875 
L 45.40625 9.625 
Q 42.625 4.78125 38.28125 2.390625 
Q 33.9375 0 27.875 0 
Q 17.828125 0 11.671875 7.65625 
Q 5.515625 15.328125 5.515625 27.984375 
Q 5.515625 40.671875 11.671875 48.328125 
Q 17.828125 56 27.875 56 
Q 33.9375 56 38.28125 53.609375 
Q 42.625 51.21875 45.40625 46.390625 
L 45.40625 54.6875 
L 54.390625 54.6875 
z
" id="BitstreamVeraSans-Roman-67"/>
     </defs>
     <g style="fill:#262626;" transform="translate(678.103578 43.626525)scale(0.12 -0.12)">
      <use xlink:href="#BitstreamVeraSans-Roman-50"/>
      <use x="60.271484375" xlink:href="#BitstreamVeraSans-Roman-69"/>
      <use x="88.0546875" xlink:href="#BitstreamVeraSans-Roman-6e"/>
      <use x="151.43359375" xlink:href="#BitstreamVeraSans-Roman-67"/>
      <use x="214.91015625" xlink:href="#BitstreamVeraSans-Roman-20"/>
      <use x="246.697265625" xlink:href="#BitstreamVeraSans-Roman-28"/>
      <use x="285.7109375" xlink:href="#BitstreamVeraSans-Roman-6d"/>
      <use x="383.123046875" xlink:href="#BitstreamVeraSans-Roman-73"/>
      <use x="435.22265625" xlink:href="#BitstreamVeraSans-Roman-29"/>
     </g>
    </g>
    <g id="line2d_103">
     <path d="M 662.861688 55.216948 
L 682.853688 55.216948 
" style="fill:none;stroke:#1b9e77;stroke-linecap:round;"/>
    </g>
    <g id="line2d_104"/>
    <g id="text_15">
     <!-- ICMP server -->
     <defs>
      <path d="M 9.8125 72.90625 
L 24.515625 72.90625 
L 43.109375 23.296875 
L 61.8125 72.90625 
L 76.515625 72.90625 
L 76.515625 0 
L 66.890625 0 
L 66.890625 64.015625 
L 48.09375 14.015625 
L 38.1875 14.015625 
L 19.390625 64.015625 
L 19.390625 0 
L 9.8125 0 
z
" id="BitstreamVeraSans-Roman-4d"/>
      <path d="M 9.8125 72.90625 
L 19.671875 72.90625 
L 19.671875 0 
L 9.8125 0 
z
" id="BitstreamVeraSans-Roman-49"/>
     </defs>
     <g style="fill:#262626;" transform="translate(690.850488 58.715548125)scale(0.09996 -0.09996)">
      <use xlink:href="#BitstreamVeraSans-Roman-49"/>
      <use x="29.4921875" xlink:href="#BitstreamVeraSans-Roman-43"/>
      <use x="99.31640625" xlink:href="#BitstreamVeraSans-Roman-4d"/>
      <use x="185.595703125" xlink:href="#BitstreamVeraSans-Roman-50"/>
      <use x="245.8984375" xlink:href="#BitstreamVeraSans-Roman-20"/>
      <use x="277.685546875" xlink:href="#BitstreamVeraSans-Roman-73"/>
      <use x="329.78515625" xlink:href="#BitstreamVeraSans-Roman-65"/>
      <use x="391.30859375" xlink:href="#BitstreamVeraSans-Roman-72"/>
      <use x="432.421875" xlink:href="#BitstreamVeraSans-Roman-76"/>
      <use x="491.6015625" xlink:href="#BitstreamVeraSans-Roman-65"/>
      <use x="553.125" xlink:href="#BitstreamVeraSans-Roman-72"/>
     </g>
    </g>
    <g id="line2d_105">
     <path d="M 662.861688 69.889202 
L 682.853688 69.889202 
" style="fill:none;stroke:#d95f02;stroke-linecap:round;"/>
    </g>
    <g id="line2d_106"/>
    <g id="text_16">
     <!-- ICMP osx -->
     <defs>
      <path d="M 54.890625 54.6875 
L 35.109375 28.078125 
L 55.90625 0 
L 45.3125 0 
L 29.390625 21.484375 
L 13.484375 0 
L 2.875 0 
L 24.125 28.609375 
L 4.6875 54.6875 
L 15.28125 54.6875 
L 29.78125 35.203125 
L 44.28125 54.6875 
z
" id="BitstreamVeraSans-Roman-78"/>
     </defs>
     <g style="fill:#262626;" transform="translate(690.850488 73.387801875)scale(0.09996 -0.09996)">
      <use xlink:href="#BitstreamVeraSans-Roman-49"/>
      <use x="29.4921875" xlink:href="#BitstreamVeraSans-Roman-43"/>
      <use x="99.31640625" xlink:href="#BitstreamVeraSans-Roman-4d"/>
      <use x="185.595703125" xlink:href="#BitstreamVeraSans-Roman-50"/>
      <use x="245.8984375" xlink:href="#BitstreamVeraSans-Roman-20"/>
      <use x="277.685546875" xlink:href="#BitstreamVeraSans-Roman-6f"/>
      <use x="338.8671875" xlink:href="#BitstreamVeraSans-Roman-73"/>
      <use x="390.966796875" xlink:href="#BitstreamVeraSans-Roman-78"/>
     </g>
    </g>
    <g id="line2d_107">
     <path d="M 662.861688 84.561456 
L 682.853688 84.561456 
" style="fill:none;stroke:#7570b3;stroke-linecap:round;"/>
    </g>
    <g id="line2d_108"/>
    <g id="text_17">
     <!-- ICMP server -->
     <g style="fill:#262626;" transform="translate(690.850488 88.060055625)scale(0.09996 -0.09996)">
      <use xlink:href="#BitstreamVeraSans-Roman-49"/>
      <use x="29.4921875" xlink:href="#BitstreamVeraSans-Roman-43"/>
      <use x="99.31640625" xlink:href="#BitstreamVeraSans-Roman-4d"/>
      <use x="185.595703125" xlink:href="#BitstreamVeraSans-Roman-50"/>
      <use x="245.8984375" xlink:href="#BitstreamVeraSans-Roman-20"/>
      <use x="277.685546875" xlink:href="#BitstreamVeraSans-Roman-73"/>
      <use x="329.78515625" xlink:href="#BitstreamVeraSans-Roman-65"/>
      <use x="391.30859375" xlink:href="#BitstreamVeraSans-Roman-72"/>
      <use x="432.421875" xlink:href="#BitstreamVeraSans-Roman-76"/>
      <use x="491.6015625" xlink:href="#BitstreamVeraSans-Roman-65"/>
      <use x="553.125" xlink:href="#BitstreamVeraSans-Roman-72"/>
     </g>
    </g>
    <g id="line2d_109">
     <path d="M 662.861688 99.233709 
L 682.853688 99.233709 
" style="fill:none;stroke:#e7298a;stroke-linecap:round;"/>
    </g>
    <g id="line2d_110"/>
    <g id="text_18">
     <!-- ICMP osx -->
     <g style="fill:#262626;" transform="translate(690.850488 102.732309375)scale(0.09996 -0.09996)">
      <use xlink:href="#BitstreamVeraSans-Roman-49"/>
      <use x="29.4921875" xlink:href="#BitstreamVeraSans-Roman-43"/>
      <use x="99.31640625" xlink:href="#BitstreamVeraSans-Roman-4d"/>
      <use x="185.595703125" xlink:href="#BitstreamVeraSans-Roman-50"/>
      <use x="245.8984375" xlink:href="#BitstreamVeraSans-Roman-20"/>
      <use x="277.685546875" xlink:href="#BitstreamVeraSans-Roman-6f"/>
      <use x="338.8671875" xlink:href="#BitstreamVeraSans-Roman-73"/>
      <use x="390.966796875" xlink:href="#BitstreamVeraSans-Roman-78"/>
     </g>
    </g>
    <g id="line2d_111">
     <path d="M 662.861688 113.905963 
L 682.853688 113.905963 
" style="fill:none;stroke:#000000;stroke-linecap:round;stroke-width:2.0;"/>
    </g>
    <g id="line2d_112"/>
    <g id="text_19">
     <!-- Avg -->
     <defs>
      <path d="M 34.1875 63.1875 
L 20.796875 26.90625 
L 47.609375 26.90625 
z
M 28.609375 72.90625 
L 39.796875 72.90625 
L 67.578125 0 
L 57.328125 0 
L 50.6875 18.703125 
L 17.828125 18.703125 
L 11.1875 0 
L 0.78125 0 
z
" id="BitstreamVeraSans-Roman-41"/>
     </defs>
     <g style="fill:#262626;" transform="translate(690.850488 117.404563125)scale(0.09996 -0.09996)">
      <use xlink:href="#BitstreamVeraSans-Roman-41"/>
      <use x="68.330078125" xlink:href="#BitstreamVeraSans-Roman-76"/>
      <use x="127.509765625" xlink:href="#BitstreamVeraSans-Roman-67"/>
     </g>
    </g>
   </g>
  </g>
  <g id="text_20">
   <!-- RTT Fair upstream only -->
   <defs>
    <path d="M 9.8125 72.90625 
L 51.703125 72.90625 
L 51.703125 64.59375 
L 19.671875 64.59375 
L 19.671875 43.109375 
L 48.578125 43.109375 
L 48.578125 34.8125 
L 19.671875 34.8125 
L 19.671875 0 
L 9.8125 0 
z
" id="BitstreamVeraSans-Roman-46"/>
    <path d="M 44.390625 34.1875 
Q 47.5625 33.109375 50.5625 29.59375 
Q 53.5625 26.078125 56.59375 19.921875 
L 66.609375 0 
L 56 0 
L 46.6875 18.703125 
Q 43.0625 26.03125 39.671875 28.421875 
Q 36.28125 30.8125 30.421875 30.8125 
L 19.671875 30.8125 
L 19.671875 0 
L 9.8125 0 
L 9.8125 72.90625 
L 32.078125 72.90625 
Q 44.578125 72.90625 50.734375 67.671875 
Q 56.890625 62.453125 56.890625 51.90625 
Q 56.890625 45.015625 53.6875 40.46875 
Q 50.484375 35.9375 44.390625 34.1875 
M 19.671875 64.796875 
L 19.671875 38.921875 
L 32.078125 38.921875 
Q 39.203125 38.921875 42.84375 42.21875 
Q 46.484375 45.515625 46.484375 51.90625 
Q 46.484375 58.296875 42.84375 61.546875 
Q 39.203125 64.796875 32.078125 64.796875 
z
" id="BitstreamVeraSans-Roman-52"/>
    <path d="M -0.296875 72.90625 
L 61.375 72.90625 
L 61.375 64.59375 
L 35.5 64.59375 
L 35.5 0 
L 25.59375 0 
L 25.59375 64.59375 
L -0.296875 64.59375 
z
" id="BitstreamVeraSans-Roman-54"/>
   </defs>
   <g style="fill:#262626;" transform="translate(331.52265625 10.6378125)scale(0.14 -0.14)">
    <use xlink:href="#BitstreamVeraSans-Roman-52"/>
    <use x="69.373046875" xlink:href="#BitstreamVeraSans-Roman-54"/>
    <use x="130.44140625" xlink:href="#BitstreamVeraSans-Roman-54"/>
    <use x="191.525390625" xlink:href="#BitstreamVeraSans-Roman-20"/>
    <use x="223.3125" xlink:href="#BitstreamVeraSans-Roman-46"/>
    <use x="280.69140625" xlink:href="#BitstreamVeraSans-Roman-61"/>
    <use x="341.970703125" xlink:href="#BitstreamVeraSans-Roman-69"/>
    <use x="369.75390625" xlink:href="#BitstreamVeraSans-Roman-72"/>
    <use x="410.8671875" xlink:href="#BitstreamVeraSans-Roman-20"/>
    <use x="442.654296875" xlink:href="#BitstreamVeraSans-Roman-75"/>
    <use x="506.033203125" xlink:href="#BitstreamVeraSans-Roman-70"/>
    <use x="569.509765625" xlink:href="#BitstreamVeraSans-Roman-73"/>
    <use x="621.609375" xlink:href="#BitstreamVeraSans-Roman-74"/>
    <use x="660.818359375" xlink:href="#BitstreamVeraSans-Roman-72"/>
    <use x="701.900390625" xlink:href="#BitstreamVeraSans-Roman-65"/>
    <use x="763.423828125" xlink:href="#BitstreamVeraSans-Roman-61"/>
    <use x="824.703125" xlink:href="#BitstreamVeraSans-Roman-6d"/>
    <use x="922.115234375" xlink:href="#BitstreamVeraSans-Roman-20"/>
    <use x="953.90234375" xlink:href="#BitstreamVeraSans-Roman-6f"/>
    <use x="1015.08398438" xlink:href="#BitstreamVeraSans-Roman-6e"/>
    <use x="1078.46289062" xlink:href="#BitstreamVeraSans-Roman-6c"/>
    <use x="1106.24609375" xlink:href="#BitstreamVeraSans-Roman-79"/>
   </g>
   <!-- Ping CDF plot -->
   <defs>
    <path d="M 19.671875 64.796875 
L 19.671875 8.109375 
L 31.59375 8.109375 
Q 46.6875 8.109375 53.6875 14.9375 
Q 60.6875 21.78125 60.6875 36.53125 
Q 60.6875 51.171875 53.6875 57.984375 
Q 46.6875 64.796875 31.59375 64.796875 
z
M 9.8125 72.90625 
L 30.078125 72.90625 
Q 51.265625 72.90625 61.171875 64.09375 
Q 71.09375 55.28125 71.09375 36.53125 
Q 71.09375 17.671875 61.125 8.828125 
Q 51.171875 0 30.078125 0 
L 9.8125 0 
z
" id="BitstreamVeraSans-Roman-44"/>
   </defs>
   <g style="fill:#262626;" transform="translate(365.8871875 26.31475)scale(0.14 -0.14)">
    <use xlink:href="#BitstreamVeraSans-Roman-50"/>
    <use x="60.271484375" xlink:href="#BitstreamVeraSans-Roman-69"/>
    <use x="88.0546875" xlink:href="#BitstreamVeraSans-Roman-6e"/>
    <use x="151.43359375" xlink:href="#BitstreamVeraSans-Roman-67"/>
    <use x="214.91015625" xlink:href="#BitstreamVeraSans-Roman-20"/>
    <use x="246.697265625" xlink:href="#BitstreamVeraSans-Roman-43"/>
    <use x="316.521484375" xlink:href="#BitstreamVeraSans-Roman-44"/>
    <use x="393.5234375" xlink:href="#BitstreamVeraSans-Roman-46"/>
    <use x="451.04296875" xlink:href="#BitstreamVeraSans-Roman-20"/>
    <use x="482.830078125" xlink:href="#BitstreamVeraSans-Roman-70"/>
    <use x="546.306640625" xlink:href="#BitstreamVeraSans-Roman-6c"/>
    <use x="574.08984375" xlink:href="#BitstreamVeraSans-Roman-6f"/>
    <use x="635.271484375" xlink:href="#BitstreamVeraSans-Roman-74"/>
   </g>
   <!-- c2-ap-to-osx-and-lite -->
   <defs>
    <path d="M 45.40625 46.390625 
L 45.40625 75.984375 
L 54.390625 75.984375 
L 54.390625 0 
L 45.40625 0 
L 45.40625 8.203125 
Q 42.578125 3.328125 38.25 0.953125 
Q 33.9375 -1.421875 27.875 -1.421875 
Q 17.96875 -1.421875 11.734375 6.484375 
Q 5.515625 14.40625 5.515625 27.296875 
Q 5.515625 40.1875 11.734375 48.09375 
Q 17.96875 56 27.875 56 
Q 33.9375 56 38.25 53.625 
Q 42.578125 51.265625 45.40625 46.390625 
M 14.796875 27.296875 
Q 14.796875 17.390625 18.875 11.75 
Q 22.953125 6.109375 30.078125 6.109375 
Q 37.203125 6.109375 41.296875 11.75 
Q 45.40625 17.390625 45.40625 27.296875 
Q 45.40625 37.203125 41.296875 42.84375 
Q 37.203125 48.484375 30.078125 48.484375 
Q 22.953125 48.484375 18.875 42.84375 
Q 14.796875 37.203125 14.796875 27.296875 
" id="BitstreamVeraSans-Roman-64"/>
    <path d="M 4.890625 31.390625 
L 31.203125 31.390625 
L 31.203125 23.390625 
L 4.890625 23.390625 
z
" id="BitstreamVeraSans-Roman-2d"/>
   </defs>
   <g style="fill:#262626;" transform="translate(340.2234375 41.9916875)scale(0.14 -0.14)">
    <use xlink:href="#BitstreamVeraSans-Roman-63"/>
    <use x="54.98046875" xlink:href="#BitstreamVeraSans-Roman-32"/>
    <use x="118.603515625" xlink:href="#BitstreamVeraSans-Roman-2d"/>
    <use x="154.6875" xlink:href="#BitstreamVeraSans-Roman-61"/>
    <use x="215.966796875" xlink:href="#BitstreamVeraSans-Roman-70"/>
    <use x="279.443359375" xlink:href="#BitstreamVeraSans-Roman-2d"/>
    <use x="315.52734375" xlink:href="#BitstreamVeraSans-Roman-74"/>
    <use x="354.736328125" xlink:href="#BitstreamVeraSans-Roman-6f"/>
    <use x="415.93359375" xlink:href="#BitstreamVeraSans-Roman-2d"/>
    <use x="452.033203125" xlink:href="#BitstreamVeraSans-Roman-6f"/>
    <use x="513.21484375" xlink:href="#BitstreamVeraSans-Roman-73"/>
    <use x="565.314453125" xlink:href="#BitstreamVeraSans-Roman-78"/>
    <use x="624.494140625" xlink:href="#BitstreamVeraSans-Roman-2d"/>
    <use x="660.578125" xlink:href="#BitstreamVeraSans-Roman-61"/>
    <use x="721.857421875" xlink:href="#BitstreamVeraSans-Roman-6e"/>
    <use x="785.236328125" xlink:href="#BitstreamVeraSans-Roman-64"/>
    <use x="848.712890625" xlink:href="#BitstreamVeraSans-Roman-2d"/>
    <use x="884.796875" xlink:href="#BitstreamVeraSans-Roman-6c"/>
    <use x="912.580078125" xlink:href="#BitstreamVeraSans-Roman-69"/>
    <use x="940.36328125" xlink:href="#BitstreamVeraSans-Roman-74"/>
    <use x="979.572265625" xlink:href="#BitstreamVeraSans-Roman-65"/>
   </g>
  </g>
  <g id="text_21">
   <!-- Local/remote: c2/server - Time: 2016-10-11T08:39:36.107465 - Length/step: 60s/0.05s -->
   <defs>
    <path d="M 40.578125 39.3125 
Q 47.65625 37.796875 51.625 33 
Q 55.609375 28.21875 55.609375 21.1875 
Q 55.609375 10.40625 48.1875 4.484375 
Q 40.765625 -1.421875 27.09375 -1.421875 
Q 22.515625 -1.421875 17.65625 -0.515625 
Q 12.796875 0.390625 7.625 2.203125 
L 7.625 11.71875 
Q 11.71875 9.328125 16.59375 8.109375 
Q 21.484375 6.890625 26.8125 6.890625 
Q 36.078125 6.890625 40.9375 10.546875 
Q 45.796875 14.203125 45.796875 21.1875 
Q 45.796875 27.640625 41.28125 31.265625 
Q 36.765625 34.90625 28.71875 34.90625 
L 20.21875 34.90625 
L 20.21875 43.015625 
L 29.109375 43.015625 
Q 36.375 43.015625 40.234375 45.921875 
Q 44.09375 48.828125 44.09375 54.296875 
Q 44.09375 59.90625 40.109375 62.90625 
Q 36.140625 65.921875 28.71875 65.921875 
Q 24.65625 65.921875 20.015625 65.03125 
Q 15.375 64.15625 9.8125 62.3125 
L 9.8125 71.09375 
Q 15.4375 72.65625 20.34375 73.4375 
Q 25.25 74.21875 29.59375 74.21875 
Q 40.828125 74.21875 47.359375 69.109375 
Q 53.90625 64.015625 53.90625 55.328125 
Q 53.90625 49.265625 50.4375 45.09375 
Q 46.96875 40.921875 40.578125 39.3125 
" id="BitstreamVeraSans-Roman-33"/>
    <path d="M 8.203125 72.90625 
L 55.078125 72.90625 
L 55.078125 68.703125 
L 28.609375 0 
L 18.3125 0 
L 43.21875 64.59375 
L 8.203125 64.59375 
z
" id="BitstreamVeraSans-Roman-37"/>
    <path d="M 10.796875 72.90625 
L 49.515625 72.90625 
L 49.515625 64.59375 
L 19.828125 64.59375 
L 19.828125 46.734375 
Q 21.96875 47.46875 24.109375 47.828125 
Q 26.265625 48.1875 28.421875 48.1875 
Q 40.625 48.1875 47.75 41.5 
Q 54.890625 34.8125 54.890625 23.390625 
Q 54.890625 11.625 47.5625 5.09375 
Q 40.234375 -1.421875 26.90625 -1.421875 
Q 22.3125 -1.421875 17.546875 -0.640625 
Q 12.796875 0.140625 7.71875 1.703125 
L 7.71875 11.625 
Q 12.109375 9.234375 16.796875 8.0625 
Q 21.484375 6.890625 26.703125 6.890625 
Q 35.15625 6.890625 40.078125 11.328125 
Q 45.015625 15.765625 45.015625 23.390625 
Q 45.015625 31 40.078125 35.4375 
Q 35.15625 39.890625 26.703125 39.890625 
Q 22.75 39.890625 18.8125 39.015625 
Q 14.890625 38.140625 10.796875 36.28125 
z
" id="BitstreamVeraSans-Roman-35"/>
    <path d="M 10.984375 1.515625 
L 10.984375 10.5 
Q 14.703125 8.734375 18.5 7.8125 
Q 22.3125 6.890625 25.984375 6.890625 
Q 35.75 6.890625 40.890625 13.453125 
Q 46.046875 20.015625 46.78125 33.40625 
Q 43.953125 29.203125 39.59375 26.953125 
Q 35.25 24.703125 29.984375 24.703125 
Q 19.046875 24.703125 12.671875 31.3125 
Q 6.296875 37.9375 6.296875 49.421875 
Q 6.296875 60.640625 12.9375 67.421875 
Q 19.578125 74.21875 30.609375 74.21875 
Q 43.265625 74.21875 49.921875 64.515625 
Q 56.59375 54.828125 56.59375 36.375 
Q 56.59375 19.140625 48.40625 8.859375 
Q 40.234375 -1.421875 26.421875 -1.421875 
Q 22.703125 -1.421875 18.890625 -0.6875 
Q 15.09375 0.046875 10.984375 1.515625 
M 30.609375 32.421875 
Q 37.25 32.421875 41.125 36.953125 
Q 45.015625 41.5 45.015625 49.421875 
Q 45.015625 57.28125 41.125 61.84375 
Q 37.25 66.40625 30.609375 66.40625 
Q 23.96875 66.40625 20.09375 61.84375 
Q 16.21875 57.28125 16.21875 49.421875 
Q 16.21875 41.5 20.09375 36.953125 
Q 23.96875 32.421875 30.609375 32.421875 
" id="BitstreamVeraSans-Roman-39"/>
    <path d="M 11.71875 12.40625 
L 22.015625 12.40625 
L 22.015625 0 
L 11.71875 0 
z
M 11.71875 51.703125 
L 22.015625 51.703125 
L 22.015625 39.3125 
L 11.71875 39.3125 
z
" id="BitstreamVeraSans-Roman-3a"/>
    <path d="M 54.890625 33.015625 
L 54.890625 0 
L 45.90625 0 
L 45.90625 32.71875 
Q 45.90625 40.484375 42.875 44.328125 
Q 39.84375 48.1875 33.796875 48.1875 
Q 26.515625 48.1875 22.3125 43.546875 
Q 18.109375 38.921875 18.109375 30.90625 
L 18.109375 0 
L 9.078125 0 
L 9.078125 75.984375 
L 18.109375 75.984375 
L 18.109375 46.1875 
Q 21.34375 51.125 25.703125 53.5625 
Q 30.078125 56 35.796875 56 
Q 45.21875 56 50.046875 50.171875 
Q 54.890625 44.34375 54.890625 33.015625 
" id="BitstreamVeraSans-Roman-68"/>
    <path d="M 25.390625 72.90625 
L 33.6875 72.90625 
L 8.296875 -9.28125 
L 0 -9.28125 
z
" id="BitstreamVeraSans-Roman-2f"/>
   </defs>
   <g style="fill:#262626;" transform="translate(238.771875 303.43625)scale(0.08 -0.08)">
    <use xlink:href="#BitstreamVeraSans-Roman-4c"/>
    <use x="55.697265625" xlink:href="#BitstreamVeraSans-Roman-6f"/>
    <use x="116.87890625" xlink:href="#BitstreamVeraSans-Roman-63"/>
    <use x="171.859375" xlink:href="#BitstreamVeraSans-Roman-61"/>
    <use x="233.138671875" xlink:href="#BitstreamVeraSans-Roman-6c"/>
    <use x="260.921875" xlink:href="#BitstreamVeraSans-Roman-2f"/>
    <use x="294.61328125" xlink:href="#BitstreamVeraSans-Roman-72"/>
    <use x="335.6953125" xlink:href="#BitstreamVeraSans-Roman-65"/>
    <use x="397.21875" xlink:href="#BitstreamVeraSans-Roman-6d"/>
    <use x="494.630859375" xlink:href="#BitstreamVeraSans-Roman-6f"/>
    <use x="555.8125" xlink:href="#BitstreamVeraSans-Roman-74"/>
    <use x="595.021484375" xlink:href="#BitstreamVeraSans-Roman-65"/>
    <use x="656.544921875" xlink:href="#BitstreamVeraSans-Roman-3a"/>
    <use x="690.236328125" xlink:href="#BitstreamVeraSans-Roman-20"/>
    <use x="722.0234375" xlink:href="#BitstreamVeraSans-Roman-63"/>
    <use x="777.00390625" xlink:href="#BitstreamVeraSans-Roman-32"/>
    <use x="840.626953125" xlink:href="#BitstreamVeraSans-Roman-2f"/>
    <use x="874.318359375" xlink:href="#BitstreamVeraSans-Roman-73"/>
    <use x="926.41796875" xlink:href="#BitstreamVeraSans-Roman-65"/>
    <use x="987.94140625" xlink:href="#BitstreamVeraSans-Roman-72"/>
    <use x="1029.0546875" xlink:href="#BitstreamVeraSans-Roman-76"/>
    <use x="1088.234375" xlink:href="#BitstreamVeraSans-Roman-65"/>
    <use x="1149.7578125" xlink:href="#BitstreamVeraSans-Roman-72"/>
    <use x="1190.87109375" xlink:href="#BitstreamVeraSans-Roman-20"/>
    <use x="1222.65820312" xlink:href="#BitstreamVeraSans-Roman-2d"/>
    <use x="1258.7421875" xlink:href="#BitstreamVeraSans-Roman-20"/>
    <use x="1290.52929688" xlink:href="#BitstreamVeraSans-Roman-54"/>
    <use x="1351.56640625" xlink:href="#BitstreamVeraSans-Roman-69"/>
    <use x="1379.34960938" xlink:href="#BitstreamVeraSans-Roman-6d"/>
    <use x="1476.76171875" xlink:href="#BitstreamVeraSans-Roman-65"/>
    <use x="1538.28515625" xlink:href="#BitstreamVeraSans-Roman-3a"/>
    <use x="1571.9765625" xlink:href="#BitstreamVeraSans-Roman-20"/>
    <use x="1603.76367188" xlink:href="#BitstreamVeraSans-Roman-32"/>
    <use x="1667.38671875" xlink:href="#BitstreamVeraSans-Roman-30"/>
    <use x="1731.00976562" xlink:href="#BitstreamVeraSans-Roman-31"/>
    <use x="1794.6328125" xlink:href="#BitstreamVeraSans-Roman-36"/>
    <use x="1858.25585938" xlink:href="#BitstreamVeraSans-Roman-2d"/>
    <use x="1894.33984375" xlink:href="#BitstreamVeraSans-Roman-31"/>
    <use x="1957.96289062" xlink:href="#BitstreamVeraSans-Roman-30"/>
    <use x="2021.5859375" xlink:href="#BitstreamVeraSans-Roman-2d"/>
    <use x="2057.66992188" xlink:href="#BitstreamVeraSans-Roman-31"/>
    <use x="2121.29296875" xlink:href="#BitstreamVeraSans-Roman-31"/>
    <use x="2184.91601562" xlink:href="#BitstreamVeraSans-Roman-54"/>
    <use x="2246.0" xlink:href="#BitstreamVeraSans-Roman-30"/>
    <use x="2309.62304688" xlink:href="#BitstreamVeraSans-Roman-38"/>
    <use x="2373.24609375" xlink:href="#BitstreamVeraSans-Roman-3a"/>
    <use x="2406.9375" xlink:href="#BitstreamVeraSans-Roman-33"/>
    <use x="2470.56054688" xlink:href="#BitstreamVeraSans-Roman-39"/>
    <use x="2534.18359375" xlink:href="#BitstreamVeraSans-Roman-3a"/>
    <use x="2567.875" xlink:href="#BitstreamVeraSans-Roman-33"/>
    <use x="2631.49804688" xlink:href="#BitstreamVeraSans-Roman-36"/>
    <use x="2695.12109375" xlink:href="#BitstreamVeraSans-Roman-2e"/>
    <use x="2726.90820312" xlink:href="#BitstreamVeraSans-Roman-31"/>
    <use x="2790.53125" xlink:href="#BitstreamVeraSans-Roman-30"/>
    <use x="2854.15429688" xlink:href="#BitstreamVeraSans-Roman-37"/>
    <use x="2917.77734375" xlink:href="#BitstreamVeraSans-Roman-34"/>
    <use x="2981.40039062" xlink:href="#BitstreamVeraSans-Roman-36"/>
    <use x="3045.0234375" xlink:href="#BitstreamVeraSans-Roman-35"/>
    <use x="3108.64648438" xlink:href="#BitstreamVeraSans-Roman-20"/>
    <use x="3140.43359375" xlink:href="#BitstreamVeraSans-Roman-2d"/>
    <use x="3176.51757812" xlink:href="#BitstreamVeraSans-Roman-20"/>
    <use x="3208.3046875" xlink:href="#BitstreamVeraSans-Roman-4c"/>
    <use x="3264.00195312" xlink:href="#BitstreamVeraSans-Roman-65"/>
    <use x="3325.52539062" xlink:href="#BitstreamVeraSans-Roman-6e"/>
    <use x="3388.90429688" xlink:href="#BitstreamVeraSans-Roman-67"/>
    <use x="3452.38085938" xlink:href="#BitstreamVeraSans-Roman-74"/>
    <use x="3491.58984375" xlink:href="#BitstreamVeraSans-Roman-68"/>
    <use x="3554.96875" xlink:href="#BitstreamVeraSans-Roman-2f"/>
    <use x="3588.66015625" xlink:href="#BitstreamVeraSans-Roman-73"/>
    <use x="3640.75976562" xlink:href="#BitstreamVeraSans-Roman-74"/>
    <use x="3679.96875" xlink:href="#BitstreamVeraSans-Roman-65"/>
    <use x="3741.4921875" xlink:href="#BitstreamVeraSans-Roman-70"/>
    <use x="3804.96875" xlink:href="#BitstreamVeraSans-Roman-3a"/>
    <use x="3838.66015625" xlink:href="#BitstreamVeraSans-Roman-20"/>
    <use x="3870.44726562" xlink:href="#BitstreamVeraSans-Roman-36"/>
    <use x="3934.0703125" xlink:href="#BitstreamVeraSans-Roman-30"/>
    <use x="3997.69335938" xlink:href="#BitstreamVeraSans-Roman-73"/>
    <use x="4049.79296875" xlink:href="#BitstreamVeraSans-Roman-2f"/>
    <use x="4083.484375" xlink:href="#BitstreamVeraSans-Roman-30"/>
    <use x="4147.10742188" xlink:href="#BitstreamVeraSans-Roman-2e"/>
    <use x="4178.89453125" xlink:href="#BitstreamVeraSans-Roman-30"/>
    <use x="4242.51757812" xlink:href="#BitstreamVeraSans-Roman-35"/>
    <use x="4306.140625" xlink:href="#BitstreamVeraSans-Roman-73"/>
   </g>
  </g>
 </g>
 <defs>
  <clipPath id="p4f3fa88831">
   <rect height="244.08" width="544.6944" x="103.275" y="30.51"/>
  </clipPath>
 </defs>
</svg>
