<?xml version="1.0" encoding="utf-8" standalone="no"?>
<!DOCTYPE svg PUBLIC "-//W3C//DTD SVG 1.1//EN"
  "http://www.w3.org/Graphics/SVG/1.1/DTD/svg11.dtd">
<!-- Created with matplotlib (http://matplotlib.org/) -->
<svg height="897pt" version="1.1" viewBox="0 0 2003 897" width="2003pt" xmlns="http://www.w3.org/2000/svg" xmlns:xlink="http://www.w3.org/1999/xlink">
 <defs>
  <style type="text/css">
*{stroke-linecap:butt;stroke-linejoin:round;stroke-miterlimit:100000;}
  </style>
 </defs>
 <g id="figure_1">
  <g id="patch_1">
   <path d="M 0 897.3 
L 2003.4 897.3 
L 2003.4 0 
L 0 0 
z
" style="fill:#ffffff;"/>
  </g>
  <g id="axes_1">
   <g id="patch_2">
    <path d="M 250.425 807.57 
L 1717.2369 807.57 
L 1717.2369 89.73 
L 250.425 89.73 
z
" style="fill:#eaeaf2;"/>
   </g>
   <g id="matplotlib.axis_1">
    <g id="xtick_1">
     <g id="line2d_1">
      <defs>
       <path d="M 0 0 
L 0 0 
" id="m3c0c23c0f2" style="stroke:#262626;stroke-width:0.5;"/>
      </defs>
      <g>
       <use style="fill:#262626;stroke:#262626;stroke-width:0.5;" x="250.425" xlink:href="#m3c0c23c0f2" y="807.57"/>
      </g>
     </g>
     <g id="line2d_2">
      <g>
       <use style="fill:#262626;stroke:#262626;stroke-width:0.5;" x="250.425" xlink:href="#m3c0c23c0f2" y="89.73"/>
      </g>
     </g>
     <g id="text_1">
      <!-- 0 -->
      <defs>
       <path d="M 31.78125 66.40625 
Q 24.171875 66.40625 20.328125 58.90625 
Q 16.5 51.421875 16.5 36.375 
Q 16.5 21.390625 20.328125 13.890625 
Q 24.171875 6.390625 31.78125 6.390625 
Q 39.453125 6.390625 43.28125 13.890625 
Q 47.125 21.390625 47.125 36.375 
Q 47.125 51.421875 43.28125 58.90625 
Q 39.453125 66.40625 31.78125 66.40625 
M 31.78125 74.21875 
Q 44.046875 74.21875 50.515625 64.515625 
Q 56.984375 54.828125 56.984375 36.375 
Q 56.984375 17.96875 50.515625 8.265625 
Q 44.046875 -1.421875 31.78125 -1.421875 
Q 19.53125 -1.421875 13.0625 8.265625 
Q 6.59375 17.96875 6.59375 36.375 
Q 6.59375 54.828125 13.0625 64.515625 
Q 19.53125 74.21875 31.78125 74.21875 
" id="BitstreamVeraSans-Roman-30"/>
      </defs>
      <g style="fill:#262626;" transform="translate(246.6075 820.688125)scale(0.12 -0.12)">
       <use xlink:href="#BitstreamVeraSans-Roman-30"/>
      </g>
     </g>
    </g>
    <g id="xtick_2">
     <g id="line2d_3">
      <g>
       <use style="fill:#262626;stroke:#262626;stroke-width:0.5;" x="487.007564516" xlink:href="#m3c0c23c0f2" y="807.57"/>
      </g>
     </g>
     <g id="line2d_4">
      <g>
       <use style="fill:#262626;stroke:#262626;stroke-width:0.5;" x="487.007564516" xlink:href="#m3c0c23c0f2" y="89.73"/>
      </g>
     </g>
     <g id="text_2">
      <!-- 50 -->
      <defs>
       <path d="M 10.796875 72.90625 
L 49.515625 72.90625 
L 49.515625 64.59375 
L 19.828125 64.59375 
L 19.828125 46.734375 
Q 21.96875 47.46875 24.109375 47.828125 
Q 26.265625 48.1875 28.421875 48.1875 
Q 40.625 48.1875 47.75 41.5 
Q 54.890625 34.8125 54.890625 23.390625 
Q 54.890625 11.625 47.5625 5.09375 
Q 40.234375 -1.421875 26.90625 -1.421875 
Q 22.3125 -1.421875 17.546875 -0.640625 
Q 12.796875 0.140625 7.71875 1.703125 
L 7.71875 11.625 
Q 12.109375 9.234375 16.796875 8.0625 
Q 21.484375 6.890625 26.703125 6.890625 
Q 35.15625 6.890625 40.078125 11.328125 
Q 45.015625 15.765625 45.015625 23.390625 
Q 45.015625 31 40.078125 35.4375 
Q 35.15625 39.890625 26.703125 39.890625 
Q 22.75 39.890625 18.8125 39.015625 
Q 14.890625 38.140625 10.796875 36.28125 
z
" id="BitstreamVeraSans-Roman-35"/>
      </defs>
      <g style="fill:#262626;" transform="translate(479.372564516 820.688125)scale(0.12 -0.12)">
       <use xlink:href="#BitstreamVeraSans-Roman-35"/>
       <use x="63.623046875" xlink:href="#BitstreamVeraSans-Roman-30"/>
      </g>
     </g>
    </g>
    <g id="xtick_3">
     <g id="line2d_5">
      <g>
       <use style="fill:#262626;stroke:#262626;stroke-width:0.5;" x="723.590129032" xlink:href="#m3c0c23c0f2" y="807.57"/>
      </g>
     </g>
     <g id="line2d_6">
      <g>
       <use style="fill:#262626;stroke:#262626;stroke-width:0.5;" x="723.590129032" xlink:href="#m3c0c23c0f2" y="89.73"/>
      </g>
     </g>
     <g id="text_3">
      <!-- 100 -->
      <defs>
       <path d="M 12.40625 8.296875 
L 28.515625 8.296875 
L 28.515625 63.921875 
L 10.984375 60.40625 
L 10.984375 69.390625 
L 28.421875 72.90625 
L 38.28125 72.90625 
L 38.28125 8.296875 
L 54.390625 8.296875 
L 54.390625 0 
L 12.40625 0 
z
" id="BitstreamVeraSans-Roman-31"/>
      </defs>
      <g style="fill:#262626;" transform="translate(712.137629032 820.688125)scale(0.12 -0.12)">
       <use xlink:href="#BitstreamVeraSans-Roman-31"/>
       <use x="63.623046875" xlink:href="#BitstreamVeraSans-Roman-30"/>
       <use x="127.24609375" xlink:href="#BitstreamVeraSans-Roman-30"/>
      </g>
     </g>
    </g>
    <g id="xtick_4">
     <g id="line2d_7">
      <g>
       <use style="fill:#262626;stroke:#262626;stroke-width:0.5;" x="960.172693548" xlink:href="#m3c0c23c0f2" y="807.57"/>
      </g>
     </g>
     <g id="line2d_8">
      <g>
       <use style="fill:#262626;stroke:#262626;stroke-width:0.5;" x="960.172693548" xlink:href="#m3c0c23c0f2" y="89.73"/>
      </g>
     </g>
     <g id="text_4">
      <!-- 150 -->
      <g style="fill:#262626;" transform="translate(948.720193548 820.688125)scale(0.12 -0.12)">
       <use xlink:href="#BitstreamVeraSans-Roman-31"/>
       <use x="63.623046875" xlink:href="#BitstreamVeraSans-Roman-35"/>
       <use x="127.24609375" xlink:href="#BitstreamVeraSans-Roman-30"/>
      </g>
     </g>
    </g>
    <g id="xtick_5">
     <g id="line2d_9">
      <g>
       <use style="fill:#262626;stroke:#262626;stroke-width:0.5;" x="1196.75525806" xlink:href="#m3c0c23c0f2" y="807.57"/>
      </g>
     </g>
     <g id="line2d_10">
      <g>
       <use style="fill:#262626;stroke:#262626;stroke-width:0.5;" x="1196.75525806" xlink:href="#m3c0c23c0f2" y="89.73"/>
      </g>
     </g>
     <g id="text_5">
      <!-- 200 -->
      <defs>
       <path d="M 19.1875 8.296875 
L 53.609375 8.296875 
L 53.609375 0 
L 7.328125 0 
L 7.328125 8.296875 
Q 12.9375 14.109375 22.625 23.890625 
Q 32.328125 33.6875 34.8125 36.53125 
Q 39.546875 41.84375 41.421875 45.53125 
Q 43.3125 49.21875 43.3125 52.78125 
Q 43.3125 58.59375 39.234375 62.25 
Q 35.15625 65.921875 28.609375 65.921875 
Q 23.96875 65.921875 18.8125 64.3125 
Q 13.671875 62.703125 7.8125 59.421875 
L 7.8125 69.390625 
Q 13.765625 71.78125 18.9375 73 
Q 24.125 74.21875 28.421875 74.21875 
Q 39.75 74.21875 46.484375 68.546875 
Q 53.21875 62.890625 53.21875 53.421875 
Q 53.21875 48.921875 51.53125 44.890625 
Q 49.859375 40.875 45.40625 35.40625 
Q 44.1875 33.984375 37.640625 27.21875 
Q 31.109375 20.453125 19.1875 8.296875 
" id="BitstreamVeraSans-Roman-32"/>
      </defs>
      <g style="fill:#262626;" transform="translate(1185.30275806 820.688125)scale(0.12 -0.12)">
       <use xlink:href="#BitstreamVeraSans-Roman-32"/>
       <use x="63.623046875" xlink:href="#BitstreamVeraSans-Roman-30"/>
       <use x="127.24609375" xlink:href="#BitstreamVeraSans-Roman-30"/>
      </g>
     </g>
    </g>
    <g id="xtick_6">
     <g id="line2d_11">
      <g>
       <use style="fill:#262626;stroke:#262626;stroke-width:0.5;" x="1433.33782258" xlink:href="#m3c0c23c0f2" y="807.57"/>
      </g>
     </g>
     <g id="line2d_12">
      <g>
       <use style="fill:#262626;stroke:#262626;stroke-width:0.5;" x="1433.33782258" xlink:href="#m3c0c23c0f2" y="89.73"/>
      </g>
     </g>
     <g id="text_6">
      <!-- 250 -->
      <g style="fill:#262626;" transform="translate(1421.88532258 820.688125)scale(0.12 -0.12)">
       <use xlink:href="#BitstreamVeraSans-Roman-32"/>
       <use x="63.623046875" xlink:href="#BitstreamVeraSans-Roman-35"/>
       <use x="127.24609375" xlink:href="#BitstreamVeraSans-Roman-30"/>
      </g>
     </g>
    </g>
    <g id="xtick_7">
     <g id="line2d_13">
      <g>
       <use style="fill:#262626;stroke:#262626;stroke-width:0.5;" x="1669.9203871" xlink:href="#m3c0c23c0f2" y="807.57"/>
      </g>
     </g>
     <g id="line2d_14">
      <g>
       <use style="fill:#262626;stroke:#262626;stroke-width:0.5;" x="1669.9203871" xlink:href="#m3c0c23c0f2" y="89.73"/>
      </g>
     </g>
     <g id="text_7">
      <!-- 300 -->
      <defs>
       <path d="M 40.578125 39.3125 
Q 47.65625 37.796875 51.625 33 
Q 55.609375 28.21875 55.609375 21.1875 
Q 55.609375 10.40625 48.1875 4.484375 
Q 40.765625 -1.421875 27.09375 -1.421875 
Q 22.515625 -1.421875 17.65625 -0.515625 
Q 12.796875 0.390625 7.625 2.203125 
L 7.625 11.71875 
Q 11.71875 9.328125 16.59375 8.109375 
Q 21.484375 6.890625 26.8125 6.890625 
Q 36.078125 6.890625 40.9375 10.546875 
Q 45.796875 14.203125 45.796875 21.1875 
Q 45.796875 27.640625 41.28125 31.265625 
Q 36.765625 34.90625 28.71875 34.90625 
L 20.21875 34.90625 
L 20.21875 43.015625 
L 29.109375 43.015625 
Q 36.375 43.015625 40.234375 45.921875 
Q 44.09375 48.828125 44.09375 54.296875 
Q 44.09375 59.90625 40.109375 62.90625 
Q 36.140625 65.921875 28.71875 65.921875 
Q 24.65625 65.921875 20.015625 65.03125 
Q 15.375 64.15625 9.8125 62.3125 
L 9.8125 71.09375 
Q 15.4375 72.65625 20.34375 73.4375 
Q 25.25 74.21875 29.59375 74.21875 
Q 40.828125 74.21875 47.359375 69.109375 
Q 53.90625 64.015625 53.90625 55.328125 
Q 53.90625 49.265625 50.4375 45.09375 
Q 46.96875 40.921875 40.578125 39.3125 
" id="BitstreamVeraSans-Roman-33"/>
      </defs>
      <g style="fill:#262626;" transform="translate(1658.4678871 820.688125)scale(0.12 -0.12)">
       <use xlink:href="#BitstreamVeraSans-Roman-33"/>
       <use x="63.623046875" xlink:href="#BitstreamVeraSans-Roman-30"/>
       <use x="127.24609375" xlink:href="#BitstreamVeraSans-Roman-30"/>
      </g>
     </g>
    </g>
    <g id="xtick_8">
     <g id="line2d_15">
      <g>
       <use style="fill:#262626;stroke:#262626;stroke-width:0.5;" x="297.741512903" xlink:href="#m3c0c23c0f2" y="807.57"/>
      </g>
     </g>
     <g id="line2d_16">
      <g>
       <use style="fill:#262626;stroke:#262626;stroke-width:0.5;" x="297.741512903" xlink:href="#m3c0c23c0f2" y="89.73"/>
      </g>
     </g>
    </g>
    <g id="xtick_9">
     <g id="line2d_17">
      <g>
       <use style="fill:#262626;stroke:#262626;stroke-width:0.5;" x="345.058025806" xlink:href="#m3c0c23c0f2" y="807.57"/>
      </g>
     </g>
     <g id="line2d_18">
      <g>
       <use style="fill:#262626;stroke:#262626;stroke-width:0.5;" x="345.058025806" xlink:href="#m3c0c23c0f2" y="89.73"/>
      </g>
     </g>
    </g>
    <g id="xtick_10">
     <g id="line2d_19">
      <g>
       <use style="fill:#262626;stroke:#262626;stroke-width:0.5;" x="392.37453871" xlink:href="#m3c0c23c0f2" y="807.57"/>
      </g>
     </g>
     <g id="line2d_20">
      <g>
       <use style="fill:#262626;stroke:#262626;stroke-width:0.5;" x="392.37453871" xlink:href="#m3c0c23c0f2" y="89.73"/>
      </g>
     </g>
    </g>
    <g id="xtick_11">
     <g id="line2d_21">
      <g>
       <use style="fill:#262626;stroke:#262626;stroke-width:0.5;" x="439.691051613" xlink:href="#m3c0c23c0f2" y="807.57"/>
      </g>
     </g>
     <g id="line2d_22">
      <g>
       <use style="fill:#262626;stroke:#262626;stroke-width:0.5;" x="439.691051613" xlink:href="#m3c0c23c0f2" y="89.73"/>
      </g>
     </g>
    </g>
    <g id="xtick_12">
     <g id="line2d_23">
      <g>
       <use style="fill:#262626;stroke:#262626;stroke-width:0.5;" x="534.324077419" xlink:href="#m3c0c23c0f2" y="807.57"/>
      </g>
     </g>
     <g id="line2d_24">
      <g>
       <use style="fill:#262626;stroke:#262626;stroke-width:0.5;" x="534.324077419" xlink:href="#m3c0c23c0f2" y="89.73"/>
      </g>
     </g>
    </g>
    <g id="xtick_13">
     <g id="line2d_25">
      <g>
       <use style="fill:#262626;stroke:#262626;stroke-width:0.5;" x="581.640590323" xlink:href="#m3c0c23c0f2" y="807.57"/>
      </g>
     </g>
     <g id="line2d_26">
      <g>
       <use style="fill:#262626;stroke:#262626;stroke-width:0.5;" x="581.640590323" xlink:href="#m3c0c23c0f2" y="89.73"/>
      </g>
     </g>
    </g>
    <g id="xtick_14">
     <g id="line2d_27">
      <g>
       <use style="fill:#262626;stroke:#262626;stroke-width:0.5;" x="628.957103226" xlink:href="#m3c0c23c0f2" y="807.57"/>
      </g>
     </g>
     <g id="line2d_28">
      <g>
       <use style="fill:#262626;stroke:#262626;stroke-width:0.5;" x="628.957103226" xlink:href="#m3c0c23c0f2" y="89.73"/>
      </g>
     </g>
    </g>
    <g id="xtick_15">
     <g id="line2d_29">
      <g>
       <use style="fill:#262626;stroke:#262626;stroke-width:0.5;" x="676.273616129" xlink:href="#m3c0c23c0f2" y="807.57"/>
      </g>
     </g>
     <g id="line2d_30">
      <g>
       <use style="fill:#262626;stroke:#262626;stroke-width:0.5;" x="676.273616129" xlink:href="#m3c0c23c0f2" y="89.73"/>
      </g>
     </g>
    </g>
    <g id="xtick_16">
     <g id="line2d_31">
      <g>
       <use style="fill:#262626;stroke:#262626;stroke-width:0.5;" x="770.906641935" xlink:href="#m3c0c23c0f2" y="807.57"/>
      </g>
     </g>
     <g id="line2d_32">
      <g>
       <use style="fill:#262626;stroke:#262626;stroke-width:0.5;" x="770.906641935" xlink:href="#m3c0c23c0f2" y="89.73"/>
      </g>
     </g>
    </g>
    <g id="xtick_17">
     <g id="line2d_33">
      <g>
       <use style="fill:#262626;stroke:#262626;stroke-width:0.5;" x="818.223154839" xlink:href="#m3c0c23c0f2" y="807.57"/>
      </g>
     </g>
     <g id="line2d_34">
      <g>
       <use style="fill:#262626;stroke:#262626;stroke-width:0.5;" x="818.223154839" xlink:href="#m3c0c23c0f2" y="89.73"/>
      </g>
     </g>
    </g>
    <g id="xtick_18">
     <g id="line2d_35">
      <g>
       <use style="fill:#262626;stroke:#262626;stroke-width:0.5;" x="865.539667742" xlink:href="#m3c0c23c0f2" y="807.57"/>
      </g>
     </g>
     <g id="line2d_36">
      <g>
       <use style="fill:#262626;stroke:#262626;stroke-width:0.5;" x="865.539667742" xlink:href="#m3c0c23c0f2" y="89.73"/>
      </g>
     </g>
    </g>
    <g id="xtick_19">
     <g id="line2d_37">
      <g>
       <use style="fill:#262626;stroke:#262626;stroke-width:0.5;" x="912.856180645" xlink:href="#m3c0c23c0f2" y="807.57"/>
      </g>
     </g>
     <g id="line2d_38">
      <g>
       <use style="fill:#262626;stroke:#262626;stroke-width:0.5;" x="912.856180645" xlink:href="#m3c0c23c0f2" y="89.73"/>
      </g>
     </g>
    </g>
    <g id="xtick_20">
     <g id="line2d_39">
      <g>
       <use style="fill:#262626;stroke:#262626;stroke-width:0.5;" x="1007.48920645" xlink:href="#m3c0c23c0f2" y="807.57"/>
      </g>
     </g>
     <g id="line2d_40">
      <g>
       <use style="fill:#262626;stroke:#262626;stroke-width:0.5;" x="1007.48920645" xlink:href="#m3c0c23c0f2" y="89.73"/>
      </g>
     </g>
    </g>
    <g id="xtick_21">
     <g id="line2d_41">
      <g>
       <use style="fill:#262626;stroke:#262626;stroke-width:0.5;" x="1054.80571935" xlink:href="#m3c0c23c0f2" y="807.57"/>
      </g>
     </g>
     <g id="line2d_42">
      <g>
       <use style="fill:#262626;stroke:#262626;stroke-width:0.5;" x="1054.80571935" xlink:href="#m3c0c23c0f2" y="89.73"/>
      </g>
     </g>
    </g>
    <g id="xtick_22">
     <g id="line2d_43">
      <g>
       <use style="fill:#262626;stroke:#262626;stroke-width:0.5;" x="1102.12223226" xlink:href="#m3c0c23c0f2" y="807.57"/>
      </g>
     </g>
     <g id="line2d_44">
      <g>
       <use style="fill:#262626;stroke:#262626;stroke-width:0.5;" x="1102.12223226" xlink:href="#m3c0c23c0f2" y="89.73"/>
      </g>
     </g>
    </g>
    <g id="xtick_23">
     <g id="line2d_45">
      <g>
       <use style="fill:#262626;stroke:#262626;stroke-width:0.5;" x="1149.43874516" xlink:href="#m3c0c23c0f2" y="807.57"/>
      </g>
     </g>
     <g id="line2d_46">
      <g>
       <use style="fill:#262626;stroke:#262626;stroke-width:0.5;" x="1149.43874516" xlink:href="#m3c0c23c0f2" y="89.73"/>
      </g>
     </g>
    </g>
    <g id="xtick_24">
     <g id="line2d_47">
      <g>
       <use style="fill:#262626;stroke:#262626;stroke-width:0.5;" x="1244.07177097" xlink:href="#m3c0c23c0f2" y="807.57"/>
      </g>
     </g>
     <g id="line2d_48">
      <g>
       <use style="fill:#262626;stroke:#262626;stroke-width:0.5;" x="1244.07177097" xlink:href="#m3c0c23c0f2" y="89.73"/>
      </g>
     </g>
    </g>
    <g id="xtick_25">
     <g id="line2d_49">
      <g>
       <use style="fill:#262626;stroke:#262626;stroke-width:0.5;" x="1291.38828387" xlink:href="#m3c0c23c0f2" y="807.57"/>
      </g>
     </g>
     <g id="line2d_50">
      <g>
       <use style="fill:#262626;stroke:#262626;stroke-width:0.5;" x="1291.38828387" xlink:href="#m3c0c23c0f2" y="89.73"/>
      </g>
     </g>
    </g>
    <g id="xtick_26">
     <g id="line2d_51">
      <g>
       <use style="fill:#262626;stroke:#262626;stroke-width:0.5;" x="1338.70479677" xlink:href="#m3c0c23c0f2" y="807.57"/>
      </g>
     </g>
     <g id="line2d_52">
      <g>
       <use style="fill:#262626;stroke:#262626;stroke-width:0.5;" x="1338.70479677" xlink:href="#m3c0c23c0f2" y="89.73"/>
      </g>
     </g>
    </g>
    <g id="xtick_27">
     <g id="line2d_53">
      <g>
       <use style="fill:#262626;stroke:#262626;stroke-width:0.5;" x="1386.02130968" xlink:href="#m3c0c23c0f2" y="807.57"/>
      </g>
     </g>
     <g id="line2d_54">
      <g>
       <use style="fill:#262626;stroke:#262626;stroke-width:0.5;" x="1386.02130968" xlink:href="#m3c0c23c0f2" y="89.73"/>
      </g>
     </g>
    </g>
    <g id="xtick_28">
     <g id="line2d_55">
      <g>
       <use style="fill:#262626;stroke:#262626;stroke-width:0.5;" x="1480.65433548" xlink:href="#m3c0c23c0f2" y="807.57"/>
      </g>
     </g>
     <g id="line2d_56">
      <g>
       <use style="fill:#262626;stroke:#262626;stroke-width:0.5;" x="1480.65433548" xlink:href="#m3c0c23c0f2" y="89.73"/>
      </g>
     </g>
    </g>
    <g id="xtick_29">
     <g id="line2d_57">
      <g>
       <use style="fill:#262626;stroke:#262626;stroke-width:0.5;" x="1527.97084839" xlink:href="#m3c0c23c0f2" y="807.57"/>
      </g>
     </g>
     <g id="line2d_58">
      <g>
       <use style="fill:#262626;stroke:#262626;stroke-width:0.5;" x="1527.97084839" xlink:href="#m3c0c23c0f2" y="89.73"/>
      </g>
     </g>
    </g>
    <g id="xtick_30">
     <g id="line2d_59">
      <g>
       <use style="fill:#262626;stroke:#262626;stroke-width:0.5;" x="1575.28736129" xlink:href="#m3c0c23c0f2" y="807.57"/>
      </g>
     </g>
     <g id="line2d_60">
      <g>
       <use style="fill:#262626;stroke:#262626;stroke-width:0.5;" x="1575.28736129" xlink:href="#m3c0c23c0f2" y="89.73"/>
      </g>
     </g>
    </g>
    <g id="xtick_31">
     <g id="line2d_61">
      <g>
       <use style="fill:#262626;stroke:#262626;stroke-width:0.5;" x="1622.60387419" xlink:href="#m3c0c23c0f2" y="807.57"/>
      </g>
     </g>
     <g id="line2d_62">
      <g>
       <use style="fill:#262626;stroke:#262626;stroke-width:0.5;" x="1622.60387419" xlink:href="#m3c0c23c0f2" y="89.73"/>
      </g>
     </g>
    </g>
    <g id="xtick_32">
     <g id="line2d_63">
      <g>
       <use style="fill:#262626;stroke:#262626;stroke-width:0.5;" x="1717.2369" xlink:href="#m3c0c23c0f2" y="807.57"/>
      </g>
     </g>
     <g id="line2d_64">
      <g>
       <use style="fill:#262626;stroke:#262626;stroke-width:0.5;" x="1717.2369" xlink:href="#m3c0c23c0f2" y="89.73"/>
      </g>
     </g>
    </g>
    <g id="text_8">
     <!-- Time (s) -->
     <defs>
      <path id="BitstreamVeraSans-Roman-20"/>
      <path d="M 8.015625 75.875 
L 15.828125 75.875 
Q 23.140625 64.359375 26.78125 53.3125 
Q 30.421875 42.28125 30.421875 31.390625 
Q 30.421875 20.453125 26.78125 9.375 
Q 23.140625 -1.703125 15.828125 -13.1875 
L 8.015625 -13.1875 
Q 14.5 -2 17.703125 9.0625 
Q 20.90625 20.125 20.90625 31.390625 
Q 20.90625 42.671875 17.703125 53.65625 
Q 14.5 64.65625 8.015625 75.875 
" id="BitstreamVeraSans-Roman-29"/>
      <path d="M 31 75.875 
Q 24.46875 64.65625 21.28125 53.65625 
Q 18.109375 42.671875 18.109375 31.390625 
Q 18.109375 20.125 21.3125 9.0625 
Q 24.515625 -2 31 -13.1875 
L 23.1875 -13.1875 
Q 15.875 -1.703125 12.234375 9.375 
Q 8.59375 20.453125 8.59375 31.390625 
Q 8.59375 42.28125 12.203125 53.3125 
Q 15.828125 64.359375 23.1875 75.875 
z
" id="BitstreamVeraSans-Roman-28"/>
      <path d="M 9.421875 54.6875 
L 18.40625 54.6875 
L 18.40625 0 
L 9.421875 0 
z
M 9.421875 75.984375 
L 18.40625 75.984375 
L 18.40625 64.59375 
L 9.421875 64.59375 
z
" id="BitstreamVeraSans-Roman-69"/>
      <path d="M 52 44.1875 
Q 55.375 50.25 60.0625 53.125 
Q 64.75 56 71.09375 56 
Q 79.640625 56 84.28125 50.015625 
Q 88.921875 44.046875 88.921875 33.015625 
L 88.921875 0 
L 79.890625 0 
L 79.890625 32.71875 
Q 79.890625 40.578125 77.09375 44.375 
Q 74.3125 48.1875 68.609375 48.1875 
Q 61.625 48.1875 57.5625 43.546875 
Q 53.515625 38.921875 53.515625 30.90625 
L 53.515625 0 
L 44.484375 0 
L 44.484375 32.71875 
Q 44.484375 40.625 41.703125 44.40625 
Q 38.921875 48.1875 33.109375 48.1875 
Q 26.21875 48.1875 22.15625 43.53125 
Q 18.109375 38.875 18.109375 30.90625 
L 18.109375 0 
L 9.078125 0 
L 9.078125 54.6875 
L 18.109375 54.6875 
L 18.109375 46.1875 
Q 21.1875 51.21875 25.484375 53.609375 
Q 29.78125 56 35.6875 56 
Q 41.65625 56 45.828125 52.96875 
Q 50 49.953125 52 44.1875 
" id="BitstreamVeraSans-Roman-6d"/>
      <path d="M 56.203125 29.59375 
L 56.203125 25.203125 
L 14.890625 25.203125 
Q 15.484375 15.921875 20.484375 11.0625 
Q 25.484375 6.203125 34.421875 6.203125 
Q 39.59375 6.203125 44.453125 7.46875 
Q 49.3125 8.734375 54.109375 11.28125 
L 54.109375 2.78125 
Q 49.265625 0.734375 44.1875 -0.34375 
Q 39.109375 -1.421875 33.890625 -1.421875 
Q 20.796875 -1.421875 13.15625 6.1875 
Q 5.515625 13.8125 5.515625 26.8125 
Q 5.515625 40.234375 12.765625 48.109375 
Q 20.015625 56 32.328125 56 
Q 43.359375 56 49.78125 48.890625 
Q 56.203125 41.796875 56.203125 29.59375 
M 47.21875 32.234375 
Q 47.125 39.59375 43.09375 43.984375 
Q 39.0625 48.390625 32.421875 48.390625 
Q 24.90625 48.390625 20.390625 44.140625 
Q 15.875 39.890625 15.1875 32.171875 
z
" id="BitstreamVeraSans-Roman-65"/>
      <path d="M -0.296875 72.90625 
L 61.375 72.90625 
L 61.375 64.59375 
L 35.5 64.59375 
L 35.5 0 
L 25.59375 0 
L 25.59375 64.59375 
L -0.296875 64.59375 
z
" id="BitstreamVeraSans-Roman-54"/>
      <path d="M 44.28125 53.078125 
L 44.28125 44.578125 
Q 40.484375 46.53125 36.375 47.5 
Q 32.28125 48.484375 27.875 48.484375 
Q 21.1875 48.484375 17.84375 46.4375 
Q 14.5 44.390625 14.5 40.28125 
Q 14.5 37.15625 16.890625 35.375 
Q 19.28125 33.59375 26.515625 31.984375 
L 29.59375 31.296875 
Q 39.15625 29.25 43.1875 25.515625 
Q 47.21875 21.78125 47.21875 15.09375 
Q 47.21875 7.46875 41.1875 3.015625 
Q 35.15625 -1.421875 24.609375 -1.421875 
Q 20.21875 -1.421875 15.453125 -0.5625 
Q 10.6875 0.296875 5.421875 2 
L 5.421875 11.28125 
Q 10.40625 8.6875 15.234375 7.390625 
Q 20.0625 6.109375 24.8125 6.109375 
Q 31.15625 6.109375 34.5625 8.28125 
Q 37.984375 10.453125 37.984375 14.40625 
Q 37.984375 18.0625 35.515625 20.015625 
Q 33.0625 21.96875 24.703125 23.78125 
L 21.578125 24.515625 
Q 13.234375 26.265625 9.515625 29.90625 
Q 5.8125 33.546875 5.8125 39.890625 
Q 5.8125 47.609375 11.28125 51.796875 
Q 16.75 56 26.8125 56 
Q 31.78125 56 36.171875 55.265625 
Q 40.578125 54.546875 44.28125 53.078125 
" id="BitstreamVeraSans-Roman-73"/>
     </defs>
     <g style="fill:#262626;" transform="translate(959.251575 837.301875)scale(0.12 -0.12)">
      <use xlink:href="#BitstreamVeraSans-Roman-54"/>
      <use x="61.037109375" xlink:href="#BitstreamVeraSans-Roman-69"/>
      <use x="88.8203125" xlink:href="#BitstreamVeraSans-Roman-6d"/>
      <use x="186.232421875" xlink:href="#BitstreamVeraSans-Roman-65"/>
      <use x="247.755859375" xlink:href="#BitstreamVeraSans-Roman-20"/>
      <use x="279.54296875" xlink:href="#BitstreamVeraSans-Roman-28"/>
      <use x="318.556640625" xlink:href="#BitstreamVeraSans-Roman-73"/>
      <use x="370.65625" xlink:href="#BitstreamVeraSans-Roman-29"/>
     </g>
    </g>
   </g>
   <g id="matplotlib.axis_2">
    <g id="ytick_1">
     <g id="line2d_65">
      <g>
       <use style="fill:#262626;stroke:#262626;stroke-width:0.5;" x="250.425" xlink:href="#m3c0c23c0f2" y="720.685081768"/>
      </g>
     </g>
     <g id="text_9">
      <!-- 50 -->
      <g style="fill:#262626;" transform="translate(231.155 723.996331768)scale(0.12 -0.12)">
       <use xlink:href="#BitstreamVeraSans-Roman-35"/>
       <use x="63.623046875" xlink:href="#BitstreamVeraSans-Roman-30"/>
      </g>
     </g>
    </g>
    <g id="ytick_2">
     <g id="line2d_66">
      <g>
       <use style="fill:#262626;stroke:#262626;stroke-width:0.5;" x="250.425" xlink:href="#m3c0c23c0f2" y="626.998836351"/>
      </g>
     </g>
     <g id="text_10">
      <!-- 100 -->
      <g style="fill:#262626;" transform="translate(223.52 630.310086351)scale(0.12 -0.12)">
       <use xlink:href="#BitstreamVeraSans-Roman-31"/>
       <use x="63.623046875" xlink:href="#BitstreamVeraSans-Roman-30"/>
       <use x="127.24609375" xlink:href="#BitstreamVeraSans-Roman-30"/>
      </g>
     </g>
    </g>
    <g id="ytick_3">
     <g id="line2d_67">
      <g>
       <use style="fill:#262626;stroke:#262626;stroke-width:0.5;" x="250.425" xlink:href="#m3c0c23c0f2" y="533.312590934"/>
      </g>
     </g>
     <g id="text_11">
      <!-- 150 -->
      <g style="fill:#262626;" transform="translate(223.52 536.623840934)scale(0.12 -0.12)">
       <use xlink:href="#BitstreamVeraSans-Roman-31"/>
       <use x="63.623046875" xlink:href="#BitstreamVeraSans-Roman-35"/>
       <use x="127.24609375" xlink:href="#BitstreamVeraSans-Roman-30"/>
      </g>
     </g>
    </g>
    <g id="ytick_4">
     <g id="line2d_68">
      <g>
       <use style="fill:#262626;stroke:#262626;stroke-width:0.5;" x="250.425" xlink:href="#m3c0c23c0f2" y="439.626345517"/>
      </g>
     </g>
     <g id="text_12">
      <!-- 200 -->
      <g style="fill:#262626;" transform="translate(223.52 442.937595517)scale(0.12 -0.12)">
       <use xlink:href="#BitstreamVeraSans-Roman-32"/>
       <use x="63.623046875" xlink:href="#BitstreamVeraSans-Roman-30"/>
       <use x="127.24609375" xlink:href="#BitstreamVeraSans-Roman-30"/>
      </g>
     </g>
    </g>
    <g id="ytick_5">
     <g id="line2d_69">
      <g>
       <use style="fill:#262626;stroke:#262626;stroke-width:0.5;" x="250.425" xlink:href="#m3c0c23c0f2" y="345.9401001"/>
      </g>
     </g>
     <g id="text_13">
      <!-- 250 -->
      <g style="fill:#262626;" transform="translate(223.52 349.2513501)scale(0.12 -0.12)">
       <use xlink:href="#BitstreamVeraSans-Roman-32"/>
       <use x="63.623046875" xlink:href="#BitstreamVeraSans-Roman-35"/>
       <use x="127.24609375" xlink:href="#BitstreamVeraSans-Roman-30"/>
      </g>
     </g>
    </g>
    <g id="ytick_6">
     <g id="line2d_70">
      <g>
       <use style="fill:#262626;stroke:#262626;stroke-width:0.5;" x="250.425" xlink:href="#m3c0c23c0f2" y="252.253854683"/>
      </g>
     </g>
     <g id="text_14">
      <!-- 300 -->
      <g style="fill:#262626;" transform="translate(223.52 255.565104683)scale(0.12 -0.12)">
       <use xlink:href="#BitstreamVeraSans-Roman-33"/>
       <use x="63.623046875" xlink:href="#BitstreamVeraSans-Roman-30"/>
       <use x="127.24609375" xlink:href="#BitstreamVeraSans-Roman-30"/>
      </g>
     </g>
    </g>
    <g id="ytick_7">
     <g id="line2d_71">
      <g>
       <use style="fill:#262626;stroke:#262626;stroke-width:0.5;" x="250.425" xlink:href="#m3c0c23c0f2" y="158.567609266"/>
      </g>
     </g>
     <g id="text_15">
      <!-- 350 -->
      <g style="fill:#262626;" transform="translate(223.52 161.878859266)scale(0.12 -0.12)">
       <use xlink:href="#BitstreamVeraSans-Roman-33"/>
       <use x="63.623046875" xlink:href="#BitstreamVeraSans-Roman-35"/>
       <use x="127.24609375" xlink:href="#BitstreamVeraSans-Roman-30"/>
      </g>
     </g>
    </g>
    <g id="ytick_8">
     <g id="line2d_72">
      <g>
       <use style="fill:#262626;stroke:#262626;stroke-width:0.5;" x="250.425" xlink:href="#m3c0c23c0f2" y="795.634078102"/>
      </g>
     </g>
    </g>
    <g id="ytick_9">
     <g id="line2d_73">
      <g>
       <use style="fill:#262626;stroke:#262626;stroke-width:0.5;" x="250.425" xlink:href="#m3c0c23c0f2" y="776.896829018"/>
      </g>
     </g>
    </g>
    <g id="ytick_10">
     <g id="line2d_74">
      <g>
       <use style="fill:#262626;stroke:#262626;stroke-width:0.5;" x="250.425" xlink:href="#m3c0c23c0f2" y="758.159579935"/>
      </g>
     </g>
    </g>
    <g id="ytick_11">
     <g id="line2d_75">
      <g>
       <use style="fill:#262626;stroke:#262626;stroke-width:0.5;" x="250.425" xlink:href="#m3c0c23c0f2" y="739.422330852"/>
      </g>
     </g>
    </g>
    <g id="ytick_12">
     <g id="line2d_76">
      <g>
       <use style="fill:#262626;stroke:#262626;stroke-width:0.5;" x="250.425" xlink:href="#m3c0c23c0f2" y="701.947832685"/>
      </g>
     </g>
    </g>
    <g id="ytick_13">
     <g id="line2d_77">
      <g>
       <use style="fill:#262626;stroke:#262626;stroke-width:0.5;" x="250.425" xlink:href="#m3c0c23c0f2" y="683.210583601"/>
      </g>
     </g>
    </g>
    <g id="ytick_14">
     <g id="line2d_78">
      <g>
       <use style="fill:#262626;stroke:#262626;stroke-width:0.5;" x="250.425" xlink:href="#m3c0c23c0f2" y="664.473334518"/>
      </g>
     </g>
    </g>
    <g id="ytick_15">
     <g id="line2d_79">
      <g>
       <use style="fill:#262626;stroke:#262626;stroke-width:0.5;" x="250.425" xlink:href="#m3c0c23c0f2" y="645.736085435"/>
      </g>
     </g>
    </g>
    <g id="ytick_16">
     <g id="line2d_80">
      <g>
       <use style="fill:#262626;stroke:#262626;stroke-width:0.5;" x="250.425" xlink:href="#m3c0c23c0f2" y="608.261587268"/>
      </g>
     </g>
    </g>
    <g id="ytick_17">
     <g id="line2d_81">
      <g>
       <use style="fill:#262626;stroke:#262626;stroke-width:0.5;" x="250.425" xlink:href="#m3c0c23c0f2" y="589.524338184"/>
      </g>
     </g>
    </g>
    <g id="ytick_18">
     <g id="line2d_82">
      <g>
       <use style="fill:#262626;stroke:#262626;stroke-width:0.5;" x="250.425" xlink:href="#m3c0c23c0f2" y="570.787089101"/>
      </g>
     </g>
    </g>
    <g id="ytick_19">
     <g id="line2d_83">
      <g>
       <use style="fill:#262626;stroke:#262626;stroke-width:0.5;" x="250.425" xlink:href="#m3c0c23c0f2" y="552.049840018"/>
      </g>
     </g>
    </g>
    <g id="ytick_20">
     <g id="line2d_84">
      <g>
       <use style="fill:#262626;stroke:#262626;stroke-width:0.5;" x="250.425" xlink:href="#m3c0c23c0f2" y="514.575341851"/>
      </g>
     </g>
    </g>
    <g id="ytick_21">
     <g id="line2d_85">
      <g>
       <use style="fill:#262626;stroke:#262626;stroke-width:0.5;" x="250.425" xlink:href="#m3c0c23c0f2" y="495.838092767"/>
      </g>
     </g>
    </g>
    <g id="ytick_22">
     <g id="line2d_86">
      <g>
       <use style="fill:#262626;stroke:#262626;stroke-width:0.5;" x="250.425" xlink:href="#m3c0c23c0f2" y="477.100843684"/>
      </g>
     </g>
    </g>
    <g id="ytick_23">
     <g id="line2d_87">
      <g>
       <use style="fill:#262626;stroke:#262626;stroke-width:0.5;" x="250.425" xlink:href="#m3c0c23c0f2" y="458.363594601"/>
      </g>
     </g>
    </g>
    <g id="ytick_24">
     <g id="line2d_88">
      <g>
       <use style="fill:#262626;stroke:#262626;stroke-width:0.5;" x="250.425" xlink:href="#m3c0c23c0f2" y="420.889096434"/>
      </g>
     </g>
    </g>
    <g id="ytick_25">
     <g id="line2d_89">
      <g>
       <use style="fill:#262626;stroke:#262626;stroke-width:0.5;" x="250.425" xlink:href="#m3c0c23c0f2" y="402.15184735"/>
      </g>
     </g>
    </g>
    <g id="ytick_26">
     <g id="line2d_90">
      <g>
       <use style="fill:#262626;stroke:#262626;stroke-width:0.5;" x="250.425" xlink:href="#m3c0c23c0f2" y="383.414598267"/>
      </g>
     </g>
    </g>
    <g id="ytick_27">
     <g id="line2d_91">
      <g>
       <use style="fill:#262626;stroke:#262626;stroke-width:0.5;" x="250.425" xlink:href="#m3c0c23c0f2" y="364.677349184"/>
      </g>
     </g>
    </g>
    <g id="ytick_28">
     <g id="line2d_92">
      <g>
       <use style="fill:#262626;stroke:#262626;stroke-width:0.5;" x="250.425" xlink:href="#m3c0c23c0f2" y="327.202851017"/>
      </g>
     </g>
    </g>
    <g id="ytick_29">
     <g id="line2d_93">
      <g>
       <use style="fill:#262626;stroke:#262626;stroke-width:0.5;" x="250.425" xlink:href="#m3c0c23c0f2" y="308.465601934"/>
      </g>
     </g>
    </g>
    <g id="ytick_30">
     <g id="line2d_94">
      <g>
       <use style="fill:#262626;stroke:#262626;stroke-width:0.5;" x="250.425" xlink:href="#m3c0c23c0f2" y="289.72835285"/>
      </g>
     </g>
    </g>
    <g id="ytick_31">
     <g id="line2d_95">
      <g>
       <use style="fill:#262626;stroke:#262626;stroke-width:0.5;" x="250.425" xlink:href="#m3c0c23c0f2" y="270.991103767"/>
      </g>
     </g>
    </g>
    <g id="ytick_32">
     <g id="line2d_96">
      <g>
       <use style="fill:#262626;stroke:#262626;stroke-width:0.5;" x="250.425" xlink:href="#m3c0c23c0f2" y="233.5166056"/>
      </g>
     </g>
    </g>
    <g id="ytick_33">
     <g id="line2d_97">
      <g>
       <use style="fill:#262626;stroke:#262626;stroke-width:0.5;" x="250.425" xlink:href="#m3c0c23c0f2" y="214.779356517"/>
      </g>
     </g>
    </g>
    <g id="ytick_34">
     <g id="line2d_98">
      <g>
       <use style="fill:#262626;stroke:#262626;stroke-width:0.5;" x="250.425" xlink:href="#m3c0c23c0f2" y="196.042107433"/>
      </g>
     </g>
    </g>
    <g id="ytick_35">
     <g id="line2d_99">
      <g>
       <use style="fill:#262626;stroke:#262626;stroke-width:0.5;" x="250.425" xlink:href="#m3c0c23c0f2" y="177.30485835"/>
      </g>
     </g>
    </g>
    <g id="ytick_36">
     <g id="line2d_100">
      <g>
       <use style="fill:#262626;stroke:#262626;stroke-width:0.5;" x="250.425" xlink:href="#m3c0c23c0f2" y="139.830360183"/>
      </g>
     </g>
    </g>
    <g id="ytick_37">
     <g id="line2d_101">
      <g>
       <use style="fill:#262626;stroke:#262626;stroke-width:0.5;" x="250.425" xlink:href="#m3c0c23c0f2" y="121.0931111"/>
      </g>
     </g>
    </g>
    <g id="ytick_38">
     <g id="line2d_102">
      <g>
       <use style="fill:#262626;stroke:#262626;stroke-width:0.5;" x="250.425" xlink:href="#m3c0c23c0f2" y="102.355862016"/>
      </g>
     </g>
    </g>
    <g id="text_16">
     <!-- Mbits/s -->
     <defs>
      <path d="M 18.3125 70.21875 
L 18.3125 54.6875 
L 36.8125 54.6875 
L 36.8125 47.703125 
L 18.3125 47.703125 
L 18.3125 18.015625 
Q 18.3125 11.328125 20.140625 9.421875 
Q 21.96875 7.515625 27.59375 7.515625 
L 36.8125 7.515625 
L 36.8125 0 
L 27.59375 0 
Q 17.1875 0 13.234375 3.875 
Q 9.28125 7.765625 9.28125 18.015625 
L 9.28125 47.703125 
L 2.6875 47.703125 
L 2.6875 54.6875 
L 9.28125 54.6875 
L 9.28125 70.21875 
z
" id="BitstreamVeraSans-Roman-74"/>
      <path d="M 9.8125 72.90625 
L 24.515625 72.90625 
L 43.109375 23.296875 
L 61.8125 72.90625 
L 76.515625 72.90625 
L 76.515625 0 
L 66.890625 0 
L 66.890625 64.015625 
L 48.09375 14.015625 
L 38.1875 14.015625 
L 19.390625 64.015625 
L 19.390625 0 
L 9.8125 0 
z
" id="BitstreamVeraSans-Roman-4d"/>
      <path d="M 25.390625 72.90625 
L 33.6875 72.90625 
L 8.296875 -9.28125 
L 0 -9.28125 
z
" id="BitstreamVeraSans-Roman-2f"/>
      <path d="M 48.6875 27.296875 
Q 48.6875 37.203125 44.609375 42.84375 
Q 40.53125 48.484375 33.40625 48.484375 
Q 26.265625 48.484375 22.1875 42.84375 
Q 18.109375 37.203125 18.109375 27.296875 
Q 18.109375 17.390625 22.1875 11.75 
Q 26.265625 6.109375 33.40625 6.109375 
Q 40.53125 6.109375 44.609375 11.75 
Q 48.6875 17.390625 48.6875 27.296875 
M 18.109375 46.390625 
Q 20.953125 51.265625 25.265625 53.625 
Q 29.59375 56 35.59375 56 
Q 45.5625 56 51.78125 48.09375 
Q 58.015625 40.1875 58.015625 27.296875 
Q 58.015625 14.40625 51.78125 6.484375 
Q 45.5625 -1.421875 35.59375 -1.421875 
Q 29.59375 -1.421875 25.265625 0.953125 
Q 20.953125 3.328125 18.109375 8.203125 
L 18.109375 0 
L 9.078125 0 
L 9.078125 75.984375 
L 18.109375 75.984375 
z
" id="BitstreamVeraSans-Roman-62"/>
     </defs>
     <g style="fill:#262626;" transform="translate(216.024375 469.9275)rotate(-90.0)scale(0.12 -0.12)">
      <use xlink:href="#BitstreamVeraSans-Roman-4d"/>
      <use x="86.279296875" xlink:href="#BitstreamVeraSans-Roman-62"/>
      <use x="149.755859375" xlink:href="#BitstreamVeraSans-Roman-69"/>
      <use x="177.5390625" xlink:href="#BitstreamVeraSans-Roman-74"/>
      <use x="216.748046875" xlink:href="#BitstreamVeraSans-Roman-73"/>
      <use x="268.84765625" xlink:href="#BitstreamVeraSans-Roman-2f"/>
      <use x="302.5390625" xlink:href="#BitstreamVeraSans-Roman-73"/>
     </g>
    </g>
   </g>
   <g id="line2d_103">
    <path clip-path="url(#p0b5e48514d)" d="M 275.029587 582.244874 
L 275.975917 506.619228 
L 276.922247 448.892677 
L 277.868577 405.69998 
L 278.814908 374.857516 
L 279.761238 348.272233 
L 283.546559 142.585635 
L 284.492889 108.56908 
L 285.43922 106.058904 
L 286.38555 106.091858 
L 287.33188 105.997438 
L 288.27821 103.44201 
L 289.224541 102.91357 
L 292.063531 102.941153 
L 294.902522 102.83372 
L 304.365825 103.005363 
L 305.312155 102.83705 
L 306.258485 102.826568 
L 307.204815 102.930507 
L 309.097476 102.688237 
L 310.043806 102.848413 
L 314.775458 102.841067 
L 315.721788 102.864917 
L 316.668118 102.764627 
L 318.560779 102.956663 
L 320.453439 102.839185 
L 327.077751 102.903479 
L 328.024081 103.142949 
L 329.916742 103.039137 
L 332.755732 102.961349 
L 334.648393 102.993404 
L 335.594723 120.971894 
L 337.487384 125.124446 
L 338.433714 128.47961 
L 339.380044 132.767718 
L 339.380044 132.767718 
" style="fill:none;stroke:#1b9e77;stroke-linecap:round;"/>
   </g>
   <g id="line2d_104">
    <path clip-path="url(#p0b5e48514d)" d="M 275.029587 591.26799 
L 275.975917 591.687011 
L 276.922247 592.884951 
L 277.868577 593.633821 
L 278.814908 594.560693 
L 279.761238 595.972154 
L 280.707568 604.289717 
L 281.653899 605.623112 
L 283.546559 601.194706 
L 284.492889 600.866238 
L 285.43922 601.273582 
L 286.38555 601.122075 
L 287.33188 601.267275 
L 288.27821 601.245878 
L 289.224541 600.547611 
L 290.170871 600.136142 
L 291.117201 600.548924 
L 292.063531 600.576655 
L 293.009862 600.142757 
L 293.956192 600.273708 
L 294.902522 600.74707 
L 299.634173 600.149447 
L 300.580504 599.783517 
L 302.473164 600.104612 
L 303.419494 600.641673 
L 305.312155 601.032091 
L 306.258485 601.259588 
L 307.204815 601.090561 
L 308.151146 600.757965 
L 309.097476 600.989026 
L 310.043806 601.367353 
L 310.990137 601.110067 
L 311.936467 600.700121 
L 312.882797 599.963159 
L 313.829127 599.587458 
L 314.775458 599.64668 
L 315.721788 599.402868 
L 317.614448 600.185556 
L 318.560779 599.843317 
L 319.507109 599.87389 
L 320.453439 600.711167 
L 321.399769 601.003739 
L 323.29243 601.013843 
L 324.23876 601.153744 
L 325.18509 601.465907 
L 326.131421 601.215378 
L 327.077751 601.084549 
L 328.024081 601.418477 
L 328.970411 601.22216 
L 329.916742 600.733431 
L 330.863072 601.129295 
L 331.809402 601.354062 
L 333.702063 600.877284 
L 334.648393 600.93546 
L 335.594723 605.350058 
L 336.541053 615.284507 
L 337.487384 629.653996 
L 339.380044 665.343858 
L 342.219035 722.971643 
L 344.111696 761.835073 
L 345.058026 776.806643 
L 346.004356 786.052492 
L 346.950686 790.80979 
L 347.897017 792.855785 
L 348.843347 793.654078 
L 349.789677 793.996724 
L 350.736007 793.974181 
L 353.574998 793.571717 
L 354.521328 793.489215 
L 355.467659 793.673096 
L 357.360319 794.231362 
L 359.25298 794.689402 
L 363.984631 796.45294 
L 364.930961 796.558234 
L 365.877291 796.401394 
L 367.769952 795.816266 
L 370.608943 794.669706 
L 371.555273 794.528861 
L 372.501603 794.261304 
L 373.447934 793.877692 
L 374.394264 793.698903 
L 375.340594 793.917358 
L 377.233255 794.904364 
L 378.179585 795.536005 
L 379.125915 796.019508 
L 380.072245 796.311725 
L 381.018576 796.4672 
L 382.911236 797.141938 
L 383.857566 797.868936 
L 385.750227 798.094811 
L 386.696557 798.027424 
L 388.589218 797.63993 
L 390.481878 797.357019 
L 392.374539 796.758995 
L 393.320869 796.011481 
L 395.213529 795.229625 
L 398.998851 793.229089 
L 401.837841 794.597607 
L 403.730502 795.973446 
L 405.623162 797.616541 
L 407.515823 799.303529 
L 408.462153 800.006421 
L 409.408483 799.968967 
L 410.354814 800.227543 
L 412.247474 800.314201 
L 416.032795 800.220834 
L 422.657107 800.532353 
L 427.388758 800.322484 
L 428.335089 800.247686 
L 429.281419 800.03062 
L 434.01307 798.277694 
L 435.905731 797.700459 
L 438.744721 796.315958 
L 439.691052 795.660462 
L 440.637382 793.788289 
L 441.583712 781.769328 
L 442.530042 752.53008 
L 443.476373 695.205327 
L 450.100684 208.475799 
L 451.047015 150.491325 
L 451.993345 109.680272 
L 452.939675 97.047705 
L 454.832336 97.574663 
L 455.778666 97.703333 
L 456.724996 97.629523 
L 457.671327 97.684556 
L 458.617657 97.470189 
L 460.510317 97.564582 
L 461.456648 97.63898 
L 462.402978 97.5679 
L 464.295638 97.632849 
L 467.134629 97.469293 
L 469.02729 97.703584 
L 469.97362 97.697427 
L 470.91995 97.493661 
L 472.812611 97.509463 
L 474.705271 97.444582 
L 475.651601 97.224871 
L 478.490592 97.483378 
L 479.436922 97.516116 
L 481.329583 97.768223 
L 484.168574 97.394311 
L 485.114904 97.614339 
L 487.953895 97.586726 
L 488.900225 97.461345 
L 491.739216 97.597618 
L 492.685546 97.794721 
L 493.631876 97.866911 
L 494.578207 97.707301 
L 495.524537 97.775108 
L 497.417197 97.484559 
L 499.309858 97.626508 
L 502.148849 97.447786 
L 503.095179 97.342868 
L 504.041509 97.419188 
L 504.987839 97.329882 
L 506.8805 97.625114 
L 512.558481 97.539799 
L 517.290133 97.655206 
L 522.968114 97.687437 
L 524.860775 97.635235 
L 526.753435 97.413671 
L 527.699766 97.41478 
L 528.646096 97.608198 
L 533.377747 97.540294 
L 534.324077 97.396093 
L 540.002059 97.548795 
L 540.948389 97.417241 
L 542.84105 97.501125 
L 543.78738 97.688076 
L 545.680041 97.756465 
L 546.626371 97.558146 
L 547.572701 97.639903 
L 548.519031 97.434541 
L 554.197013 97.617558 
L 555.143343 97.572551 
L 556.089673 97.727266 
L 557.036004 97.624345 
L 557.982334 97.783761 
L 561.767655 97.541934 
L 562.713985 97.375008 
L 563.660315 97.337634 
L 565.552976 97.449508 
L 567.445636 97.387909 
L 568.391967 97.416473 
L 569.338297 97.652585 
L 571.230957 97.590922 
L 575.016279 97.598156 
L 575.962609 97.67456 
L 579.74793 97.562466 
L 581.64059 97.715422 
L 584.479581 97.619767 
L 586.372242 97.505073 
L 592.996553 97.467216 
L 594.889214 97.497133 
L 595.835544 97.552591 
L 596.781874 97.408093 
L 597.728205 97.507238 
L 599.620865 97.48835 
L 600.567195 97.597914 
L 601.513526 96.767647 
L 602.459856 97.318252 
L 603.406186 97.508252 
L 608.137838 97.720677 
L 609.084168 97.48618 
L 610.030498 97.368054 
L 610.976828 98.206461 
L 611.923159 97.7101 
L 612.869489 97.604628 
L 616.65481 97.563244 
L 617.60114 97.481375 
L 620.440131 97.772452 
L 624.225452 97.326204 
L 628.010773 97.535106 
L 632.742424 97.674294 
L 633.688755 97.804892 
L 636.527745 97.45677 
L 637.474076 97.597112 
L 638.420406 97.47324 
L 643.152057 97.612416 
L 645.044718 97.756883 
L 645.991048 97.750717 
L 646.937378 97.558763 
L 648.830039 97.664896 
L 652.61536 97.400781 
L 653.56169 97.282729 
L 655.45435 97.384742 
L 656.400681 97.546229 
L 657.347011 97.476048 
L 659.239671 97.563673 
L 661.132332 97.519523 
L 662.078662 97.410581 
L 663.971323 97.610324 
L 670.595635 97.426259 
L 671.541965 97.51276 
L 673.434625 97.382214 
L 681.005267 97.619856 
L 687.629579 97.34638 
L 688.575909 97.529248 
L 689.52224 97.400528 
L 692.361231 97.703858 
L 695.200221 97.665524 
L 697.092882 97.676007 
L 698.039212 97.4938 
L 699.931873 97.506189 
L 701.824533 97.452979 
L 707.502515 97.807113 
L 712.234166 97.412824 
L 713.180496 97.475517 
L 716.965817 97.368137 
L 717.912147 97.415411 
L 718.858478 97.621231 
L 720.751138 97.682622 
L 721.697469 97.693442 
L 722.643799 97.576103 
L 724.536459 97.510057 
L 725.48279 97.412958 
L 727.37545 97.552703 
L 729.268111 97.56535 
L 730.214441 97.649697 
L 733.999762 97.606737 
L 738.731413 97.634427 
L 739.677743 97.454812 
L 741.570404 97.462152 
L 743.463064 97.693494 
L 744.409395 97.644737 
L 745.355725 97.475108 
L 746.302055 97.461692 
L 747.248385 97.263655 
L 748.194716 97.290523 
L 750.087376 97.552018 
L 755.765358 97.517742 
L 756.711688 97.711481 
L 758.604349 97.626578 
L 761.443339 97.548096 
L 762.38967 97.456822 
L 764.28233 97.589002 
L 767.121321 97.534522 
L 768.067651 97.711185 
L 769.960312 97.632187 
L 770.906642 97.428249 
L 771.852972 97.50771 
L 773.745633 97.386658 
L 778.477284 97.296309 
L 780.369945 97.713461 
L 785.101596 97.59036 
L 786.047926 97.444364 
L 794.564898 97.655347 
L 795.511229 97.822042 
L 801.18921 97.341642 
L 802.13554 97.458059 
L 803.081871 97.365961 
L 806.867192 97.701858 
L 808.759852 97.419213 
L 812.545173 97.634765 
L 816.330494 97.453401 
L 819.169485 97.784857 
L 820.115815 97.788496 
L 821.062146 97.608361 
L 822.954806 97.652434 
L 823.901136 97.491794 
L 836.20343 97.539633 
L 838.09609 97.34791 
L 839.042421 97.316592 
L 840.935081 97.567298 
L 842.827742 97.635384 
L 844.720402 97.708907 
L 845.666732 103.820333 
L 846.613063 136.587272 
L 847.559393 189.976002 
L 848.505723 200.231487 
L 849.452053 213.040284 
L 850.398384 229.468347 
L 851.344714 251.406112 
L 851.344714 251.406112 
" style="fill:none;stroke:#d95f02;stroke-linecap:round;"/>
   </g>
   <g id="patch_3">
    <path d="M 250.425 89.73 
L 1717.2369 89.73 
" style="fill:none;"/>
   </g>
   <g id="patch_4">
    <path d="M 1717.2369 807.57 
L 1717.2369 89.73 
" style="fill:none;"/>
   </g>
   <g id="patch_5">
    <path d="M 250.425 807.57 
L 1717.2369 807.57 
" style="fill:none;"/>
   </g>
   <g id="patch_6">
    <path d="M 250.425 807.57 
L 250.425 89.73 
" style="fill:none;"/>
   </g>
   <g id="legend_1">
    <g id="line2d_105">
     <path d="M 1882.584609 97.825198 
L 1902.576609 97.825198 
" style="fill:none;stroke:#1b9e77;stroke-linecap:round;"/>
    </g>
    <g id="line2d_106"/>
    <g id="text_17">
     <!-- Download -->
     <defs>
      <path d="M 54.890625 33.015625 
L 54.890625 0 
L 45.90625 0 
L 45.90625 32.71875 
Q 45.90625 40.484375 42.875 44.328125 
Q 39.84375 48.1875 33.796875 48.1875 
Q 26.515625 48.1875 22.3125 43.546875 
Q 18.109375 38.921875 18.109375 30.90625 
L 18.109375 0 
L 9.078125 0 
L 9.078125 54.6875 
L 18.109375 54.6875 
L 18.109375 46.1875 
Q 21.34375 51.125 25.703125 53.5625 
Q 30.078125 56 35.796875 56 
Q 45.21875 56 50.046875 50.171875 
Q 54.890625 44.34375 54.890625 33.015625 
" id="BitstreamVeraSans-Roman-6e"/>
      <path d="M 30.609375 48.390625 
Q 23.390625 48.390625 19.1875 42.75 
Q 14.984375 37.109375 14.984375 27.296875 
Q 14.984375 17.484375 19.15625 11.84375 
Q 23.34375 6.203125 30.609375 6.203125 
Q 37.796875 6.203125 41.984375 11.859375 
Q 46.1875 17.53125 46.1875 27.296875 
Q 46.1875 37.015625 41.984375 42.703125 
Q 37.796875 48.390625 30.609375 48.390625 
M 30.609375 56 
Q 42.328125 56 49.015625 48.375 
Q 55.71875 40.765625 55.71875 27.296875 
Q 55.71875 13.875 49.015625 6.21875 
Q 42.328125 -1.421875 30.609375 -1.421875 
Q 18.84375 -1.421875 12.171875 6.21875 
Q 5.515625 13.875 5.515625 27.296875 
Q 5.515625 40.765625 12.171875 48.375 
Q 18.84375 56 30.609375 56 
" id="BitstreamVeraSans-Roman-6f"/>
      <path d="M 9.421875 75.984375 
L 18.40625 75.984375 
L 18.40625 0 
L 9.421875 0 
z
" id="BitstreamVeraSans-Roman-6c"/>
      <path d="M 19.671875 64.796875 
L 19.671875 8.109375 
L 31.59375 8.109375 
Q 46.6875 8.109375 53.6875 14.9375 
Q 60.6875 21.78125 60.6875 36.53125 
Q 60.6875 51.171875 53.6875 57.984375 
Q 46.6875 64.796875 31.59375 64.796875 
z
M 9.8125 72.90625 
L 30.078125 72.90625 
Q 51.265625 72.90625 61.171875 64.09375 
Q 71.09375 55.28125 71.09375 36.53125 
Q 71.09375 17.671875 61.125 8.828125 
Q 51.171875 0 30.078125 0 
L 9.8125 0 
z
" id="BitstreamVeraSans-Roman-44"/>
      <path d="M 45.40625 46.390625 
L 45.40625 75.984375 
L 54.390625 75.984375 
L 54.390625 0 
L 45.40625 0 
L 45.40625 8.203125 
Q 42.578125 3.328125 38.25 0.953125 
Q 33.9375 -1.421875 27.875 -1.421875 
Q 17.96875 -1.421875 11.734375 6.484375 
Q 5.515625 14.40625 5.515625 27.296875 
Q 5.515625 40.1875 11.734375 48.09375 
Q 17.96875 56 27.875 56 
Q 33.9375 56 38.25 53.625 
Q 42.578125 51.265625 45.40625 46.390625 
M 14.796875 27.296875 
Q 14.796875 17.390625 18.875 11.75 
Q 22.953125 6.109375 30.078125 6.109375 
Q 37.203125 6.109375 41.296875 11.75 
Q 45.40625 17.390625 45.40625 27.296875 
Q 45.40625 37.203125 41.296875 42.84375 
Q 37.203125 48.484375 30.078125 48.484375 
Q 22.953125 48.484375 18.875 42.84375 
Q 14.796875 37.203125 14.796875 27.296875 
" id="BitstreamVeraSans-Roman-64"/>
      <path d="M 4.203125 54.6875 
L 13.1875 54.6875 
L 24.421875 12.015625 
L 35.59375 54.6875 
L 46.1875 54.6875 
L 57.421875 12.015625 
L 68.609375 54.6875 
L 77.59375 54.6875 
L 63.28125 0 
L 52.6875 0 
L 40.921875 44.828125 
L 29.109375 0 
L 18.5 0 
z
" id="BitstreamVeraSans-Roman-77"/>
      <path d="M 34.28125 27.484375 
Q 23.390625 27.484375 19.1875 25 
Q 14.984375 22.515625 14.984375 16.5 
Q 14.984375 11.71875 18.140625 8.90625 
Q 21.296875 6.109375 26.703125 6.109375 
Q 34.1875 6.109375 38.703125 11.40625 
Q 43.21875 16.703125 43.21875 25.484375 
L 43.21875 27.484375 
z
M 52.203125 31.203125 
L 52.203125 0 
L 43.21875 0 
L 43.21875 8.296875 
Q 40.140625 3.328125 35.546875 0.953125 
Q 30.953125 -1.421875 24.3125 -1.421875 
Q 15.921875 -1.421875 10.953125 3.296875 
Q 6 8.015625 6 15.921875 
Q 6 25.140625 12.171875 29.828125 
Q 18.359375 34.515625 30.609375 34.515625 
L 43.21875 34.515625 
L 43.21875 35.40625 
Q 43.21875 41.609375 39.140625 45 
Q 35.0625 48.390625 27.6875 48.390625 
Q 23 48.390625 18.546875 47.265625 
Q 14.109375 46.140625 10.015625 43.890625 
L 10.015625 52.203125 
Q 14.9375 54.109375 19.578125 55.046875 
Q 24.21875 56 28.609375 56 
Q 40.484375 56 46.34375 49.84375 
Q 52.203125 43.703125 52.203125 31.203125 
" id="BitstreamVeraSans-Roman-61"/>
     </defs>
     <g style="fill:#262626;" transform="translate(1910.573409 101.323798125)scale(0.09996 -0.09996)">
      <use xlink:href="#BitstreamVeraSans-Roman-44"/>
      <use x="77.001953125" xlink:href="#BitstreamVeraSans-Roman-6f"/>
      <use x="138.18359375" xlink:href="#BitstreamVeraSans-Roman-77"/>
      <use x="219.970703125" xlink:href="#BitstreamVeraSans-Roman-6e"/>
      <use x="283.349609375" xlink:href="#BitstreamVeraSans-Roman-6c"/>
      <use x="311.1328125" xlink:href="#BitstreamVeraSans-Roman-6f"/>
      <use x="372.314453125" xlink:href="#BitstreamVeraSans-Roman-61"/>
      <use x="433.59375" xlink:href="#BitstreamVeraSans-Roman-64"/>
     </g>
    </g>
    <g id="line2d_107">
     <path d="M 1882.584609 112.497452 
L 1902.576609 112.497452 
" style="fill:none;stroke:#d95f02;stroke-linecap:round;"/>
    </g>
    <g id="line2d_108"/>
    <g id="text_18">
     <!-- Upload -->
     <defs>
      <path d="M 8.6875 72.90625 
L 18.609375 72.90625 
L 18.609375 28.609375 
Q 18.609375 16.890625 22.84375 11.734375 
Q 27.09375 6.59375 36.625 6.59375 
Q 46.09375 6.59375 50.34375 11.734375 
Q 54.59375 16.890625 54.59375 28.609375 
L 54.59375 72.90625 
L 64.5 72.90625 
L 64.5 27.390625 
Q 64.5 13.140625 57.4375 5.859375 
Q 50.390625 -1.421875 36.625 -1.421875 
Q 22.796875 -1.421875 15.734375 5.859375 
Q 8.6875 13.140625 8.6875 27.390625 
z
" id="BitstreamVeraSans-Roman-55"/>
      <path d="M 18.109375 8.203125 
L 18.109375 -20.796875 
L 9.078125 -20.796875 
L 9.078125 54.6875 
L 18.109375 54.6875 
L 18.109375 46.390625 
Q 20.953125 51.265625 25.265625 53.625 
Q 29.59375 56 35.59375 56 
Q 45.5625 56 51.78125 48.09375 
Q 58.015625 40.1875 58.015625 27.296875 
Q 58.015625 14.40625 51.78125 6.484375 
Q 45.5625 -1.421875 35.59375 -1.421875 
Q 29.59375 -1.421875 25.265625 0.953125 
Q 20.953125 3.328125 18.109375 8.203125 
M 48.6875 27.296875 
Q 48.6875 37.203125 44.609375 42.84375 
Q 40.53125 48.484375 33.40625 48.484375 
Q 26.265625 48.484375 22.1875 42.84375 
Q 18.109375 37.203125 18.109375 27.296875 
Q 18.109375 17.390625 22.1875 11.75 
Q 26.265625 6.109375 33.40625 6.109375 
Q 40.53125 6.109375 44.609375 11.75 
Q 48.6875 17.390625 48.6875 27.296875 
" id="BitstreamVeraSans-Roman-70"/>
     </defs>
     <g style="fill:#262626;" transform="translate(1910.573409 115.996051875)scale(0.09996 -0.09996)">
      <use xlink:href="#BitstreamVeraSans-Roman-55"/>
      <use x="73.193359375" xlink:href="#BitstreamVeraSans-Roman-70"/>
      <use x="136.669921875" xlink:href="#BitstreamVeraSans-Roman-6c"/>
      <use x="164.453125" xlink:href="#BitstreamVeraSans-Roman-6f"/>
      <use x="225.634765625" xlink:href="#BitstreamVeraSans-Roman-61"/>
      <use x="286.9140625" xlink:href="#BitstreamVeraSans-Roman-64"/>
     </g>
    </g>
    <g id="line2d_109">
     <path d="M 1882.584609 127.169706 
L 1902.576609 127.169706 
" style="fill:none;stroke:#7570b3;stroke-linecap:round;"/>
    </g>
    <g id="line2d_110"/>
    <g id="text_19">
     <!-- Ping (ms) -->
     <defs>
      <path d="M 19.671875 64.796875 
L 19.671875 37.40625 
L 32.078125 37.40625 
Q 38.96875 37.40625 42.71875 40.96875 
Q 46.484375 44.53125 46.484375 51.125 
Q 46.484375 57.671875 42.71875 61.234375 
Q 38.96875 64.796875 32.078125 64.796875 
z
M 9.8125 72.90625 
L 32.078125 72.90625 
Q 44.34375 72.90625 50.609375 67.359375 
Q 56.890625 61.8125 56.890625 51.125 
Q 56.890625 40.328125 50.609375 34.8125 
Q 44.34375 29.296875 32.078125 29.296875 
L 19.671875 29.296875 
L 19.671875 0 
L 9.8125 0 
z
" id="BitstreamVeraSans-Roman-50"/>
      <path d="M 45.40625 27.984375 
Q 45.40625 37.75 41.375 43.109375 
Q 37.359375 48.484375 30.078125 48.484375 
Q 22.859375 48.484375 18.828125 43.109375 
Q 14.796875 37.75 14.796875 27.984375 
Q 14.796875 18.265625 18.828125 12.890625 
Q 22.859375 7.515625 30.078125 7.515625 
Q 37.359375 7.515625 41.375 12.890625 
Q 45.40625 18.265625 45.40625 27.984375 
M 54.390625 6.78125 
Q 54.390625 -7.171875 48.1875 -13.984375 
Q 42 -20.796875 29.203125 -20.796875 
Q 24.46875 -20.796875 20.265625 -20.09375 
Q 16.0625 -19.390625 12.109375 -17.921875 
L 12.109375 -9.1875 
Q 16.0625 -11.328125 19.921875 -12.34375 
Q 23.78125 -13.375 27.78125 -13.375 
Q 36.625 -13.375 41.015625 -8.765625 
Q 45.40625 -4.15625 45.40625 5.171875 
L 45.40625 9.625 
Q 42.625 4.78125 38.28125 2.390625 
Q 33.9375 0 27.875 0 
Q 17.828125 0 11.671875 7.65625 
Q 5.515625 15.328125 5.515625 27.984375 
Q 5.515625 40.671875 11.671875 48.328125 
Q 17.828125 56 27.875 56 
Q 33.9375 56 38.28125 53.609375 
Q 42.625 51.21875 45.40625 46.390625 
L 45.40625 54.6875 
L 54.390625 54.6875 
z
" id="BitstreamVeraSans-Roman-67"/>
     </defs>
     <g style="fill:#262626;" transform="translate(1910.573409 130.668305625)scale(0.09996 -0.09996)">
      <use xlink:href="#BitstreamVeraSans-Roman-50"/>
      <use x="60.271484375" xlink:href="#BitstreamVeraSans-Roman-69"/>
      <use x="88.0546875" xlink:href="#BitstreamVeraSans-Roman-6e"/>
      <use x="151.43359375" xlink:href="#BitstreamVeraSans-Roman-67"/>
      <use x="214.91015625" xlink:href="#BitstreamVeraSans-Roman-20"/>
      <use x="246.697265625" xlink:href="#BitstreamVeraSans-Roman-28"/>
      <use x="285.7109375" xlink:href="#BitstreamVeraSans-Roman-6d"/>
      <use x="383.123046875" xlink:href="#BitstreamVeraSans-Roman-73"/>
      <use x="435.22265625" xlink:href="#BitstreamVeraSans-Roman-29"/>
     </g>
    </g>
   </g>
  </g>
  <g id="axes_2">
   <g id="matplotlib.axis_3">
    <g id="ytick_39">
     <g id="line2d_111">
      <g>
       <use style="fill:#262626;stroke:#262626;stroke-width:0.5;" x="1717.2369" xlink:href="#m3c0c23c0f2" y="802.524648998"/>
      </g>
     </g>
     <g id="text_20">
      <!-- 0 -->
      <g style="fill:#262626;" transform="translate(1721.2369 805.835898998)scale(0.12 -0.12)">
       <use xlink:href="#BitstreamVeraSans-Roman-30"/>
      </g>
     </g>
    </g>
    <g id="ytick_40">
     <g id="line2d_112">
      <g>
       <use style="fill:#262626;stroke:#262626;stroke-width:0.5;" x="1717.2369" xlink:href="#m3c0c23c0f2" y="604.735025383"/>
      </g>
     </g>
     <g id="text_21">
      <!-- 50 -->
      <g style="fill:#262626;" transform="translate(1721.2369 608.046275383)scale(0.12 -0.12)">
       <use xlink:href="#BitstreamVeraSans-Roman-35"/>
       <use x="63.623046875" xlink:href="#BitstreamVeraSans-Roman-30"/>
      </g>
     </g>
    </g>
    <g id="ytick_41">
     <g id="line2d_113">
      <g>
       <use style="fill:#262626;stroke:#262626;stroke-width:0.5;" x="1717.2369" xlink:href="#m3c0c23c0f2" y="406.945401769"/>
      </g>
     </g>
     <g id="text_22">
      <!-- 100 -->
      <g style="fill:#262626;" transform="translate(1721.2369 410.256651769)scale(0.12 -0.12)">
       <use xlink:href="#BitstreamVeraSans-Roman-31"/>
       <use x="63.623046875" xlink:href="#BitstreamVeraSans-Roman-30"/>
       <use x="127.24609375" xlink:href="#BitstreamVeraSans-Roman-30"/>
      </g>
     </g>
    </g>
    <g id="ytick_42">
     <g id="line2d_114">
      <g>
       <use style="fill:#262626;stroke:#262626;stroke-width:0.5;" x="1717.2369" xlink:href="#m3c0c23c0f2" y="209.155778155"/>
      </g>
     </g>
     <g id="text_23">
      <!-- 150 -->
      <g style="fill:#262626;" transform="translate(1721.2369 212.467028155)scale(0.12 -0.12)">
       <use xlink:href="#BitstreamVeraSans-Roman-31"/>
       <use x="63.623046875" xlink:href="#BitstreamVeraSans-Roman-35"/>
       <use x="127.24609375" xlink:href="#BitstreamVeraSans-Roman-30"/>
      </g>
     </g>
    </g>
    <g id="ytick_43">
     <g id="line2d_115">
      <g>
       <use style="fill:#262626;stroke:#262626;stroke-width:0.5;" x="1717.2369" xlink:href="#m3c0c23c0f2" y="762.966724275"/>
      </g>
     </g>
    </g>
    <g id="ytick_44">
     <g id="line2d_116">
      <g>
       <use style="fill:#262626;stroke:#262626;stroke-width:0.5;" x="1717.2369" xlink:href="#m3c0c23c0f2" y="723.408799552"/>
      </g>
     </g>
    </g>
    <g id="ytick_45">
     <g id="line2d_117">
      <g>
       <use style="fill:#262626;stroke:#262626;stroke-width:0.5;" x="1717.2369" xlink:href="#m3c0c23c0f2" y="683.850874829"/>
      </g>
     </g>
    </g>
    <g id="ytick_46">
     <g id="line2d_118">
      <g>
       <use style="fill:#262626;stroke:#262626;stroke-width:0.5;" x="1717.2369" xlink:href="#m3c0c23c0f2" y="644.292950106"/>
      </g>
     </g>
    </g>
    <g id="ytick_47">
     <g id="line2d_119">
      <g>
       <use style="fill:#262626;stroke:#262626;stroke-width:0.5;" x="1717.2369" xlink:href="#m3c0c23c0f2" y="565.177100661"/>
      </g>
     </g>
    </g>
    <g id="ytick_48">
     <g id="line2d_120">
      <g>
       <use style="fill:#262626;stroke:#262626;stroke-width:0.5;" x="1717.2369" xlink:href="#m3c0c23c0f2" y="525.619175938"/>
      </g>
     </g>
    </g>
    <g id="ytick_49">
     <g id="line2d_121">
      <g>
       <use style="fill:#262626;stroke:#262626;stroke-width:0.5;" x="1717.2369" xlink:href="#m3c0c23c0f2" y="486.061251215"/>
      </g>
     </g>
    </g>
    <g id="ytick_50">
     <g id="line2d_122">
      <g>
       <use style="fill:#262626;stroke:#262626;stroke-width:0.5;" x="1717.2369" xlink:href="#m3c0c23c0f2" y="446.503326492"/>
      </g>
     </g>
    </g>
    <g id="ytick_51">
     <g id="line2d_123">
      <g>
       <use style="fill:#262626;stroke:#262626;stroke-width:0.5;" x="1717.2369" xlink:href="#m3c0c23c0f2" y="367.387477046"/>
      </g>
     </g>
    </g>
    <g id="ytick_52">
     <g id="line2d_124">
      <g>
       <use style="fill:#262626;stroke:#262626;stroke-width:0.5;" x="1717.2369" xlink:href="#m3c0c23c0f2" y="327.829552324"/>
      </g>
     </g>
    </g>
    <g id="ytick_53">
     <g id="line2d_125">
      <g>
       <use style="fill:#262626;stroke:#262626;stroke-width:0.5;" x="1717.2369" xlink:href="#m3c0c23c0f2" y="288.271627601"/>
      </g>
     </g>
    </g>
    <g id="ytick_54">
     <g id="line2d_126">
      <g>
       <use style="fill:#262626;stroke:#262626;stroke-width:0.5;" x="1717.2369" xlink:href="#m3c0c23c0f2" y="248.713702878"/>
      </g>
     </g>
    </g>
    <g id="ytick_55">
     <g id="line2d_127">
      <g>
       <use style="fill:#262626;stroke:#262626;stroke-width:0.5;" x="1717.2369" xlink:href="#m3c0c23c0f2" y="169.597853432"/>
      </g>
     </g>
    </g>
    <g id="ytick_56">
     <g id="line2d_128">
      <g>
       <use style="fill:#262626;stroke:#262626;stroke-width:0.5;" x="1717.2369" xlink:href="#m3c0c23c0f2" y="130.039928709"/>
      </g>
     </g>
    </g>
    <g id="ytick_57">
     <g id="line2d_129">
      <g>
       <use style="fill:#262626;stroke:#262626;stroke-width:0.5;" x="1717.2369" xlink:href="#m3c0c23c0f2" y="90.4820039865"/>
      </g>
     </g>
    </g>
    <g id="text_24">
     <!-- Latency (ms) -->
     <defs>
      <path d="M 9.8125 72.90625 
L 19.671875 72.90625 
L 19.671875 8.296875 
L 55.171875 8.296875 
L 55.171875 0 
L 9.8125 0 
z
" id="BitstreamVeraSans-Roman-4c"/>
      <path d="M 48.78125 52.59375 
L 48.78125 44.1875 
Q 44.96875 46.296875 41.140625 47.34375 
Q 37.3125 48.390625 33.40625 48.390625 
Q 24.65625 48.390625 19.8125 42.84375 
Q 14.984375 37.3125 14.984375 27.296875 
Q 14.984375 17.28125 19.8125 11.734375 
Q 24.65625 6.203125 33.40625 6.203125 
Q 37.3125 6.203125 41.140625 7.25 
Q 44.96875 8.296875 48.78125 10.40625 
L 48.78125 2.09375 
Q 45.015625 0.34375 40.984375 -0.53125 
Q 36.96875 -1.421875 32.421875 -1.421875 
Q 20.0625 -1.421875 12.78125 6.34375 
Q 5.515625 14.109375 5.515625 27.296875 
Q 5.515625 40.671875 12.859375 48.328125 
Q 20.21875 56 33.015625 56 
Q 37.15625 56 41.109375 55.140625 
Q 45.0625 54.296875 48.78125 52.59375 
" id="BitstreamVeraSans-Roman-63"/>
      <path d="M 32.171875 -5.078125 
Q 28.375 -14.84375 24.75 -17.8125 
Q 21.140625 -20.796875 15.09375 -20.796875 
L 7.90625 -20.796875 
L 7.90625 -13.28125 
L 13.1875 -13.28125 
Q 16.890625 -13.28125 18.9375 -11.515625 
Q 21 -9.765625 23.484375 -3.21875 
L 25.09375 0.875 
L 2.984375 54.6875 
L 12.5 54.6875 
L 29.59375 11.921875 
L 46.6875 54.6875 
L 56.203125 54.6875 
z
" id="BitstreamVeraSans-Roman-79"/>
     </defs>
     <g style="fill:#262626;" transform="translate(1758.260025 487.925625)rotate(-90.0)scale(0.12 -0.12)">
      <use xlink:href="#BitstreamVeraSans-Roman-4c"/>
      <use x="55.712890625" xlink:href="#BitstreamVeraSans-Roman-61"/>
      <use x="116.9921875" xlink:href="#BitstreamVeraSans-Roman-74"/>
      <use x="156.201171875" xlink:href="#BitstreamVeraSans-Roman-65"/>
      <use x="217.724609375" xlink:href="#BitstreamVeraSans-Roman-6e"/>
      <use x="281.103515625" xlink:href="#BitstreamVeraSans-Roman-63"/>
      <use x="336.083984375" xlink:href="#BitstreamVeraSans-Roman-79"/>
      <use x="395.263671875" xlink:href="#BitstreamVeraSans-Roman-20"/>
      <use x="427.05078125" xlink:href="#BitstreamVeraSans-Roman-28"/>
      <use x="466.064453125" xlink:href="#BitstreamVeraSans-Roman-6d"/>
      <use x="563.4765625" xlink:href="#BitstreamVeraSans-Roman-73"/>
      <use x="615.576171875" xlink:href="#BitstreamVeraSans-Roman-29"/>
     </g>
    </g>
   </g>
   <g id="line2d_130">
    <path clip-path="url(#p0b5e48514d)" d="M 250.425 798.819415 
L 257.995642 798.918656 
L 269.351605 798.815789 
L 270.297935 798.647919 
L 271.244266 797.126863 
L 274.083256 791.039831 
L 275.029587 789.766929 
L 278.814908 786.047132 
L 279.761238 785.314724 
L 280.707568 785.924462 
L 283.546559 789.121946 
L 284.492889 789.48408 
L 288.27821 789.37104 
L 290.170871 789.196584 
L 296.795183 789.175258 
L 301.526834 789.285656 
L 303.419494 789.301302 
L 310.043806 789.30908 
L 311.936467 789.346593 
L 313.829127 789.259503 
L 316.668118 789.227059 
L 319.507109 789.298548 
L 328.024081 789.351001 
L 329.916742 789.238899 
L 334.648393 789.149093 
L 335.594723 783.486311 
L 336.541053 766.514196 
L 337.487384 741.734906 
L 340.326375 656.054154 
L 341.272705 623.316248 
L 343.165365 544.817661 
L 344.111696 503.853433 
L 345.058026 468.222167 
L 346.004356 440.033383 
L 347.897017 393.342669 
L 349.789677 356.438115 
L 350.736007 333.896404 
L 351.682338 325.825299 
L 352.628668 331.615219 
L 353.574998 329.20572 
L 354.521328 320.559422 
L 355.467659 308.146473 
L 356.413989 291.627621 
L 357.360319 287.764862 
L 358.306649 272.938915 
L 359.25298 230.892621 
L 360.19931 219.862935 
L 361.14564 226.235513 
L 362.09197 214.574495 
L 363.038301 189.653323 
L 363.984631 184.75456 
L 364.930961 190.231519 
L 365.877291 214.089373 
L 367.769952 242.897852 
L 368.716282 291.42906 
L 369.662613 315.125697 
L 371.555273 295.711725 
L 372.501603 322.832415 
L 373.447934 329.788104 
L 374.394264 328.112774 
L 375.340594 304.918488 
L 377.233255 241.751848 
L 379.125915 287.615243 
L 381.018576 318.98295 
L 381.964906 320.944664 
L 382.911236 322.030562 
L 383.857566 308.850161 
L 385.750227 346.027232 
L 386.696557 361.381281 
L 387.642887 330.726383 
L 388.589218 292.603816 
L 389.535548 265.938407 
L 390.481878 257.869698 
L 391.428208 252.022358 
L 392.374539 253.912678 
L 393.320869 276.962052 
L 394.267199 272.929134 
L 395.213529 277.943495 
L 396.15986 294.44462 
L 397.10619 294.861604 
L 398.05252 308.041837 
L 398.998851 310.941482 
L 399.945181 298.837085 
L 400.891511 263.813683 
L 401.837841 253.94629 
L 402.784172 248.51148 
L 403.730502 238.541397 
L 404.676832 195.142232 
L 405.623162 157.022172 
L 407.515823 170.650598 
L 408.462153 185.082284 
L 409.408483 197.397035 
L 410.354814 229.297355 
L 411.301144 240.632513 
L 412.247474 227.782547 
L 413.193804 226.787267 
L 414.140135 236.839603 
L 415.086465 261.202605 
L 416.032795 251.675496 
L 416.979125 227.302548 
L 418.871786 204.43948 
L 420.764446 157.689659 
L 421.710777 143.715417 
L 422.657107 138.693558 
L 423.603437 153.796055 
L 424.549767 141.598622 
L 425.496098 122.145976 
L 426.442428 122.9719 
L 427.388758 113.76515 
L 428.335089 96.767647 
L 429.281419 114.863729 
L 430.227749 141.26148 
L 431.174079 172.076967 
L 432.12041 179.14294 
L 433.06674 167.434786 
L 434.01307 188.690494 
L 434.9594 190.364194 
L 435.905731 204.444146 
L 436.852061 223.322172 
L 437.798391 249.075493 
L 438.744721 248.553761 
L 439.691052 238.381394 
L 440.637382 261.281785 
L 441.583712 312.633942 
L 442.530042 390.974 
L 443.476373 442.699573 
L 444.422703 514.756849 
L 447.261694 661.454661 
L 449.154354 768.222641 
L 450.100684 791.820243 
L 451.047015 798.985061 
L 451.993345 800.163076 
L 460.510317 800.058 
L 462.402978 800.083674 
L 464.295638 800.134512 
L 465.241969 799.941487 
L 466.188299 799.87318 
L 468.080959 799.961319 
L 473.758941 799.944627 
L 475.651601 800.11668 
L 483.222243 800.108737 
L 486.061234 800.311958 
L 488.900225 800.328557 
L 491.739216 800.300915 
L 496.470867 800.211736 
L 504.987839 800.438975 
L 506.8805 800.173542 
L 516.343803 800.265117 
L 518.236463 800.022112 
L 521.075454 799.826447 
L 522.968114 799.811379 
L 523.914445 799.790639 
L 526.753435 800.266754 
L 544.73371 799.85997 
L 545.680041 799.731643 
L 546.626371 799.749078 
L 548.519031 800.130278 
L 551.358022 800.275991 
L 553.250683 800.205674 
L 555.143343 800.476287 
L 557.982334 800.387682 
L 559.874994 800.347777 
L 561.767655 800.532353 
L 564.606646 800.301726 
L 566.499306 800.250892 
L 571.230957 800.020383 
L 573.123618 800.181563 
L 575.016279 800.098459 
L 580.69426 800.029742 
L 581.64059 799.944465 
L 583.533251 800.11356 
L 585.425911 800.159569 
L 587.318572 800.18616 
L 588.264902 800.338708 
L 589.211232 800.362746 
L 590.157563 800.216861 
L 609.084168 800.204345 
L 610.030498 800.32383 
L 614.762149 800.113428 
L 615.70848 800.314527 
L 617.60114 800.356505 
L 620.440131 800.315622 
L 622.332791 800.432368 
L 626.118112 800.276058 
L 628.010773 800.295271 
L 628.957103 800.13897 
L 631.796094 800.132872 
L 633.688755 800.297405 
L 634.635085 800.304286 
L 636.527745 800.014613 
L 637.474076 800.042885 
L 639.366736 800.297466 
L 651.669029 800.100895 
L 654.50802 799.919512 
L 657.347011 800.072598 
L 660.186002 800.131605 
L 663.024993 800.358978 
L 668.702974 800.332193 
L 670.595635 800.093657 
L 672.488295 800.161337 
L 673.434625 800.22257 
L 675.327286 799.985253 
L 679.112607 800.064441 
L 681.005267 800.095179 
L 682.897928 799.999786 
L 685.736919 800.306663 
L 689.52224 800.284442 
L 694.253891 800.281904 
L 696.146552 800.248422 
L 704.663524 800.458651 
L 708.448845 800.312719 
L 713.180496 800.232021 
L 715.073157 800.422372 
L 724.536459 799.7148 
L 727.37545 799.811558 
L 729.268111 799.985631 
L 732.107101 799.87014 
L 733.999762 799.977221 
L 735.892422 800.002474 
L 737.785083 799.829247 
L 739.677743 799.940789 
L 741.570404 799.955779 
L 743.463064 799.847255 
L 745.355725 799.8907 
L 747.248385 800.142562 
L 750.087376 800.056078 
L 751.980037 800.205717 
L 754.819028 799.989817 
L 756.711688 799.988396 
L 758.604349 800.198217 
L 760.497009 800.22319 
L 761.443339 800.200223 
L 763.336 800.370851 
L 769.013981 799.976796 
L 773.745633 799.957398 
L 774.691963 799.822899 
L 778.477284 799.859819 
L 780.369945 799.869551 
L 782.262605 800.04835 
L 786.047926 800.174753 
L 787.940587 800.270745 
L 792.672238 800.045585 
L 793.618568 800.13543 
L 798.350219 800.11614 
L 800.24288 800.225429 
L 808.759852 800.093439 
L 811.598843 799.902313 
L 813.491504 799.948927 
L 816.330494 800.237451 
L 818.223155 800.09556 
L 822.954806 800.409415 
L 825.793797 800.208832 
L 828.632788 800.303413 
L 831.471778 800.065487 
L 837.14976 800.137218 
L 841.881411 799.887486 
L 844.720402 799.929565 
L 847.559393 799.711259 
L 848.505723 799.781426 
M 906.231869 790.924094 
L 907.178199 788.942286 
L 908.124529 786.630651 
L 909.07086 787.708633 
L 910.01719 788.543441 
L 910.96352 789.116804 
L 913.802511 789.950557 
L 914.748841 790.399035 
L 915.695171 790.991199 
L 916.641502 792.940175 
L 917.587832 795.503021 
L 919.480492 796.100009 
L 922.319483 797.384891 
L 923.265813 797.890149 
L 924.212144 798.205593 
L 925.158474 798.3936 
L 930.836456 798.391637 
L 947.8704 798.429669 
L 953.548382 798.392959 
L 956.387373 798.437303 
L 959.226363 798.471101 
L 972.474987 798.398662 
L 980.991959 798.504908 
L 993.294253 798.565981 
L 998.025904 798.40188 
L 1001.811225 798.445658 
L 1007.489206 798.497834 
L 1012.220858 798.337624 
L 1015.059849 798.362799 
L 1018.84517 798.361466 
L 1021.68416 798.355902 
L 1024.523151 798.334195 
L 1029.254802 798.375827 
L 1051.020398 798.364893 
L 1054.805719 798.28479 
L 1063.322692 798.468506 
L 1067.108013 798.508013 
L 1082.249297 798.422939 
L 1085.088288 798.489479 
L 1096.444251 798.272555 
L 1098.336911 798.318034 
L 1100.229572 798.308198 
L 1105.907553 798.375588 
L 1107.800214 798.380945 
L 1109.692874 798.4446 
L 1120.102507 798.565982 
L 1127.673149 798.453707 
L 1130.51214 798.584388 
L 1156.063057 798.475944 
L 1162.687369 798.610986 
L 1172.150671 798.434641 
L 1193.916267 798.532515 
L 1195.808928 798.517746 
L 1198.647919 798.599984 
L 1206.218561 798.509391 
L 1208.111221 798.533378 
L 1211.896542 798.493986 
L 1214.735533 798.530287 
L 1219.467184 798.469473 
L 1224.198836 798.505112 
L 1226.091496 798.47265 
L 1228.930487 798.39568 
L 1233.662138 798.336478 
L 1234.608468 798.282173 
L 1237.447459 798.363073 
L 1240.28645 798.349665 
L 1250.696083 798.510546 
L 1270.569018 798.520447 
L 1272.461679 798.562229 
L 1276.247 798.543996 
L 1284.763972 798.546104 
L 1286.656633 798.495173 
L 1291.388284 798.634339 
L 1301.797917 798.486343 
L 1304.636907 798.511481 
L 1318.831861 798.491709 
L 1331.134155 798.517011 
L 1333.026815 798.511489 
L 1336.812136 798.488492 
L 1351.95342 798.51174 
L 1359.524062 798.353485 
L 1366.148374 798.463332 
L 1369.933695 798.426787 
L 1379.396998 798.463661 
L 1383.182319 798.559467 
L 1397.377273 798.453976 
L 1404.001585 798.51274 
L 1418.196538 798.73696 
L 1421.981859 798.625213 
L 1424.82085 798.599837 
L 1429.552502 798.558665 
L 1447.532776 798.499288 
L 1457.942409 798.454517 
L 1466.459382 798.558156 
L 1470.244703 798.545599 
L 1474.976354 798.550022 
L 1479.708005 798.503537 
L 1487.278647 798.513545 
L 1502.419931 799.004047 
L 1504.312592 798.906729 
L 1508.097913 798.861484 
L 1509.990573 798.839399 
L 1513.775895 798.953254 
L 1517.561216 799.018125 
L 1519.453876 799.048757 
L 1523.239197 799.021408 
L 1527.970848 798.981355 
L 1531.756169 799.023796 
L 1541.219472 799.061369 
L 1545.004793 799.058649 
L 1549.736444 799.009525 
L 1561.092407 798.851771 
L 1580.019013 799.160881 
L 1587.589655 799.021777 
L 1594.213966 798.928836 
L 1597.052957 798.866028 
L 1603.677269 798.962085 
L 1605.56993 799.04295 
L 1614.086902 799.003787 
L 1624.496535 799.116503 
L 1631.120847 799.057546 
L 1639.637819 798.828819 
L 1642.47681 798.843572 
L 1663.296075 799.031578 
L 1667.081396 799.040013 
L 1672.759378 798.917754 
L 1678.437359 798.971972 
L 1686.954332 799.211956 
L 1689.793323 799.123393 
L 1697.363965 798.886574 
L 1703.988276 799.027061 
L 1717.2369 798.954713 
L 1717.2369 798.954713 
" style="fill:none;stroke:#7570b3;stroke-linecap:round;"/>
   </g>
  </g>
  <g id="text_25">
   <!-- Realtime Response Under Load - exclusively Best Effort -->
   <defs>
    <path d="M 37.109375 75.984375 
L 37.109375 68.5 
L 28.515625 68.5 
Q 23.6875 68.5 21.796875 66.546875 
Q 19.921875 64.59375 19.921875 59.515625 
L 19.921875 54.6875 
L 34.71875 54.6875 
L 34.71875 47.703125 
L 19.921875 47.703125 
L 19.921875 0 
L 10.890625 0 
L 10.890625 47.703125 
L 2.296875 47.703125 
L 2.296875 54.6875 
L 10.890625 54.6875 
L 10.890625 58.5 
Q 10.890625 67.625 15.140625 71.796875 
Q 19.390625 75.984375 28.609375 75.984375 
z
" id="BitstreamVeraSans-Roman-66"/>
    <path d="M 9.8125 72.90625 
L 55.90625 72.90625 
L 55.90625 64.59375 
L 19.671875 64.59375 
L 19.671875 43.015625 
L 54.390625 43.015625 
L 54.390625 34.71875 
L 19.671875 34.71875 
L 19.671875 8.296875 
L 56.78125 8.296875 
L 56.78125 0 
L 9.8125 0 
z
" id="BitstreamVeraSans-Roman-45"/>
    <path d="M 44.390625 34.1875 
Q 47.5625 33.109375 50.5625 29.59375 
Q 53.5625 26.078125 56.59375 19.921875 
L 66.609375 0 
L 56 0 
L 46.6875 18.703125 
Q 43.0625 26.03125 39.671875 28.421875 
Q 36.28125 30.8125 30.421875 30.8125 
L 19.671875 30.8125 
L 19.671875 0 
L 9.8125 0 
L 9.8125 72.90625 
L 32.078125 72.90625 
Q 44.578125 72.90625 50.734375 67.671875 
Q 56.890625 62.453125 56.890625 51.90625 
Q 56.890625 45.015625 53.6875 40.46875 
Q 50.484375 35.9375 44.390625 34.1875 
M 19.671875 64.796875 
L 19.671875 38.921875 
L 32.078125 38.921875 
Q 39.203125 38.921875 42.84375 42.21875 
Q 46.484375 45.515625 46.484375 51.90625 
Q 46.484375 58.296875 42.84375 61.546875 
Q 39.203125 64.796875 32.078125 64.796875 
z
" id="BitstreamVeraSans-Roman-52"/>
    <path d="M 4.890625 31.390625 
L 31.203125 31.390625 
L 31.203125 23.390625 
L 4.890625 23.390625 
z
" id="BitstreamVeraSans-Roman-2d"/>
    <path d="M 54.890625 54.6875 
L 35.109375 28.078125 
L 55.90625 0 
L 45.3125 0 
L 29.390625 21.484375 
L 13.484375 0 
L 2.875 0 
L 24.125 28.609375 
L 4.6875 54.6875 
L 15.28125 54.6875 
L 29.78125 35.203125 
L 44.28125 54.6875 
z
" id="BitstreamVeraSans-Roman-78"/>
    <path d="M 2.984375 54.6875 
L 12.5 54.6875 
L 29.59375 8.796875 
L 46.6875 54.6875 
L 56.203125 54.6875 
L 35.6875 0 
L 23.484375 0 
z
" id="BitstreamVeraSans-Roman-76"/>
    <path d="M 8.5 21.578125 
L 8.5 54.6875 
L 17.484375 54.6875 
L 17.484375 21.921875 
Q 17.484375 14.15625 20.5 10.265625 
Q 23.53125 6.390625 29.59375 6.390625 
Q 36.859375 6.390625 41.078125 11.03125 
Q 45.3125 15.671875 45.3125 23.6875 
L 45.3125 54.6875 
L 54.296875 54.6875 
L 54.296875 0 
L 45.3125 0 
L 45.3125 8.40625 
Q 42.046875 3.421875 37.71875 1 
Q 33.40625 -1.421875 27.6875 -1.421875 
Q 18.265625 -1.421875 13.375 4.4375 
Q 8.5 10.296875 8.5 21.578125 
" id="BitstreamVeraSans-Roman-75"/>
    <path d="M 41.109375 46.296875 
Q 39.59375 47.171875 37.8125 47.578125 
Q 36.03125 48 33.890625 48 
Q 26.265625 48 22.1875 43.046875 
Q 18.109375 38.09375 18.109375 28.8125 
L 18.109375 0 
L 9.078125 0 
L 9.078125 54.6875 
L 18.109375 54.6875 
L 18.109375 46.1875 
Q 20.953125 51.171875 25.484375 53.578125 
Q 30.03125 56 36.53125 56 
Q 37.453125 56 38.578125 55.875 
Q 39.703125 55.765625 41.0625 55.515625 
z
" id="BitstreamVeraSans-Roman-72"/>
    <path d="M 19.671875 34.8125 
L 19.671875 8.109375 
L 35.5 8.109375 
Q 43.453125 8.109375 47.28125 11.40625 
Q 51.125 14.703125 51.125 21.484375 
Q 51.125 28.328125 47.28125 31.5625 
Q 43.453125 34.8125 35.5 34.8125 
z
M 19.671875 64.796875 
L 19.671875 42.828125 
L 34.28125 42.828125 
Q 41.5 42.828125 45.03125 45.53125 
Q 48.578125 48.25 48.578125 53.8125 
Q 48.578125 59.328125 45.03125 62.0625 
Q 41.5 64.796875 34.28125 64.796875 
z
M 9.8125 72.90625 
L 35.015625 72.90625 
Q 46.296875 72.90625 52.390625 68.21875 
Q 58.5 63.53125 58.5 54.890625 
Q 58.5 48.1875 55.375 44.234375 
Q 52.25 40.28125 46.1875 39.3125 
Q 53.46875 37.75 57.5 32.78125 
Q 61.53125 27.828125 61.53125 20.40625 
Q 61.53125 10.640625 54.890625 5.3125 
Q 48.25 0 35.984375 0 
L 9.8125 0 
z
" id="BitstreamVeraSans-Roman-42"/>
   </defs>
   <g style="fill:#262626;" transform="translate(806.7871875 10.6378125)scale(0.14 -0.14)">
    <use xlink:href="#BitstreamVeraSans-Roman-52"/>
    <use x="69.419921875" xlink:href="#BitstreamVeraSans-Roman-65"/>
    <use x="130.943359375" xlink:href="#BitstreamVeraSans-Roman-61"/>
    <use x="192.22265625" xlink:href="#BitstreamVeraSans-Roman-6c"/>
    <use x="220.005859375" xlink:href="#BitstreamVeraSans-Roman-74"/>
    <use x="259.21484375" xlink:href="#BitstreamVeraSans-Roman-69"/>
    <use x="286.998046875" xlink:href="#BitstreamVeraSans-Roman-6d"/>
    <use x="384.41015625" xlink:href="#BitstreamVeraSans-Roman-65"/>
    <use x="445.93359375" xlink:href="#BitstreamVeraSans-Roman-20"/>
    <use x="477.720703125" xlink:href="#BitstreamVeraSans-Roman-52"/>
    <use x="547.140625" xlink:href="#BitstreamVeraSans-Roman-65"/>
    <use x="608.6640625" xlink:href="#BitstreamVeraSans-Roman-73"/>
    <use x="660.763671875" xlink:href="#BitstreamVeraSans-Roman-70"/>
    <use x="724.240234375" xlink:href="#BitstreamVeraSans-Roman-6f"/>
    <use x="785.421875" xlink:href="#BitstreamVeraSans-Roman-6e"/>
    <use x="848.80078125" xlink:href="#BitstreamVeraSans-Roman-73"/>
    <use x="900.900390625" xlink:href="#BitstreamVeraSans-Roman-65"/>
    <use x="962.423828125" xlink:href="#BitstreamVeraSans-Roman-20"/>
    <use x="994.2109375" xlink:href="#BitstreamVeraSans-Roman-55"/>
    <use x="1067.40429688" xlink:href="#BitstreamVeraSans-Roman-6e"/>
    <use x="1130.78320312" xlink:href="#BitstreamVeraSans-Roman-64"/>
    <use x="1194.25976562" xlink:href="#BitstreamVeraSans-Roman-65"/>
    <use x="1255.78320312" xlink:href="#BitstreamVeraSans-Roman-72"/>
    <use x="1296.89648438" xlink:href="#BitstreamVeraSans-Roman-20"/>
    <use x="1328.68359375" xlink:href="#BitstreamVeraSans-Roman-4c"/>
    <use x="1384.38085938" xlink:href="#BitstreamVeraSans-Roman-6f"/>
    <use x="1445.5625" xlink:href="#BitstreamVeraSans-Roman-61"/>
    <use x="1506.84179688" xlink:href="#BitstreamVeraSans-Roman-64"/>
    <use x="1570.31835938" xlink:href="#BitstreamVeraSans-Roman-20"/>
    <use x="1602.10546875" xlink:href="#BitstreamVeraSans-Roman-2d"/>
    <use x="1638.18945312" xlink:href="#BitstreamVeraSans-Roman-20"/>
    <use x="1669.9765625" xlink:href="#BitstreamVeraSans-Roman-65"/>
    <use x="1731.484375" xlink:href="#BitstreamVeraSans-Roman-78"/>
    <use x="1790.6484375" xlink:href="#BitstreamVeraSans-Roman-63"/>
    <use x="1845.62890625" xlink:href="#BitstreamVeraSans-Roman-6c"/>
    <use x="1873.41210938" xlink:href="#BitstreamVeraSans-Roman-75"/>
    <use x="1936.79101562" xlink:href="#BitstreamVeraSans-Roman-73"/>
    <use x="1988.890625" xlink:href="#BitstreamVeraSans-Roman-69"/>
    <use x="2016.67382812" xlink:href="#BitstreamVeraSans-Roman-76"/>
    <use x="2075.85351562" xlink:href="#BitstreamVeraSans-Roman-65"/>
    <use x="2137.37695312" xlink:href="#BitstreamVeraSans-Roman-6c"/>
    <use x="2165.16015625" xlink:href="#BitstreamVeraSans-Roman-79"/>
    <use x="2224.33984375" xlink:href="#BitstreamVeraSans-Roman-20"/>
    <use x="2256.12695312" xlink:href="#BitstreamVeraSans-Roman-42"/>
    <use x="2324.73046875" xlink:href="#BitstreamVeraSans-Roman-65"/>
    <use x="2386.25390625" xlink:href="#BitstreamVeraSans-Roman-73"/>
    <use x="2438.35351562" xlink:href="#BitstreamVeraSans-Roman-74"/>
    <use x="2477.5625" xlink:href="#BitstreamVeraSans-Roman-20"/>
    <use x="2509.34960938" xlink:href="#BitstreamVeraSans-Roman-45"/>
    <use x="2572.53320312" xlink:href="#BitstreamVeraSans-Roman-66"/>
    <use x="2607.73828125" xlink:href="#BitstreamVeraSans-Roman-66"/>
    <use x="2642.94335938" xlink:href="#BitstreamVeraSans-Roman-6f"/>
    <use x="2704.125" xlink:href="#BitstreamVeraSans-Roman-72"/>
    <use x="2745.23828125" xlink:href="#BitstreamVeraSans-Roman-74"/>
   </g>
   <!-- Total bandwidth and average ping plot -->
   <defs>
    <path d="M 54.890625 33.015625 
L 54.890625 0 
L 45.90625 0 
L 45.90625 32.71875 
Q 45.90625 40.484375 42.875 44.328125 
Q 39.84375 48.1875 33.796875 48.1875 
Q 26.515625 48.1875 22.3125 43.546875 
Q 18.109375 38.921875 18.109375 30.90625 
L 18.109375 0 
L 9.078125 0 
L 9.078125 75.984375 
L 18.109375 75.984375 
L 18.109375 46.1875 
Q 21.34375 51.125 25.703125 53.5625 
Q 30.078125 56 35.796875 56 
Q 45.21875 56 50.046875 50.171875 
Q 54.890625 44.34375 54.890625 33.015625 
" id="BitstreamVeraSans-Roman-68"/>
   </defs>
   <g style="fill:#262626;" transform="translate(865.6375 26.31475)scale(0.14 -0.14)">
    <use xlink:href="#BitstreamVeraSans-Roman-54"/>
    <use x="60.818359375" xlink:href="#BitstreamVeraSans-Roman-6f"/>
    <use x="122.0" xlink:href="#BitstreamVeraSans-Roman-74"/>
    <use x="161.208984375" xlink:href="#BitstreamVeraSans-Roman-61"/>
    <use x="222.48828125" xlink:href="#BitstreamVeraSans-Roman-6c"/>
    <use x="250.271484375" xlink:href="#BitstreamVeraSans-Roman-20"/>
    <use x="282.05859375" xlink:href="#BitstreamVeraSans-Roman-62"/>
    <use x="345.53515625" xlink:href="#BitstreamVeraSans-Roman-61"/>
    <use x="406.814453125" xlink:href="#BitstreamVeraSans-Roman-6e"/>
    <use x="470.193359375" xlink:href="#BitstreamVeraSans-Roman-64"/>
    <use x="533.669921875" xlink:href="#BitstreamVeraSans-Roman-77"/>
    <use x="615.45703125" xlink:href="#BitstreamVeraSans-Roman-69"/>
    <use x="643.240234375" xlink:href="#BitstreamVeraSans-Roman-64"/>
    <use x="706.716796875" xlink:href="#BitstreamVeraSans-Roman-74"/>
    <use x="745.92578125" xlink:href="#BitstreamVeraSans-Roman-68"/>
    <use x="809.3046875" xlink:href="#BitstreamVeraSans-Roman-20"/>
    <use x="841.091796875" xlink:href="#BitstreamVeraSans-Roman-61"/>
    <use x="902.37109375" xlink:href="#BitstreamVeraSans-Roman-6e"/>
    <use x="965.75" xlink:href="#BitstreamVeraSans-Roman-64"/>
    <use x="1029.2265625" xlink:href="#BitstreamVeraSans-Roman-20"/>
    <use x="1061.01367188" xlink:href="#BitstreamVeraSans-Roman-61"/>
    <use x="1122.29296875" xlink:href="#BitstreamVeraSans-Roman-76"/>
    <use x="1181.47265625" xlink:href="#BitstreamVeraSans-Roman-65"/>
    <use x="1242.99609375" xlink:href="#BitstreamVeraSans-Roman-72"/>
    <use x="1284.109375" xlink:href="#BitstreamVeraSans-Roman-61"/>
    <use x="1345.38867188" xlink:href="#BitstreamVeraSans-Roman-67"/>
    <use x="1408.86523438" xlink:href="#BitstreamVeraSans-Roman-65"/>
    <use x="1470.38867188" xlink:href="#BitstreamVeraSans-Roman-20"/>
    <use x="1502.17578125" xlink:href="#BitstreamVeraSans-Roman-70"/>
    <use x="1565.65234375" xlink:href="#BitstreamVeraSans-Roman-69"/>
    <use x="1593.43554688" xlink:href="#BitstreamVeraSans-Roman-6e"/>
    <use x="1656.81445312" xlink:href="#BitstreamVeraSans-Roman-67"/>
    <use x="1720.29101562" xlink:href="#BitstreamVeraSans-Roman-20"/>
    <use x="1752.078125" xlink:href="#BitstreamVeraSans-Roman-70"/>
    <use x="1815.5546875" xlink:href="#BitstreamVeraSans-Roman-6c"/>
    <use x="1843.33789062" xlink:href="#BitstreamVeraSans-Roman-6f"/>
    <use x="1904.51953125" xlink:href="#BitstreamVeraSans-Roman-74"/>
   </g>
   <!-- route-change-patched -->
   <g style="fill:#262626;" transform="translate(923.7265625 41.9916875)scale(0.14 -0.14)">
    <use xlink:href="#BitstreamVeraSans-Roman-72"/>
    <use x="41.08203125" xlink:href="#BitstreamVeraSans-Roman-6f"/>
    <use x="102.263671875" xlink:href="#BitstreamVeraSans-Roman-75"/>
    <use x="165.642578125" xlink:href="#BitstreamVeraSans-Roman-74"/>
    <use x="204.8515625" xlink:href="#BitstreamVeraSans-Roman-65"/>
    <use x="266.375" xlink:href="#BitstreamVeraSans-Roman-2d"/>
    <use x="302.458984375" xlink:href="#BitstreamVeraSans-Roman-63"/>
    <use x="357.439453125" xlink:href="#BitstreamVeraSans-Roman-68"/>
    <use x="420.818359375" xlink:href="#BitstreamVeraSans-Roman-61"/>
    <use x="482.09765625" xlink:href="#BitstreamVeraSans-Roman-6e"/>
    <use x="545.4765625" xlink:href="#BitstreamVeraSans-Roman-67"/>
    <use x="608.953125" xlink:href="#BitstreamVeraSans-Roman-65"/>
    <use x="670.4765625" xlink:href="#BitstreamVeraSans-Roman-2d"/>
    <use x="706.560546875" xlink:href="#BitstreamVeraSans-Roman-70"/>
    <use x="770.037109375" xlink:href="#BitstreamVeraSans-Roman-61"/>
    <use x="831.31640625" xlink:href="#BitstreamVeraSans-Roman-74"/>
    <use x="870.525390625" xlink:href="#BitstreamVeraSans-Roman-63"/>
    <use x="925.505859375" xlink:href="#BitstreamVeraSans-Roman-68"/>
    <use x="988.884765625" xlink:href="#BitstreamVeraSans-Roman-65"/>
    <use x="1050.40820312" xlink:href="#BitstreamVeraSans-Roman-64"/>
   </g>
  </g>
  <g id="text_26">
   <!-- Local/remote: dancer/172.26.64.1 - Time: 2016-04-24T18:27:41.333973 - Length/step: 300s/0.20s -->
   <defs>
    <path d="M 33.015625 40.375 
Q 26.375 40.375 22.484375 35.828125 
Q 18.609375 31.296875 18.609375 23.390625 
Q 18.609375 15.53125 22.484375 10.953125 
Q 26.375 6.390625 33.015625 6.390625 
Q 39.65625 6.390625 43.53125 10.953125 
Q 47.40625 15.53125 47.40625 23.390625 
Q 47.40625 31.296875 43.53125 35.828125 
Q 39.65625 40.375 33.015625 40.375 
M 52.59375 71.296875 
L 52.59375 62.3125 
Q 48.875 64.0625 45.09375 64.984375 
Q 41.3125 65.921875 37.59375 65.921875 
Q 27.828125 65.921875 22.671875 59.328125 
Q 17.53125 52.734375 16.796875 39.40625 
Q 19.671875 43.65625 24.015625 45.921875 
Q 28.375 48.1875 33.59375 48.1875 
Q 44.578125 48.1875 50.953125 41.515625 
Q 57.328125 34.859375 57.328125 23.390625 
Q 57.328125 12.15625 50.6875 5.359375 
Q 44.046875 -1.421875 33.015625 -1.421875 
Q 20.359375 -1.421875 13.671875 8.265625 
Q 6.984375 17.96875 6.984375 36.375 
Q 6.984375 53.65625 15.1875 63.9375 
Q 23.390625 74.21875 37.203125 74.21875 
Q 40.921875 74.21875 44.703125 73.484375 
Q 48.484375 72.75 52.59375 71.296875 
" id="BitstreamVeraSans-Roman-36"/>
    <path d="M 8.203125 72.90625 
L 55.078125 72.90625 
L 55.078125 68.703125 
L 28.609375 0 
L 18.3125 0 
L 43.21875 64.59375 
L 8.203125 64.59375 
z
" id="BitstreamVeraSans-Roman-37"/>
    <path d="M 37.796875 64.3125 
L 12.890625 25.390625 
L 37.796875 25.390625 
z
M 35.203125 72.90625 
L 47.609375 72.90625 
L 47.609375 25.390625 
L 58.015625 25.390625 
L 58.015625 17.1875 
L 47.609375 17.1875 
L 47.609375 0 
L 37.796875 0 
L 37.796875 17.1875 
L 4.890625 17.1875 
L 4.890625 26.703125 
z
" id="BitstreamVeraSans-Roman-34"/>
    <path d="M 31.78125 34.625 
Q 24.75 34.625 20.71875 30.859375 
Q 16.703125 27.09375 16.703125 20.515625 
Q 16.703125 13.921875 20.71875 10.15625 
Q 24.75 6.390625 31.78125 6.390625 
Q 38.8125 6.390625 42.859375 10.171875 
Q 46.921875 13.96875 46.921875 20.515625 
Q 46.921875 27.09375 42.890625 30.859375 
Q 38.875 34.625 31.78125 34.625 
M 21.921875 38.8125 
Q 15.578125 40.375 12.03125 44.71875 
Q 8.5 49.078125 8.5 55.328125 
Q 8.5 64.0625 14.71875 69.140625 
Q 20.953125 74.21875 31.78125 74.21875 
Q 42.671875 74.21875 48.875 69.140625 
Q 55.078125 64.0625 55.078125 55.328125 
Q 55.078125 49.078125 51.53125 44.71875 
Q 48 40.375 41.703125 38.8125 
Q 48.828125 37.15625 52.796875 32.3125 
Q 56.78125 27.484375 56.78125 20.515625 
Q 56.78125 9.90625 50.3125 4.234375 
Q 43.84375 -1.421875 31.78125 -1.421875 
Q 19.734375 -1.421875 13.25 4.234375 
Q 6.78125 9.90625 6.78125 20.515625 
Q 6.78125 27.484375 10.78125 32.3125 
Q 14.796875 37.15625 21.921875 38.8125 
M 18.3125 54.390625 
Q 18.3125 48.734375 21.84375 45.5625 
Q 25.390625 42.390625 31.78125 42.390625 
Q 38.140625 42.390625 41.71875 45.5625 
Q 45.3125 48.734375 45.3125 54.390625 
Q 45.3125 60.0625 41.71875 63.234375 
Q 38.140625 66.40625 31.78125 66.40625 
Q 25.390625 66.40625 21.84375 63.234375 
Q 18.3125 60.0625 18.3125 54.390625 
" id="BitstreamVeraSans-Roman-38"/>
    <path d="M 10.984375 1.515625 
L 10.984375 10.5 
Q 14.703125 8.734375 18.5 7.8125 
Q 22.3125 6.890625 25.984375 6.890625 
Q 35.75 6.890625 40.890625 13.453125 
Q 46.046875 20.015625 46.78125 33.40625 
Q 43.953125 29.203125 39.59375 26.953125 
Q 35.25 24.703125 29.984375 24.703125 
Q 19.046875 24.703125 12.671875 31.3125 
Q 6.296875 37.9375 6.296875 49.421875 
Q 6.296875 60.640625 12.9375 67.421875 
Q 19.578125 74.21875 30.609375 74.21875 
Q 43.265625 74.21875 49.921875 64.515625 
Q 56.59375 54.828125 56.59375 36.375 
Q 56.59375 19.140625 48.40625 8.859375 
Q 40.234375 -1.421875 26.421875 -1.421875 
Q 22.703125 -1.421875 18.890625 -0.6875 
Q 15.09375 0.046875 10.984375 1.515625 
M 30.609375 32.421875 
Q 37.25 32.421875 41.125 36.953125 
Q 45.015625 41.5 45.015625 49.421875 
Q 45.015625 57.28125 41.125 61.84375 
Q 37.25 66.40625 30.609375 66.40625 
Q 23.96875 66.40625 20.09375 61.84375 
Q 16.21875 57.28125 16.21875 49.421875 
Q 16.21875 41.5 20.09375 36.953125 
Q 23.96875 32.421875 30.609375 32.421875 
" id="BitstreamVeraSans-Roman-39"/>
    <path d="M 11.71875 12.40625 
L 22.015625 12.40625 
L 22.015625 0 
L 11.71875 0 
z
M 11.71875 51.703125 
L 22.015625 51.703125 
L 22.015625 39.3125 
L 11.71875 39.3125 
z
" id="BitstreamVeraSans-Roman-3a"/>
    <path d="M 10.6875 12.40625 
L 21 12.40625 
L 21 0 
L 10.6875 0 
z
" id="BitstreamVeraSans-Roman-2e"/>
   </defs>
   <g style="fill:#262626;" transform="translate(804.229375 895.63625)scale(0.08 -0.08)">
    <use xlink:href="#BitstreamVeraSans-Roman-4c"/>
    <use x="55.697265625" xlink:href="#BitstreamVeraSans-Roman-6f"/>
    <use x="116.87890625" xlink:href="#BitstreamVeraSans-Roman-63"/>
    <use x="171.859375" xlink:href="#BitstreamVeraSans-Roman-61"/>
    <use x="233.138671875" xlink:href="#BitstreamVeraSans-Roman-6c"/>
    <use x="260.921875" xlink:href="#BitstreamVeraSans-Roman-2f"/>
    <use x="294.61328125" xlink:href="#BitstreamVeraSans-Roman-72"/>
    <use x="335.6953125" xlink:href="#BitstreamVeraSans-Roman-65"/>
    <use x="397.21875" xlink:href="#BitstreamVeraSans-Roman-6d"/>
    <use x="494.630859375" xlink:href="#BitstreamVeraSans-Roman-6f"/>
    <use x="555.8125" xlink:href="#BitstreamVeraSans-Roman-74"/>
    <use x="595.021484375" xlink:href="#BitstreamVeraSans-Roman-65"/>
    <use x="656.544921875" xlink:href="#BitstreamVeraSans-Roman-3a"/>
    <use x="690.236328125" xlink:href="#BitstreamVeraSans-Roman-20"/>
    <use x="722.0234375" xlink:href="#BitstreamVeraSans-Roman-64"/>
    <use x="785.5" xlink:href="#BitstreamVeraSans-Roman-61"/>
    <use x="846.779296875" xlink:href="#BitstreamVeraSans-Roman-6e"/>
    <use x="910.158203125" xlink:href="#BitstreamVeraSans-Roman-63"/>
    <use x="965.138671875" xlink:href="#BitstreamVeraSans-Roman-65"/>
    <use x="1026.66210938" xlink:href="#BitstreamVeraSans-Roman-72"/>
    <use x="1067.77539062" xlink:href="#BitstreamVeraSans-Roman-2f"/>
    <use x="1101.46679688" xlink:href="#BitstreamVeraSans-Roman-31"/>
    <use x="1165.08984375" xlink:href="#BitstreamVeraSans-Roman-37"/>
    <use x="1228.71289062" xlink:href="#BitstreamVeraSans-Roman-32"/>
    <use x="1292.3359375" xlink:href="#BitstreamVeraSans-Roman-2e"/>
    <use x="1324.12304688" xlink:href="#BitstreamVeraSans-Roman-32"/>
    <use x="1387.74609375" xlink:href="#BitstreamVeraSans-Roman-36"/>
    <use x="1451.36914062" xlink:href="#BitstreamVeraSans-Roman-2e"/>
    <use x="1483.15625" xlink:href="#BitstreamVeraSans-Roman-36"/>
    <use x="1546.77929688" xlink:href="#BitstreamVeraSans-Roman-34"/>
    <use x="1610.40234375" xlink:href="#BitstreamVeraSans-Roman-2e"/>
    <use x="1642.18945312" xlink:href="#BitstreamVeraSans-Roman-31"/>
    <use x="1705.8125" xlink:href="#BitstreamVeraSans-Roman-20"/>
    <use x="1737.59960938" xlink:href="#BitstreamVeraSans-Roman-2d"/>
    <use x="1773.68359375" xlink:href="#BitstreamVeraSans-Roman-20"/>
    <use x="1805.47070312" xlink:href="#BitstreamVeraSans-Roman-54"/>
    <use x="1866.5078125" xlink:href="#BitstreamVeraSans-Roman-69"/>
    <use x="1894.29101562" xlink:href="#BitstreamVeraSans-Roman-6d"/>
    <use x="1991.703125" xlink:href="#BitstreamVeraSans-Roman-65"/>
    <use x="2053.2265625" xlink:href="#BitstreamVeraSans-Roman-3a"/>
    <use x="2086.91796875" xlink:href="#BitstreamVeraSans-Roman-20"/>
    <use x="2118.70507812" xlink:href="#BitstreamVeraSans-Roman-32"/>
    <use x="2182.328125" xlink:href="#BitstreamVeraSans-Roman-30"/>
    <use x="2245.95117188" xlink:href="#BitstreamVeraSans-Roman-31"/>
    <use x="2309.57421875" xlink:href="#BitstreamVeraSans-Roman-36"/>
    <use x="2373.19726562" xlink:href="#BitstreamVeraSans-Roman-2d"/>
    <use x="2409.28125" xlink:href="#BitstreamVeraSans-Roman-30"/>
    <use x="2472.90429688" xlink:href="#BitstreamVeraSans-Roman-34"/>
    <use x="2536.52734375" xlink:href="#BitstreamVeraSans-Roman-2d"/>
    <use x="2572.61132812" xlink:href="#BitstreamVeraSans-Roman-32"/>
    <use x="2636.234375" xlink:href="#BitstreamVeraSans-Roman-34"/>
    <use x="2699.85742188" xlink:href="#BitstreamVeraSans-Roman-54"/>
    <use x="2760.94140625" xlink:href="#BitstreamVeraSans-Roman-31"/>
    <use x="2824.56445312" xlink:href="#BitstreamVeraSans-Roman-38"/>
    <use x="2888.1875" xlink:href="#BitstreamVeraSans-Roman-3a"/>
    <use x="2921.87890625" xlink:href="#BitstreamVeraSans-Roman-32"/>
    <use x="2985.50195312" xlink:href="#BitstreamVeraSans-Roman-37"/>
    <use x="3049.125" xlink:href="#BitstreamVeraSans-Roman-3a"/>
    <use x="3082.81640625" xlink:href="#BitstreamVeraSans-Roman-34"/>
    <use x="3146.43945312" xlink:href="#BitstreamVeraSans-Roman-31"/>
    <use x="3210.0625" xlink:href="#BitstreamVeraSans-Roman-2e"/>
    <use x="3241.84960938" xlink:href="#BitstreamVeraSans-Roman-33"/>
    <use x="3305.47265625" xlink:href="#BitstreamVeraSans-Roman-33"/>
    <use x="3369.09570312" xlink:href="#BitstreamVeraSans-Roman-33"/>
    <use x="3432.71875" xlink:href="#BitstreamVeraSans-Roman-39"/>
    <use x="3496.34179688" xlink:href="#BitstreamVeraSans-Roman-37"/>
    <use x="3559.96484375" xlink:href="#BitstreamVeraSans-Roman-33"/>
    <use x="3623.58789062" xlink:href="#BitstreamVeraSans-Roman-20"/>
    <use x="3655.375" xlink:href="#BitstreamVeraSans-Roman-2d"/>
    <use x="3691.45898438" xlink:href="#BitstreamVeraSans-Roman-20"/>
    <use x="3723.24609375" xlink:href="#BitstreamVeraSans-Roman-4c"/>
    <use x="3778.94335938" xlink:href="#BitstreamVeraSans-Roman-65"/>
    <use x="3840.46679688" xlink:href="#BitstreamVeraSans-Roman-6e"/>
    <use x="3903.84570312" xlink:href="#BitstreamVeraSans-Roman-67"/>
    <use x="3967.32226562" xlink:href="#BitstreamVeraSans-Roman-74"/>
    <use x="4006.53125" xlink:href="#BitstreamVeraSans-Roman-68"/>
    <use x="4069.91015625" xlink:href="#BitstreamVeraSans-Roman-2f"/>
    <use x="4103.6015625" xlink:href="#BitstreamVeraSans-Roman-73"/>
    <use x="4155.70117188" xlink:href="#BitstreamVeraSans-Roman-74"/>
    <use x="4194.91015625" xlink:href="#BitstreamVeraSans-Roman-65"/>
    <use x="4256.43359375" xlink:href="#BitstreamVeraSans-Roman-70"/>
    <use x="4319.91015625" xlink:href="#BitstreamVeraSans-Roman-3a"/>
    <use x="4353.6015625" xlink:href="#BitstreamVeraSans-Roman-20"/>
    <use x="4385.38867188" xlink:href="#BitstreamVeraSans-Roman-33"/>
    <use x="4449.01171875" xlink:href="#BitstreamVeraSans-Roman-30"/>
    <use x="4512.63476562" xlink:href="#BitstreamVeraSans-Roman-30"/>
    <use x="4576.2578125" xlink:href="#BitstreamVeraSans-Roman-73"/>
    <use x="4628.35742188" xlink:href="#BitstreamVeraSans-Roman-2f"/>
    <use x="4662.04882812" xlink:href="#BitstreamVeraSans-Roman-30"/>
    <use x="4725.671875" xlink:href="#BitstreamVeraSans-Roman-2e"/>
    <use x="4757.45898438" xlink:href="#BitstreamVeraSans-Roman-32"/>
    <use x="4821.08203125" xlink:href="#BitstreamVeraSans-Roman-30"/>
    <use x="4884.70507812" xlink:href="#BitstreamVeraSans-Roman-73"/>
   </g>
  </g>
 </g>
 <defs>
  <clipPath id="p0b5e48514d">
   <rect height="717.84" width="1466.8119" x="250.425" y="89.73"/>
  </clipPath>
 </defs>
</svg>
