<?xml version="1.0" encoding="utf-8" standalone="no"?>
<!DOCTYPE svg PUBLIC "-//W3C//DTD SVG 1.1//EN"
  "http://www.w3.org/Graphics/SVG/1.1/DTD/svg11.dtd">
<!-- Created with matplotlib (http://matplotlib.org/) -->
<svg height="1014pt" version="1.1" viewBox="0 0 1603 1014" width="1603pt" xmlns="http://www.w3.org/2000/svg" xmlns:xlink="http://www.w3.org/1999/xlink">
 <defs>
  <style type="text/css">
*{stroke-linecap:butt;stroke-linejoin:round;}
  </style>
 </defs>
 <g id="figure_1">
  <g id="patch_1">
   <path d="
M0 1014.3
L1603.8 1014.3
L1603.8 0
L0 0
z
" style="fill:#ffffff;"/>
  </g>
  <g id="axes_1">
   <g id="patch_2">
    <path d="
M200.475 912.87
L1357.33 912.87
L1357.33 101.43
L200.475 101.43
z
" style="fill:#eaeaf2;"/>
   </g>
   <g id="matplotlib.axis_1">
    <g id="xtick_1">
     <g id="line2d_1">
      <path clip-path="url(#pda8e03edd5)" d="
M200.475 912.87
L200.475 101.43" style="fill:none;stroke:#ffffff;stroke-linecap:round;stroke-width:0.5;"/>
     </g>
     <g id="line2d_2">
      <defs>
       <path d="
M0 0
L0 0" id="m8735711441" style="stroke:#262626;stroke-width:0.5;"/>
      </defs>
      <g>
       <use style="fill:#262626;stroke:#262626;stroke-width:0.5;" x="200.475" xlink:href="#m8735711441" y="912.87"/>
      </g>
     </g>
     <g id="line2d_3">
      <g>
       <use style="fill:#262626;stroke:#262626;stroke-width:0.5;" x="200.475" xlink:href="#m8735711441" y="101.43"/>
      </g>
     </g>
     <g id="text_1">
      <!-- 0 -->
      <defs>
       <path d="
M31.7812 66.4062
Q24.1719 66.4062 20.3281 58.9062
Q16.5 51.4219 16.5 36.375
Q16.5 21.3906 20.3281 13.8906
Q24.1719 6.39062 31.7812 6.39062
Q39.4531 6.39062 43.2812 13.8906
Q47.125 21.3906 47.125 36.375
Q47.125 51.4219 43.2812 58.9062
Q39.4531 66.4062 31.7812 66.4062
M31.7812 74.2188
Q44.0469 74.2188 50.5156 64.5156
Q56.9844 54.8281 56.9844 36.375
Q56.9844 17.9688 50.5156 8.26562
Q44.0469 -1.42188 31.7812 -1.42188
Q19.5312 -1.42188 13.0625 8.26562
Q6.59375 17.9688 6.59375 36.375
Q6.59375 54.8281 13.0625 64.5156
Q19.5312 74.2188 31.7812 74.2188" id="BitstreamVeraSans-Roman-30"/>
      </defs>
      <g style="fill:#262626;" transform="translate(197.4515625 925.988125)scale(0.12 -0.12)">
       <use xlink:href="#BitstreamVeraSans-Roman-30"/>
      </g>
     </g>
    </g>
    <g id="xtick_2">
     <g id="line2d_4">
      <path clip-path="url(#pda8e03edd5)" d="
M393.284 912.87
L393.284 101.43" style="fill:none;stroke:#ffffff;stroke-linecap:round;stroke-width:0.5;"/>
     </g>
     <g id="line2d_5">
      <g>
       <use style="fill:#262626;stroke:#262626;stroke-width:0.5;" x="393.28411875" xlink:href="#m8735711441" y="912.87"/>
      </g>
     </g>
     <g id="line2d_6">
      <g>
       <use style="fill:#262626;stroke:#262626;stroke-width:0.5;" x="393.28411875" xlink:href="#m8735711441" y="101.43"/>
      </g>
     </g>
     <g id="text_2">
      <!-- 10 -->
      <defs>
       <path d="
M12.4062 8.29688
L28.5156 8.29688
L28.5156 63.9219
L10.9844 60.4062
L10.9844 69.3906
L28.4219 72.9062
L38.2812 72.9062
L38.2812 8.29688
L54.3906 8.29688
L54.3906 0
L12.4062 0
z
" id="BitstreamVeraSans-Roman-31"/>
      </defs>
      <g style="fill:#262626;" transform="translate(386.70661875 925.988125)scale(0.12 -0.12)">
       <use xlink:href="#BitstreamVeraSans-Roman-31"/>
       <use x="63.623046875" xlink:href="#BitstreamVeraSans-Roman-30"/>
      </g>
     </g>
    </g>
    <g id="xtick_3">
     <g id="line2d_7">
      <path clip-path="url(#pda8e03edd5)" d="
M586.093 912.87
L586.093 101.43" style="fill:none;stroke:#ffffff;stroke-linecap:round;stroke-width:0.5;"/>
     </g>
     <g id="line2d_8">
      <g>
       <use style="fill:#262626;stroke:#262626;stroke-width:0.5;" x="586.0932375" xlink:href="#m8735711441" y="912.87"/>
      </g>
     </g>
     <g id="line2d_9">
      <g>
       <use style="fill:#262626;stroke:#262626;stroke-width:0.5;" x="586.0932375" xlink:href="#m8735711441" y="101.43"/>
      </g>
     </g>
     <g id="text_3">
      <!-- 20 -->
      <defs>
       <path d="
M19.1875 8.29688
L53.6094 8.29688
L53.6094 0
L7.32812 0
L7.32812 8.29688
Q12.9375 14.1094 22.625 23.8906
Q32.3281 33.6875 34.8125 36.5312
Q39.5469 41.8438 41.4219 45.5312
Q43.3125 49.2188 43.3125 52.7812
Q43.3125 58.5938 39.2344 62.25
Q35.1562 65.9219 28.6094 65.9219
Q23.9688 65.9219 18.8125 64.3125
Q13.6719 62.7031 7.8125 59.4219
L7.8125 69.3906
Q13.7656 71.7812 18.9375 73
Q24.125 74.2188 28.4219 74.2188
Q39.75 74.2188 46.4844 68.5469
Q53.2188 62.8906 53.2188 53.4219
Q53.2188 48.9219 51.5312 44.8906
Q49.8594 40.875 45.4062 35.4062
Q44.1875 33.9844 37.6406 27.2188
Q31.1094 20.4531 19.1875 8.29688" id="BitstreamVeraSans-Roman-32"/>
      </defs>
      <g style="fill:#262626;" transform="translate(579.2963625 925.988125)scale(0.12 -0.12)">
       <use xlink:href="#BitstreamVeraSans-Roman-32"/>
       <use x="63.623046875" xlink:href="#BitstreamVeraSans-Roman-30"/>
      </g>
     </g>
    </g>
    <g id="xtick_4">
     <g id="line2d_10">
      <path clip-path="url(#pda8e03edd5)" d="
M778.902 912.87
L778.902 101.43" style="fill:none;stroke:#ffffff;stroke-linecap:round;stroke-width:0.5;"/>
     </g>
     <g id="line2d_11">
      <g>
       <use style="fill:#262626;stroke:#262626;stroke-width:0.5;" x="778.90235625" xlink:href="#m8735711441" y="912.87"/>
      </g>
     </g>
     <g id="line2d_12">
      <g>
       <use style="fill:#262626;stroke:#262626;stroke-width:0.5;" x="778.90235625" xlink:href="#m8735711441" y="101.43"/>
      </g>
     </g>
     <g id="text_4">
      <!-- 30 -->
      <defs>
       <path d="
M40.5781 39.3125
Q47.6562 37.7969 51.625 33
Q55.6094 28.2188 55.6094 21.1875
Q55.6094 10.4062 48.1875 4.48438
Q40.7656 -1.42188 27.0938 -1.42188
Q22.5156 -1.42188 17.6562 -0.515625
Q12.7969 0.390625 7.625 2.20312
L7.625 11.7188
Q11.7188 9.32812 16.5938 8.10938
Q21.4844 6.89062 26.8125 6.89062
Q36.0781 6.89062 40.9375 10.5469
Q45.7969 14.2031 45.7969 21.1875
Q45.7969 27.6406 41.2812 31.2656
Q36.7656 34.9062 28.7188 34.9062
L20.2188 34.9062
L20.2188 43.0156
L29.1094 43.0156
Q36.375 43.0156 40.2344 45.9219
Q44.0938 48.8281 44.0938 54.2969
Q44.0938 59.9062 40.1094 62.9062
Q36.1406 65.9219 28.7188 65.9219
Q24.6562 65.9219 20.0156 65.0312
Q15.375 64.1562 9.8125 62.3125
L9.8125 71.0938
Q15.4375 72.6562 20.3438 73.4375
Q25.25 74.2188 29.5938 74.2188
Q40.8281 74.2188 47.3594 69.1094
Q53.9062 64.0156 53.9062 55.3281
Q53.9062 49.2656 50.4375 45.0938
Q46.9688 40.9219 40.5781 39.3125" id="BitstreamVeraSans-Roman-33"/>
      </defs>
      <g style="fill:#262626;" transform="translate(772.12329375 925.988125)scale(0.12 -0.12)">
       <use xlink:href="#BitstreamVeraSans-Roman-33"/>
       <use x="63.623046875" xlink:href="#BitstreamVeraSans-Roman-30"/>
      </g>
     </g>
    </g>
    <g id="xtick_5">
     <g id="line2d_13">
      <path clip-path="url(#pda8e03edd5)" d="
M971.711 912.87
L971.711 101.43" style="fill:none;stroke:#ffffff;stroke-linecap:round;stroke-width:0.5;"/>
     </g>
     <g id="line2d_14">
      <g>
       <use style="fill:#262626;stroke:#262626;stroke-width:0.5;" x="971.711475" xlink:href="#m8735711441" y="912.87"/>
      </g>
     </g>
     <g id="line2d_15">
      <g>
       <use style="fill:#262626;stroke:#262626;stroke-width:0.5;" x="971.711475" xlink:href="#m8735711441" y="101.43"/>
      </g>
     </g>
     <g id="text_5">
      <!-- 40 -->
      <defs>
       <path d="
M37.7969 64.3125
L12.8906 25.3906
L37.7969 25.3906
z

M35.2031 72.9062
L47.6094 72.9062
L47.6094 25.3906
L58.0156 25.3906
L58.0156 17.1875
L47.6094 17.1875
L47.6094 0
L37.7969 0
L37.7969 17.1875
L4.89062 17.1875
L4.89062 26.7031
z
" id="BitstreamVeraSans-Roman-34"/>
      </defs>
      <g style="fill:#262626;" transform="translate(964.76835 925.988125)scale(0.12 -0.12)">
       <use xlink:href="#BitstreamVeraSans-Roman-34"/>
       <use x="63.623046875" xlink:href="#BitstreamVeraSans-Roman-30"/>
      </g>
     </g>
    </g>
    <g id="xtick_6">
     <g id="line2d_16">
      <path clip-path="url(#pda8e03edd5)" d="
M1164.52 912.87
L1164.52 101.43" style="fill:none;stroke:#ffffff;stroke-linecap:round;stroke-width:0.5;"/>
     </g>
     <g id="line2d_17">
      <g>
       <use style="fill:#262626;stroke:#262626;stroke-width:0.5;" x="1164.52059375" xlink:href="#m8735711441" y="912.87"/>
      </g>
     </g>
     <g id="line2d_18">
      <g>
       <use style="fill:#262626;stroke:#262626;stroke-width:0.5;" x="1164.52059375" xlink:href="#m8735711441" y="101.43"/>
      </g>
     </g>
     <g id="text_6">
      <!-- 50 -->
      <defs>
       <path d="
M10.7969 72.9062
L49.5156 72.9062
L49.5156 64.5938
L19.8281 64.5938
L19.8281 46.7344
Q21.9688 47.4688 24.1094 47.8281
Q26.2656 48.1875 28.4219 48.1875
Q40.625 48.1875 47.75 41.5
Q54.8906 34.8125 54.8906 23.3906
Q54.8906 11.625 47.5625 5.09375
Q40.2344 -1.42188 26.9062 -1.42188
Q22.3125 -1.42188 17.5469 -0.640625
Q12.7969 0.140625 7.71875 1.70312
L7.71875 11.625
Q12.1094 9.23438 16.7969 8.0625
Q21.4844 6.89062 26.7031 6.89062
Q35.1562 6.89062 40.0781 11.3281
Q45.0156 15.7656 45.0156 23.3906
Q45.0156 31 40.0781 35.4375
Q35.1562 39.8906 26.7031 39.8906
Q22.75 39.8906 18.8125 39.0156
Q14.8906 38.1406 10.7969 36.2812
z
" id="BitstreamVeraSans-Roman-35"/>
      </defs>
      <g style="fill:#262626;" transform="translate(1157.74715625 925.988125)scale(0.12 -0.12)">
       <use xlink:href="#BitstreamVeraSans-Roman-35"/>
       <use x="63.623046875" xlink:href="#BitstreamVeraSans-Roman-30"/>
      </g>
     </g>
    </g>
    <g id="xtick_7">
     <g id="line2d_19">
      <path clip-path="url(#pda8e03edd5)" d="
M1357.33 912.87
L1357.33 101.43" style="fill:none;stroke:#ffffff;stroke-linecap:round;stroke-width:0.5;"/>
     </g>
     <g id="line2d_20">
      <g>
       <use style="fill:#262626;stroke:#262626;stroke-width:0.5;" x="1357.3297125" xlink:href="#m8735711441" y="912.87"/>
      </g>
     </g>
     <g id="line2d_21">
      <g>
       <use style="fill:#262626;stroke:#262626;stroke-width:0.5;" x="1357.3297125" xlink:href="#m8735711441" y="101.43"/>
      </g>
     </g>
     <g id="text_7">
      <!-- 60 -->
      <defs>
       <path d="
M33.0156 40.375
Q26.375 40.375 22.4844 35.8281
Q18.6094 31.2969 18.6094 23.3906
Q18.6094 15.5312 22.4844 10.9531
Q26.375 6.39062 33.0156 6.39062
Q39.6562 6.39062 43.5312 10.9531
Q47.4062 15.5312 47.4062 23.3906
Q47.4062 31.2969 43.5312 35.8281
Q39.6562 40.375 33.0156 40.375
M52.5938 71.2969
L52.5938 62.3125
Q48.875 64.0625 45.0938 64.9844
Q41.3125 65.9219 37.5938 65.9219
Q27.8281 65.9219 22.6719 59.3281
Q17.5312 52.7344 16.7969 39.4062
Q19.6719 43.6562 24.0156 45.9219
Q28.375 48.1875 33.5938 48.1875
Q44.5781 48.1875 50.9531 41.5156
Q57.3281 34.8594 57.3281 23.3906
Q57.3281 12.1562 50.6875 5.35938
Q44.0469 -1.42188 33.0156 -1.42188
Q20.3594 -1.42188 13.6719 8.26562
Q6.98438 17.9688 6.98438 36.375
Q6.98438 53.6562 15.1875 63.9375
Q23.3906 74.2188 37.2031 74.2188
Q40.9219 74.2188 44.7031 73.4844
Q48.4844 72.75 52.5938 71.2969" id="BitstreamVeraSans-Roman-36"/>
      </defs>
      <g style="fill:#262626;" transform="translate(1350.5122125 925.988125)scale(0.12 -0.12)">
       <use xlink:href="#BitstreamVeraSans-Roman-36"/>
       <use x="63.623046875" xlink:href="#BitstreamVeraSans-Roman-30"/>
      </g>
     </g>
    </g>
    <g id="xtick_8">
     <g id="line2d_22">
      <g>
       <use style="fill:#262626;stroke:#262626;stroke-width:0.5;" x="239.03682375" xlink:href="#m8735711441" y="912.87"/>
      </g>
     </g>
     <g id="line2d_23">
      <g>
       <use style="fill:#262626;stroke:#262626;stroke-width:0.5;" x="239.03682375" xlink:href="#m8735711441" y="101.43"/>
      </g>
     </g>
    </g>
    <g id="xtick_9">
     <g id="line2d_24">
      <g>
       <use style="fill:#262626;stroke:#262626;stroke-width:0.5;" x="277.5986475" xlink:href="#m8735711441" y="912.87"/>
      </g>
     </g>
     <g id="line2d_25">
      <g>
       <use style="fill:#262626;stroke:#262626;stroke-width:0.5;" x="277.5986475" xlink:href="#m8735711441" y="101.43"/>
      </g>
     </g>
    </g>
    <g id="xtick_10">
     <g id="line2d_26">
      <g>
       <use style="fill:#262626;stroke:#262626;stroke-width:0.5;" x="316.16047125" xlink:href="#m8735711441" y="912.87"/>
      </g>
     </g>
     <g id="line2d_27">
      <g>
       <use style="fill:#262626;stroke:#262626;stroke-width:0.5;" x="316.16047125" xlink:href="#m8735711441" y="101.43"/>
      </g>
     </g>
    </g>
    <g id="xtick_11">
     <g id="line2d_28">
      <g>
       <use style="fill:#262626;stroke:#262626;stroke-width:0.5;" x="354.722295" xlink:href="#m8735711441" y="912.87"/>
      </g>
     </g>
     <g id="line2d_29">
      <g>
       <use style="fill:#262626;stroke:#262626;stroke-width:0.5;" x="354.722295" xlink:href="#m8735711441" y="101.43"/>
      </g>
     </g>
    </g>
    <g id="xtick_12">
     <g id="line2d_30">
      <g>
       <use style="fill:#262626;stroke:#262626;stroke-width:0.5;" x="431.8459425" xlink:href="#m8735711441" y="912.87"/>
      </g>
     </g>
     <g id="line2d_31">
      <g>
       <use style="fill:#262626;stroke:#262626;stroke-width:0.5;" x="431.8459425" xlink:href="#m8735711441" y="101.43"/>
      </g>
     </g>
    </g>
    <g id="xtick_13">
     <g id="line2d_32">
      <g>
       <use style="fill:#262626;stroke:#262626;stroke-width:0.5;" x="470.40776625" xlink:href="#m8735711441" y="912.87"/>
      </g>
     </g>
     <g id="line2d_33">
      <g>
       <use style="fill:#262626;stroke:#262626;stroke-width:0.5;" x="470.40776625" xlink:href="#m8735711441" y="101.43"/>
      </g>
     </g>
    </g>
    <g id="xtick_14">
     <g id="line2d_34">
      <g>
       <use style="fill:#262626;stroke:#262626;stroke-width:0.5;" x="508.96959" xlink:href="#m8735711441" y="912.87"/>
      </g>
     </g>
     <g id="line2d_35">
      <g>
       <use style="fill:#262626;stroke:#262626;stroke-width:0.5;" x="508.96959" xlink:href="#m8735711441" y="101.43"/>
      </g>
     </g>
    </g>
    <g id="xtick_15">
     <g id="line2d_36">
      <g>
       <use style="fill:#262626;stroke:#262626;stroke-width:0.5;" x="547.53141375" xlink:href="#m8735711441" y="912.87"/>
      </g>
     </g>
     <g id="line2d_37">
      <g>
       <use style="fill:#262626;stroke:#262626;stroke-width:0.5;" x="547.53141375" xlink:href="#m8735711441" y="101.43"/>
      </g>
     </g>
    </g>
    <g id="xtick_16">
     <g id="line2d_38">
      <g>
       <use style="fill:#262626;stroke:#262626;stroke-width:0.5;" x="624.65506125" xlink:href="#m8735711441" y="912.87"/>
      </g>
     </g>
     <g id="line2d_39">
      <g>
       <use style="fill:#262626;stroke:#262626;stroke-width:0.5;" x="624.65506125" xlink:href="#m8735711441" y="101.43"/>
      </g>
     </g>
    </g>
    <g id="xtick_17">
     <g id="line2d_40">
      <g>
       <use style="fill:#262626;stroke:#262626;stroke-width:0.5;" x="663.216885" xlink:href="#m8735711441" y="912.87"/>
      </g>
     </g>
     <g id="line2d_41">
      <g>
       <use style="fill:#262626;stroke:#262626;stroke-width:0.5;" x="663.216885" xlink:href="#m8735711441" y="101.43"/>
      </g>
     </g>
    </g>
    <g id="xtick_18">
     <g id="line2d_42">
      <g>
       <use style="fill:#262626;stroke:#262626;stroke-width:0.5;" x="701.77870875" xlink:href="#m8735711441" y="912.87"/>
      </g>
     </g>
     <g id="line2d_43">
      <g>
       <use style="fill:#262626;stroke:#262626;stroke-width:0.5;" x="701.77870875" xlink:href="#m8735711441" y="101.43"/>
      </g>
     </g>
    </g>
    <g id="xtick_19">
     <g id="line2d_44">
      <g>
       <use style="fill:#262626;stroke:#262626;stroke-width:0.5;" x="740.3405325" xlink:href="#m8735711441" y="912.87"/>
      </g>
     </g>
     <g id="line2d_45">
      <g>
       <use style="fill:#262626;stroke:#262626;stroke-width:0.5;" x="740.3405325" xlink:href="#m8735711441" y="101.43"/>
      </g>
     </g>
    </g>
    <g id="xtick_20">
     <g id="line2d_46">
      <g>
       <use style="fill:#262626;stroke:#262626;stroke-width:0.5;" x="817.46418" xlink:href="#m8735711441" y="912.87"/>
      </g>
     </g>
     <g id="line2d_47">
      <g>
       <use style="fill:#262626;stroke:#262626;stroke-width:0.5;" x="817.46418" xlink:href="#m8735711441" y="101.43"/>
      </g>
     </g>
    </g>
    <g id="xtick_21">
     <g id="line2d_48">
      <g>
       <use style="fill:#262626;stroke:#262626;stroke-width:0.5;" x="856.02600375" xlink:href="#m8735711441" y="912.87"/>
      </g>
     </g>
     <g id="line2d_49">
      <g>
       <use style="fill:#262626;stroke:#262626;stroke-width:0.5;" x="856.02600375" xlink:href="#m8735711441" y="101.43"/>
      </g>
     </g>
    </g>
    <g id="xtick_22">
     <g id="line2d_50">
      <g>
       <use style="fill:#262626;stroke:#262626;stroke-width:0.5;" x="894.5878275" xlink:href="#m8735711441" y="912.87"/>
      </g>
     </g>
     <g id="line2d_51">
      <g>
       <use style="fill:#262626;stroke:#262626;stroke-width:0.5;" x="894.5878275" xlink:href="#m8735711441" y="101.43"/>
      </g>
     </g>
    </g>
    <g id="xtick_23">
     <g id="line2d_52">
      <g>
       <use style="fill:#262626;stroke:#262626;stroke-width:0.5;" x="933.14965125" xlink:href="#m8735711441" y="912.87"/>
      </g>
     </g>
     <g id="line2d_53">
      <g>
       <use style="fill:#262626;stroke:#262626;stroke-width:0.5;" x="933.14965125" xlink:href="#m8735711441" y="101.43"/>
      </g>
     </g>
    </g>
    <g id="xtick_24">
     <g id="line2d_54">
      <g>
       <use style="fill:#262626;stroke:#262626;stroke-width:0.5;" x="1010.27329875" xlink:href="#m8735711441" y="912.87"/>
      </g>
     </g>
     <g id="line2d_55">
      <g>
       <use style="fill:#262626;stroke:#262626;stroke-width:0.5;" x="1010.27329875" xlink:href="#m8735711441" y="101.43"/>
      </g>
     </g>
    </g>
    <g id="xtick_25">
     <g id="line2d_56">
      <g>
       <use style="fill:#262626;stroke:#262626;stroke-width:0.5;" x="1048.8351225" xlink:href="#m8735711441" y="912.87"/>
      </g>
     </g>
     <g id="line2d_57">
      <g>
       <use style="fill:#262626;stroke:#262626;stroke-width:0.5;" x="1048.8351225" xlink:href="#m8735711441" y="101.43"/>
      </g>
     </g>
    </g>
    <g id="xtick_26">
     <g id="line2d_58">
      <g>
       <use style="fill:#262626;stroke:#262626;stroke-width:0.5;" x="1087.39694625" xlink:href="#m8735711441" y="912.87"/>
      </g>
     </g>
     <g id="line2d_59">
      <g>
       <use style="fill:#262626;stroke:#262626;stroke-width:0.5;" x="1087.39694625" xlink:href="#m8735711441" y="101.43"/>
      </g>
     </g>
    </g>
    <g id="xtick_27">
     <g id="line2d_60">
      <g>
       <use style="fill:#262626;stroke:#262626;stroke-width:0.5;" x="1125.95877" xlink:href="#m8735711441" y="912.87"/>
      </g>
     </g>
     <g id="line2d_61">
      <g>
       <use style="fill:#262626;stroke:#262626;stroke-width:0.5;" x="1125.95877" xlink:href="#m8735711441" y="101.43"/>
      </g>
     </g>
    </g>
    <g id="xtick_28">
     <g id="line2d_62">
      <g>
       <use style="fill:#262626;stroke:#262626;stroke-width:0.5;" x="1203.0824175" xlink:href="#m8735711441" y="912.87"/>
      </g>
     </g>
     <g id="line2d_63">
      <g>
       <use style="fill:#262626;stroke:#262626;stroke-width:0.5;" x="1203.0824175" xlink:href="#m8735711441" y="101.43"/>
      </g>
     </g>
    </g>
    <g id="xtick_29">
     <g id="line2d_64">
      <g>
       <use style="fill:#262626;stroke:#262626;stroke-width:0.5;" x="1241.64424125" xlink:href="#m8735711441" y="912.87"/>
      </g>
     </g>
     <g id="line2d_65">
      <g>
       <use style="fill:#262626;stroke:#262626;stroke-width:0.5;" x="1241.64424125" xlink:href="#m8735711441" y="101.43"/>
      </g>
     </g>
    </g>
    <g id="xtick_30">
     <g id="line2d_66">
      <g>
       <use style="fill:#262626;stroke:#262626;stroke-width:0.5;" x="1280.206065" xlink:href="#m8735711441" y="912.87"/>
      </g>
     </g>
     <g id="line2d_67">
      <g>
       <use style="fill:#262626;stroke:#262626;stroke-width:0.5;" x="1280.206065" xlink:href="#m8735711441" y="101.43"/>
      </g>
     </g>
    </g>
    <g id="xtick_31">
     <g id="line2d_68">
      <g>
       <use style="fill:#262626;stroke:#262626;stroke-width:0.5;" x="1318.76788875" xlink:href="#m8735711441" y="912.87"/>
      </g>
     </g>
     <g id="line2d_69">
      <g>
       <use style="fill:#262626;stroke:#262626;stroke-width:0.5;" x="1318.76788875" xlink:href="#m8735711441" y="101.43"/>
      </g>
     </g>
    </g>
    <g id="text_8">
     <!-- Time (s) -->
     <defs>
      <path id="BitstreamVeraSans-Roman-20"/>
      <path d="
M8.01562 75.875
L15.8281 75.875
Q23.1406 64.3594 26.7812 53.3125
Q30.4219 42.2812 30.4219 31.3906
Q30.4219 20.4531 26.7812 9.375
Q23.1406 -1.70312 15.8281 -13.1875
L8.01562 -13.1875
Q14.5 -2 17.7031 9.0625
Q20.9062 20.125 20.9062 31.3906
Q20.9062 42.6719 17.7031 53.6562
Q14.5 64.6562 8.01562 75.875" id="BitstreamVeraSans-Roman-29"/>
      <path d="
M31 75.875
Q24.4688 64.6562 21.2812 53.6562
Q18.1094 42.6719 18.1094 31.3906
Q18.1094 20.125 21.3125 9.0625
Q24.5156 -2 31 -13.1875
L23.1875 -13.1875
Q15.875 -1.70312 12.2344 9.375
Q8.59375 20.4531 8.59375 31.3906
Q8.59375 42.2812 12.2031 53.3125
Q15.8281 64.3594 23.1875 75.875
z
" id="BitstreamVeraSans-Roman-28"/>
      <path d="
M9.42188 54.6875
L18.4062 54.6875
L18.4062 0
L9.42188 0
z

M9.42188 75.9844
L18.4062 75.9844
L18.4062 64.5938
L9.42188 64.5938
z
" id="BitstreamVeraSans-Roman-69"/>
      <path d="
M52 44.1875
Q55.375 50.25 60.0625 53.125
Q64.75 56 71.0938 56
Q79.6406 56 84.2812 50.0156
Q88.9219 44.0469 88.9219 33.0156
L88.9219 0
L79.8906 0
L79.8906 32.7188
Q79.8906 40.5781 77.0938 44.375
Q74.3125 48.1875 68.6094 48.1875
Q61.625 48.1875 57.5625 43.5469
Q53.5156 38.9219 53.5156 30.9062
L53.5156 0
L44.4844 0
L44.4844 32.7188
Q44.4844 40.625 41.7031 44.4062
Q38.9219 48.1875 33.1094 48.1875
Q26.2188 48.1875 22.1562 43.5312
Q18.1094 38.875 18.1094 30.9062
L18.1094 0
L9.07812 0
L9.07812 54.6875
L18.1094 54.6875
L18.1094 46.1875
Q21.1875 51.2188 25.4844 53.6094
Q29.7812 56 35.6875 56
Q41.6562 56 45.8281 52.9688
Q50 49.9531 52 44.1875" id="BitstreamVeraSans-Roman-6d"/>
      <path d="
M56.2031 29.5938
L56.2031 25.2031
L14.8906 25.2031
Q15.4844 15.9219 20.4844 11.0625
Q25.4844 6.20312 34.4219 6.20312
Q39.5938 6.20312 44.4531 7.46875
Q49.3125 8.73438 54.1094 11.2812
L54.1094 2.78125
Q49.2656 0.734375 44.1875 -0.34375
Q39.1094 -1.42188 33.8906 -1.42188
Q20.7969 -1.42188 13.1562 6.1875
Q5.51562 13.8125 5.51562 26.8125
Q5.51562 40.2344 12.7656 48.1094
Q20.0156 56 32.3281 56
Q43.3594 56 49.7812 48.8906
Q56.2031 41.7969 56.2031 29.5938
M47.2188 32.2344
Q47.125 39.5938 43.0938 43.9844
Q39.0625 48.3906 32.4219 48.3906
Q24.9062 48.3906 20.3906 44.1406
Q15.875 39.8906 15.1875 32.1719
z
" id="BitstreamVeraSans-Roman-65"/>
      <path d="
M-0.296875 72.9062
L61.375 72.9062
L61.375 64.5938
L35.5 64.5938
L35.5 0
L25.5938 0
L25.5938 64.5938
L-0.296875 64.5938
z
" id="BitstreamVeraSans-Roman-54"/>
      <path d="
M44.2812 53.0781
L44.2812 44.5781
Q40.4844 46.5312 36.375 47.5
Q32.2812 48.4844 27.875 48.4844
Q21.1875 48.4844 17.8438 46.4375
Q14.5 44.3906 14.5 40.2812
Q14.5 37.1562 16.8906 35.375
Q19.2812 33.5938 26.5156 31.9844
L29.5938 31.2969
Q39.1562 29.25 43.1875 25.5156
Q47.2188 21.7812 47.2188 15.0938
Q47.2188 7.46875 41.1875 3.01562
Q35.1562 -1.42188 24.6094 -1.42188
Q20.2188 -1.42188 15.4531 -0.5625
Q10.6875 0.296875 5.42188 2
L5.42188 11.2812
Q10.4062 8.6875 15.2344 7.39062
Q20.0625 6.10938 24.8125 6.10938
Q31.1562 6.10938 34.5625 8.28125
Q37.9844 10.4531 37.9844 14.4062
Q37.9844 18.0625 35.5156 20.0156
Q33.0625 21.9688 24.7031 23.7812
L21.5781 24.5156
Q13.2344 26.2656 9.51562 29.9062
Q5.8125 33.5469 5.8125 39.8906
Q5.8125 47.6094 11.2812 51.7969
Q16.75 56 26.8125 56
Q31.7812 56 36.1719 55.2656
Q40.5781 54.5469 44.2812 53.0781" id="BitstreamVeraSans-Roman-73"/>
     </defs>
     <g style="fill:#262626;" transform="translate(755.00548125 942.601875)scale(0.12 -0.12)">
      <use xlink:href="#BitstreamVeraSans-Roman-54"/>
      <use x="57.958984375" xlink:href="#BitstreamVeraSans-Roman-69"/>
      <use x="85.7421875" xlink:href="#BitstreamVeraSans-Roman-6d"/>
      <use x="183.154296875" xlink:href="#BitstreamVeraSans-Roman-65"/>
      <use x="244.677734375" xlink:href="#BitstreamVeraSans-Roman-20"/>
      <use x="276.46484375" xlink:href="#BitstreamVeraSans-Roman-28"/>
      <use x="315.478515625" xlink:href="#BitstreamVeraSans-Roman-73"/>
      <use x="367.578125" xlink:href="#BitstreamVeraSans-Roman-29"/>
     </g>
    </g>
   </g>
   <g id="matplotlib.axis_2">
    <g id="ytick_1">
     <g id="line2d_70">
      <path clip-path="url(#pda8e03edd5)" d="
M200.475 898.751
L1357.33 898.751" style="fill:none;stroke:#ffffff;stroke-linecap:round;stroke-width:0.5;"/>
     </g>
     <g id="line2d_71">
      <g>
       <use style="fill:#262626;stroke:#262626;stroke-width:0.5;" x="200.475" xlink:href="#m8735711441" y="898.75117872"/>
      </g>
     </g>
     <g id="line2d_72">
      <g>
       <use style="fill:#262626;stroke:#262626;stroke-width:0.5;" x="1357.3297125" xlink:href="#m8735711441" y="898.75117872"/>
      </g>
     </g>
     <g id="text_9">
      <!-- 2 -->
      <g style="fill:#262626;" transform="translate(190.92125 902.06242872)scale(0.12 -0.12)">
       <use xlink:href="#BitstreamVeraSans-Roman-32"/>
      </g>
     </g>
    </g>
    <g id="ytick_2">
     <g id="line2d_73">
      <path clip-path="url(#pda8e03edd5)" d="
M200.475 721.366
L1357.33 721.366" style="fill:none;stroke:#ffffff;stroke-linecap:round;stroke-width:0.5;"/>
     </g>
     <g id="line2d_74">
      <g>
       <use style="fill:#262626;stroke:#262626;stroke-width:0.5;" x="200.475" xlink:href="#m8735711441" y="721.365586675"/>
      </g>
     </g>
     <g id="line2d_75">
      <g>
       <use style="fill:#262626;stroke:#262626;stroke-width:0.5;" x="1357.3297125" xlink:href="#m8735711441" y="721.365586675"/>
      </g>
     </g>
     <g id="text_10">
      <!-- 3 -->
      <g style="fill:#262626;" transform="translate(190.716875 724.676836675)scale(0.12 -0.12)">
       <use xlink:href="#BitstreamVeraSans-Roman-33"/>
      </g>
     </g>
    </g>
    <g id="ytick_3">
     <g id="line2d_76">
      <path clip-path="url(#pda8e03edd5)" d="
M200.475 543.98
L1357.33 543.98" style="fill:none;stroke:#ffffff;stroke-linecap:round;stroke-width:0.5;"/>
     </g>
     <g id="line2d_77">
      <g>
       <use style="fill:#262626;stroke:#262626;stroke-width:0.5;" x="200.475" xlink:href="#m8735711441" y="543.979994629"/>
      </g>
     </g>
     <g id="line2d_78">
      <g>
       <use style="fill:#262626;stroke:#262626;stroke-width:0.5;" x="1357.3297125" xlink:href="#m8735711441" y="543.979994629"/>
      </g>
     </g>
     <g id="text_11">
      <!-- 4 -->
      <g style="fill:#262626;" transform="translate(190.1 547.291244629)scale(0.12 -0.12)">
       <use xlink:href="#BitstreamVeraSans-Roman-34"/>
      </g>
     </g>
    </g>
    <g id="ytick_4">
     <g id="line2d_79">
      <path clip-path="url(#pda8e03edd5)" d="
M200.475 366.594
L1357.33 366.594" style="fill:none;stroke:#ffffff;stroke-linecap:round;stroke-width:0.5;"/>
     </g>
     <g id="line2d_80">
      <g>
       <use style="fill:#262626;stroke:#262626;stroke-width:0.5;" x="200.475" xlink:href="#m8735711441" y="366.594402584"/>
      </g>
     </g>
     <g id="line2d_81">
      <g>
       <use style="fill:#262626;stroke:#262626;stroke-width:0.5;" x="1357.3297125" xlink:href="#m8735711441" y="366.594402584"/>
      </g>
     </g>
     <g id="text_12">
      <!-- 5 -->
      <g style="fill:#262626;" transform="translate(190.814375 369.905652584)scale(0.12 -0.12)">
       <use xlink:href="#BitstreamVeraSans-Roman-35"/>
      </g>
     </g>
    </g>
    <g id="ytick_5">
     <g id="line2d_82">
      <path clip-path="url(#pda8e03edd5)" d="
M200.475 189.209
L1357.33 189.209" style="fill:none;stroke:#ffffff;stroke-linecap:round;stroke-width:0.5;"/>
     </g>
     <g id="line2d_83">
      <g>
       <use style="fill:#262626;stroke:#262626;stroke-width:0.5;" x="200.475" xlink:href="#m8735711441" y="189.208810538"/>
      </g>
     </g>
     <g id="line2d_84">
      <g>
       <use style="fill:#262626;stroke:#262626;stroke-width:0.5;" x="1357.3297125" xlink:href="#m8735711441" y="189.208810538"/>
      </g>
     </g>
     <g id="text_13">
      <!-- 6 -->
      <g style="fill:#262626;" transform="translate(190.43375 192.520060538)scale(0.12 -0.12)">
       <use xlink:href="#BitstreamVeraSans-Roman-36"/>
      </g>
     </g>
    </g>
    <g id="ytick_6">
     <g id="line2d_85">
      <g>
       <use style="fill:#262626;stroke:#262626;stroke-width:0.5;" x="200.475" xlink:href="#m8735711441" y="863.274060311"/>
      </g>
     </g>
     <g id="line2d_86">
      <g>
       <use style="fill:#262626;stroke:#262626;stroke-width:0.5;" x="1357.3297125" xlink:href="#m8735711441" y="863.274060311"/>
      </g>
     </g>
    </g>
    <g id="ytick_7">
     <g id="line2d_87">
      <g>
       <use style="fill:#262626;stroke:#262626;stroke-width:0.5;" x="200.475" xlink:href="#m8735711441" y="827.796941902"/>
      </g>
     </g>
     <g id="line2d_88">
      <g>
       <use style="fill:#262626;stroke:#262626;stroke-width:0.5;" x="1357.3297125" xlink:href="#m8735711441" y="827.796941902"/>
      </g>
     </g>
    </g>
    <g id="ytick_8">
     <g id="line2d_89">
      <g>
       <use style="fill:#262626;stroke:#262626;stroke-width:0.5;" x="200.475" xlink:href="#m8735711441" y="792.319823493"/>
      </g>
     </g>
     <g id="line2d_90">
      <g>
       <use style="fill:#262626;stroke:#262626;stroke-width:0.5;" x="1357.3297125" xlink:href="#m8735711441" y="792.319823493"/>
      </g>
     </g>
    </g>
    <g id="ytick_9">
     <g id="line2d_91">
      <g>
       <use style="fill:#262626;stroke:#262626;stroke-width:0.5;" x="200.475" xlink:href="#m8735711441" y="756.842705084"/>
      </g>
     </g>
     <g id="line2d_92">
      <g>
       <use style="fill:#262626;stroke:#262626;stroke-width:0.5;" x="1357.3297125" xlink:href="#m8735711441" y="756.842705084"/>
      </g>
     </g>
    </g>
    <g id="ytick_10">
     <g id="line2d_93">
      <g>
       <use style="fill:#262626;stroke:#262626;stroke-width:0.5;" x="200.475" xlink:href="#m8735711441" y="685.888468265"/>
      </g>
     </g>
     <g id="line2d_94">
      <g>
       <use style="fill:#262626;stroke:#262626;stroke-width:0.5;" x="1357.3297125" xlink:href="#m8735711441" y="685.888468265"/>
      </g>
     </g>
    </g>
    <g id="ytick_11">
     <g id="line2d_95">
      <g>
       <use style="fill:#262626;stroke:#262626;stroke-width:0.5;" x="200.475" xlink:href="#m8735711441" y="650.411349856"/>
      </g>
     </g>
     <g id="line2d_96">
      <g>
       <use style="fill:#262626;stroke:#262626;stroke-width:0.5;" x="1357.3297125" xlink:href="#m8735711441" y="650.411349856"/>
      </g>
     </g>
    </g>
    <g id="ytick_12">
     <g id="line2d_97">
      <g>
       <use style="fill:#262626;stroke:#262626;stroke-width:0.5;" x="200.475" xlink:href="#m8735711441" y="614.934231447"/>
      </g>
     </g>
     <g id="line2d_98">
      <g>
       <use style="fill:#262626;stroke:#262626;stroke-width:0.5;" x="1357.3297125" xlink:href="#m8735711441" y="614.934231447"/>
      </g>
     </g>
    </g>
    <g id="ytick_13">
     <g id="line2d_99">
      <g>
       <use style="fill:#262626;stroke:#262626;stroke-width:0.5;" x="200.475" xlink:href="#m8735711441" y="579.457113038"/>
      </g>
     </g>
     <g id="line2d_100">
      <g>
       <use style="fill:#262626;stroke:#262626;stroke-width:0.5;" x="1357.3297125" xlink:href="#m8735711441" y="579.457113038"/>
      </g>
     </g>
    </g>
    <g id="ytick_14">
     <g id="line2d_101">
      <g>
       <use style="fill:#262626;stroke:#262626;stroke-width:0.5;" x="200.475" xlink:href="#m8735711441" y="543.979994629"/>
      </g>
     </g>
     <g id="line2d_102">
      <g>
       <use style="fill:#262626;stroke:#262626;stroke-width:0.5;" x="1357.3297125" xlink:href="#m8735711441" y="543.979994629"/>
      </g>
     </g>
    </g>
    <g id="ytick_15">
     <g id="line2d_103">
      <g>
       <use style="fill:#262626;stroke:#262626;stroke-width:0.5;" x="200.475" xlink:href="#m8735711441" y="508.50287622"/>
      </g>
     </g>
     <g id="line2d_104">
      <g>
       <use style="fill:#262626;stroke:#262626;stroke-width:0.5;" x="1357.3297125" xlink:href="#m8735711441" y="508.50287622"/>
      </g>
     </g>
    </g>
    <g id="ytick_16">
     <g id="line2d_105">
      <g>
       <use style="fill:#262626;stroke:#262626;stroke-width:0.5;" x="200.475" xlink:href="#m8735711441" y="473.025757811"/>
      </g>
     </g>
     <g id="line2d_106">
      <g>
       <use style="fill:#262626;stroke:#262626;stroke-width:0.5;" x="1357.3297125" xlink:href="#m8735711441" y="473.025757811"/>
      </g>
     </g>
    </g>
    <g id="ytick_17">
     <g id="line2d_107">
      <g>
       <use style="fill:#262626;stroke:#262626;stroke-width:0.5;" x="200.475" xlink:href="#m8735711441" y="437.548639402"/>
      </g>
     </g>
     <g id="line2d_108">
      <g>
       <use style="fill:#262626;stroke:#262626;stroke-width:0.5;" x="1357.3297125" xlink:href="#m8735711441" y="437.548639402"/>
      </g>
     </g>
    </g>
    <g id="ytick_18">
     <g id="line2d_109">
      <g>
       <use style="fill:#262626;stroke:#262626;stroke-width:0.5;" x="200.475" xlink:href="#m8735711441" y="402.071520993"/>
      </g>
     </g>
     <g id="line2d_110">
      <g>
       <use style="fill:#262626;stroke:#262626;stroke-width:0.5;" x="1357.3297125" xlink:href="#m8735711441" y="402.071520993"/>
      </g>
     </g>
    </g>
    <g id="ytick_19">
     <g id="line2d_111">
      <g>
       <use style="fill:#262626;stroke:#262626;stroke-width:0.5;" x="200.475" xlink:href="#m8735711441" y="366.594402584"/>
      </g>
     </g>
     <g id="line2d_112">
      <g>
       <use style="fill:#262626;stroke:#262626;stroke-width:0.5;" x="1357.3297125" xlink:href="#m8735711441" y="366.594402584"/>
      </g>
     </g>
    </g>
    <g id="ytick_20">
     <g id="line2d_113">
      <g>
       <use style="fill:#262626;stroke:#262626;stroke-width:0.5;" x="200.475" xlink:href="#m8735711441" y="331.117284174"/>
      </g>
     </g>
     <g id="line2d_114">
      <g>
       <use style="fill:#262626;stroke:#262626;stroke-width:0.5;" x="1357.3297125" xlink:href="#m8735711441" y="331.117284174"/>
      </g>
     </g>
    </g>
    <g id="ytick_21">
     <g id="line2d_115">
      <g>
       <use style="fill:#262626;stroke:#262626;stroke-width:0.5;" x="200.475" xlink:href="#m8735711441" y="295.640165765"/>
      </g>
     </g>
     <g id="line2d_116">
      <g>
       <use style="fill:#262626;stroke:#262626;stroke-width:0.5;" x="1357.3297125" xlink:href="#m8735711441" y="295.640165765"/>
      </g>
     </g>
    </g>
    <g id="ytick_22">
     <g id="line2d_117">
      <g>
       <use style="fill:#262626;stroke:#262626;stroke-width:0.5;" x="200.475" xlink:href="#m8735711441" y="260.163047356"/>
      </g>
     </g>
     <g id="line2d_118">
      <g>
       <use style="fill:#262626;stroke:#262626;stroke-width:0.5;" x="1357.3297125" xlink:href="#m8735711441" y="260.163047356"/>
      </g>
     </g>
    </g>
    <g id="ytick_23">
     <g id="line2d_119">
      <g>
       <use style="fill:#262626;stroke:#262626;stroke-width:0.5;" x="200.475" xlink:href="#m8735711441" y="224.685928947"/>
      </g>
     </g>
     <g id="line2d_120">
      <g>
       <use style="fill:#262626;stroke:#262626;stroke-width:0.5;" x="1357.3297125" xlink:href="#m8735711441" y="224.685928947"/>
      </g>
     </g>
    </g>
    <g id="ytick_24">
     <g id="line2d_121">
      <g>
       <use style="fill:#262626;stroke:#262626;stroke-width:0.5;" x="200.475" xlink:href="#m8735711441" y="189.208810538"/>
      </g>
     </g>
     <g id="line2d_122">
      <g>
       <use style="fill:#262626;stroke:#262626;stroke-width:0.5;" x="1357.3297125" xlink:href="#m8735711441" y="189.208810538"/>
      </g>
     </g>
    </g>
    <g id="ytick_25">
     <g id="line2d_123">
      <g>
       <use style="fill:#262626;stroke:#262626;stroke-width:0.5;" x="200.475" xlink:href="#m8735711441" y="153.731692129"/>
      </g>
     </g>
     <g id="line2d_124">
      <g>
       <use style="fill:#262626;stroke:#262626;stroke-width:0.5;" x="1357.3297125" xlink:href="#m8735711441" y="153.731692129"/>
      </g>
     </g>
    </g>
    <g id="text_14">
     <!-- Mbits/s -->
     <defs>
      <path d="
M18.3125 70.2188
L18.3125 54.6875
L36.8125 54.6875
L36.8125 47.7031
L18.3125 47.7031
L18.3125 18.0156
Q18.3125 11.3281 20.1406 9.42188
Q21.9688 7.51562 27.5938 7.51562
L36.8125 7.51562
L36.8125 0
L27.5938 0
Q17.1875 0 13.2344 3.875
Q9.28125 7.76562 9.28125 18.0156
L9.28125 47.7031
L2.6875 47.7031
L2.6875 54.6875
L9.28125 54.6875
L9.28125 70.2188
z
" id="BitstreamVeraSans-Roman-74"/>
      <path d="
M9.8125 72.9062
L24.5156 72.9062
L43.1094 23.2969
L61.8125 72.9062
L76.5156 72.9062
L76.5156 0
L66.8906 0
L66.8906 64.0156
L48.0938 14.0156
L38.1875 14.0156
L19.3906 64.0156
L19.3906 0
L9.8125 0
z
" id="BitstreamVeraSans-Roman-4d"/>
      <path d="
M25.3906 72.9062
L33.6875 72.9062
L8.29688 -9.28125
L0 -9.28125
z
" id="BitstreamVeraSans-Roman-2f"/>
      <path d="
M48.6875 27.2969
Q48.6875 37.2031 44.6094 42.8438
Q40.5312 48.4844 33.4062 48.4844
Q26.2656 48.4844 22.1875 42.8438
Q18.1094 37.2031 18.1094 27.2969
Q18.1094 17.3906 22.1875 11.75
Q26.2656 6.10938 33.4062 6.10938
Q40.5312 6.10938 44.6094 11.75
Q48.6875 17.3906 48.6875 27.2969
M18.1094 46.3906
Q20.9531 51.2656 25.2656 53.625
Q29.5938 56 35.5938 56
Q45.5625 56 51.7812 48.0938
Q58.0156 40.1875 58.0156 27.2969
Q58.0156 14.4062 51.7812 6.48438
Q45.5625 -1.42188 35.5938 -1.42188
Q29.5938 -1.42188 25.2656 0.953125
Q20.9531 3.32812 18.1094 8.20312
L18.1094 0
L9.07812 0
L9.07812 75.9844
L18.1094 75.9844
z
" id="BitstreamVeraSans-Roman-62"/>
     </defs>
     <g style="fill:#262626;" transform="translate(182.604375 527.54625)rotate(-90.0)scale(0.12 -0.12)">
      <use xlink:href="#BitstreamVeraSans-Roman-4d"/>
      <use x="86.279296875" xlink:href="#BitstreamVeraSans-Roman-62"/>
      <use x="149.755859375" xlink:href="#BitstreamVeraSans-Roman-69"/>
      <use x="177.5390625" xlink:href="#BitstreamVeraSans-Roman-74"/>
      <use x="216.748046875" xlink:href="#BitstreamVeraSans-Roman-73"/>
      <use x="268.84765625" xlink:href="#BitstreamVeraSans-Roman-2f"/>
      <use x="302.5390625" xlink:href="#BitstreamVeraSans-Roman-73"/>
     </g>
    </g>
   </g>
   <g id="line2d_125">
    <path clip-path="url(#pda8e03edd5)" d="
M200.475 150.184
L204.331 244.708
L208.187 313.691
L212.044 368.216
L215.9 438.619
L219.756 460.37
L223.612 396.204
L227.468 349.877
L231.324 457.384
L235.181 415.062
L239.037 386.093
L242.893 391.753
L246.749 454.042
L250.605 418.489
L254.462 397.409
L258.318 384.612
L262.174 365.582
L266.03 466.755
L269.886 456.652
L273.742 365.545
L277.599 420.51
L281.455 408.21
L285.311 390.716
L289.167 418.691
L293.023 535.678
L296.88 656.26
L300.736 771.283
L304.592 821.743
L308.448 827.531
L312.304 799.006
L316.16 894.521
L320.017 850.529
L323.873 778.891
L327.729 869.369
L331.585 829.357
L335.441 803.456
L339.298 828.734
L343.154 893.224
L347.01 784.741
L350.866 799.22
L354.722 840.856
L358.578 856.566
L362.435 807.48
L366.291 787.372
L370.147 845.386
L374.003 849.552
L377.859 810.058
L381.716 810.058
L385.572 861.637
L389.428 816.054
L393.284 817.154
L397.14 883.187
L400.996 877.465
L404.853 642.088
L408.709 481.183
L412.565 418.923
L416.421 438.633
L420.277 400.484
L424.134 351.039
L427.99 359.73
L431.846 459.992
L435.702 421.584
L439.558 378.044
L443.414 457.511
L447.271 380.061
L451.127 413.246
L454.983 461.727
L458.839 352.673
L462.695 393.511
L466.552 411.963
L470.408 405.156
L474.264 376.935
L478.12 413.245
L481.976 462.417
L485.832 517.532
L489.689 639.342
L493.545 813.218
L497.401 863.863
L501.257 843.65
L505.113 826.632
L508.97 780.479
L512.826 841.808
L516.682 897.787
L520.538 774.797
L524.394 781.978
L528.251 861.74
L532.107 881.731
L535.963 793.217
L539.819 800.119
L543.675 795.241
L547.531 846.236
L551.388 904.915
L555.244 811.045
L559.1 788.334
L562.956 830.861
L566.812 846.143
L570.669 801.189
L574.525 801.189
L578.381 874.714
L582.237 886.283
L586.093 828.292
L589.949 788.075
L593.806 810
L597.662 690.422
L601.518 458.437
L605.374 334.528
L609.23 420.556
L613.087 442.619
L616.943 342.021
L620.799 354.349
L624.655 390.619
L628.511 421.763
L632.367 438.554
L636.224 434.807
L640.08 384.622
L643.936 376.402
L647.792 450.976
L651.648 414.722
L655.505 396.46
L659.361 387.296
L663.217 381.799
L667.073 432.481
L670.929 419.843
L674.785 428.042
L678.642 512.616
L682.498 683.865
L686.354 814.389
L690.21 856.122
L694.066 840.971
L697.923 769.03
L701.779 838.357
L705.635 860.2
L709.491 819.778
L713.347 869.622
L717.203 781.901
L721.06 840.524
L724.916 840.529
L728.772 810.659
L732.628 901.352
L736.484 826.41
L740.341 805.827
L744.197 804.779
L748.053 802.919
L751.909 895.083
L755.765 811.791
L759.621 771.364
L763.478 862.761
L767.334 776.267
L771.19 857.953
L775.046 827.482
L778.902 824.093
L782.759 884.28
L786.615 790.919
L794.327 526.902
L798.183 403.547
L802.039 373.758
L805.896 384.76
L809.752 409.42
L813.608 426.497
L817.464 446.003
L821.32 403.229
L825.177 377.217
L829.033 459.447
L832.889 381.997
L836.745 415.931
L840.601 478.561
L844.457 358.464
L848.314 390.246
L852.17 402.395
L856.026 382.058
L859.882 343.103
L863.738 428.333
L867.595 440.203
L871.451 414.06
L875.307 460.49
L879.163 350.084
L883.019 330.6
L886.875 477.89
L890.732 433.384
L894.588 390.524
L898.444 364.821
L902.3 372.755
L906.156 471.939
L910.013 419.644
L913.869 365.756
L917.725 411.168
L921.581 422.531
L925.437 397.647
L929.293 380.778
L933.15 428.948
L937.006 385.946
L940.862 409.801
L944.718 439.702
L948.574 415.279
L952.431 361.662
L956.287 384.151
L960.143 410.797
L963.999 362.012
L967.855 439.954
L971.711 442.978
L975.568 411.35
L979.424 364.213
L983.28 388.632
L987.136 431.805
L990.992 467.245
L994.849 426.408
L998.705 370.524
L1002.56 365.393
L1006.42 429.186
L1010.27 405.795
L1014.13 402.279
L1017.99 392.033
L1021.84 371.473
L1025.7 445.383
L1029.55 425.223
L1033.41 411.397
L1037.27 447.12
L1041.12 403.713
L1044.98 364.723
L1048.84 357.767
L1052.69 435.071
L1056.55 378.484
L1060.4 425.38
L1064.26 479.597
L1068.12 380.154
L1071.97 398.929
L1075.83 408.066
L1079.68 398.334
L1083.54 368.544
L1087.4 399.436
L1091.25 419.193
L1095.11 419.052
L1098.97 430.334
L1102.82 430.592
L1106.68 410.506
L1110.53 349.767
L1114.39 367.317
L1118.25 398.688
L1122.1 426.906
L1125.96 426.906
L1129.81 402.151
L1133.67 397.025
L1137.53 408.127
L1141.38 371.427
L1145.24 378.88
L1149.1 416.282
L1152.95 459.58
L1156.81 401.551
L1160.66 420.993
L1164.52 424.306
L1168.38 364.259
L1172.23 351.787
L1176.09 420.489
L1179.95 433.635
L1183.8 358.36
L1187.66 428.762
L1191.51 401.911
L1195.37 389.538
L1199.23 411.021
L1203.08 458.855
L1206.94 439.622
L1210.79 385.996
L1214.65 318.372
L1218.51 422.474
L1222.36 398.272
L1226.22 405.456
L1230.08 475.132
L1233.93 393.83
L1237.79 395.14
L1241.64 417.923
L1245.5 383.376
L1249.36 405.575
L1253.21 406.747
L1257.07 395.588
L1260.93 426.818
L1264.78 426.168
L1268.64 398.586
L1272.49 351.247
L1276.35 397.521
L1280.21 419.008
L1284.06 412.395
L1287.92 364.821
L1291.77 416.297
L1295.63 399.276
L1299.49 394.145
L1303.34 444.65
L1307.2 421.61
L1311.06 382.676
L1314.91 376.947
L1318.77 470.586
L1322.62 372.912
L1326.48 402.801
L1330.34 501.843
L1334.19 439.979
L1338.05 409.213
L1341.9 386.879
L1345.76 368.445
L1349.62 406.592
L1349.62 406.592" style="fill:none;stroke:#1b9e77;stroke-linecap:round;"/>
   </g>
   <g id="line2d_126">
    <path clip-path="url(#pda8e03edd5)" d="
M304.592 562.592
L308.448 707.325
L312.304 792.028
L316.16 795.515
L320.017 804.466
L323.873 821.966
L327.729 835.613
L335.441 822.526
L343.154 842.754
L347.01 839.636
L350.866 831.499
L354.722 826.451
L358.578 823.982
L362.435 818.445
L366.291 808.112
L370.147 814.658
L374.003 855.472
L377.859 890.716
L385.572 813.189
L389.428 175.018
L389.428 175.018" style="fill:none;stroke:#d95f02;stroke-linecap:round;"/>
   </g>
   <g id="line2d_127">
    <path clip-path="url(#pda8e03edd5)" d="
M493.545 363.047
L497.401 559.789
L501.257 772.484
L505.113 813.868
L508.97 816.367
L512.826 824.159
L516.682 834.385
L520.538 834.416
L524.394 820.933
L528.251 817.783
L535.963 854.405
L543.675 785.468
L551.388 834.239
L555.244 835.914
L559.1 830.218
L562.956 828.722
L566.812 830.331
L570.669 829.822
L574.525 825.706
L578.381 756.536
L582.237 494.312
L582.237 494.312" style="fill:none;stroke:#7570b3;stroke-linecap:round;"/>
   </g>
   <g id="line2d_128">
    <path clip-path="url(#pda8e03edd5)" d="
M690.21 553.185
L694.066 697.917
L697.923 791.487
L701.779 794.102
L705.635 801.814
L709.491 820.109
L713.347 836.041
L721.06 822.87
L724.916 831.983
L728.772 842.097
L732.628 843.978
L736.484 841.618
L740.341 830.206
L744.197 805.496
L748.053 797.855
L751.909 816.357
L755.765 835.93
L763.478 884.198
L771.19 821.743
L775.046 109.385
L775.046 109.385" style="fill:none;stroke:#e7298a;stroke-linecap:round;"/>
   </g>
   <g id="patch_3">
    <path d="
M200.475 101.43
L1357.33 101.43" style="fill:none;"/>
   </g>
   <g id="patch_4">
    <path d="
M1357.33 912.87
L1357.33 101.43" style="fill:none;"/>
   </g>
   <g id="patch_5">
    <path d="
M200.475 912.87
L1357.33 912.87" style="fill:none;"/>
   </g>
   <g id="patch_6">
    <path d="
M200.475 912.87
L200.475 101.43" style="fill:none;"/>
   </g>
   <g id="legend_1">
    <g id="line2d_129">
     <path d="
M1384.47 109.525
L1404.46 109.525" style="fill:none;stroke:#1b9e77;stroke-linecap:round;"/>
    </g>
    <g id="line2d_130"/>
    <g id="text_15">
     <!-- Cubic -->
     <defs>
      <path d="
M8.5 21.5781
L8.5 54.6875
L17.4844 54.6875
L17.4844 21.9219
Q17.4844 14.1562 20.5 10.2656
Q23.5312 6.39062 29.5938 6.39062
Q36.8594 6.39062 41.0781 11.0312
Q45.3125 15.6719 45.3125 23.6875
L45.3125 54.6875
L54.2969 54.6875
L54.2969 0
L45.3125 0
L45.3125 8.40625
Q42.0469 3.42188 37.7188 1
Q33.4062 -1.42188 27.6875 -1.42188
Q18.2656 -1.42188 13.375 4.4375
Q8.5 10.2969 8.5 21.5781" id="BitstreamVeraSans-Roman-75"/>
      <path d="
M64.4062 67.2812
L64.4062 56.8906
Q59.4219 61.5312 53.7812 63.8125
Q48.1406 66.1094 41.7969 66.1094
Q29.2969 66.1094 22.6562 58.4688
Q16.0156 50.8281 16.0156 36.375
Q16.0156 21.9688 22.6562 14.3281
Q29.2969 6.6875 41.7969 6.6875
Q48.1406 6.6875 53.7812 8.98438
Q59.4219 11.2812 64.4062 15.9219
L64.4062 5.60938
Q59.2344 2.09375 53.4375 0.328125
Q47.6562 -1.42188 41.2188 -1.42188
Q24.6562 -1.42188 15.125 8.70312
Q5.60938 18.8438 5.60938 36.375
Q5.60938 53.9531 15.125 64.0781
Q24.6562 74.2188 41.2188 74.2188
Q47.75 74.2188 53.5312 72.4844
Q59.3281 70.75 64.4062 67.2812" id="BitstreamVeraSans-Roman-43"/>
      <path d="
M48.7812 52.5938
L48.7812 44.1875
Q44.9688 46.2969 41.1406 47.3438
Q37.3125 48.3906 33.4062 48.3906
Q24.6562 48.3906 19.8125 42.8438
Q14.9844 37.3125 14.9844 27.2969
Q14.9844 17.2812 19.8125 11.7344
Q24.6562 6.20312 33.4062 6.20312
Q37.3125 6.20312 41.1406 7.25
Q44.9688 8.29688 48.7812 10.4062
L48.7812 2.09375
Q45.0156 0.34375 40.9844 -0.53125
Q36.9688 -1.42188 32.4219 -1.42188
Q20.0625 -1.42188 12.7812 6.34375
Q5.51562 14.1094 5.51562 27.2969
Q5.51562 40.6719 12.8594 48.3281
Q20.2188 56 33.0156 56
Q37.1562 56 41.1094 55.1406
Q45.0625 54.2969 48.7812 52.5938" id="BitstreamVeraSans-Roman-63"/>
     </defs>
     <g style="fill:#262626;" transform="translate(1412.45400675 113.023798125)scale(0.09996 -0.09996)">
      <use xlink:href="#BitstreamVeraSans-Roman-43"/>
      <use x="69.82421875" xlink:href="#BitstreamVeraSans-Roman-75"/>
      <use x="133.203125" xlink:href="#BitstreamVeraSans-Roman-62"/>
      <use x="196.6796875" xlink:href="#BitstreamVeraSans-Roman-69"/>
      <use x="224.462890625" xlink:href="#BitstreamVeraSans-Roman-63"/>
     </g>
    </g>
    <g id="line2d_131">
     <path d="
M1384.47 124.197
L1404.46 124.197" style="fill:none;stroke:#d95f02;stroke-linecap:round;"/>
    </g>
    <g id="line2d_132"/>
    <g id="text_16">
     <!-- Cubic 2 -->
     <g style="fill:#262626;" transform="translate(1412.45400675 127.696051875)scale(0.09996 -0.09996)">
      <use xlink:href="#BitstreamVeraSans-Roman-43"/>
      <use x="69.82421875" xlink:href="#BitstreamVeraSans-Roman-75"/>
      <use x="133.203125" xlink:href="#BitstreamVeraSans-Roman-62"/>
      <use x="196.6796875" xlink:href="#BitstreamVeraSans-Roman-69"/>
      <use x="224.462890625" xlink:href="#BitstreamVeraSans-Roman-63"/>
      <use x="279.443359375" xlink:href="#BitstreamVeraSans-Roman-20"/>
      <use x="311.23046875" xlink:href="#BitstreamVeraSans-Roman-32"/>
     </g>
    </g>
    <g id="line2d_133">
     <path d="
M1384.47 138.87
L1404.46 138.87" style="fill:none;stroke:#7570b3;stroke-linecap:round;"/>
    </g>
    <g id="line2d_134"/>
    <g id="text_17">
     <!-- Reno -->
     <defs>
      <path d="
M54.8906 33.0156
L54.8906 0
L45.9062 0
L45.9062 32.7188
Q45.9062 40.4844 42.875 44.3281
Q39.8438 48.1875 33.7969 48.1875
Q26.5156 48.1875 22.3125 43.5469
Q18.1094 38.9219 18.1094 30.9062
L18.1094 0
L9.07812 0
L9.07812 54.6875
L18.1094 54.6875
L18.1094 46.1875
Q21.3438 51.125 25.7031 53.5625
Q30.0781 56 35.7969 56
Q45.2188 56 50.0469 50.1719
Q54.8906 44.3438 54.8906 33.0156" id="BitstreamVeraSans-Roman-6e"/>
      <path d="
M44.3906 34.1875
Q47.5625 33.1094 50.5625 29.5938
Q53.5625 26.0781 56.5938 19.9219
L66.6094 0
L56 0
L46.6875 18.7031
Q43.0625 26.0312 39.6719 28.4219
Q36.2812 30.8125 30.4219 30.8125
L19.6719 30.8125
L19.6719 0
L9.8125 0
L9.8125 72.9062
L32.0781 72.9062
Q44.5781 72.9062 50.7344 67.6719
Q56.8906 62.4531 56.8906 51.9062
Q56.8906 45.0156 53.6875 40.4688
Q50.4844 35.9375 44.3906 34.1875
M19.6719 64.7969
L19.6719 38.9219
L32.0781 38.9219
Q39.2031 38.9219 42.8438 42.2188
Q46.4844 45.5156 46.4844 51.9062
Q46.4844 58.2969 42.8438 61.5469
Q39.2031 64.7969 32.0781 64.7969
z
" id="BitstreamVeraSans-Roman-52"/>
      <path d="
M30.6094 48.3906
Q23.3906 48.3906 19.1875 42.75
Q14.9844 37.1094 14.9844 27.2969
Q14.9844 17.4844 19.1562 11.8438
Q23.3438 6.20312 30.6094 6.20312
Q37.7969 6.20312 41.9844 11.8594
Q46.1875 17.5312 46.1875 27.2969
Q46.1875 37.0156 41.9844 42.7031
Q37.7969 48.3906 30.6094 48.3906
M30.6094 56
Q42.3281 56 49.0156 48.375
Q55.7188 40.7656 55.7188 27.2969
Q55.7188 13.875 49.0156 6.21875
Q42.3281 -1.42188 30.6094 -1.42188
Q18.8438 -1.42188 12.1719 6.21875
Q5.51562 13.875 5.51562 27.2969
Q5.51562 40.7656 12.1719 48.375
Q18.8438 56 30.6094 56" id="BitstreamVeraSans-Roman-6f"/>
     </defs>
     <g style="fill:#262626;" transform="translate(1412.45400675 142.368305625)scale(0.09996 -0.09996)">
      <use xlink:href="#BitstreamVeraSans-Roman-52"/>
      <use x="64.982421875" xlink:href="#BitstreamVeraSans-Roman-65"/>
      <use x="126.505859375" xlink:href="#BitstreamVeraSans-Roman-6e"/>
      <use x="189.884765625" xlink:href="#BitstreamVeraSans-Roman-6f"/>
     </g>
    </g>
    <g id="line2d_135">
     <path d="
M1384.47 153.542
L1404.46 153.542" style="fill:none;stroke:#e7298a;stroke-linecap:round;"/>
    </g>
    <g id="line2d_136"/>
    <g id="text_18">
     <!-- Westwood -->
     <defs>
      <path d="
M45.4062 46.3906
L45.4062 75.9844
L54.3906 75.9844
L54.3906 0
L45.4062 0
L45.4062 8.20312
Q42.5781 3.32812 38.25 0.953125
Q33.9375 -1.42188 27.875 -1.42188
Q17.9688 -1.42188 11.7344 6.48438
Q5.51562 14.4062 5.51562 27.2969
Q5.51562 40.1875 11.7344 48.0938
Q17.9688 56 27.875 56
Q33.9375 56 38.25 53.625
Q42.5781 51.2656 45.4062 46.3906
M14.7969 27.2969
Q14.7969 17.3906 18.875 11.75
Q22.9531 6.10938 30.0781 6.10938
Q37.2031 6.10938 41.2969 11.75
Q45.4062 17.3906 45.4062 27.2969
Q45.4062 37.2031 41.2969 42.8438
Q37.2031 48.4844 30.0781 48.4844
Q22.9531 48.4844 18.875 42.8438
Q14.7969 37.2031 14.7969 27.2969" id="BitstreamVeraSans-Roman-64"/>
      <path d="
M4.20312 54.6875
L13.1875 54.6875
L24.4219 12.0156
L35.5938 54.6875
L46.1875 54.6875
L57.4219 12.0156
L68.6094 54.6875
L77.5938 54.6875
L63.2812 0
L52.6875 0
L40.9219 44.8281
L29.1094 0
L18.5 0
z
" id="BitstreamVeraSans-Roman-77"/>
      <path d="
M3.32812 72.9062
L13.2812 72.9062
L28.6094 11.2812
L43.8906 72.9062
L54.9844 72.9062
L70.3125 11.2812
L85.5938 72.9062
L95.6094 72.9062
L77.2969 0
L64.8906 0
L49.5156 63.2812
L33.9844 0
L21.5781 0
z
" id="BitstreamVeraSans-Roman-57"/>
     </defs>
     <g style="fill:#262626;" transform="translate(1412.45400675 157.040559375)scale(0.09996 -0.09996)">
      <use xlink:href="#BitstreamVeraSans-Roman-57"/>
      <use x="93.001953125" xlink:href="#BitstreamVeraSans-Roman-65"/>
      <use x="154.525390625" xlink:href="#BitstreamVeraSans-Roman-73"/>
      <use x="206.625" xlink:href="#BitstreamVeraSans-Roman-74"/>
      <use x="245.833984375" xlink:href="#BitstreamVeraSans-Roman-77"/>
      <use x="327.62109375" xlink:href="#BitstreamVeraSans-Roman-6f"/>
      <use x="388.802734375" xlink:href="#BitstreamVeraSans-Roman-6f"/>
      <use x="449.984375" xlink:href="#BitstreamVeraSans-Roman-64"/>
     </g>
    </g>
   </g>
  </g>
  <g id="text_19">
   <!-- Two TCP upload streams; 2nd stream started delayed -->
   <defs>
    <path d="
M11.7188 51.7031
L22.0156 51.7031
L22.0156 39.3125
L11.7188 39.3125
z

M11.7188 12.4062
L22.0156 12.4062
L22.0156 4
L14.0156 -11.625
L7.71875 -11.625
L11.7188 4
z
" id="BitstreamVeraSans-Roman-3b"/>
    <path d="
M34.2812 27.4844
Q23.3906 27.4844 19.1875 25
Q14.9844 22.5156 14.9844 16.5
Q14.9844 11.7188 18.1406 8.90625
Q21.2969 6.10938 26.7031 6.10938
Q34.1875 6.10938 38.7031 11.4062
Q43.2188 16.7031 43.2188 25.4844
L43.2188 27.4844
z

M52.2031 31.2031
L52.2031 0
L43.2188 0
L43.2188 8.29688
Q40.1406 3.32812 35.5469 0.953125
Q30.9531 -1.42188 24.3125 -1.42188
Q15.9219 -1.42188 10.9531 3.29688
Q6 8.01562 6 15.9219
Q6 25.1406 12.1719 29.8281
Q18.3594 34.5156 30.6094 34.5156
L43.2188 34.5156
L43.2188 35.4062
Q43.2188 41.6094 39.1406 45
Q35.0625 48.3906 27.6875 48.3906
Q23 48.3906 18.5469 47.2656
Q14.1094 46.1406 10.0156 43.8906
L10.0156 52.2031
Q14.9375 54.1094 19.5781 55.0469
Q24.2188 56 28.6094 56
Q40.4844 56 46.3438 49.8438
Q52.2031 43.7031 52.2031 31.2031" id="BitstreamVeraSans-Roman-61"/>
    <path d="
M9.42188 75.9844
L18.4062 75.9844
L18.4062 0
L9.42188 0
z
" id="BitstreamVeraSans-Roman-6c"/>
    <path d="
M19.6719 64.7969
L19.6719 37.4062
L32.0781 37.4062
Q38.9688 37.4062 42.7188 40.9688
Q46.4844 44.5312 46.4844 51.125
Q46.4844 57.6719 42.7188 61.2344
Q38.9688 64.7969 32.0781 64.7969
z

M9.8125 72.9062
L32.0781 72.9062
Q44.3438 72.9062 50.6094 67.3594
Q56.8906 61.8125 56.8906 51.125
Q56.8906 40.3281 50.6094 34.8125
Q44.3438 29.2969 32.0781 29.2969
L19.6719 29.2969
L19.6719 0
L9.8125 0
z
" id="BitstreamVeraSans-Roman-50"/>
    <path d="
M32.1719 -5.07812
Q28.375 -14.8438 24.75 -17.8125
Q21.1406 -20.7969 15.0938 -20.7969
L7.90625 -20.7969
L7.90625 -13.2812
L13.1875 -13.2812
Q16.8906 -13.2812 18.9375 -11.5156
Q21 -9.76562 23.4844 -3.21875
L25.0938 0.875
L2.98438 54.6875
L12.5 54.6875
L29.5938 11.9219
L46.6875 54.6875
L56.2031 54.6875
z
" id="BitstreamVeraSans-Roman-79"/>
    <path d="
M41.1094 46.2969
Q39.5938 47.1719 37.8125 47.5781
Q36.0312 48 33.8906 48
Q26.2656 48 22.1875 43.0469
Q18.1094 38.0938 18.1094 28.8125
L18.1094 0
L9.07812 0
L9.07812 54.6875
L18.1094 54.6875
L18.1094 46.1875
Q20.9531 51.1719 25.4844 53.5781
Q30.0312 56 36.5312 56
Q37.4531 56 38.5781 55.875
Q39.7031 55.7656 41.0625 55.5156
z
" id="BitstreamVeraSans-Roman-72"/>
    <path d="
M18.1094 8.20312
L18.1094 -20.7969
L9.07812 -20.7969
L9.07812 54.6875
L18.1094 54.6875
L18.1094 46.3906
Q20.9531 51.2656 25.2656 53.625
Q29.5938 56 35.5938 56
Q45.5625 56 51.7812 48.0938
Q58.0156 40.1875 58.0156 27.2969
Q58.0156 14.4062 51.7812 6.48438
Q45.5625 -1.42188 35.5938 -1.42188
Q29.5938 -1.42188 25.2656 0.953125
Q20.9531 3.32812 18.1094 8.20312
M48.6875 27.2969
Q48.6875 37.2031 44.6094 42.8438
Q40.5312 48.4844 33.4062 48.4844
Q26.2656 48.4844 22.1875 42.8438
Q18.1094 37.2031 18.1094 27.2969
Q18.1094 17.3906 22.1875 11.75
Q26.2656 6.10938 33.4062 6.10938
Q40.5312 6.10938 44.6094 11.75
Q48.6875 17.3906 48.6875 27.2969" id="BitstreamVeraSans-Roman-70"/>
   </defs>
   <g style="fill:#262626;" transform="translate(615.6759375 10.2484375)scale(0.14 -0.14)">
    <use xlink:href="#BitstreamVeraSans-Roman-54"/>
    <use x="44.583984375" xlink:href="#BitstreamVeraSans-Roman-77"/>
    <use x="126.37109375" xlink:href="#BitstreamVeraSans-Roman-6f"/>
    <use x="187.552734375" xlink:href="#BitstreamVeraSans-Roman-20"/>
    <use x="219.33984375" xlink:href="#BitstreamVeraSans-Roman-54"/>
    <use x="274.548828125" xlink:href="#BitstreamVeraSans-Roman-43"/>
    <use x="344.373046875" xlink:href="#BitstreamVeraSans-Roman-50"/>
    <use x="404.67578125" xlink:href="#BitstreamVeraSans-Roman-20"/>
    <use x="436.462890625" xlink:href="#BitstreamVeraSans-Roman-75"/>
    <use x="499.841796875" xlink:href="#BitstreamVeraSans-Roman-70"/>
    <use x="563.318359375" xlink:href="#BitstreamVeraSans-Roman-6c"/>
    <use x="591.1015625" xlink:href="#BitstreamVeraSans-Roman-6f"/>
    <use x="652.283203125" xlink:href="#BitstreamVeraSans-Roman-61"/>
    <use x="713.5625" xlink:href="#BitstreamVeraSans-Roman-64"/>
    <use x="777.0390625" xlink:href="#BitstreamVeraSans-Roman-20"/>
    <use x="808.826171875" xlink:href="#BitstreamVeraSans-Roman-73"/>
    <use x="860.92578125" xlink:href="#BitstreamVeraSans-Roman-74"/>
    <use x="900.134765625" xlink:href="#BitstreamVeraSans-Roman-72"/>
    <use x="938.998046875" xlink:href="#BitstreamVeraSans-Roman-65"/>
    <use x="1000.52148438" xlink:href="#BitstreamVeraSans-Roman-61"/>
    <use x="1061.80078125" xlink:href="#BitstreamVeraSans-Roman-6d"/>
    <use x="1159.21289062" xlink:href="#BitstreamVeraSans-Roman-73"/>
    <use x="1211.3125" xlink:href="#BitstreamVeraSans-Roman-3b"/>
    <use x="1245.00390625" xlink:href="#BitstreamVeraSans-Roman-20"/>
    <use x="1276.79101562" xlink:href="#BitstreamVeraSans-Roman-32"/>
    <use x="1340.4140625" xlink:href="#BitstreamVeraSans-Roman-6e"/>
    <use x="1403.79296875" xlink:href="#BitstreamVeraSans-Roman-64"/>
    <use x="1467.26953125" xlink:href="#BitstreamVeraSans-Roman-20"/>
    <use x="1499.05664062" xlink:href="#BitstreamVeraSans-Roman-73"/>
    <use x="1551.15625" xlink:href="#BitstreamVeraSans-Roman-74"/>
    <use x="1590.36523438" xlink:href="#BitstreamVeraSans-Roman-72"/>
    <use x="1629.22851562" xlink:href="#BitstreamVeraSans-Roman-65"/>
    <use x="1690.75195312" xlink:href="#BitstreamVeraSans-Roman-61"/>
    <use x="1752.03125" xlink:href="#BitstreamVeraSans-Roman-6d"/>
    <use x="1849.44335938" xlink:href="#BitstreamVeraSans-Roman-20"/>
    <use x="1881.23046875" xlink:href="#BitstreamVeraSans-Roman-73"/>
    <use x="1933.33007812" xlink:href="#BitstreamVeraSans-Roman-74"/>
    <use x="1972.5390625" xlink:href="#BitstreamVeraSans-Roman-61"/>
    <use x="2033.81835938" xlink:href="#BitstreamVeraSans-Roman-72"/>
    <use x="2074.93164062" xlink:href="#BitstreamVeraSans-Roman-74"/>
    <use x="2114.140625" xlink:href="#BitstreamVeraSans-Roman-65"/>
    <use x="2175.6640625" xlink:href="#BitstreamVeraSans-Roman-64"/>
    <use x="2239.140625" xlink:href="#BitstreamVeraSans-Roman-20"/>
    <use x="2270.92773438" xlink:href="#BitstreamVeraSans-Roman-64"/>
    <use x="2334.40429688" xlink:href="#BitstreamVeraSans-Roman-65"/>
    <use x="2395.92773438" xlink:href="#BitstreamVeraSans-Roman-6c"/>
    <use x="2423.7109375" xlink:href="#BitstreamVeraSans-Roman-61"/>
    <use x="2484.99023438" xlink:href="#BitstreamVeraSans-Roman-79"/>
    <use x="2544.16992188" xlink:href="#BitstreamVeraSans-Roman-65"/>
    <use x="2605.69335938" xlink:href="#BitstreamVeraSans-Roman-64"/>
   </g>
   <!-- Bandwidth plot -->
   <defs>
    <path d="
M19.6719 34.8125
L19.6719 8.10938
L35.5 8.10938
Q43.4531 8.10938 47.2812 11.4062
Q51.125 14.7031 51.125 21.4844
Q51.125 28.3281 47.2812 31.5625
Q43.4531 34.8125 35.5 34.8125
z

M19.6719 64.7969
L19.6719 42.8281
L34.2812 42.8281
Q41.5 42.8281 45.0312 45.5312
Q48.5781 48.25 48.5781 53.8125
Q48.5781 59.3281 45.0312 62.0625
Q41.5 64.7969 34.2812 64.7969
z

M9.8125 72.9062
L35.0156 72.9062
Q46.2969 72.9062 52.3906 68.2188
Q58.5 63.5312 58.5 54.8906
Q58.5 48.1875 55.375 44.2344
Q52.25 40.2812 46.1875 39.3125
Q53.4688 37.75 57.5 32.7812
Q61.5312 27.8281 61.5312 20.4062
Q61.5312 10.6406 54.8906 5.3125
Q48.25 0 35.9844 0
L9.8125 0
z
" id="BitstreamVeraSans-Roman-42"/>
    <path d="
M54.8906 33.0156
L54.8906 0
L45.9062 0
L45.9062 32.7188
Q45.9062 40.4844 42.875 44.3281
Q39.8438 48.1875 33.7969 48.1875
Q26.5156 48.1875 22.3125 43.5469
Q18.1094 38.9219 18.1094 30.9062
L18.1094 0
L9.07812 0
L9.07812 75.9844
L18.1094 75.9844
L18.1094 46.1875
Q21.3438 51.125 25.7031 53.5625
Q30.0781 56 35.7969 56
Q45.2188 56 50.0469 50.1719
Q54.8906 44.3438 54.8906 33.0156" id="BitstreamVeraSans-Roman-68"/>
   </defs>
   <g style="fill:#262626;" transform="translate(749.16046875 25.925375)scale(0.14 -0.14)">
    <use xlink:href="#BitstreamVeraSans-Roman-42"/>
    <use x="68.603515625" xlink:href="#BitstreamVeraSans-Roman-61"/>
    <use x="129.8828125" xlink:href="#BitstreamVeraSans-Roman-6e"/>
    <use x="193.26171875" xlink:href="#BitstreamVeraSans-Roman-64"/>
    <use x="256.73828125" xlink:href="#BitstreamVeraSans-Roman-77"/>
    <use x="338.525390625" xlink:href="#BitstreamVeraSans-Roman-69"/>
    <use x="366.30859375" xlink:href="#BitstreamVeraSans-Roman-64"/>
    <use x="429.78515625" xlink:href="#BitstreamVeraSans-Roman-74"/>
    <use x="468.994140625" xlink:href="#BitstreamVeraSans-Roman-68"/>
    <use x="532.373046875" xlink:href="#BitstreamVeraSans-Roman-20"/>
    <use x="564.16015625" xlink:href="#BitstreamVeraSans-Roman-70"/>
    <use x="627.63671875" xlink:href="#BitstreamVeraSans-Roman-6c"/>
    <use x="655.419921875" xlink:href="#BitstreamVeraSans-Roman-6f"/>
    <use x="716.6015625" xlink:href="#BitstreamVeraSans-Roman-74"/>
   </g>
   <!-- pi3_5m500k_fq_codel -->
   <defs>
    <path d="
M14.7969 27.2969
Q14.7969 17.3906 18.875 11.75
Q22.9531 6.10938 30.0781 6.10938
Q37.2031 6.10938 41.2969 11.75
Q45.4062 17.3906 45.4062 27.2969
Q45.4062 37.2031 41.2969 42.8438
Q37.2031 48.4844 30.0781 48.4844
Q22.9531 48.4844 18.875 42.8438
Q14.7969 37.2031 14.7969 27.2969
M45.4062 8.20312
Q42.5781 3.32812 38.25 0.953125
Q33.9375 -1.42188 27.875 -1.42188
Q17.9688 -1.42188 11.7344 6.48438
Q5.51562 14.4062 5.51562 27.2969
Q5.51562 40.1875 11.7344 48.0938
Q17.9688 56 27.875 56
Q33.9375 56 38.25 53.625
Q42.5781 51.2656 45.4062 46.3906
L45.4062 54.6875
L54.3906 54.6875
L54.3906 -20.7969
L45.4062 -20.7969
z
" id="BitstreamVeraSans-Roman-71"/>
    <path d="
M37.1094 75.9844
L37.1094 68.5
L28.5156 68.5
Q23.6875 68.5 21.7969 66.5469
Q19.9219 64.5938 19.9219 59.5156
L19.9219 54.6875
L34.7188 54.6875
L34.7188 47.7031
L19.9219 47.7031
L19.9219 0
L10.8906 0
L10.8906 47.7031
L2.29688 47.7031
L2.29688 54.6875
L10.8906 54.6875
L10.8906 58.5
Q10.8906 67.625 15.1406 71.7969
Q19.3906 75.9844 28.6094 75.9844
z
" id="BitstreamVeraSans-Roman-66"/>
    <path d="
M50.9844 -16.6094
L50.9844 -23.5781
L-0.984375 -23.5781
L-0.984375 -16.6094
z
" id="BitstreamVeraSans-Roman-5f"/>
    <path d="
M9.07812 75.9844
L18.1094 75.9844
L18.1094 31.1094
L44.9219 54.6875
L56.3906 54.6875
L27.3906 29.1094
L57.625 0
L45.9062 0
L18.1094 26.7031
L18.1094 0
L9.07812 0
z
" id="BitstreamVeraSans-Roman-6b"/>
   </defs>
   <g style="fill:#262626;" transform="translate(727.4265625 41.6023125)scale(0.14 -0.14)">
    <use xlink:href="#BitstreamVeraSans-Roman-70"/>
    <use x="63.4765625" xlink:href="#BitstreamVeraSans-Roman-69"/>
    <use x="91.259765625" xlink:href="#BitstreamVeraSans-Roman-33"/>
    <use x="154.8828125" xlink:href="#BitstreamVeraSans-Roman-5f"/>
    <use x="204.8828125" xlink:href="#BitstreamVeraSans-Roman-35"/>
    <use x="268.505859375" xlink:href="#BitstreamVeraSans-Roman-6d"/>
    <use x="365.91796875" xlink:href="#BitstreamVeraSans-Roman-35"/>
    <use x="429.541015625" xlink:href="#BitstreamVeraSans-Roman-30"/>
    <use x="493.1640625" xlink:href="#BitstreamVeraSans-Roman-30"/>
    <use x="556.787109375" xlink:href="#BitstreamVeraSans-Roman-6b"/>
    <use x="614.697265625" xlink:href="#BitstreamVeraSans-Roman-5f"/>
    <use x="664.697265625" xlink:href="#BitstreamVeraSans-Roman-66"/>
    <use x="699.90234375" xlink:href="#BitstreamVeraSans-Roman-71"/>
    <use x="763.37890625" xlink:href="#BitstreamVeraSans-Roman-5f"/>
    <use x="813.37890625" xlink:href="#BitstreamVeraSans-Roman-63"/>
    <use x="868.359375" xlink:href="#BitstreamVeraSans-Roman-6f"/>
    <use x="929.541015625" xlink:href="#BitstreamVeraSans-Roman-64"/>
    <use x="993.017578125" xlink:href="#BitstreamVeraSans-Roman-65"/>
    <use x="1054.54101562" xlink:href="#BitstreamVeraSans-Roman-6c"/>
   </g>
  </g>
  <g id="text_20">
   <!-- Local/remote: dancer/pi3 - Time: 2016-03-21T14:13:11.584512 - Length/step: 60s/0.20s -->
   <defs>
    <path d="
M9.8125 72.9062
L19.6719 72.9062
L19.6719 8.29688
L55.1719 8.29688
L55.1719 0
L9.8125 0
z
" id="BitstreamVeraSans-Roman-4c"/>
    <path d="
M31.7812 34.625
Q24.75 34.625 20.7188 30.8594
Q16.7031 27.0938 16.7031 20.5156
Q16.7031 13.9219 20.7188 10.1562
Q24.75 6.39062 31.7812 6.39062
Q38.8125 6.39062 42.8594 10.1719
Q46.9219 13.9688 46.9219 20.5156
Q46.9219 27.0938 42.8906 30.8594
Q38.875 34.625 31.7812 34.625
M21.9219 38.8125
Q15.5781 40.375 12.0312 44.7188
Q8.5 49.0781 8.5 55.3281
Q8.5 64.0625 14.7188 69.1406
Q20.9531 74.2188 31.7812 74.2188
Q42.6719 74.2188 48.875 69.1406
Q55.0781 64.0625 55.0781 55.3281
Q55.0781 49.0781 51.5312 44.7188
Q48 40.375 41.7031 38.8125
Q48.8281 37.1562 52.7969 32.3125
Q56.7812 27.4844 56.7812 20.5156
Q56.7812 9.90625 50.3125 4.23438
Q43.8438 -1.42188 31.7812 -1.42188
Q19.7344 -1.42188 13.25 4.23438
Q6.78125 9.90625 6.78125 20.5156
Q6.78125 27.4844 10.7812 32.3125
Q14.7969 37.1562 21.9219 38.8125
M18.3125 54.3906
Q18.3125 48.7344 21.8438 45.5625
Q25.3906 42.3906 31.7812 42.3906
Q38.1406 42.3906 41.7188 45.5625
Q45.3125 48.7344 45.3125 54.3906
Q45.3125 60.0625 41.7188 63.2344
Q38.1406 66.4062 31.7812 66.4062
Q25.3906 66.4062 21.8438 63.2344
Q18.3125 60.0625 18.3125 54.3906" id="BitstreamVeraSans-Roman-38"/>
    <path d="
M11.7188 12.4062
L22.0156 12.4062
L22.0156 0
L11.7188 0
z

M11.7188 51.7031
L22.0156 51.7031
L22.0156 39.3125
L11.7188 39.3125
z
" id="BitstreamVeraSans-Roman-3a"/>
    <path d="
M10.6875 12.4062
L21 12.4062
L21 0
L10.6875 0
z
" id="BitstreamVeraSans-Roman-2e"/>
    <path d="
M4.89062 31.3906
L31.2031 31.3906
L31.2031 23.3906
L4.89062 23.3906
z
" id="BitstreamVeraSans-Roman-2d"/>
    <path d="
M45.4062 27.9844
Q45.4062 37.75 41.375 43.1094
Q37.3594 48.4844 30.0781 48.4844
Q22.8594 48.4844 18.8281 43.1094
Q14.7969 37.75 14.7969 27.9844
Q14.7969 18.2656 18.8281 12.8906
Q22.8594 7.51562 30.0781 7.51562
Q37.3594 7.51562 41.375 12.8906
Q45.4062 18.2656 45.4062 27.9844
M54.3906 6.78125
Q54.3906 -7.17188 48.1875 -13.9844
Q42 -20.7969 29.2031 -20.7969
Q24.4688 -20.7969 20.2656 -20.0938
Q16.0625 -19.3906 12.1094 -17.9219
L12.1094 -9.1875
Q16.0625 -11.3281 19.9219 -12.3438
Q23.7812 -13.375 27.7812 -13.375
Q36.625 -13.375 41.0156 -8.76562
Q45.4062 -4.15625 45.4062 5.17188
L45.4062 9.625
Q42.625 4.78125 38.2812 2.39062
Q33.9375 0 27.875 0
Q17.8281 0 11.6719 7.65625
Q5.51562 15.3281 5.51562 27.9844
Q5.51562 40.6719 11.6719 48.3281
Q17.8281 56 27.875 56
Q33.9375 56 38.2812 53.6094
Q42.625 51.2188 45.4062 46.3906
L45.4062 54.6875
L54.3906 54.6875
z
" id="BitstreamVeraSans-Roman-67"/>
   </defs>
   <g style="fill:#262626;" transform="translate(625.498125 1012.63625)scale(0.08 -0.08)">
    <use xlink:href="#BitstreamVeraSans-Roman-4c"/>
    <use x="53.962890625" xlink:href="#BitstreamVeraSans-Roman-6f"/>
    <use x="115.14453125" xlink:href="#BitstreamVeraSans-Roman-63"/>
    <use x="170.125" xlink:href="#BitstreamVeraSans-Roman-61"/>
    <use x="231.404296875" xlink:href="#BitstreamVeraSans-Roman-6c"/>
    <use x="259.1875" xlink:href="#BitstreamVeraSans-Roman-2f"/>
    <use x="292.87890625" xlink:href="#BitstreamVeraSans-Roman-72"/>
    <use x="331.7421875" xlink:href="#BitstreamVeraSans-Roman-65"/>
    <use x="393.265625" xlink:href="#BitstreamVeraSans-Roman-6d"/>
    <use x="490.677734375" xlink:href="#BitstreamVeraSans-Roman-6f"/>
    <use x="551.859375" xlink:href="#BitstreamVeraSans-Roman-74"/>
    <use x="591.068359375" xlink:href="#BitstreamVeraSans-Roman-65"/>
    <use x="652.591796875" xlink:href="#BitstreamVeraSans-Roman-3a"/>
    <use x="686.283203125" xlink:href="#BitstreamVeraSans-Roman-20"/>
    <use x="718.0703125" xlink:href="#BitstreamVeraSans-Roman-64"/>
    <use x="781.546875" xlink:href="#BitstreamVeraSans-Roman-61"/>
    <use x="842.826171875" xlink:href="#BitstreamVeraSans-Roman-6e"/>
    <use x="906.205078125" xlink:href="#BitstreamVeraSans-Roman-63"/>
    <use x="961.185546875" xlink:href="#BitstreamVeraSans-Roman-65"/>
    <use x="1022.70898438" xlink:href="#BitstreamVeraSans-Roman-72"/>
    <use x="1063.82226562" xlink:href="#BitstreamVeraSans-Roman-2f"/>
    <use x="1097.51367188" xlink:href="#BitstreamVeraSans-Roman-70"/>
    <use x="1160.99023438" xlink:href="#BitstreamVeraSans-Roman-69"/>
    <use x="1188.7734375" xlink:href="#BitstreamVeraSans-Roman-33"/>
    <use x="1252.39648438" xlink:href="#BitstreamVeraSans-Roman-20"/>
    <use x="1284.18359375" xlink:href="#BitstreamVeraSans-Roman-2d"/>
    <use x="1320.26757812" xlink:href="#BitstreamVeraSans-Roman-20"/>
    <use x="1352.0546875" xlink:href="#BitstreamVeraSans-Roman-54"/>
    <use x="1410.01367188" xlink:href="#BitstreamVeraSans-Roman-69"/>
    <use x="1437.796875" xlink:href="#BitstreamVeraSans-Roman-6d"/>
    <use x="1535.20898438" xlink:href="#BitstreamVeraSans-Roman-65"/>
    <use x="1596.73242188" xlink:href="#BitstreamVeraSans-Roman-3a"/>
    <use x="1630.42382812" xlink:href="#BitstreamVeraSans-Roman-20"/>
    <use x="1662.2109375" xlink:href="#BitstreamVeraSans-Roman-32"/>
    <use x="1725.83398438" xlink:href="#BitstreamVeraSans-Roman-30"/>
    <use x="1789.45703125" xlink:href="#BitstreamVeraSans-Roman-31"/>
    <use x="1853.08007812" xlink:href="#BitstreamVeraSans-Roman-36"/>
    <use x="1916.703125" xlink:href="#BitstreamVeraSans-Roman-2d"/>
    <use x="1952.78710938" xlink:href="#BitstreamVeraSans-Roman-30"/>
    <use x="2016.41015625" xlink:href="#BitstreamVeraSans-Roman-33"/>
    <use x="2080.03320312" xlink:href="#BitstreamVeraSans-Roman-2d"/>
    <use x="2116.1171875" xlink:href="#BitstreamVeraSans-Roman-32"/>
    <use x="2179.74023438" xlink:href="#BitstreamVeraSans-Roman-31"/>
    <use x="2243.36328125" xlink:href="#BitstreamVeraSans-Roman-54"/>
    <use x="2304.44726562" xlink:href="#BitstreamVeraSans-Roman-31"/>
    <use x="2368.0703125" xlink:href="#BitstreamVeraSans-Roman-34"/>
    <use x="2431.69335938" xlink:href="#BitstreamVeraSans-Roman-3a"/>
    <use x="2465.38476562" xlink:href="#BitstreamVeraSans-Roman-31"/>
    <use x="2529.0078125" xlink:href="#BitstreamVeraSans-Roman-33"/>
    <use x="2592.63085938" xlink:href="#BitstreamVeraSans-Roman-3a"/>
    <use x="2626.32226562" xlink:href="#BitstreamVeraSans-Roman-31"/>
    <use x="2689.9453125" xlink:href="#BitstreamVeraSans-Roman-31"/>
    <use x="2753.56835938" xlink:href="#BitstreamVeraSans-Roman-2e"/>
    <use x="2785.35546875" xlink:href="#BitstreamVeraSans-Roman-35"/>
    <use x="2848.97851562" xlink:href="#BitstreamVeraSans-Roman-38"/>
    <use x="2912.6015625" xlink:href="#BitstreamVeraSans-Roman-34"/>
    <use x="2976.22460938" xlink:href="#BitstreamVeraSans-Roman-35"/>
    <use x="3039.84765625" xlink:href="#BitstreamVeraSans-Roman-31"/>
    <use x="3103.47070312" xlink:href="#BitstreamVeraSans-Roman-32"/>
    <use x="3167.09375" xlink:href="#BitstreamVeraSans-Roman-20"/>
    <use x="3198.88085938" xlink:href="#BitstreamVeraSans-Roman-2d"/>
    <use x="3234.96484375" xlink:href="#BitstreamVeraSans-Roman-20"/>
    <use x="3266.75195312" xlink:href="#BitstreamVeraSans-Roman-4c"/>
    <use x="3320.71484375" xlink:href="#BitstreamVeraSans-Roman-65"/>
    <use x="3382.23828125" xlink:href="#BitstreamVeraSans-Roman-6e"/>
    <use x="3445.6171875" xlink:href="#BitstreamVeraSans-Roman-67"/>
    <use x="3509.09375" xlink:href="#BitstreamVeraSans-Roman-74"/>
    <use x="3548.30273438" xlink:href="#BitstreamVeraSans-Roman-68"/>
    <use x="3611.68164062" xlink:href="#BitstreamVeraSans-Roman-2f"/>
    <use x="3645.37304688" xlink:href="#BitstreamVeraSans-Roman-73"/>
    <use x="3697.47265625" xlink:href="#BitstreamVeraSans-Roman-74"/>
    <use x="3736.68164062" xlink:href="#BitstreamVeraSans-Roman-65"/>
    <use x="3798.20507812" xlink:href="#BitstreamVeraSans-Roman-70"/>
    <use x="3861.68164062" xlink:href="#BitstreamVeraSans-Roman-3a"/>
    <use x="3895.37304688" xlink:href="#BitstreamVeraSans-Roman-20"/>
    <use x="3927.16015625" xlink:href="#BitstreamVeraSans-Roman-36"/>
    <use x="3990.78320312" xlink:href="#BitstreamVeraSans-Roman-30"/>
    <use x="4054.40625" xlink:href="#BitstreamVeraSans-Roman-73"/>
    <use x="4106.50585938" xlink:href="#BitstreamVeraSans-Roman-2f"/>
    <use x="4140.19726562" xlink:href="#BitstreamVeraSans-Roman-30"/>
    <use x="4203.8203125" xlink:href="#BitstreamVeraSans-Roman-2e"/>
    <use x="4235.60742188" xlink:href="#BitstreamVeraSans-Roman-32"/>
    <use x="4299.23046875" xlink:href="#BitstreamVeraSans-Roman-30"/>
    <use x="4362.85351562" xlink:href="#BitstreamVeraSans-Roman-73"/>
   </g>
  </g>
 </g>
 <defs>
  <clipPath id="pda8e03edd5">
   <rect height="811.44" width="1156.8547125" x="200.475" y="101.43"/>
  </clipPath>
 </defs>
</svg>
