<?xml version="1.0" encoding="utf-8" standalone="no"?>
<!DOCTYPE svg PUBLIC "-//W3C//DTD SVG 1.1//EN"
  "http://www.w3.org/Graphics/SVG/1.1/DTD/svg11.dtd">
<!-- Created with matplotlib (http://matplotlib.org/) -->
<svg height="545pt" version="1.1" viewBox="0 0 1402 545" width="1402pt" xmlns="http://www.w3.org/2000/svg" xmlns:xlink="http://www.w3.org/1999/xlink">
 <defs>
  <style type="text/css">
*{stroke-linecap:butt;stroke-linejoin:round;stroke-miterlimit:100000;}
  </style>
 </defs>
 <g id="figure_1">
  <g id="patch_1">
   <path d="M 0 545.4 
L 1402.2 545.4 
L 1402.2 0 
L 0 0 
z
" style="fill:#ffffff;"/>
  </g>
  <g id="axes_1">
   <g id="patch_2">
    <path d="M 54.6858 491.4054 
L 1195.7877 491.4054 
L 1195.7877 54.54 
L 54.6858 54.54 
z
" style="fill:#eaeaf2;"/>
   </g>
   <g id="matplotlib.axis_1">
    <g id="xtick_1">
     <g id="line2d_1">
      <defs>
       <path d="M 0 0 
L 0 0 
" id="mdb403748db" style="stroke:#262626;stroke-width:0.5;"/>
      </defs>
      <g>
       <use style="fill:#262626;stroke:#262626;stroke-width:0.5;" x="54.6858" xlink:href="#mdb403748db" y="491.4054"/>
      </g>
     </g>
     <g id="line2d_2">
      <g>
       <use style="fill:#262626;stroke:#262626;stroke-width:0.5;" x="54.6858" xlink:href="#mdb403748db" y="54.54"/>
      </g>
     </g>
     <g id="text_1">
      <!-- 0 -->
      <defs>
       <path d="M 31.78125 66.40625 
Q 24.171875 66.40625 20.328125 58.90625 
Q 16.5 51.421875 16.5 36.375 
Q 16.5 21.390625 20.328125 13.890625 
Q 24.171875 6.390625 31.78125 6.390625 
Q 39.453125 6.390625 43.28125 13.890625 
Q 47.125 21.390625 47.125 36.375 
Q 47.125 51.421875 43.28125 58.90625 
Q 39.453125 66.40625 31.78125 66.40625 
M 31.78125 74.21875 
Q 44.046875 74.21875 50.515625 64.515625 
Q 56.984375 54.828125 56.984375 36.375 
Q 56.984375 17.96875 50.515625 8.265625 
Q 44.046875 -1.421875 31.78125 -1.421875 
Q 19.53125 -1.421875 13.0625 8.265625 
Q 6.59375 17.96875 6.59375 36.375 
Q 6.59375 54.828125 13.0625 64.515625 
Q 19.53125 74.21875 31.78125 74.21875 
" id="BitstreamVeraSans-Roman-30"/>
      </defs>
      <g style="fill:#262626;" transform="translate(50.8683 504.523525)scale(0.12 -0.12)">
       <use xlink:href="#BitstreamVeraSans-Roman-30"/>
      </g>
     </g>
    </g>
    <g id="xtick_2">
     <g id="line2d_3">
      <g>
       <use style="fill:#262626;stroke:#262626;stroke-width:0.5;" x="197.3235375" xlink:href="#mdb403748db" y="491.4054"/>
      </g>
     </g>
     <g id="line2d_4">
      <g>
       <use style="fill:#262626;stroke:#262626;stroke-width:0.5;" x="197.3235375" xlink:href="#mdb403748db" y="54.54"/>
      </g>
     </g>
     <g id="text_2">
      <!-- 5 -->
      <defs>
       <path d="M 10.796875 72.90625 
L 49.515625 72.90625 
L 49.515625 64.59375 
L 19.828125 64.59375 
L 19.828125 46.734375 
Q 21.96875 47.46875 24.109375 47.828125 
Q 26.265625 48.1875 28.421875 48.1875 
Q 40.625 48.1875 47.75 41.5 
Q 54.890625 34.8125 54.890625 23.390625 
Q 54.890625 11.625 47.5625 5.09375 
Q 40.234375 -1.421875 26.90625 -1.421875 
Q 22.3125 -1.421875 17.546875 -0.640625 
Q 12.796875 0.140625 7.71875 1.703125 
L 7.71875 11.625 
Q 12.109375 9.234375 16.796875 8.0625 
Q 21.484375 6.890625 26.703125 6.890625 
Q 35.15625 6.890625 40.078125 11.328125 
Q 45.015625 15.765625 45.015625 23.390625 
Q 45.015625 31 40.078125 35.4375 
Q 35.15625 39.890625 26.703125 39.890625 
Q 22.75 39.890625 18.8125 39.015625 
Q 14.890625 38.140625 10.796875 36.28125 
z
" id="BitstreamVeraSans-Roman-35"/>
      </defs>
      <g style="fill:#262626;" transform="translate(193.5060375 504.523525)scale(0.12 -0.12)">
       <use xlink:href="#BitstreamVeraSans-Roman-35"/>
      </g>
     </g>
    </g>
    <g id="xtick_3">
     <g id="line2d_5">
      <g>
       <use style="fill:#262626;stroke:#262626;stroke-width:0.5;" x="339.961275" xlink:href="#mdb403748db" y="491.4054"/>
      </g>
     </g>
     <g id="line2d_6">
      <g>
       <use style="fill:#262626;stroke:#262626;stroke-width:0.5;" x="339.961275" xlink:href="#mdb403748db" y="54.54"/>
      </g>
     </g>
     <g id="text_3">
      <!-- 10 -->
      <defs>
       <path d="M 12.40625 8.296875 
L 28.515625 8.296875 
L 28.515625 63.921875 
L 10.984375 60.40625 
L 10.984375 69.390625 
L 28.421875 72.90625 
L 38.28125 72.90625 
L 38.28125 8.296875 
L 54.390625 8.296875 
L 54.390625 0 
L 12.40625 0 
z
" id="BitstreamVeraSans-Roman-31"/>
      </defs>
      <g style="fill:#262626;" transform="translate(332.326275 504.523525)scale(0.12 -0.12)">
       <use xlink:href="#BitstreamVeraSans-Roman-31"/>
       <use x="63.623046875" xlink:href="#BitstreamVeraSans-Roman-30"/>
      </g>
     </g>
    </g>
    <g id="xtick_4">
     <g id="line2d_7">
      <g>
       <use style="fill:#262626;stroke:#262626;stroke-width:0.5;" x="482.5990125" xlink:href="#mdb403748db" y="491.4054"/>
      </g>
     </g>
     <g id="line2d_8">
      <g>
       <use style="fill:#262626;stroke:#262626;stroke-width:0.5;" x="482.5990125" xlink:href="#mdb403748db" y="54.54"/>
      </g>
     </g>
     <g id="text_4">
      <!-- 15 -->
      <g style="fill:#262626;" transform="translate(474.9640125 504.523525)scale(0.12 -0.12)">
       <use xlink:href="#BitstreamVeraSans-Roman-31"/>
       <use x="63.623046875" xlink:href="#BitstreamVeraSans-Roman-35"/>
      </g>
     </g>
    </g>
    <g id="xtick_5">
     <g id="line2d_9">
      <g>
       <use style="fill:#262626;stroke:#262626;stroke-width:0.5;" x="625.23675" xlink:href="#mdb403748db" y="491.4054"/>
      </g>
     </g>
     <g id="line2d_10">
      <g>
       <use style="fill:#262626;stroke:#262626;stroke-width:0.5;" x="625.23675" xlink:href="#mdb403748db" y="54.54"/>
      </g>
     </g>
     <g id="text_5">
      <!-- 20 -->
      <defs>
       <path d="M 19.1875 8.296875 
L 53.609375 8.296875 
L 53.609375 0 
L 7.328125 0 
L 7.328125 8.296875 
Q 12.9375 14.109375 22.625 23.890625 
Q 32.328125 33.6875 34.8125 36.53125 
Q 39.546875 41.84375 41.421875 45.53125 
Q 43.3125 49.21875 43.3125 52.78125 
Q 43.3125 58.59375 39.234375 62.25 
Q 35.15625 65.921875 28.609375 65.921875 
Q 23.96875 65.921875 18.8125 64.3125 
Q 13.671875 62.703125 7.8125 59.421875 
L 7.8125 69.390625 
Q 13.765625 71.78125 18.9375 73 
Q 24.125 74.21875 28.421875 74.21875 
Q 39.75 74.21875 46.484375 68.546875 
Q 53.21875 62.890625 53.21875 53.421875 
Q 53.21875 48.921875 51.53125 44.890625 
Q 49.859375 40.875 45.40625 35.40625 
Q 44.1875 33.984375 37.640625 27.21875 
Q 31.109375 20.453125 19.1875 8.296875 
" id="BitstreamVeraSans-Roman-32"/>
      </defs>
      <g style="fill:#262626;" transform="translate(617.60175 504.523525)scale(0.12 -0.12)">
       <use xlink:href="#BitstreamVeraSans-Roman-32"/>
       <use x="63.623046875" xlink:href="#BitstreamVeraSans-Roman-30"/>
      </g>
     </g>
    </g>
    <g id="xtick_6">
     <g id="line2d_11">
      <g>
       <use style="fill:#262626;stroke:#262626;stroke-width:0.5;" x="767.8744875" xlink:href="#mdb403748db" y="491.4054"/>
      </g>
     </g>
     <g id="line2d_12">
      <g>
       <use style="fill:#262626;stroke:#262626;stroke-width:0.5;" x="767.8744875" xlink:href="#mdb403748db" y="54.54"/>
      </g>
     </g>
     <g id="text_6">
      <!-- 25 -->
      <g style="fill:#262626;" transform="translate(760.2394875 504.523525)scale(0.12 -0.12)">
       <use xlink:href="#BitstreamVeraSans-Roman-32"/>
       <use x="63.623046875" xlink:href="#BitstreamVeraSans-Roman-35"/>
      </g>
     </g>
    </g>
    <g id="xtick_7">
     <g id="line2d_13">
      <g>
       <use style="fill:#262626;stroke:#262626;stroke-width:0.5;" x="910.512225" xlink:href="#mdb403748db" y="491.4054"/>
      </g>
     </g>
     <g id="line2d_14">
      <g>
       <use style="fill:#262626;stroke:#262626;stroke-width:0.5;" x="910.512225" xlink:href="#mdb403748db" y="54.54"/>
      </g>
     </g>
     <g id="text_7">
      <!-- 30 -->
      <defs>
       <path d="M 40.578125 39.3125 
Q 47.65625 37.796875 51.625 33 
Q 55.609375 28.21875 55.609375 21.1875 
Q 55.609375 10.40625 48.1875 4.484375 
Q 40.765625 -1.421875 27.09375 -1.421875 
Q 22.515625 -1.421875 17.65625 -0.515625 
Q 12.796875 0.390625 7.625 2.203125 
L 7.625 11.71875 
Q 11.71875 9.328125 16.59375 8.109375 
Q 21.484375 6.890625 26.8125 6.890625 
Q 36.078125 6.890625 40.9375 10.546875 
Q 45.796875 14.203125 45.796875 21.1875 
Q 45.796875 27.640625 41.28125 31.265625 
Q 36.765625 34.90625 28.71875 34.90625 
L 20.21875 34.90625 
L 20.21875 43.015625 
L 29.109375 43.015625 
Q 36.375 43.015625 40.234375 45.921875 
Q 44.09375 48.828125 44.09375 54.296875 
Q 44.09375 59.90625 40.109375 62.90625 
Q 36.140625 65.921875 28.71875 65.921875 
Q 24.65625 65.921875 20.015625 65.03125 
Q 15.375 64.15625 9.8125 62.3125 
L 9.8125 71.09375 
Q 15.4375 72.65625 20.34375 73.4375 
Q 25.25 74.21875 29.59375 74.21875 
Q 40.828125 74.21875 47.359375 69.109375 
Q 53.90625 64.015625 53.90625 55.328125 
Q 53.90625 49.265625 50.4375 45.09375 
Q 46.96875 40.921875 40.578125 39.3125 
" id="BitstreamVeraSans-Roman-33"/>
      </defs>
      <g style="fill:#262626;" transform="translate(902.877225 504.523525)scale(0.12 -0.12)">
       <use xlink:href="#BitstreamVeraSans-Roman-33"/>
       <use x="63.623046875" xlink:href="#BitstreamVeraSans-Roman-30"/>
      </g>
     </g>
    </g>
    <g id="xtick_8">
     <g id="line2d_15">
      <g>
       <use style="fill:#262626;stroke:#262626;stroke-width:0.5;" x="1053.1499625" xlink:href="#mdb403748db" y="491.4054"/>
      </g>
     </g>
     <g id="line2d_16">
      <g>
       <use style="fill:#262626;stroke:#262626;stroke-width:0.5;" x="1053.1499625" xlink:href="#mdb403748db" y="54.54"/>
      </g>
     </g>
     <g id="text_8">
      <!-- 35 -->
      <g style="fill:#262626;" transform="translate(1045.5149625 504.523525)scale(0.12 -0.12)">
       <use xlink:href="#BitstreamVeraSans-Roman-33"/>
       <use x="63.623046875" xlink:href="#BitstreamVeraSans-Roman-35"/>
      </g>
     </g>
    </g>
    <g id="xtick_9">
     <g id="line2d_17">
      <g>
       <use style="fill:#262626;stroke:#262626;stroke-width:0.5;" x="1195.7877" xlink:href="#mdb403748db" y="491.4054"/>
      </g>
     </g>
     <g id="line2d_18">
      <g>
       <use style="fill:#262626;stroke:#262626;stroke-width:0.5;" x="1195.7877" xlink:href="#mdb403748db" y="54.54"/>
      </g>
     </g>
     <g id="text_9">
      <!-- 40 -->
      <defs>
       <path d="M 37.796875 64.3125 
L 12.890625 25.390625 
L 37.796875 25.390625 
z
M 35.203125 72.90625 
L 47.609375 72.90625 
L 47.609375 25.390625 
L 58.015625 25.390625 
L 58.015625 17.1875 
L 47.609375 17.1875 
L 47.609375 0 
L 37.796875 0 
L 37.796875 17.1875 
L 4.890625 17.1875 
L 4.890625 26.703125 
z
" id="BitstreamVeraSans-Roman-34"/>
      </defs>
      <g style="fill:#262626;" transform="translate(1188.1527 504.523525)scale(0.12 -0.12)">
       <use xlink:href="#BitstreamVeraSans-Roman-34"/>
       <use x="63.623046875" xlink:href="#BitstreamVeraSans-Roman-30"/>
      </g>
     </g>
    </g>
    <g id="xtick_10">
     <g id="line2d_19">
      <g>
       <use style="fill:#262626;stroke:#262626;stroke-width:0.5;" x="83.2133475" xlink:href="#mdb403748db" y="491.4054"/>
      </g>
     </g>
     <g id="line2d_20">
      <g>
       <use style="fill:#262626;stroke:#262626;stroke-width:0.5;" x="83.2133475" xlink:href="#mdb403748db" y="54.54"/>
      </g>
     </g>
    </g>
    <g id="xtick_11">
     <g id="line2d_21">
      <g>
       <use style="fill:#262626;stroke:#262626;stroke-width:0.5;" x="111.740895" xlink:href="#mdb403748db" y="491.4054"/>
      </g>
     </g>
     <g id="line2d_22">
      <g>
       <use style="fill:#262626;stroke:#262626;stroke-width:0.5;" x="111.740895" xlink:href="#mdb403748db" y="54.54"/>
      </g>
     </g>
    </g>
    <g id="xtick_12">
     <g id="line2d_23">
      <g>
       <use style="fill:#262626;stroke:#262626;stroke-width:0.5;" x="140.2684425" xlink:href="#mdb403748db" y="491.4054"/>
      </g>
     </g>
     <g id="line2d_24">
      <g>
       <use style="fill:#262626;stroke:#262626;stroke-width:0.5;" x="140.2684425" xlink:href="#mdb403748db" y="54.54"/>
      </g>
     </g>
    </g>
    <g id="xtick_13">
     <g id="line2d_25">
      <g>
       <use style="fill:#262626;stroke:#262626;stroke-width:0.5;" x="168.79599" xlink:href="#mdb403748db" y="491.4054"/>
      </g>
     </g>
     <g id="line2d_26">
      <g>
       <use style="fill:#262626;stroke:#262626;stroke-width:0.5;" x="168.79599" xlink:href="#mdb403748db" y="54.54"/>
      </g>
     </g>
    </g>
    <g id="xtick_14">
     <g id="line2d_27">
      <g>
       <use style="fill:#262626;stroke:#262626;stroke-width:0.5;" x="225.851085" xlink:href="#mdb403748db" y="491.4054"/>
      </g>
     </g>
     <g id="line2d_28">
      <g>
       <use style="fill:#262626;stroke:#262626;stroke-width:0.5;" x="225.851085" xlink:href="#mdb403748db" y="54.54"/>
      </g>
     </g>
    </g>
    <g id="xtick_15">
     <g id="line2d_29">
      <g>
       <use style="fill:#262626;stroke:#262626;stroke-width:0.5;" x="254.3786325" xlink:href="#mdb403748db" y="491.4054"/>
      </g>
     </g>
     <g id="line2d_30">
      <g>
       <use style="fill:#262626;stroke:#262626;stroke-width:0.5;" x="254.3786325" xlink:href="#mdb403748db" y="54.54"/>
      </g>
     </g>
    </g>
    <g id="xtick_16">
     <g id="line2d_31">
      <g>
       <use style="fill:#262626;stroke:#262626;stroke-width:0.5;" x="282.90618" xlink:href="#mdb403748db" y="491.4054"/>
      </g>
     </g>
     <g id="line2d_32">
      <g>
       <use style="fill:#262626;stroke:#262626;stroke-width:0.5;" x="282.90618" xlink:href="#mdb403748db" y="54.54"/>
      </g>
     </g>
    </g>
    <g id="xtick_17">
     <g id="line2d_33">
      <g>
       <use style="fill:#262626;stroke:#262626;stroke-width:0.5;" x="311.4337275" xlink:href="#mdb403748db" y="491.4054"/>
      </g>
     </g>
     <g id="line2d_34">
      <g>
       <use style="fill:#262626;stroke:#262626;stroke-width:0.5;" x="311.4337275" xlink:href="#mdb403748db" y="54.54"/>
      </g>
     </g>
    </g>
    <g id="xtick_18">
     <g id="line2d_35">
      <g>
       <use style="fill:#262626;stroke:#262626;stroke-width:0.5;" x="368.4888225" xlink:href="#mdb403748db" y="491.4054"/>
      </g>
     </g>
     <g id="line2d_36">
      <g>
       <use style="fill:#262626;stroke:#262626;stroke-width:0.5;" x="368.4888225" xlink:href="#mdb403748db" y="54.54"/>
      </g>
     </g>
    </g>
    <g id="xtick_19">
     <g id="line2d_37">
      <g>
       <use style="fill:#262626;stroke:#262626;stroke-width:0.5;" x="397.01637" xlink:href="#mdb403748db" y="491.4054"/>
      </g>
     </g>
     <g id="line2d_38">
      <g>
       <use style="fill:#262626;stroke:#262626;stroke-width:0.5;" x="397.01637" xlink:href="#mdb403748db" y="54.54"/>
      </g>
     </g>
    </g>
    <g id="xtick_20">
     <g id="line2d_39">
      <g>
       <use style="fill:#262626;stroke:#262626;stroke-width:0.5;" x="425.5439175" xlink:href="#mdb403748db" y="491.4054"/>
      </g>
     </g>
     <g id="line2d_40">
      <g>
       <use style="fill:#262626;stroke:#262626;stroke-width:0.5;" x="425.5439175" xlink:href="#mdb403748db" y="54.54"/>
      </g>
     </g>
    </g>
    <g id="xtick_21">
     <g id="line2d_41">
      <g>
       <use style="fill:#262626;stroke:#262626;stroke-width:0.5;" x="454.071465" xlink:href="#mdb403748db" y="491.4054"/>
      </g>
     </g>
     <g id="line2d_42">
      <g>
       <use style="fill:#262626;stroke:#262626;stroke-width:0.5;" x="454.071465" xlink:href="#mdb403748db" y="54.54"/>
      </g>
     </g>
    </g>
    <g id="xtick_22">
     <g id="line2d_43">
      <g>
       <use style="fill:#262626;stroke:#262626;stroke-width:0.5;" x="511.12656" xlink:href="#mdb403748db" y="491.4054"/>
      </g>
     </g>
     <g id="line2d_44">
      <g>
       <use style="fill:#262626;stroke:#262626;stroke-width:0.5;" x="511.12656" xlink:href="#mdb403748db" y="54.54"/>
      </g>
     </g>
    </g>
    <g id="xtick_23">
     <g id="line2d_45">
      <g>
       <use style="fill:#262626;stroke:#262626;stroke-width:0.5;" x="539.6541075" xlink:href="#mdb403748db" y="491.4054"/>
      </g>
     </g>
     <g id="line2d_46">
      <g>
       <use style="fill:#262626;stroke:#262626;stroke-width:0.5;" x="539.6541075" xlink:href="#mdb403748db" y="54.54"/>
      </g>
     </g>
    </g>
    <g id="xtick_24">
     <g id="line2d_47">
      <g>
       <use style="fill:#262626;stroke:#262626;stroke-width:0.5;" x="568.181655" xlink:href="#mdb403748db" y="491.4054"/>
      </g>
     </g>
     <g id="line2d_48">
      <g>
       <use style="fill:#262626;stroke:#262626;stroke-width:0.5;" x="568.181655" xlink:href="#mdb403748db" y="54.54"/>
      </g>
     </g>
    </g>
    <g id="xtick_25">
     <g id="line2d_49">
      <g>
       <use style="fill:#262626;stroke:#262626;stroke-width:0.5;" x="596.7092025" xlink:href="#mdb403748db" y="491.4054"/>
      </g>
     </g>
     <g id="line2d_50">
      <g>
       <use style="fill:#262626;stroke:#262626;stroke-width:0.5;" x="596.7092025" xlink:href="#mdb403748db" y="54.54"/>
      </g>
     </g>
    </g>
    <g id="xtick_26">
     <g id="line2d_51">
      <g>
       <use style="fill:#262626;stroke:#262626;stroke-width:0.5;" x="653.7642975" xlink:href="#mdb403748db" y="491.4054"/>
      </g>
     </g>
     <g id="line2d_52">
      <g>
       <use style="fill:#262626;stroke:#262626;stroke-width:0.5;" x="653.7642975" xlink:href="#mdb403748db" y="54.54"/>
      </g>
     </g>
    </g>
    <g id="xtick_27">
     <g id="line2d_53">
      <g>
       <use style="fill:#262626;stroke:#262626;stroke-width:0.5;" x="682.291845" xlink:href="#mdb403748db" y="491.4054"/>
      </g>
     </g>
     <g id="line2d_54">
      <g>
       <use style="fill:#262626;stroke:#262626;stroke-width:0.5;" x="682.291845" xlink:href="#mdb403748db" y="54.54"/>
      </g>
     </g>
    </g>
    <g id="xtick_28">
     <g id="line2d_55">
      <g>
       <use style="fill:#262626;stroke:#262626;stroke-width:0.5;" x="710.8193925" xlink:href="#mdb403748db" y="491.4054"/>
      </g>
     </g>
     <g id="line2d_56">
      <g>
       <use style="fill:#262626;stroke:#262626;stroke-width:0.5;" x="710.8193925" xlink:href="#mdb403748db" y="54.54"/>
      </g>
     </g>
    </g>
    <g id="xtick_29">
     <g id="line2d_57">
      <g>
       <use style="fill:#262626;stroke:#262626;stroke-width:0.5;" x="739.34694" xlink:href="#mdb403748db" y="491.4054"/>
      </g>
     </g>
     <g id="line2d_58">
      <g>
       <use style="fill:#262626;stroke:#262626;stroke-width:0.5;" x="739.34694" xlink:href="#mdb403748db" y="54.54"/>
      </g>
     </g>
    </g>
    <g id="xtick_30">
     <g id="line2d_59">
      <g>
       <use style="fill:#262626;stroke:#262626;stroke-width:0.5;" x="796.402035" xlink:href="#mdb403748db" y="491.4054"/>
      </g>
     </g>
     <g id="line2d_60">
      <g>
       <use style="fill:#262626;stroke:#262626;stroke-width:0.5;" x="796.402035" xlink:href="#mdb403748db" y="54.54"/>
      </g>
     </g>
    </g>
    <g id="xtick_31">
     <g id="line2d_61">
      <g>
       <use style="fill:#262626;stroke:#262626;stroke-width:0.5;" x="824.9295825" xlink:href="#mdb403748db" y="491.4054"/>
      </g>
     </g>
     <g id="line2d_62">
      <g>
       <use style="fill:#262626;stroke:#262626;stroke-width:0.5;" x="824.9295825" xlink:href="#mdb403748db" y="54.54"/>
      </g>
     </g>
    </g>
    <g id="xtick_32">
     <g id="line2d_63">
      <g>
       <use style="fill:#262626;stroke:#262626;stroke-width:0.5;" x="853.45713" xlink:href="#mdb403748db" y="491.4054"/>
      </g>
     </g>
     <g id="line2d_64">
      <g>
       <use style="fill:#262626;stroke:#262626;stroke-width:0.5;" x="853.45713" xlink:href="#mdb403748db" y="54.54"/>
      </g>
     </g>
    </g>
    <g id="xtick_33">
     <g id="line2d_65">
      <g>
       <use style="fill:#262626;stroke:#262626;stroke-width:0.5;" x="881.9846775" xlink:href="#mdb403748db" y="491.4054"/>
      </g>
     </g>
     <g id="line2d_66">
      <g>
       <use style="fill:#262626;stroke:#262626;stroke-width:0.5;" x="881.9846775" xlink:href="#mdb403748db" y="54.54"/>
      </g>
     </g>
    </g>
    <g id="xtick_34">
     <g id="line2d_67">
      <g>
       <use style="fill:#262626;stroke:#262626;stroke-width:0.5;" x="939.0397725" xlink:href="#mdb403748db" y="491.4054"/>
      </g>
     </g>
     <g id="line2d_68">
      <g>
       <use style="fill:#262626;stroke:#262626;stroke-width:0.5;" x="939.0397725" xlink:href="#mdb403748db" y="54.54"/>
      </g>
     </g>
    </g>
    <g id="xtick_35">
     <g id="line2d_69">
      <g>
       <use style="fill:#262626;stroke:#262626;stroke-width:0.5;" x="967.56732" xlink:href="#mdb403748db" y="491.4054"/>
      </g>
     </g>
     <g id="line2d_70">
      <g>
       <use style="fill:#262626;stroke:#262626;stroke-width:0.5;" x="967.56732" xlink:href="#mdb403748db" y="54.54"/>
      </g>
     </g>
    </g>
    <g id="xtick_36">
     <g id="line2d_71">
      <g>
       <use style="fill:#262626;stroke:#262626;stroke-width:0.5;" x="996.0948675" xlink:href="#mdb403748db" y="491.4054"/>
      </g>
     </g>
     <g id="line2d_72">
      <g>
       <use style="fill:#262626;stroke:#262626;stroke-width:0.5;" x="996.0948675" xlink:href="#mdb403748db" y="54.54"/>
      </g>
     </g>
    </g>
    <g id="xtick_37">
     <g id="line2d_73">
      <g>
       <use style="fill:#262626;stroke:#262626;stroke-width:0.5;" x="1024.622415" xlink:href="#mdb403748db" y="491.4054"/>
      </g>
     </g>
     <g id="line2d_74">
      <g>
       <use style="fill:#262626;stroke:#262626;stroke-width:0.5;" x="1024.622415" xlink:href="#mdb403748db" y="54.54"/>
      </g>
     </g>
    </g>
    <g id="xtick_38">
     <g id="line2d_75">
      <g>
       <use style="fill:#262626;stroke:#262626;stroke-width:0.5;" x="1081.67751" xlink:href="#mdb403748db" y="491.4054"/>
      </g>
     </g>
     <g id="line2d_76">
      <g>
       <use style="fill:#262626;stroke:#262626;stroke-width:0.5;" x="1081.67751" xlink:href="#mdb403748db" y="54.54"/>
      </g>
     </g>
    </g>
    <g id="xtick_39">
     <g id="line2d_77">
      <g>
       <use style="fill:#262626;stroke:#262626;stroke-width:0.5;" x="1110.2050575" xlink:href="#mdb403748db" y="491.4054"/>
      </g>
     </g>
     <g id="line2d_78">
      <g>
       <use style="fill:#262626;stroke:#262626;stroke-width:0.5;" x="1110.2050575" xlink:href="#mdb403748db" y="54.54"/>
      </g>
     </g>
    </g>
    <g id="xtick_40">
     <g id="line2d_79">
      <g>
       <use style="fill:#262626;stroke:#262626;stroke-width:0.5;" x="1138.732605" xlink:href="#mdb403748db" y="491.4054"/>
      </g>
     </g>
     <g id="line2d_80">
      <g>
       <use style="fill:#262626;stroke:#262626;stroke-width:0.5;" x="1138.732605" xlink:href="#mdb403748db" y="54.54"/>
      </g>
     </g>
    </g>
    <g id="xtick_41">
     <g id="line2d_81">
      <g>
       <use style="fill:#262626;stroke:#262626;stroke-width:0.5;" x="1167.2601525" xlink:href="#mdb403748db" y="491.4054"/>
      </g>
     </g>
     <g id="line2d_82">
      <g>
       <use style="fill:#262626;stroke:#262626;stroke-width:0.5;" x="1167.2601525" xlink:href="#mdb403748db" y="54.54"/>
      </g>
     </g>
    </g>
    <g id="text_10">
     <!-- Time (s) -->
     <defs>
      <path id="BitstreamVeraSans-Roman-20"/>
      <path d="M 8.015625 75.875 
L 15.828125 75.875 
Q 23.140625 64.359375 26.78125 53.3125 
Q 30.421875 42.28125 30.421875 31.390625 
Q 30.421875 20.453125 26.78125 9.375 
Q 23.140625 -1.703125 15.828125 -13.1875 
L 8.015625 -13.1875 
Q 14.5 -2 17.703125 9.0625 
Q 20.90625 20.125 20.90625 31.390625 
Q 20.90625 42.671875 17.703125 53.65625 
Q 14.5 64.65625 8.015625 75.875 
" id="BitstreamVeraSans-Roman-29"/>
      <path d="M 31 75.875 
Q 24.46875 64.65625 21.28125 53.65625 
Q 18.109375 42.671875 18.109375 31.390625 
Q 18.109375 20.125 21.3125 9.0625 
Q 24.515625 -2 31 -13.1875 
L 23.1875 -13.1875 
Q 15.875 -1.703125 12.234375 9.375 
Q 8.59375 20.453125 8.59375 31.390625 
Q 8.59375 42.28125 12.203125 53.3125 
Q 15.828125 64.359375 23.1875 75.875 
z
" id="BitstreamVeraSans-Roman-28"/>
      <path d="M 9.421875 54.6875 
L 18.40625 54.6875 
L 18.40625 0 
L 9.421875 0 
z
M 9.421875 75.984375 
L 18.40625 75.984375 
L 18.40625 64.59375 
L 9.421875 64.59375 
z
" id="BitstreamVeraSans-Roman-69"/>
      <path d="M 52 44.1875 
Q 55.375 50.25 60.0625 53.125 
Q 64.75 56 71.09375 56 
Q 79.640625 56 84.28125 50.015625 
Q 88.921875 44.046875 88.921875 33.015625 
L 88.921875 0 
L 79.890625 0 
L 79.890625 32.71875 
Q 79.890625 40.578125 77.09375 44.375 
Q 74.3125 48.1875 68.609375 48.1875 
Q 61.625 48.1875 57.5625 43.546875 
Q 53.515625 38.921875 53.515625 30.90625 
L 53.515625 0 
L 44.484375 0 
L 44.484375 32.71875 
Q 44.484375 40.625 41.703125 44.40625 
Q 38.921875 48.1875 33.109375 48.1875 
Q 26.21875 48.1875 22.15625 43.53125 
Q 18.109375 38.875 18.109375 30.90625 
L 18.109375 0 
L 9.078125 0 
L 9.078125 54.6875 
L 18.109375 54.6875 
L 18.109375 46.1875 
Q 21.1875 51.21875 25.484375 53.609375 
Q 29.78125 56 35.6875 56 
Q 41.65625 56 45.828125 52.96875 
Q 50 49.953125 52 44.1875 
" id="BitstreamVeraSans-Roman-6d"/>
      <path d="M 56.203125 29.59375 
L 56.203125 25.203125 
L 14.890625 25.203125 
Q 15.484375 15.921875 20.484375 11.0625 
Q 25.484375 6.203125 34.421875 6.203125 
Q 39.59375 6.203125 44.453125 7.46875 
Q 49.3125 8.734375 54.109375 11.28125 
L 54.109375 2.78125 
Q 49.265625 0.734375 44.1875 -0.34375 
Q 39.109375 -1.421875 33.890625 -1.421875 
Q 20.796875 -1.421875 13.15625 6.1875 
Q 5.515625 13.8125 5.515625 26.8125 
Q 5.515625 40.234375 12.765625 48.109375 
Q 20.015625 56 32.328125 56 
Q 43.359375 56 49.78125 48.890625 
Q 56.203125 41.796875 56.203125 29.59375 
M 47.21875 32.234375 
Q 47.125 39.59375 43.09375 43.984375 
Q 39.0625 48.390625 32.421875 48.390625 
Q 24.90625 48.390625 20.390625 44.140625 
Q 15.875 39.890625 15.1875 32.171875 
z
" id="BitstreamVeraSans-Roman-65"/>
      <path d="M -0.296875 72.90625 
L 61.375 72.90625 
L 61.375 64.59375 
L 35.5 64.59375 
L 35.5 0 
L 25.59375 0 
L 25.59375 64.59375 
L -0.296875 64.59375 
z
" id="BitstreamVeraSans-Roman-54"/>
      <path d="M 44.28125 53.078125 
L 44.28125 44.578125 
Q 40.484375 46.53125 36.375 47.5 
Q 32.28125 48.484375 27.875 48.484375 
Q 21.1875 48.484375 17.84375 46.4375 
Q 14.5 44.390625 14.5 40.28125 
Q 14.5 37.15625 16.890625 35.375 
Q 19.28125 33.59375 26.515625 31.984375 
L 29.59375 31.296875 
Q 39.15625 29.25 43.1875 25.515625 
Q 47.21875 21.78125 47.21875 15.09375 
Q 47.21875 7.46875 41.1875 3.015625 
Q 35.15625 -1.421875 24.609375 -1.421875 
Q 20.21875 -1.421875 15.453125 -0.5625 
Q 10.6875 0.296875 5.421875 2 
L 5.421875 11.28125 
Q 10.40625 8.6875 15.234375 7.390625 
Q 20.0625 6.109375 24.8125 6.109375 
Q 31.15625 6.109375 34.5625 8.28125 
Q 37.984375 10.453125 37.984375 14.40625 
Q 37.984375 18.0625 35.515625 20.015625 
Q 33.0625 21.96875 24.703125 23.78125 
L 21.578125 24.515625 
Q 13.234375 26.265625 9.515625 29.90625 
Q 5.8125 33.546875 5.8125 39.890625 
Q 5.8125 47.609375 11.28125 51.796875 
Q 16.75 56 26.8125 56 
Q 31.78125 56 36.171875 55.265625 
Q 40.578125 54.546875 44.28125 53.078125 
" id="BitstreamVeraSans-Roman-73"/>
     </defs>
     <g style="fill:#262626;" transform="translate(600.657375 521.137275)scale(0.12 -0.12)">
      <use xlink:href="#BitstreamVeraSans-Roman-54"/>
      <use x="61.037109375" xlink:href="#BitstreamVeraSans-Roman-69"/>
      <use x="88.8203125" xlink:href="#BitstreamVeraSans-Roman-6d"/>
      <use x="186.232421875" xlink:href="#BitstreamVeraSans-Roman-65"/>
      <use x="247.755859375" xlink:href="#BitstreamVeraSans-Roman-20"/>
      <use x="279.54296875" xlink:href="#BitstreamVeraSans-Roman-28"/>
      <use x="318.556640625" xlink:href="#BitstreamVeraSans-Roman-73"/>
      <use x="370.65625" xlink:href="#BitstreamVeraSans-Roman-29"/>
     </g>
    </g>
   </g>
   <g id="matplotlib.axis_2">
    <g id="ytick_1">
     <g id="line2d_83">
      <g>
       <use style="fill:#262626;stroke:#262626;stroke-width:0.5;" x="54.6858" xlink:href="#mdb403748db" y="390.86467817"/>
      </g>
     </g>
     <g id="text_11">
      <!-- 50 -->
      <g style="fill:#262626;" transform="translate(35.4158 394.17592817)scale(0.12 -0.12)">
       <use xlink:href="#BitstreamVeraSans-Roman-35"/>
       <use x="63.623046875" xlink:href="#BitstreamVeraSans-Roman-30"/>
      </g>
     </g>
    </g>
    <g id="ytick_2">
     <g id="line2d_84">
      <g>
       <use style="fill:#262626;stroke:#262626;stroke-width:0.5;" x="54.6858" xlink:href="#mdb403748db" y="285.642320477"/>
      </g>
     </g>
     <g id="text_12">
      <!-- 100 -->
      <g style="fill:#262626;" transform="translate(27.7808 288.953570477)scale(0.12 -0.12)">
       <use xlink:href="#BitstreamVeraSans-Roman-31"/>
       <use x="63.623046875" xlink:href="#BitstreamVeraSans-Roman-30"/>
       <use x="127.24609375" xlink:href="#BitstreamVeraSans-Roman-30"/>
      </g>
     </g>
    </g>
    <g id="ytick_3">
     <g id="line2d_85">
      <g>
       <use style="fill:#262626;stroke:#262626;stroke-width:0.5;" x="54.6858" xlink:href="#mdb403748db" y="180.419962784"/>
      </g>
     </g>
     <g id="text_13">
      <!-- 150 -->
      <g style="fill:#262626;" transform="translate(27.7808 183.731212784)scale(0.12 -0.12)">
       <use xlink:href="#BitstreamVeraSans-Roman-31"/>
       <use x="63.623046875" xlink:href="#BitstreamVeraSans-Roman-35"/>
       <use x="127.24609375" xlink:href="#BitstreamVeraSans-Roman-30"/>
      </g>
     </g>
    </g>
    <g id="ytick_4">
     <g id="line2d_86">
      <g>
       <use style="fill:#262626;stroke:#262626;stroke-width:0.5;" x="54.6858" xlink:href="#mdb403748db" y="75.1976050914"/>
      </g>
     </g>
     <g id="text_14">
      <!-- 200 -->
      <g style="fill:#262626;" transform="translate(27.7808 78.5088550914)scale(0.12 -0.12)">
       <use xlink:href="#BitstreamVeraSans-Roman-32"/>
       <use x="63.623046875" xlink:href="#BitstreamVeraSans-Roman-30"/>
       <use x="127.24609375" xlink:href="#BitstreamVeraSans-Roman-30"/>
      </g>
     </g>
    </g>
    <g id="ytick_5">
     <g id="line2d_87">
      <g>
       <use style="fill:#262626;stroke:#262626;stroke-width:0.5;" x="54.6858" xlink:href="#mdb403748db" y="475.042564324"/>
      </g>
     </g>
    </g>
    <g id="ytick_6">
     <g id="line2d_88">
      <g>
       <use style="fill:#262626;stroke:#262626;stroke-width:0.5;" x="54.6858" xlink:href="#mdb403748db" y="453.998092786"/>
      </g>
     </g>
    </g>
    <g id="ytick_7">
     <g id="line2d_89">
      <g>
       <use style="fill:#262626;stroke:#262626;stroke-width:0.5;" x="54.6858" xlink:href="#mdb403748db" y="432.953621247"/>
      </g>
     </g>
    </g>
    <g id="ytick_8">
     <g id="line2d_90">
      <g>
       <use style="fill:#262626;stroke:#262626;stroke-width:0.5;" x="54.6858" xlink:href="#mdb403748db" y="411.909149708"/>
      </g>
     </g>
    </g>
    <g id="ytick_9">
     <g id="line2d_91">
      <g>
       <use style="fill:#262626;stroke:#262626;stroke-width:0.5;" x="54.6858" xlink:href="#mdb403748db" y="369.820206631"/>
      </g>
     </g>
    </g>
    <g id="ytick_10">
     <g id="line2d_92">
      <g>
       <use style="fill:#262626;stroke:#262626;stroke-width:0.5;" x="54.6858" xlink:href="#mdb403748db" y="348.775735093"/>
      </g>
     </g>
    </g>
    <g id="ytick_11">
     <g id="line2d_93">
      <g>
       <use style="fill:#262626;stroke:#262626;stroke-width:0.5;" x="54.6858" xlink:href="#mdb403748db" y="327.731263554"/>
      </g>
     </g>
    </g>
    <g id="ytick_12">
     <g id="line2d_94">
      <g>
       <use style="fill:#262626;stroke:#262626;stroke-width:0.5;" x="54.6858" xlink:href="#mdb403748db" y="306.686792016"/>
      </g>
     </g>
    </g>
    <g id="ytick_13">
     <g id="line2d_95">
      <g>
       <use style="fill:#262626;stroke:#262626;stroke-width:0.5;" x="54.6858" xlink:href="#mdb403748db" y="264.597848938"/>
      </g>
     </g>
    </g>
    <g id="ytick_14">
     <g id="line2d_96">
      <g>
       <use style="fill:#262626;stroke:#262626;stroke-width:0.5;" x="54.6858" xlink:href="#mdb403748db" y="243.5533774"/>
      </g>
     </g>
    </g>
    <g id="ytick_15">
     <g id="line2d_97">
      <g>
       <use style="fill:#262626;stroke:#262626;stroke-width:0.5;" x="54.6858" xlink:href="#mdb403748db" y="222.508905861"/>
      </g>
     </g>
    </g>
    <g id="ytick_16">
     <g id="line2d_98">
      <g>
       <use style="fill:#262626;stroke:#262626;stroke-width:0.5;" x="54.6858" xlink:href="#mdb403748db" y="201.464434323"/>
      </g>
     </g>
    </g>
    <g id="ytick_17">
     <g id="line2d_99">
      <g>
       <use style="fill:#262626;stroke:#262626;stroke-width:0.5;" x="54.6858" xlink:href="#mdb403748db" y="159.375491246"/>
      </g>
     </g>
    </g>
    <g id="ytick_18">
     <g id="line2d_100">
      <g>
       <use style="fill:#262626;stroke:#262626;stroke-width:0.5;" x="54.6858" xlink:href="#mdb403748db" y="138.331019707"/>
      </g>
     </g>
    </g>
    <g id="ytick_19">
     <g id="line2d_101">
      <g>
       <use style="fill:#262626;stroke:#262626;stroke-width:0.5;" x="54.6858" xlink:href="#mdb403748db" y="117.286548168"/>
      </g>
     </g>
    </g>
    <g id="ytick_20">
     <g id="line2d_102">
      <g>
       <use style="fill:#262626;stroke:#262626;stroke-width:0.5;" x="54.6858" xlink:href="#mdb403748db" y="96.2420766299"/>
      </g>
     </g>
    </g>
    <g id="text_15">
     <!-- Mbits/s -->
     <defs>
      <path d="M 18.3125 70.21875 
L 18.3125 54.6875 
L 36.8125 54.6875 
L 36.8125 47.703125 
L 18.3125 47.703125 
L 18.3125 18.015625 
Q 18.3125 11.328125 20.140625 9.421875 
Q 21.96875 7.515625 27.59375 7.515625 
L 36.8125 7.515625 
L 36.8125 0 
L 27.59375 0 
Q 17.1875 0 13.234375 3.875 
Q 9.28125 7.765625 9.28125 18.015625 
L 9.28125 47.703125 
L 2.6875 47.703125 
L 2.6875 54.6875 
L 9.28125 54.6875 
L 9.28125 70.21875 
z
" id="BitstreamVeraSans-Roman-74"/>
      <path d="M 9.8125 72.90625 
L 24.515625 72.90625 
L 43.109375 23.296875 
L 61.8125 72.90625 
L 76.515625 72.90625 
L 76.515625 0 
L 66.890625 0 
L 66.890625 64.015625 
L 48.09375 14.015625 
L 38.1875 14.015625 
L 19.390625 64.015625 
L 19.390625 0 
L 9.8125 0 
z
" id="BitstreamVeraSans-Roman-4d"/>
      <path d="M 25.390625 72.90625 
L 33.6875 72.90625 
L 8.296875 -9.28125 
L 0 -9.28125 
z
" id="BitstreamVeraSans-Roman-2f"/>
      <path d="M 48.6875 27.296875 
Q 48.6875 37.203125 44.609375 42.84375 
Q 40.53125 48.484375 33.40625 48.484375 
Q 26.265625 48.484375 22.1875 42.84375 
Q 18.109375 37.203125 18.109375 27.296875 
Q 18.109375 17.390625 22.1875 11.75 
Q 26.265625 6.109375 33.40625 6.109375 
Q 40.53125 6.109375 44.609375 11.75 
Q 48.6875 17.390625 48.6875 27.296875 
M 18.109375 46.390625 
Q 20.953125 51.265625 25.265625 53.625 
Q 29.59375 56 35.59375 56 
Q 45.5625 56 51.78125 48.09375 
Q 58.015625 40.1875 58.015625 27.296875 
Q 58.015625 14.40625 51.78125 6.484375 
Q 45.5625 -1.421875 35.59375 -1.421875 
Q 29.59375 -1.421875 25.265625 0.953125 
Q 20.953125 3.328125 18.109375 8.203125 
L 18.109375 0 
L 9.078125 0 
L 9.078125 75.984375 
L 18.109375 75.984375 
z
" id="BitstreamVeraSans-Roman-62"/>
     </defs>
     <g style="fill:#262626;" transform="translate(20.285175 294.2502)rotate(-90.0)scale(0.12 -0.12)">
      <use xlink:href="#BitstreamVeraSans-Roman-4d"/>
      <use x="86.279296875" xlink:href="#BitstreamVeraSans-Roman-62"/>
      <use x="149.755859375" xlink:href="#BitstreamVeraSans-Roman-69"/>
      <use x="177.5390625" xlink:href="#BitstreamVeraSans-Roman-74"/>
      <use x="216.748046875" xlink:href="#BitstreamVeraSans-Roman-73"/>
      <use x="268.84765625" xlink:href="#BitstreamVeraSans-Roman-2f"/>
      <use x="302.5390625" xlink:href="#BitstreamVeraSans-Roman-73"/>
     </g>
    </g>
   </g>
   <g id="line2d_103">
    <path clip-path="url(#p7f0b2671d7)" d="M 203.029047 412.1909 
L 208.734557 423.118508 
L 214.440066 430.897152 
L 220.145576 437.276727 
L 225.851085 442.12884 
L 231.556595 446.135846 
L 237.262104 461.156592 
L 242.967614 470.211197 
L 248.673123 475.689892 
L 254.378633 479.098971 
L 260.084142 480.979271 
L 271.495161 482.036402 
L 277.200671 482.109146 
L 282.90618 482.30627 
L 288.61169 482.38075 
L 294.317199 482.702743 
L 300.022709 482.874184 
L 322.844747 482.946939 
L 385.605351 483.087174 
L 402.72188 483.363033 
L 419.838408 483.313156 
L 448.365956 483.438613 
L 459.776975 483.276597 
L 488.304522 483.137125 
L 511.12656 482.889623 
L 528.243089 482.967403 
L 596.709203 482.811492 
L 602.414712 482.019225 
L 608.120222 472.206945 
L 613.825731 457.167026 
L 619.531241 452.37378 
L 625.23675 452.100332 
L 653.764298 452.102483 
L 659.469807 452.88166 
L 665.175317 462.719618 
L 670.880826 477.771419 
L 676.586336 482.615692 
L 682.291845 482.883259 
L 693.702864 482.920825 
L 727.935921 483.002261 
L 733.641431 483.214164 
L 739.34694 479.044953 
L 745.05245 476.492419 
L 750.757959 476.57601 
L 756.463469 476.925299 
L 767.874488 477.844026 
L 773.579997 478.530082 
L 779.285507 479.371188 
L 784.991016 480.427973 
L 790.696526 481.00742 
L 796.402035 484.885763 
L 802.107545 486.986979 
L 807.813054 487.122406 
L 819.224073 486.061037 
L 824.929583 485.741081 
L 830.635092 485.173116 
L 836.340602 483.438407 
L 842.046111 481.36028 
L 847.751621 479.570671 
L 859.16264 480.284234 
L 864.868149 480.096608 
L 870.573659 480.269188 
L 876.279168 480.299071 
L 887.690187 480.107433 
L 893.395697 480.964646 
L 904.806716 482.921608 
L 916.217735 482.890352 
L 921.923244 483.21761 
L 939.039773 483.231205 
L 956.156301 483.461642 
L 961.861811 482.705739 
L 973.27283 482.698735 
L 978.978339 482.37776 
L 996.094868 482.290799 
L 1013.211396 481.993088 
L 1018.916906 482.764847 
L 1030.327925 482.68653 
L 1036.033434 482.935676 
L 1058.855472 483.109638 
L 1058.855472 483.109638 
" style="fill:none;stroke:#1b9e77;stroke-linecap:round;"/>
   </g>
   <g id="line2d_104">
    <path clip-path="url(#p7f0b2671d7)" d="M 203.029047 163.682 
L 208.734557 149.488055 
L 214.440066 137.187662 
L 220.145576 127.948241 
L 225.851085 119.769448 
L 231.556595 114.393824 
L 237.262104 95.866149 
L 242.967614 81.966397 
L 248.673123 73.523549 
L 254.378633 66.29876 
L 260.084142 61.284437 
L 265.789652 60.149704 
L 271.495161 59.13903 
L 277.200671 58.822994 
L 282.90618 60.409955 
L 288.61169 60.892629 
L 294.317199 60.659011 
L 300.022709 62.110791 
L 305.728218 64.786898 
L 311.433728 68.346131 
L 317.139237 69.116527 
L 322.844747 66.572061 
L 328.550256 67.741573 
L 334.255766 68.221051 
L 345.666785 67.267701 
L 351.372294 67.066821 
L 357.077804 67.462711 
L 362.783313 68.144483 
L 368.488823 66.382005 
L 374.194332 66.635462 
L 379.899842 69.483909 
L 385.605351 71.647828 
L 391.310861 76.037142 
L 397.01637 78.789533 
L 402.72188 79.304597 
L 408.427389 79.578377 
L 414.132899 80.011127 
L 419.838408 78.34041 
L 425.543918 80.152157 
L 431.249427 80.974287 
L 436.954937 82.330873 
L 442.660446 83.112205 
L 454.071465 78.937482 
L 459.776975 77.146675 
L 465.482484 76.38072 
L 471.187994 76.491767 
L 476.893503 76.029206 
L 482.599013 73.018515 
L 488.304522 71.948336 
L 494.010032 69.822638 
L 499.715541 67.111154 
L 505.421051 64.85111 
L 511.12656 63.870273 
L 516.83207 65.560831 
L 522.537579 66.495097 
L 528.243089 66.079459 
L 533.948598 66.41854 
L 539.654108 66.489229 
L 545.359617 65.63076 
L 551.065127 65.656742 
L 556.770636 64.453625 
L 562.476146 63.534956 
L 568.181655 63.343442 
L 579.592674 61.763419 
L 585.298184 61.436233 
L 591.003693 61.562829 
L 596.709203 62.143265 
L 602.414712 63.440523 
L 608.120222 73.344105 
L 613.825731 82.674749 
L 619.531241 90.021653 
L 625.23675 88.255883 
L 630.94226 87.953237 
L 642.353279 88.855163 
L 653.764298 86.744921 
L 659.469807 85.608677 
L 665.175317 75.694459 
L 670.880826 67.412139 
L 676.586336 61.361808 
L 682.291845 63.546881 
L 687.997355 64.328697 
L 693.702864 64.499822 
L 699.408374 63.63661 
L 705.113883 64.877411 
L 710.819393 65.379637 
L 716.524902 64.370702 
L 722.230412 65.157756 
L 727.935921 66.47096 
L 733.641431 72.58446 
L 739.34694 85.802011 
L 745.05245 95.608383 
L 750.757959 95.532723 
L 756.463469 96.056497 
L 762.168978 95.957937 
L 773.579997 97.616445 
L 779.285507 96.915767 
L 784.991016 95.574565 
L 790.696526 89.216061 
L 796.402035 75.938902 
L 802.107545 65.634445 
L 807.813054 65.635909 
L 813.518564 66.431353 
L 819.224073 66.453191 
L 836.340602 64.624444 
L 847.751621 64.430945 
L 853.45713 64.544281 
L 859.16264 65.217852 
L 864.868149 65.136791 
L 870.573659 64.516204 
L 876.279168 64.124782 
L 881.984678 64.339706 
L 887.690187 65.366734 
L 893.395697 65.756203 
L 899.101206 65.575576 
L 904.806716 64.737154 
L 916.217735 63.492956 
L 921.923244 63.105707 
L 927.628754 63.093736 
L 939.039773 61.751237 
L 944.745282 61.487592 
L 950.450792 62.006177 
L 956.156301 61.415291 
L 967.56732 62.590376 
L 978.978339 63.661126 
L 984.683849 63.005448 
L 990.389358 63.091341 
L 996.094868 63.977696 
L 1001.800377 63.691582 
L 1007.505887 63.111334 
L 1013.211396 64.184273 
L 1018.916906 64.032225 
L 1024.622415 63.512618 
L 1030.327925 68.613688 
L 1036.033434 101.502718 
L 1041.738944 106.177421 
L 1047.444453 111.843993 
L 1053.149963 118.011899 
L 1058.855472 127.553697 
L 1058.855472 127.553697 
" style="fill:none;stroke:#d95f02;stroke-linecap:round;"/>
   </g>
   <g id="patch_3">
    <path d="M 54.6858 54.54 
L 1195.7877 54.54 
" style="fill:none;"/>
   </g>
   <g id="patch_4">
    <path d="M 1195.7877 491.4054 
L 1195.7877 54.54 
" style="fill:none;"/>
   </g>
   <g id="patch_5">
    <path d="M 54.6858 491.4054 
L 1195.7877 491.4054 
" style="fill:none;"/>
   </g>
   <g id="patch_6">
    <path d="M 54.6858 491.4054 
L 54.6858 54.54 
" style="fill:none;"/>
   </g>
   <g id="legend_1">
    <g id="line2d_105">
     <path d="M 1325.307309 62.635198 
L 1345.299309 62.635198 
" style="fill:none;stroke:#1b9e77;stroke-linecap:round;"/>
    </g>
    <g id="line2d_106"/>
    <g id="text_16">
     <!-- Download -->
     <defs>
      <path d="M 54.890625 33.015625 
L 54.890625 0 
L 45.90625 0 
L 45.90625 32.71875 
Q 45.90625 40.484375 42.875 44.328125 
Q 39.84375 48.1875 33.796875 48.1875 
Q 26.515625 48.1875 22.3125 43.546875 
Q 18.109375 38.921875 18.109375 30.90625 
L 18.109375 0 
L 9.078125 0 
L 9.078125 54.6875 
L 18.109375 54.6875 
L 18.109375 46.1875 
Q 21.34375 51.125 25.703125 53.5625 
Q 30.078125 56 35.796875 56 
Q 45.21875 56 50.046875 50.171875 
Q 54.890625 44.34375 54.890625 33.015625 
" id="BitstreamVeraSans-Roman-6e"/>
      <path d="M 30.609375 48.390625 
Q 23.390625 48.390625 19.1875 42.75 
Q 14.984375 37.109375 14.984375 27.296875 
Q 14.984375 17.484375 19.15625 11.84375 
Q 23.34375 6.203125 30.609375 6.203125 
Q 37.796875 6.203125 41.984375 11.859375 
Q 46.1875 17.53125 46.1875 27.296875 
Q 46.1875 37.015625 41.984375 42.703125 
Q 37.796875 48.390625 30.609375 48.390625 
M 30.609375 56 
Q 42.328125 56 49.015625 48.375 
Q 55.71875 40.765625 55.71875 27.296875 
Q 55.71875 13.875 49.015625 6.21875 
Q 42.328125 -1.421875 30.609375 -1.421875 
Q 18.84375 -1.421875 12.171875 6.21875 
Q 5.515625 13.875 5.515625 27.296875 
Q 5.515625 40.765625 12.171875 48.375 
Q 18.84375 56 30.609375 56 
" id="BitstreamVeraSans-Roman-6f"/>
      <path d="M 9.421875 75.984375 
L 18.40625 75.984375 
L 18.40625 0 
L 9.421875 0 
z
" id="BitstreamVeraSans-Roman-6c"/>
      <path d="M 19.671875 64.796875 
L 19.671875 8.109375 
L 31.59375 8.109375 
Q 46.6875 8.109375 53.6875 14.9375 
Q 60.6875 21.78125 60.6875 36.53125 
Q 60.6875 51.171875 53.6875 57.984375 
Q 46.6875 64.796875 31.59375 64.796875 
z
M 9.8125 72.90625 
L 30.078125 72.90625 
Q 51.265625 72.90625 61.171875 64.09375 
Q 71.09375 55.28125 71.09375 36.53125 
Q 71.09375 17.671875 61.125 8.828125 
Q 51.171875 0 30.078125 0 
L 9.8125 0 
z
" id="BitstreamVeraSans-Roman-44"/>
      <path d="M 45.40625 46.390625 
L 45.40625 75.984375 
L 54.390625 75.984375 
L 54.390625 0 
L 45.40625 0 
L 45.40625 8.203125 
Q 42.578125 3.328125 38.25 0.953125 
Q 33.9375 -1.421875 27.875 -1.421875 
Q 17.96875 -1.421875 11.734375 6.484375 
Q 5.515625 14.40625 5.515625 27.296875 
Q 5.515625 40.1875 11.734375 48.09375 
Q 17.96875 56 27.875 56 
Q 33.9375 56 38.25 53.625 
Q 42.578125 51.265625 45.40625 46.390625 
M 14.796875 27.296875 
Q 14.796875 17.390625 18.875 11.75 
Q 22.953125 6.109375 30.078125 6.109375 
Q 37.203125 6.109375 41.296875 11.75 
Q 45.40625 17.390625 45.40625 27.296875 
Q 45.40625 37.203125 41.296875 42.84375 
Q 37.203125 48.484375 30.078125 48.484375 
Q 22.953125 48.484375 18.875 42.84375 
Q 14.796875 37.203125 14.796875 27.296875 
" id="BitstreamVeraSans-Roman-64"/>
      <path d="M 4.203125 54.6875 
L 13.1875 54.6875 
L 24.421875 12.015625 
L 35.59375 54.6875 
L 46.1875 54.6875 
L 57.421875 12.015625 
L 68.609375 54.6875 
L 77.59375 54.6875 
L 63.28125 0 
L 52.6875 0 
L 40.921875 44.828125 
L 29.109375 0 
L 18.5 0 
z
" id="BitstreamVeraSans-Roman-77"/>
      <path d="M 34.28125 27.484375 
Q 23.390625 27.484375 19.1875 25 
Q 14.984375 22.515625 14.984375 16.5 
Q 14.984375 11.71875 18.140625 8.90625 
Q 21.296875 6.109375 26.703125 6.109375 
Q 34.1875 6.109375 38.703125 11.40625 
Q 43.21875 16.703125 43.21875 25.484375 
L 43.21875 27.484375 
z
M 52.203125 31.203125 
L 52.203125 0 
L 43.21875 0 
L 43.21875 8.296875 
Q 40.140625 3.328125 35.546875 0.953125 
Q 30.953125 -1.421875 24.3125 -1.421875 
Q 15.921875 -1.421875 10.953125 3.296875 
Q 6 8.015625 6 15.921875 
Q 6 25.140625 12.171875 29.828125 
Q 18.359375 34.515625 30.609375 34.515625 
L 43.21875 34.515625 
L 43.21875 35.40625 
Q 43.21875 41.609375 39.140625 45 
Q 35.0625 48.390625 27.6875 48.390625 
Q 23 48.390625 18.546875 47.265625 
Q 14.109375 46.140625 10.015625 43.890625 
L 10.015625 52.203125 
Q 14.9375 54.109375 19.578125 55.046875 
Q 24.21875 56 28.609375 56 
Q 40.484375 56 46.34375 49.84375 
Q 52.203125 43.703125 52.203125 31.203125 
" id="BitstreamVeraSans-Roman-61"/>
     </defs>
     <g style="fill:#262626;" transform="translate(1353.296109 66.133798125)scale(0.09996 -0.09996)">
      <use xlink:href="#BitstreamVeraSans-Roman-44"/>
      <use x="77.001953125" xlink:href="#BitstreamVeraSans-Roman-6f"/>
      <use x="138.18359375" xlink:href="#BitstreamVeraSans-Roman-77"/>
      <use x="219.970703125" xlink:href="#BitstreamVeraSans-Roman-6e"/>
      <use x="283.349609375" xlink:href="#BitstreamVeraSans-Roman-6c"/>
      <use x="311.1328125" xlink:href="#BitstreamVeraSans-Roman-6f"/>
      <use x="372.314453125" xlink:href="#BitstreamVeraSans-Roman-61"/>
      <use x="433.59375" xlink:href="#BitstreamVeraSans-Roman-64"/>
     </g>
    </g>
    <g id="line2d_107">
     <path d="M 1325.307309 77.307452 
L 1345.299309 77.307452 
" style="fill:none;stroke:#d95f02;stroke-linecap:round;"/>
    </g>
    <g id="line2d_108"/>
    <g id="text_17">
     <!-- Upload -->
     <defs>
      <path d="M 8.6875 72.90625 
L 18.609375 72.90625 
L 18.609375 28.609375 
Q 18.609375 16.890625 22.84375 11.734375 
Q 27.09375 6.59375 36.625 6.59375 
Q 46.09375 6.59375 50.34375 11.734375 
Q 54.59375 16.890625 54.59375 28.609375 
L 54.59375 72.90625 
L 64.5 72.90625 
L 64.5 27.390625 
Q 64.5 13.140625 57.4375 5.859375 
Q 50.390625 -1.421875 36.625 -1.421875 
Q 22.796875 -1.421875 15.734375 5.859375 
Q 8.6875 13.140625 8.6875 27.390625 
z
" id="BitstreamVeraSans-Roman-55"/>
      <path d="M 18.109375 8.203125 
L 18.109375 -20.796875 
L 9.078125 -20.796875 
L 9.078125 54.6875 
L 18.109375 54.6875 
L 18.109375 46.390625 
Q 20.953125 51.265625 25.265625 53.625 
Q 29.59375 56 35.59375 56 
Q 45.5625 56 51.78125 48.09375 
Q 58.015625 40.1875 58.015625 27.296875 
Q 58.015625 14.40625 51.78125 6.484375 
Q 45.5625 -1.421875 35.59375 -1.421875 
Q 29.59375 -1.421875 25.265625 0.953125 
Q 20.953125 3.328125 18.109375 8.203125 
M 48.6875 27.296875 
Q 48.6875 37.203125 44.609375 42.84375 
Q 40.53125 48.484375 33.40625 48.484375 
Q 26.265625 48.484375 22.1875 42.84375 
Q 18.109375 37.203125 18.109375 27.296875 
Q 18.109375 17.390625 22.1875 11.75 
Q 26.265625 6.109375 33.40625 6.109375 
Q 40.53125 6.109375 44.609375 11.75 
Q 48.6875 17.390625 48.6875 27.296875 
" id="BitstreamVeraSans-Roman-70"/>
     </defs>
     <g style="fill:#262626;" transform="translate(1353.296109 80.806051875)scale(0.09996 -0.09996)">
      <use xlink:href="#BitstreamVeraSans-Roman-55"/>
      <use x="73.193359375" xlink:href="#BitstreamVeraSans-Roman-70"/>
      <use x="136.669921875" xlink:href="#BitstreamVeraSans-Roman-6c"/>
      <use x="164.453125" xlink:href="#BitstreamVeraSans-Roman-6f"/>
      <use x="225.634765625" xlink:href="#BitstreamVeraSans-Roman-61"/>
      <use x="286.9140625" xlink:href="#BitstreamVeraSans-Roman-64"/>
     </g>
    </g>
    <g id="line2d_109">
     <path d="M 1325.307309 91.979706 
L 1345.299309 91.979706 
" style="fill:none;stroke:#7570b3;stroke-linecap:round;"/>
    </g>
    <g id="line2d_110"/>
    <g id="text_18">
     <!-- Ping (ms) -->
     <defs>
      <path d="M 19.671875 64.796875 
L 19.671875 37.40625 
L 32.078125 37.40625 
Q 38.96875 37.40625 42.71875 40.96875 
Q 46.484375 44.53125 46.484375 51.125 
Q 46.484375 57.671875 42.71875 61.234375 
Q 38.96875 64.796875 32.078125 64.796875 
z
M 9.8125 72.90625 
L 32.078125 72.90625 
Q 44.34375 72.90625 50.609375 67.359375 
Q 56.890625 61.8125 56.890625 51.125 
Q 56.890625 40.328125 50.609375 34.8125 
Q 44.34375 29.296875 32.078125 29.296875 
L 19.671875 29.296875 
L 19.671875 0 
L 9.8125 0 
z
" id="BitstreamVeraSans-Roman-50"/>
      <path d="M 45.40625 27.984375 
Q 45.40625 37.75 41.375 43.109375 
Q 37.359375 48.484375 30.078125 48.484375 
Q 22.859375 48.484375 18.828125 43.109375 
Q 14.796875 37.75 14.796875 27.984375 
Q 14.796875 18.265625 18.828125 12.890625 
Q 22.859375 7.515625 30.078125 7.515625 
Q 37.359375 7.515625 41.375 12.890625 
Q 45.40625 18.265625 45.40625 27.984375 
M 54.390625 6.78125 
Q 54.390625 -7.171875 48.1875 -13.984375 
Q 42 -20.796875 29.203125 -20.796875 
Q 24.46875 -20.796875 20.265625 -20.09375 
Q 16.0625 -19.390625 12.109375 -17.921875 
L 12.109375 -9.1875 
Q 16.0625 -11.328125 19.921875 -12.34375 
Q 23.78125 -13.375 27.78125 -13.375 
Q 36.625 -13.375 41.015625 -8.765625 
Q 45.40625 -4.15625 45.40625 5.171875 
L 45.40625 9.625 
Q 42.625 4.78125 38.28125 2.390625 
Q 33.9375 0 27.875 0 
Q 17.828125 0 11.671875 7.65625 
Q 5.515625 15.328125 5.515625 27.984375 
Q 5.515625 40.671875 11.671875 48.328125 
Q 17.828125 56 27.875 56 
Q 33.9375 56 38.28125 53.609375 
Q 42.625 51.21875 45.40625 46.390625 
L 45.40625 54.6875 
L 54.390625 54.6875 
z
" id="BitstreamVeraSans-Roman-67"/>
     </defs>
     <g style="fill:#262626;" transform="translate(1353.296109 95.478305625)scale(0.09996 -0.09996)">
      <use xlink:href="#BitstreamVeraSans-Roman-50"/>
      <use x="60.271484375" xlink:href="#BitstreamVeraSans-Roman-69"/>
      <use x="88.0546875" xlink:href="#BitstreamVeraSans-Roman-6e"/>
      <use x="151.43359375" xlink:href="#BitstreamVeraSans-Roman-67"/>
      <use x="214.91015625" xlink:href="#BitstreamVeraSans-Roman-20"/>
      <use x="246.697265625" xlink:href="#BitstreamVeraSans-Roman-28"/>
      <use x="285.7109375" xlink:href="#BitstreamVeraSans-Roman-6d"/>
      <use x="383.123046875" xlink:href="#BitstreamVeraSans-Roman-73"/>
      <use x="435.22265625" xlink:href="#BitstreamVeraSans-Roman-29"/>
     </g>
    </g>
   </g>
  </g>
  <g id="axes_2">
   <g id="matplotlib.axis_3">
    <g id="ytick_21">
     <g id="line2d_111">
      <g>
       <use style="fill:#262626;stroke:#262626;stroke-width:0.5;" x="1195.7877" xlink:href="#mdb403748db" y="461.896080845"/>
      </g>
     </g>
     <g id="text_19">
      <!-- 2 -->
      <g style="fill:#262626;" transform="translate(1199.7877 465.207330845)scale(0.12 -0.12)">
       <use xlink:href="#BitstreamVeraSans-Roman-32"/>
      </g>
     </g>
    </g>
    <g id="ytick_22">
     <g id="line2d_112">
      <g>
       <use style="fill:#262626;stroke:#262626;stroke-width:0.5;" x="1195.7877" xlink:href="#mdb403748db" y="403.940561447"/>
      </g>
     </g>
     <g id="text_20">
      <!-- 4 -->
      <g style="fill:#262626;" transform="translate(1199.7877 407.251811447)scale(0.12 -0.12)">
       <use xlink:href="#BitstreamVeraSans-Roman-34"/>
      </g>
     </g>
    </g>
    <g id="ytick_23">
     <g id="line2d_113">
      <g>
       <use style="fill:#262626;stroke:#262626;stroke-width:0.5;" x="1195.7877" xlink:href="#mdb403748db" y="345.985042049"/>
      </g>
     </g>
     <g id="text_21">
      <!-- 6 -->
      <defs>
       <path d="M 33.015625 40.375 
Q 26.375 40.375 22.484375 35.828125 
Q 18.609375 31.296875 18.609375 23.390625 
Q 18.609375 15.53125 22.484375 10.953125 
Q 26.375 6.390625 33.015625 6.390625 
Q 39.65625 6.390625 43.53125 10.953125 
Q 47.40625 15.53125 47.40625 23.390625 
Q 47.40625 31.296875 43.53125 35.828125 
Q 39.65625 40.375 33.015625 40.375 
M 52.59375 71.296875 
L 52.59375 62.3125 
Q 48.875 64.0625 45.09375 64.984375 
Q 41.3125 65.921875 37.59375 65.921875 
Q 27.828125 65.921875 22.671875 59.328125 
Q 17.53125 52.734375 16.796875 39.40625 
Q 19.671875 43.65625 24.015625 45.921875 
Q 28.375 48.1875 33.59375 48.1875 
Q 44.578125 48.1875 50.953125 41.515625 
Q 57.328125 34.859375 57.328125 23.390625 
Q 57.328125 12.15625 50.6875 5.359375 
Q 44.046875 -1.421875 33.015625 -1.421875 
Q 20.359375 -1.421875 13.671875 8.265625 
Q 6.984375 17.96875 6.984375 36.375 
Q 6.984375 53.65625 15.1875 63.9375 
Q 23.390625 74.21875 37.203125 74.21875 
Q 40.921875 74.21875 44.703125 73.484375 
Q 48.484375 72.75 52.59375 71.296875 
" id="BitstreamVeraSans-Roman-36"/>
      </defs>
      <g style="fill:#262626;" transform="translate(1199.7877 349.296292049)scale(0.12 -0.12)">
       <use xlink:href="#BitstreamVeraSans-Roman-36"/>
      </g>
     </g>
    </g>
    <g id="ytick_24">
     <g id="line2d_114">
      <g>
       <use style="fill:#262626;stroke:#262626;stroke-width:0.5;" x="1195.7877" xlink:href="#mdb403748db" y="288.029522651"/>
      </g>
     </g>
     <g id="text_22">
      <!-- 8 -->
      <defs>
       <path d="M 31.78125 34.625 
Q 24.75 34.625 20.71875 30.859375 
Q 16.703125 27.09375 16.703125 20.515625 
Q 16.703125 13.921875 20.71875 10.15625 
Q 24.75 6.390625 31.78125 6.390625 
Q 38.8125 6.390625 42.859375 10.171875 
Q 46.921875 13.96875 46.921875 20.515625 
Q 46.921875 27.09375 42.890625 30.859375 
Q 38.875 34.625 31.78125 34.625 
M 21.921875 38.8125 
Q 15.578125 40.375 12.03125 44.71875 
Q 8.5 49.078125 8.5 55.328125 
Q 8.5 64.0625 14.71875 69.140625 
Q 20.953125 74.21875 31.78125 74.21875 
Q 42.671875 74.21875 48.875 69.140625 
Q 55.078125 64.0625 55.078125 55.328125 
Q 55.078125 49.078125 51.53125 44.71875 
Q 48 40.375 41.703125 38.8125 
Q 48.828125 37.15625 52.796875 32.3125 
Q 56.78125 27.484375 56.78125 20.515625 
Q 56.78125 9.90625 50.3125 4.234375 
Q 43.84375 -1.421875 31.78125 -1.421875 
Q 19.734375 -1.421875 13.25 4.234375 
Q 6.78125 9.90625 6.78125 20.515625 
Q 6.78125 27.484375 10.78125 32.3125 
Q 14.796875 37.15625 21.921875 38.8125 
M 18.3125 54.390625 
Q 18.3125 48.734375 21.84375 45.5625 
Q 25.390625 42.390625 31.78125 42.390625 
Q 38.140625 42.390625 41.71875 45.5625 
Q 45.3125 48.734375 45.3125 54.390625 
Q 45.3125 60.0625 41.71875 63.234375 
Q 38.140625 66.40625 31.78125 66.40625 
Q 25.390625 66.40625 21.84375 63.234375 
Q 18.3125 60.0625 18.3125 54.390625 
" id="BitstreamVeraSans-Roman-38"/>
      </defs>
      <g style="fill:#262626;" transform="translate(1199.7877 291.340772651)scale(0.12 -0.12)">
       <use xlink:href="#BitstreamVeraSans-Roman-38"/>
      </g>
     </g>
    </g>
    <g id="ytick_25">
     <g id="line2d_115">
      <g>
       <use style="fill:#262626;stroke:#262626;stroke-width:0.5;" x="1195.7877" xlink:href="#mdb403748db" y="230.074003253"/>
      </g>
     </g>
     <g id="text_23">
      <!-- 10 -->
      <g style="fill:#262626;" transform="translate(1199.7877 233.385253253)scale(0.12 -0.12)">
       <use xlink:href="#BitstreamVeraSans-Roman-31"/>
       <use x="63.623046875" xlink:href="#BitstreamVeraSans-Roman-30"/>
      </g>
     </g>
    </g>
    <g id="ytick_26">
     <g id="line2d_116">
      <g>
       <use style="fill:#262626;stroke:#262626;stroke-width:0.5;" x="1195.7877" xlink:href="#mdb403748db" y="172.118483855"/>
      </g>
     </g>
     <g id="text_24">
      <!-- 12 -->
      <g style="fill:#262626;" transform="translate(1199.7877 175.429733855)scale(0.12 -0.12)">
       <use xlink:href="#BitstreamVeraSans-Roman-31"/>
       <use x="63.623046875" xlink:href="#BitstreamVeraSans-Roman-32"/>
      </g>
     </g>
    </g>
    <g id="ytick_27">
     <g id="line2d_117">
      <g>
       <use style="fill:#262626;stroke:#262626;stroke-width:0.5;" x="1195.7877" xlink:href="#mdb403748db" y="114.162964457"/>
      </g>
     </g>
     <g id="text_25">
      <!-- 14 -->
      <g style="fill:#262626;" transform="translate(1199.7877 117.474214457)scale(0.12 -0.12)">
       <use xlink:href="#BitstreamVeraSans-Roman-31"/>
       <use x="63.623046875" xlink:href="#BitstreamVeraSans-Roman-34"/>
      </g>
     </g>
    </g>
    <g id="ytick_28">
     <g id="line2d_118">
      <g>
       <use style="fill:#262626;stroke:#262626;stroke-width:0.5;" x="1195.7877" xlink:href="#mdb403748db" y="56.2074450589"/>
      </g>
     </g>
     <g id="text_26">
      <!-- 16 -->
      <g style="fill:#262626;" transform="translate(1199.7877 59.5186950589)scale(0.12 -0.12)">
       <use xlink:href="#BitstreamVeraSans-Roman-31"/>
       <use x="63.623046875" xlink:href="#BitstreamVeraSans-Roman-36"/>
      </g>
     </g>
    </g>
    <g id="ytick_29">
     <g id="line2d_119">
      <g>
       <use style="fill:#262626;stroke:#262626;stroke-width:0.5;" x="1195.7877" xlink:href="#mdb403748db" y="490.873840544"/>
      </g>
     </g>
    </g>
    <g id="ytick_30">
     <g id="line2d_120">
      <g>
       <use style="fill:#262626;stroke:#262626;stroke-width:0.5;" x="1195.7877" xlink:href="#mdb403748db" y="476.384960695"/>
      </g>
     </g>
    </g>
    <g id="ytick_31">
     <g id="line2d_121">
      <g>
       <use style="fill:#262626;stroke:#262626;stroke-width:0.5;" x="1195.7877" xlink:href="#mdb403748db" y="447.407200996"/>
      </g>
     </g>
    </g>
    <g id="ytick_32">
     <g id="line2d_122">
      <g>
       <use style="fill:#262626;stroke:#262626;stroke-width:0.5;" x="1195.7877" xlink:href="#mdb403748db" y="432.918321146"/>
      </g>
     </g>
    </g>
    <g id="ytick_33">
     <g id="line2d_123">
      <g>
       <use style="fill:#262626;stroke:#262626;stroke-width:0.5;" x="1195.7877" xlink:href="#mdb403748db" y="418.429441297"/>
      </g>
     </g>
    </g>
    <g id="ytick_34">
     <g id="line2d_124">
      <g>
       <use style="fill:#262626;stroke:#262626;stroke-width:0.5;" x="1195.7877" xlink:href="#mdb403748db" y="389.451681598"/>
      </g>
     </g>
    </g>
    <g id="ytick_35">
     <g id="line2d_125">
      <g>
       <use style="fill:#262626;stroke:#262626;stroke-width:0.5;" x="1195.7877" xlink:href="#mdb403748db" y="374.962801748"/>
      </g>
     </g>
    </g>
    <g id="ytick_36">
     <g id="line2d_126">
      <g>
       <use style="fill:#262626;stroke:#262626;stroke-width:0.5;" x="1195.7877" xlink:href="#mdb403748db" y="360.473921899"/>
      </g>
     </g>
    </g>
    <g id="ytick_37">
     <g id="line2d_127">
      <g>
       <use style="fill:#262626;stroke:#262626;stroke-width:0.5;" x="1195.7877" xlink:href="#mdb403748db" y="331.4961622"/>
      </g>
     </g>
    </g>
    <g id="ytick_38">
     <g id="line2d_128">
      <g>
       <use style="fill:#262626;stroke:#262626;stroke-width:0.5;" x="1195.7877" xlink:href="#mdb403748db" y="317.00728235"/>
      </g>
     </g>
    </g>
    <g id="ytick_39">
     <g id="line2d_129">
      <g>
       <use style="fill:#262626;stroke:#262626;stroke-width:0.5;" x="1195.7877" xlink:href="#mdb403748db" y="302.5184025"/>
      </g>
     </g>
    </g>
    <g id="ytick_40">
     <g id="line2d_130">
      <g>
       <use style="fill:#262626;stroke:#262626;stroke-width:0.5;" x="1195.7877" xlink:href="#mdb403748db" y="273.540642801"/>
      </g>
     </g>
    </g>
    <g id="ytick_41">
     <g id="line2d_131">
      <g>
       <use style="fill:#262626;stroke:#262626;stroke-width:0.5;" x="1195.7877" xlink:href="#mdb403748db" y="259.051762952"/>
      </g>
     </g>
    </g>
    <g id="ytick_42">
     <g id="line2d_132">
      <g>
       <use style="fill:#262626;stroke:#262626;stroke-width:0.5;" x="1195.7877" xlink:href="#mdb403748db" y="244.562883102"/>
      </g>
     </g>
    </g>
    <g id="ytick_43">
     <g id="line2d_133">
      <g>
       <use style="fill:#262626;stroke:#262626;stroke-width:0.5;" x="1195.7877" xlink:href="#mdb403748db" y="215.585123403"/>
      </g>
     </g>
    </g>
    <g id="ytick_44">
     <g id="line2d_134">
      <g>
       <use style="fill:#262626;stroke:#262626;stroke-width:0.5;" x="1195.7877" xlink:href="#mdb403748db" y="201.096243554"/>
      </g>
     </g>
    </g>
    <g id="ytick_45">
     <g id="line2d_135">
      <g>
       <use style="fill:#262626;stroke:#262626;stroke-width:0.5;" x="1195.7877" xlink:href="#mdb403748db" y="186.607363704"/>
      </g>
     </g>
    </g>
    <g id="ytick_46">
     <g id="line2d_136">
      <g>
       <use style="fill:#262626;stroke:#262626;stroke-width:0.5;" x="1195.7877" xlink:href="#mdb403748db" y="157.629604005"/>
      </g>
     </g>
    </g>
    <g id="ytick_47">
     <g id="line2d_137">
      <g>
       <use style="fill:#262626;stroke:#262626;stroke-width:0.5;" x="1195.7877" xlink:href="#mdb403748db" y="143.140724156"/>
      </g>
     </g>
    </g>
    <g id="ytick_48">
     <g id="line2d_138">
      <g>
       <use style="fill:#262626;stroke:#262626;stroke-width:0.5;" x="1195.7877" xlink:href="#mdb403748db" y="128.651844306"/>
      </g>
     </g>
    </g>
    <g id="ytick_49">
     <g id="line2d_139">
      <g>
       <use style="fill:#262626;stroke:#262626;stroke-width:0.5;" x="1195.7877" xlink:href="#mdb403748db" y="99.6740846074"/>
      </g>
     </g>
    </g>
    <g id="ytick_50">
     <g id="line2d_140">
      <g>
       <use style="fill:#262626;stroke:#262626;stroke-width:0.5;" x="1195.7877" xlink:href="#mdb403748db" y="85.1852047579"/>
      </g>
     </g>
    </g>
    <g id="ytick_51">
     <g id="line2d_141">
      <g>
       <use style="fill:#262626;stroke:#262626;stroke-width:0.5;" x="1195.7877" xlink:href="#mdb403748db" y="70.6963249084"/>
      </g>
     </g>
    </g>
    <g id="text_27">
     <!-- Latency (ms) -->
     <defs>
      <path d="M 9.8125 72.90625 
L 19.671875 72.90625 
L 19.671875 8.296875 
L 55.171875 8.296875 
L 55.171875 0 
L 9.8125 0 
z
" id="BitstreamVeraSans-Roman-4c"/>
      <path d="M 48.78125 52.59375 
L 48.78125 44.1875 
Q 44.96875 46.296875 41.140625 47.34375 
Q 37.3125 48.390625 33.40625 48.390625 
Q 24.65625 48.390625 19.8125 42.84375 
Q 14.984375 37.3125 14.984375 27.296875 
Q 14.984375 17.28125 19.8125 11.734375 
Q 24.65625 6.203125 33.40625 6.203125 
Q 37.3125 6.203125 41.140625 7.25 
Q 44.96875 8.296875 48.78125 10.40625 
L 48.78125 2.09375 
Q 45.015625 0.34375 40.984375 -0.53125 
Q 36.96875 -1.421875 32.421875 -1.421875 
Q 20.0625 -1.421875 12.78125 6.34375 
Q 5.515625 14.109375 5.515625 27.296875 
Q 5.515625 40.671875 12.859375 48.328125 
Q 20.21875 56 33.015625 56 
Q 37.15625 56 41.109375 55.140625 
Q 45.0625 54.296875 48.78125 52.59375 
" id="BitstreamVeraSans-Roman-63"/>
      <path d="M 32.171875 -5.078125 
Q 28.375 -14.84375 24.75 -17.8125 
Q 21.140625 -20.796875 15.09375 -20.796875 
L 7.90625 -20.796875 
L 7.90625 -13.28125 
L 13.1875 -13.28125 
Q 16.890625 -13.28125 18.9375 -11.515625 
Q 21 -9.765625 23.484375 -3.21875 
L 25.09375 0.875 
L 2.984375 54.6875 
L 12.5 54.6875 
L 29.59375 11.921875 
L 46.6875 54.6875 
L 56.203125 54.6875 
z
" id="BitstreamVeraSans-Roman-79"/>
     </defs>
     <g style="fill:#262626;" transform="translate(1229.175825 312.248325)rotate(-90.0)scale(0.12 -0.12)">
      <use xlink:href="#BitstreamVeraSans-Roman-4c"/>
      <use x="55.712890625" xlink:href="#BitstreamVeraSans-Roman-61"/>
      <use x="116.9921875" xlink:href="#BitstreamVeraSans-Roman-74"/>
      <use x="156.201171875" xlink:href="#BitstreamVeraSans-Roman-65"/>
      <use x="217.724609375" xlink:href="#BitstreamVeraSans-Roman-6e"/>
      <use x="281.103515625" xlink:href="#BitstreamVeraSans-Roman-63"/>
      <use x="336.083984375" xlink:href="#BitstreamVeraSans-Roman-79"/>
      <use x="395.263671875" xlink:href="#BitstreamVeraSans-Roman-20"/>
      <use x="427.05078125" xlink:href="#BitstreamVeraSans-Roman-28"/>
      <use x="466.064453125" xlink:href="#BitstreamVeraSans-Roman-6d"/>
      <use x="563.4765625" xlink:href="#BitstreamVeraSans-Roman-73"/>
      <use x="615.576171875" xlink:href="#BitstreamVeraSans-Roman-29"/>
     </g>
    </g>
   </g>
   <g id="line2d_142">
    <path clip-path="url(#p7f0b2671d7)" d="M 54.6858 476.754693 
L 60.39131 476.728556 
L 66.096819 477.436689 
L 71.802329 477.084679 
L 77.507838 477.674909 
L 83.213347 477.888627 
L 88.918857 479.332943 
L 94.624367 480.008952 
L 100.329876 480.00935 
L 106.035386 479.854147 
L 111.740895 479.974004 
L 117.446405 480.520891 
L 123.151914 480.58991 
L 128.857424 480.987122 
L 134.562933 480.763463 
L 145.973952 481.230229 
L 151.679462 480.804549 
L 157.384971 480.981329 
L 163.090481 480.727676 
L 168.79599 480.633307 
L 174.5015 477.408935 
L 180.207009 449.946576 
L 185.912519 414.359844 
L 191.618028 377.955971 
L 197.323538 334.497085 
L 208.734557 251.334178 
L 214.440066 213.39873 
L 220.145576 177.613748 
L 225.851085 146.87766 
L 231.556595 116.797431 
L 237.262104 115.232445 
L 242.967614 120.723409 
L 248.673123 121.374201 
L 254.378633 129.773541 
L 260.084142 136.613962 
L 265.789652 146.77246 
L 271.495161 151.318202 
L 277.200671 151.193225 
L 282.90618 151.977666 
L 288.61169 153.040401 
L 294.317199 144.986889 
L 300.022709 144.896543 
L 305.728218 148.690225 
L 311.433728 149.493733 
L 317.139237 148.735174 
L 322.844747 147.101182 
L 328.550256 148.534216 
L 334.255766 155.790956 
L 339.961275 154.074442 
L 345.666785 153.289661 
L 351.372294 154.878524 
L 357.077804 147.479929 
L 362.783313 142.404116 
L 368.488823 144.90067 
L 374.194332 149.562959 
L 379.899842 145.344029 
L 385.605351 143.625029 
L 391.310861 131.488803 
L 397.01637 127.451035 
L 402.72188 120.887071 
L 408.427389 122.265191 
L 414.132899 126.503309 
L 419.838408 126.213822 
L 425.543918 123.08872 
L 431.249427 119.435559 
L 436.954937 120.233266 
L 442.660446 120.295179 
L 448.365956 127.727156 
L 454.071465 127.95666 
L 459.776975 133.601855 
L 465.482484 131.292754 
L 471.187994 124.823033 
L 476.893503 128.322409 
L 482.599013 128.739885 
L 488.304522 132.722787 
L 494.010032 137.711863 
L 499.715541 138.060465 
L 505.421051 138.60992 
L 511.12656 134.750968 
L 516.83207 132.756716 
L 522.537579 138.19933 
L 528.243089 141.130485 
L 533.948598 143.39723 
L 539.654108 151.334258 
L 545.359617 153.733225 
L 551.065127 145.166401 
L 556.770636 137.997536 
L 562.476146 137.517475 
L 568.181655 143.066196 
L 573.887165 146.804547 
L 579.592674 135.800821 
L 585.298184 137.420646 
L 591.003693 138.866192 
L 596.709203 133.626069 
L 602.414712 127.461158 
L 608.120222 137.358522 
L 613.825731 132.973724 
L 619.531241 112.435337 
L 625.23675 97.62264 
L 630.94226 92.364704 
L 636.647769 106.942829 
L 642.353279 111.177911 
L 648.058788 110.275097 
L 653.764298 113.822964 
L 659.469807 117.515141 
L 665.175317 109.726564 
L 670.880826 119.558667 
L 676.586336 145.776413 
L 682.291845 166.629361 
L 687.997355 170.830974 
L 693.702864 162.270872 
L 699.408374 161.558076 
L 705.113883 157.780013 
L 710.819393 149.71362 
L 716.524902 150.781957 
L 722.230412 152.747636 
L 727.935921 143.601515 
L 733.641431 131.0799 
L 739.34694 88.610122 
L 745.05245 63.700091 
L 750.757959 69.798636 
L 756.463469 71.399913 
L 762.168978 65.991584 
L 767.874488 63.863355 
L 773.579997 60.541613 
L 779.285507 58.822994 
L 784.991016 60.784801 
L 790.696526 68.969818 
L 796.402035 104.252417 
L 802.107545 121.494238 
L 807.813054 109.035489 
L 813.518564 105.130343 
L 819.224073 113.731096 
L 824.929583 121.050437 
L 830.635092 117.970037 
L 836.340602 118.079378 
L 842.046111 123.013433 
L 847.751621 118.048253 
L 853.45713 123.710361 
L 859.16264 132.738371 
L 864.868149 138.544056 
L 870.573659 142.094381 
L 876.279168 143.774585 
L 881.984678 145.239781 
L 887.690187 153.937183 
L 893.395697 158.740582 
L 899.101206 155.646945 
L 904.806716 152.792246 
L 910.512225 150.19213 
L 916.217735 148.049317 
L 921.923244 147.591764 
L 927.628754 145.852571 
L 933.334263 145.273601 
L 939.039773 144.078331 
L 944.745282 144.942742 
L 956.156301 147.953078 
L 961.861811 154.966934 
L 967.56732 154.569408 
L 973.27283 152.177263 
L 978.978339 154.367044 
L 984.683849 153.177664 
L 990.389358 150.671362 
L 996.094868 150.671354 
L 1001.800377 146.098095 
L 1007.505887 141.843439 
L 1013.211396 149.881115 
L 1024.622415 147.109398 
L 1030.327925 160.766537 
L 1036.033434 187.74913 
L 1047.444453 254.047194 
L 1053.149963 284.847257 
L 1058.855472 316.336749 
L 1064.560982 352.05329 
L 1070.266491 383.122403 
L 1075.972001 418.096429 
L 1081.67751 452.334589 
L 1087.38302 475.855684 
L 1093.088529 484.10763 
L 1110.205058 486.483773 
L 1115.910567 486.638055 
L 1121.616077 486.552337 
L 1133.027096 487.024897 
L 1138.732605 487.122406 
L 1144.438115 485.61188 
L 1150.143624 483.800542 
L 1155.849134 481.220703 
L 1161.554643 477.619818 
L 1167.260153 473.259949 
L 1172.965662 471.898401 
L 1178.671172 470.263407 
L 1184.376681 468.023198 
L 1190.082191 464.731082 
L 1190.082191 464.731082 
" style="fill:none;stroke:#7570b3;stroke-linecap:round;"/>
   </g>
  </g>
  <g id="text_28">
   <!-- Realtime Response Under Load - exclusively Best Effort -->
   <defs>
    <path d="M 37.109375 75.984375 
L 37.109375 68.5 
L 28.515625 68.5 
Q 23.6875 68.5 21.796875 66.546875 
Q 19.921875 64.59375 19.921875 59.515625 
L 19.921875 54.6875 
L 34.71875 54.6875 
L 34.71875 47.703125 
L 19.921875 47.703125 
L 19.921875 0 
L 10.890625 0 
L 10.890625 47.703125 
L 2.296875 47.703125 
L 2.296875 54.6875 
L 10.890625 54.6875 
L 10.890625 58.5 
Q 10.890625 67.625 15.140625 71.796875 
Q 19.390625 75.984375 28.609375 75.984375 
z
" id="BitstreamVeraSans-Roman-66"/>
    <path d="M 9.8125 72.90625 
L 55.90625 72.90625 
L 55.90625 64.59375 
L 19.671875 64.59375 
L 19.671875 43.015625 
L 54.390625 43.015625 
L 54.390625 34.71875 
L 19.671875 34.71875 
L 19.671875 8.296875 
L 56.78125 8.296875 
L 56.78125 0 
L 9.8125 0 
z
" id="BitstreamVeraSans-Roman-45"/>
    <path d="M 44.390625 34.1875 
Q 47.5625 33.109375 50.5625 29.59375 
Q 53.5625 26.078125 56.59375 19.921875 
L 66.609375 0 
L 56 0 
L 46.6875 18.703125 
Q 43.0625 26.03125 39.671875 28.421875 
Q 36.28125 30.8125 30.421875 30.8125 
L 19.671875 30.8125 
L 19.671875 0 
L 9.8125 0 
L 9.8125 72.90625 
L 32.078125 72.90625 
Q 44.578125 72.90625 50.734375 67.671875 
Q 56.890625 62.453125 56.890625 51.90625 
Q 56.890625 45.015625 53.6875 40.46875 
Q 50.484375 35.9375 44.390625 34.1875 
M 19.671875 64.796875 
L 19.671875 38.921875 
L 32.078125 38.921875 
Q 39.203125 38.921875 42.84375 42.21875 
Q 46.484375 45.515625 46.484375 51.90625 
Q 46.484375 58.296875 42.84375 61.546875 
Q 39.203125 64.796875 32.078125 64.796875 
z
" id="BitstreamVeraSans-Roman-52"/>
    <path d="M 4.890625 31.390625 
L 31.203125 31.390625 
L 31.203125 23.390625 
L 4.890625 23.390625 
z
" id="BitstreamVeraSans-Roman-2d"/>
    <path d="M 54.890625 54.6875 
L 35.109375 28.078125 
L 55.90625 0 
L 45.3125 0 
L 29.390625 21.484375 
L 13.484375 0 
L 2.875 0 
L 24.125 28.609375 
L 4.6875 54.6875 
L 15.28125 54.6875 
L 29.78125 35.203125 
L 44.28125 54.6875 
z
" id="BitstreamVeraSans-Roman-78"/>
    <path d="M 2.984375 54.6875 
L 12.5 54.6875 
L 29.59375 8.796875 
L 46.6875 54.6875 
L 56.203125 54.6875 
L 35.6875 0 
L 23.484375 0 
z
" id="BitstreamVeraSans-Roman-76"/>
    <path d="M 8.5 21.578125 
L 8.5 54.6875 
L 17.484375 54.6875 
L 17.484375 21.921875 
Q 17.484375 14.15625 20.5 10.265625 
Q 23.53125 6.390625 29.59375 6.390625 
Q 36.859375 6.390625 41.078125 11.03125 
Q 45.3125 15.671875 45.3125 23.6875 
L 45.3125 54.6875 
L 54.296875 54.6875 
L 54.296875 0 
L 45.3125 0 
L 45.3125 8.40625 
Q 42.046875 3.421875 37.71875 1 
Q 33.40625 -1.421875 27.6875 -1.421875 
Q 18.265625 -1.421875 13.375 4.4375 
Q 8.5 10.296875 8.5 21.578125 
" id="BitstreamVeraSans-Roman-75"/>
    <path d="M 41.109375 46.296875 
Q 39.59375 47.171875 37.8125 47.578125 
Q 36.03125 48 33.890625 48 
Q 26.265625 48 22.1875 43.046875 
Q 18.109375 38.09375 18.109375 28.8125 
L 18.109375 0 
L 9.078125 0 
L 9.078125 54.6875 
L 18.109375 54.6875 
L 18.109375 46.1875 
Q 20.953125 51.171875 25.484375 53.578125 
Q 30.03125 56 36.53125 56 
Q 37.453125 56 38.578125 55.875 
Q 39.703125 55.765625 41.0625 55.515625 
z
" id="BitstreamVeraSans-Roman-72"/>
    <path d="M 19.671875 34.8125 
L 19.671875 8.109375 
L 35.5 8.109375 
Q 43.453125 8.109375 47.28125 11.40625 
Q 51.125 14.703125 51.125 21.484375 
Q 51.125 28.328125 47.28125 31.5625 
Q 43.453125 34.8125 35.5 34.8125 
z
M 19.671875 64.796875 
L 19.671875 42.828125 
L 34.28125 42.828125 
Q 41.5 42.828125 45.03125 45.53125 
Q 48.578125 48.25 48.578125 53.8125 
Q 48.578125 59.328125 45.03125 62.0625 
Q 41.5 64.796875 34.28125 64.796875 
z
M 9.8125 72.90625 
L 35.015625 72.90625 
Q 46.296875 72.90625 52.390625 68.21875 
Q 58.5 63.53125 58.5 54.890625 
Q 58.5 48.1875 55.375 44.234375 
Q 52.25 40.28125 46.1875 39.3125 
Q 53.46875 37.75 57.5 32.78125 
Q 61.53125 27.828125 61.53125 20.40625 
Q 61.53125 10.640625 54.890625 5.3125 
Q 48.25 0 35.984375 0 
L 9.8125 0 
z
" id="BitstreamVeraSans-Roman-42"/>
   </defs>
   <g style="fill:#262626;" transform="translate(506.1871875 10.6378125)scale(0.14 -0.14)">
    <use xlink:href="#BitstreamVeraSans-Roman-52"/>
    <use x="69.419921875" xlink:href="#BitstreamVeraSans-Roman-65"/>
    <use x="130.943359375" xlink:href="#BitstreamVeraSans-Roman-61"/>
    <use x="192.22265625" xlink:href="#BitstreamVeraSans-Roman-6c"/>
    <use x="220.005859375" xlink:href="#BitstreamVeraSans-Roman-74"/>
    <use x="259.21484375" xlink:href="#BitstreamVeraSans-Roman-69"/>
    <use x="286.998046875" xlink:href="#BitstreamVeraSans-Roman-6d"/>
    <use x="384.41015625" xlink:href="#BitstreamVeraSans-Roman-65"/>
    <use x="445.93359375" xlink:href="#BitstreamVeraSans-Roman-20"/>
    <use x="477.720703125" xlink:href="#BitstreamVeraSans-Roman-52"/>
    <use x="547.140625" xlink:href="#BitstreamVeraSans-Roman-65"/>
    <use x="608.6640625" xlink:href="#BitstreamVeraSans-Roman-73"/>
    <use x="660.763671875" xlink:href="#BitstreamVeraSans-Roman-70"/>
    <use x="724.240234375" xlink:href="#BitstreamVeraSans-Roman-6f"/>
    <use x="785.421875" xlink:href="#BitstreamVeraSans-Roman-6e"/>
    <use x="848.80078125" xlink:href="#BitstreamVeraSans-Roman-73"/>
    <use x="900.900390625" xlink:href="#BitstreamVeraSans-Roman-65"/>
    <use x="962.423828125" xlink:href="#BitstreamVeraSans-Roman-20"/>
    <use x="994.2109375" xlink:href="#BitstreamVeraSans-Roman-55"/>
    <use x="1067.40429688" xlink:href="#BitstreamVeraSans-Roman-6e"/>
    <use x="1130.78320312" xlink:href="#BitstreamVeraSans-Roman-64"/>
    <use x="1194.25976562" xlink:href="#BitstreamVeraSans-Roman-65"/>
    <use x="1255.78320312" xlink:href="#BitstreamVeraSans-Roman-72"/>
    <use x="1296.89648438" xlink:href="#BitstreamVeraSans-Roman-20"/>
    <use x="1328.68359375" xlink:href="#BitstreamVeraSans-Roman-4c"/>
    <use x="1384.38085938" xlink:href="#BitstreamVeraSans-Roman-6f"/>
    <use x="1445.5625" xlink:href="#BitstreamVeraSans-Roman-61"/>
    <use x="1506.84179688" xlink:href="#BitstreamVeraSans-Roman-64"/>
    <use x="1570.31835938" xlink:href="#BitstreamVeraSans-Roman-20"/>
    <use x="1602.10546875" xlink:href="#BitstreamVeraSans-Roman-2d"/>
    <use x="1638.18945312" xlink:href="#BitstreamVeraSans-Roman-20"/>
    <use x="1669.9765625" xlink:href="#BitstreamVeraSans-Roman-65"/>
    <use x="1731.484375" xlink:href="#BitstreamVeraSans-Roman-78"/>
    <use x="1790.6484375" xlink:href="#BitstreamVeraSans-Roman-63"/>
    <use x="1845.62890625" xlink:href="#BitstreamVeraSans-Roman-6c"/>
    <use x="1873.41210938" xlink:href="#BitstreamVeraSans-Roman-75"/>
    <use x="1936.79101562" xlink:href="#BitstreamVeraSans-Roman-73"/>
    <use x="1988.890625" xlink:href="#BitstreamVeraSans-Roman-69"/>
    <use x="2016.67382812" xlink:href="#BitstreamVeraSans-Roman-76"/>
    <use x="2075.85351562" xlink:href="#BitstreamVeraSans-Roman-65"/>
    <use x="2137.37695312" xlink:href="#BitstreamVeraSans-Roman-6c"/>
    <use x="2165.16015625" xlink:href="#BitstreamVeraSans-Roman-79"/>
    <use x="2224.33984375" xlink:href="#BitstreamVeraSans-Roman-20"/>
    <use x="2256.12695312" xlink:href="#BitstreamVeraSans-Roman-42"/>
    <use x="2324.73046875" xlink:href="#BitstreamVeraSans-Roman-65"/>
    <use x="2386.25390625" xlink:href="#BitstreamVeraSans-Roman-73"/>
    <use x="2438.35351562" xlink:href="#BitstreamVeraSans-Roman-74"/>
    <use x="2477.5625" xlink:href="#BitstreamVeraSans-Roman-20"/>
    <use x="2509.34960938" xlink:href="#BitstreamVeraSans-Roman-45"/>
    <use x="2572.53320312" xlink:href="#BitstreamVeraSans-Roman-66"/>
    <use x="2607.73828125" xlink:href="#BitstreamVeraSans-Roman-66"/>
    <use x="2642.94335938" xlink:href="#BitstreamVeraSans-Roman-6f"/>
    <use x="2704.125" xlink:href="#BitstreamVeraSans-Roman-72"/>
    <use x="2745.23828125" xlink:href="#BitstreamVeraSans-Roman-74"/>
   </g>
   <!-- Total bandwidth and average ping plot -->
   <defs>
    <path d="M 54.890625 33.015625 
L 54.890625 0 
L 45.90625 0 
L 45.90625 32.71875 
Q 45.90625 40.484375 42.875 44.328125 
Q 39.84375 48.1875 33.796875 48.1875 
Q 26.515625 48.1875 22.3125 43.546875 
Q 18.109375 38.921875 18.109375 30.90625 
L 18.109375 0 
L 9.078125 0 
L 9.078125 75.984375 
L 18.109375 75.984375 
L 18.109375 46.1875 
Q 21.34375 51.125 25.703125 53.5625 
Q 30.078125 56 35.796875 56 
Q 45.21875 56 50.046875 50.171875 
Q 54.890625 44.34375 54.890625 33.015625 
" id="BitstreamVeraSans-Roman-68"/>
   </defs>
   <g style="fill:#262626;" transform="translate(565.0375 26.31475)scale(0.14 -0.14)">
    <use xlink:href="#BitstreamVeraSans-Roman-54"/>
    <use x="60.818359375" xlink:href="#BitstreamVeraSans-Roman-6f"/>
    <use x="122.0" xlink:href="#BitstreamVeraSans-Roman-74"/>
    <use x="161.208984375" xlink:href="#BitstreamVeraSans-Roman-61"/>
    <use x="222.48828125" xlink:href="#BitstreamVeraSans-Roman-6c"/>
    <use x="250.271484375" xlink:href="#BitstreamVeraSans-Roman-20"/>
    <use x="282.05859375" xlink:href="#BitstreamVeraSans-Roman-62"/>
    <use x="345.53515625" xlink:href="#BitstreamVeraSans-Roman-61"/>
    <use x="406.814453125" xlink:href="#BitstreamVeraSans-Roman-6e"/>
    <use x="470.193359375" xlink:href="#BitstreamVeraSans-Roman-64"/>
    <use x="533.669921875" xlink:href="#BitstreamVeraSans-Roman-77"/>
    <use x="615.45703125" xlink:href="#BitstreamVeraSans-Roman-69"/>
    <use x="643.240234375" xlink:href="#BitstreamVeraSans-Roman-64"/>
    <use x="706.716796875" xlink:href="#BitstreamVeraSans-Roman-74"/>
    <use x="745.92578125" xlink:href="#BitstreamVeraSans-Roman-68"/>
    <use x="809.3046875" xlink:href="#BitstreamVeraSans-Roman-20"/>
    <use x="841.091796875" xlink:href="#BitstreamVeraSans-Roman-61"/>
    <use x="902.37109375" xlink:href="#BitstreamVeraSans-Roman-6e"/>
    <use x="965.75" xlink:href="#BitstreamVeraSans-Roman-64"/>
    <use x="1029.2265625" xlink:href="#BitstreamVeraSans-Roman-20"/>
    <use x="1061.01367188" xlink:href="#BitstreamVeraSans-Roman-61"/>
    <use x="1122.29296875" xlink:href="#BitstreamVeraSans-Roman-76"/>
    <use x="1181.47265625" xlink:href="#BitstreamVeraSans-Roman-65"/>
    <use x="1242.99609375" xlink:href="#BitstreamVeraSans-Roman-72"/>
    <use x="1284.109375" xlink:href="#BitstreamVeraSans-Roman-61"/>
    <use x="1345.38867188" xlink:href="#BitstreamVeraSans-Roman-67"/>
    <use x="1408.86523438" xlink:href="#BitstreamVeraSans-Roman-65"/>
    <use x="1470.38867188" xlink:href="#BitstreamVeraSans-Roman-20"/>
    <use x="1502.17578125" xlink:href="#BitstreamVeraSans-Roman-70"/>
    <use x="1565.65234375" xlink:href="#BitstreamVeraSans-Roman-69"/>
    <use x="1593.43554688" xlink:href="#BitstreamVeraSans-Roman-6e"/>
    <use x="1656.81445312" xlink:href="#BitstreamVeraSans-Roman-67"/>
    <use x="1720.29101562" xlink:href="#BitstreamVeraSans-Roman-20"/>
    <use x="1752.078125" xlink:href="#BitstreamVeraSans-Roman-70"/>
    <use x="1815.5546875" xlink:href="#BitstreamVeraSans-Roman-6c"/>
    <use x="1843.33789062" xlink:href="#BitstreamVeraSans-Roman-6f"/>
    <use x="1904.51953125" xlink:href="#BitstreamVeraSans-Roman-74"/>
   </g>
   <!-- psk2-cc-ht40-linux-nosqm -->
   <defs>
    <path d="M 14.796875 27.296875 
Q 14.796875 17.390625 18.875 11.75 
Q 22.953125 6.109375 30.078125 6.109375 
Q 37.203125 6.109375 41.296875 11.75 
Q 45.40625 17.390625 45.40625 27.296875 
Q 45.40625 37.203125 41.296875 42.84375 
Q 37.203125 48.484375 30.078125 48.484375 
Q 22.953125 48.484375 18.875 42.84375 
Q 14.796875 37.203125 14.796875 27.296875 
M 45.40625 8.203125 
Q 42.578125 3.328125 38.25 0.953125 
Q 33.9375 -1.421875 27.875 -1.421875 
Q 17.96875 -1.421875 11.734375 6.484375 
Q 5.515625 14.40625 5.515625 27.296875 
Q 5.515625 40.1875 11.734375 48.09375 
Q 17.96875 56 27.875 56 
Q 33.9375 56 38.25 53.625 
Q 42.578125 51.265625 45.40625 46.390625 
L 45.40625 54.6875 
L 54.390625 54.6875 
L 54.390625 -20.796875 
L 45.40625 -20.796875 
z
" id="BitstreamVeraSans-Roman-71"/>
    <path d="M 9.078125 75.984375 
L 18.109375 75.984375 
L 18.109375 31.109375 
L 44.921875 54.6875 
L 56.390625 54.6875 
L 27.390625 29.109375 
L 57.625 0 
L 45.90625 0 
L 18.109375 26.703125 
L 18.109375 0 
L 9.078125 0 
z
" id="BitstreamVeraSans-Roman-6b"/>
   </defs>
   <g style="fill:#262626;" transform="translate(610.08140625 41.9916875)scale(0.14 -0.14)">
    <use xlink:href="#BitstreamVeraSans-Roman-70"/>
    <use x="63.4765625" xlink:href="#BitstreamVeraSans-Roman-73"/>
    <use x="115.576171875" xlink:href="#BitstreamVeraSans-Roman-6b"/>
    <use x="173.486328125" xlink:href="#BitstreamVeraSans-Roman-32"/>
    <use x="237.109375" xlink:href="#BitstreamVeraSans-Roman-2d"/>
    <use x="273.193359375" xlink:href="#BitstreamVeraSans-Roman-63"/>
    <use x="328.173828125" xlink:href="#BitstreamVeraSans-Roman-63"/>
    <use x="383.154296875" xlink:href="#BitstreamVeraSans-Roman-2d"/>
    <use x="419.23828125" xlink:href="#BitstreamVeraSans-Roman-68"/>
    <use x="482.6171875" xlink:href="#BitstreamVeraSans-Roman-74"/>
    <use x="521.826171875" xlink:href="#BitstreamVeraSans-Roman-34"/>
    <use x="585.44921875" xlink:href="#BitstreamVeraSans-Roman-30"/>
    <use x="649.072265625" xlink:href="#BitstreamVeraSans-Roman-2d"/>
    <use x="685.15625" xlink:href="#BitstreamVeraSans-Roman-6c"/>
    <use x="712.939453125" xlink:href="#BitstreamVeraSans-Roman-69"/>
    <use x="740.72265625" xlink:href="#BitstreamVeraSans-Roman-6e"/>
    <use x="804.1015625" xlink:href="#BitstreamVeraSans-Roman-75"/>
    <use x="867.48046875" xlink:href="#BitstreamVeraSans-Roman-78"/>
    <use x="926.66015625" xlink:href="#BitstreamVeraSans-Roman-2d"/>
    <use x="962.744140625" xlink:href="#BitstreamVeraSans-Roman-6e"/>
    <use x="1026.12304688" xlink:href="#BitstreamVeraSans-Roman-6f"/>
    <use x="1087.3046875" xlink:href="#BitstreamVeraSans-Roman-73"/>
    <use x="1139.40429688" xlink:href="#BitstreamVeraSans-Roman-71"/>
    <use x="1202.88085938" xlink:href="#BitstreamVeraSans-Roman-6d"/>
   </g>
  </g>
  <g id="text_29">
   <!-- Local/remote: dair-2506.local/192.168.1.105 - Time: 2016-08-29T14:53:59.509021 - Length/step: 30s/0.20s -->
   <defs>
    <path d="M 10.984375 1.515625 
L 10.984375 10.5 
Q 14.703125 8.734375 18.5 7.8125 
Q 22.3125 6.890625 25.984375 6.890625 
Q 35.75 6.890625 40.890625 13.453125 
Q 46.046875 20.015625 46.78125 33.40625 
Q 43.953125 29.203125 39.59375 26.953125 
Q 35.25 24.703125 29.984375 24.703125 
Q 19.046875 24.703125 12.671875 31.3125 
Q 6.296875 37.9375 6.296875 49.421875 
Q 6.296875 60.640625 12.9375 67.421875 
Q 19.578125 74.21875 30.609375 74.21875 
Q 43.265625 74.21875 49.921875 64.515625 
Q 56.59375 54.828125 56.59375 36.375 
Q 56.59375 19.140625 48.40625 8.859375 
Q 40.234375 -1.421875 26.421875 -1.421875 
Q 22.703125 -1.421875 18.890625 -0.6875 
Q 15.09375 0.046875 10.984375 1.515625 
M 30.609375 32.421875 
Q 37.25 32.421875 41.125 36.953125 
Q 45.015625 41.5 45.015625 49.421875 
Q 45.015625 57.28125 41.125 61.84375 
Q 37.25 66.40625 30.609375 66.40625 
Q 23.96875 66.40625 20.09375 61.84375 
Q 16.21875 57.28125 16.21875 49.421875 
Q 16.21875 41.5 20.09375 36.953125 
Q 23.96875 32.421875 30.609375 32.421875 
" id="BitstreamVeraSans-Roman-39"/>
    <path d="M 11.71875 12.40625 
L 22.015625 12.40625 
L 22.015625 0 
L 11.71875 0 
z
M 11.71875 51.703125 
L 22.015625 51.703125 
L 22.015625 39.3125 
L 11.71875 39.3125 
z
" id="BitstreamVeraSans-Roman-3a"/>
    <path d="M 10.6875 12.40625 
L 21 12.40625 
L 21 0 
L 10.6875 0 
z
" id="BitstreamVeraSans-Roman-2e"/>
   </defs>
   <g style="fill:#262626;" transform="translate(484.9575 543.73625)scale(0.08 -0.08)">
    <use xlink:href="#BitstreamVeraSans-Roman-4c"/>
    <use x="55.697265625" xlink:href="#BitstreamVeraSans-Roman-6f"/>
    <use x="116.87890625" xlink:href="#BitstreamVeraSans-Roman-63"/>
    <use x="171.859375" xlink:href="#BitstreamVeraSans-Roman-61"/>
    <use x="233.138671875" xlink:href="#BitstreamVeraSans-Roman-6c"/>
    <use x="260.921875" xlink:href="#BitstreamVeraSans-Roman-2f"/>
    <use x="294.61328125" xlink:href="#BitstreamVeraSans-Roman-72"/>
    <use x="335.6953125" xlink:href="#BitstreamVeraSans-Roman-65"/>
    <use x="397.21875" xlink:href="#BitstreamVeraSans-Roman-6d"/>
    <use x="494.630859375" xlink:href="#BitstreamVeraSans-Roman-6f"/>
    <use x="555.8125" xlink:href="#BitstreamVeraSans-Roman-74"/>
    <use x="595.021484375" xlink:href="#BitstreamVeraSans-Roman-65"/>
    <use x="656.544921875" xlink:href="#BitstreamVeraSans-Roman-3a"/>
    <use x="690.236328125" xlink:href="#BitstreamVeraSans-Roman-20"/>
    <use x="722.0234375" xlink:href="#BitstreamVeraSans-Roman-64"/>
    <use x="785.5" xlink:href="#BitstreamVeraSans-Roman-61"/>
    <use x="846.779296875" xlink:href="#BitstreamVeraSans-Roman-69"/>
    <use x="874.5625" xlink:href="#BitstreamVeraSans-Roman-72"/>
    <use x="915.58203125" xlink:href="#BitstreamVeraSans-Roman-2d"/>
    <use x="951.666015625" xlink:href="#BitstreamVeraSans-Roman-32"/>
    <use x="1015.2890625" xlink:href="#BitstreamVeraSans-Roman-35"/>
    <use x="1078.91210938" xlink:href="#BitstreamVeraSans-Roman-30"/>
    <use x="1142.53515625" xlink:href="#BitstreamVeraSans-Roman-36"/>
    <use x="1206.15820312" xlink:href="#BitstreamVeraSans-Roman-2e"/>
    <use x="1237.9453125" xlink:href="#BitstreamVeraSans-Roman-6c"/>
    <use x="1265.72851562" xlink:href="#BitstreamVeraSans-Roman-6f"/>
    <use x="1326.91015625" xlink:href="#BitstreamVeraSans-Roman-63"/>
    <use x="1381.890625" xlink:href="#BitstreamVeraSans-Roman-61"/>
    <use x="1443.16992188" xlink:href="#BitstreamVeraSans-Roman-6c"/>
    <use x="1470.953125" xlink:href="#BitstreamVeraSans-Roman-2f"/>
    <use x="1504.64453125" xlink:href="#BitstreamVeraSans-Roman-31"/>
    <use x="1568.26757812" xlink:href="#BitstreamVeraSans-Roman-39"/>
    <use x="1631.890625" xlink:href="#BitstreamVeraSans-Roman-32"/>
    <use x="1695.51367188" xlink:href="#BitstreamVeraSans-Roman-2e"/>
    <use x="1727.30078125" xlink:href="#BitstreamVeraSans-Roman-31"/>
    <use x="1790.92382812" xlink:href="#BitstreamVeraSans-Roman-36"/>
    <use x="1854.546875" xlink:href="#BitstreamVeraSans-Roman-38"/>
    <use x="1918.16992188" xlink:href="#BitstreamVeraSans-Roman-2e"/>
    <use x="1949.95703125" xlink:href="#BitstreamVeraSans-Roman-31"/>
    <use x="2013.58007812" xlink:href="#BitstreamVeraSans-Roman-2e"/>
    <use x="2045.3671875" xlink:href="#BitstreamVeraSans-Roman-31"/>
    <use x="2108.99023438" xlink:href="#BitstreamVeraSans-Roman-30"/>
    <use x="2172.61328125" xlink:href="#BitstreamVeraSans-Roman-35"/>
    <use x="2236.23632812" xlink:href="#BitstreamVeraSans-Roman-20"/>
    <use x="2268.0234375" xlink:href="#BitstreamVeraSans-Roman-2d"/>
    <use x="2304.10742188" xlink:href="#BitstreamVeraSans-Roman-20"/>
    <use x="2335.89453125" xlink:href="#BitstreamVeraSans-Roman-54"/>
    <use x="2396.93164062" xlink:href="#BitstreamVeraSans-Roman-69"/>
    <use x="2424.71484375" xlink:href="#BitstreamVeraSans-Roman-6d"/>
    <use x="2522.12695312" xlink:href="#BitstreamVeraSans-Roman-65"/>
    <use x="2583.65039062" xlink:href="#BitstreamVeraSans-Roman-3a"/>
    <use x="2617.34179688" xlink:href="#BitstreamVeraSans-Roman-20"/>
    <use x="2649.12890625" xlink:href="#BitstreamVeraSans-Roman-32"/>
    <use x="2712.75195312" xlink:href="#BitstreamVeraSans-Roman-30"/>
    <use x="2776.375" xlink:href="#BitstreamVeraSans-Roman-31"/>
    <use x="2839.99804688" xlink:href="#BitstreamVeraSans-Roman-36"/>
    <use x="2903.62109375" xlink:href="#BitstreamVeraSans-Roman-2d"/>
    <use x="2939.70507812" xlink:href="#BitstreamVeraSans-Roman-30"/>
    <use x="3003.328125" xlink:href="#BitstreamVeraSans-Roman-38"/>
    <use x="3066.95117188" xlink:href="#BitstreamVeraSans-Roman-2d"/>
    <use x="3103.03515625" xlink:href="#BitstreamVeraSans-Roman-32"/>
    <use x="3166.65820312" xlink:href="#BitstreamVeraSans-Roman-39"/>
    <use x="3230.28125" xlink:href="#BitstreamVeraSans-Roman-54"/>
    <use x="3291.36523438" xlink:href="#BitstreamVeraSans-Roman-31"/>
    <use x="3354.98828125" xlink:href="#BitstreamVeraSans-Roman-34"/>
    <use x="3418.61132812" xlink:href="#BitstreamVeraSans-Roman-3a"/>
    <use x="3452.30273438" xlink:href="#BitstreamVeraSans-Roman-35"/>
    <use x="3515.92578125" xlink:href="#BitstreamVeraSans-Roman-33"/>
    <use x="3579.54882812" xlink:href="#BitstreamVeraSans-Roman-3a"/>
    <use x="3613.24023438" xlink:href="#BitstreamVeraSans-Roman-35"/>
    <use x="3676.86328125" xlink:href="#BitstreamVeraSans-Roman-39"/>
    <use x="3740.48632812" xlink:href="#BitstreamVeraSans-Roman-2e"/>
    <use x="3772.2734375" xlink:href="#BitstreamVeraSans-Roman-35"/>
    <use x="3835.89648438" xlink:href="#BitstreamVeraSans-Roman-30"/>
    <use x="3899.51953125" xlink:href="#BitstreamVeraSans-Roman-39"/>
    <use x="3963.14257812" xlink:href="#BitstreamVeraSans-Roman-30"/>
    <use x="4026.765625" xlink:href="#BitstreamVeraSans-Roman-32"/>
    <use x="4090.38867188" xlink:href="#BitstreamVeraSans-Roman-31"/>
    <use x="4154.01171875" xlink:href="#BitstreamVeraSans-Roman-20"/>
    <use x="4185.79882812" xlink:href="#BitstreamVeraSans-Roman-2d"/>
    <use x="4221.8828125" xlink:href="#BitstreamVeraSans-Roman-20"/>
    <use x="4253.66992188" xlink:href="#BitstreamVeraSans-Roman-4c"/>
    <use x="4309.3671875" xlink:href="#BitstreamVeraSans-Roman-65"/>
    <use x="4370.890625" xlink:href="#BitstreamVeraSans-Roman-6e"/>
    <use x="4434.26953125" xlink:href="#BitstreamVeraSans-Roman-67"/>
    <use x="4497.74609375" xlink:href="#BitstreamVeraSans-Roman-74"/>
    <use x="4536.95507812" xlink:href="#BitstreamVeraSans-Roman-68"/>
    <use x="4600.33398438" xlink:href="#BitstreamVeraSans-Roman-2f"/>
    <use x="4634.02539062" xlink:href="#BitstreamVeraSans-Roman-73"/>
    <use x="4686.125" xlink:href="#BitstreamVeraSans-Roman-74"/>
    <use x="4725.33398438" xlink:href="#BitstreamVeraSans-Roman-65"/>
    <use x="4786.85742188" xlink:href="#BitstreamVeraSans-Roman-70"/>
    <use x="4850.33398438" xlink:href="#BitstreamVeraSans-Roman-3a"/>
    <use x="4884.02539062" xlink:href="#BitstreamVeraSans-Roman-20"/>
    <use x="4915.8125" xlink:href="#BitstreamVeraSans-Roman-33"/>
    <use x="4979.43554688" xlink:href="#BitstreamVeraSans-Roman-30"/>
    <use x="5043.05859375" xlink:href="#BitstreamVeraSans-Roman-73"/>
    <use x="5095.15820312" xlink:href="#BitstreamVeraSans-Roman-2f"/>
    <use x="5128.84960938" xlink:href="#BitstreamVeraSans-Roman-30"/>
    <use x="5192.47265625" xlink:href="#BitstreamVeraSans-Roman-2e"/>
    <use x="5224.25976562" xlink:href="#BitstreamVeraSans-Roman-32"/>
    <use x="5287.8828125" xlink:href="#BitstreamVeraSans-Roman-30"/>
    <use x="5351.50585938" xlink:href="#BitstreamVeraSans-Roman-73"/>
   </g>
  </g>
 </g>
 <defs>
  <clipPath id="p7f0b2671d7">
   <rect height="436.8654" width="1141.1019" x="54.6858" y="54.54"/>
  </clipPath>
 </defs>
</svg>
