<?xml version="1.0" encoding="utf-8" standalone="no"?>
<!DOCTYPE svg PUBLIC "-//W3C//DTD SVG 1.1//EN"
  "http://www.w3.org/Graphics/SVG/1.1/DTD/svg11.dtd">
<!-- Created with matplotlib (http://matplotlib.org/) -->
<svg height="834pt" version="1.1" viewBox="0 0 1603 834" width="1603pt" xmlns="http://www.w3.org/2000/svg" xmlns:xlink="http://www.w3.org/1999/xlink">
 <defs>
  <style type="text/css">
*{stroke-linecap:butt;stroke-linejoin:round;}
  </style>
 </defs>
 <g id="figure_1">
  <g id="patch_1">
   <path d="
M0 834.3
L1603.8 834.3
L1603.8 0
L0 0
z
" style="fill:#ffffff;"/>
  </g>
  <g id="axes_1">
   <g id="patch_2">
    <path d="
M200.475 750.87
L1359.69 750.87
L1359.69 83.43
L200.475 83.43
z
" style="fill:#eaeaf2;"/>
   </g>
   <g id="matplotlib.axis_1">
    <g id="xtick_1">
     <g id="line2d_1">
      <defs>
       <path d="
M0 0
L0 0" id="m8735711441" style="stroke:#262626;stroke-width:0.5;"/>
      </defs>
      <g>
       <use style="fill:#262626;stroke:#262626;stroke-width:0.5;" x="200.475" xlink:href="#m8735711441" y="750.87"/>
      </g>
     </g>
     <g id="line2d_2">
      <g>
       <use style="fill:#262626;stroke:#262626;stroke-width:0.5;" x="200.475" xlink:href="#m8735711441" y="83.43"/>
      </g>
     </g>
     <g id="text_1">
      <!-- 0 -->
      <defs>
       <path d="
M31.7812 66.4062
Q24.1719 66.4062 20.3281 58.9062
Q16.5 51.4219 16.5 36.375
Q16.5 21.3906 20.3281 13.8906
Q24.1719 6.39062 31.7812 6.39062
Q39.4531 6.39062 43.2812 13.8906
Q47.125 21.3906 47.125 36.375
Q47.125 51.4219 43.2812 58.9062
Q39.4531 66.4062 31.7812 66.4062
M31.7812 74.2188
Q44.0469 74.2188 50.5156 64.5156
Q56.9844 54.8281 56.9844 36.375
Q56.9844 17.9688 50.5156 8.26562
Q44.0469 -1.42188 31.7812 -1.42188
Q19.5312 -1.42188 13.0625 8.26562
Q6.59375 17.9688 6.59375 36.375
Q6.59375 54.8281 13.0625 64.5156
Q19.5312 74.2188 31.7812 74.2188" id="BitstreamVeraSans-Roman-30"/>
      </defs>
      <g style="fill:#262626;" transform="translate(197.4515625 763.988125)scale(0.12 -0.12)">
       <use xlink:href="#BitstreamVeraSans-Roman-30"/>
      </g>
     </g>
    </g>
    <g id="xtick_2">
     <g id="line2d_3">
      <g>
       <use style="fill:#262626;stroke:#262626;stroke-width:0.5;" x="364.206244703" xlink:href="#m8735711441" y="750.87"/>
      </g>
     </g>
     <g id="line2d_4">
      <g>
       <use style="fill:#262626;stroke:#262626;stroke-width:0.5;" x="364.206244703" xlink:href="#m8735711441" y="83.43"/>
      </g>
     </g>
     <g id="text_2">
      <!-- 10 -->
      <defs>
       <path d="
M12.4062 8.29688
L28.5156 8.29688
L28.5156 63.9219
L10.9844 60.4062
L10.9844 69.3906
L28.4219 72.9062
L38.2812 72.9062
L38.2812 8.29688
L54.3906 8.29688
L54.3906 0
L12.4062 0
z
" id="BitstreamVeraSans-Roman-31"/>
      </defs>
      <g style="fill:#262626;" transform="translate(357.628744703 763.988125)scale(0.12 -0.12)">
       <use xlink:href="#BitstreamVeraSans-Roman-31"/>
       <use x="63.623046875" xlink:href="#BitstreamVeraSans-Roman-30"/>
      </g>
     </g>
    </g>
    <g id="xtick_3">
     <g id="line2d_5">
      <g>
       <use style="fill:#262626;stroke:#262626;stroke-width:0.5;" x="527.937489407" xlink:href="#m8735711441" y="750.87"/>
      </g>
     </g>
     <g id="line2d_6">
      <g>
       <use style="fill:#262626;stroke:#262626;stroke-width:0.5;" x="527.937489407" xlink:href="#m8735711441" y="83.43"/>
      </g>
     </g>
     <g id="text_3">
      <!-- 20 -->
      <defs>
       <path d="
M19.1875 8.29688
L53.6094 8.29688
L53.6094 0
L7.32812 0
L7.32812 8.29688
Q12.9375 14.1094 22.625 23.8906
Q32.3281 33.6875 34.8125 36.5312
Q39.5469 41.8438 41.4219 45.5312
Q43.3125 49.2188 43.3125 52.7812
Q43.3125 58.5938 39.2344 62.25
Q35.1562 65.9219 28.6094 65.9219
Q23.9688 65.9219 18.8125 64.3125
Q13.6719 62.7031 7.8125 59.4219
L7.8125 69.3906
Q13.7656 71.7812 18.9375 73
Q24.125 74.2188 28.4219 74.2188
Q39.75 74.2188 46.4844 68.5469
Q53.2188 62.8906 53.2188 53.4219
Q53.2188 48.9219 51.5312 44.8906
Q49.8594 40.875 45.4062 35.4062
Q44.1875 33.9844 37.6406 27.2188
Q31.1094 20.4531 19.1875 8.29688" id="BitstreamVeraSans-Roman-32"/>
      </defs>
      <g style="fill:#262626;" transform="translate(521.140614407 763.988125)scale(0.12 -0.12)">
       <use xlink:href="#BitstreamVeraSans-Roman-32"/>
       <use x="63.623046875" xlink:href="#BitstreamVeraSans-Roman-30"/>
      </g>
     </g>
    </g>
    <g id="xtick_4">
     <g id="line2d_7">
      <g>
       <use style="fill:#262626;stroke:#262626;stroke-width:0.5;" x="691.66873411" xlink:href="#m8735711441" y="750.87"/>
      </g>
     </g>
     <g id="line2d_8">
      <g>
       <use style="fill:#262626;stroke:#262626;stroke-width:0.5;" x="691.66873411" xlink:href="#m8735711441" y="83.43"/>
      </g>
     </g>
     <g id="text_4">
      <!-- 30 -->
      <defs>
       <path d="
M40.5781 39.3125
Q47.6562 37.7969 51.625 33
Q55.6094 28.2188 55.6094 21.1875
Q55.6094 10.4062 48.1875 4.48438
Q40.7656 -1.42188 27.0938 -1.42188
Q22.5156 -1.42188 17.6562 -0.515625
Q12.7969 0.390625 7.625 2.20312
L7.625 11.7188
Q11.7188 9.32812 16.5938 8.10938
Q21.4844 6.89062 26.8125 6.89062
Q36.0781 6.89062 40.9375 10.5469
Q45.7969 14.2031 45.7969 21.1875
Q45.7969 27.6406 41.2812 31.2656
Q36.7656 34.9062 28.7188 34.9062
L20.2188 34.9062
L20.2188 43.0156
L29.1094 43.0156
Q36.375 43.0156 40.2344 45.9219
Q44.0938 48.8281 44.0938 54.2969
Q44.0938 59.9062 40.1094 62.9062
Q36.1406 65.9219 28.7188 65.9219
Q24.6562 65.9219 20.0156 65.0312
Q15.375 64.1562 9.8125 62.3125
L9.8125 71.0938
Q15.4375 72.6562 20.3438 73.4375
Q25.25 74.2188 29.5938 74.2188
Q40.8281 74.2188 47.3594 69.1094
Q53.9062 64.0156 53.9062 55.3281
Q53.9062 49.2656 50.4375 45.0938
Q46.9688 40.9219 40.5781 39.3125" id="BitstreamVeraSans-Roman-33"/>
      </defs>
      <g style="fill:#262626;" transform="translate(684.88967161 763.988125)scale(0.12 -0.12)">
       <use xlink:href="#BitstreamVeraSans-Roman-33"/>
       <use x="63.623046875" xlink:href="#BitstreamVeraSans-Roman-30"/>
      </g>
     </g>
    </g>
    <g id="xtick_5">
     <g id="line2d_9">
      <g>
       <use style="fill:#262626;stroke:#262626;stroke-width:0.5;" x="855.399978814" xlink:href="#m8735711441" y="750.87"/>
      </g>
     </g>
     <g id="line2d_10">
      <g>
       <use style="fill:#262626;stroke:#262626;stroke-width:0.5;" x="855.399978814" xlink:href="#m8735711441" y="83.43"/>
      </g>
     </g>
     <g id="text_5">
      <!-- 40 -->
      <defs>
       <path d="
M37.7969 64.3125
L12.8906 25.3906
L37.7969 25.3906
z

M35.2031 72.9062
L47.6094 72.9062
L47.6094 25.3906
L58.0156 25.3906
L58.0156 17.1875
L47.6094 17.1875
L47.6094 0
L37.7969 0
L37.7969 17.1875
L4.89062 17.1875
L4.89062 26.7031
z
" id="BitstreamVeraSans-Roman-34"/>
      </defs>
      <g style="fill:#262626;" transform="translate(848.456853814 763.988125)scale(0.12 -0.12)">
       <use xlink:href="#BitstreamVeraSans-Roman-34"/>
       <use x="63.623046875" xlink:href="#BitstreamVeraSans-Roman-30"/>
      </g>
     </g>
    </g>
    <g id="xtick_6">
     <g id="line2d_11">
      <g>
       <use style="fill:#262626;stroke:#262626;stroke-width:0.5;" x="1019.13122352" xlink:href="#m8735711441" y="750.87"/>
      </g>
     </g>
     <g id="line2d_12">
      <g>
       <use style="fill:#262626;stroke:#262626;stroke-width:0.5;" x="1019.13122352" xlink:href="#m8735711441" y="83.43"/>
      </g>
     </g>
     <g id="text_6">
      <!-- 50 -->
      <defs>
       <path d="
M10.7969 72.9062
L49.5156 72.9062
L49.5156 64.5938
L19.8281 64.5938
L19.8281 46.7344
Q21.9688 47.4688 24.1094 47.8281
Q26.2656 48.1875 28.4219 48.1875
Q40.625 48.1875 47.75 41.5
Q54.8906 34.8125 54.8906 23.3906
Q54.8906 11.625 47.5625 5.09375
Q40.2344 -1.42188 26.9062 -1.42188
Q22.3125 -1.42188 17.5469 -0.640625
Q12.7969 0.140625 7.71875 1.70312
L7.71875 11.625
Q12.1094 9.23438 16.7969 8.0625
Q21.4844 6.89062 26.7031 6.89062
Q35.1562 6.89062 40.0781 11.3281
Q45.0156 15.7656 45.0156 23.3906
Q45.0156 31 40.0781 35.4375
Q35.1562 39.8906 26.7031 39.8906
Q22.75 39.8906 18.8125 39.0156
Q14.8906 38.1406 10.7969 36.2812
z
" id="BitstreamVeraSans-Roman-35"/>
      </defs>
      <g style="fill:#262626;" transform="translate(1012.35778602 763.988125)scale(0.12 -0.12)">
       <use xlink:href="#BitstreamVeraSans-Roman-35"/>
       <use x="63.623046875" xlink:href="#BitstreamVeraSans-Roman-30"/>
      </g>
     </g>
    </g>
    <g id="xtick_7">
     <g id="line2d_13">
      <g>
       <use style="fill:#262626;stroke:#262626;stroke-width:0.5;" x="1182.86246822" xlink:href="#m8735711441" y="750.87"/>
      </g>
     </g>
     <g id="line2d_14">
      <g>
       <use style="fill:#262626;stroke:#262626;stroke-width:0.5;" x="1182.86246822" xlink:href="#m8735711441" y="83.43"/>
      </g>
     </g>
     <g id="text_7">
      <!-- 60 -->
      <defs>
       <path d="
M33.0156 40.375
Q26.375 40.375 22.4844 35.8281
Q18.6094 31.2969 18.6094 23.3906
Q18.6094 15.5312 22.4844 10.9531
Q26.375 6.39062 33.0156 6.39062
Q39.6562 6.39062 43.5312 10.9531
Q47.4062 15.5312 47.4062 23.3906
Q47.4062 31.2969 43.5312 35.8281
Q39.6562 40.375 33.0156 40.375
M52.5938 71.2969
L52.5938 62.3125
Q48.875 64.0625 45.0938 64.9844
Q41.3125 65.9219 37.5938 65.9219
Q27.8281 65.9219 22.6719 59.3281
Q17.5312 52.7344 16.7969 39.4062
Q19.6719 43.6562 24.0156 45.9219
Q28.375 48.1875 33.5938 48.1875
Q44.5781 48.1875 50.9531 41.5156
Q57.3281 34.8594 57.3281 23.3906
Q57.3281 12.1562 50.6875 5.35938
Q44.0469 -1.42188 33.0156 -1.42188
Q20.3594 -1.42188 13.6719 8.26562
Q6.98438 17.9688 6.98438 36.375
Q6.98438 53.6562 15.1875 63.9375
Q23.3906 74.2188 37.2031 74.2188
Q40.9219 74.2188 44.7031 73.4844
Q48.4844 72.75 52.5938 71.2969" id="BitstreamVeraSans-Roman-36"/>
      </defs>
      <g style="fill:#262626;" transform="translate(1176.04496822 763.988125)scale(0.12 -0.12)">
       <use xlink:href="#BitstreamVeraSans-Roman-36"/>
       <use x="63.623046875" xlink:href="#BitstreamVeraSans-Roman-30"/>
      </g>
     </g>
    </g>
    <g id="xtick_8">
     <g id="line2d_15">
      <g>
       <use style="fill:#262626;stroke:#262626;stroke-width:0.5;" x="1346.59371292" xlink:href="#m8735711441" y="750.87"/>
      </g>
     </g>
     <g id="line2d_16">
      <g>
       <use style="fill:#262626;stroke:#262626;stroke-width:0.5;" x="1346.59371292" xlink:href="#m8735711441" y="83.43"/>
      </g>
     </g>
     <g id="text_8">
      <!-- 70 -->
      <defs>
       <path d="
M8.20312 72.9062
L55.0781 72.9062
L55.0781 68.7031
L28.6094 0
L18.3125 0
L43.2188 64.5938
L8.20312 64.5938
z
" id="BitstreamVeraSans-Roman-37"/>
      </defs>
      <g style="fill:#262626;" transform="translate(1339.84933792 763.988125)scale(0.12 -0.12)">
       <use xlink:href="#BitstreamVeraSans-Roman-37"/>
       <use x="63.623046875" xlink:href="#BitstreamVeraSans-Roman-30"/>
      </g>
     </g>
    </g>
    <g id="xtick_9">
     <g id="line2d_17">
      <g>
       <use style="fill:#262626;stroke:#262626;stroke-width:0.5;" x="233.221248941" xlink:href="#m8735711441" y="750.87"/>
      </g>
     </g>
     <g id="line2d_18">
      <g>
       <use style="fill:#262626;stroke:#262626;stroke-width:0.5;" x="233.221248941" xlink:href="#m8735711441" y="83.43"/>
      </g>
     </g>
    </g>
    <g id="xtick_10">
     <g id="line2d_19">
      <g>
       <use style="fill:#262626;stroke:#262626;stroke-width:0.5;" x="265.967497881" xlink:href="#m8735711441" y="750.87"/>
      </g>
     </g>
     <g id="line2d_20">
      <g>
       <use style="fill:#262626;stroke:#262626;stroke-width:0.5;" x="265.967497881" xlink:href="#m8735711441" y="83.43"/>
      </g>
     </g>
    </g>
    <g id="xtick_11">
     <g id="line2d_21">
      <g>
       <use style="fill:#262626;stroke:#262626;stroke-width:0.5;" x="298.713746822" xlink:href="#m8735711441" y="750.87"/>
      </g>
     </g>
     <g id="line2d_22">
      <g>
       <use style="fill:#262626;stroke:#262626;stroke-width:0.5;" x="298.713746822" xlink:href="#m8735711441" y="83.43"/>
      </g>
     </g>
    </g>
    <g id="xtick_12">
     <g id="line2d_23">
      <g>
       <use style="fill:#262626;stroke:#262626;stroke-width:0.5;" x="331.459995763" xlink:href="#m8735711441" y="750.87"/>
      </g>
     </g>
     <g id="line2d_24">
      <g>
       <use style="fill:#262626;stroke:#262626;stroke-width:0.5;" x="331.459995763" xlink:href="#m8735711441" y="83.43"/>
      </g>
     </g>
    </g>
    <g id="xtick_13">
     <g id="line2d_25">
      <g>
       <use style="fill:#262626;stroke:#262626;stroke-width:0.5;" x="396.952493644" xlink:href="#m8735711441" y="750.87"/>
      </g>
     </g>
     <g id="line2d_26">
      <g>
       <use style="fill:#262626;stroke:#262626;stroke-width:0.5;" x="396.952493644" xlink:href="#m8735711441" y="83.43"/>
      </g>
     </g>
    </g>
    <g id="xtick_14">
     <g id="line2d_27">
      <g>
       <use style="fill:#262626;stroke:#262626;stroke-width:0.5;" x="429.698742585" xlink:href="#m8735711441" y="750.87"/>
      </g>
     </g>
     <g id="line2d_28">
      <g>
       <use style="fill:#262626;stroke:#262626;stroke-width:0.5;" x="429.698742585" xlink:href="#m8735711441" y="83.43"/>
      </g>
     </g>
    </g>
    <g id="xtick_15">
     <g id="line2d_29">
      <g>
       <use style="fill:#262626;stroke:#262626;stroke-width:0.5;" x="462.444991525" xlink:href="#m8735711441" y="750.87"/>
      </g>
     </g>
     <g id="line2d_30">
      <g>
       <use style="fill:#262626;stroke:#262626;stroke-width:0.5;" x="462.444991525" xlink:href="#m8735711441" y="83.43"/>
      </g>
     </g>
    </g>
    <g id="xtick_16">
     <g id="line2d_31">
      <g>
       <use style="fill:#262626;stroke:#262626;stroke-width:0.5;" x="495.191240466" xlink:href="#m8735711441" y="750.87"/>
      </g>
     </g>
     <g id="line2d_32">
      <g>
       <use style="fill:#262626;stroke:#262626;stroke-width:0.5;" x="495.191240466" xlink:href="#m8735711441" y="83.43"/>
      </g>
     </g>
    </g>
    <g id="xtick_17">
     <g id="line2d_33">
      <g>
       <use style="fill:#262626;stroke:#262626;stroke-width:0.5;" x="560.683738347" xlink:href="#m8735711441" y="750.87"/>
      </g>
     </g>
     <g id="line2d_34">
      <g>
       <use style="fill:#262626;stroke:#262626;stroke-width:0.5;" x="560.683738347" xlink:href="#m8735711441" y="83.43"/>
      </g>
     </g>
    </g>
    <g id="xtick_18">
     <g id="line2d_35">
      <g>
       <use style="fill:#262626;stroke:#262626;stroke-width:0.5;" x="593.429987288" xlink:href="#m8735711441" y="750.87"/>
      </g>
     </g>
     <g id="line2d_36">
      <g>
       <use style="fill:#262626;stroke:#262626;stroke-width:0.5;" x="593.429987288" xlink:href="#m8735711441" y="83.43"/>
      </g>
     </g>
    </g>
    <g id="xtick_19">
     <g id="line2d_37">
      <g>
       <use style="fill:#262626;stroke:#262626;stroke-width:0.5;" x="626.176236229" xlink:href="#m8735711441" y="750.87"/>
      </g>
     </g>
     <g id="line2d_38">
      <g>
       <use style="fill:#262626;stroke:#262626;stroke-width:0.5;" x="626.176236229" xlink:href="#m8735711441" y="83.43"/>
      </g>
     </g>
    </g>
    <g id="xtick_20">
     <g id="line2d_39">
      <g>
       <use style="fill:#262626;stroke:#262626;stroke-width:0.5;" x="658.922485169" xlink:href="#m8735711441" y="750.87"/>
      </g>
     </g>
     <g id="line2d_40">
      <g>
       <use style="fill:#262626;stroke:#262626;stroke-width:0.5;" x="658.922485169" xlink:href="#m8735711441" y="83.43"/>
      </g>
     </g>
    </g>
    <g id="xtick_21">
     <g id="line2d_41">
      <g>
       <use style="fill:#262626;stroke:#262626;stroke-width:0.5;" x="724.414983051" xlink:href="#m8735711441" y="750.87"/>
      </g>
     </g>
     <g id="line2d_42">
      <g>
       <use style="fill:#262626;stroke:#262626;stroke-width:0.5;" x="724.414983051" xlink:href="#m8735711441" y="83.43"/>
      </g>
     </g>
    </g>
    <g id="xtick_22">
     <g id="line2d_43">
      <g>
       <use style="fill:#262626;stroke:#262626;stroke-width:0.5;" x="757.161231992" xlink:href="#m8735711441" y="750.87"/>
      </g>
     </g>
     <g id="line2d_44">
      <g>
       <use style="fill:#262626;stroke:#262626;stroke-width:0.5;" x="757.161231992" xlink:href="#m8735711441" y="83.43"/>
      </g>
     </g>
    </g>
    <g id="xtick_23">
     <g id="line2d_45">
      <g>
       <use style="fill:#262626;stroke:#262626;stroke-width:0.5;" x="789.907480932" xlink:href="#m8735711441" y="750.87"/>
      </g>
     </g>
     <g id="line2d_46">
      <g>
       <use style="fill:#262626;stroke:#262626;stroke-width:0.5;" x="789.907480932" xlink:href="#m8735711441" y="83.43"/>
      </g>
     </g>
    </g>
    <g id="xtick_24">
     <g id="line2d_47">
      <g>
       <use style="fill:#262626;stroke:#262626;stroke-width:0.5;" x="822.653729873" xlink:href="#m8735711441" y="750.87"/>
      </g>
     </g>
     <g id="line2d_48">
      <g>
       <use style="fill:#262626;stroke:#262626;stroke-width:0.5;" x="822.653729873" xlink:href="#m8735711441" y="83.43"/>
      </g>
     </g>
    </g>
    <g id="xtick_25">
     <g id="line2d_49">
      <g>
       <use style="fill:#262626;stroke:#262626;stroke-width:0.5;" x="888.146227754" xlink:href="#m8735711441" y="750.87"/>
      </g>
     </g>
     <g id="line2d_50">
      <g>
       <use style="fill:#262626;stroke:#262626;stroke-width:0.5;" x="888.146227754" xlink:href="#m8735711441" y="83.43"/>
      </g>
     </g>
    </g>
    <g id="xtick_26">
     <g id="line2d_51">
      <g>
       <use style="fill:#262626;stroke:#262626;stroke-width:0.5;" x="920.892476695" xlink:href="#m8735711441" y="750.87"/>
      </g>
     </g>
     <g id="line2d_52">
      <g>
       <use style="fill:#262626;stroke:#262626;stroke-width:0.5;" x="920.892476695" xlink:href="#m8735711441" y="83.43"/>
      </g>
     </g>
    </g>
    <g id="xtick_27">
     <g id="line2d_53">
      <g>
       <use style="fill:#262626;stroke:#262626;stroke-width:0.5;" x="953.638725636" xlink:href="#m8735711441" y="750.87"/>
      </g>
     </g>
     <g id="line2d_54">
      <g>
       <use style="fill:#262626;stroke:#262626;stroke-width:0.5;" x="953.638725636" xlink:href="#m8735711441" y="83.43"/>
      </g>
     </g>
    </g>
    <g id="xtick_28">
     <g id="line2d_55">
      <g>
       <use style="fill:#262626;stroke:#262626;stroke-width:0.5;" x="986.384974576" xlink:href="#m8735711441" y="750.87"/>
      </g>
     </g>
     <g id="line2d_56">
      <g>
       <use style="fill:#262626;stroke:#262626;stroke-width:0.5;" x="986.384974576" xlink:href="#m8735711441" y="83.43"/>
      </g>
     </g>
    </g>
    <g id="xtick_29">
     <g id="line2d_57">
      <g>
       <use style="fill:#262626;stroke:#262626;stroke-width:0.5;" x="1051.87747246" xlink:href="#m8735711441" y="750.87"/>
      </g>
     </g>
     <g id="line2d_58">
      <g>
       <use style="fill:#262626;stroke:#262626;stroke-width:0.5;" x="1051.87747246" xlink:href="#m8735711441" y="83.43"/>
      </g>
     </g>
    </g>
    <g id="xtick_30">
     <g id="line2d_59">
      <g>
       <use style="fill:#262626;stroke:#262626;stroke-width:0.5;" x="1084.6237214" xlink:href="#m8735711441" y="750.87"/>
      </g>
     </g>
     <g id="line2d_60">
      <g>
       <use style="fill:#262626;stroke:#262626;stroke-width:0.5;" x="1084.6237214" xlink:href="#m8735711441" y="83.43"/>
      </g>
     </g>
    </g>
    <g id="xtick_31">
     <g id="line2d_61">
      <g>
       <use style="fill:#262626;stroke:#262626;stroke-width:0.5;" x="1117.36997034" xlink:href="#m8735711441" y="750.87"/>
      </g>
     </g>
     <g id="line2d_62">
      <g>
       <use style="fill:#262626;stroke:#262626;stroke-width:0.5;" x="1117.36997034" xlink:href="#m8735711441" y="83.43"/>
      </g>
     </g>
    </g>
    <g id="xtick_32">
     <g id="line2d_63">
      <g>
       <use style="fill:#262626;stroke:#262626;stroke-width:0.5;" x="1150.11621928" xlink:href="#m8735711441" y="750.87"/>
      </g>
     </g>
     <g id="line2d_64">
      <g>
       <use style="fill:#262626;stroke:#262626;stroke-width:0.5;" x="1150.11621928" xlink:href="#m8735711441" y="83.43"/>
      </g>
     </g>
    </g>
    <g id="xtick_33">
     <g id="line2d_65">
      <g>
       <use style="fill:#262626;stroke:#262626;stroke-width:0.5;" x="1215.60871716" xlink:href="#m8735711441" y="750.87"/>
      </g>
     </g>
     <g id="line2d_66">
      <g>
       <use style="fill:#262626;stroke:#262626;stroke-width:0.5;" x="1215.60871716" xlink:href="#m8735711441" y="83.43"/>
      </g>
     </g>
    </g>
    <g id="xtick_34">
     <g id="line2d_67">
      <g>
       <use style="fill:#262626;stroke:#262626;stroke-width:0.5;" x="1248.3549661" xlink:href="#m8735711441" y="750.87"/>
      </g>
     </g>
     <g id="line2d_68">
      <g>
       <use style="fill:#262626;stroke:#262626;stroke-width:0.5;" x="1248.3549661" xlink:href="#m8735711441" y="83.43"/>
      </g>
     </g>
    </g>
    <g id="xtick_35">
     <g id="line2d_69">
      <g>
       <use style="fill:#262626;stroke:#262626;stroke-width:0.5;" x="1281.10121504" xlink:href="#m8735711441" y="750.87"/>
      </g>
     </g>
     <g id="line2d_70">
      <g>
       <use style="fill:#262626;stroke:#262626;stroke-width:0.5;" x="1281.10121504" xlink:href="#m8735711441" y="83.43"/>
      </g>
     </g>
    </g>
    <g id="xtick_36">
     <g id="line2d_71">
      <g>
       <use style="fill:#262626;stroke:#262626;stroke-width:0.5;" x="1313.84746398" xlink:href="#m8735711441" y="750.87"/>
      </g>
     </g>
     <g id="line2d_72">
      <g>
       <use style="fill:#262626;stroke:#262626;stroke-width:0.5;" x="1313.84746398" xlink:href="#m8735711441" y="83.43"/>
      </g>
     </g>
    </g>
    <g id="text_9">
     <!-- Time (s) -->
     <defs>
      <path id="BitstreamVeraSans-Roman-20"/>
      <path d="
M8.01562 75.875
L15.8281 75.875
Q23.1406 64.3594 26.7812 53.3125
Q30.4219 42.2812 30.4219 31.3906
Q30.4219 20.4531 26.7812 9.375
Q23.1406 -1.70312 15.8281 -13.1875
L8.01562 -13.1875
Q14.5 -2 17.7031 9.0625
Q20.9062 20.125 20.9062 31.3906
Q20.9062 42.6719 17.7031 53.6562
Q14.5 64.6562 8.01562 75.875" id="BitstreamVeraSans-Roman-29"/>
      <path d="
M31 75.875
Q24.4688 64.6562 21.2812 53.6562
Q18.1094 42.6719 18.1094 31.3906
Q18.1094 20.125 21.3125 9.0625
Q24.5156 -2 31 -13.1875
L23.1875 -13.1875
Q15.875 -1.70312 12.2344 9.375
Q8.59375 20.4531 8.59375 31.3906
Q8.59375 42.2812 12.2031 53.3125
Q15.8281 64.3594 23.1875 75.875
z
" id="BitstreamVeraSans-Roman-28"/>
      <path d="
M9.42188 54.6875
L18.4062 54.6875
L18.4062 0
L9.42188 0
z

M9.42188 75.9844
L18.4062 75.9844
L18.4062 64.5938
L9.42188 64.5938
z
" id="BitstreamVeraSans-Roman-69"/>
      <path d="
M52 44.1875
Q55.375 50.25 60.0625 53.125
Q64.75 56 71.0938 56
Q79.6406 56 84.2812 50.0156
Q88.9219 44.0469 88.9219 33.0156
L88.9219 0
L79.8906 0
L79.8906 32.7188
Q79.8906 40.5781 77.0938 44.375
Q74.3125 48.1875 68.6094 48.1875
Q61.625 48.1875 57.5625 43.5469
Q53.5156 38.9219 53.5156 30.9062
L53.5156 0
L44.4844 0
L44.4844 32.7188
Q44.4844 40.625 41.7031 44.4062
Q38.9219 48.1875 33.1094 48.1875
Q26.2188 48.1875 22.1562 43.5312
Q18.1094 38.875 18.1094 30.9062
L18.1094 0
L9.07812 0
L9.07812 54.6875
L18.1094 54.6875
L18.1094 46.1875
Q21.1875 51.2188 25.4844 53.6094
Q29.7812 56 35.6875 56
Q41.6562 56 45.8281 52.9688
Q50 49.9531 52 44.1875" id="BitstreamVeraSans-Roman-6d"/>
      <path d="
M56.2031 29.5938
L56.2031 25.2031
L14.8906 25.2031
Q15.4844 15.9219 20.4844 11.0625
Q25.4844 6.20312 34.4219 6.20312
Q39.5938 6.20312 44.4531 7.46875
Q49.3125 8.73438 54.1094 11.2812
L54.1094 2.78125
Q49.2656 0.734375 44.1875 -0.34375
Q39.1094 -1.42188 33.8906 -1.42188
Q20.7969 -1.42188 13.1562 6.1875
Q5.51562 13.8125 5.51562 26.8125
Q5.51562 40.2344 12.7656 48.1094
Q20.0156 56 32.3281 56
Q43.3594 56 49.7812 48.8906
Q56.2031 41.7969 56.2031 29.5938
M47.2188 32.2344
Q47.125 39.5938 43.0938 43.9844
Q39.0625 48.3906 32.4219 48.3906
Q24.9062 48.3906 20.3906 44.1406
Q15.875 39.8906 15.1875 32.1719
z
" id="BitstreamVeraSans-Roman-65"/>
      <path d="
M-0.296875 72.9062
L61.375 72.9062
L61.375 64.5938
L35.5 64.5938
L35.5 0
L25.5938 0
L25.5938 64.5938
L-0.296875 64.5938
z
" id="BitstreamVeraSans-Roman-54"/>
      <path d="
M44.2812 53.0781
L44.2812 44.5781
Q40.4844 46.5312 36.375 47.5
Q32.2812 48.4844 27.875 48.4844
Q21.1875 48.4844 17.8438 46.4375
Q14.5 44.3906 14.5 40.2812
Q14.5 37.1562 16.8906 35.375
Q19.2812 33.5938 26.5156 31.9844
L29.5938 31.2969
Q39.1562 29.25 43.1875 25.5156
Q47.2188 21.7812 47.2188 15.0938
Q47.2188 7.46875 41.1875 3.01562
Q35.1562 -1.42188 24.6094 -1.42188
Q20.2188 -1.42188 15.4531 -0.5625
Q10.6875 0.296875 5.42188 2
L5.42188 11.2812
Q10.4062 8.6875 15.2344 7.39062
Q20.0625 6.10938 24.8125 6.10938
Q31.1562 6.10938 34.5625 8.28125
Q37.9844 10.4531 37.9844 14.4062
Q37.9844 18.0625 35.5156 20.0156
Q33.0625 21.9688 24.7031 23.7812
L21.5781 24.5156
Q13.2344 26.2656 9.51562 29.9062
Q5.8125 33.5469 5.8125 39.8906
Q5.8125 47.6094 11.2812 51.7969
Q16.75 56 26.8125 56
Q31.7812 56 36.1719 55.2656
Q40.5781 54.5469 44.2812 53.0781" id="BitstreamVeraSans-Roman-73"/>
     </defs>
     <g style="fill:#262626;" transform="translate(756.18673125 780.601875)scale(0.12 -0.12)">
      <use xlink:href="#BitstreamVeraSans-Roman-54"/>
      <use x="57.958984375" xlink:href="#BitstreamVeraSans-Roman-69"/>
      <use x="85.7421875" xlink:href="#BitstreamVeraSans-Roman-6d"/>
      <use x="183.154296875" xlink:href="#BitstreamVeraSans-Roman-65"/>
      <use x="244.677734375" xlink:href="#BitstreamVeraSans-Roman-20"/>
      <use x="276.46484375" xlink:href="#BitstreamVeraSans-Roman-28"/>
      <use x="315.478515625" xlink:href="#BitstreamVeraSans-Roman-73"/>
      <use x="367.578125" xlink:href="#BitstreamVeraSans-Roman-29"/>
     </g>
    </g>
   </g>
   <g id="matplotlib.axis_2">
    <g id="ytick_1">
     <g id="line2d_73">
      <g>
       <use style="fill:#262626;stroke:#262626;stroke-width:0.5;" x="200.475" xlink:href="#m8735711441" y="643.650872369"/>
      </g>
     </g>
     <g id="text_10">
      <!-- 10 -->
      <g style="fill:#262626;" transform="translate(183.32 646.962122369)scale(0.12 -0.12)">
       <use xlink:href="#BitstreamVeraSans-Roman-31"/>
       <use x="63.623046875" xlink:href="#BitstreamVeraSans-Roman-30"/>
      </g>
     </g>
    </g>
    <g id="ytick_2">
     <g id="line2d_74">
      <g>
       <use style="fill:#262626;stroke:#262626;stroke-width:0.5;" x="200.475" xlink:href="#m8735711441" y="527.775754903"/>
      </g>
     </g>
     <g id="text_11">
      <!-- 20 -->
      <g style="fill:#262626;" transform="translate(182.88125 531.087004903)scale(0.12 -0.12)">
       <use xlink:href="#BitstreamVeraSans-Roman-32"/>
       <use x="63.623046875" xlink:href="#BitstreamVeraSans-Roman-30"/>
      </g>
     </g>
    </g>
    <g id="ytick_3">
     <g id="line2d_75">
      <g>
       <use style="fill:#262626;stroke:#262626;stroke-width:0.5;" x="200.475" xlink:href="#m8735711441" y="411.900637438"/>
      </g>
     </g>
     <g id="text_12">
      <!-- 30 -->
      <g style="fill:#262626;" transform="translate(182.916875 415.211887438)scale(0.12 -0.12)">
       <use xlink:href="#BitstreamVeraSans-Roman-33"/>
       <use x="63.623046875" xlink:href="#BitstreamVeraSans-Roman-30"/>
      </g>
     </g>
    </g>
    <g id="ytick_4">
     <g id="line2d_76">
      <g>
       <use style="fill:#262626;stroke:#262626;stroke-width:0.5;" x="200.475" xlink:href="#m8735711441" y="296.025519973"/>
      </g>
     </g>
     <g id="text_13">
      <!-- 40 -->
      <g style="fill:#262626;" transform="translate(182.58875 299.336769973)scale(0.12 -0.12)">
       <use xlink:href="#BitstreamVeraSans-Roman-34"/>
       <use x="63.623046875" xlink:href="#BitstreamVeraSans-Roman-30"/>
      </g>
     </g>
    </g>
    <g id="ytick_5">
     <g id="line2d_77">
      <g>
       <use style="fill:#262626;stroke:#262626;stroke-width:0.5;" x="200.475" xlink:href="#m8735711441" y="180.150402507"/>
      </g>
     </g>
     <g id="text_14">
      <!-- 50 -->
      <g style="fill:#262626;" transform="translate(182.928125 183.461652507)scale(0.12 -0.12)">
       <use xlink:href="#BitstreamVeraSans-Roman-35"/>
       <use x="63.623046875" xlink:href="#BitstreamVeraSans-Roman-30"/>
      </g>
     </g>
    </g>
    <g id="ytick_6">
     <g id="line2d_78">
      <g>
       <use style="fill:#262626;stroke:#262626;stroke-width:0.5;" x="200.475" xlink:href="#m8735711441" y="736.350966341"/>
      </g>
     </g>
    </g>
    <g id="ytick_7">
     <g id="line2d_79">
      <g>
       <use style="fill:#262626;stroke:#262626;stroke-width:0.5;" x="200.475" xlink:href="#m8735711441" y="713.175942848"/>
      </g>
     </g>
    </g>
    <g id="ytick_8">
     <g id="line2d_80">
      <g>
       <use style="fill:#262626;stroke:#262626;stroke-width:0.5;" x="200.475" xlink:href="#m8735711441" y="690.000919355"/>
      </g>
     </g>
    </g>
    <g id="ytick_9">
     <g id="line2d_81">
      <g>
       <use style="fill:#262626;stroke:#262626;stroke-width:0.5;" x="200.475" xlink:href="#m8735711441" y="666.825895862"/>
      </g>
     </g>
    </g>
    <g id="ytick_10">
     <g id="line2d_82">
      <g>
       <use style="fill:#262626;stroke:#262626;stroke-width:0.5;" x="200.475" xlink:href="#m8735711441" y="620.475848876"/>
      </g>
     </g>
    </g>
    <g id="ytick_11">
     <g id="line2d_83">
      <g>
       <use style="fill:#262626;stroke:#262626;stroke-width:0.5;" x="200.475" xlink:href="#m8735711441" y="597.300825382"/>
      </g>
     </g>
    </g>
    <g id="ytick_12">
     <g id="line2d_84">
      <g>
       <use style="fill:#262626;stroke:#262626;stroke-width:0.5;" x="200.475" xlink:href="#m8735711441" y="574.125801889"/>
      </g>
     </g>
    </g>
    <g id="ytick_13">
     <g id="line2d_85">
      <g>
       <use style="fill:#262626;stroke:#262626;stroke-width:0.5;" x="200.475" xlink:href="#m8735711441" y="550.950778396"/>
      </g>
     </g>
    </g>
    <g id="ytick_14">
     <g id="line2d_86">
      <g>
       <use style="fill:#262626;stroke:#262626;stroke-width:0.5;" x="200.475" xlink:href="#m8735711441" y="504.60073141"/>
      </g>
     </g>
    </g>
    <g id="ytick_15">
     <g id="line2d_87">
      <g>
       <use style="fill:#262626;stroke:#262626;stroke-width:0.5;" x="200.475" xlink:href="#m8735711441" y="481.425707917"/>
      </g>
     </g>
    </g>
    <g id="ytick_16">
     <g id="line2d_88">
      <g>
       <use style="fill:#262626;stroke:#262626;stroke-width:0.5;" x="200.475" xlink:href="#m8735711441" y="458.250684424"/>
      </g>
     </g>
    </g>
    <g id="ytick_17">
     <g id="line2d_89">
      <g>
       <use style="fill:#262626;stroke:#262626;stroke-width:0.5;" x="200.475" xlink:href="#m8735711441" y="435.075660931"/>
      </g>
     </g>
    </g>
    <g id="ytick_18">
     <g id="line2d_90">
      <g>
       <use style="fill:#262626;stroke:#262626;stroke-width:0.5;" x="200.475" xlink:href="#m8735711441" y="388.725613945"/>
      </g>
     </g>
    </g>
    <g id="ytick_19">
     <g id="line2d_91">
      <g>
       <use style="fill:#262626;stroke:#262626;stroke-width:0.5;" x="200.475" xlink:href="#m8735711441" y="365.550590452"/>
      </g>
     </g>
    </g>
    <g id="ytick_20">
     <g id="line2d_92">
      <g>
       <use style="fill:#262626;stroke:#262626;stroke-width:0.5;" x="200.475" xlink:href="#m8735711441" y="342.375566959"/>
      </g>
     </g>
    </g>
    <g id="ytick_21">
     <g id="line2d_93">
      <g>
       <use style="fill:#262626;stroke:#262626;stroke-width:0.5;" x="200.475" xlink:href="#m8735711441" y="319.200543466"/>
      </g>
     </g>
    </g>
    <g id="ytick_22">
     <g id="line2d_94">
      <g>
       <use style="fill:#262626;stroke:#262626;stroke-width:0.5;" x="200.475" xlink:href="#m8735711441" y="272.85049648"/>
      </g>
     </g>
    </g>
    <g id="ytick_23">
     <g id="line2d_95">
      <g>
       <use style="fill:#262626;stroke:#262626;stroke-width:0.5;" x="200.475" xlink:href="#m8735711441" y="249.675472986"/>
      </g>
     </g>
    </g>
    <g id="ytick_24">
     <g id="line2d_96">
      <g>
       <use style="fill:#262626;stroke:#262626;stroke-width:0.5;" x="200.475" xlink:href="#m8735711441" y="226.500449493"/>
      </g>
     </g>
    </g>
    <g id="ytick_25">
     <g id="line2d_97">
      <g>
       <use style="fill:#262626;stroke:#262626;stroke-width:0.5;" x="200.475" xlink:href="#m8735711441" y="203.325426"/>
      </g>
     </g>
    </g>
    <g id="ytick_26">
     <g id="line2d_98">
      <g>
       <use style="fill:#262626;stroke:#262626;stroke-width:0.5;" x="200.475" xlink:href="#m8735711441" y="156.975379014"/>
      </g>
     </g>
    </g>
    <g id="ytick_27">
     <g id="line2d_99">
      <g>
       <use style="fill:#262626;stroke:#262626;stroke-width:0.5;" x="200.475" xlink:href="#m8735711441" y="133.800355521"/>
      </g>
     </g>
    </g>
    <g id="ytick_28">
     <g id="line2d_100">
      <g>
       <use style="fill:#262626;stroke:#262626;stroke-width:0.5;" x="200.475" xlink:href="#m8735711441" y="110.625332028"/>
      </g>
     </g>
    </g>
    <g id="text_15">
     <!-- Mbits/s -->
     <defs>
      <path d="
M18.3125 70.2188
L18.3125 54.6875
L36.8125 54.6875
L36.8125 47.7031
L18.3125 47.7031
L18.3125 18.0156
Q18.3125 11.3281 20.1406 9.42188
Q21.9688 7.51562 27.5938 7.51562
L36.8125 7.51562
L36.8125 0
L27.5938 0
Q17.1875 0 13.2344 3.875
Q9.28125 7.76562 9.28125 18.0156
L9.28125 47.7031
L2.6875 47.7031
L2.6875 54.6875
L9.28125 54.6875
L9.28125 70.2188
z
" id="BitstreamVeraSans-Roman-74"/>
      <path d="
M9.8125 72.9062
L24.5156 72.9062
L43.1094 23.2969
L61.8125 72.9062
L76.5156 72.9062
L76.5156 0
L66.8906 0
L66.8906 64.0156
L48.0938 14.0156
L38.1875 14.0156
L19.3906 64.0156
L19.3906 0
L9.8125 0
z
" id="BitstreamVeraSans-Roman-4d"/>
      <path d="
M25.3906 72.9062
L33.6875 72.9062
L8.29688 -9.28125
L0 -9.28125
z
" id="BitstreamVeraSans-Roman-2f"/>
      <path d="
M48.6875 27.2969
Q48.6875 37.2031 44.6094 42.8438
Q40.5312 48.4844 33.4062 48.4844
Q26.2656 48.4844 22.1875 42.8438
Q18.1094 37.2031 18.1094 27.2969
Q18.1094 17.3906 22.1875 11.75
Q26.2656 6.10938 33.4062 6.10938
Q40.5312 6.10938 44.6094 11.75
Q48.6875 17.3906 48.6875 27.2969
M18.1094 46.3906
Q20.9531 51.2656 25.2656 53.625
Q29.5938 56 35.5938 56
Q45.5625 56 51.7812 48.0938
Q58.0156 40.1875 58.0156 27.2969
Q58.0156 14.4062 51.7812 6.48438
Q45.5625 -1.42188 35.5938 -1.42188
Q29.5938 -1.42188 25.2656 0.953125
Q20.9531 3.32812 18.1094 8.20312
L18.1094 0
L9.07812 0
L9.07812 75.9844
L18.1094 75.9844
z
" id="BitstreamVeraSans-Roman-62"/>
     </defs>
     <g style="fill:#262626;" transform="translate(175.093125 437.54625)rotate(-90.0)scale(0.12 -0.12)">
      <use xlink:href="#BitstreamVeraSans-Roman-4d"/>
      <use x="86.279296875" xlink:href="#BitstreamVeraSans-Roman-62"/>
      <use x="149.755859375" xlink:href="#BitstreamVeraSans-Roman-69"/>
      <use x="177.5390625" xlink:href="#BitstreamVeraSans-Roman-74"/>
      <use x="216.748046875" xlink:href="#BitstreamVeraSans-Roman-73"/>
      <use x="268.84765625" xlink:href="#BitstreamVeraSans-Roman-2f"/>
      <use x="302.5390625" xlink:href="#BitstreamVeraSans-Roman-73"/>
     </g>
    </g>
   </g>
   <g id="line2d_101">
    <path clip-path="url(#pffee08ba51)" d="
M298.714 324.406
L301.988 292.877
L305.263 266.035
L308.538 254.617
L311.812 251.256
L315.087 256.227
L318.361 224.197
L324.911 188.235
L328.185 184.075
L331.46 182.97
L334.735 194.353
L338.009 214.811
L341.284 223.293
L344.558 220.038
L347.833 207.288
L351.108 201.606
L354.382 189.892
L357.657 175.738
L360.932 163.346
L364.206 163.643
L367.481 155.696
L370.755 136.99
L374.03 121.192
L377.305 112.171
L380.579 104.485
L383.854 100.831
L387.129 107.79
L390.403 127.204
L393.678 138.277
L396.952 141.496
L400.227 142.776
L403.502 153.747
L406.776 169.64
L410.051 194.685
L413.326 210.49
L416.6 215.959
L419.875 207.5
L423.149 190.342
L426.424 177.415
L429.699 167.656
L432.973 174.905
L436.248 171.418
L439.523 161.931
L442.797 139.133
L446.072 123.415
L449.346 119.276
L452.621 126.081
L459.17 148.276
L462.445 148.875
L465.72 134.559
L468.994 140.018
L472.269 139.547
L475.543 144.027
L478.818 153.895
L482.093 159.886
L485.367 162.634
L488.642 160.365
L491.917 169.12
L495.191 179.202
L498.466 200.92
L501.74 203.334
L505.015 209.849
L508.29 211.725
L511.564 208.334
L514.839 207.195
L518.114 208.384
L521.388 206.623
L524.663 185.615
L527.937 177.931
L531.212 168.516
L534.487 159.647
L537.761 155.819
L541.036 152.844
L544.311 158.952
L547.585 157.644
L550.86 154.552
L554.134 156.78
L557.409 163.783
L560.684 168.673
L567.233 139.84
L570.508 132.919
L573.782 131.445
L577.057 117.194
L580.331 106.011
L583.606 105.791
L586.881 117.067
L590.155 129.176
L593.43 127.085
L596.705 131.948
L599.979 139.816
L603.254 130.027
L606.528 125.153
L609.803 127.392
L613.078 148.638
L616.352 150.078
L619.627 138.412
L622.902 137.676
L626.176 145.515
L629.451 148.608
L632.725 153.665
L636 173.216
L639.275 181.316
L642.549 177.009
L645.824 156.496
L649.099 153.786
L652.373 158.4
L655.648 158.106
L658.922 147.39
L662.197 142.275
L665.472 133.765
L668.746 115.414
L672.021 106.787
L675.296 113.813
L678.57 119.587
L681.845 120.671
L685.119 113.849
L688.394 99.7656
L691.669 96.3645
L694.943 97.7647
L698.218 105.186
L701.493 112.051
L704.767 108.792
L708.042 101.562
L711.316 99.9668
L714.591 95.5323
L717.866 91.5178
L721.14 90.9371
L724.415 92.2137
L727.69 92.7637
L730.964 93.6417
L734.239 98.3564
L737.513 114.418
L740.788 120.505
L744.063 120.476
L747.337 120.977
L750.612 120.874
L753.887 128.128
L757.161 131.521
L760.436 127.531
L763.71 132.079
L766.985 132.779
L770.26 122.123
L773.534 121.751
L776.809 130.13
L780.084 139.861
L783.358 145.964
L786.633 141.96
L789.907 138.596
L793.182 139.473
L796.457 132.35
L799.731 126.291
L803.006 119.436
L806.281 129.661
L809.555 128.105
L812.83 119.193
L816.104 114.674
L819.379 111.189
L822.654 121.404
L825.928 119.817
L829.203 120.325
L832.478 116.845
L835.752 126.256
L839.027 120.882
L842.301 120.407
L845.576 121.009
L848.851 129.265
L852.125 134.281
L855.4 134.713
L858.675 147.015
L861.949 149.236
L865.224 160.15
L868.498 162.623
L871.773 152.304
L875.048 146.231
L878.322 158.431
L881.597 167.041
L884.872 174.787
L888.146 168.98
L891.421 168.25
L894.695 171.839
L897.97 169.344
L901.245 171.264
L904.519 187.868
L907.794 201.936
L911.069 198.88
L914.343 188.088
L917.618 183.052
L920.892 183.689
L924.167 187.726
L927.442 182.679
L930.716 182.35
L933.991 186.708
L937.266 189.189
L940.54 187.693
L943.815 194.09
L947.089 203.479
L950.364 201.787
L953.639 197.081
L956.913 191.2
L960.188 199.797
L963.463 207.872
L966.737 205.389
L970.012 206.351
L973.286 206.164
L976.561 197.602
L979.836 185.354
L983.11 175.27
L986.385 166.041
L989.66 160.905
L992.934 160.642
L996.209 163.92
L999.483 159.775
L1002.76 152.418
L1006.03 151.259
L1009.31 161.799
L1012.58 163.315
L1015.86 168.498
L1019.13 172.768
L1022.41 164.673
L1025.68 148.7
L1028.96 132.111
L1032.23 120.036
L1035.5 106.165
L1038.78 107.879
L1042.05 91.9839
L1045.33 89.9735
L1048.6 92.0672
L1051.88 101.326
L1055.15 107.03
L1058.43 109.661
L1061.7 114.213
L1064.98 125.922
L1068.25 140.636
L1071.53 140.73
L1074.8 155.407
L1078.07 163.639
L1081.35 165.395
L1084.62 158.363
L1087.9 155.341
L1091.17 158.528
L1094.45 159.306
L1097.72 161.602
L1101 158.769
L1104.27 159.122
L1107.55 164.189
L1110.82 177.347
L1114.1 189.581
L1117.37 201.238
L1120.64 210.632
L1123.92 224.223
L1127.19 236.403
L1130.47 243.485
L1133.74 246.056
L1137.02 239.645
L1140.29 224.838
L1143.57 208.984
L1146.84 196.563
L1150.12 186.929
L1153.39 179.287
L1156.67 167.762
L1159.94 167.483
L1163.21 166.423
L1166.49 167.003
L1169.76 172.336
L1173.04 178.699
L1176.31 180.179
L1179.59 180.187
L1182.86 181.784
L1186.14 186.697
L1189.41 187.147
L1192.69 173.537
L1195.96 170.246
L1199.24 179.56
L1202.51 185.443
L1205.78 190.666
L1209.06 193.389
L1212.33 202.003
L1215.61 208.727
L1218.88 214.288
L1222.16 218.138
L1225.43 220.406
L1228.71 214.159
L1231.98 203.178
L1235.26 194.759
L1238.53 183.139
L1241.81 185.277
L1245.08 193.038
L1248.35 191.135
L1251.63 190.49
L1254.9 192.729
L1258.18 201.533
L1261.45 208.329
L1264.73 207.066
L1268 219.013
L1271.28 225.973
L1274.55 227.104
L1277.83 218.929
L1281.1 223.27
L1281.1 223.27" style="fill:none;stroke:#1b9e77;stroke-linecap:round;"/>
   </g>
   <g id="line2d_102">
    <path clip-path="url(#pffee08ba51)" d="
M305.263 727.039
L311.812 728.903
L315.087 729.856
L318.361 730.542
L324.911 731.547
L328.185 732.819
L331.46 733.646
L334.735 734.21
L338.009 734.492
L341.284 734.491
L344.558 734.114
L347.833 733.387
L354.382 731.695
L357.657 731.059
L360.932 730.636
L364.206 730.429
L367.481 730.422
L370.755 728.553
L374.03 727.183
L377.305 726.644
L380.579 727.365
L383.854 728.362
L387.129 730.16
L390.403 731.1
L396.952 731.311
L400.227 731.241
L403.502 733.12
L406.776 734.53
L410.051 735.203
L413.326 734.687
L416.6 734.733
L419.875 733.242
L423.149 732.437
L426.424 733.039
L432.973 732.736
L436.248 733.325
L446.072 732.984
L449.346 732.192
L455.896 732.167
L459.17 731.411
L462.445 732.097
L465.72 732.032
L468.994 732.65
L472.269 734.014
L478.818 735.531
L482.093 736.586
L485.367 737.002
L488.642 738.108
L491.917 738.617
L495.191 738.413
L498.466 739.399
L501.74 739.427
L505.015 738.339
L508.29 739.369
L511.564 738.983
L514.839 738.43
L518.114 738.575
L521.388 739.221
L524.663 739.301
L527.937 740.466
L531.212 739.941
L534.487 738.866
L537.761 738.855
L541.036 738.014
L544.311 737.894
L550.86 740.172
L554.134 738.922
L557.409 739.548
L560.684 739.042
L563.958 739.788
L567.233 740.649
L570.508 740.931
L573.782 740.487
L577.057 740.605
L580.331 739.276
L583.606 738.601
L586.881 739.02
L590.155 737.885
L593.43 737.49
L599.979 735.028
L603.254 735.154
L606.528 734.76
L609.803 734.547
L613.078 735.162
L616.352 735.162
L619.627 735.322
L622.902 736.217
L626.176 735.82
L632.725 736.485
L636 736.031
L639.275 736.16
L642.549 736.142
L645.824 735.357
L649.099 734.447
L652.373 733.387
L655.648 733.122
L665.472 731.905
L668.746 731.571
L675.296 732.579
L681.845 732.478
L685.119 732.55
L688.394 731.92
L694.943 732.046
L698.218 732.014
L701.493 732.722
L708.042 731.023
L711.316 731.67
L717.866 731.621
L721.14 731.674
L724.415 732.5
L730.964 732.989
L734.239 732.53
L737.513 732.868
L740.788 733.865
L744.063 733.332
L747.337 734.177
L753.887 734.255
L757.161 733.535
L766.985 733.327
L770.26 733.955
L773.534 733.125
L776.809 734.472
L780.084 733.667
L783.358 734.327
L786.633 734.278
L789.907 734.893
L793.182 734.844
L796.457 735.537
L799.731 735.612
L803.006 734.999
L806.281 735.176
L809.555 733.94
L812.83 734.14
L816.104 733.526
L819.379 734.232
L822.654 733.434
L825.928 733.994
L835.752 733.595
L839.027 734.179
L842.301 734.264
L845.576 735.632
L848.851 736.522
L852.125 736.091
L858.675 736.753
L861.949 736.3
L865.224 737.85
L868.498 738.65
L871.773 738.076
L875.048 737.992
L881.597 736.592
L888.146 736.505
L891.421 735.787
L894.695 735.7
L897.97 734.289
L901.245 733.46
L907.794 733.098
L911.069 732.197
L914.343 733.302
L920.892 734.409
L927.442 734.382
L930.716 734.515
L940.54 737.132
L943.815 737.336
L947.089 736.169
L953.639 736.421
L956.913 737.801
L963.463 737.938
L973.286 735.949
L979.836 735.635
L983.11 734.585
L986.385 734.316
L989.66 732.609
L992.934 732.95
L999.483 732.422
L1002.76 732.304
L1006.03 732.976
L1009.31 733.812
L1015.86 734.481
L1019.13 734.085
L1022.41 734.482
L1025.68 734.611
L1028.96 736.035
L1032.23 736.052
L1035.5 735.946
L1042.05 734.172
L1045.33 734.753
L1048.6 735.963
L1055.15 735.98
L1058.43 736.272
L1061.7 735.254
L1068.25 737.293
L1074.8 737.977
L1078.07 737.985
L1081.35 736.718
L1087.9 737.949
L1091.17 737.075
L1094.45 736.865
L1097.72 735.914
L1104.27 735.532
L1107.55 736.06
L1110.82 735.377
L1114.1 736.052
L1117.37 736.11
L1120.64 736.862
L1123.92 736.991
L1127.19 737.74
L1130.47 737.88
L1133.74 737.331
L1137.02 737.432
L1140.29 736.79
L1143.57 736.722
L1150.12 734.941
L1153.39 733.27
L1156.67 733.637
L1159.94 732.725
L1166.49 732.251
L1169.76 732.07
L1173.04 732.603
L1176.31 732.53
L1179.59 733.301
L1182.86 733.433
L1186.14 734.398
L1189.41 733.968
L1192.69 735.489
L1195.96 735.747
L1199.24 736.591
L1202.51 736.845
L1205.78 736.435
L1209.06 736.689
L1212.33 737.519
L1215.61 737.734
L1218.88 737.652
L1222.16 738.376
L1225.43 737.068
L1228.71 736.945
L1231.98 736.166
L1238.53 735.798
L1241.81 736.323
L1245.08 734.885
L1248.35 736.074
L1251.63 735.501
L1254.9 734.76
L1258.18 734.724
L1261.45 734.154
L1264.73 732.779
L1268 734.216
L1271.28 736.147
L1274.55 737.367
L1277.83 739.181
L1281.1 739.465
L1284.38 740.255
L1290.93 741.055
L1294.2 742.138
L1297.47 744.326
L1300.75 743.792
L1304.02 742.532
L1307.3 741.098
L1310.57 739.491
L1313.85 738.028
L1317.12 737.312
L1320.4 737.185
L1326.95 737.478
L1330.22 737.339
L1333.5 736.774
L1336.77 736.333
L1340.04 736.116
L1343.32 736.512
L1346.59 737.474
L1349.87 737.864
L1353.14 738.099
L1356.42 738.136
L1359.69 737.96
L1359.69 737.96" style="fill:none;stroke:#d95f02;stroke-linecap:round;"/>
   </g>
   <g id="patch_3">
    <path d="
M200.475 83.43
L1359.69 83.43" style="fill:none;"/>
   </g>
   <g id="patch_4">
    <path d="
M1359.69 750.87
L1359.69 83.43" style="fill:none;"/>
   </g>
   <g id="patch_5">
    <path d="
M200.475 750.87
L1359.69 750.87" style="fill:none;"/>
   </g>
   <g id="patch_6">
    <path d="
M200.475 750.87
L200.475 83.43" style="fill:none;"/>
   </g>
   <g id="legend_1">
    <g id="line2d_103">
     <path d="
M1491.2 91.5252
L1511.2 91.5252" style="fill:none;stroke:#1b9e77;stroke-linecap:round;"/>
    </g>
    <g id="line2d_104"/>
    <g id="text_16">
     <!-- Download -->
     <defs>
      <path d="
M54.8906 33.0156
L54.8906 0
L45.9062 0
L45.9062 32.7188
Q45.9062 40.4844 42.875 44.3281
Q39.8438 48.1875 33.7969 48.1875
Q26.5156 48.1875 22.3125 43.5469
Q18.1094 38.9219 18.1094 30.9062
L18.1094 0
L9.07812 0
L9.07812 54.6875
L18.1094 54.6875
L18.1094 46.1875
Q21.3438 51.125 25.7031 53.5625
Q30.0781 56 35.7969 56
Q45.2188 56 50.0469 50.1719
Q54.8906 44.3438 54.8906 33.0156" id="BitstreamVeraSans-Roman-6e"/>
      <path d="
M30.6094 48.3906
Q23.3906 48.3906 19.1875 42.75
Q14.9844 37.1094 14.9844 27.2969
Q14.9844 17.4844 19.1562 11.8438
Q23.3438 6.20312 30.6094 6.20312
Q37.7969 6.20312 41.9844 11.8594
Q46.1875 17.5312 46.1875 27.2969
Q46.1875 37.0156 41.9844 42.7031
Q37.7969 48.3906 30.6094 48.3906
M30.6094 56
Q42.3281 56 49.0156 48.375
Q55.7188 40.7656 55.7188 27.2969
Q55.7188 13.875 49.0156 6.21875
Q42.3281 -1.42188 30.6094 -1.42188
Q18.8438 -1.42188 12.1719 6.21875
Q5.51562 13.875 5.51562 27.2969
Q5.51562 40.7656 12.1719 48.375
Q18.8438 56 30.6094 56" id="BitstreamVeraSans-Roman-6f"/>
      <path d="
M9.42188 75.9844
L18.4062 75.9844
L18.4062 0
L9.42188 0
z
" id="BitstreamVeraSans-Roman-6c"/>
      <path d="
M19.6719 64.7969
L19.6719 8.10938
L31.5938 8.10938
Q46.6875 8.10938 53.6875 14.9375
Q60.6875 21.7812 60.6875 36.5312
Q60.6875 51.1719 53.6875 57.9844
Q46.6875 64.7969 31.5938 64.7969
z

M9.8125 72.9062
L30.0781 72.9062
Q51.2656 72.9062 61.1719 64.0938
Q71.0938 55.2812 71.0938 36.5312
Q71.0938 17.6719 61.125 8.82812
Q51.1719 0 30.0781 0
L9.8125 0
z
" id="BitstreamVeraSans-Roman-44"/>
      <path d="
M45.4062 46.3906
L45.4062 75.9844
L54.3906 75.9844
L54.3906 0
L45.4062 0
L45.4062 8.20312
Q42.5781 3.32812 38.25 0.953125
Q33.9375 -1.42188 27.875 -1.42188
Q17.9688 -1.42188 11.7344 6.48438
Q5.51562 14.4062 5.51562 27.2969
Q5.51562 40.1875 11.7344 48.0938
Q17.9688 56 27.875 56
Q33.9375 56 38.25 53.625
Q42.5781 51.2656 45.4062 46.3906
M14.7969 27.2969
Q14.7969 17.3906 18.875 11.75
Q22.9531 6.10938 30.0781 6.10938
Q37.2031 6.10938 41.2969 11.75
Q45.4062 17.3906 45.4062 27.2969
Q45.4062 37.2031 41.2969 42.8438
Q37.2031 48.4844 30.0781 48.4844
Q22.9531 48.4844 18.875 42.8438
Q14.7969 37.2031 14.7969 27.2969" id="BitstreamVeraSans-Roman-64"/>
      <path d="
M4.20312 54.6875
L13.1875 54.6875
L24.4219 12.0156
L35.5938 54.6875
L46.1875 54.6875
L57.4219 12.0156
L68.6094 54.6875
L77.5938 54.6875
L63.2812 0
L52.6875 0
L40.9219 44.8281
L29.1094 0
L18.5 0
z
" id="BitstreamVeraSans-Roman-77"/>
      <path d="
M34.2812 27.4844
Q23.3906 27.4844 19.1875 25
Q14.9844 22.5156 14.9844 16.5
Q14.9844 11.7188 18.1406 8.90625
Q21.2969 6.10938 26.7031 6.10938
Q34.1875 6.10938 38.7031 11.4062
Q43.2188 16.7031 43.2188 25.4844
L43.2188 27.4844
z

M52.2031 31.2031
L52.2031 0
L43.2188 0
L43.2188 8.29688
Q40.1406 3.32812 35.5469 0.953125
Q30.9531 -1.42188 24.3125 -1.42188
Q15.9219 -1.42188 10.9531 3.29688
Q6 8.01562 6 15.9219
Q6 25.1406 12.1719 29.8281
Q18.3594 34.5156 30.6094 34.5156
L43.2188 34.5156
L43.2188 35.4062
Q43.2188 41.6094 39.1406 45
Q35.0625 48.3906 27.6875 48.3906
Q23 48.3906 18.5469 47.2656
Q14.1094 46.1406 10.0156 43.8906
L10.0156 52.2031
Q14.9375 54.1094 19.5781 55.0469
Q24.2188 56 28.6094 56
Q40.4844 56 46.3438 49.8438
Q52.2031 43.7031 52.2031 31.2031" id="BitstreamVeraSans-Roman-61"/>
     </defs>
     <g style="fill:#262626;" transform="translate(1519.19330588 95.023798125)scale(0.09996 -0.09996)">
      <use xlink:href="#BitstreamVeraSans-Roman-44"/>
      <use x="77.001953125" xlink:href="#BitstreamVeraSans-Roman-6f"/>
      <use x="138.18359375" xlink:href="#BitstreamVeraSans-Roman-77"/>
      <use x="219.970703125" xlink:href="#BitstreamVeraSans-Roman-6e"/>
      <use x="283.349609375" xlink:href="#BitstreamVeraSans-Roman-6c"/>
      <use x="311.1328125" xlink:href="#BitstreamVeraSans-Roman-6f"/>
      <use x="372.314453125" xlink:href="#BitstreamVeraSans-Roman-61"/>
      <use x="433.59375" xlink:href="#BitstreamVeraSans-Roman-64"/>
     </g>
    </g>
    <g id="line2d_105">
     <path d="
M1491.2 106.197
L1511.2 106.197" style="fill:none;stroke:#d95f02;stroke-linecap:round;"/>
    </g>
    <g id="line2d_106"/>
    <g id="text_17">
     <!-- Upload -->
     <defs>
      <path d="
M8.6875 72.9062
L18.6094 72.9062
L18.6094 28.6094
Q18.6094 16.8906 22.8438 11.7344
Q27.0938 6.59375 36.625 6.59375
Q46.0938 6.59375 50.3438 11.7344
Q54.5938 16.8906 54.5938 28.6094
L54.5938 72.9062
L64.5 72.9062
L64.5 27.3906
Q64.5 13.1406 57.4375 5.85938
Q50.3906 -1.42188 36.625 -1.42188
Q22.7969 -1.42188 15.7344 5.85938
Q8.6875 13.1406 8.6875 27.3906
z
" id="BitstreamVeraSans-Roman-55"/>
      <path d="
M18.1094 8.20312
L18.1094 -20.7969
L9.07812 -20.7969
L9.07812 54.6875
L18.1094 54.6875
L18.1094 46.3906
Q20.9531 51.2656 25.2656 53.625
Q29.5938 56 35.5938 56
Q45.5625 56 51.7812 48.0938
Q58.0156 40.1875 58.0156 27.2969
Q58.0156 14.4062 51.7812 6.48438
Q45.5625 -1.42188 35.5938 -1.42188
Q29.5938 -1.42188 25.2656 0.953125
Q20.9531 3.32812 18.1094 8.20312
M48.6875 27.2969
Q48.6875 37.2031 44.6094 42.8438
Q40.5312 48.4844 33.4062 48.4844
Q26.2656 48.4844 22.1875 42.8438
Q18.1094 37.2031 18.1094 27.2969
Q18.1094 17.3906 22.1875 11.75
Q26.2656 6.10938 33.4062 6.10938
Q40.5312 6.10938 44.6094 11.75
Q48.6875 17.3906 48.6875 27.2969" id="BitstreamVeraSans-Roman-70"/>
     </defs>
     <g style="fill:#262626;" transform="translate(1519.19330588 109.696051875)scale(0.09996 -0.09996)">
      <use xlink:href="#BitstreamVeraSans-Roman-55"/>
      <use x="73.193359375" xlink:href="#BitstreamVeraSans-Roman-70"/>
      <use x="136.669921875" xlink:href="#BitstreamVeraSans-Roman-6c"/>
      <use x="164.453125" xlink:href="#BitstreamVeraSans-Roman-6f"/>
      <use x="225.634765625" xlink:href="#BitstreamVeraSans-Roman-61"/>
      <use x="286.9140625" xlink:href="#BitstreamVeraSans-Roman-64"/>
     </g>
    </g>
    <g id="line2d_107">
     <path d="
M1491.2 120.87
L1511.2 120.87" style="fill:none;stroke:#7570b3;stroke-linecap:round;"/>
    </g>
    <g id="line2d_108"/>
    <g id="text_18">
     <!-- Ping (ms) -->
     <defs>
      <path d="
M19.6719 64.7969
L19.6719 37.4062
L32.0781 37.4062
Q38.9688 37.4062 42.7188 40.9688
Q46.4844 44.5312 46.4844 51.125
Q46.4844 57.6719 42.7188 61.2344
Q38.9688 64.7969 32.0781 64.7969
z

M9.8125 72.9062
L32.0781 72.9062
Q44.3438 72.9062 50.6094 67.3594
Q56.8906 61.8125 56.8906 51.125
Q56.8906 40.3281 50.6094 34.8125
Q44.3438 29.2969 32.0781 29.2969
L19.6719 29.2969
L19.6719 0
L9.8125 0
z
" id="BitstreamVeraSans-Roman-50"/>
      <path d="
M45.4062 27.9844
Q45.4062 37.75 41.375 43.1094
Q37.3594 48.4844 30.0781 48.4844
Q22.8594 48.4844 18.8281 43.1094
Q14.7969 37.75 14.7969 27.9844
Q14.7969 18.2656 18.8281 12.8906
Q22.8594 7.51562 30.0781 7.51562
Q37.3594 7.51562 41.375 12.8906
Q45.4062 18.2656 45.4062 27.9844
M54.3906 6.78125
Q54.3906 -7.17188 48.1875 -13.9844
Q42 -20.7969 29.2031 -20.7969
Q24.4688 -20.7969 20.2656 -20.0938
Q16.0625 -19.3906 12.1094 -17.9219
L12.1094 -9.1875
Q16.0625 -11.3281 19.9219 -12.3438
Q23.7812 -13.375 27.7812 -13.375
Q36.625 -13.375 41.0156 -8.76562
Q45.4062 -4.15625 45.4062 5.17188
L45.4062 9.625
Q42.625 4.78125 38.2812 2.39062
Q33.9375 0 27.875 0
Q17.8281 0 11.6719 7.65625
Q5.51562 15.3281 5.51562 27.9844
Q5.51562 40.6719 11.6719 48.3281
Q17.8281 56 27.875 56
Q33.9375 56 38.2812 53.6094
Q42.625 51.2188 45.4062 46.3906
L45.4062 54.6875
L54.3906 54.6875
z
" id="BitstreamVeraSans-Roman-67"/>
     </defs>
     <g style="fill:#262626;" transform="translate(1519.19330588 124.368305625)scale(0.09996 -0.09996)">
      <use xlink:href="#BitstreamVeraSans-Roman-50"/>
      <use x="58.052734375" xlink:href="#BitstreamVeraSans-Roman-69"/>
      <use x="85.8359375" xlink:href="#BitstreamVeraSans-Roman-6e"/>
      <use x="149.21484375" xlink:href="#BitstreamVeraSans-Roman-67"/>
      <use x="212.69140625" xlink:href="#BitstreamVeraSans-Roman-20"/>
      <use x="244.478515625" xlink:href="#BitstreamVeraSans-Roman-28"/>
      <use x="283.4921875" xlink:href="#BitstreamVeraSans-Roman-6d"/>
      <use x="380.904296875" xlink:href="#BitstreamVeraSans-Roman-73"/>
      <use x="433.00390625" xlink:href="#BitstreamVeraSans-Roman-29"/>
     </g>
    </g>
   </g>
  </g>
  <g id="axes_2">
   <g id="matplotlib.axis_3">
    <g id="ytick_29">
     <g id="line2d_109">
      <g>
       <use style="fill:#262626;stroke:#262626;stroke-width:0.5;" x="1359.6922125" xlink:href="#m8735711441" y="632.294893609"/>
      </g>
     </g>
     <g id="text_19">
      <!-- 21.0 -->
      <defs>
       <path d="
M10.6875 12.4062
L21 12.4062
L21 0
L10.6875 0
z
" id="BitstreamVeraSans-Roman-2e"/>
      </defs>
      <g style="fill:#262626;" transform="translate(1363.6922125 635.606143609)scale(0.12 -0.12)">
       <use xlink:href="#BitstreamVeraSans-Roman-32"/>
       <use x="63.623046875" xlink:href="#BitstreamVeraSans-Roman-31"/>
       <use x="127.24609375" xlink:href="#BitstreamVeraSans-Roman-2e"/>
       <use x="159.033203125" xlink:href="#BitstreamVeraSans-Roman-30"/>
      </g>
     </g>
    </g>
    <g id="ytick_30">
     <g id="line2d_110">
      <g>
       <use style="fill:#262626;stroke:#262626;stroke-width:0.5;" x="1359.6922125" xlink:href="#m8735711441" y="512.164387502"/>
      </g>
     </g>
     <g id="text_20">
      <!-- 21.5 -->
      <g style="fill:#262626;" transform="translate(1363.6922125 515.475637502)scale(0.12 -0.12)">
       <use xlink:href="#BitstreamVeraSans-Roman-32"/>
       <use x="63.623046875" xlink:href="#BitstreamVeraSans-Roman-31"/>
       <use x="127.24609375" xlink:href="#BitstreamVeraSans-Roman-2e"/>
       <use x="159.033203125" xlink:href="#BitstreamVeraSans-Roman-35"/>
      </g>
     </g>
    </g>
    <g id="ytick_31">
     <g id="line2d_111">
      <g>
       <use style="fill:#262626;stroke:#262626;stroke-width:0.5;" x="1359.6922125" xlink:href="#m8735711441" y="392.033881394"/>
      </g>
     </g>
     <g id="text_21">
      <!-- 22.0 -->
      <g style="fill:#262626;" transform="translate(1363.6922125 395.345131394)scale(0.12 -0.12)">
       <use xlink:href="#BitstreamVeraSans-Roman-32"/>
       <use x="63.623046875" xlink:href="#BitstreamVeraSans-Roman-32"/>
       <use x="127.24609375" xlink:href="#BitstreamVeraSans-Roman-2e"/>
       <use x="159.033203125" xlink:href="#BitstreamVeraSans-Roman-30"/>
      </g>
     </g>
    </g>
    <g id="ytick_32">
     <g id="line2d_112">
      <g>
       <use style="fill:#262626;stroke:#262626;stroke-width:0.5;" x="1359.6922125" xlink:href="#m8735711441" y="271.903375287"/>
      </g>
     </g>
     <g id="text_22">
      <!-- 22.5 -->
      <g style="fill:#262626;" transform="translate(1363.6922125 275.214625287)scale(0.12 -0.12)">
       <use xlink:href="#BitstreamVeraSans-Roman-32"/>
       <use x="63.623046875" xlink:href="#BitstreamVeraSans-Roman-32"/>
       <use x="127.24609375" xlink:href="#BitstreamVeraSans-Roman-2e"/>
       <use x="159.033203125" xlink:href="#BitstreamVeraSans-Roman-35"/>
      </g>
     </g>
    </g>
    <g id="ytick_33">
     <g id="line2d_113">
      <g>
       <use style="fill:#262626;stroke:#262626;stroke-width:0.5;" x="1359.6922125" xlink:href="#m8735711441" y="151.77286918"/>
      </g>
     </g>
     <g id="text_23">
      <!-- 23.0 -->
      <g style="fill:#262626;" transform="translate(1363.6922125 155.08411918)scale(0.12 -0.12)">
       <use xlink:href="#BitstreamVeraSans-Roman-32"/>
       <use x="63.623046875" xlink:href="#BitstreamVeraSans-Roman-33"/>
       <use x="127.24609375" xlink:href="#BitstreamVeraSans-Roman-2e"/>
       <use x="159.033203125" xlink:href="#BitstreamVeraSans-Roman-30"/>
      </g>
     </g>
    </g>
    <g id="ytick_34">
     <g id="line2d_114">
      <g>
       <use style="fill:#262626;stroke:#262626;stroke-width:0.5;" x="1359.6922125" xlink:href="#m8735711441" y="728.399298495"/>
      </g>
     </g>
    </g>
    <g id="ytick_35">
     <g id="line2d_115">
      <g>
       <use style="fill:#262626;stroke:#262626;stroke-width:0.5;" x="1359.6922125" xlink:href="#m8735711441" y="704.373197274"/>
      </g>
     </g>
    </g>
    <g id="ytick_36">
     <g id="line2d_116">
      <g>
       <use style="fill:#262626;stroke:#262626;stroke-width:0.5;" x="1359.6922125" xlink:href="#m8735711441" y="680.347096052"/>
      </g>
     </g>
    </g>
    <g id="ytick_37">
     <g id="line2d_117">
      <g>
       <use style="fill:#262626;stroke:#262626;stroke-width:0.5;" x="1359.6922125" xlink:href="#m8735711441" y="656.320994831"/>
      </g>
     </g>
    </g>
    <g id="ytick_38">
     <g id="line2d_118">
      <g>
       <use style="fill:#262626;stroke:#262626;stroke-width:0.5;" x="1359.6922125" xlink:href="#m8735711441" y="608.268792388"/>
      </g>
     </g>
    </g>
    <g id="ytick_39">
     <g id="line2d_119">
      <g>
       <use style="fill:#262626;stroke:#262626;stroke-width:0.5;" x="1359.6922125" xlink:href="#m8735711441" y="584.242691166"/>
      </g>
     </g>
    </g>
    <g id="ytick_40">
     <g id="line2d_120">
      <g>
       <use style="fill:#262626;stroke:#262626;stroke-width:0.5;" x="1359.6922125" xlink:href="#m8735711441" y="560.216589945"/>
      </g>
     </g>
    </g>
    <g id="ytick_41">
     <g id="line2d_121">
      <g>
       <use style="fill:#262626;stroke:#262626;stroke-width:0.5;" x="1359.6922125" xlink:href="#m8735711441" y="536.190488723"/>
      </g>
     </g>
    </g>
    <g id="ytick_42">
     <g id="line2d_122">
      <g>
       <use style="fill:#262626;stroke:#262626;stroke-width:0.5;" x="1359.6922125" xlink:href="#m8735711441" y="488.13828628"/>
      </g>
     </g>
    </g>
    <g id="ytick_43">
     <g id="line2d_123">
      <g>
       <use style="fill:#262626;stroke:#262626;stroke-width:0.5;" x="1359.6922125" xlink:href="#m8735711441" y="464.112185059"/>
      </g>
     </g>
    </g>
    <g id="ytick_44">
     <g id="line2d_124">
      <g>
       <use style="fill:#262626;stroke:#262626;stroke-width:0.5;" x="1359.6922125" xlink:href="#m8735711441" y="440.086083837"/>
      </g>
     </g>
    </g>
    <g id="ytick_45">
     <g id="line2d_125">
      <g>
       <use style="fill:#262626;stroke:#262626;stroke-width:0.5;" x="1359.6922125" xlink:href="#m8735711441" y="416.059982616"/>
      </g>
     </g>
    </g>
    <g id="ytick_46">
     <g id="line2d_126">
      <g>
       <use style="fill:#262626;stroke:#262626;stroke-width:0.5;" x="1359.6922125" xlink:href="#m8735711441" y="368.007780173"/>
      </g>
     </g>
    </g>
    <g id="ytick_47">
     <g id="line2d_127">
      <g>
       <use style="fill:#262626;stroke:#262626;stroke-width:0.5;" x="1359.6922125" xlink:href="#m8735711441" y="343.981678952"/>
      </g>
     </g>
    </g>
    <g id="ytick_48">
     <g id="line2d_128">
      <g>
       <use style="fill:#262626;stroke:#262626;stroke-width:0.5;" x="1359.6922125" xlink:href="#m8735711441" y="319.95557773"/>
      </g>
     </g>
    </g>
    <g id="ytick_49">
     <g id="line2d_129">
      <g>
       <use style="fill:#262626;stroke:#262626;stroke-width:0.5;" x="1359.6922125" xlink:href="#m8735711441" y="295.929476509"/>
      </g>
     </g>
    </g>
    <g id="ytick_50">
     <g id="line2d_130">
      <g>
       <use style="fill:#262626;stroke:#262626;stroke-width:0.5;" x="1359.6922125" xlink:href="#m8735711441" y="247.877274066"/>
      </g>
     </g>
    </g>
    <g id="ytick_51">
     <g id="line2d_131">
      <g>
       <use style="fill:#262626;stroke:#262626;stroke-width:0.5;" x="1359.6922125" xlink:href="#m8735711441" y="223.851172844"/>
      </g>
     </g>
    </g>
    <g id="ytick_52">
     <g id="line2d_132">
      <g>
       <use style="fill:#262626;stroke:#262626;stroke-width:0.5;" x="1359.6922125" xlink:href="#m8735711441" y="199.825071623"/>
      </g>
     </g>
    </g>
    <g id="ytick_53">
     <g id="line2d_133">
      <g>
       <use style="fill:#262626;stroke:#262626;stroke-width:0.5;" x="1359.6922125" xlink:href="#m8735711441" y="175.798970401"/>
      </g>
     </g>
    </g>
    <g id="ytick_54">
     <g id="line2d_134">
      <g>
       <use style="fill:#262626;stroke:#262626;stroke-width:0.5;" x="1359.6922125" xlink:href="#m8735711441" y="127.746767958"/>
      </g>
     </g>
    </g>
    <g id="text_24">
     <!-- Latency (ms) -->
     <defs>
      <path d="
M9.8125 72.9062
L19.6719 72.9062
L19.6719 8.29688
L55.1719 8.29688
L55.1719 0
L9.8125 0
z
" id="BitstreamVeraSans-Roman-4c"/>
      <path d="
M48.7812 52.5938
L48.7812 44.1875
Q44.9688 46.2969 41.1406 47.3438
Q37.3125 48.3906 33.4062 48.3906
Q24.6562 48.3906 19.8125 42.8438
Q14.9844 37.3125 14.9844 27.2969
Q14.9844 17.2812 19.8125 11.7344
Q24.6562 6.20312 33.4062 6.20312
Q37.3125 6.20312 41.1406 7.25
Q44.9688 8.29688 48.7812 10.4062
L48.7812 2.09375
Q45.0156 0.34375 40.9844 -0.53125
Q36.9688 -1.42188 32.4219 -1.42188
Q20.0625 -1.42188 12.7812 6.34375
Q5.51562 14.1094 5.51562 27.2969
Q5.51562 40.6719 12.8594 48.3281
Q20.2188 56 33.0156 56
Q37.1562 56 41.1094 55.1406
Q45.0625 54.2969 48.7812 52.5938" id="BitstreamVeraSans-Roman-63"/>
      <path d="
M32.1719 -5.07812
Q28.375 -14.8438 24.75 -17.8125
Q21.1406 -20.7969 15.0938 -20.7969
L7.90625 -20.7969
L7.90625 -13.2812
L13.1875 -13.2812
Q16.8906 -13.2812 18.9375 -11.5156
Q21 -9.76562 23.4844 -3.21875
L25.0938 0.875
L2.98438 54.6875
L12.5 54.6875
L29.5938 11.9219
L46.6875 54.6875
L56.2031 54.6875
z
" id="BitstreamVeraSans-Roman-79"/>
     </defs>
     <g style="fill:#262626;" transform="translate(1402.8528375 455.91)rotate(-90.0)scale(0.12 -0.12)">
      <use xlink:href="#BitstreamVeraSans-Roman-4c"/>
      <use x="55.712890625" xlink:href="#BitstreamVeraSans-Roman-61"/>
      <use x="116.9921875" xlink:href="#BitstreamVeraSans-Roman-74"/>
      <use x="156.201171875" xlink:href="#BitstreamVeraSans-Roman-65"/>
      <use x="217.724609375" xlink:href="#BitstreamVeraSans-Roman-6e"/>
      <use x="281.103515625" xlink:href="#BitstreamVeraSans-Roman-63"/>
      <use x="336.083984375" xlink:href="#BitstreamVeraSans-Roman-79"/>
      <use x="395.263671875" xlink:href="#BitstreamVeraSans-Roman-20"/>
      <use x="427.05078125" xlink:href="#BitstreamVeraSans-Roman-28"/>
      <use x="466.064453125" xlink:href="#BitstreamVeraSans-Roman-6d"/>
      <use x="563.4765625" xlink:href="#BitstreamVeraSans-Roman-73"/>
      <use x="615.576171875" xlink:href="#BitstreamVeraSans-Roman-29"/>
     </g>
    </g>
   </g>
   <g id="line2d_135">
    <path clip-path="url(#pffee08ba51)" d="
M200.475 215.634
L203.75 258.179
L207.024 265.607
L210.299 304.033
L213.573 306.093
L216.848 314.822
L220.123 352.932
L223.397 313.487
L226.672 250.532
L229.947 373.905
L233.221 402.347
L236.496 378.391
L239.77 371.789
L243.045 360.34
L246.32 322.928
L249.594 297.96
L252.869 284.15
L256.144 295.573
L259.418 322.815
L262.693 337.484
L265.967 350.666
L269.242 364.453
L272.517 378.905
L275.791 357.388
L279.066 392.304
L282.341 375.801
L285.615 286.703
L288.89 201.161
L292.164 133.646
L295.439 127.726
L298.714 107.409
L301.988 149.092
L305.263 142.766
L308.538 105.211
L311.812 141.835
L315.087 192.972
L318.361 204.88
L321.636 293.285
L324.911 374.212
L328.185 292.169
L331.46 270.703
L334.735 171.537
L338.009 181.087
L341.284 229.493
L344.558 218.458
L347.833 225.676
L354.382 277.236
L357.657 264.769
L360.932 326.601
L364.206 327.61
L367.481 377.374
L370.755 388.309
L374.03 382.955
L377.305 349.601
L380.579 339.841
L383.854 388.327
L387.129 367.717
L390.403 395.152
L393.678 406.63
L396.952 433.049
L400.227 429.027
L403.502 401.874
L406.776 430.044
L410.051 463.018
L413.326 480.479
L416.6 464.151
L419.875 486.388
L423.149 468.503
L426.424 444.029
L429.699 406.635
L432.973 432.686
L436.248 466.678
L439.523 446.189
L442.797 438.242
L446.072 424.685
L449.346 422.638
L452.621 436.816
L455.896 451.811
L459.17 451.796
L462.445 503.823
L465.72 496.089
L468.994 477.795
L472.269 448.841
L475.543 384.366
L478.818 384.273
L482.093 399.135
L485.367 355.433
L488.642 334.796
L491.917 341.693
L495.191 323.625
L498.466 310.435
L501.74 277.505
L505.015 263.189
L508.29 253.045
L511.564 178.449
L514.839 196.536
L518.114 229.781
L521.388 248.284
L524.663 258.641
L527.937 272.289
L531.212 313.683
L534.487 301.739
L537.761 274.461
L541.036 272.282
L544.311 316.084
L547.585 271.712
L550.86 186.503
L554.134 126.027
L557.409 97.5337
L560.684 89.9735
L563.958 100.867
L567.233 174.88
L570.508 299.093
L573.782 401.447
L577.057 452.749
L583.606 539.964
L586.881 566.919
L590.155 620.144
L593.43 599.372
L596.705 552.062
L599.979 512.921
L603.254 485.706
L606.528 472.115
L609.803 432.618
L613.078 385.448
L616.352 399.868
L619.627 422.452
L622.902 440.381
L626.176 490.71
L629.451 508.822
L632.725 559.122
L636 562.635
L639.275 511.475
L642.549 522.507
L645.824 518.961
L649.099 453.744
L652.373 430.367
L655.648 318.469
L658.922 247.446
L662.197 289.647
L665.472 271.672
L668.746 275.359
L672.021 287.05
L675.296 256.561
L678.57 300.964
L681.845 400.915
L685.119 435.927
L688.394 505.735
L691.669 534.74
L694.943 503.024
L698.218 455.741
L701.493 429.518
L704.767 454.677
L708.042 442.843
L711.316 405.948
L714.591 359.829
L717.866 379.269
L721.14 397.109
L724.415 402.209
L727.69 362.606
L730.964 340.425
L734.239 320.152
L737.513 274.577
L740.788 291.128
L744.063 313.333
L747.337 315.962
L750.612 295.986
L753.887 272.527
L757.161 233.61
L760.436 225.415
L763.71 271.123
L766.985 304.285
L770.26 282.981
L773.534 258.68
L776.809 247.038
L780.084 215.81
L783.358 198.465
L786.633 217.675
L789.907 279.858
L793.182 353.57
L796.457 395.182
L799.731 381.312
L803.006 459.483
L806.281 511.829
L809.555 539.288
L812.83 630.766
L816.104 660.728
L819.379 692.682
L822.654 731.357
L825.928 744.326
L829.203 720.095
L832.478 689.658
L835.752 689.974
L839.027 703.59
L842.301 706.119
L845.576 696.755
L848.851 709.252
L852.125 648.429
L855.4 569.161
L858.675 541.337
L861.949 534.214
L865.224 549.992
L868.498 497.545
L871.773 422.495
L875.048 393.685
L878.322 304.256
L881.597 247.869
L884.872 264.23
L888.146 284.065
L891.421 223.899
L894.695 220.695
L897.97 267.323
L901.245 332.161
L904.519 372.173
L907.794 384.456
L911.069 452.437
L914.343 449.32
L920.892 390.693
L924.167 392.603
L927.442 349.819
L930.716 308.988
L933.991 236.675
L937.266 168.443
L940.54 122.42
L943.815 110.44
L947.089 142.704
L950.364 168.993
L953.639 159.197
L956.913 114.635
L960.188 172.042
L963.463 160.318
L966.737 200.962
L970.012 259.958
L973.286 308.497
L976.561 335.871
L979.836 375.362
L983.11 383.251
L986.385 325.29
L989.66 361.783
L992.934 338.675
L996.209 295.061
L999.483 272.655
L1006.03 169.63
L1009.31 130.572
L1012.58 116.13
L1015.86 97.5089
L1019.13 223.813
L1022.41 285.494
L1025.68 301.146
L1028.96 380.994
L1032.23 414.457
L1035.5 434.306
L1038.78 466.447
L1042.05 439.751
L1045.33 429.942
L1048.6 482.339
L1051.88 468.574
L1055.15 424.608
L1058.43 353.067
L1061.7 302.339
L1064.98 303.6
L1068.25 365.084
L1071.53 367.284
L1074.8 373.217
L1078.07 284.767
L1081.35 261.651
L1084.62 204.092
L1087.9 198.609
L1091.17 244.862
L1094.45 295.811
L1097.72 321.737
L1101 333.523
L1104.27 334.207
L1107.55 344.155
L1110.82 372.797
L1114.1 276.966
L1117.37 325.69
L1120.64 368.634
L1123.92 337.996
L1127.19 316.808
L1130.47 211.36
L1133.74 185.757
L1137.02 176.483
L1140.29 211.043
L1143.57 208.535
L1146.84 377.28
L1150.12 412.556
L1153.39 407.463
L1156.67 447.636
L1159.94 466.123
L1163.21 530.888
L1166.49 538.888
L1169.76 577.72
L1173.04 554.715
L1176.31 602.862
L1179.59 501.041
L1182.86 433.905
L1186.14 407.832
L1189.41 443.066
L1192.69 408.437
L1195.96 397.881
L1199.24 393.057
L1202.51 372.844
L1205.78 386.889
L1209.06 397.499
L1212.33 379.901
L1215.61 303.12
L1218.88 236.238
L1222.16 177.176
L1225.43 211.235
L1228.71 230.228
L1231.98 203.848
L1235.26 168.099
L1238.53 165.952
L1241.81 159.405
L1245.08 155.15
L1248.35 271.297
L1251.63 371.599
L1254.9 419.709
L1258.18 439.823
L1261.45 478.27
L1264.73 481.313
L1268 529.223
L1271.28 495.685
L1274.55 479.091
L1277.83 524.9
L1281.1 504.531
L1284.38 508.731
L1287.65 476.723
L1290.93 411.872
L1294.2 372.129
L1297.47 359.354
L1300.75 315.01
L1304.02 363.197
L1307.3 385.592
L1310.57 360.282
L1313.85 364.893
L1317.12 332.514
L1320.4 382.558
L1323.67 392.094
L1326.95 371.598
L1330.22 428.492
L1333.5 450.876
L1336.77 390.329
L1340.04 376.284
L1343.32 438.017
L1346.59 413.655
L1349.87 417.543
L1353.14 368.578
L1356.42 390.725
L1359.69 420.49
L1359.69 420.49" style="fill:none;stroke:#7570b3;stroke-linecap:round;"/>
   </g>
  </g>
  <g id="text_25">
   <!-- Realtime Response Under Load -->
   <defs>
    <path d="
M44.3906 34.1875
Q47.5625 33.1094 50.5625 29.5938
Q53.5625 26.0781 56.5938 19.9219
L66.6094 0
L56 0
L46.6875 18.7031
Q43.0625 26.0312 39.6719 28.4219
Q36.2812 30.8125 30.4219 30.8125
L19.6719 30.8125
L19.6719 0
L9.8125 0
L9.8125 72.9062
L32.0781 72.9062
Q44.5781 72.9062 50.7344 67.6719
Q56.8906 62.4531 56.8906 51.9062
Q56.8906 45.0156 53.6875 40.4688
Q50.4844 35.9375 44.3906 34.1875
M19.6719 64.7969
L19.6719 38.9219
L32.0781 38.9219
Q39.2031 38.9219 42.8438 42.2188
Q46.4844 45.5156 46.4844 51.9062
Q46.4844 58.2969 42.8438 61.5469
Q39.2031 64.7969 32.0781 64.7969
z
" id="BitstreamVeraSans-Roman-52"/>
    <path d="
M41.1094 46.2969
Q39.5938 47.1719 37.8125 47.5781
Q36.0312 48 33.8906 48
Q26.2656 48 22.1875 43.0469
Q18.1094 38.0938 18.1094 28.8125
L18.1094 0
L9.07812 0
L9.07812 54.6875
L18.1094 54.6875
L18.1094 46.1875
Q20.9531 51.1719 25.4844 53.5781
Q30.0312 56 36.5312 56
Q37.4531 56 38.5781 55.875
Q39.7031 55.7656 41.0625 55.5156
z
" id="BitstreamVeraSans-Roman-72"/>
   </defs>
   <g style="fill:#262626;" transform="translate(693.35515625 10.2484375)scale(0.14 -0.14)">
    <use xlink:href="#BitstreamVeraSans-Roman-52"/>
    <use x="64.982421875" xlink:href="#BitstreamVeraSans-Roman-65"/>
    <use x="126.505859375" xlink:href="#BitstreamVeraSans-Roman-61"/>
    <use x="187.78515625" xlink:href="#BitstreamVeraSans-Roman-6c"/>
    <use x="215.568359375" xlink:href="#BitstreamVeraSans-Roman-74"/>
    <use x="254.77734375" xlink:href="#BitstreamVeraSans-Roman-69"/>
    <use x="282.560546875" xlink:href="#BitstreamVeraSans-Roman-6d"/>
    <use x="379.97265625" xlink:href="#BitstreamVeraSans-Roman-65"/>
    <use x="441.49609375" xlink:href="#BitstreamVeraSans-Roman-20"/>
    <use x="473.283203125" xlink:href="#BitstreamVeraSans-Roman-52"/>
    <use x="538.265625" xlink:href="#BitstreamVeraSans-Roman-65"/>
    <use x="599.7890625" xlink:href="#BitstreamVeraSans-Roman-73"/>
    <use x="651.888671875" xlink:href="#BitstreamVeraSans-Roman-70"/>
    <use x="715.365234375" xlink:href="#BitstreamVeraSans-Roman-6f"/>
    <use x="776.546875" xlink:href="#BitstreamVeraSans-Roman-6e"/>
    <use x="839.92578125" xlink:href="#BitstreamVeraSans-Roman-73"/>
    <use x="892.025390625" xlink:href="#BitstreamVeraSans-Roman-65"/>
    <use x="953.548828125" xlink:href="#BitstreamVeraSans-Roman-20"/>
    <use x="985.3359375" xlink:href="#BitstreamVeraSans-Roman-55"/>
    <use x="1058.52929688" xlink:href="#BitstreamVeraSans-Roman-6e"/>
    <use x="1121.90820312" xlink:href="#BitstreamVeraSans-Roman-64"/>
    <use x="1185.38476562" xlink:href="#BitstreamVeraSans-Roman-65"/>
    <use x="1246.90820312" xlink:href="#BitstreamVeraSans-Roman-72"/>
    <use x="1288.02148438" xlink:href="#BitstreamVeraSans-Roman-20"/>
    <use x="1319.80859375" xlink:href="#BitstreamVeraSans-Roman-4c"/>
    <use x="1373.77148438" xlink:href="#BitstreamVeraSans-Roman-6f"/>
    <use x="1434.953125" xlink:href="#BitstreamVeraSans-Roman-61"/>
    <use x="1496.23242188" xlink:href="#BitstreamVeraSans-Roman-64"/>
   </g>
   <!-- Total bandwidth and average ping plot -->
   <defs>
    <path d="
M2.98438 54.6875
L12.5 54.6875
L29.5938 8.79688
L46.6875 54.6875
L56.2031 54.6875
L35.6875 0
L23.4844 0
z
" id="BitstreamVeraSans-Roman-76"/>
    <path d="
M54.8906 33.0156
L54.8906 0
L45.9062 0
L45.9062 32.7188
Q45.9062 40.4844 42.875 44.3281
Q39.8438 48.1875 33.7969 48.1875
Q26.5156 48.1875 22.3125 43.5469
Q18.1094 38.9219 18.1094 30.9062
L18.1094 0
L9.07812 0
L9.07812 75.9844
L18.1094 75.9844
L18.1094 46.1875
Q21.3438 51.125 25.7031 53.5625
Q30.0781 56 35.7969 56
Q45.2188 56 50.0469 50.1719
Q54.8906 44.3438 54.8906 33.0156" id="BitstreamVeraSans-Roman-68"/>
   </defs>
   <g style="fill:#262626;" transform="translate(667.15546875 25.925375)scale(0.14 -0.14)">
    <use xlink:href="#BitstreamVeraSans-Roman-54"/>
    <use x="44.083984375" xlink:href="#BitstreamVeraSans-Roman-6f"/>
    <use x="105.265625" xlink:href="#BitstreamVeraSans-Roman-74"/>
    <use x="144.474609375" xlink:href="#BitstreamVeraSans-Roman-61"/>
    <use x="205.75390625" xlink:href="#BitstreamVeraSans-Roman-6c"/>
    <use x="233.537109375" xlink:href="#BitstreamVeraSans-Roman-20"/>
    <use x="265.32421875" xlink:href="#BitstreamVeraSans-Roman-62"/>
    <use x="328.80078125" xlink:href="#BitstreamVeraSans-Roman-61"/>
    <use x="390.080078125" xlink:href="#BitstreamVeraSans-Roman-6e"/>
    <use x="453.458984375" xlink:href="#BitstreamVeraSans-Roman-64"/>
    <use x="516.935546875" xlink:href="#BitstreamVeraSans-Roman-77"/>
    <use x="598.72265625" xlink:href="#BitstreamVeraSans-Roman-69"/>
    <use x="626.505859375" xlink:href="#BitstreamVeraSans-Roman-64"/>
    <use x="689.982421875" xlink:href="#BitstreamVeraSans-Roman-74"/>
    <use x="729.19140625" xlink:href="#BitstreamVeraSans-Roman-68"/>
    <use x="792.5703125" xlink:href="#BitstreamVeraSans-Roman-20"/>
    <use x="824.357421875" xlink:href="#BitstreamVeraSans-Roman-61"/>
    <use x="885.63671875" xlink:href="#BitstreamVeraSans-Roman-6e"/>
    <use x="949.015625" xlink:href="#BitstreamVeraSans-Roman-64"/>
    <use x="1012.4921875" xlink:href="#BitstreamVeraSans-Roman-20"/>
    <use x="1044.27929688" xlink:href="#BitstreamVeraSans-Roman-61"/>
    <use x="1105.55859375" xlink:href="#BitstreamVeraSans-Roman-76"/>
    <use x="1164.73828125" xlink:href="#BitstreamVeraSans-Roman-65"/>
    <use x="1226.26171875" xlink:href="#BitstreamVeraSans-Roman-72"/>
    <use x="1267.375" xlink:href="#BitstreamVeraSans-Roman-61"/>
    <use x="1328.65429688" xlink:href="#BitstreamVeraSans-Roman-67"/>
    <use x="1392.13085938" xlink:href="#BitstreamVeraSans-Roman-65"/>
    <use x="1453.65429688" xlink:href="#BitstreamVeraSans-Roman-20"/>
    <use x="1485.44140625" xlink:href="#BitstreamVeraSans-Roman-70"/>
    <use x="1548.91796875" xlink:href="#BitstreamVeraSans-Roman-69"/>
    <use x="1576.70117188" xlink:href="#BitstreamVeraSans-Roman-6e"/>
    <use x="1640.08007812" xlink:href="#BitstreamVeraSans-Roman-67"/>
    <use x="1703.55664062" xlink:href="#BitstreamVeraSans-Roman-20"/>
    <use x="1735.34375" xlink:href="#BitstreamVeraSans-Roman-70"/>
    <use x="1798.8203125" xlink:href="#BitstreamVeraSans-Roman-6c"/>
    <use x="1826.60351562" xlink:href="#BitstreamVeraSans-Roman-6f"/>
    <use x="1887.78515625" xlink:href="#BitstreamVeraSans-Roman-74"/>
   </g>
   <!-- massive_torrents -->
   <defs>
    <path d="
M50.9844 -16.6094
L50.9844 -23.5781
L-0.984375 -23.5781
L-0.984375 -16.6094
z
" id="BitstreamVeraSans-Roman-5f"/>
   </defs>
   <g style="fill:#262626;" transform="translate(742.94359375 41.6023125)scale(0.14 -0.14)">
    <use xlink:href="#BitstreamVeraSans-Roman-6d"/>
    <use x="97.412109375" xlink:href="#BitstreamVeraSans-Roman-61"/>
    <use x="158.69140625" xlink:href="#BitstreamVeraSans-Roman-73"/>
    <use x="210.791015625" xlink:href="#BitstreamVeraSans-Roman-73"/>
    <use x="262.890625" xlink:href="#BitstreamVeraSans-Roman-69"/>
    <use x="290.673828125" xlink:href="#BitstreamVeraSans-Roman-76"/>
    <use x="349.853515625" xlink:href="#BitstreamVeraSans-Roman-65"/>
    <use x="411.376953125" xlink:href="#BitstreamVeraSans-Roman-5f"/>
    <use x="461.376953125" xlink:href="#BitstreamVeraSans-Roman-74"/>
    <use x="500.5859375" xlink:href="#BitstreamVeraSans-Roman-6f"/>
    <use x="561.767578125" xlink:href="#BitstreamVeraSans-Roman-72"/>
    <use x="601.130859375" xlink:href="#BitstreamVeraSans-Roman-72"/>
    <use x="639.994140625" xlink:href="#BitstreamVeraSans-Roman-65"/>
    <use x="701.517578125" xlink:href="#BitstreamVeraSans-Roman-6e"/>
    <use x="764.896484375" xlink:href="#BitstreamVeraSans-Roman-74"/>
    <use x="804.10546875" xlink:href="#BitstreamVeraSans-Roman-73"/>
   </g>
  </g>
  <g id="text_26">
   <!-- Local/remote: dancer/flent-freemont.bufferbloat.net - Time: 2016-02-24T16:49:39.196998 - Length/step: 60s/0.20s -->
   <defs>
    <path d="
M37.1094 75.9844
L37.1094 68.5
L28.5156 68.5
Q23.6875 68.5 21.7969 66.5469
Q19.9219 64.5938 19.9219 59.5156
L19.9219 54.6875
L34.7188 54.6875
L34.7188 47.7031
L19.9219 47.7031
L19.9219 0
L10.8906 0
L10.8906 47.7031
L2.29688 47.7031
L2.29688 54.6875
L10.8906 54.6875
L10.8906 58.5
Q10.8906 67.625 15.1406 71.7969
Q19.3906 75.9844 28.6094 75.9844
z
" id="BitstreamVeraSans-Roman-66"/>
    <path d="
M31.7812 34.625
Q24.75 34.625 20.7188 30.8594
Q16.7031 27.0938 16.7031 20.5156
Q16.7031 13.9219 20.7188 10.1562
Q24.75 6.39062 31.7812 6.39062
Q38.8125 6.39062 42.8594 10.1719
Q46.9219 13.9688 46.9219 20.5156
Q46.9219 27.0938 42.8906 30.8594
Q38.875 34.625 31.7812 34.625
M21.9219 38.8125
Q15.5781 40.375 12.0312 44.7188
Q8.5 49.0781 8.5 55.3281
Q8.5 64.0625 14.7188 69.1406
Q20.9531 74.2188 31.7812 74.2188
Q42.6719 74.2188 48.875 69.1406
Q55.0781 64.0625 55.0781 55.3281
Q55.0781 49.0781 51.5312 44.7188
Q48 40.375 41.7031 38.8125
Q48.8281 37.1562 52.7969 32.3125
Q56.7812 27.4844 56.7812 20.5156
Q56.7812 9.90625 50.3125 4.23438
Q43.8438 -1.42188 31.7812 -1.42188
Q19.7344 -1.42188 13.25 4.23438
Q6.78125 9.90625 6.78125 20.5156
Q6.78125 27.4844 10.7812 32.3125
Q14.7969 37.1562 21.9219 38.8125
M18.3125 54.3906
Q18.3125 48.7344 21.8438 45.5625
Q25.3906 42.3906 31.7812 42.3906
Q38.1406 42.3906 41.7188 45.5625
Q45.3125 48.7344 45.3125 54.3906
Q45.3125 60.0625 41.7188 63.2344
Q38.1406 66.4062 31.7812 66.4062
Q25.3906 66.4062 21.8438 63.2344
Q18.3125 60.0625 18.3125 54.3906" id="BitstreamVeraSans-Roman-38"/>
    <path d="
M10.9844 1.51562
L10.9844 10.5
Q14.7031 8.73438 18.5 7.8125
Q22.3125 6.89062 25.9844 6.89062
Q35.75 6.89062 40.8906 13.4531
Q46.0469 20.0156 46.7812 33.4062
Q43.9531 29.2031 39.5938 26.9531
Q35.25 24.7031 29.9844 24.7031
Q19.0469 24.7031 12.6719 31.3125
Q6.29688 37.9375 6.29688 49.4219
Q6.29688 60.6406 12.9375 67.4219
Q19.5781 74.2188 30.6094 74.2188
Q43.2656 74.2188 49.9219 64.5156
Q56.5938 54.8281 56.5938 36.375
Q56.5938 19.1406 48.4062 8.85938
Q40.2344 -1.42188 26.4219 -1.42188
Q22.7031 -1.42188 18.8906 -0.6875
Q15.0938 0.046875 10.9844 1.51562
M30.6094 32.4219
Q37.25 32.4219 41.125 36.9531
Q45.0156 41.5 45.0156 49.4219
Q45.0156 57.2812 41.125 61.8438
Q37.25 66.4062 30.6094 66.4062
Q23.9688 66.4062 20.0938 61.8438
Q16.2188 57.2812 16.2188 49.4219
Q16.2188 41.5 20.0938 36.9531
Q23.9688 32.4219 30.6094 32.4219" id="BitstreamVeraSans-Roman-39"/>
    <path d="
M11.7188 12.4062
L22.0156 12.4062
L22.0156 0
L11.7188 0
z

M11.7188 51.7031
L22.0156 51.7031
L22.0156 39.3125
L11.7188 39.3125
z
" id="BitstreamVeraSans-Roman-3a"/>
    <path d="
M4.89062 31.3906
L31.2031 31.3906
L31.2031 23.3906
L4.89062 23.3906
z
" id="BitstreamVeraSans-Roman-2d"/>
    <path d="
M8.5 21.5781
L8.5 54.6875
L17.4844 54.6875
L17.4844 21.9219
Q17.4844 14.1562 20.5 10.2656
Q23.5312 6.39062 29.5938 6.39062
Q36.8594 6.39062 41.0781 11.0312
Q45.3125 15.6719 45.3125 23.6875
L45.3125 54.6875
L54.2969 54.6875
L54.2969 0
L45.3125 0
L45.3125 8.40625
Q42.0469 3.42188 37.7188 1
Q33.4062 -1.42188 27.6875 -1.42188
Q18.2656 -1.42188 13.375 4.4375
Q8.5 10.2969 8.5 21.5781" id="BitstreamVeraSans-Roman-75"/>
   </defs>
   <g style="fill:#262626;" transform="translate(571.614375 832.63625)scale(0.08 -0.08)">
    <use xlink:href="#BitstreamVeraSans-Roman-4c"/>
    <use x="53.962890625" xlink:href="#BitstreamVeraSans-Roman-6f"/>
    <use x="115.14453125" xlink:href="#BitstreamVeraSans-Roman-63"/>
    <use x="170.125" xlink:href="#BitstreamVeraSans-Roman-61"/>
    <use x="231.404296875" xlink:href="#BitstreamVeraSans-Roman-6c"/>
    <use x="259.1875" xlink:href="#BitstreamVeraSans-Roman-2f"/>
    <use x="292.87890625" xlink:href="#BitstreamVeraSans-Roman-72"/>
    <use x="331.7421875" xlink:href="#BitstreamVeraSans-Roman-65"/>
    <use x="393.265625" xlink:href="#BitstreamVeraSans-Roman-6d"/>
    <use x="490.677734375" xlink:href="#BitstreamVeraSans-Roman-6f"/>
    <use x="551.859375" xlink:href="#BitstreamVeraSans-Roman-74"/>
    <use x="591.068359375" xlink:href="#BitstreamVeraSans-Roman-65"/>
    <use x="652.591796875" xlink:href="#BitstreamVeraSans-Roman-3a"/>
    <use x="686.283203125" xlink:href="#BitstreamVeraSans-Roman-20"/>
    <use x="718.0703125" xlink:href="#BitstreamVeraSans-Roman-64"/>
    <use x="781.546875" xlink:href="#BitstreamVeraSans-Roman-61"/>
    <use x="842.826171875" xlink:href="#BitstreamVeraSans-Roman-6e"/>
    <use x="906.205078125" xlink:href="#BitstreamVeraSans-Roman-63"/>
    <use x="961.185546875" xlink:href="#BitstreamVeraSans-Roman-65"/>
    <use x="1022.70898438" xlink:href="#BitstreamVeraSans-Roman-72"/>
    <use x="1063.82226562" xlink:href="#BitstreamVeraSans-Roman-2f"/>
    <use x="1097.51367188" xlink:href="#BitstreamVeraSans-Roman-66"/>
    <use x="1132.71875" xlink:href="#BitstreamVeraSans-Roman-6c"/>
    <use x="1160.50195312" xlink:href="#BitstreamVeraSans-Roman-65"/>
    <use x="1222.02539062" xlink:href="#BitstreamVeraSans-Roman-6e"/>
    <use x="1285.40429688" xlink:href="#BitstreamVeraSans-Roman-74"/>
    <use x="1324.61328125" xlink:href="#BitstreamVeraSans-Roman-2d"/>
    <use x="1360.69726562" xlink:href="#BitstreamVeraSans-Roman-66"/>
    <use x="1395.90234375" xlink:href="#BitstreamVeraSans-Roman-72"/>
    <use x="1434.765625" xlink:href="#BitstreamVeraSans-Roman-65"/>
    <use x="1496.2890625" xlink:href="#BitstreamVeraSans-Roman-65"/>
    <use x="1557.8125" xlink:href="#BitstreamVeraSans-Roman-6d"/>
    <use x="1655.22460938" xlink:href="#BitstreamVeraSans-Roman-6f"/>
    <use x="1716.40625" xlink:href="#BitstreamVeraSans-Roman-6e"/>
    <use x="1779.78515625" xlink:href="#BitstreamVeraSans-Roman-74"/>
    <use x="1818.99414062" xlink:href="#BitstreamVeraSans-Roman-2e"/>
    <use x="1850.78125" xlink:href="#BitstreamVeraSans-Roman-62"/>
    <use x="1914.2578125" xlink:href="#BitstreamVeraSans-Roman-75"/>
    <use x="1977.63671875" xlink:href="#BitstreamVeraSans-Roman-66"/>
    <use x="2012.84179688" xlink:href="#BitstreamVeraSans-Roman-66"/>
    <use x="2048.046875" xlink:href="#BitstreamVeraSans-Roman-65"/>
    <use x="2109.5703125" xlink:href="#BitstreamVeraSans-Roman-72"/>
    <use x="2150.68359375" xlink:href="#BitstreamVeraSans-Roman-62"/>
    <use x="2214.16015625" xlink:href="#BitstreamVeraSans-Roman-6c"/>
    <use x="2241.94335938" xlink:href="#BitstreamVeraSans-Roman-6f"/>
    <use x="2303.125" xlink:href="#BitstreamVeraSans-Roman-61"/>
    <use x="2364.40429688" xlink:href="#BitstreamVeraSans-Roman-74"/>
    <use x="2403.61328125" xlink:href="#BitstreamVeraSans-Roman-2e"/>
    <use x="2435.40039062" xlink:href="#BitstreamVeraSans-Roman-6e"/>
    <use x="2498.77929688" xlink:href="#BitstreamVeraSans-Roman-65"/>
    <use x="2560.30273438" xlink:href="#BitstreamVeraSans-Roman-74"/>
    <use x="2599.51171875" xlink:href="#BitstreamVeraSans-Roman-20"/>
    <use x="2631.29882812" xlink:href="#BitstreamVeraSans-Roman-2d"/>
    <use x="2667.3828125" xlink:href="#BitstreamVeraSans-Roman-20"/>
    <use x="2699.16992188" xlink:href="#BitstreamVeraSans-Roman-54"/>
    <use x="2757.12890625" xlink:href="#BitstreamVeraSans-Roman-69"/>
    <use x="2784.91210938" xlink:href="#BitstreamVeraSans-Roman-6d"/>
    <use x="2882.32421875" xlink:href="#BitstreamVeraSans-Roman-65"/>
    <use x="2943.84765625" xlink:href="#BitstreamVeraSans-Roman-3a"/>
    <use x="2977.5390625" xlink:href="#BitstreamVeraSans-Roman-20"/>
    <use x="3009.32617188" xlink:href="#BitstreamVeraSans-Roman-32"/>
    <use x="3072.94921875" xlink:href="#BitstreamVeraSans-Roman-30"/>
    <use x="3136.57226562" xlink:href="#BitstreamVeraSans-Roman-31"/>
    <use x="3200.1953125" xlink:href="#BitstreamVeraSans-Roman-36"/>
    <use x="3263.81835938" xlink:href="#BitstreamVeraSans-Roman-2d"/>
    <use x="3299.90234375" xlink:href="#BitstreamVeraSans-Roman-30"/>
    <use x="3363.52539062" xlink:href="#BitstreamVeraSans-Roman-32"/>
    <use x="3427.1484375" xlink:href="#BitstreamVeraSans-Roman-2d"/>
    <use x="3463.23242188" xlink:href="#BitstreamVeraSans-Roman-32"/>
    <use x="3526.85546875" xlink:href="#BitstreamVeraSans-Roman-34"/>
    <use x="3590.47851562" xlink:href="#BitstreamVeraSans-Roman-54"/>
    <use x="3651.5625" xlink:href="#BitstreamVeraSans-Roman-31"/>
    <use x="3715.18554688" xlink:href="#BitstreamVeraSans-Roman-36"/>
    <use x="3778.80859375" xlink:href="#BitstreamVeraSans-Roman-3a"/>
    <use x="3812.5" xlink:href="#BitstreamVeraSans-Roman-34"/>
    <use x="3876.12304688" xlink:href="#BitstreamVeraSans-Roman-39"/>
    <use x="3939.74609375" xlink:href="#BitstreamVeraSans-Roman-3a"/>
    <use x="3973.4375" xlink:href="#BitstreamVeraSans-Roman-33"/>
    <use x="4037.06054688" xlink:href="#BitstreamVeraSans-Roman-39"/>
    <use x="4100.68359375" xlink:href="#BitstreamVeraSans-Roman-2e"/>
    <use x="4132.47070312" xlink:href="#BitstreamVeraSans-Roman-31"/>
    <use x="4196.09375" xlink:href="#BitstreamVeraSans-Roman-39"/>
    <use x="4259.71679688" xlink:href="#BitstreamVeraSans-Roman-36"/>
    <use x="4323.33984375" xlink:href="#BitstreamVeraSans-Roman-39"/>
    <use x="4386.96289062" xlink:href="#BitstreamVeraSans-Roman-39"/>
    <use x="4450.5859375" xlink:href="#BitstreamVeraSans-Roman-38"/>
    <use x="4514.20898438" xlink:href="#BitstreamVeraSans-Roman-20"/>
    <use x="4545.99609375" xlink:href="#BitstreamVeraSans-Roman-2d"/>
    <use x="4582.08007812" xlink:href="#BitstreamVeraSans-Roman-20"/>
    <use x="4613.8671875" xlink:href="#BitstreamVeraSans-Roman-4c"/>
    <use x="4667.83007812" xlink:href="#BitstreamVeraSans-Roman-65"/>
    <use x="4729.35351562" xlink:href="#BitstreamVeraSans-Roman-6e"/>
    <use x="4792.73242188" xlink:href="#BitstreamVeraSans-Roman-67"/>
    <use x="4856.20898438" xlink:href="#BitstreamVeraSans-Roman-74"/>
    <use x="4895.41796875" xlink:href="#BitstreamVeraSans-Roman-68"/>
    <use x="4958.796875" xlink:href="#BitstreamVeraSans-Roman-2f"/>
    <use x="4992.48828125" xlink:href="#BitstreamVeraSans-Roman-73"/>
    <use x="5044.58789062" xlink:href="#BitstreamVeraSans-Roman-74"/>
    <use x="5083.796875" xlink:href="#BitstreamVeraSans-Roman-65"/>
    <use x="5145.3203125" xlink:href="#BitstreamVeraSans-Roman-70"/>
    <use x="5208.796875" xlink:href="#BitstreamVeraSans-Roman-3a"/>
    <use x="5242.48828125" xlink:href="#BitstreamVeraSans-Roman-20"/>
    <use x="5274.27539062" xlink:href="#BitstreamVeraSans-Roman-36"/>
    <use x="5337.8984375" xlink:href="#BitstreamVeraSans-Roman-30"/>
    <use x="5401.52148438" xlink:href="#BitstreamVeraSans-Roman-73"/>
    <use x="5453.62109375" xlink:href="#BitstreamVeraSans-Roman-2f"/>
    <use x="5487.3125" xlink:href="#BitstreamVeraSans-Roman-30"/>
    <use x="5550.93554688" xlink:href="#BitstreamVeraSans-Roman-2e"/>
    <use x="5582.72265625" xlink:href="#BitstreamVeraSans-Roman-32"/>
    <use x="5646.34570312" xlink:href="#BitstreamVeraSans-Roman-30"/>
    <use x="5709.96875" xlink:href="#BitstreamVeraSans-Roman-73"/>
   </g>
  </g>
 </g>
 <defs>
  <clipPath id="pffee08ba51">
   <rect height="667.44" width="1159.2172125" x="200.475" y="83.43"/>
  </clipPath>
 </defs>
</svg>
