<?xml version="1.0" encoding="utf-8" standalone="no"?>
<!DOCTYPE svg PUBLIC "-//W3C//DTD SVG 1.1//EN"
  "http://www.w3.org/Graphics/SVG/1.1/DTD/svg11.dtd">
<!-- Created with matplotlib (http://matplotlib.org/) -->
<svg height="212pt" version="1.1" viewBox="0 0 924 212" width="924pt" xmlns="http://www.w3.org/2000/svg" xmlns:xlink="http://www.w3.org/1999/xlink">
 <defs>
  <style type="text/css">
*{stroke-linecap:butt;stroke-linejoin:round;stroke-miterlimit:100000;}
  </style>
 </defs>
 <g id="figure_1">
  <g id="patch_1">
   <path d="M 0 212.4 
L 924.3 212.4 
L 924.3 0 
L 0 0 
z
" style="fill:#ffffff;"/>
  </g>
  <g id="axes_1">
   <g id="patch_2">
    <path d="M 115.5375 191.16 
L 694.5219 191.16 
L 694.5219 21.24 
L 115.5375 21.24 
z
" style="fill:#eaeaf2;"/>
   </g>
   <g id="matplotlib.axis_1">
    <g id="xtick_1">
     <g id="line2d_1">
      <path clip-path="url(#pc3e26f1554)" d="M 206.500456 191.16 
L 206.500456 21.24 
" style="fill:none;stroke:#ffffff;stroke-linecap:round;stroke-width:0.5;"/>
     </g>
     <g id="line2d_2">
      <defs>
       <path d="M 0 0 
L 0 0 
" id="m0d5def1e7e" style="stroke:#262626;stroke-width:0.5;"/>
      </defs>
      <g>
       <use style="fill:#262626;stroke:#262626;stroke-width:0.5;" x="206.500456438" xlink:href="#m0d5def1e7e" y="191.16"/>
      </g>
     </g>
     <g id="line2d_3">
      <g>
       <use style="fill:#262626;stroke:#262626;stroke-width:0.5;" x="206.500456438" xlink:href="#m0d5def1e7e" y="21.24"/>
      </g>
     </g>
     <g id="text_1">
      <!-- 2 -->
      <defs>
       <path d="M 19.1875 8.296875 
L 53.609375 8.296875 
L 53.609375 0 
L 7.328125 0 
L 7.328125 8.296875 
Q 12.9375 14.109375 22.625 23.890625 
Q 32.328125 33.6875 34.8125 36.53125 
Q 39.546875 41.84375 41.421875 45.53125 
Q 43.3125 49.21875 43.3125 52.78125 
Q 43.3125 58.59375 39.234375 62.25 
Q 35.15625 65.921875 28.609375 65.921875 
Q 23.96875 65.921875 18.8125 64.3125 
Q 13.671875 62.703125 7.8125 59.421875 
L 7.8125 69.390625 
Q 13.765625 71.78125 18.9375 73 
Q 24.125 74.21875 28.421875 74.21875 
Q 39.75 74.21875 46.484375 68.546875 
Q 53.21875 62.890625 53.21875 53.421875 
Q 53.21875 48.921875 51.53125 44.890625 
Q 49.859375 40.875 45.40625 35.40625 
Q 44.1875 33.984375 37.640625 27.21875 
Q 31.109375 20.453125 19.1875 8.296875 
" id="BitstreamVeraSans-Roman-32"/>
      </defs>
      <g style="fill:#262626;" transform="translate(202.682956438 204.278125)scale(0.12 -0.12)">
       <use xlink:href="#BitstreamVeraSans-Roman-32"/>
      </g>
     </g>
    </g>
    <g id="xtick_2">
     <g id="line2d_4">
      <path clip-path="url(#pc3e26f1554)" d="M 327.997112 191.16 
L 327.997112 21.24 
" style="fill:none;stroke:#ffffff;stroke-linecap:round;stroke-width:0.5;"/>
     </g>
     <g id="line2d_5">
      <g>
       <use style="fill:#262626;stroke:#262626;stroke-width:0.5;" x="327.997111852" xlink:href="#m0d5def1e7e" y="191.16"/>
      </g>
     </g>
     <g id="line2d_6">
      <g>
       <use style="fill:#262626;stroke:#262626;stroke-width:0.5;" x="327.997111852" xlink:href="#m0d5def1e7e" y="21.24"/>
      </g>
     </g>
     <g id="text_2">
      <!-- 4 -->
      <defs>
       <path d="M 37.796875 64.3125 
L 12.890625 25.390625 
L 37.796875 25.390625 
z
M 35.203125 72.90625 
L 47.609375 72.90625 
L 47.609375 25.390625 
L 58.015625 25.390625 
L 58.015625 17.1875 
L 47.609375 17.1875 
L 47.609375 0 
L 37.796875 0 
L 37.796875 17.1875 
L 4.890625 17.1875 
L 4.890625 26.703125 
z
" id="BitstreamVeraSans-Roman-34"/>
      </defs>
      <g style="fill:#262626;" transform="translate(324.179611852 204.278125)scale(0.12 -0.12)">
       <use xlink:href="#BitstreamVeraSans-Roman-34"/>
      </g>
     </g>
    </g>
    <g id="xtick_3">
     <g id="line2d_7">
      <path clip-path="url(#pc3e26f1554)" d="M 449.493767 191.16 
L 449.493767 21.24 
" style="fill:none;stroke:#ffffff;stroke-linecap:round;stroke-width:0.5;"/>
     </g>
     <g id="line2d_8">
      <g>
       <use style="fill:#262626;stroke:#262626;stroke-width:0.5;" x="449.493767266" xlink:href="#m0d5def1e7e" y="191.16"/>
      </g>
     </g>
     <g id="line2d_9">
      <g>
       <use style="fill:#262626;stroke:#262626;stroke-width:0.5;" x="449.493767266" xlink:href="#m0d5def1e7e" y="21.24"/>
      </g>
     </g>
     <g id="text_3">
      <!-- 6 -->
      <defs>
       <path d="M 33.015625 40.375 
Q 26.375 40.375 22.484375 35.828125 
Q 18.609375 31.296875 18.609375 23.390625 
Q 18.609375 15.53125 22.484375 10.953125 
Q 26.375 6.390625 33.015625 6.390625 
Q 39.65625 6.390625 43.53125 10.953125 
Q 47.40625 15.53125 47.40625 23.390625 
Q 47.40625 31.296875 43.53125 35.828125 
Q 39.65625 40.375 33.015625 40.375 
M 52.59375 71.296875 
L 52.59375 62.3125 
Q 48.875 64.0625 45.09375 64.984375 
Q 41.3125 65.921875 37.59375 65.921875 
Q 27.828125 65.921875 22.671875 59.328125 
Q 17.53125 52.734375 16.796875 39.40625 
Q 19.671875 43.65625 24.015625 45.921875 
Q 28.375 48.1875 33.59375 48.1875 
Q 44.578125 48.1875 50.953125 41.515625 
Q 57.328125 34.859375 57.328125 23.390625 
Q 57.328125 12.15625 50.6875 5.359375 
Q 44.046875 -1.421875 33.015625 -1.421875 
Q 20.359375 -1.421875 13.671875 8.265625 
Q 6.984375 17.96875 6.984375 36.375 
Q 6.984375 53.65625 15.1875 63.9375 
Q 23.390625 74.21875 37.203125 74.21875 
Q 40.921875 74.21875 44.703125 73.484375 
Q 48.484375 72.75 52.59375 71.296875 
" id="BitstreamVeraSans-Roman-36"/>
      </defs>
      <g style="fill:#262626;" transform="translate(445.676267266 204.278125)scale(0.12 -0.12)">
       <use xlink:href="#BitstreamVeraSans-Roman-36"/>
      </g>
     </g>
    </g>
    <g id="xtick_4">
     <g id="line2d_10">
      <path clip-path="url(#pc3e26f1554)" d="M 570.990423 191.16 
L 570.990423 21.24 
" style="fill:none;stroke:#ffffff;stroke-linecap:round;stroke-width:0.5;"/>
     </g>
     <g id="line2d_11">
      <g>
       <use style="fill:#262626;stroke:#262626;stroke-width:0.5;" x="570.99042268" xlink:href="#m0d5def1e7e" y="191.16"/>
      </g>
     </g>
     <g id="line2d_12">
      <g>
       <use style="fill:#262626;stroke:#262626;stroke-width:0.5;" x="570.99042268" xlink:href="#m0d5def1e7e" y="21.24"/>
      </g>
     </g>
     <g id="text_4">
      <!-- 8 -->
      <defs>
       <path d="M 31.78125 34.625 
Q 24.75 34.625 20.71875 30.859375 
Q 16.703125 27.09375 16.703125 20.515625 
Q 16.703125 13.921875 20.71875 10.15625 
Q 24.75 6.390625 31.78125 6.390625 
Q 38.8125 6.390625 42.859375 10.171875 
Q 46.921875 13.96875 46.921875 20.515625 
Q 46.921875 27.09375 42.890625 30.859375 
Q 38.875 34.625 31.78125 34.625 
M 21.921875 38.8125 
Q 15.578125 40.375 12.03125 44.71875 
Q 8.5 49.078125 8.5 55.328125 
Q 8.5 64.0625 14.71875 69.140625 
Q 20.953125 74.21875 31.78125 74.21875 
Q 42.671875 74.21875 48.875 69.140625 
Q 55.078125 64.0625 55.078125 55.328125 
Q 55.078125 49.078125 51.53125 44.71875 
Q 48 40.375 41.703125 38.8125 
Q 48.828125 37.15625 52.796875 32.3125 
Q 56.78125 27.484375 56.78125 20.515625 
Q 56.78125 9.90625 50.3125 4.234375 
Q 43.84375 -1.421875 31.78125 -1.421875 
Q 19.734375 -1.421875 13.25 4.234375 
Q 6.78125 9.90625 6.78125 20.515625 
Q 6.78125 27.484375 10.78125 32.3125 
Q 14.796875 37.15625 21.921875 38.8125 
M 18.3125 54.390625 
Q 18.3125 48.734375 21.84375 45.5625 
Q 25.390625 42.390625 31.78125 42.390625 
Q 38.140625 42.390625 41.71875 45.5625 
Q 45.3125 48.734375 45.3125 54.390625 
Q 45.3125 60.0625 41.71875 63.234375 
Q 38.140625 66.40625 31.78125 66.40625 
Q 25.390625 66.40625 21.84375 63.234375 
Q 18.3125 60.0625 18.3125 54.390625 
" id="BitstreamVeraSans-Roman-38"/>
      </defs>
      <g style="fill:#262626;" transform="translate(567.17292268 204.278125)scale(0.12 -0.12)">
       <use xlink:href="#BitstreamVeraSans-Roman-38"/>
      </g>
     </g>
    </g>
    <g id="xtick_5">
     <g id="line2d_13">
      <path clip-path="url(#pc3e26f1554)" d="M 692.487078 191.16 
L 692.487078 21.24 
" style="fill:none;stroke:#ffffff;stroke-linecap:round;stroke-width:0.5;"/>
     </g>
     <g id="line2d_14">
      <g>
       <use style="fill:#262626;stroke:#262626;stroke-width:0.5;" x="692.487078094" xlink:href="#m0d5def1e7e" y="191.16"/>
      </g>
     </g>
     <g id="line2d_15">
      <g>
       <use style="fill:#262626;stroke:#262626;stroke-width:0.5;" x="692.487078094" xlink:href="#m0d5def1e7e" y="21.24"/>
      </g>
     </g>
     <g id="text_5">
      <!-- 10 -->
      <defs>
       <path d="M 31.78125 66.40625 
Q 24.171875 66.40625 20.328125 58.90625 
Q 16.5 51.421875 16.5 36.375 
Q 16.5 21.390625 20.328125 13.890625 
Q 24.171875 6.390625 31.78125 6.390625 
Q 39.453125 6.390625 43.28125 13.890625 
Q 47.125 21.390625 47.125 36.375 
Q 47.125 51.421875 43.28125 58.90625 
Q 39.453125 66.40625 31.78125 66.40625 
M 31.78125 74.21875 
Q 44.046875 74.21875 50.515625 64.515625 
Q 56.984375 54.828125 56.984375 36.375 
Q 56.984375 17.96875 50.515625 8.265625 
Q 44.046875 -1.421875 31.78125 -1.421875 
Q 19.53125 -1.421875 13.0625 8.265625 
Q 6.59375 17.96875 6.59375 36.375 
Q 6.59375 54.828125 13.0625 64.515625 
Q 19.53125 74.21875 31.78125 74.21875 
" id="BitstreamVeraSans-Roman-30"/>
       <path d="M 12.40625 8.296875 
L 28.515625 8.296875 
L 28.515625 63.921875 
L 10.984375 60.40625 
L 10.984375 69.390625 
L 28.421875 72.90625 
L 38.28125 72.90625 
L 38.28125 8.296875 
L 54.390625 8.296875 
L 54.390625 0 
L 12.40625 0 
z
" id="BitstreamVeraSans-Roman-31"/>
      </defs>
      <g style="fill:#262626;" transform="translate(684.852078094 204.278125)scale(0.12 -0.12)">
       <use xlink:href="#BitstreamVeraSans-Roman-31"/>
       <use x="63.623046875" xlink:href="#BitstreamVeraSans-Roman-30"/>
      </g>
     </g>
    </g>
    <g id="xtick_6">
     <g id="line2d_16">
      <g>
       <use style="fill:#262626;stroke:#262626;stroke-width:0.5;" x="145.752128731" xlink:href="#m0d5def1e7e" y="191.16"/>
      </g>
     </g>
     <g id="line2d_17">
      <g>
       <use style="fill:#262626;stroke:#262626;stroke-width:0.5;" x="145.752128731" xlink:href="#m0d5def1e7e" y="21.24"/>
      </g>
     </g>
    </g>
    <g id="xtick_7">
     <g id="line2d_18">
      <g>
       <use style="fill:#262626;stroke:#262626;stroke-width:0.5;" x="176.126292585" xlink:href="#m0d5def1e7e" y="191.16"/>
      </g>
     </g>
     <g id="line2d_19">
      <g>
       <use style="fill:#262626;stroke:#262626;stroke-width:0.5;" x="176.126292585" xlink:href="#m0d5def1e7e" y="21.24"/>
      </g>
     </g>
    </g>
    <g id="xtick_8">
     <g id="line2d_20">
      <g>
       <use style="fill:#262626;stroke:#262626;stroke-width:0.5;" x="236.874620292" xlink:href="#m0d5def1e7e" y="191.16"/>
      </g>
     </g>
     <g id="line2d_21">
      <g>
       <use style="fill:#262626;stroke:#262626;stroke-width:0.5;" x="236.874620292" xlink:href="#m0d5def1e7e" y="21.24"/>
      </g>
     </g>
    </g>
    <g id="xtick_9">
     <g id="line2d_22">
      <g>
       <use style="fill:#262626;stroke:#262626;stroke-width:0.5;" x="267.248784145" xlink:href="#m0d5def1e7e" y="191.16"/>
      </g>
     </g>
     <g id="line2d_23">
      <g>
       <use style="fill:#262626;stroke:#262626;stroke-width:0.5;" x="267.248784145" xlink:href="#m0d5def1e7e" y="21.24"/>
      </g>
     </g>
    </g>
    <g id="xtick_10">
     <g id="line2d_24">
      <g>
       <use style="fill:#262626;stroke:#262626;stroke-width:0.5;" x="297.622947999" xlink:href="#m0d5def1e7e" y="191.16"/>
      </g>
     </g>
     <g id="line2d_25">
      <g>
       <use style="fill:#262626;stroke:#262626;stroke-width:0.5;" x="297.622947999" xlink:href="#m0d5def1e7e" y="21.24"/>
      </g>
     </g>
    </g>
    <g id="xtick_11">
     <g id="line2d_26">
      <g>
       <use style="fill:#262626;stroke:#262626;stroke-width:0.5;" x="358.371275706" xlink:href="#m0d5def1e7e" y="191.16"/>
      </g>
     </g>
     <g id="line2d_27">
      <g>
       <use style="fill:#262626;stroke:#262626;stroke-width:0.5;" x="358.371275706" xlink:href="#m0d5def1e7e" y="21.24"/>
      </g>
     </g>
    </g>
    <g id="xtick_12">
     <g id="line2d_28">
      <g>
       <use style="fill:#262626;stroke:#262626;stroke-width:0.5;" x="388.745439559" xlink:href="#m0d5def1e7e" y="191.16"/>
      </g>
     </g>
     <g id="line2d_29">
      <g>
       <use style="fill:#262626;stroke:#262626;stroke-width:0.5;" x="388.745439559" xlink:href="#m0d5def1e7e" y="21.24"/>
      </g>
     </g>
    </g>
    <g id="xtick_13">
     <g id="line2d_30">
      <g>
       <use style="fill:#262626;stroke:#262626;stroke-width:0.5;" x="419.119603413" xlink:href="#m0d5def1e7e" y="191.16"/>
      </g>
     </g>
     <g id="line2d_31">
      <g>
       <use style="fill:#262626;stroke:#262626;stroke-width:0.5;" x="419.119603413" xlink:href="#m0d5def1e7e" y="21.24"/>
      </g>
     </g>
    </g>
    <g id="xtick_14">
     <g id="line2d_32">
      <g>
       <use style="fill:#262626;stroke:#262626;stroke-width:0.5;" x="479.86793112" xlink:href="#m0d5def1e7e" y="191.16"/>
      </g>
     </g>
     <g id="line2d_33">
      <g>
       <use style="fill:#262626;stroke:#262626;stroke-width:0.5;" x="479.86793112" xlink:href="#m0d5def1e7e" y="21.24"/>
      </g>
     </g>
    </g>
    <g id="xtick_15">
     <g id="line2d_34">
      <g>
       <use style="fill:#262626;stroke:#262626;stroke-width:0.5;" x="510.242094973" xlink:href="#m0d5def1e7e" y="191.16"/>
      </g>
     </g>
     <g id="line2d_35">
      <g>
       <use style="fill:#262626;stroke:#262626;stroke-width:0.5;" x="510.242094973" xlink:href="#m0d5def1e7e" y="21.24"/>
      </g>
     </g>
    </g>
    <g id="xtick_16">
     <g id="line2d_36">
      <g>
       <use style="fill:#262626;stroke:#262626;stroke-width:0.5;" x="540.616258826" xlink:href="#m0d5def1e7e" y="191.16"/>
      </g>
     </g>
     <g id="line2d_37">
      <g>
       <use style="fill:#262626;stroke:#262626;stroke-width:0.5;" x="540.616258826" xlink:href="#m0d5def1e7e" y="21.24"/>
      </g>
     </g>
    </g>
    <g id="xtick_17">
     <g id="line2d_38">
      <g>
       <use style="fill:#262626;stroke:#262626;stroke-width:0.5;" x="601.364586533" xlink:href="#m0d5def1e7e" y="191.16"/>
      </g>
     </g>
     <g id="line2d_39">
      <g>
       <use style="fill:#262626;stroke:#262626;stroke-width:0.5;" x="601.364586533" xlink:href="#m0d5def1e7e" y="21.24"/>
      </g>
     </g>
    </g>
    <g id="xtick_18">
     <g id="line2d_40">
      <g>
       <use style="fill:#262626;stroke:#262626;stroke-width:0.5;" x="631.738750387" xlink:href="#m0d5def1e7e" y="191.16"/>
      </g>
     </g>
     <g id="line2d_41">
      <g>
       <use style="fill:#262626;stroke:#262626;stroke-width:0.5;" x="631.738750387" xlink:href="#m0d5def1e7e" y="21.24"/>
      </g>
     </g>
    </g>
    <g id="xtick_19">
     <g id="line2d_42">
      <g>
       <use style="fill:#262626;stroke:#262626;stroke-width:0.5;" x="662.11291424" xlink:href="#m0d5def1e7e" y="191.16"/>
      </g>
     </g>
     <g id="line2d_43">
      <g>
       <use style="fill:#262626;stroke:#262626;stroke-width:0.5;" x="662.11291424" xlink:href="#m0d5def1e7e" y="21.24"/>
      </g>
     </g>
    </g>
    <g id="text_6">
     <!-- Latency (ms) -->
     <defs>
      <path id="BitstreamVeraSans-Roman-20"/>
      <path d="M 52 44.1875 
Q 55.375 50.25 60.0625 53.125 
Q 64.75 56 71.09375 56 
Q 79.640625 56 84.28125 50.015625 
Q 88.921875 44.046875 88.921875 33.015625 
L 88.921875 0 
L 79.890625 0 
L 79.890625 32.71875 
Q 79.890625 40.578125 77.09375 44.375 
Q 74.3125 48.1875 68.609375 48.1875 
Q 61.625 48.1875 57.5625 43.546875 
Q 53.515625 38.921875 53.515625 30.90625 
L 53.515625 0 
L 44.484375 0 
L 44.484375 32.71875 
Q 44.484375 40.625 41.703125 44.40625 
Q 38.921875 48.1875 33.109375 48.1875 
Q 26.21875 48.1875 22.15625 43.53125 
Q 18.109375 38.875 18.109375 30.90625 
L 18.109375 0 
L 9.078125 0 
L 9.078125 54.6875 
L 18.109375 54.6875 
L 18.109375 46.1875 
Q 21.1875 51.21875 25.484375 53.609375 
Q 29.78125 56 35.6875 56 
Q 41.65625 56 45.828125 52.96875 
Q 50 49.953125 52 44.1875 
" id="BitstreamVeraSans-Roman-6d"/>
      <path d="M 9.8125 72.90625 
L 19.671875 72.90625 
L 19.671875 8.296875 
L 55.171875 8.296875 
L 55.171875 0 
L 9.8125 0 
z
" id="BitstreamVeraSans-Roman-4c"/>
      <path d="M 54.890625 33.015625 
L 54.890625 0 
L 45.90625 0 
L 45.90625 32.71875 
Q 45.90625 40.484375 42.875 44.328125 
Q 39.84375 48.1875 33.796875 48.1875 
Q 26.515625 48.1875 22.3125 43.546875 
Q 18.109375 38.921875 18.109375 30.90625 
L 18.109375 0 
L 9.078125 0 
L 9.078125 54.6875 
L 18.109375 54.6875 
L 18.109375 46.1875 
Q 21.34375 51.125 25.703125 53.5625 
Q 30.078125 56 35.796875 56 
Q 45.21875 56 50.046875 50.171875 
Q 54.890625 44.34375 54.890625 33.015625 
" id="BitstreamVeraSans-Roman-6e"/>
      <path d="M 31 75.875 
Q 24.46875 64.65625 21.28125 53.65625 
Q 18.109375 42.671875 18.109375 31.390625 
Q 18.109375 20.125 21.3125 9.0625 
Q 24.515625 -2 31 -13.1875 
L 23.1875 -13.1875 
Q 15.875 -1.703125 12.234375 9.375 
Q 8.59375 20.453125 8.59375 31.390625 
Q 8.59375 42.28125 12.203125 53.3125 
Q 15.828125 64.359375 23.1875 75.875 
z
" id="BitstreamVeraSans-Roman-28"/>
      <path d="M 8.015625 75.875 
L 15.828125 75.875 
Q 23.140625 64.359375 26.78125 53.3125 
Q 30.421875 42.28125 30.421875 31.390625 
Q 30.421875 20.453125 26.78125 9.375 
Q 23.140625 -1.703125 15.828125 -13.1875 
L 8.015625 -13.1875 
Q 14.5 -2 17.703125 9.0625 
Q 20.90625 20.125 20.90625 31.390625 
Q 20.90625 42.671875 17.703125 53.65625 
Q 14.5 64.65625 8.015625 75.875 
" id="BitstreamVeraSans-Roman-29"/>
      <path d="M 32.171875 -5.078125 
Q 28.375 -14.84375 24.75 -17.8125 
Q 21.140625 -20.796875 15.09375 -20.796875 
L 7.90625 -20.796875 
L 7.90625 -13.28125 
L 13.1875 -13.28125 
Q 16.890625 -13.28125 18.9375 -11.515625 
Q 21 -9.765625 23.484375 -3.21875 
L 25.09375 0.875 
L 2.984375 54.6875 
L 12.5 54.6875 
L 29.59375 11.921875 
L 46.6875 54.6875 
L 56.203125 54.6875 
z
" id="BitstreamVeraSans-Roman-79"/>
      <path d="M 56.203125 29.59375 
L 56.203125 25.203125 
L 14.890625 25.203125 
Q 15.484375 15.921875 20.484375 11.0625 
Q 25.484375 6.203125 34.421875 6.203125 
Q 39.59375 6.203125 44.453125 7.46875 
Q 49.3125 8.734375 54.109375 11.28125 
L 54.109375 2.78125 
Q 49.265625 0.734375 44.1875 -0.34375 
Q 39.109375 -1.421875 33.890625 -1.421875 
Q 20.796875 -1.421875 13.15625 6.1875 
Q 5.515625 13.8125 5.515625 26.8125 
Q 5.515625 40.234375 12.765625 48.109375 
Q 20.015625 56 32.328125 56 
Q 43.359375 56 49.78125 48.890625 
Q 56.203125 41.796875 56.203125 29.59375 
M 47.21875 32.234375 
Q 47.125 39.59375 43.09375 43.984375 
Q 39.0625 48.390625 32.421875 48.390625 
Q 24.90625 48.390625 20.390625 44.140625 
Q 15.875 39.890625 15.1875 32.171875 
z
" id="BitstreamVeraSans-Roman-65"/>
      <path d="M 18.3125 70.21875 
L 18.3125 54.6875 
L 36.8125 54.6875 
L 36.8125 47.703125 
L 18.3125 47.703125 
L 18.3125 18.015625 
Q 18.3125 11.328125 20.140625 9.421875 
Q 21.96875 7.515625 27.59375 7.515625 
L 36.8125 7.515625 
L 36.8125 0 
L 27.59375 0 
Q 17.1875 0 13.234375 3.875 
Q 9.28125 7.765625 9.28125 18.015625 
L 9.28125 47.703125 
L 2.6875 47.703125 
L 2.6875 54.6875 
L 9.28125 54.6875 
L 9.28125 70.21875 
z
" id="BitstreamVeraSans-Roman-74"/>
      <path d="M 34.28125 27.484375 
Q 23.390625 27.484375 19.1875 25 
Q 14.984375 22.515625 14.984375 16.5 
Q 14.984375 11.71875 18.140625 8.90625 
Q 21.296875 6.109375 26.703125 6.109375 
Q 34.1875 6.109375 38.703125 11.40625 
Q 43.21875 16.703125 43.21875 25.484375 
L 43.21875 27.484375 
z
M 52.203125 31.203125 
L 52.203125 0 
L 43.21875 0 
L 43.21875 8.296875 
Q 40.140625 3.328125 35.546875 0.953125 
Q 30.953125 -1.421875 24.3125 -1.421875 
Q 15.921875 -1.421875 10.953125 3.296875 
Q 6 8.015625 6 15.921875 
Q 6 25.140625 12.171875 29.828125 
Q 18.359375 34.515625 30.609375 34.515625 
L 43.21875 34.515625 
L 43.21875 35.40625 
Q 43.21875 41.609375 39.140625 45 
Q 35.0625 48.390625 27.6875 48.390625 
Q 23 48.390625 18.546875 47.265625 
Q 14.109375 46.140625 10.015625 43.890625 
L 10.015625 52.203125 
Q 14.9375 54.109375 19.578125 55.046875 
Q 24.21875 56 28.609375 56 
Q 40.484375 56 46.34375 49.84375 
Q 52.203125 43.703125 52.203125 31.203125 
" id="BitstreamVeraSans-Roman-61"/>
      <path d="M 44.28125 53.078125 
L 44.28125 44.578125 
Q 40.484375 46.53125 36.375 47.5 
Q 32.28125 48.484375 27.875 48.484375 
Q 21.1875 48.484375 17.84375 46.4375 
Q 14.5 44.390625 14.5 40.28125 
Q 14.5 37.15625 16.890625 35.375 
Q 19.28125 33.59375 26.515625 31.984375 
L 29.59375 31.296875 
Q 39.15625 29.25 43.1875 25.515625 
Q 47.21875 21.78125 47.21875 15.09375 
Q 47.21875 7.46875 41.1875 3.015625 
Q 35.15625 -1.421875 24.609375 -1.421875 
Q 20.21875 -1.421875 15.453125 -0.5625 
Q 10.6875 0.296875 5.421875 2 
L 5.421875 11.28125 
Q 10.40625 8.6875 15.234375 7.390625 
Q 20.0625 6.109375 24.8125 6.109375 
Q 31.15625 6.109375 34.5625 8.28125 
Q 37.984375 10.453125 37.984375 14.40625 
Q 37.984375 18.0625 35.515625 20.015625 
Q 33.0625 21.96875 24.703125 23.78125 
L 21.578125 24.515625 
Q 13.234375 26.265625 9.515625 29.90625 
Q 5.8125 33.546875 5.8125 39.890625 
Q 5.8125 47.609375 11.28125 51.796875 
Q 16.75 56 26.8125 56 
Q 31.78125 56 36.171875 55.265625 
Q 40.578125 54.546875 44.28125 53.078125 
" id="BitstreamVeraSans-Roman-73"/>
      <path d="M 48.78125 52.59375 
L 48.78125 44.1875 
Q 44.96875 46.296875 41.140625 47.34375 
Q 37.3125 48.390625 33.40625 48.390625 
Q 24.65625 48.390625 19.8125 42.84375 
Q 14.984375 37.3125 14.984375 27.296875 
Q 14.984375 17.28125 19.8125 11.734375 
Q 24.65625 6.203125 33.40625 6.203125 
Q 37.3125 6.203125 41.140625 7.25 
Q 44.96875 8.296875 48.78125 10.40625 
L 48.78125 2.09375 
Q 45.015625 0.34375 40.984375 -0.53125 
Q 36.96875 -1.421875 32.421875 -1.421875 
Q 20.0625 -1.421875 12.78125 6.34375 
Q 5.515625 14.109375 5.515625 27.296875 
Q 5.515625 40.671875 12.859375 48.328125 
Q 20.21875 56 33.015625 56 
Q 37.15625 56 41.109375 55.140625 
Q 45.0625 54.296875 48.78125 52.59375 
" id="BitstreamVeraSans-Roman-63"/>
     </defs>
     <g style="fill:#262626;" transform="translate(365.754075 220.891875)scale(0.12 -0.12)">
      <use xlink:href="#BitstreamVeraSans-Roman-4c"/>
      <use x="55.712890625" xlink:href="#BitstreamVeraSans-Roman-61"/>
      <use x="116.9921875" xlink:href="#BitstreamVeraSans-Roman-74"/>
      <use x="156.201171875" xlink:href="#BitstreamVeraSans-Roman-65"/>
      <use x="217.724609375" xlink:href="#BitstreamVeraSans-Roman-6e"/>
      <use x="281.103515625" xlink:href="#BitstreamVeraSans-Roman-63"/>
      <use x="336.083984375" xlink:href="#BitstreamVeraSans-Roman-79"/>
      <use x="395.263671875" xlink:href="#BitstreamVeraSans-Roman-20"/>
      <use x="427.05078125" xlink:href="#BitstreamVeraSans-Roman-28"/>
      <use x="466.064453125" xlink:href="#BitstreamVeraSans-Roman-6d"/>
      <use x="563.4765625" xlink:href="#BitstreamVeraSans-Roman-73"/>
      <use x="615.576171875" xlink:href="#BitstreamVeraSans-Roman-29"/>
     </g>
    </g>
   </g>
   <g id="matplotlib.axis_2">
    <g id="ytick_1">
     <g id="text_7">
      <!-- 0.0 -->
      <defs>
       <path d="M 10.6875 12.40625 
L 21 12.40625 
L 21 0 
L 10.6875 0 
z
" id="BitstreamVeraSans-Roman-2e"/>
      </defs>
      <g style="fill:#262626;" transform="translate(92.45375 194.832014331)scale(0.12 -0.12)">
       <use xlink:href="#BitstreamVeraSans-Roman-30"/>
       <use x="63.623046875" xlink:href="#BitstreamVeraSans-Roman-2e"/>
       <use x="95.41015625" xlink:href="#BitstreamVeraSans-Roman-30"/>
      </g>
     </g>
    </g>
    <g id="ytick_2">
     <g id="line2d_44">
      <path clip-path="url(#pc3e26f1554)" d="M 115.5375 157.464611 
L 694.5219 157.464611 
" style="fill:none;stroke:#ffffff;stroke-linecap:round;stroke-width:0.5;"/>
     </g>
     <g id="line2d_45">
      <g>
       <use style="fill:#262626;stroke:#262626;stroke-width:0.5;" x="115.5375" xlink:href="#m0d5def1e7e" y="157.464611465"/>
      </g>
     </g>
     <g id="line2d_46">
      <g>
       <use style="fill:#262626;stroke:#262626;stroke-width:0.5;" x="694.5219" xlink:href="#m0d5def1e7e" y="157.464611465"/>
      </g>
     </g>
     <g id="text_8">
      <!-- 0.2 -->
      <g style="fill:#262626;" transform="translate(92.45375 160.775861465)scale(0.12 -0.12)">
       <use xlink:href="#BitstreamVeraSans-Roman-30"/>
       <use x="63.623046875" xlink:href="#BitstreamVeraSans-Roman-2e"/>
       <use x="95.41015625" xlink:href="#BitstreamVeraSans-Roman-32"/>
      </g>
     </g>
    </g>
    <g id="ytick_3">
     <g id="line2d_47">
      <path clip-path="url(#pc3e26f1554)" d="M 115.5375 123.408459 
L 694.5219 123.408459 
" style="fill:none;stroke:#ffffff;stroke-linecap:round;stroke-width:0.5;"/>
     </g>
     <g id="line2d_48">
      <g>
       <use style="fill:#262626;stroke:#262626;stroke-width:0.5;" x="115.5375" xlink:href="#m0d5def1e7e" y="123.408458599"/>
      </g>
     </g>
     <g id="line2d_49">
      <g>
       <use style="fill:#262626;stroke:#262626;stroke-width:0.5;" x="694.5219" xlink:href="#m0d5def1e7e" y="123.408458599"/>
      </g>
     </g>
     <g id="text_9">
      <!-- 0.4 -->
      <g style="fill:#262626;" transform="translate(92.45375 126.719708599)scale(0.12 -0.12)">
       <use xlink:href="#BitstreamVeraSans-Roman-30"/>
       <use x="63.623046875" xlink:href="#BitstreamVeraSans-Roman-2e"/>
       <use x="95.41015625" xlink:href="#BitstreamVeraSans-Roman-34"/>
      </g>
     </g>
    </g>
    <g id="ytick_4">
     <g id="line2d_50">
      <path clip-path="url(#pc3e26f1554)" d="M 115.5375 89.352306 
L 694.5219 89.352306 
" style="fill:none;stroke:#ffffff;stroke-linecap:round;stroke-width:0.5;"/>
     </g>
     <g id="line2d_51">
      <g>
       <use style="fill:#262626;stroke:#262626;stroke-width:0.5;" x="115.5375" xlink:href="#m0d5def1e7e" y="89.3523057325"/>
      </g>
     </g>
     <g id="line2d_52">
      <g>
       <use style="fill:#262626;stroke:#262626;stroke-width:0.5;" x="694.5219" xlink:href="#m0d5def1e7e" y="89.3523057325"/>
      </g>
     </g>
     <g id="text_10">
      <!-- 0.6 -->
      <g style="fill:#262626;" transform="translate(92.45375 92.6635557325)scale(0.12 -0.12)">
       <use xlink:href="#BitstreamVeraSans-Roman-30"/>
       <use x="63.623046875" xlink:href="#BitstreamVeraSans-Roman-2e"/>
       <use x="95.41015625" xlink:href="#BitstreamVeraSans-Roman-36"/>
      </g>
     </g>
    </g>
    <g id="ytick_5">
     <g id="line2d_53">
      <path clip-path="url(#pc3e26f1554)" d="M 115.5375 55.296153 
L 694.5219 55.296153 
" style="fill:none;stroke:#ffffff;stroke-linecap:round;stroke-width:0.5;"/>
     </g>
     <g id="line2d_54">
      <g>
       <use style="fill:#262626;stroke:#262626;stroke-width:0.5;" x="115.5375" xlink:href="#m0d5def1e7e" y="55.2961528662"/>
      </g>
     </g>
     <g id="line2d_55">
      <g>
       <use style="fill:#262626;stroke:#262626;stroke-width:0.5;" x="694.5219" xlink:href="#m0d5def1e7e" y="55.2961528662"/>
      </g>
     </g>
     <g id="text_11">
      <!-- 0.8 -->
      <g style="fill:#262626;" transform="translate(92.45375 58.6074028662)scale(0.12 -0.12)">
       <use xlink:href="#BitstreamVeraSans-Roman-30"/>
       <use x="63.623046875" xlink:href="#BitstreamVeraSans-Roman-2e"/>
       <use x="95.41015625" xlink:href="#BitstreamVeraSans-Roman-38"/>
      </g>
     </g>
    </g>
    <g id="ytick_6">
     <g id="line2d_56">
      <path clip-path="url(#pc3e26f1554)" d="M 115.5375 21.24 
L 694.5219 21.24 
" style="fill:none;stroke:#ffffff;stroke-linecap:round;stroke-width:0.5;"/>
     </g>
     <g id="line2d_57">
      <g>
       <use style="fill:#262626;stroke:#262626;stroke-width:0.5;" x="115.5375" xlink:href="#m0d5def1e7e" y="21.24"/>
      </g>
     </g>
     <g id="line2d_58">
      <g>
       <use style="fill:#262626;stroke:#262626;stroke-width:0.5;" x="694.5219" xlink:href="#m0d5def1e7e" y="21.24"/>
      </g>
     </g>
     <g id="text_12">
      <!-- 1.0 -->
      <g style="fill:#262626;" transform="translate(92.45375 24.55125)scale(0.12 -0.12)">
       <use xlink:href="#BitstreamVeraSans-Roman-31"/>
       <use x="63.623046875" xlink:href="#BitstreamVeraSans-Roman-2e"/>
       <use x="95.41015625" xlink:href="#BitstreamVeraSans-Roman-30"/>
      </g>
     </g>
    </g>
    <g id="ytick_7">
     <g id="line2d_59">
      <g>
       <use style="fill:#262626;stroke:#262626;stroke-width:0.5;" x="115.5375" xlink:href="#m0d5def1e7e" y="183.006726115"/>
      </g>
     </g>
     <g id="line2d_60">
      <g>
       <use style="fill:#262626;stroke:#262626;stroke-width:0.5;" x="694.5219" xlink:href="#m0d5def1e7e" y="183.006726115"/>
      </g>
     </g>
    </g>
    <g id="ytick_8">
     <g id="line2d_61">
      <g>
       <use style="fill:#262626;stroke:#262626;stroke-width:0.5;" x="115.5375" xlink:href="#m0d5def1e7e" y="174.492687898"/>
      </g>
     </g>
     <g id="line2d_62">
      <g>
       <use style="fill:#262626;stroke:#262626;stroke-width:0.5;" x="694.5219" xlink:href="#m0d5def1e7e" y="174.492687898"/>
      </g>
     </g>
    </g>
    <g id="ytick_9">
     <g id="line2d_63">
      <g>
       <use style="fill:#262626;stroke:#262626;stroke-width:0.5;" x="115.5375" xlink:href="#m0d5def1e7e" y="165.978649682"/>
      </g>
     </g>
     <g id="line2d_64">
      <g>
       <use style="fill:#262626;stroke:#262626;stroke-width:0.5;" x="694.5219" xlink:href="#m0d5def1e7e" y="165.978649682"/>
      </g>
     </g>
    </g>
    <g id="ytick_10">
     <g id="line2d_65">
      <g>
       <use style="fill:#262626;stroke:#262626;stroke-width:0.5;" x="115.5375" xlink:href="#m0d5def1e7e" y="148.950573248"/>
      </g>
     </g>
     <g id="line2d_66">
      <g>
       <use style="fill:#262626;stroke:#262626;stroke-width:0.5;" x="694.5219" xlink:href="#m0d5def1e7e" y="148.950573248"/>
      </g>
     </g>
    </g>
    <g id="ytick_11">
     <g id="line2d_67">
      <g>
       <use style="fill:#262626;stroke:#262626;stroke-width:0.5;" x="115.5375" xlink:href="#m0d5def1e7e" y="140.436535032"/>
      </g>
     </g>
     <g id="line2d_68">
      <g>
       <use style="fill:#262626;stroke:#262626;stroke-width:0.5;" x="694.5219" xlink:href="#m0d5def1e7e" y="140.436535032"/>
      </g>
     </g>
    </g>
    <g id="ytick_12">
     <g id="line2d_69">
      <g>
       <use style="fill:#262626;stroke:#262626;stroke-width:0.5;" x="115.5375" xlink:href="#m0d5def1e7e" y="131.922496815"/>
      </g>
     </g>
     <g id="line2d_70">
      <g>
       <use style="fill:#262626;stroke:#262626;stroke-width:0.5;" x="694.5219" xlink:href="#m0d5def1e7e" y="131.922496815"/>
      </g>
     </g>
    </g>
    <g id="ytick_13">
     <g id="line2d_71">
      <g>
       <use style="fill:#262626;stroke:#262626;stroke-width:0.5;" x="115.5375" xlink:href="#m0d5def1e7e" y="114.894420382"/>
      </g>
     </g>
     <g id="line2d_72">
      <g>
       <use style="fill:#262626;stroke:#262626;stroke-width:0.5;" x="694.5219" xlink:href="#m0d5def1e7e" y="114.894420382"/>
      </g>
     </g>
    </g>
    <g id="ytick_14">
     <g id="line2d_73">
      <g>
       <use style="fill:#262626;stroke:#262626;stroke-width:0.5;" x="115.5375" xlink:href="#m0d5def1e7e" y="106.380382166"/>
      </g>
     </g>
     <g id="line2d_74">
      <g>
       <use style="fill:#262626;stroke:#262626;stroke-width:0.5;" x="694.5219" xlink:href="#m0d5def1e7e" y="106.380382166"/>
      </g>
     </g>
    </g>
    <g id="ytick_15">
     <g id="line2d_75">
      <g>
       <use style="fill:#262626;stroke:#262626;stroke-width:0.5;" x="115.5375" xlink:href="#m0d5def1e7e" y="97.866343949"/>
      </g>
     </g>
     <g id="line2d_76">
      <g>
       <use style="fill:#262626;stroke:#262626;stroke-width:0.5;" x="694.5219" xlink:href="#m0d5def1e7e" y="97.866343949"/>
      </g>
     </g>
    </g>
    <g id="ytick_16">
     <g id="line2d_77">
      <g>
       <use style="fill:#262626;stroke:#262626;stroke-width:0.5;" x="115.5375" xlink:href="#m0d5def1e7e" y="80.8382675159"/>
      </g>
     </g>
     <g id="line2d_78">
      <g>
       <use style="fill:#262626;stroke:#262626;stroke-width:0.5;" x="694.5219" xlink:href="#m0d5def1e7e" y="80.8382675159"/>
      </g>
     </g>
    </g>
    <g id="ytick_17">
     <g id="line2d_79">
      <g>
       <use style="fill:#262626;stroke:#262626;stroke-width:0.5;" x="115.5375" xlink:href="#m0d5def1e7e" y="72.3242292994"/>
      </g>
     </g>
     <g id="line2d_80">
      <g>
       <use style="fill:#262626;stroke:#262626;stroke-width:0.5;" x="694.5219" xlink:href="#m0d5def1e7e" y="72.3242292994"/>
      </g>
     </g>
    </g>
    <g id="ytick_18">
     <g id="line2d_81">
      <g>
       <use style="fill:#262626;stroke:#262626;stroke-width:0.5;" x="115.5375" xlink:href="#m0d5def1e7e" y="63.8101910828"/>
      </g>
     </g>
     <g id="line2d_82">
      <g>
       <use style="fill:#262626;stroke:#262626;stroke-width:0.5;" x="694.5219" xlink:href="#m0d5def1e7e" y="63.8101910828"/>
      </g>
     </g>
    </g>
    <g id="ytick_19">
     <g id="line2d_83">
      <g>
       <use style="fill:#262626;stroke:#262626;stroke-width:0.5;" x="115.5375" xlink:href="#m0d5def1e7e" y="46.7821146497"/>
      </g>
     </g>
     <g id="line2d_84">
      <g>
       <use style="fill:#262626;stroke:#262626;stroke-width:0.5;" x="694.5219" xlink:href="#m0d5def1e7e" y="46.7821146497"/>
      </g>
     </g>
    </g>
    <g id="ytick_20">
     <g id="line2d_85">
      <g>
       <use style="fill:#262626;stroke:#262626;stroke-width:0.5;" x="115.5375" xlink:href="#m0d5def1e7e" y="38.2680764331"/>
      </g>
     </g>
     <g id="line2d_86">
      <g>
       <use style="fill:#262626;stroke:#262626;stroke-width:0.5;" x="694.5219" xlink:href="#m0d5def1e7e" y="38.2680764331"/>
      </g>
     </g>
    </g>
    <g id="ytick_21">
     <g id="line2d_87">
      <g>
       <use style="fill:#262626;stroke:#262626;stroke-width:0.5;" x="115.5375" xlink:href="#m0d5def1e7e" y="29.7540382166"/>
      </g>
     </g>
     <g id="line2d_88">
      <g>
       <use style="fill:#262626;stroke:#262626;stroke-width:0.5;" x="694.5219" xlink:href="#m0d5def1e7e" y="29.7540382166"/>
      </g>
     </g>
    </g>
    <g id="text_13">
     <!-- Cumulative probability -->
     <defs>
      <path d="M 30.609375 48.390625 
Q 23.390625 48.390625 19.1875 42.75 
Q 14.984375 37.109375 14.984375 27.296875 
Q 14.984375 17.484375 19.15625 11.84375 
Q 23.34375 6.203125 30.609375 6.203125 
Q 37.796875 6.203125 41.984375 11.859375 
Q 46.1875 17.53125 46.1875 27.296875 
Q 46.1875 37.015625 41.984375 42.703125 
Q 37.796875 48.390625 30.609375 48.390625 
M 30.609375 56 
Q 42.328125 56 49.015625 48.375 
Q 55.71875 40.765625 55.71875 27.296875 
Q 55.71875 13.875 49.015625 6.21875 
Q 42.328125 -1.421875 30.609375 -1.421875 
Q 18.84375 -1.421875 12.171875 6.21875 
Q 5.515625 13.875 5.515625 27.296875 
Q 5.515625 40.765625 12.171875 48.375 
Q 18.84375 56 30.609375 56 
" id="BitstreamVeraSans-Roman-6f"/>
      <path d="M 9.421875 75.984375 
L 18.40625 75.984375 
L 18.40625 0 
L 9.421875 0 
z
" id="BitstreamVeraSans-Roman-6c"/>
      <path d="M 9.421875 54.6875 
L 18.40625 54.6875 
L 18.40625 0 
L 9.421875 0 
z
M 9.421875 75.984375 
L 18.40625 75.984375 
L 18.40625 64.59375 
L 9.421875 64.59375 
z
" id="BitstreamVeraSans-Roman-69"/>
      <path d="M 2.984375 54.6875 
L 12.5 54.6875 
L 29.59375 8.796875 
L 46.6875 54.6875 
L 56.203125 54.6875 
L 35.6875 0 
L 23.484375 0 
z
" id="BitstreamVeraSans-Roman-76"/>
      <path d="M 64.40625 67.28125 
L 64.40625 56.890625 
Q 59.421875 61.53125 53.78125 63.8125 
Q 48.140625 66.109375 41.796875 66.109375 
Q 29.296875 66.109375 22.65625 58.46875 
Q 16.015625 50.828125 16.015625 36.375 
Q 16.015625 21.96875 22.65625 14.328125 
Q 29.296875 6.6875 41.796875 6.6875 
Q 48.140625 6.6875 53.78125 8.984375 
Q 59.421875 11.28125 64.40625 15.921875 
L 64.40625 5.609375 
Q 59.234375 2.09375 53.4375 0.328125 
Q 47.65625 -1.421875 41.21875 -1.421875 
Q 24.65625 -1.421875 15.125 8.703125 
Q 5.609375 18.84375 5.609375 36.375 
Q 5.609375 53.953125 15.125 64.078125 
Q 24.65625 74.21875 41.21875 74.21875 
Q 47.75 74.21875 53.53125 72.484375 
Q 59.328125 70.75 64.40625 67.28125 
" id="BitstreamVeraSans-Roman-43"/>
      <path d="M 8.5 21.578125 
L 8.5 54.6875 
L 17.484375 54.6875 
L 17.484375 21.921875 
Q 17.484375 14.15625 20.5 10.265625 
Q 23.53125 6.390625 29.59375 6.390625 
Q 36.859375 6.390625 41.078125 11.03125 
Q 45.3125 15.671875 45.3125 23.6875 
L 45.3125 54.6875 
L 54.296875 54.6875 
L 54.296875 0 
L 45.3125 0 
L 45.3125 8.40625 
Q 42.046875 3.421875 37.71875 1 
Q 33.40625 -1.421875 27.6875 -1.421875 
Q 18.265625 -1.421875 13.375 4.4375 
Q 8.5 10.296875 8.5 21.578125 
" id="BitstreamVeraSans-Roman-75"/>
      <path d="M 41.109375 46.296875 
Q 39.59375 47.171875 37.8125 47.578125 
Q 36.03125 48 33.890625 48 
Q 26.265625 48 22.1875 43.046875 
Q 18.109375 38.09375 18.109375 28.8125 
L 18.109375 0 
L 9.078125 0 
L 9.078125 54.6875 
L 18.109375 54.6875 
L 18.109375 46.1875 
Q 20.953125 51.171875 25.484375 53.578125 
Q 30.03125 56 36.53125 56 
Q 37.453125 56 38.578125 55.875 
Q 39.703125 55.765625 41.0625 55.515625 
z
" id="BitstreamVeraSans-Roman-72"/>
      <path d="M 18.109375 8.203125 
L 18.109375 -20.796875 
L 9.078125 -20.796875 
L 9.078125 54.6875 
L 18.109375 54.6875 
L 18.109375 46.390625 
Q 20.953125 51.265625 25.265625 53.625 
Q 29.59375 56 35.59375 56 
Q 45.5625 56 51.78125 48.09375 
Q 58.015625 40.1875 58.015625 27.296875 
Q 58.015625 14.40625 51.78125 6.484375 
Q 45.5625 -1.421875 35.59375 -1.421875 
Q 29.59375 -1.421875 25.265625 0.953125 
Q 20.953125 3.328125 18.109375 8.203125 
M 48.6875 27.296875 
Q 48.6875 37.203125 44.609375 42.84375 
Q 40.53125 48.484375 33.40625 48.484375 
Q 26.265625 48.484375 22.1875 42.84375 
Q 18.109375 37.203125 18.109375 27.296875 
Q 18.109375 17.390625 22.1875 11.75 
Q 26.265625 6.109375 33.40625 6.109375 
Q 40.53125 6.109375 44.609375 11.75 
Q 48.6875 17.390625 48.6875 27.296875 
" id="BitstreamVeraSans-Roman-70"/>
      <path d="M 48.6875 27.296875 
Q 48.6875 37.203125 44.609375 42.84375 
Q 40.53125 48.484375 33.40625 48.484375 
Q 26.265625 48.484375 22.1875 42.84375 
Q 18.109375 37.203125 18.109375 27.296875 
Q 18.109375 17.390625 22.1875 11.75 
Q 26.265625 6.109375 33.40625 6.109375 
Q 40.53125 6.109375 44.609375 11.75 
Q 48.6875 17.390625 48.6875 27.296875 
M 18.109375 46.390625 
Q 20.953125 51.265625 25.265625 53.625 
Q 29.59375 56 35.59375 56 
Q 45.5625 56 51.78125 48.09375 
Q 58.015625 40.1875 58.015625 27.296875 
Q 58.015625 14.40625 51.78125 6.484375 
Q 45.5625 -1.421875 35.59375 -1.421875 
Q 29.59375 -1.421875 25.265625 0.953125 
Q 20.953125 3.328125 18.109375 8.203125 
L 18.109375 0 
L 9.078125 0 
L 9.078125 75.984375 
L 18.109375 75.984375 
z
" id="BitstreamVeraSans-Roman-62"/>
     </defs>
     <g style="fill:#262626;" transform="translate(84.958125 174.4959375)rotate(-90.0)scale(0.12 -0.12)">
      <use xlink:href="#BitstreamVeraSans-Roman-43"/>
      <use x="69.82421875" xlink:href="#BitstreamVeraSans-Roman-75"/>
      <use x="133.203125" xlink:href="#BitstreamVeraSans-Roman-6d"/>
      <use x="230.615234375" xlink:href="#BitstreamVeraSans-Roman-75"/>
      <use x="293.994140625" xlink:href="#BitstreamVeraSans-Roman-6c"/>
      <use x="321.77734375" xlink:href="#BitstreamVeraSans-Roman-61"/>
      <use x="383.056640625" xlink:href="#BitstreamVeraSans-Roman-74"/>
      <use x="422.265625" xlink:href="#BitstreamVeraSans-Roman-69"/>
      <use x="450.048828125" xlink:href="#BitstreamVeraSans-Roman-76"/>
      <use x="509.228515625" xlink:href="#BitstreamVeraSans-Roman-65"/>
      <use x="570.751953125" xlink:href="#BitstreamVeraSans-Roman-20"/>
      <use x="602.5390625" xlink:href="#BitstreamVeraSans-Roman-70"/>
      <use x="666.015625" xlink:href="#BitstreamVeraSans-Roman-72"/>
      <use x="707.09765625" xlink:href="#BitstreamVeraSans-Roman-6f"/>
      <use x="768.279296875" xlink:href="#BitstreamVeraSans-Roman-62"/>
      <use x="831.755859375" xlink:href="#BitstreamVeraSans-Roman-61"/>
      <use x="893.03515625" xlink:href="#BitstreamVeraSans-Roman-62"/>
      <use x="956.51171875" xlink:href="#BitstreamVeraSans-Roman-69"/>
      <use x="984.294921875" xlink:href="#BitstreamVeraSans-Roman-6c"/>
      <use x="1012.078125" xlink:href="#BitstreamVeraSans-Roman-69"/>
      <use x="1039.86132812" xlink:href="#BitstreamVeraSans-Roman-74"/>
      <use x="1079.0703125" xlink:href="#BitstreamVeraSans-Roman-79"/>
     </g>
    </g>
   </g>
   <g id="line2d_89">
    <path clip-path="url(#pc3e26f1554)" d="M 141.503456 191.520764 
L 142.658291 191.236963 
L 181.922695 191.236963 
L 183.07753 190.953162 
L 184.232365 190.953162 
L 185.387201 190.669361 
L 191.161378 190.669361 
L 192.316213 190.385559 
L 194.625884 190.385559 
L 195.780719 190.101758 
L 198.09039 190.101758 
L 199.245226 189.817957 
L 202.709732 189.817957 
L 205.019403 189.250354 
L 209.638744 189.250354 
L 210.79358 188.682752 
L 213.10325 188.682752 
L 215.412921 188.115149 
L 216.567757 188.115149 
L 218.877427 187.547546 
L 220.032263 186.979944 
L 222.341934 184.709534 
L 223.496769 184.141931 
L 224.651604 183.85813 
L 226.961275 183.85813 
L 229.270946 183.290527 
L 231.580617 183.290527 
L 232.735452 182.722925 
L 233.890288 181.871521 
L 235.045123 181.303918 
L 237.354794 180.736316 
L 238.509629 179.884912 
L 239.664465 179.601111 
L 241.974135 178.465906 
L 243.128971 177.614502 
L 245.438642 175.344092 
L 246.593477 174.492688 
L 247.748312 174.208887 
L 248.903148 173.073682 
L 250.057983 171.654675 
L 251.212819 171.370874 
L 254.677325 168.816662 
L 255.83216 167.397656 
L 256.986996 166.546252 
L 258.141831 166.546252 
L 259.296666 165.694848 
L 261.606337 164.559643 
L 262.761173 162.856836 
L 263.916008 162.005432 
L 265.070843 159.167419 
L 268.53535 154.9104 
L 269.690185 154.058996 
L 271.999856 153.491394 
L 273.154691 152.923791 
L 275.464362 151.220983 
L 277.774033 150.085778 
L 278.928868 148.666772 
L 280.083704 146.680163 
L 282.393374 145.544958 
L 283.54821 143.558349 
L 284.703045 141.855541 
L 285.857881 139.868932 
L 287.012716 137.598522 
L 288.167551 136.747118 
L 289.322387 135.328112 
L 290.477222 134.76051 
L 291.632058 133.341503 
L 292.786893 129.652087 
L 293.941728 127.949279 
L 295.096564 127.949279 
L 296.251399 126.814074 
L 297.406235 124.543664 
L 298.56107 123.408459 
L 299.715905 122.840856 
L 300.870741 122.557055 
L 302.025576 121.705651 
L 303.180412 121.42185 
L 304.335247 118.867638 
L 305.490082 117.164831 
L 306.644918 116.881029 
L 307.799753 116.313427 
L 308.954589 115.462023 
L 310.109424 114.043017 
L 311.264259 113.191613 
L 312.419095 112.056408 
L 313.57393 110.3536 
L 315.883601 108.650792 
L 318.193272 106.380382 
L 319.348107 106.096581 
L 320.502943 104.393773 
L 321.657778 103.826171 
L 323.967449 102.123363 
L 326.27712 100.988158 
L 327.431955 99.569152 
L 328.58679 97.01494 
L 329.741626 95.595934 
L 330.896461 94.74453 
L 333.206132 92.47412 
L 335.515803 90.771312 
L 336.670638 89.068504 
L 337.825474 88.500902 
L 338.980309 87.365697 
L 340.135144 87.081896 
L 342.444815 85.94669 
L 343.599651 84.527684 
L 344.754486 84.527684 
L 345.909321 82.824876 
L 347.064157 82.824876 
L 348.218992 82.257274 
L 349.373827 81.122069 
L 350.528663 80.554466 
L 351.683498 79.419261 
L 352.838334 79.13546 
L 353.993169 78.284056 
L 355.148004 78.000255 
L 356.30284 76.86505 
L 357.457675 76.297447 
L 359.767346 74.594639 
L 360.922181 74.310838 
L 363.231852 73.175633 
L 364.386688 72.040428 
L 365.541523 72.040428 
L 366.696358 70.621422 
L 367.851194 69.770018 
L 369.006029 68.634813 
L 370.160865 67.783409 
L 371.3157 67.499608 
L 372.470535 66.648204 
L 373.625371 65.229197 
L 374.780206 64.661595 
L 375.935042 64.661595 
L 377.089877 63.52639 
L 379.399548 62.391185 
L 380.554383 62.391185 
L 381.709219 62.107383 
L 382.864054 61.25598 
L 385.173725 60.120775 
L 387.483396 58.417967 
L 388.638231 57.282762 
L 389.793066 56.715159 
L 390.947902 55.863755 
L 392.102737 55.863755 
L 393.257573 55.579954 
L 394.412408 54.72855 
L 395.567243 54.72855 
L 396.722079 53.877146 
L 399.03175 52.741941 
L 400.186585 51.606736 
L 401.34142 51.322935 
L 402.496256 51.322935 
L 404.805927 49.620127 
L 407.115597 48.484922 
L 408.270433 48.201121 
L 409.425268 47.633518 
L 410.580104 46.782115 
L 411.734939 46.498313 
L 412.889774 45.64691 
L 414.04461 45.079307 
L 415.199445 45.079307 
L 416.354281 44.227903 
L 417.509116 43.944102 
L 418.663951 43.944102 
L 420.973622 43.376499 
L 422.128458 43.376499 
L 423.283293 42.241294 
L 424.438128 41.38989 
L 425.592964 40.822288 
L 426.747799 40.538487 
L 427.902635 40.538487 
L 430.212305 39.403282 
L 432.521976 38.835679 
L 433.676812 38.268076 
L 434.831647 37.984275 
L 438.296153 37.984275 
L 439.450989 37.416673 
L 440.605824 37.132871 
L 444.07033 37.132871 
L 445.225166 36.84907 
L 446.380001 36.84907 
L 447.534836 36.281468 
L 449.844507 36.281468 
L 450.999343 35.997666 
L 452.154178 35.997666 
L 457.928355 34.57866 
L 462.547697 34.57866 
L 463.702532 34.294859 
L 464.857367 33.727256 
L 467.167038 33.727256 
L 469.476709 33.159654 
L 470.631544 33.159654 
L 475.250886 32.024448 
L 476.405721 32.024448 
L 477.560557 31.740647 
L 479.870228 31.740647 
L 482.179898 31.173045 
L 484.489569 31.173045 
L 485.644405 30.605442 
L 491.418582 30.605442 
L 492.573417 30.321641 
L 496.037923 30.321641 
L 497.192759 30.037839 
L 499.502429 30.037839 
L 501.8121 29.470237 
L 502.966936 29.470237 
L 504.121771 28.902634 
L 505.276606 28.902634 
L 506.431442 28.618833 
L 507.586277 28.618833 
L 508.741113 28.335032 
L 515.670125 28.335032 
L 516.82496 28.051231 
L 529.52815 28.051231 
L 530.682985 27.767429 
L 534.147491 27.767429 
L 535.302327 27.483628 
L 541.076504 27.483628 
L 542.231339 27.199827 
L 543.386175 27.199827 
L 544.54101 26.916025 
L 549.160352 26.916025 
L 550.315187 26.632224 
L 560.708706 26.632224 
L 563.018376 26.064622 
L 564.173212 26.064622 
L 565.328047 25.78082 
L 573.411895 25.78082 
L 574.56673 25.497019 
L 591.889261 25.497019 
L 593.044097 25.213218 
L 623.069817 25.213218 
L 624.224653 24.645615 
L 633.463336 24.645615 
L 634.618171 24.361814 
L 639.237513 24.361814 
L 640.392348 24.078013 
L 649.631031 24.078013 
L 650.785867 23.794211 
L 665.798727 23.794211 
L 666.953562 23.51041 
L 670.418069 23.51041 
L 671.572904 23.226609 
L 684.276093 23.226609 
L 685.430929 22.942808 
L 710.837308 22.942808 
L 711.992143 22.659006 
L 721.230826 22.659006 
L 722.385662 22.375205 
L 845.953049 22.375205 
L 847.107885 22.091404 
L 925.3 22.091404 
L 925.3 22.091404 
" style="fill:none;stroke:#1b9e77;stroke-linecap:round;"/>
   </g>
   <g id="line2d_90">
    <path clip-path="url(#pc3e26f1554)" d="M 115.5375 191.520764 
L 116.808468 191.236963 
L 198.150393 191.236963 
L 199.42136 190.953162 
L 201.963295 190.953162 
L 203.234263 190.669361 
L 214.672971 190.669361 
L 215.943939 190.385559 
L 218.485874 190.385559 
L 221.027809 189.817957 
L 222.298777 189.817957 
L 224.840712 189.250354 
L 229.924582 189.250354 
L 231.19555 188.682752 
L 232.466517 188.682752 
L 233.737485 188.115149 
L 237.550388 188.115149 
L 240.092323 186.979944 
L 241.36329 186.696143 
L 242.634258 186.696143 
L 243.905225 186.412341 
L 245.176193 185.844739 
L 246.447161 185.560938 
L 247.718128 185.560938 
L 248.989096 185.277136 
L 250.260063 185.277136 
L 252.801999 184.141931 
L 254.072966 184.141931 
L 255.343934 183.85813 
L 256.614901 183.85813 
L 257.885869 182.439124 
L 259.156836 182.155322 
L 260.427804 182.155322 
L 261.698772 181.871521 
L 262.969739 181.303918 
L 264.240707 181.303918 
L 266.782642 180.736316 
L 268.05361 179.884912 
L 269.324577 179.31731 
L 270.595545 178.182104 
L 271.866512 177.330701 
L 273.13748 176.763098 
L 274.408447 175.911694 
L 275.679415 175.344092 
L 276.950383 175.06029 
L 278.22135 173.925085 
L 279.492318 171.938476 
L 283.30522 167.681457 
L 284.576188 167.113855 
L 285.847156 165.97865 
L 287.118123 164.275842 
L 288.389091 162.289233 
L 289.660058 161.721631 
L 290.931026 160.302624 
L 292.201994 158.032214 
L 294.743929 155.761804 
L 296.014896 153.207592 
L 297.285864 151.788586 
L 298.556831 151.504785 
L 299.827799 150.937182 
L 301.098767 148.099169 
L 302.369734 145.544958 
L 303.640702 145.261157 
L 306.182637 142.423144 
L 307.453604 141.855541 
L 309.99554 140.152734 
L 312.537475 136.747118 
L 313.808442 134.76051 
L 316.350378 131.354894 
L 317.621345 129.368285 
L 318.892313 128.23308 
L 320.16328 127.665478 
L 322.705215 124.827465 
L 323.976183 123.69226 
L 325.247151 123.124657 
L 326.518118 121.138048 
L 327.789086 120.286645 
L 329.060053 119.151439 
L 330.331021 117.732433 
L 331.601988 116.881029 
L 332.872956 116.597228 
L 334.143924 114.043017 
L 335.414891 112.62401 
L 336.685859 110.637401 
L 337.956826 108.934594 
L 339.227794 107.515587 
L 340.498762 105.81278 
L 341.769729 104.961376 
L 343.040697 104.961376 
L 344.311664 103.826171 
L 345.582632 102.974767 
L 346.853599 101.555761 
L 348.124567 99.28535 
L 349.395535 99.001549 
L 350.666502 97.01494 
L 351.93747 95.879735 
L 353.208437 95.028331 
L 354.479405 93.893126 
L 355.750372 93.893126 
L 357.02134 93.041722 
L 360.834243 89.636107 
L 362.10521 89.068504 
L 364.647146 86.798094 
L 367.189081 83.960082 
L 368.460048 82.824876 
L 369.731016 82.541075 
L 371.001983 81.40587 
L 372.272951 80.838268 
L 373.543919 79.986864 
L 374.814886 78.851659 
L 376.085854 78.000255 
L 377.356821 76.86505 
L 378.627789 74.594639 
L 379.898756 72.891832 
L 381.169724 72.608031 
L 382.440692 71.189024 
L 383.711659 70.621422 
L 384.982627 69.202415 
L 386.253594 68.634813 
L 387.524562 67.499608 
L 388.79553 66.932005 
L 390.066497 66.648204 
L 391.337465 64.945396 
L 392.608432 63.52639 
L 395.150367 63.52639 
L 396.421335 63.242589 
L 397.692303 62.107383 
L 398.96327 61.25598 
L 400.234238 59.553172 
L 401.505205 58.417967 
L 402.776173 57.850364 
L 404.04714 57.566563 
L 405.318108 56.998961 
L 406.589076 56.715159 
L 407.860043 55.863755 
L 410.401978 54.72855 
L 411.672946 53.877146 
L 412.943914 53.877146 
L 414.214881 53.309544 
L 416.756816 52.741941 
L 418.027784 51.322935 
L 419.298751 50.471531 
L 420.569719 50.18773 
L 421.840687 49.620127 
L 423.111654 49.336326 
L 428.195524 47.065916 
L 429.466492 45.363108 
L 430.73746 44.795506 
L 432.008427 44.795506 
L 433.279395 43.944102 
L 434.550362 43.944102 
L 435.82133 43.660301 
L 437.092298 42.525096 
L 438.363265 41.957493 
L 439.634233 41.106089 
L 442.176168 41.106089 
L 443.447135 39.970884 
L 444.718103 39.687083 
L 447.260038 37.984275 
L 448.531006 37.416673 
L 451.072941 37.416673 
L 452.343908 36.84907 
L 458.698746 35.430064 
L 459.969714 35.430064 
L 461.240682 35.146262 
L 463.782617 35.146262 
L 465.053584 34.862461 
L 466.324552 34.862461 
L 470.137455 34.011057 
L 472.67939 34.011057 
L 473.950357 33.727256 
L 477.76326 33.727256 
L 479.034228 33.443455 
L 480.305195 33.443455 
L 482.84713 32.875852 
L 489.201968 32.875852 
L 490.472936 32.30825 
L 495.556806 31.173045 
L 505.724547 31.173045 
L 506.995514 30.889243 
L 510.808417 30.889243 
L 512.079385 30.321641 
L 518.434223 30.321641 
L 519.70519 29.754038 
L 522.247125 29.754038 
L 524.789061 29.186436 
L 527.330996 29.186436 
L 528.601963 28.902634 
L 532.414866 28.902634 
L 533.685834 28.618833 
L 540.040671 28.618833 
L 541.311639 28.335032 
L 548.937445 28.335032 
L 550.208412 28.051231 
L 552.750347 28.051231 
L 554.021315 27.767429 
L 569.272926 27.767429 
L 570.543893 27.483628 
L 574.356796 27.483628 
L 578.169699 26.632224 
L 579.440666 26.632224 
L 580.711634 26.348423 
L 581.982602 26.348423 
L 583.253569 26.064622 
L 597.234213 26.064622 
L 598.50518 25.78082 
L 602.318083 25.78082 
L 603.58905 25.497019 
L 608.672921 25.497019 
L 609.943888 25.213218 
L 623.924532 25.213218 
L 625.195499 24.929417 
L 629.008402 24.929417 
L 630.27937 24.645615 
L 677.30517 24.645615 
L 678.576138 24.361814 
L 756.10516 24.361814 
L 757.376127 24.078013 
L 770.085803 24.078013 
L 771.356771 23.794211 
L 804.401928 23.794211 
L 805.672896 23.51041 
L 871.76321 23.51041 
L 874.305145 22.942808 
L 888.285788 22.942808 
L 889.556756 22.659006 
L 925.3 22.659006 
L 925.3 22.659006 
" style="fill:none;stroke:#d95f02;stroke-linecap:round;"/>
   </g>
   <g id="line2d_91">
    <path clip-path="url(#pc3e26f1554)" d="M 137.864532 191.520764 
L 138.921223 191.236963 
L 186.472322 191.236963 
L 187.529013 190.953162 
L 188.585705 190.953162 
L 189.642396 190.669361 
L 191.755778 190.669361 
L 192.812469 190.385559 
L 193.86916 190.385559 
L 194.925851 190.101758 
L 195.982542 190.101758 
L 197.039233 189.817957 
L 200.209306 189.817957 
L 201.265998 189.250354 
L 203.37938 189.250354 
L 204.436071 188.39895 
L 206.549453 188.39895 
L 207.606144 187.263745 
L 208.662835 186.979944 
L 209.719526 186.979944 
L 210.776217 186.696143 
L 212.8896 186.696143 
L 213.946291 186.12854 
L 215.002982 185.277136 
L 217.116364 184.709534 
L 218.173055 184.141931 
L 219.229746 183.85813 
L 220.286437 183.006726 
L 224.513201 180.736316 
L 225.569893 179.601111 
L 226.626584 179.601111 
L 227.683275 179.31731 
L 228.739966 178.749707 
L 229.796657 178.465906 
L 234.023421 176.195496 
L 235.080112 175.344092 
L 236.136803 175.344092 
L 237.193495 174.492688 
L 238.250186 173.925085 
L 239.306877 172.506079 
L 240.363568 172.222278 
L 241.420259 170.803271 
L 242.47695 169.951868 
L 243.533641 168.816662 
L 244.590332 167.397656 
L 245.647023 166.262451 
L 246.703714 164.843445 
L 247.760405 163.708239 
L 248.817096 163.140637 
L 249.873788 162.856836 
L 250.930479 162.289233 
L 251.98717 160.870227 
L 253.043861 160.018823 
L 255.157243 158.883618 
L 256.213934 157.464611 
L 257.270625 156.613208 
L 258.327316 156.613208 
L 259.384007 154.626599 
L 260.440698 151.788586 
L 261.497389 150.085778 
L 263.610772 147.815368 
L 265.724154 144.977355 
L 266.780845 142.990746 
L 267.837536 142.423144 
L 269.950918 139.017529 
L 271.007609 137.882324 
L 272.0643 136.463317 
L 273.120991 134.476708 
L 274.177683 134.192907 
L 275.234374 133.057702 
L 276.291065 132.773901 
L 277.347756 131.638696 
L 278.404447 130.787292 
L 279.461138 129.652087 
L 280.517829 128.23308 
L 281.57452 126.530273 
L 283.687902 124.827465 
L 285.801284 123.69226 
L 286.857976 122.557055 
L 287.914667 121.989452 
L 288.971358 120.002843 
L 291.08474 117.164831 
L 292.141431 115.178222 
L 293.198122 114.043017 
L 296.368195 108.934594 
L 297.424886 106.947985 
L 298.481578 105.81278 
L 299.538269 104.961376 
L 301.651651 103.826171 
L 302.708342 102.690966 
L 303.765033 102.407164 
L 304.821724 100.988158 
L 305.878415 100.704357 
L 306.935106 98.150145 
L 309.048488 96.447338 
L 310.105179 95.312132 
L 311.161871 94.74453 
L 312.218562 93.609325 
L 313.275253 93.325524 
L 314.331944 91.338915 
L 315.388635 90.771312 
L 316.445326 90.487511 
L 317.502017 89.068504 
L 318.558708 88.500902 
L 319.615399 87.365697 
L 320.67209 86.798094 
L 322.785473 84.527684 
L 323.842164 83.960082 
L 324.898855 83.108678 
L 327.012237 81.973473 
L 328.068928 81.689671 
L 329.125619 81.122069 
L 331.239001 81.122069 
L 332.295692 80.270665 
L 333.352383 79.703062 
L 334.409074 78.851659 
L 335.465766 77.432652 
L 336.522457 76.86505 
L 338.635839 76.297447 
L 339.69253 74.594639 
L 341.805912 73.459434 
L 342.862603 73.175633 
L 343.919294 72.040428 
L 344.975985 71.472825 
L 346.032676 71.472825 
L 347.089368 70.621422 
L 348.146059 69.486217 
L 349.20275 68.634813 
L 350.259441 68.06721 
L 351.316132 68.06721 
L 352.372823 66.932005 
L 353.429514 66.364403 
L 354.486205 66.080601 
L 355.542896 66.080601 
L 356.599587 65.229197 
L 357.656278 64.661595 
L 358.712969 62.958787 
L 359.769661 62.391185 
L 361.883043 61.823582 
L 362.939734 61.823582 
L 363.996425 60.972178 
L 365.053116 60.404576 
L 366.109807 60.120775 
L 368.223189 57.850364 
L 371.393263 57.850364 
L 373.506645 56.147557 
L 375.620027 53.877146 
L 376.676718 53.593345 
L 377.733409 53.593345 
L 378.7901 52.741941 
L 379.846791 52.45814 
L 380.903482 52.45814 
L 381.960173 52.174339 
L 384.073556 52.174339 
L 386.186938 51.039134 
L 388.30032 50.471531 
L 389.357011 49.620127 
L 392.527084 48.768724 
L 393.583775 48.768724 
L 394.640466 48.201121 
L 395.697158 47.91732 
L 396.753849 47.349717 
L 398.867231 46.782115 
L 400.980613 46.782115 
L 402.037304 46.214512 
L 403.093995 45.363108 
L 404.150686 45.079307 
L 405.207377 44.227903 
L 406.264068 44.227903 
L 407.320759 43.944102 
L 408.377451 43.944102 
L 409.434142 43.092698 
L 411.547524 43.092698 
L 412.604215 42.808897 
L 413.660906 42.241294 
L 414.717597 41.38989 
L 415.774288 41.38989 
L 416.830979 40.822288 
L 417.88767 40.538487 
L 418.944361 40.538487 
L 420.001053 39.970884 
L 421.057744 39.970884 
L 422.114435 39.403282 
L 423.171126 39.403282 
L 425.284508 38.835679 
L 427.39789 38.835679 
L 428.454581 38.551878 
L 429.511272 37.700474 
L 431.624654 37.132871 
L 433.738037 37.132871 
L 434.794728 36.84907 
L 435.851419 36.84907 
L 437.964801 36.281468 
L 440.078183 36.281468 
L 441.134874 35.997666 
L 443.248256 35.997666 
L 444.304948 35.430064 
L 445.361639 35.146262 
L 447.475021 35.146262 
L 448.531712 34.862461 
L 453.815167 34.862461 
L 454.871858 34.57866 
L 455.928549 34.57866 
L 456.985241 34.294859 
L 465.438769 34.294859 
L 466.49546 33.727256 
L 467.552151 33.443455 
L 473.892298 33.443455 
L 474.948989 33.159654 
L 476.00568 33.159654 
L 477.062371 32.592051 
L 478.119062 32.592051 
L 480.232444 32.024448 
L 481.289136 31.456846 
L 482.345827 31.456846 
L 483.402518 31.173045 
L 486.572591 31.173045 
L 487.629282 30.889243 
L 488.685973 30.889243 
L 489.742664 30.605442 
L 490.799355 30.605442 
L 491.856046 30.321641 
L 500.309575 30.321641 
L 501.366266 30.037839 
L 507.706413 30.037839 
L 508.763104 29.754038 
L 509.819795 29.186436 
L 517.216632 29.186436 
L 518.273324 28.618833 
L 519.330015 28.618833 
L 520.386706 28.051231 
L 522.500088 28.051231 
L 523.556779 27.767429 
L 535.180381 27.767429 
L 536.237072 27.483628 
L 543.63391 27.483628 
L 544.690601 27.199827 
L 545.747292 27.199827 
L 546.803983 26.916025 
L 547.860674 26.916025 
L 549.974056 26.348423 
L 562.654349 26.348423 
L 563.71104 26.064622 
L 565.824422 26.064622 
L 566.881114 25.78082 
L 567.937805 25.78082 
L 568.994496 25.497019 
L 601.751919 25.497019 
L 602.808611 24.929417 
L 608.092066 24.929417 
L 609.148757 24.645615 
L 631.33927 24.645615 
L 632.395961 24.361814 
L 635.566034 24.361814 
L 636.622725 23.794211 
L 641.906181 23.794211 
L 642.962872 23.51041 
L 647.189636 23.51041 
L 648.246327 22.942808 
L 666.210076 22.942808 
L 667.266767 22.659006 
L 692.627353 22.659006 
L 693.684044 22.375205 
L 720.101321 22.375205 
L 721.158012 22.091404 
L 768.709111 22.091404 
L 769.765802 21.807603 
L 806.74999 21.807603 
L 807.806681 21.523801 
L 925.3 21.523801 
L 925.3 21.523801 
" style="fill:none;stroke:#7570b3;stroke-linecap:round;"/>
   </g>
   <g id="line2d_92">
    <path clip-path="url(#pc3e26f1554)" d="M 119.680222 191.520764 
L 121.154473 191.236963 
L 200.763983 191.236963 
L 202.238233 190.953162 
L 212.557985 190.953162 
L 215.506485 190.385559 
L 216.980735 190.385559 
L 218.454985 190.101758 
L 219.929236 190.101758 
L 221.403486 189.817957 
L 222.877736 188.966553 
L 225.826236 188.966553 
L 227.300487 188.682752 
L 228.774737 188.115149 
L 230.248987 188.115149 
L 233.197487 186.979944 
L 234.671738 185.844739 
L 236.145988 185.560938 
L 237.620238 184.425732 
L 240.568738 184.425732 
L 243.517239 182.155322 
L 244.991489 181.58772 
L 246.465739 180.452515 
L 247.939989 180.168713 
L 249.41424 180.168713 
L 250.88849 179.884912 
L 253.83699 178.182104 
L 255.31124 177.046899 
L 256.785491 176.763098 
L 258.259741 175.911694 
L 259.733991 175.911694 
L 261.208241 174.776489 
L 262.682491 174.492688 
L 264.156741 173.641284 
L 267.105242 171.370874 
L 268.579492 169.100464 
L 271.527992 166.262451 
L 273.002243 163.992041 
L 274.476493 162.005432 
L 277.424993 159.735022 
L 278.899243 158.316015 
L 280.373494 156.613208 
L 283.321994 153.775195 
L 284.796244 152.63999 
L 286.270494 150.653381 
L 287.744745 150.36958 
L 289.218995 148.666772 
L 290.693245 147.531567 
L 292.167495 144.977355 
L 293.641745 143.84215 
L 295.115996 141.287939 
L 296.590246 139.585131 
L 298.064496 139.017529 
L 299.538746 137.314721 
L 302.487247 134.476708 
L 303.961497 134.192907 
L 305.435747 132.490099 
L 306.909997 131.071093 
L 308.384247 128.516882 
L 309.858498 126.530273 
L 311.332748 125.96267 
L 312.806998 124.543664 
L 314.281248 122.273254 
L 315.755498 120.854247 
L 317.229748 120.854247 
L 318.703999 119.151439 
L 320.178249 117.732433 
L 321.652499 115.745824 
L 323.126749 113.191613 
L 324.600999 111.488805 
L 326.07525 109.218395 
L 327.5495 107.799389 
L 329.02375 106.664183 
L 330.498 104.393773 
L 331.97225 103.826171 
L 333.446501 101.839562 
L 334.920751 101.555761 
L 336.395001 100.136754 
L 339.343501 96.731139 
L 340.817752 95.879735 
L 343.766252 93.041722 
L 345.240502 91.338915 
L 348.189003 89.636107 
L 349.663253 88.217101 
L 351.137503 85.379088 
L 352.611753 84.527684 
L 355.560254 82.257274 
L 358.508754 81.122069 
L 359.983004 80.838268 
L 361.457254 79.703062 
L 362.931505 79.419261 
L 364.405755 78.284056 
L 365.880005 78.000255 
L 367.354255 76.013646 
L 368.828505 75.162242 
L 370.302755 73.743236 
L 371.777006 72.891832 
L 373.251256 72.324229 
L 374.725506 70.905223 
L 376.199756 70.33762 
L 377.674006 69.486217 
L 379.148257 67.499608 
L 380.622507 66.648204 
L 382.096757 65.512999 
L 383.571007 65.229197 
L 385.045257 64.661595 
L 386.519508 63.810191 
L 387.993758 63.810191 
L 389.468008 62.107383 
L 390.942258 60.688377 
L 393.890759 60.120775 
L 395.365009 58.417967 
L 399.787759 57.566563 
L 401.26201 56.147557 
L 404.21051 54.444749 
L 405.68476 53.025743 
L 407.15901 52.174339 
L 408.633261 51.039134 
L 410.107511 49.620127 
L 411.581761 49.620127 
L 413.056011 48.768724 
L 416.004512 47.633518 
L 417.478762 47.633518 
L 418.953012 47.349717 
L 421.901512 45.64691 
L 423.375762 45.363108 
L 424.850013 44.511704 
L 426.324263 43.092698 
L 427.798513 42.808897 
L 429.272763 42.808897 
L 432.221264 42.241294 
L 435.169764 41.106089 
L 438.118264 40.538487 
L 439.592515 39.970884 
L 441.066765 38.551878 
L 442.541015 37.984275 
L 444.015265 37.984275 
L 445.489515 37.132871 
L 446.963766 36.84907 
L 448.438016 36.281468 
L 451.386516 35.713865 
L 452.860766 35.713865 
L 454.335017 35.146262 
L 455.809267 34.862461 
L 457.283517 34.862461 
L 458.757767 34.57866 
L 460.232017 34.57866 
L 461.706268 33.727256 
L 463.180518 33.727256 
L 464.654768 33.443455 
L 467.603268 33.443455 
L 469.077519 32.875852 
L 470.551769 32.875852 
L 472.026019 32.30825 
L 473.500269 32.30825 
L 474.974519 31.740647 
L 479.39727 31.740647 
L 480.87152 31.456846 
L 482.34577 31.456846 
L 483.82002 31.173045 
L 485.294271 30.605442 
L 486.768521 30.321641 
L 488.242771 30.321641 
L 489.717021 29.754038 
L 495.614022 29.754038 
L 497.088272 29.186436 
L 501.511023 29.186436 
L 502.985273 28.902634 
L 507.408024 28.902634 
L 510.356524 28.335032 
L 516.253525 28.335032 
L 517.727775 28.051231 
L 526.573276 28.051231 
L 528.047526 27.483628 
L 539.841528 27.483628 
L 541.315778 27.199827 
L 547.212779 27.199827 
L 548.687029 26.916025 
L 557.53253 26.916025 
L 559.00678 26.632224 
L 560.481031 26.632224 
L 561.955281 26.348423 
L 563.429531 26.348423 
L 564.903781 26.064622 
L 566.378031 26.064622 
L 567.852282 25.78082 
L 581.120533 25.78082 
L 582.594784 25.497019 
L 632.71929 25.497019 
L 635.667791 24.929417 
L 651.884543 24.929417 
L 653.358793 24.645615 
L 669.575545 24.645615 
L 671.049795 24.078013 
L 672.524045 23.794211 
L 809.629313 23.794211 
L 811.103564 23.51041 
L 853.856819 23.51041 
L 855.33107 23.226609 
L 883.341823 23.226609 
L 884.816073 22.942808 
L 886.290324 22.942808 
L 887.764574 22.659006 
L 925.3 22.659006 
L 925.3 22.659006 
" style="fill:none;stroke:#e7298a;stroke-linecap:round;"/>
   </g>
   <g id="line2d_93">
    <path clip-path="url(#pc3e26f1554)" d="M 128.646428 191.520764 
L 129.423991 191.236963 
L 244.503352 191.236963 
L 245.280916 190.953162 
L 246.058479 190.953162 
L 246.836042 190.669361 
L 249.168732 190.669361 
L 249.946295 190.385559 
L 250.723858 190.385559 
L 251.501422 189.817957 
L 253.056548 189.250354 
L 253.834111 189.250354 
L 254.611675 188.682752 
L 255.389238 188.682752 
L 257.721928 187.831348 
L 258.499491 187.831348 
L 259.277054 187.263745 
L 260.832181 187.263745 
L 261.609744 186.979944 
L 263.16487 186.979944 
L 263.942434 186.412341 
L 264.719997 186.12854 
L 265.49756 186.12854 
L 266.275123 184.993335 
L 267.052687 184.709534 
L 267.83025 184.709534 
L 269.385376 184.141931 
L 271.718066 182.439124 
L 272.495629 182.439124 
L 273.273193 181.871521 
L 274.050756 181.58772 
L 274.828319 181.020117 
L 276.383446 178.749707 
L 277.938572 177.614502 
L 278.716135 176.763098 
L 279.493699 176.479297 
L 280.271262 175.911694 
L 281.048825 174.208887 
L 281.826388 172.78988 
L 282.603952 172.222278 
L 283.381515 171.087073 
L 284.936641 169.384265 
L 285.714205 167.681457 
L 287.269331 165.411047 
L 288.824458 163.708239 
L 289.602021 162.289233 
L 290.379584 161.437829 
L 291.157147 160.302624 
L 291.934711 159.735022 
L 292.712274 158.316015 
L 293.489837 158.032214 
L 295.044964 156.897009 
L 295.822527 156.045605 
L 296.60009 155.478003 
L 297.377653 154.342797 
L 298.155217 153.491394 
L 298.93278 152.072387 
L 299.710343 150.085778 
L 300.487906 149.801977 
L 302.043033 147.531567 
L 302.820596 147.247766 
L 303.598159 145.261157 
L 304.375723 143.84215 
L 305.153286 142.990746 
L 305.930849 141.855541 
L 306.708412 141.004138 
L 307.485976 139.868932 
L 308.263539 137.882324 
L 309.041102 136.463317 
L 309.818665 134.476708 
L 310.596229 133.625304 
L 311.373792 133.341503 
L 312.151355 131.638696 
L 312.928918 131.071093 
L 314.484045 128.800683 
L 315.261608 127.097875 
L 316.039172 125.678869 
L 317.594298 121.989452 
L 318.371861 120.854247 
L 319.149425 118.867638 
L 319.926988 116.313427 
L 320.704551 114.610619 
L 321.482114 113.759215 
L 322.259678 112.62401 
L 323.037241 111.205004 
L 323.814804 110.069799 
L 324.592367 109.785997 
L 325.369931 108.650792 
L 326.147494 108.366991 
L 328.480184 106.664183 
L 329.257747 105.81278 
L 330.03531 104.393773 
L 330.812873 103.542369 
L 331.590437 102.974767 
L 332.368 102.974767 
L 333.145563 102.407164 
L 333.923126 102.407164 
L 334.70069 100.420555 
L 335.478253 97.866344 
L 336.255816 97.298741 
L 337.033379 96.163536 
L 338.588506 92.47412 
L 339.366069 91.055113 
L 340.143632 89.919908 
L 340.921196 88.217101 
L 341.698759 87.365697 
L 343.253885 85.095287 
L 345.586575 83.392479 
L 346.364138 82.257274 
L 347.141702 81.689671 
L 348.696828 79.419261 
L 350.251955 78.284056 
L 351.029518 77.432652 
L 351.807081 77.148851 
L 352.584644 74.594639 
L 355.694897 72.324229 
L 356.472461 70.905223 
L 357.250024 70.33762 
L 358.027587 69.202415 
L 358.80515 67.783409 
L 359.582714 67.215806 
L 360.360277 66.932005 
L 361.13784 66.932005 
L 361.915403 66.080601 
L 362.692967 65.512999 
L 363.47053 65.229197 
L 365.80322 62.674986 
L 366.580783 61.539781 
L 367.358346 61.25598 
L 368.135909 60.404576 
L 368.913473 60.120775 
L 369.691036 60.120775 
L 372.801289 58.985569 
L 373.578852 58.134166 
L 374.356415 57.566563 
L 375.133979 57.282762 
L 375.911542 57.282762 
L 376.689105 56.998961 
L 378.244232 55.863755 
L 379.799358 55.296153 
L 380.576921 54.160948 
L 381.354485 53.877146 
L 382.132048 53.309544 
L 382.909611 53.309544 
L 383.687175 51.606736 
L 384.464738 50.18773 
L 385.242301 49.903929 
L 386.019864 49.903929 
L 386.797428 49.336326 
L 388.352554 48.768724 
L 389.130117 48.201121 
L 389.907681 47.91732 
L 390.685244 47.91732 
L 392.24037 47.349717 
L 393.017934 46.782115 
L 393.795497 46.498313 
L 394.57306 45.64691 
L 395.350623 45.64691 
L 396.128187 45.363108 
L 397.683313 44.227903 
L 398.460876 43.944102 
L 399.23844 43.944102 
L 400.016003 43.660301 
L 400.793566 42.808897 
L 402.348693 42.241294 
L 403.126256 42.241294 
L 403.903819 41.957493 
L 404.681382 41.38989 
L 407.791635 41.38989 
L 408.569199 41.106089 
L 411.679452 41.106089 
L 412.457015 40.538487 
L 413.234578 40.254685 
L 414.012141 40.254685 
L 414.789705 39.687083 
L 416.344831 39.11948 
L 417.122394 39.11948 
L 417.899958 38.551878 
L 418.677521 38.268076 
L 420.232647 38.268076 
L 424.898027 36.565269 
L 425.67559 35.997666 
L 427.230717 35.430064 
L 429.563406 35.430064 
L 430.34097 35.146262 
L 431.118533 35.146262 
L 431.896096 34.862461 
L 432.673659 34.862461 
L 433.451223 34.294859 
L 434.228786 34.011057 
L 436.561476 34.011057 
L 437.339039 33.443455 
L 438.116602 33.443455 
L 438.894165 32.875852 
L 440.449292 32.875852 
L 441.226855 32.592051 
L 448.224924 32.592051 
L 450.557614 31.740647 
L 452.890304 31.740647 
L 453.667867 31.456846 
L 454.445431 30.889243 
L 455.222994 30.605442 
L 458.333247 30.605442 
L 459.11081 30.037839 
L 459.888373 30.037839 
L 460.665937 29.470237 
L 462.221063 29.470237 
L 462.998626 29.186436 
L 465.331316 29.186436 
L 466.108879 28.902634 
L 470.774259 28.902634 
L 471.551822 28.618833 
L 474.662075 28.618833 
L 475.439638 28.335032 
L 476.994765 28.335032 
L 477.772328 28.051231 
L 483.992834 28.051231 
L 484.770397 27.767429 
L 489.435777 27.767429 
L 490.21334 27.483628 
L 491.768467 27.483628 
L 492.54603 27.199827 
L 503.431915 27.199827 
L 504.209479 26.916025 
L 509.652421 26.916025 
L 511.207548 26.348423 
L 536.089572 26.348423 
L 536.867135 26.064622 
L 539.977388 26.064622 
L 540.754952 25.78082 
L 544.642768 25.78082 
L 545.420331 25.497019 
L 584.298494 25.497019 
L 585.85362 24.929417 
L 587.408747 24.929417 
L 588.18631 24.645615 
L 606.070265 24.645615 
L 606.847828 24.361814 
L 611.513208 24.361814 
L 613.068334 23.794211 
L 618.511277 23.794211 
L 619.28884 23.51041 
L 645.725991 23.51041 
L 646.503554 23.226609 
L 658.167003 23.226609 
L 658.944566 22.942808 
L 662.832382 22.942808 
L 663.609946 22.659006 
L 711.041304 22.659006 
L 711.818867 22.091404 
L 818.345033 22.091404 
L 819.122596 21.807603 
L 852.557816 21.807603 
L 853.335379 21.523801 
L 905.432117 21.523801 
L 906.20968 21.24 
L 906.20968 21.24 
" style="fill:none;stroke:#000000;stroke-linecap:round;stroke-width:2.0;"/>
   </g>
   <g id="patch_3">
    <path d="M 115.5375 21.24 
L 694.5219 21.24 
" style="fill:none;"/>
   </g>
   <g id="patch_4">
    <path d="M 694.5219 191.16 
L 694.5219 21.24 
" style="fill:none;"/>
   </g>
   <g id="patch_5">
    <path d="M 115.5375 191.16 
L 694.5219 191.16 
" style="fill:none;"/>
   </g>
   <g id="patch_6">
    <path d="M 115.5375 191.16 
L 115.5375 21.24 
" style="fill:none;"/>
   </g>
   <g id="legend_1">
    <g id="text_14">
     <!-- Ping (ms) -->
     <defs>
      <path d="M 19.671875 64.796875 
L 19.671875 37.40625 
L 32.078125 37.40625 
Q 38.96875 37.40625 42.71875 40.96875 
Q 46.484375 44.53125 46.484375 51.125 
Q 46.484375 57.671875 42.71875 61.234375 
Q 38.96875 64.796875 32.078125 64.796875 
z
M 9.8125 72.90625 
L 32.078125 72.90625 
Q 44.34375 72.90625 50.609375 67.359375 
Q 56.890625 61.8125 56.890625 51.125 
Q 56.890625 40.328125 50.609375 34.8125 
Q 44.34375 29.296875 32.078125 29.296875 
L 19.671875 29.296875 
L 19.671875 0 
L 9.8125 0 
z
" id="BitstreamVeraSans-Roman-50"/>
      <path d="M 45.40625 27.984375 
Q 45.40625 37.75 41.375 43.109375 
Q 37.359375 48.484375 30.078125 48.484375 
Q 22.859375 48.484375 18.828125 43.109375 
Q 14.796875 37.75 14.796875 27.984375 
Q 14.796875 18.265625 18.828125 12.890625 
Q 22.859375 7.515625 30.078125 7.515625 
Q 37.359375 7.515625 41.375 12.890625 
Q 45.40625 18.265625 45.40625 27.984375 
M 54.390625 6.78125 
Q 54.390625 -7.171875 48.1875 -13.984375 
Q 42 -20.796875 29.203125 -20.796875 
Q 24.46875 -20.796875 20.265625 -20.09375 
Q 16.0625 -19.390625 12.109375 -17.921875 
L 12.109375 -9.1875 
Q 16.0625 -11.328125 19.921875 -12.34375 
Q 23.78125 -13.375 27.78125 -13.375 
Q 36.625 -13.375 41.015625 -8.765625 
Q 45.40625 -4.15625 45.40625 5.171875 
L 45.40625 9.625 
Q 42.625 4.78125 38.28125 2.390625 
Q 33.9375 0 27.875 0 
Q 17.828125 0 11.671875 7.65625 
Q 5.515625 15.328125 5.515625 27.984375 
Q 5.515625 40.671875 11.671875 48.328125 
Q 17.828125 56 27.875 56 
Q 33.9375 56 38.28125 53.609375 
Q 42.625 51.21875 45.40625 46.390625 
L 45.40625 54.6875 
L 54.390625 54.6875 
z
" id="BitstreamVeraSans-Roman-67"/>
     </defs>
     <g style="fill:#262626;" transform="translate(746.085139875 34.356525)scale(0.12 -0.12)">
      <use xlink:href="#BitstreamVeraSans-Roman-50"/>
      <use x="60.271484375" xlink:href="#BitstreamVeraSans-Roman-69"/>
      <use x="88.0546875" xlink:href="#BitstreamVeraSans-Roman-6e"/>
      <use x="151.43359375" xlink:href="#BitstreamVeraSans-Roman-67"/>
      <use x="214.91015625" xlink:href="#BitstreamVeraSans-Roman-20"/>
      <use x="246.697265625" xlink:href="#BitstreamVeraSans-Roman-28"/>
      <use x="285.7109375" xlink:href="#BitstreamVeraSans-Roman-6d"/>
      <use x="383.123046875" xlink:href="#BitstreamVeraSans-Roman-73"/>
      <use x="435.22265625" xlink:href="#BitstreamVeraSans-Roman-29"/>
     </g>
    </g>
    <g id="line2d_94">
     <path d="M 710.099988 45.946948 
L 730.091988 45.946948 
" style="fill:none;stroke:#1b9e77;stroke-linecap:round;"/>
    </g>
    <g id="line2d_95"/>
    <g id="text_15">
     <!-- ICMP 172.22.224.10 -->
     <defs>
      <path d="M 9.8125 72.90625 
L 24.515625 72.90625 
L 43.109375 23.296875 
L 61.8125 72.90625 
L 76.515625 72.90625 
L 76.515625 0 
L 66.890625 0 
L 66.890625 64.015625 
L 48.09375 14.015625 
L 38.1875 14.015625 
L 19.390625 64.015625 
L 19.390625 0 
L 9.8125 0 
z
" id="BitstreamVeraSans-Roman-4d"/>
      <path d="M 8.203125 72.90625 
L 55.078125 72.90625 
L 55.078125 68.703125 
L 28.609375 0 
L 18.3125 0 
L 43.21875 64.59375 
L 8.203125 64.59375 
z
" id="BitstreamVeraSans-Roman-37"/>
      <path d="M 9.8125 72.90625 
L 19.671875 72.90625 
L 19.671875 0 
L 9.8125 0 
z
" id="BitstreamVeraSans-Roman-49"/>
     </defs>
     <g style="fill:#262626;" transform="translate(738.088788 49.445548125)scale(0.09996 -0.09996)">
      <use xlink:href="#BitstreamVeraSans-Roman-49"/>
      <use x="29.4921875" xlink:href="#BitstreamVeraSans-Roman-43"/>
      <use x="99.31640625" xlink:href="#BitstreamVeraSans-Roman-4d"/>
      <use x="185.595703125" xlink:href="#BitstreamVeraSans-Roman-50"/>
      <use x="245.8984375" xlink:href="#BitstreamVeraSans-Roman-20"/>
      <use x="277.685546875" xlink:href="#BitstreamVeraSans-Roman-31"/>
      <use x="341.30859375" xlink:href="#BitstreamVeraSans-Roman-37"/>
      <use x="404.931640625" xlink:href="#BitstreamVeraSans-Roman-32"/>
      <use x="468.5546875" xlink:href="#BitstreamVeraSans-Roman-2e"/>
      <use x="500.341796875" xlink:href="#BitstreamVeraSans-Roman-32"/>
      <use x="563.96484375" xlink:href="#BitstreamVeraSans-Roman-32"/>
      <use x="627.587890625" xlink:href="#BitstreamVeraSans-Roman-2e"/>
      <use x="659.375" xlink:href="#BitstreamVeraSans-Roman-32"/>
      <use x="722.998046875" xlink:href="#BitstreamVeraSans-Roman-32"/>
      <use x="786.62109375" xlink:href="#BitstreamVeraSans-Roman-34"/>
      <use x="850.244140625" xlink:href="#BitstreamVeraSans-Roman-2e"/>
      <use x="882.03125" xlink:href="#BitstreamVeraSans-Roman-31"/>
      <use x="945.654296875" xlink:href="#BitstreamVeraSans-Roman-30"/>
     </g>
    </g>
    <g id="line2d_96">
     <path d="M 710.099988 60.619202 
L 730.091988 60.619202 
" style="fill:none;stroke:#d95f02;stroke-linecap:round;"/>
    </g>
    <g id="line2d_97"/>
    <g id="text_16">
     <!-- ICMP 172.22.224.11 -->
     <g style="fill:#262626;" transform="translate(738.088788 64.117801875)scale(0.09996 -0.09996)">
      <use xlink:href="#BitstreamVeraSans-Roman-49"/>
      <use x="29.4921875" xlink:href="#BitstreamVeraSans-Roman-43"/>
      <use x="99.31640625" xlink:href="#BitstreamVeraSans-Roman-4d"/>
      <use x="185.595703125" xlink:href="#BitstreamVeraSans-Roman-50"/>
      <use x="245.8984375" xlink:href="#BitstreamVeraSans-Roman-20"/>
      <use x="277.685546875" xlink:href="#BitstreamVeraSans-Roman-31"/>
      <use x="341.30859375" xlink:href="#BitstreamVeraSans-Roman-37"/>
      <use x="404.931640625" xlink:href="#BitstreamVeraSans-Roman-32"/>
      <use x="468.5546875" xlink:href="#BitstreamVeraSans-Roman-2e"/>
      <use x="500.341796875" xlink:href="#BitstreamVeraSans-Roman-32"/>
      <use x="563.96484375" xlink:href="#BitstreamVeraSans-Roman-32"/>
      <use x="627.587890625" xlink:href="#BitstreamVeraSans-Roman-2e"/>
      <use x="659.375" xlink:href="#BitstreamVeraSans-Roman-32"/>
      <use x="722.998046875" xlink:href="#BitstreamVeraSans-Roman-32"/>
      <use x="786.62109375" xlink:href="#BitstreamVeraSans-Roman-34"/>
      <use x="850.244140625" xlink:href="#BitstreamVeraSans-Roman-2e"/>
      <use x="882.03125" xlink:href="#BitstreamVeraSans-Roman-31"/>
      <use x="945.654296875" xlink:href="#BitstreamVeraSans-Roman-31"/>
     </g>
    </g>
    <g id="line2d_98">
     <path d="M 710.099988 75.291456 
L 730.091988 75.291456 
" style="fill:none;stroke:#7570b3;stroke-linecap:round;"/>
    </g>
    <g id="line2d_99"/>
    <g id="text_17">
     <!-- ICMP 172.22.224.10 -->
     <g style="fill:#262626;" transform="translate(738.088788 78.790055625)scale(0.09996 -0.09996)">
      <use xlink:href="#BitstreamVeraSans-Roman-49"/>
      <use x="29.4921875" xlink:href="#BitstreamVeraSans-Roman-43"/>
      <use x="99.31640625" xlink:href="#BitstreamVeraSans-Roman-4d"/>
      <use x="185.595703125" xlink:href="#BitstreamVeraSans-Roman-50"/>
      <use x="245.8984375" xlink:href="#BitstreamVeraSans-Roman-20"/>
      <use x="277.685546875" xlink:href="#BitstreamVeraSans-Roman-31"/>
      <use x="341.30859375" xlink:href="#BitstreamVeraSans-Roman-37"/>
      <use x="404.931640625" xlink:href="#BitstreamVeraSans-Roman-32"/>
      <use x="468.5546875" xlink:href="#BitstreamVeraSans-Roman-2e"/>
      <use x="500.341796875" xlink:href="#BitstreamVeraSans-Roman-32"/>
      <use x="563.96484375" xlink:href="#BitstreamVeraSans-Roman-32"/>
      <use x="627.587890625" xlink:href="#BitstreamVeraSans-Roman-2e"/>
      <use x="659.375" xlink:href="#BitstreamVeraSans-Roman-32"/>
      <use x="722.998046875" xlink:href="#BitstreamVeraSans-Roman-32"/>
      <use x="786.62109375" xlink:href="#BitstreamVeraSans-Roman-34"/>
      <use x="850.244140625" xlink:href="#BitstreamVeraSans-Roman-2e"/>
      <use x="882.03125" xlink:href="#BitstreamVeraSans-Roman-31"/>
      <use x="945.654296875" xlink:href="#BitstreamVeraSans-Roman-30"/>
     </g>
    </g>
    <g id="line2d_100">
     <path d="M 710.099988 89.963709 
L 730.091988 89.963709 
" style="fill:none;stroke:#e7298a;stroke-linecap:round;"/>
    </g>
    <g id="line2d_101"/>
    <g id="text_18">
     <!-- ICMP 172.22.224.11 -->
     <g style="fill:#262626;" transform="translate(738.088788 93.462309375)scale(0.09996 -0.09996)">
      <use xlink:href="#BitstreamVeraSans-Roman-49"/>
      <use x="29.4921875" xlink:href="#BitstreamVeraSans-Roman-43"/>
      <use x="99.31640625" xlink:href="#BitstreamVeraSans-Roman-4d"/>
      <use x="185.595703125" xlink:href="#BitstreamVeraSans-Roman-50"/>
      <use x="245.8984375" xlink:href="#BitstreamVeraSans-Roman-20"/>
      <use x="277.685546875" xlink:href="#BitstreamVeraSans-Roman-31"/>
      <use x="341.30859375" xlink:href="#BitstreamVeraSans-Roman-37"/>
      <use x="404.931640625" xlink:href="#BitstreamVeraSans-Roman-32"/>
      <use x="468.5546875" xlink:href="#BitstreamVeraSans-Roman-2e"/>
      <use x="500.341796875" xlink:href="#BitstreamVeraSans-Roman-32"/>
      <use x="563.96484375" xlink:href="#BitstreamVeraSans-Roman-32"/>
      <use x="627.587890625" xlink:href="#BitstreamVeraSans-Roman-2e"/>
      <use x="659.375" xlink:href="#BitstreamVeraSans-Roman-32"/>
      <use x="722.998046875" xlink:href="#BitstreamVeraSans-Roman-32"/>
      <use x="786.62109375" xlink:href="#BitstreamVeraSans-Roman-34"/>
      <use x="850.244140625" xlink:href="#BitstreamVeraSans-Roman-2e"/>
      <use x="882.03125" xlink:href="#BitstreamVeraSans-Roman-31"/>
      <use x="945.654296875" xlink:href="#BitstreamVeraSans-Roman-31"/>
     </g>
    </g>
    <g id="line2d_102">
     <path d="M 710.099988 104.635963 
L 730.091988 104.635963 
" style="fill:none;stroke:#000000;stroke-linecap:round;stroke-width:2.0;"/>
    </g>
    <g id="line2d_103"/>
    <g id="text_19">
     <!-- Avg -->
     <defs>
      <path d="M 34.1875 63.1875 
L 20.796875 26.90625 
L 47.609375 26.90625 
z
M 28.609375 72.90625 
L 39.796875 72.90625 
L 67.578125 0 
L 57.328125 0 
L 50.6875 18.703125 
L 17.828125 18.703125 
L 11.1875 0 
L 0.78125 0 
z
" id="BitstreamVeraSans-Roman-41"/>
     </defs>
     <g style="fill:#262626;" transform="translate(738.088788 108.134563125)scale(0.09996 -0.09996)">
      <use xlink:href="#BitstreamVeraSans-Roman-41"/>
      <use x="68.330078125" xlink:href="#BitstreamVeraSans-Roman-76"/>
      <use x="127.509765625" xlink:href="#BitstreamVeraSans-Roman-67"/>
     </g>
    </g>
   </g>
  </g>
  <g id="text_20">
   <!-- RTT Fair upstream only -->
   <defs>
    <path d="M 9.8125 72.90625 
L 51.703125 72.90625 
L 51.703125 64.59375 
L 19.671875 64.59375 
L 19.671875 43.109375 
L 48.578125 43.109375 
L 48.578125 34.8125 
L 19.671875 34.8125 
L 19.671875 0 
L 9.8125 0 
z
" id="BitstreamVeraSans-Roman-46"/>
    <path d="M 44.390625 34.1875 
Q 47.5625 33.109375 50.5625 29.59375 
Q 53.5625 26.078125 56.59375 19.921875 
L 66.609375 0 
L 56 0 
L 46.6875 18.703125 
Q 43.0625 26.03125 39.671875 28.421875 
Q 36.28125 30.8125 30.421875 30.8125 
L 19.671875 30.8125 
L 19.671875 0 
L 9.8125 0 
L 9.8125 72.90625 
L 32.078125 72.90625 
Q 44.578125 72.90625 50.734375 67.671875 
Q 56.890625 62.453125 56.890625 51.90625 
Q 56.890625 45.015625 53.6875 40.46875 
Q 50.484375 35.9375 44.390625 34.1875 
M 19.671875 64.796875 
L 19.671875 38.921875 
L 32.078125 38.921875 
Q 39.203125 38.921875 42.84375 42.21875 
Q 46.484375 45.515625 46.484375 51.90625 
Q 46.484375 58.296875 42.84375 61.546875 
Q 39.203125 64.796875 32.078125 64.796875 
z
" id="BitstreamVeraSans-Roman-52"/>
    <path d="M -0.296875 72.90625 
L 61.375 72.90625 
L 61.375 64.59375 
L 35.5 64.59375 
L 35.5 0 
L 25.59375 0 
L 25.59375 64.59375 
L -0.296875 64.59375 
z
" id="BitstreamVeraSans-Roman-54"/>
   </defs>
   <g style="fill:#262626;" transform="translate(380.57265625 10.6378125)scale(0.14 -0.14)">
    <use xlink:href="#BitstreamVeraSans-Roman-52"/>
    <use x="69.373046875" xlink:href="#BitstreamVeraSans-Roman-54"/>
    <use x="130.44140625" xlink:href="#BitstreamVeraSans-Roman-54"/>
    <use x="191.525390625" xlink:href="#BitstreamVeraSans-Roman-20"/>
    <use x="223.3125" xlink:href="#BitstreamVeraSans-Roman-46"/>
    <use x="280.69140625" xlink:href="#BitstreamVeraSans-Roman-61"/>
    <use x="341.970703125" xlink:href="#BitstreamVeraSans-Roman-69"/>
    <use x="369.75390625" xlink:href="#BitstreamVeraSans-Roman-72"/>
    <use x="410.8671875" xlink:href="#BitstreamVeraSans-Roman-20"/>
    <use x="442.654296875" xlink:href="#BitstreamVeraSans-Roman-75"/>
    <use x="506.033203125" xlink:href="#BitstreamVeraSans-Roman-70"/>
    <use x="569.509765625" xlink:href="#BitstreamVeraSans-Roman-73"/>
    <use x="621.609375" xlink:href="#BitstreamVeraSans-Roman-74"/>
    <use x="660.818359375" xlink:href="#BitstreamVeraSans-Roman-72"/>
    <use x="701.900390625" xlink:href="#BitstreamVeraSans-Roman-65"/>
    <use x="763.423828125" xlink:href="#BitstreamVeraSans-Roman-61"/>
    <use x="824.703125" xlink:href="#BitstreamVeraSans-Roman-6d"/>
    <use x="922.115234375" xlink:href="#BitstreamVeraSans-Roman-20"/>
    <use x="953.90234375" xlink:href="#BitstreamVeraSans-Roman-6f"/>
    <use x="1015.08398438" xlink:href="#BitstreamVeraSans-Roman-6e"/>
    <use x="1078.46289062" xlink:href="#BitstreamVeraSans-Roman-6c"/>
    <use x="1106.24609375" xlink:href="#BitstreamVeraSans-Roman-79"/>
   </g>
   <!-- Ping CDF plot -->
   <defs>
    <path d="M 19.671875 64.796875 
L 19.671875 8.109375 
L 31.59375 8.109375 
Q 46.6875 8.109375 53.6875 14.9375 
Q 60.6875 21.78125 60.6875 36.53125 
Q 60.6875 51.171875 53.6875 57.984375 
Q 46.6875 64.796875 31.59375 64.796875 
z
M 9.8125 72.90625 
L 30.078125 72.90625 
Q 51.265625 72.90625 61.171875 64.09375 
Q 71.09375 55.28125 71.09375 36.53125 
Q 71.09375 17.671875 61.125 8.828125 
Q 51.171875 0 30.078125 0 
L 9.8125 0 
z
" id="BitstreamVeraSans-Roman-44"/>
   </defs>
   <g style="fill:#262626;" transform="translate(414.9371875 26.31475)scale(0.14 -0.14)">
    <use xlink:href="#BitstreamVeraSans-Roman-50"/>
    <use x="60.271484375" xlink:href="#BitstreamVeraSans-Roman-69"/>
    <use x="88.0546875" xlink:href="#BitstreamVeraSans-Roman-6e"/>
    <use x="151.43359375" xlink:href="#BitstreamVeraSans-Roman-67"/>
    <use x="214.91015625" xlink:href="#BitstreamVeraSans-Roman-20"/>
    <use x="246.697265625" xlink:href="#BitstreamVeraSans-Roman-43"/>
    <use x="316.521484375" xlink:href="#BitstreamVeraSans-Roman-44"/>
    <use x="393.5234375" xlink:href="#BitstreamVeraSans-Roman-46"/>
    <use x="451.04296875" xlink:href="#BitstreamVeraSans-Roman-20"/>
    <use x="482.830078125" xlink:href="#BitstreamVeraSans-Roman-70"/>
    <use x="546.306640625" xlink:href="#BitstreamVeraSans-Roman-6c"/>
    <use x="574.08984375" xlink:href="#BitstreamVeraSans-Roman-6f"/>
    <use x="635.271484375" xlink:href="#BitstreamVeraSans-Roman-74"/>
   </g>
   <!-- osx-vs-ubnt-again -->
   <defs>
    <path d="M 4.890625 31.390625 
L 31.203125 31.390625 
L 31.203125 23.390625 
L 4.890625 23.390625 
z
" id="BitstreamVeraSans-Roman-2d"/>
    <path d="M 54.890625 54.6875 
L 35.109375 28.078125 
L 55.90625 0 
L 45.3125 0 
L 29.390625 21.484375 
L 13.484375 0 
L 2.875 0 
L 24.125 28.609375 
L 4.6875 54.6875 
L 15.28125 54.6875 
L 29.78125 35.203125 
L 44.28125 54.6875 
z
" id="BitstreamVeraSans-Roman-78"/>
   </defs>
   <g style="fill:#262626;" transform="translate(399.2484375 41.9916875)scale(0.14 -0.14)">
    <use xlink:href="#BitstreamVeraSans-Roman-6f"/>
    <use x="61.181640625" xlink:href="#BitstreamVeraSans-Roman-73"/>
    <use x="113.28125" xlink:href="#BitstreamVeraSans-Roman-78"/>
    <use x="172.4609375" xlink:href="#BitstreamVeraSans-Roman-2d"/>
    <use x="208.513671875" xlink:href="#BitstreamVeraSans-Roman-76"/>
    <use x="267.693359375" xlink:href="#BitstreamVeraSans-Roman-73"/>
    <use x="319.79296875" xlink:href="#BitstreamVeraSans-Roman-2d"/>
    <use x="355.876953125" xlink:href="#BitstreamVeraSans-Roman-75"/>
    <use x="419.255859375" xlink:href="#BitstreamVeraSans-Roman-62"/>
    <use x="482.732421875" xlink:href="#BitstreamVeraSans-Roman-6e"/>
    <use x="546.111328125" xlink:href="#BitstreamVeraSans-Roman-74"/>
    <use x="585.3203125" xlink:href="#BitstreamVeraSans-Roman-2d"/>
    <use x="621.404296875" xlink:href="#BitstreamVeraSans-Roman-61"/>
    <use x="682.68359375" xlink:href="#BitstreamVeraSans-Roman-67"/>
    <use x="746.16015625" xlink:href="#BitstreamVeraSans-Roman-61"/>
    <use x="807.439453125" xlink:href="#BitstreamVeraSans-Roman-69"/>
    <use x="835.22265625" xlink:href="#BitstreamVeraSans-Roman-6e"/>
   </g>
  </g>
  <g id="text_21">
   <!-- Local/remote: nemesis/172.22.224.10 - Time: 2016-10-09T16:23:00.860489 - Length/step: 30s/0.05s -->
   <defs>
    <path d="M 40.578125 39.3125 
Q 47.65625 37.796875 51.625 33 
Q 55.609375 28.21875 55.609375 21.1875 
Q 55.609375 10.40625 48.1875 4.484375 
Q 40.765625 -1.421875 27.09375 -1.421875 
Q 22.515625 -1.421875 17.65625 -0.515625 
Q 12.796875 0.390625 7.625 2.203125 
L 7.625 11.71875 
Q 11.71875 9.328125 16.59375 8.109375 
Q 21.484375 6.890625 26.8125 6.890625 
Q 36.078125 6.890625 40.9375 10.546875 
Q 45.796875 14.203125 45.796875 21.1875 
Q 45.796875 27.640625 41.28125 31.265625 
Q 36.765625 34.90625 28.71875 34.90625 
L 20.21875 34.90625 
L 20.21875 43.015625 
L 29.109375 43.015625 
Q 36.375 43.015625 40.234375 45.921875 
Q 44.09375 48.828125 44.09375 54.296875 
Q 44.09375 59.90625 40.109375 62.90625 
Q 36.140625 65.921875 28.71875 65.921875 
Q 24.65625 65.921875 20.015625 65.03125 
Q 15.375 64.15625 9.8125 62.3125 
L 9.8125 71.09375 
Q 15.4375 72.65625 20.34375 73.4375 
Q 25.25 74.21875 29.59375 74.21875 
Q 40.828125 74.21875 47.359375 69.109375 
Q 53.90625 64.015625 53.90625 55.328125 
Q 53.90625 49.265625 50.4375 45.09375 
Q 46.96875 40.921875 40.578125 39.3125 
" id="BitstreamVeraSans-Roman-33"/>
    <path d="M 10.796875 72.90625 
L 49.515625 72.90625 
L 49.515625 64.59375 
L 19.828125 64.59375 
L 19.828125 46.734375 
Q 21.96875 47.46875 24.109375 47.828125 
Q 26.265625 48.1875 28.421875 48.1875 
Q 40.625 48.1875 47.75 41.5 
Q 54.890625 34.8125 54.890625 23.390625 
Q 54.890625 11.625 47.5625 5.09375 
Q 40.234375 -1.421875 26.90625 -1.421875 
Q 22.3125 -1.421875 17.546875 -0.640625 
Q 12.796875 0.140625 7.71875 1.703125 
L 7.71875 11.625 
Q 12.109375 9.234375 16.796875 8.0625 
Q 21.484375 6.890625 26.703125 6.890625 
Q 35.15625 6.890625 40.078125 11.328125 
Q 45.015625 15.765625 45.015625 23.390625 
Q 45.015625 31 40.078125 35.4375 
Q 35.15625 39.890625 26.703125 39.890625 
Q 22.75 39.890625 18.8125 39.015625 
Q 14.890625 38.140625 10.796875 36.28125 
z
" id="BitstreamVeraSans-Roman-35"/>
    <path d="M 10.984375 1.515625 
L 10.984375 10.5 
Q 14.703125 8.734375 18.5 7.8125 
Q 22.3125 6.890625 25.984375 6.890625 
Q 35.75 6.890625 40.890625 13.453125 
Q 46.046875 20.015625 46.78125 33.40625 
Q 43.953125 29.203125 39.59375 26.953125 
Q 35.25 24.703125 29.984375 24.703125 
Q 19.046875 24.703125 12.671875 31.3125 
Q 6.296875 37.9375 6.296875 49.421875 
Q 6.296875 60.640625 12.9375 67.421875 
Q 19.578125 74.21875 30.609375 74.21875 
Q 43.265625 74.21875 49.921875 64.515625 
Q 56.59375 54.828125 56.59375 36.375 
Q 56.59375 19.140625 48.40625 8.859375 
Q 40.234375 -1.421875 26.421875 -1.421875 
Q 22.703125 -1.421875 18.890625 -0.6875 
Q 15.09375 0.046875 10.984375 1.515625 
M 30.609375 32.421875 
Q 37.25 32.421875 41.125 36.953125 
Q 45.015625 41.5 45.015625 49.421875 
Q 45.015625 57.28125 41.125 61.84375 
Q 37.25 66.40625 30.609375 66.40625 
Q 23.96875 66.40625 20.09375 61.84375 
Q 16.21875 57.28125 16.21875 49.421875 
Q 16.21875 41.5 20.09375 36.953125 
Q 23.96875 32.421875 30.609375 32.421875 
" id="BitstreamVeraSans-Roman-39"/>
    <path d="M 11.71875 12.40625 
L 22.015625 12.40625 
L 22.015625 0 
L 11.71875 0 
z
M 11.71875 51.703125 
L 22.015625 51.703125 
L 22.015625 39.3125 
L 11.71875 39.3125 
z
" id="BitstreamVeraSans-Roman-3a"/>
    <path d="M 54.890625 33.015625 
L 54.890625 0 
L 45.90625 0 
L 45.90625 32.71875 
Q 45.90625 40.484375 42.875 44.328125 
Q 39.84375 48.1875 33.796875 48.1875 
Q 26.515625 48.1875 22.3125 43.546875 
Q 18.109375 38.921875 18.109375 30.90625 
L 18.109375 0 
L 9.078125 0 
L 9.078125 75.984375 
L 18.109375 75.984375 
L 18.109375 46.1875 
Q 21.34375 51.125 25.703125 53.5625 
Q 30.078125 56 35.796875 56 
Q 45.21875 56 50.046875 50.171875 
Q 54.890625 44.34375 54.890625 33.015625 
" id="BitstreamVeraSans-Roman-68"/>
    <path d="M 25.390625 72.90625 
L 33.6875 72.90625 
L 8.296875 -9.28125 
L 0 -9.28125 
z
" id="BitstreamVeraSans-Roman-2f"/>
   </defs>
   <g style="fill:#262626;" transform="translate(259.3325 210.73625)scale(0.08 -0.08)">
    <use xlink:href="#BitstreamVeraSans-Roman-4c"/>
    <use x="55.697265625" xlink:href="#BitstreamVeraSans-Roman-6f"/>
    <use x="116.87890625" xlink:href="#BitstreamVeraSans-Roman-63"/>
    <use x="171.859375" xlink:href="#BitstreamVeraSans-Roman-61"/>
    <use x="233.138671875" xlink:href="#BitstreamVeraSans-Roman-6c"/>
    <use x="260.921875" xlink:href="#BitstreamVeraSans-Roman-2f"/>
    <use x="294.61328125" xlink:href="#BitstreamVeraSans-Roman-72"/>
    <use x="335.6953125" xlink:href="#BitstreamVeraSans-Roman-65"/>
    <use x="397.21875" xlink:href="#BitstreamVeraSans-Roman-6d"/>
    <use x="494.630859375" xlink:href="#BitstreamVeraSans-Roman-6f"/>
    <use x="555.8125" xlink:href="#BitstreamVeraSans-Roman-74"/>
    <use x="595.021484375" xlink:href="#BitstreamVeraSans-Roman-65"/>
    <use x="656.544921875" xlink:href="#BitstreamVeraSans-Roman-3a"/>
    <use x="690.236328125" xlink:href="#BitstreamVeraSans-Roman-20"/>
    <use x="722.0234375" xlink:href="#BitstreamVeraSans-Roman-6e"/>
    <use x="785.40234375" xlink:href="#BitstreamVeraSans-Roman-65"/>
    <use x="846.92578125" xlink:href="#BitstreamVeraSans-Roman-6d"/>
    <use x="944.337890625" xlink:href="#BitstreamVeraSans-Roman-65"/>
    <use x="1005.86132812" xlink:href="#BitstreamVeraSans-Roman-73"/>
    <use x="1057.9609375" xlink:href="#BitstreamVeraSans-Roman-69"/>
    <use x="1085.74414062" xlink:href="#BitstreamVeraSans-Roman-73"/>
    <use x="1137.84375" xlink:href="#BitstreamVeraSans-Roman-2f"/>
    <use x="1171.53515625" xlink:href="#BitstreamVeraSans-Roman-31"/>
    <use x="1235.15820312" xlink:href="#BitstreamVeraSans-Roman-37"/>
    <use x="1298.78125" xlink:href="#BitstreamVeraSans-Roman-32"/>
    <use x="1362.40429688" xlink:href="#BitstreamVeraSans-Roman-2e"/>
    <use x="1394.19140625" xlink:href="#BitstreamVeraSans-Roman-32"/>
    <use x="1457.81445312" xlink:href="#BitstreamVeraSans-Roman-32"/>
    <use x="1521.4375" xlink:href="#BitstreamVeraSans-Roman-2e"/>
    <use x="1553.22460938" xlink:href="#BitstreamVeraSans-Roman-32"/>
    <use x="1616.84765625" xlink:href="#BitstreamVeraSans-Roman-32"/>
    <use x="1680.47070312" xlink:href="#BitstreamVeraSans-Roman-34"/>
    <use x="1744.09375" xlink:href="#BitstreamVeraSans-Roman-2e"/>
    <use x="1775.88085938" xlink:href="#BitstreamVeraSans-Roman-31"/>
    <use x="1839.50390625" xlink:href="#BitstreamVeraSans-Roman-30"/>
    <use x="1903.12695312" xlink:href="#BitstreamVeraSans-Roman-20"/>
    <use x="1934.9140625" xlink:href="#BitstreamVeraSans-Roman-2d"/>
    <use x="1970.99804688" xlink:href="#BitstreamVeraSans-Roman-20"/>
    <use x="2002.78515625" xlink:href="#BitstreamVeraSans-Roman-54"/>
    <use x="2063.82226562" xlink:href="#BitstreamVeraSans-Roman-69"/>
    <use x="2091.60546875" xlink:href="#BitstreamVeraSans-Roman-6d"/>
    <use x="2189.01757812" xlink:href="#BitstreamVeraSans-Roman-65"/>
    <use x="2250.54101562" xlink:href="#BitstreamVeraSans-Roman-3a"/>
    <use x="2284.23242188" xlink:href="#BitstreamVeraSans-Roman-20"/>
    <use x="2316.01953125" xlink:href="#BitstreamVeraSans-Roman-32"/>
    <use x="2379.64257812" xlink:href="#BitstreamVeraSans-Roman-30"/>
    <use x="2443.265625" xlink:href="#BitstreamVeraSans-Roman-31"/>
    <use x="2506.88867188" xlink:href="#BitstreamVeraSans-Roman-36"/>
    <use x="2570.51171875" xlink:href="#BitstreamVeraSans-Roman-2d"/>
    <use x="2606.59570312" xlink:href="#BitstreamVeraSans-Roman-31"/>
    <use x="2670.21875" xlink:href="#BitstreamVeraSans-Roman-30"/>
    <use x="2733.84179688" xlink:href="#BitstreamVeraSans-Roman-2d"/>
    <use x="2769.92578125" xlink:href="#BitstreamVeraSans-Roman-30"/>
    <use x="2833.54882812" xlink:href="#BitstreamVeraSans-Roman-39"/>
    <use x="2897.171875" xlink:href="#BitstreamVeraSans-Roman-54"/>
    <use x="2958.25585938" xlink:href="#BitstreamVeraSans-Roman-31"/>
    <use x="3021.87890625" xlink:href="#BitstreamVeraSans-Roman-36"/>
    <use x="3085.50195312" xlink:href="#BitstreamVeraSans-Roman-3a"/>
    <use x="3119.19335938" xlink:href="#BitstreamVeraSans-Roman-32"/>
    <use x="3182.81640625" xlink:href="#BitstreamVeraSans-Roman-33"/>
    <use x="3246.43945312" xlink:href="#BitstreamVeraSans-Roman-3a"/>
    <use x="3280.13085938" xlink:href="#BitstreamVeraSans-Roman-30"/>
    <use x="3343.75390625" xlink:href="#BitstreamVeraSans-Roman-30"/>
    <use x="3407.37695312" xlink:href="#BitstreamVeraSans-Roman-2e"/>
    <use x="3439.1640625" xlink:href="#BitstreamVeraSans-Roman-38"/>
    <use x="3502.78710938" xlink:href="#BitstreamVeraSans-Roman-36"/>
    <use x="3566.41015625" xlink:href="#BitstreamVeraSans-Roman-30"/>
    <use x="3630.03320312" xlink:href="#BitstreamVeraSans-Roman-34"/>
    <use x="3693.65625" xlink:href="#BitstreamVeraSans-Roman-38"/>
    <use x="3757.27929688" xlink:href="#BitstreamVeraSans-Roman-39"/>
    <use x="3820.90234375" xlink:href="#BitstreamVeraSans-Roman-20"/>
    <use x="3852.68945312" xlink:href="#BitstreamVeraSans-Roman-2d"/>
    <use x="3888.7734375" xlink:href="#BitstreamVeraSans-Roman-20"/>
    <use x="3920.56054688" xlink:href="#BitstreamVeraSans-Roman-4c"/>
    <use x="3976.2578125" xlink:href="#BitstreamVeraSans-Roman-65"/>
    <use x="4037.78125" xlink:href="#BitstreamVeraSans-Roman-6e"/>
    <use x="4101.16015625" xlink:href="#BitstreamVeraSans-Roman-67"/>
    <use x="4164.63671875" xlink:href="#BitstreamVeraSans-Roman-74"/>
    <use x="4203.84570312" xlink:href="#BitstreamVeraSans-Roman-68"/>
    <use x="4267.22460938" xlink:href="#BitstreamVeraSans-Roman-2f"/>
    <use x="4300.91601562" xlink:href="#BitstreamVeraSans-Roman-73"/>
    <use x="4353.015625" xlink:href="#BitstreamVeraSans-Roman-74"/>
    <use x="4392.22460938" xlink:href="#BitstreamVeraSans-Roman-65"/>
    <use x="4453.74804688" xlink:href="#BitstreamVeraSans-Roman-70"/>
    <use x="4517.22460938" xlink:href="#BitstreamVeraSans-Roman-3a"/>
    <use x="4550.91601562" xlink:href="#BitstreamVeraSans-Roman-20"/>
    <use x="4582.703125" xlink:href="#BitstreamVeraSans-Roman-33"/>
    <use x="4646.32617188" xlink:href="#BitstreamVeraSans-Roman-30"/>
    <use x="4709.94921875" xlink:href="#BitstreamVeraSans-Roman-73"/>
    <use x="4762.04882812" xlink:href="#BitstreamVeraSans-Roman-2f"/>
    <use x="4795.74023438" xlink:href="#BitstreamVeraSans-Roman-30"/>
    <use x="4859.36328125" xlink:href="#BitstreamVeraSans-Roman-2e"/>
    <use x="4891.15039062" xlink:href="#BitstreamVeraSans-Roman-30"/>
    <use x="4954.7734375" xlink:href="#BitstreamVeraSans-Roman-35"/>
    <use x="5018.39648438" xlink:href="#BitstreamVeraSans-Roman-73"/>
   </g>
  </g>
 </g>
 <defs>
  <clipPath id="pc3e26f1554">
   <rect height="169.92" width="578.9844" x="115.5375" y="21.24"/>
  </clipPath>
 </defs>
</svg>
