<?xml version="1.0" encoding="utf-8" standalone="no"?>
<!DOCTYPE svg PUBLIC "-//W3C//DTD SVG 1.1//EN"
  "http://www.w3.org/Graphics/SVG/1.1/DTD/svg11.dtd">
<!-- Created with matplotlib (http://matplotlib.org/) -->
<svg height="640pt" version="1.1" viewBox="0 0 1503 640" width="1503pt" xmlns="http://www.w3.org/2000/svg" xmlns:xlink="http://www.w3.org/1999/xlink">
 <defs>
  <style type="text/css">
*{stroke-linecap:butt;stroke-linejoin:round;stroke-miterlimit:100000;}
  </style>
 </defs>
 <g id="figure_1">
  <g id="patch_1">
   <path d="M 0 640.8 
L 1503.9 640.8 
L 1503.9 0 
L 0 0 
z
" style="fill:#ffffff;"/>
  </g>
  <g id="axes_1">
   <g id="patch_2">
    <path d="M 187.9875 576.72 
L 1216.1619 576.72 
L 1216.1619 64.08 
L 187.9875 64.08 
z
" style="fill:#eaeaf2;"/>
   </g>
   <g id="matplotlib.axis_1">
    <g id="xtick_1">
     <g id="line2d_1">
      <path clip-path="url(#p01b7d25c6d)" d="M 411.390837 576.72 
L 411.390837 64.08 
" style="fill:none;stroke:#ffffff;stroke-linecap:round;stroke-width:0.5;"/>
     </g>
     <g id="line2d_2">
      <defs>
       <path d="M 0 0 
L 0 0 
" id="md12323155f" style="stroke:#262626;stroke-width:0.5;"/>
      </defs>
      <g>
       <use style="fill:#262626;stroke:#262626;stroke-width:0.5;" x="411.390836828" xlink:href="#md12323155f" y="576.72"/>
      </g>
     </g>
     <g id="line2d_3">
      <g>
       <use style="fill:#262626;stroke:#262626;stroke-width:0.5;" x="411.390836828" xlink:href="#md12323155f" y="64.08"/>
      </g>
     </g>
     <g id="text_1">
      <!-- 50 -->
      <defs>
       <path d="M 31.78125 66.40625 
Q 24.171875 66.40625 20.328125 58.90625 
Q 16.5 51.421875 16.5 36.375 
Q 16.5 21.390625 20.328125 13.890625 
Q 24.171875 6.390625 31.78125 6.390625 
Q 39.453125 6.390625 43.28125 13.890625 
Q 47.125 21.390625 47.125 36.375 
Q 47.125 51.421875 43.28125 58.90625 
Q 39.453125 66.40625 31.78125 66.40625 
M 31.78125 74.21875 
Q 44.046875 74.21875 50.515625 64.515625 
Q 56.984375 54.828125 56.984375 36.375 
Q 56.984375 17.96875 50.515625 8.265625 
Q 44.046875 -1.421875 31.78125 -1.421875 
Q 19.53125 -1.421875 13.0625 8.265625 
Q 6.59375 17.96875 6.59375 36.375 
Q 6.59375 54.828125 13.0625 64.515625 
Q 19.53125 74.21875 31.78125 74.21875 
" id="BitstreamVeraSans-Roman-30"/>
       <path d="M 10.796875 72.90625 
L 49.515625 72.90625 
L 49.515625 64.59375 
L 19.828125 64.59375 
L 19.828125 46.734375 
Q 21.96875 47.46875 24.109375 47.828125 
Q 26.265625 48.1875 28.421875 48.1875 
Q 40.625 48.1875 47.75 41.5 
Q 54.890625 34.8125 54.890625 23.390625 
Q 54.890625 11.625 47.5625 5.09375 
Q 40.234375 -1.421875 26.90625 -1.421875 
Q 22.3125 -1.421875 17.546875 -0.640625 
Q 12.796875 0.140625 7.71875 1.703125 
L 7.71875 11.625 
Q 12.109375 9.234375 16.796875 8.0625 
Q 21.484375 6.890625 26.703125 6.890625 
Q 35.15625 6.890625 40.078125 11.328125 
Q 45.015625 15.765625 45.015625 23.390625 
Q 45.015625 31 40.078125 35.4375 
Q 35.15625 39.890625 26.703125 39.890625 
Q 22.75 39.890625 18.8125 39.015625 
Q 14.890625 38.140625 10.796875 36.28125 
z
" id="BitstreamVeraSans-Roman-35"/>
      </defs>
      <g style="fill:#262626;" transform="translate(403.755836828 589.838125)scale(0.12 -0.12)">
       <use xlink:href="#BitstreamVeraSans-Roman-35"/>
       <use x="63.623046875" xlink:href="#BitstreamVeraSans-Roman-30"/>
      </g>
     </g>
    </g>
    <g id="xtick_2">
     <g id="line2d_4">
      <path clip-path="url(#p01b7d25c6d)" d="M 706.571911 576.72 
L 706.571911 64.08 
" style="fill:none;stroke:#ffffff;stroke-linecap:round;stroke-width:0.5;"/>
     </g>
     <g id="line2d_5">
      <g>
       <use style="fill:#262626;stroke:#262626;stroke-width:0.5;" x="706.571910567" xlink:href="#md12323155f" y="576.72"/>
      </g>
     </g>
     <g id="line2d_6">
      <g>
       <use style="fill:#262626;stroke:#262626;stroke-width:0.5;" x="706.571910567" xlink:href="#md12323155f" y="64.08"/>
      </g>
     </g>
     <g id="text_2">
      <!-- 100 -->
      <defs>
       <path d="M 12.40625 8.296875 
L 28.515625 8.296875 
L 28.515625 63.921875 
L 10.984375 60.40625 
L 10.984375 69.390625 
L 28.421875 72.90625 
L 38.28125 72.90625 
L 38.28125 8.296875 
L 54.390625 8.296875 
L 54.390625 0 
L 12.40625 0 
z
" id="BitstreamVeraSans-Roman-31"/>
      </defs>
      <g style="fill:#262626;" transform="translate(695.119410567 589.838125)scale(0.12 -0.12)">
       <use xlink:href="#BitstreamVeraSans-Roman-31"/>
       <use x="63.623046875" xlink:href="#BitstreamVeraSans-Roman-30"/>
       <use x="127.24609375" xlink:href="#BitstreamVeraSans-Roman-30"/>
      </g>
     </g>
    </g>
    <g id="xtick_3">
     <g id="line2d_7">
      <path clip-path="url(#p01b7d25c6d)" d="M 1001.752984 576.72 
L 1001.752984 64.08 
" style="fill:none;stroke:#ffffff;stroke-linecap:round;stroke-width:0.5;"/>
     </g>
     <g id="line2d_8">
      <g>
       <use style="fill:#262626;stroke:#262626;stroke-width:0.5;" x="1001.75298431" xlink:href="#md12323155f" y="576.72"/>
      </g>
     </g>
     <g id="line2d_9">
      <g>
       <use style="fill:#262626;stroke:#262626;stroke-width:0.5;" x="1001.75298431" xlink:href="#md12323155f" y="64.08"/>
      </g>
     </g>
     <g id="text_3">
      <!-- 150 -->
      <g style="fill:#262626;" transform="translate(990.300484307 589.838125)scale(0.12 -0.12)">
       <use xlink:href="#BitstreamVeraSans-Roman-31"/>
       <use x="63.623046875" xlink:href="#BitstreamVeraSans-Roman-35"/>
       <use x="127.24609375" xlink:href="#BitstreamVeraSans-Roman-30"/>
      </g>
     </g>
    </g>
    <g id="xtick_4">
     <g id="line2d_10">
      <g>
       <use style="fill:#262626;stroke:#262626;stroke-width:0.5;" x="234.282192584" xlink:href="#md12323155f" y="576.72"/>
      </g>
     </g>
     <g id="line2d_11">
      <g>
       <use style="fill:#262626;stroke:#262626;stroke-width:0.5;" x="234.282192584" xlink:href="#md12323155f" y="64.08"/>
      </g>
     </g>
    </g>
    <g id="xtick_5">
     <g id="line2d_12">
      <g>
       <use style="fill:#262626;stroke:#262626;stroke-width:0.5;" x="293.318407332" xlink:href="#md12323155f" y="576.72"/>
      </g>
     </g>
     <g id="line2d_13">
      <g>
       <use style="fill:#262626;stroke:#262626;stroke-width:0.5;" x="293.318407332" xlink:href="#md12323155f" y="64.08"/>
      </g>
     </g>
    </g>
    <g id="xtick_6">
     <g id="line2d_14">
      <g>
       <use style="fill:#262626;stroke:#262626;stroke-width:0.5;" x="352.35462208" xlink:href="#md12323155f" y="576.72"/>
      </g>
     </g>
     <g id="line2d_15">
      <g>
       <use style="fill:#262626;stroke:#262626;stroke-width:0.5;" x="352.35462208" xlink:href="#md12323155f" y="64.08"/>
      </g>
     </g>
    </g>
    <g id="xtick_7">
     <g id="line2d_16">
      <g>
       <use style="fill:#262626;stroke:#262626;stroke-width:0.5;" x="470.427051576" xlink:href="#md12323155f" y="576.72"/>
      </g>
     </g>
     <g id="line2d_17">
      <g>
       <use style="fill:#262626;stroke:#262626;stroke-width:0.5;" x="470.427051576" xlink:href="#md12323155f" y="64.08"/>
      </g>
     </g>
    </g>
    <g id="xtick_8">
     <g id="line2d_18">
      <g>
       <use style="fill:#262626;stroke:#262626;stroke-width:0.5;" x="529.463266324" xlink:href="#md12323155f" y="576.72"/>
      </g>
     </g>
     <g id="line2d_19">
      <g>
       <use style="fill:#262626;stroke:#262626;stroke-width:0.5;" x="529.463266324" xlink:href="#md12323155f" y="64.08"/>
      </g>
     </g>
    </g>
    <g id="xtick_9">
     <g id="line2d_20">
      <g>
       <use style="fill:#262626;stroke:#262626;stroke-width:0.5;" x="588.499481071" xlink:href="#md12323155f" y="576.72"/>
      </g>
     </g>
     <g id="line2d_21">
      <g>
       <use style="fill:#262626;stroke:#262626;stroke-width:0.5;" x="588.499481071" xlink:href="#md12323155f" y="64.08"/>
      </g>
     </g>
    </g>
    <g id="xtick_10">
     <g id="line2d_22">
      <g>
       <use style="fill:#262626;stroke:#262626;stroke-width:0.5;" x="647.535695819" xlink:href="#md12323155f" y="576.72"/>
      </g>
     </g>
     <g id="line2d_23">
      <g>
       <use style="fill:#262626;stroke:#262626;stroke-width:0.5;" x="647.535695819" xlink:href="#md12323155f" y="64.08"/>
      </g>
     </g>
    </g>
    <g id="xtick_11">
     <g id="line2d_24">
      <g>
       <use style="fill:#262626;stroke:#262626;stroke-width:0.5;" x="765.608125315" xlink:href="#md12323155f" y="576.72"/>
      </g>
     </g>
     <g id="line2d_25">
      <g>
       <use style="fill:#262626;stroke:#262626;stroke-width:0.5;" x="765.608125315" xlink:href="#md12323155f" y="64.08"/>
      </g>
     </g>
    </g>
    <g id="xtick_12">
     <g id="line2d_26">
      <g>
       <use style="fill:#262626;stroke:#262626;stroke-width:0.5;" x="824.644340063" xlink:href="#md12323155f" y="576.72"/>
      </g>
     </g>
     <g id="line2d_27">
      <g>
       <use style="fill:#262626;stroke:#262626;stroke-width:0.5;" x="824.644340063" xlink:href="#md12323155f" y="64.08"/>
      </g>
     </g>
    </g>
    <g id="xtick_13">
     <g id="line2d_28">
      <g>
       <use style="fill:#262626;stroke:#262626;stroke-width:0.5;" x="883.680554811" xlink:href="#md12323155f" y="576.72"/>
      </g>
     </g>
     <g id="line2d_29">
      <g>
       <use style="fill:#262626;stroke:#262626;stroke-width:0.5;" x="883.680554811" xlink:href="#md12323155f" y="64.08"/>
      </g>
     </g>
    </g>
    <g id="xtick_14">
     <g id="line2d_30">
      <g>
       <use style="fill:#262626;stroke:#262626;stroke-width:0.5;" x="942.716769559" xlink:href="#md12323155f" y="576.72"/>
      </g>
     </g>
     <g id="line2d_31">
      <g>
       <use style="fill:#262626;stroke:#262626;stroke-width:0.5;" x="942.716769559" xlink:href="#md12323155f" y="64.08"/>
      </g>
     </g>
    </g>
    <g id="xtick_15">
     <g id="line2d_32">
      <g>
       <use style="fill:#262626;stroke:#262626;stroke-width:0.5;" x="1060.78919905" xlink:href="#md12323155f" y="576.72"/>
      </g>
     </g>
     <g id="line2d_33">
      <g>
       <use style="fill:#262626;stroke:#262626;stroke-width:0.5;" x="1060.78919905" xlink:href="#md12323155f" y="64.08"/>
      </g>
     </g>
    </g>
    <g id="xtick_16">
     <g id="line2d_34">
      <g>
       <use style="fill:#262626;stroke:#262626;stroke-width:0.5;" x="1119.8254138" xlink:href="#md12323155f" y="576.72"/>
      </g>
     </g>
     <g id="line2d_35">
      <g>
       <use style="fill:#262626;stroke:#262626;stroke-width:0.5;" x="1119.8254138" xlink:href="#md12323155f" y="64.08"/>
      </g>
     </g>
    </g>
    <g id="xtick_17">
     <g id="line2d_36">
      <g>
       <use style="fill:#262626;stroke:#262626;stroke-width:0.5;" x="1178.86162855" xlink:href="#md12323155f" y="576.72"/>
      </g>
     </g>
     <g id="line2d_37">
      <g>
       <use style="fill:#262626;stroke:#262626;stroke-width:0.5;" x="1178.86162855" xlink:href="#md12323155f" y="64.08"/>
      </g>
     </g>
    </g>
    <g id="text_4">
     <!-- Latency (ms) -->
     <defs>
      <path id="BitstreamVeraSans-Roman-20"/>
      <path d="M 52 44.1875 
Q 55.375 50.25 60.0625 53.125 
Q 64.75 56 71.09375 56 
Q 79.640625 56 84.28125 50.015625 
Q 88.921875 44.046875 88.921875 33.015625 
L 88.921875 0 
L 79.890625 0 
L 79.890625 32.71875 
Q 79.890625 40.578125 77.09375 44.375 
Q 74.3125 48.1875 68.609375 48.1875 
Q 61.625 48.1875 57.5625 43.546875 
Q 53.515625 38.921875 53.515625 30.90625 
L 53.515625 0 
L 44.484375 0 
L 44.484375 32.71875 
Q 44.484375 40.625 41.703125 44.40625 
Q 38.921875 48.1875 33.109375 48.1875 
Q 26.21875 48.1875 22.15625 43.53125 
Q 18.109375 38.875 18.109375 30.90625 
L 18.109375 0 
L 9.078125 0 
L 9.078125 54.6875 
L 18.109375 54.6875 
L 18.109375 46.1875 
Q 21.1875 51.21875 25.484375 53.609375 
Q 29.78125 56 35.6875 56 
Q 41.65625 56 45.828125 52.96875 
Q 50 49.953125 52 44.1875 
" id="BitstreamVeraSans-Roman-6d"/>
      <path d="M 9.8125 72.90625 
L 19.671875 72.90625 
L 19.671875 8.296875 
L 55.171875 8.296875 
L 55.171875 0 
L 9.8125 0 
z
" id="BitstreamVeraSans-Roman-4c"/>
      <path d="M 54.890625 33.015625 
L 54.890625 0 
L 45.90625 0 
L 45.90625 32.71875 
Q 45.90625 40.484375 42.875 44.328125 
Q 39.84375 48.1875 33.796875 48.1875 
Q 26.515625 48.1875 22.3125 43.546875 
Q 18.109375 38.921875 18.109375 30.90625 
L 18.109375 0 
L 9.078125 0 
L 9.078125 54.6875 
L 18.109375 54.6875 
L 18.109375 46.1875 
Q 21.34375 51.125 25.703125 53.5625 
Q 30.078125 56 35.796875 56 
Q 45.21875 56 50.046875 50.171875 
Q 54.890625 44.34375 54.890625 33.015625 
" id="BitstreamVeraSans-Roman-6e"/>
      <path d="M 31 75.875 
Q 24.46875 64.65625 21.28125 53.65625 
Q 18.109375 42.671875 18.109375 31.390625 
Q 18.109375 20.125 21.3125 9.0625 
Q 24.515625 -2 31 -13.1875 
L 23.1875 -13.1875 
Q 15.875 -1.703125 12.234375 9.375 
Q 8.59375 20.453125 8.59375 31.390625 
Q 8.59375 42.28125 12.203125 53.3125 
Q 15.828125 64.359375 23.1875 75.875 
z
" id="BitstreamVeraSans-Roman-28"/>
      <path d="M 8.015625 75.875 
L 15.828125 75.875 
Q 23.140625 64.359375 26.78125 53.3125 
Q 30.421875 42.28125 30.421875 31.390625 
Q 30.421875 20.453125 26.78125 9.375 
Q 23.140625 -1.703125 15.828125 -13.1875 
L 8.015625 -13.1875 
Q 14.5 -2 17.703125 9.0625 
Q 20.90625 20.125 20.90625 31.390625 
Q 20.90625 42.671875 17.703125 53.65625 
Q 14.5 64.65625 8.015625 75.875 
" id="BitstreamVeraSans-Roman-29"/>
      <path d="M 32.171875 -5.078125 
Q 28.375 -14.84375 24.75 -17.8125 
Q 21.140625 -20.796875 15.09375 -20.796875 
L 7.90625 -20.796875 
L 7.90625 -13.28125 
L 13.1875 -13.28125 
Q 16.890625 -13.28125 18.9375 -11.515625 
Q 21 -9.765625 23.484375 -3.21875 
L 25.09375 0.875 
L 2.984375 54.6875 
L 12.5 54.6875 
L 29.59375 11.921875 
L 46.6875 54.6875 
L 56.203125 54.6875 
z
" id="BitstreamVeraSans-Roman-79"/>
      <path d="M 56.203125 29.59375 
L 56.203125 25.203125 
L 14.890625 25.203125 
Q 15.484375 15.921875 20.484375 11.0625 
Q 25.484375 6.203125 34.421875 6.203125 
Q 39.59375 6.203125 44.453125 7.46875 
Q 49.3125 8.734375 54.109375 11.28125 
L 54.109375 2.78125 
Q 49.265625 0.734375 44.1875 -0.34375 
Q 39.109375 -1.421875 33.890625 -1.421875 
Q 20.796875 -1.421875 13.15625 6.1875 
Q 5.515625 13.8125 5.515625 26.8125 
Q 5.515625 40.234375 12.765625 48.109375 
Q 20.015625 56 32.328125 56 
Q 43.359375 56 49.78125 48.890625 
Q 56.203125 41.796875 56.203125 29.59375 
M 47.21875 32.234375 
Q 47.125 39.59375 43.09375 43.984375 
Q 39.0625 48.390625 32.421875 48.390625 
Q 24.90625 48.390625 20.390625 44.140625 
Q 15.875 39.890625 15.1875 32.171875 
z
" id="BitstreamVeraSans-Roman-65"/>
      <path d="M 18.3125 70.21875 
L 18.3125 54.6875 
L 36.8125 54.6875 
L 36.8125 47.703125 
L 18.3125 47.703125 
L 18.3125 18.015625 
Q 18.3125 11.328125 20.140625 9.421875 
Q 21.96875 7.515625 27.59375 7.515625 
L 36.8125 7.515625 
L 36.8125 0 
L 27.59375 0 
Q 17.1875 0 13.234375 3.875 
Q 9.28125 7.765625 9.28125 18.015625 
L 9.28125 47.703125 
L 2.6875 47.703125 
L 2.6875 54.6875 
L 9.28125 54.6875 
L 9.28125 70.21875 
z
" id="BitstreamVeraSans-Roman-74"/>
      <path d="M 34.28125 27.484375 
Q 23.390625 27.484375 19.1875 25 
Q 14.984375 22.515625 14.984375 16.5 
Q 14.984375 11.71875 18.140625 8.90625 
Q 21.296875 6.109375 26.703125 6.109375 
Q 34.1875 6.109375 38.703125 11.40625 
Q 43.21875 16.703125 43.21875 25.484375 
L 43.21875 27.484375 
z
M 52.203125 31.203125 
L 52.203125 0 
L 43.21875 0 
L 43.21875 8.296875 
Q 40.140625 3.328125 35.546875 0.953125 
Q 30.953125 -1.421875 24.3125 -1.421875 
Q 15.921875 -1.421875 10.953125 3.296875 
Q 6 8.015625 6 15.921875 
Q 6 25.140625 12.171875 29.828125 
Q 18.359375 34.515625 30.609375 34.515625 
L 43.21875 34.515625 
L 43.21875 35.40625 
Q 43.21875 41.609375 39.140625 45 
Q 35.0625 48.390625 27.6875 48.390625 
Q 23 48.390625 18.546875 47.265625 
Q 14.109375 46.140625 10.015625 43.890625 
L 10.015625 52.203125 
Q 14.9375 54.109375 19.578125 55.046875 
Q 24.21875 56 28.609375 56 
Q 40.484375 56 46.34375 49.84375 
Q 52.203125 43.703125 52.203125 31.203125 
" id="BitstreamVeraSans-Roman-61"/>
      <path d="M 44.28125 53.078125 
L 44.28125 44.578125 
Q 40.484375 46.53125 36.375 47.5 
Q 32.28125 48.484375 27.875 48.484375 
Q 21.1875 48.484375 17.84375 46.4375 
Q 14.5 44.390625 14.5 40.28125 
Q 14.5 37.15625 16.890625 35.375 
Q 19.28125 33.59375 26.515625 31.984375 
L 29.59375 31.296875 
Q 39.15625 29.25 43.1875 25.515625 
Q 47.21875 21.78125 47.21875 15.09375 
Q 47.21875 7.46875 41.1875 3.015625 
Q 35.15625 -1.421875 24.609375 -1.421875 
Q 20.21875 -1.421875 15.453125 -0.5625 
Q 10.6875 0.296875 5.421875 2 
L 5.421875 11.28125 
Q 10.40625 8.6875 15.234375 7.390625 
Q 20.0625 6.109375 24.8125 6.109375 
Q 31.15625 6.109375 34.5625 8.28125 
Q 37.984375 10.453125 37.984375 14.40625 
Q 37.984375 18.0625 35.515625 20.015625 
Q 33.0625 21.96875 24.703125 23.78125 
L 21.578125 24.515625 
Q 13.234375 26.265625 9.515625 29.90625 
Q 5.8125 33.546875 5.8125 39.890625 
Q 5.8125 47.609375 11.28125 51.796875 
Q 16.75 56 26.8125 56 
Q 31.78125 56 36.171875 55.265625 
Q 40.578125 54.546875 44.28125 53.078125 
" id="BitstreamVeraSans-Roman-73"/>
      <path d="M 48.78125 52.59375 
L 48.78125 44.1875 
Q 44.96875 46.296875 41.140625 47.34375 
Q 37.3125 48.390625 33.40625 48.390625 
Q 24.65625 48.390625 19.8125 42.84375 
Q 14.984375 37.3125 14.984375 27.296875 
Q 14.984375 17.28125 19.8125 11.734375 
Q 24.65625 6.203125 33.40625 6.203125 
Q 37.3125 6.203125 41.140625 7.25 
Q 44.96875 8.296875 48.78125 10.40625 
L 48.78125 2.09375 
Q 45.015625 0.34375 40.984375 -0.53125 
Q 36.96875 -1.421875 32.421875 -1.421875 
Q 20.0625 -1.421875 12.78125 6.34375 
Q 5.515625 14.109375 5.515625 27.296875 
Q 5.515625 40.671875 12.859375 48.328125 
Q 20.21875 56 33.015625 56 
Q 37.15625 56 41.109375 55.140625 
Q 45.0625 54.296875 48.78125 52.59375 
" id="BitstreamVeraSans-Roman-63"/>
     </defs>
     <g style="fill:#262626;" transform="translate(662.799075 606.451875)scale(0.12 -0.12)">
      <use xlink:href="#BitstreamVeraSans-Roman-4c"/>
      <use x="55.712890625" xlink:href="#BitstreamVeraSans-Roman-61"/>
      <use x="116.9921875" xlink:href="#BitstreamVeraSans-Roman-74"/>
      <use x="156.201171875" xlink:href="#BitstreamVeraSans-Roman-65"/>
      <use x="217.724609375" xlink:href="#BitstreamVeraSans-Roman-6e"/>
      <use x="281.103515625" xlink:href="#BitstreamVeraSans-Roman-63"/>
      <use x="336.083984375" xlink:href="#BitstreamVeraSans-Roman-79"/>
      <use x="395.263671875" xlink:href="#BitstreamVeraSans-Roman-20"/>
      <use x="427.05078125" xlink:href="#BitstreamVeraSans-Roman-28"/>
      <use x="466.064453125" xlink:href="#BitstreamVeraSans-Roman-6d"/>
      <use x="563.4765625" xlink:href="#BitstreamVeraSans-Roman-73"/>
      <use x="615.576171875" xlink:href="#BitstreamVeraSans-Roman-29"/>
     </g>
    </g>
   </g>
   <g id="matplotlib.axis_2">
    <g id="ytick_1">
     <g id="line2d_38">
      <path clip-path="url(#p01b7d25c6d)" d="M 187.9875 576.72 
L 1216.1619 576.72 
" style="fill:none;stroke:#ffffff;stroke-linecap:round;stroke-width:0.5;"/>
     </g>
     <g id="line2d_39">
      <g>
       <use style="fill:#262626;stroke:#262626;stroke-width:0.5;" x="187.9875" xlink:href="#md12323155f" y="576.72"/>
      </g>
     </g>
     <g id="line2d_40">
      <g>
       <use style="fill:#262626;stroke:#262626;stroke-width:0.5;" x="1216.1619" xlink:href="#md12323155f" y="576.72"/>
      </g>
     </g>
     <g id="text_5">
      <!-- 0.0 -->
      <defs>
       <path d="M 10.6875 12.40625 
L 21 12.40625 
L 21 0 
L 10.6875 0 
z
" id="BitstreamVeraSans-Roman-2e"/>
      </defs>
      <g style="fill:#262626;" transform="translate(164.90375 580.03125)scale(0.12 -0.12)">
       <use xlink:href="#BitstreamVeraSans-Roman-30"/>
       <use x="63.623046875" xlink:href="#BitstreamVeraSans-Roman-2e"/>
       <use x="95.41015625" xlink:href="#BitstreamVeraSans-Roman-30"/>
      </g>
     </g>
    </g>
    <g id="ytick_2">
     <g id="line2d_41">
      <path clip-path="url(#p01b7d25c6d)" d="M 187.9875 467.724202 
L 1216.1619 467.724202 
" style="fill:none;stroke:#ffffff;stroke-linecap:round;stroke-width:0.5;"/>
     </g>
     <g id="line2d_42">
      <g>
       <use style="fill:#262626;stroke:#262626;stroke-width:0.5;" x="187.9875" xlink:href="#md12323155f" y="467.724201568"/>
      </g>
     </g>
     <g id="line2d_43">
      <g>
       <use style="fill:#262626;stroke:#262626;stroke-width:0.5;" x="1216.1619" xlink:href="#md12323155f" y="467.724201568"/>
      </g>
     </g>
     <g id="text_6">
      <!-- 0.2 -->
      <defs>
       <path d="M 19.1875 8.296875 
L 53.609375 8.296875 
L 53.609375 0 
L 7.328125 0 
L 7.328125 8.296875 
Q 12.9375 14.109375 22.625 23.890625 
Q 32.328125 33.6875 34.8125 36.53125 
Q 39.546875 41.84375 41.421875 45.53125 
Q 43.3125 49.21875 43.3125 52.78125 
Q 43.3125 58.59375 39.234375 62.25 
Q 35.15625 65.921875 28.609375 65.921875 
Q 23.96875 65.921875 18.8125 64.3125 
Q 13.671875 62.703125 7.8125 59.421875 
L 7.8125 69.390625 
Q 13.765625 71.78125 18.9375 73 
Q 24.125 74.21875 28.421875 74.21875 
Q 39.75 74.21875 46.484375 68.546875 
Q 53.21875 62.890625 53.21875 53.421875 
Q 53.21875 48.921875 51.53125 44.890625 
Q 49.859375 40.875 45.40625 35.40625 
Q 44.1875 33.984375 37.640625 27.21875 
Q 31.109375 20.453125 19.1875 8.296875 
" id="BitstreamVeraSans-Roman-32"/>
      </defs>
      <g style="fill:#262626;" transform="translate(164.90375 471.035451568)scale(0.12 -0.12)">
       <use xlink:href="#BitstreamVeraSans-Roman-30"/>
       <use x="63.623046875" xlink:href="#BitstreamVeraSans-Roman-2e"/>
       <use x="95.41015625" xlink:href="#BitstreamVeraSans-Roman-32"/>
      </g>
     </g>
    </g>
    <g id="ytick_3">
     <g id="line2d_44">
      <path clip-path="url(#p01b7d25c6d)" d="M 187.9875 358.728403 
L 1216.1619 358.728403 
" style="fill:none;stroke:#ffffff;stroke-linecap:round;stroke-width:0.5;"/>
     </g>
     <g id="line2d_45">
      <g>
       <use style="fill:#262626;stroke:#262626;stroke-width:0.5;" x="187.9875" xlink:href="#md12323155f" y="358.728403135"/>
      </g>
     </g>
     <g id="line2d_46">
      <g>
       <use style="fill:#262626;stroke:#262626;stroke-width:0.5;" x="1216.1619" xlink:href="#md12323155f" y="358.728403135"/>
      </g>
     </g>
     <g id="text_7">
      <!-- 0.4 -->
      <defs>
       <path d="M 37.796875 64.3125 
L 12.890625 25.390625 
L 37.796875 25.390625 
z
M 35.203125 72.90625 
L 47.609375 72.90625 
L 47.609375 25.390625 
L 58.015625 25.390625 
L 58.015625 17.1875 
L 47.609375 17.1875 
L 47.609375 0 
L 37.796875 0 
L 37.796875 17.1875 
L 4.890625 17.1875 
L 4.890625 26.703125 
z
" id="BitstreamVeraSans-Roman-34"/>
      </defs>
      <g style="fill:#262626;" transform="translate(164.90375 362.039653135)scale(0.12 -0.12)">
       <use xlink:href="#BitstreamVeraSans-Roman-30"/>
       <use x="63.623046875" xlink:href="#BitstreamVeraSans-Roman-2e"/>
       <use x="95.41015625" xlink:href="#BitstreamVeraSans-Roman-34"/>
      </g>
     </g>
    </g>
    <g id="ytick_4">
     <g id="line2d_47">
      <path clip-path="url(#p01b7d25c6d)" d="M 187.9875 249.732605 
L 1216.1619 249.732605 
" style="fill:none;stroke:#ffffff;stroke-linecap:round;stroke-width:0.5;"/>
     </g>
     <g id="line2d_48">
      <g>
       <use style="fill:#262626;stroke:#262626;stroke-width:0.5;" x="187.9875" xlink:href="#md12323155f" y="249.732604703"/>
      </g>
     </g>
     <g id="line2d_49">
      <g>
       <use style="fill:#262626;stroke:#262626;stroke-width:0.5;" x="1216.1619" xlink:href="#md12323155f" y="249.732604703"/>
      </g>
     </g>
     <g id="text_8">
      <!-- 0.6 -->
      <defs>
       <path d="M 33.015625 40.375 
Q 26.375 40.375 22.484375 35.828125 
Q 18.609375 31.296875 18.609375 23.390625 
Q 18.609375 15.53125 22.484375 10.953125 
Q 26.375 6.390625 33.015625 6.390625 
Q 39.65625 6.390625 43.53125 10.953125 
Q 47.40625 15.53125 47.40625 23.390625 
Q 47.40625 31.296875 43.53125 35.828125 
Q 39.65625 40.375 33.015625 40.375 
M 52.59375 71.296875 
L 52.59375 62.3125 
Q 48.875 64.0625 45.09375 64.984375 
Q 41.3125 65.921875 37.59375 65.921875 
Q 27.828125 65.921875 22.671875 59.328125 
Q 17.53125 52.734375 16.796875 39.40625 
Q 19.671875 43.65625 24.015625 45.921875 
Q 28.375 48.1875 33.59375 48.1875 
Q 44.578125 48.1875 50.953125 41.515625 
Q 57.328125 34.859375 57.328125 23.390625 
Q 57.328125 12.15625 50.6875 5.359375 
Q 44.046875 -1.421875 33.015625 -1.421875 
Q 20.359375 -1.421875 13.671875 8.265625 
Q 6.984375 17.96875 6.984375 36.375 
Q 6.984375 53.65625 15.1875 63.9375 
Q 23.390625 74.21875 37.203125 74.21875 
Q 40.921875 74.21875 44.703125 73.484375 
Q 48.484375 72.75 52.59375 71.296875 
" id="BitstreamVeraSans-Roman-36"/>
      </defs>
      <g style="fill:#262626;" transform="translate(164.90375 253.043854703)scale(0.12 -0.12)">
       <use xlink:href="#BitstreamVeraSans-Roman-30"/>
       <use x="63.623046875" xlink:href="#BitstreamVeraSans-Roman-2e"/>
       <use x="95.41015625" xlink:href="#BitstreamVeraSans-Roman-36"/>
      </g>
     </g>
    </g>
    <g id="ytick_5">
     <g id="line2d_50">
      <path clip-path="url(#p01b7d25c6d)" d="M 187.9875 140.736806 
L 1216.1619 140.736806 
" style="fill:none;stroke:#ffffff;stroke-linecap:round;stroke-width:0.5;"/>
     </g>
     <g id="line2d_51">
      <g>
       <use style="fill:#262626;stroke:#262626;stroke-width:0.5;" x="187.9875" xlink:href="#md12323155f" y="140.736806271"/>
      </g>
     </g>
     <g id="line2d_52">
      <g>
       <use style="fill:#262626;stroke:#262626;stroke-width:0.5;" x="1216.1619" xlink:href="#md12323155f" y="140.736806271"/>
      </g>
     </g>
     <g id="text_9">
      <!-- 0.8 -->
      <defs>
       <path d="M 31.78125 34.625 
Q 24.75 34.625 20.71875 30.859375 
Q 16.703125 27.09375 16.703125 20.515625 
Q 16.703125 13.921875 20.71875 10.15625 
Q 24.75 6.390625 31.78125 6.390625 
Q 38.8125 6.390625 42.859375 10.171875 
Q 46.921875 13.96875 46.921875 20.515625 
Q 46.921875 27.09375 42.890625 30.859375 
Q 38.875 34.625 31.78125 34.625 
M 21.921875 38.8125 
Q 15.578125 40.375 12.03125 44.71875 
Q 8.5 49.078125 8.5 55.328125 
Q 8.5 64.0625 14.71875 69.140625 
Q 20.953125 74.21875 31.78125 74.21875 
Q 42.671875 74.21875 48.875 69.140625 
Q 55.078125 64.0625 55.078125 55.328125 
Q 55.078125 49.078125 51.53125 44.71875 
Q 48 40.375 41.703125 38.8125 
Q 48.828125 37.15625 52.796875 32.3125 
Q 56.78125 27.484375 56.78125 20.515625 
Q 56.78125 9.90625 50.3125 4.234375 
Q 43.84375 -1.421875 31.78125 -1.421875 
Q 19.734375 -1.421875 13.25 4.234375 
Q 6.78125 9.90625 6.78125 20.515625 
Q 6.78125 27.484375 10.78125 32.3125 
Q 14.796875 37.15625 21.921875 38.8125 
M 18.3125 54.390625 
Q 18.3125 48.734375 21.84375 45.5625 
Q 25.390625 42.390625 31.78125 42.390625 
Q 38.140625 42.390625 41.71875 45.5625 
Q 45.3125 48.734375 45.3125 54.390625 
Q 45.3125 60.0625 41.71875 63.234375 
Q 38.140625 66.40625 31.78125 66.40625 
Q 25.390625 66.40625 21.84375 63.234375 
Q 18.3125 60.0625 18.3125 54.390625 
" id="BitstreamVeraSans-Roman-38"/>
      </defs>
      <g style="fill:#262626;" transform="translate(164.90375 144.048056271)scale(0.12 -0.12)">
       <use xlink:href="#BitstreamVeraSans-Roman-30"/>
       <use x="63.623046875" xlink:href="#BitstreamVeraSans-Roman-2e"/>
       <use x="95.41015625" xlink:href="#BitstreamVeraSans-Roman-38"/>
      </g>
     </g>
    </g>
    <g id="ytick_6">
     <g id="line2d_53">
      <g>
       <use style="fill:#262626;stroke:#262626;stroke-width:0.5;" x="187.9875" xlink:href="#md12323155f" y="549.471050392"/>
      </g>
     </g>
     <g id="line2d_54">
      <g>
       <use style="fill:#262626;stroke:#262626;stroke-width:0.5;" x="1216.1619" xlink:href="#md12323155f" y="549.471050392"/>
      </g>
     </g>
    </g>
    <g id="ytick_7">
     <g id="line2d_55">
      <g>
       <use style="fill:#262626;stroke:#262626;stroke-width:0.5;" x="187.9875" xlink:href="#md12323155f" y="522.222100784"/>
      </g>
     </g>
     <g id="line2d_56">
      <g>
       <use style="fill:#262626;stroke:#262626;stroke-width:0.5;" x="1216.1619" xlink:href="#md12323155f" y="522.222100784"/>
      </g>
     </g>
    </g>
    <g id="ytick_8">
     <g id="line2d_57">
      <g>
       <use style="fill:#262626;stroke:#262626;stroke-width:0.5;" x="187.9875" xlink:href="#md12323155f" y="494.973151176"/>
      </g>
     </g>
     <g id="line2d_58">
      <g>
       <use style="fill:#262626;stroke:#262626;stroke-width:0.5;" x="1216.1619" xlink:href="#md12323155f" y="494.973151176"/>
      </g>
     </g>
    </g>
    <g id="ytick_9">
     <g id="line2d_59">
      <g>
       <use style="fill:#262626;stroke:#262626;stroke-width:0.5;" x="187.9875" xlink:href="#md12323155f" y="440.47525196"/>
      </g>
     </g>
     <g id="line2d_60">
      <g>
       <use style="fill:#262626;stroke:#262626;stroke-width:0.5;" x="1216.1619" xlink:href="#md12323155f" y="440.47525196"/>
      </g>
     </g>
    </g>
    <g id="ytick_10">
     <g id="line2d_61">
      <g>
       <use style="fill:#262626;stroke:#262626;stroke-width:0.5;" x="187.9875" xlink:href="#md12323155f" y="413.226302352"/>
      </g>
     </g>
     <g id="line2d_62">
      <g>
       <use style="fill:#262626;stroke:#262626;stroke-width:0.5;" x="1216.1619" xlink:href="#md12323155f" y="413.226302352"/>
      </g>
     </g>
    </g>
    <g id="ytick_11">
     <g id="line2d_63">
      <g>
       <use style="fill:#262626;stroke:#262626;stroke-width:0.5;" x="187.9875" xlink:href="#md12323155f" y="385.977352744"/>
      </g>
     </g>
     <g id="line2d_64">
      <g>
       <use style="fill:#262626;stroke:#262626;stroke-width:0.5;" x="1216.1619" xlink:href="#md12323155f" y="385.977352744"/>
      </g>
     </g>
    </g>
    <g id="ytick_12">
     <g id="line2d_65">
      <g>
       <use style="fill:#262626;stroke:#262626;stroke-width:0.5;" x="187.9875" xlink:href="#md12323155f" y="331.479453527"/>
      </g>
     </g>
     <g id="line2d_66">
      <g>
       <use style="fill:#262626;stroke:#262626;stroke-width:0.5;" x="1216.1619" xlink:href="#md12323155f" y="331.479453527"/>
      </g>
     </g>
    </g>
    <g id="ytick_13">
     <g id="line2d_67">
      <g>
       <use style="fill:#262626;stroke:#262626;stroke-width:0.5;" x="187.9875" xlink:href="#md12323155f" y="304.230503919"/>
      </g>
     </g>
     <g id="line2d_68">
      <g>
       <use style="fill:#262626;stroke:#262626;stroke-width:0.5;" x="1216.1619" xlink:href="#md12323155f" y="304.230503919"/>
      </g>
     </g>
    </g>
    <g id="ytick_14">
     <g id="line2d_69">
      <g>
       <use style="fill:#262626;stroke:#262626;stroke-width:0.5;" x="187.9875" xlink:href="#md12323155f" y="276.981554311"/>
      </g>
     </g>
     <g id="line2d_70">
      <g>
       <use style="fill:#262626;stroke:#262626;stroke-width:0.5;" x="1216.1619" xlink:href="#md12323155f" y="276.981554311"/>
      </g>
     </g>
    </g>
    <g id="ytick_15">
     <g id="line2d_71">
      <g>
       <use style="fill:#262626;stroke:#262626;stroke-width:0.5;" x="187.9875" xlink:href="#md12323155f" y="222.483655095"/>
      </g>
     </g>
     <g id="line2d_72">
      <g>
       <use style="fill:#262626;stroke:#262626;stroke-width:0.5;" x="1216.1619" xlink:href="#md12323155f" y="222.483655095"/>
      </g>
     </g>
    </g>
    <g id="ytick_16">
     <g id="line2d_73">
      <g>
       <use style="fill:#262626;stroke:#262626;stroke-width:0.5;" x="187.9875" xlink:href="#md12323155f" y="195.234705487"/>
      </g>
     </g>
     <g id="line2d_74">
      <g>
       <use style="fill:#262626;stroke:#262626;stroke-width:0.5;" x="1216.1619" xlink:href="#md12323155f" y="195.234705487"/>
      </g>
     </g>
    </g>
    <g id="ytick_17">
     <g id="line2d_75">
      <g>
       <use style="fill:#262626;stroke:#262626;stroke-width:0.5;" x="187.9875" xlink:href="#md12323155f" y="167.985755879"/>
      </g>
     </g>
     <g id="line2d_76">
      <g>
       <use style="fill:#262626;stroke:#262626;stroke-width:0.5;" x="1216.1619" xlink:href="#md12323155f" y="167.985755879"/>
      </g>
     </g>
    </g>
    <g id="ytick_18">
     <g id="line2d_77">
      <g>
       <use style="fill:#262626;stroke:#262626;stroke-width:0.5;" x="187.9875" xlink:href="#md12323155f" y="113.487856663"/>
      </g>
     </g>
     <g id="line2d_78">
      <g>
       <use style="fill:#262626;stroke:#262626;stroke-width:0.5;" x="1216.1619" xlink:href="#md12323155f" y="113.487856663"/>
      </g>
     </g>
    </g>
    <g id="ytick_19">
     <g id="line2d_79">
      <g>
       <use style="fill:#262626;stroke:#262626;stroke-width:0.5;" x="187.9875" xlink:href="#md12323155f" y="86.2389070549"/>
      </g>
     </g>
     <g id="line2d_80">
      <g>
       <use style="fill:#262626;stroke:#262626;stroke-width:0.5;" x="1216.1619" xlink:href="#md12323155f" y="86.2389070549"/>
      </g>
     </g>
    </g>
    <g id="text_10">
     <!-- Cumulative probability -->
     <defs>
      <path d="M 30.609375 48.390625 
Q 23.390625 48.390625 19.1875 42.75 
Q 14.984375 37.109375 14.984375 27.296875 
Q 14.984375 17.484375 19.15625 11.84375 
Q 23.34375 6.203125 30.609375 6.203125 
Q 37.796875 6.203125 41.984375 11.859375 
Q 46.1875 17.53125 46.1875 27.296875 
Q 46.1875 37.015625 41.984375 42.703125 
Q 37.796875 48.390625 30.609375 48.390625 
M 30.609375 56 
Q 42.328125 56 49.015625 48.375 
Q 55.71875 40.765625 55.71875 27.296875 
Q 55.71875 13.875 49.015625 6.21875 
Q 42.328125 -1.421875 30.609375 -1.421875 
Q 18.84375 -1.421875 12.171875 6.21875 
Q 5.515625 13.875 5.515625 27.296875 
Q 5.515625 40.765625 12.171875 48.375 
Q 18.84375 56 30.609375 56 
" id="BitstreamVeraSans-Roman-6f"/>
      <path d="M 9.421875 75.984375 
L 18.40625 75.984375 
L 18.40625 0 
L 9.421875 0 
z
" id="BitstreamVeraSans-Roman-6c"/>
      <path d="M 9.421875 54.6875 
L 18.40625 54.6875 
L 18.40625 0 
L 9.421875 0 
z
M 9.421875 75.984375 
L 18.40625 75.984375 
L 18.40625 64.59375 
L 9.421875 64.59375 
z
" id="BitstreamVeraSans-Roman-69"/>
      <path d="M 2.984375 54.6875 
L 12.5 54.6875 
L 29.59375 8.796875 
L 46.6875 54.6875 
L 56.203125 54.6875 
L 35.6875 0 
L 23.484375 0 
z
" id="BitstreamVeraSans-Roman-76"/>
      <path d="M 64.40625 67.28125 
L 64.40625 56.890625 
Q 59.421875 61.53125 53.78125 63.8125 
Q 48.140625 66.109375 41.796875 66.109375 
Q 29.296875 66.109375 22.65625 58.46875 
Q 16.015625 50.828125 16.015625 36.375 
Q 16.015625 21.96875 22.65625 14.328125 
Q 29.296875 6.6875 41.796875 6.6875 
Q 48.140625 6.6875 53.78125 8.984375 
Q 59.421875 11.28125 64.40625 15.921875 
L 64.40625 5.609375 
Q 59.234375 2.09375 53.4375 0.328125 
Q 47.65625 -1.421875 41.21875 -1.421875 
Q 24.65625 -1.421875 15.125 8.703125 
Q 5.609375 18.84375 5.609375 36.375 
Q 5.609375 53.953125 15.125 64.078125 
Q 24.65625 74.21875 41.21875 74.21875 
Q 47.75 74.21875 53.53125 72.484375 
Q 59.328125 70.75 64.40625 67.28125 
" id="BitstreamVeraSans-Roman-43"/>
      <path d="M 8.5 21.578125 
L 8.5 54.6875 
L 17.484375 54.6875 
L 17.484375 21.921875 
Q 17.484375 14.15625 20.5 10.265625 
Q 23.53125 6.390625 29.59375 6.390625 
Q 36.859375 6.390625 41.078125 11.03125 
Q 45.3125 15.671875 45.3125 23.6875 
L 45.3125 54.6875 
L 54.296875 54.6875 
L 54.296875 0 
L 45.3125 0 
L 45.3125 8.40625 
Q 42.046875 3.421875 37.71875 1 
Q 33.40625 -1.421875 27.6875 -1.421875 
Q 18.265625 -1.421875 13.375 4.4375 
Q 8.5 10.296875 8.5 21.578125 
" id="BitstreamVeraSans-Roman-75"/>
      <path d="M 41.109375 46.296875 
Q 39.59375 47.171875 37.8125 47.578125 
Q 36.03125 48 33.890625 48 
Q 26.265625 48 22.1875 43.046875 
Q 18.109375 38.09375 18.109375 28.8125 
L 18.109375 0 
L 9.078125 0 
L 9.078125 54.6875 
L 18.109375 54.6875 
L 18.109375 46.1875 
Q 20.953125 51.171875 25.484375 53.578125 
Q 30.03125 56 36.53125 56 
Q 37.453125 56 38.578125 55.875 
Q 39.703125 55.765625 41.0625 55.515625 
z
" id="BitstreamVeraSans-Roman-72"/>
      <path d="M 18.109375 8.203125 
L 18.109375 -20.796875 
L 9.078125 -20.796875 
L 9.078125 54.6875 
L 18.109375 54.6875 
L 18.109375 46.390625 
Q 20.953125 51.265625 25.265625 53.625 
Q 29.59375 56 35.59375 56 
Q 45.5625 56 51.78125 48.09375 
Q 58.015625 40.1875 58.015625 27.296875 
Q 58.015625 14.40625 51.78125 6.484375 
Q 45.5625 -1.421875 35.59375 -1.421875 
Q 29.59375 -1.421875 25.265625 0.953125 
Q 20.953125 3.328125 18.109375 8.203125 
M 48.6875 27.296875 
Q 48.6875 37.203125 44.609375 42.84375 
Q 40.53125 48.484375 33.40625 48.484375 
Q 26.265625 48.484375 22.1875 42.84375 
Q 18.109375 37.203125 18.109375 27.296875 
Q 18.109375 17.390625 22.1875 11.75 
Q 26.265625 6.109375 33.40625 6.109375 
Q 40.53125 6.109375 44.609375 11.75 
Q 48.6875 17.390625 48.6875 27.296875 
" id="BitstreamVeraSans-Roman-70"/>
      <path d="M 48.6875 27.296875 
Q 48.6875 37.203125 44.609375 42.84375 
Q 40.53125 48.484375 33.40625 48.484375 
Q 26.265625 48.484375 22.1875 42.84375 
Q 18.109375 37.203125 18.109375 27.296875 
Q 18.109375 17.390625 22.1875 11.75 
Q 26.265625 6.109375 33.40625 6.109375 
Q 40.53125 6.109375 44.609375 11.75 
Q 48.6875 17.390625 48.6875 27.296875 
M 18.109375 46.390625 
Q 20.953125 51.265625 25.265625 53.625 
Q 29.59375 56 35.59375 56 
Q 45.5625 56 51.78125 48.09375 
Q 58.015625 40.1875 58.015625 27.296875 
Q 58.015625 14.40625 51.78125 6.484375 
Q 45.5625 -1.421875 35.59375 -1.421875 
Q 29.59375 -1.421875 25.265625 0.953125 
Q 20.953125 3.328125 18.109375 8.203125 
L 18.109375 0 
L 9.078125 0 
L 9.078125 75.984375 
L 18.109375 75.984375 
z
" id="BitstreamVeraSans-Roman-62"/>
     </defs>
     <g style="fill:#262626;" transform="translate(157.408125 388.6959375)rotate(-90.0)scale(0.12 -0.12)">
      <use xlink:href="#BitstreamVeraSans-Roman-43"/>
      <use x="69.82421875" xlink:href="#BitstreamVeraSans-Roman-75"/>
      <use x="133.203125" xlink:href="#BitstreamVeraSans-Roman-6d"/>
      <use x="230.615234375" xlink:href="#BitstreamVeraSans-Roman-75"/>
      <use x="293.994140625" xlink:href="#BitstreamVeraSans-Roman-6c"/>
      <use x="321.77734375" xlink:href="#BitstreamVeraSans-Roman-61"/>
      <use x="383.056640625" xlink:href="#BitstreamVeraSans-Roman-74"/>
      <use x="422.265625" xlink:href="#BitstreamVeraSans-Roman-69"/>
      <use x="450.048828125" xlink:href="#BitstreamVeraSans-Roman-76"/>
      <use x="509.228515625" xlink:href="#BitstreamVeraSans-Roman-65"/>
      <use x="570.751953125" xlink:href="#BitstreamVeraSans-Roman-20"/>
      <use x="602.5390625" xlink:href="#BitstreamVeraSans-Roman-70"/>
      <use x="666.015625" xlink:href="#BitstreamVeraSans-Roman-72"/>
      <use x="707.09765625" xlink:href="#BitstreamVeraSans-Roman-6f"/>
      <use x="768.279296875" xlink:href="#BitstreamVeraSans-Roman-62"/>
      <use x="831.755859375" xlink:href="#BitstreamVeraSans-Roman-61"/>
      <use x="893.03515625" xlink:href="#BitstreamVeraSans-Roman-62"/>
      <use x="956.51171875" xlink:href="#BitstreamVeraSans-Roman-69"/>
      <use x="984.294921875" xlink:href="#BitstreamVeraSans-Roman-6c"/>
      <use x="1012.078125" xlink:href="#BitstreamVeraSans-Roman-69"/>
      <use x="1039.86132812" xlink:href="#BitstreamVeraSans-Roman-74"/>
      <use x="1079.0703125" xlink:href="#BitstreamVeraSans-Roman-79"/>
     </g>
    </g>
   </g>
   <g id="line2d_81">
    <path clip-path="url(#p01b7d25c6d)" d="M 123.854338 576.72 
L 133.168512 572.935424 
L 151.796859 572.935424 
L 170.425206 572.329891 
L 179.73938 572.178508 
L 198.367728 570.967444 
L 207.681901 570.664678 
L 226.310249 568.848081 
L 235.624423 564.609356 
L 244.938596 560.673396 
L 254.25277 557.494352 
L 263.566944 554.618074 
L 272.881118 548.259986 
L 282.195291 542.658813 
L 291.509465 536.452108 
L 300.823639 528.277423 
L 310.137812 523.281782 
L 319.451986 512.836351 
L 328.76616 505.115816 
L 338.080334 494.216236 
L 347.394507 481.802826 
L 356.708681 469.994947 
L 366.022855 458.641218 
L 375.337029 449.104086 
L 384.651202 440.172486 
L 393.965376 430.181204 
L 403.27955 420.795455 
L 412.593724 413.831835 
L 421.907897 404.597468 
L 431.222071 397.482465 
L 440.536245 389.30778 
L 449.850418 380.527563 
L 459.164592 370.839047 
L 468.478766 362.815746 
L 477.79294 354.641061 
L 487.107113 346.769142 
L 496.421287 339.351372 
L 505.735461 333.29605 
L 515.049635 324.515833 
L 524.363808 318.611894 
L 533.677982 314.221785 
L 542.992156 308.923379 
L 552.30633 302.716673 
L 561.620503 294.844755 
L 570.934677 289.849114 
L 580.248851 284.399324 
L 589.563025 278.798151 
L 598.877198 271.985914 
L 608.191372 267.595805 
L 617.505546 263.659846 
L 626.819719 259.42112 
L 636.133893 254.425479 
L 645.448067 250.48952 
L 654.762241 246.856327 
L 664.076414 241.709303 
L 682.704762 232.020787 
L 692.018936 228.538977 
L 701.333109 223.391953 
L 710.647283 218.850462 
L 719.961457 215.065885 
L 729.275631 211.584075 
L 738.589804 208.556414 
L 747.903978 204.771838 
L 757.218152 199.624814 
L 766.532325 197.051302 
L 775.846499 193.418109 
L 785.160673 189.482149 
L 794.474847 185.394807 
L 803.78902 182.367146 
L 813.103194 178.58257 
L 822.417368 176.765973 
L 831.731542 174.343844 
L 841.045715 171.467566 
L 850.359889 169.802353 
L 859.674063 166.926075 
L 868.988237 164.806712 
L 878.30241 161.930434 
L 887.616584 158.75139 
L 896.930758 156.480644 
L 906.244931 154.664047 
L 915.559105 152.241918 
L 924.873279 149.36564 
L 934.187453 147.700427 
L 943.501626 145.88383 
L 952.8158 144.37 
L 962.129974 141.796488 
L 971.444148 140.585423 
L 980.758321 137.860528 
L 990.072495 135.741166 
L 999.386669 133.773186 
L 1008.700843 131.199674 
L 1018.015016 128.172013 
L 1027.32919 126.658182 
L 1036.643364 124.387437 
L 1045.957537 121.965308 
L 1055.271711 121.057009 
L 1064.585885 119.543179 
L 1073.900059 116.969667 
L 1083.214232 114.850304 
L 1092.528406 112.882324 
L 1101.84258 110.762962 
L 1111.156754 108.340833 
L 1120.470927 106.827002 
L 1129.785101 105.010406 
L 1139.099275 102.436894 
L 1148.413449 100.468914 
L 1157.727622 98.8037 
L 1167.041796 97.895402 
L 1176.35597 96.835721 
L 1185.670143 95.170507 
L 1194.984317 94.110826 
L 1204.298491 92.294229 
L 1213.612665 90.326249 
L 1222.926838 89.115185 
L 1232.241012 87.449971 
L 1241.555186 86.238907 
L 1250.86936 84.42231 
L 1269.497707 82.000182 
L 1278.811881 80.9405 
L 1288.126055 80.334968 
L 1297.440228 78.669754 
L 1306.754402 77.610073 
L 1325.382749 75.187944 
L 1334.696923 74.128263 
L 1344.011097 72.463049 
L 1353.325271 71.403368 
L 1362.639444 70.797836 
L 1371.953618 69.284005 
L 1390.581966 66.861876 
L 1399.896139 65.953578 
L 1409.210313 65.499429 
L 1418.524487 63.834215 
L 1427.838661 63.0773 
L 1437.152834 61.866235 
L 1446.467008 60.201022 
L 1455.781182 59.141341 
L 1465.095356 58.838574 
L 1474.409529 57.930276 
L 1483.723703 57.476127 
L 1504.9 56.787771 
L 1504.9 56.787771 
" style="fill:none;stroke:#1b9e77;stroke-linecap:round;"/>
   </g>
   <g id="line2d_82">
    <path clip-path="url(#p01b7d25c6d)" d="M 121.686571 576.72 
L 123.581938 576.568617 
L 125.477304 576.114468 
L 127.37267 574.75202 
L 129.268036 571.572976 
L 131.163402 567.939783 
L 133.058768 564.912122 
L 134.954134 562.489993 
L 136.849501 560.673396 
L 138.744867 559.310949 
L 140.640233 557.797118 
L 142.535599 557.040203 
L 144.430965 556.434671 
L 146.326331 555.526373 
L 148.221697 555.223606 
L 150.117063 554.769457 
L 152.01243 554.618074 
L 153.907796 554.012542 
L 155.803162 553.255627 
L 157.698528 552.952861 
L 159.593894 552.498711 
L 161.48926 552.347328 
L 163.384626 552.347328 
L 165.279993 552.195945 
L 167.175359 552.195945 
L 169.070725 551.741796 
L 170.966091 551.43903 
L 172.861457 550.984881 
L 174.756823 550.379349 
L 176.652189 550.379349 
L 178.547555 550.076583 
L 180.442922 549.622433 
L 182.338288 548.714135 
L 186.12902 548.108603 
L 188.024386 547.200305 
L 189.919752 546.443389 
L 191.815118 545.98924 
L 193.710485 545.080942 
L 197.501217 544.172644 
L 199.396583 543.415728 
L 201.291949 543.415728 
L 203.187315 542.961579 
L 205.082681 542.356047 
L 206.978047 542.204664 
L 208.873414 540.993599 
L 212.664146 539.782535 
L 214.559512 539.479769 
L 216.454878 537.814555 
L 220.24561 534.029979 
L 222.140977 533.121681 
L 224.036343 531.759233 
L 225.931709 530.699552 
L 227.827075 529.488487 
L 229.722441 528.428806 
L 231.617807 527.520508 
L 233.513173 526.15806 
L 237.303906 524.341464 
L 241.094638 521.313802 
L 242.990004 520.254121 
L 244.88537 518.740291 
L 246.780736 516.772311 
L 248.676102 515.409863 
L 250.571469 513.896033 
L 252.466835 511.171138 
L 254.362201 508.900392 
L 256.257567 506.32688 
L 258.152933 505.267199 
L 260.048299 503.147836 
L 261.943665 500.725707 
L 263.839032 498.606344 
L 265.734398 494.821768 
L 267.629764 492.399639 
L 269.52513 490.734426 
L 275.211228 482.862507 
L 277.106594 481.04591 
L 282.792693 473.022608 
L 284.688059 470.60048 
L 286.583425 468.481117 
L 288.478791 465.15069 
L 290.374157 462.274412 
L 292.269524 459.7009 
L 294.16489 456.21909 
L 296.060256 453.494195 
L 297.955622 449.406852 
L 299.850988 446.379191 
L 301.746354 442.443232 
L 307.432453 432.603333 
L 309.327819 429.727055 
L 311.223185 425.034181 
L 313.118551 422.157903 
L 315.013917 418.07056 
L 316.909283 414.58875 
L 318.804649 408.836194 
L 320.700016 406.262682 
L 324.490748 399.601828 
L 326.386114 394.75757 
L 328.28148 390.82161 
L 330.176846 385.674587 
L 332.072212 382.646926 
L 333.967579 379.165115 
L 337.758311 370.839047 
L 339.653677 366.297556 
L 341.549043 362.05883 
L 343.444409 358.879786 
L 345.339775 354.792444 
L 347.235141 350.250952 
L 349.130508 347.374674 
L 351.025874 344.19563 
L 352.92124 341.470735 
L 356.711972 334.355732 
L 358.607338 331.479454 
L 360.502704 327.392111 
L 366.188803 316.189765 
L 369.979535 309.680294 
L 371.874901 307.258165 
L 373.770267 304.381887 
L 379.456366 293.179541 
L 381.351732 288.789432 
L 383.247098 285.156239 
L 385.142464 281.22028 
L 387.03783 276.527405 
L 388.933196 273.045595 
L 390.828563 269.261019 
L 392.723929 266.081974 
L 396.514661 257.755907 
L 402.200759 246.402178 
L 404.096125 242.163452 
L 405.991492 239.58994 
L 409.782224 233.231852 
L 411.67759 230.65834 
L 413.572956 227.327913 
L 415.468322 224.451635 
L 419.259055 219.75876 
L 421.154421 216.882482 
L 423.049787 213.703438 
L 428.735885 205.37737 
L 430.631251 203.86354 
L 432.526618 201.441411 
L 434.421984 198.41375 
L 438.212716 194.47779 
L 440.108082 191.601512 
L 442.003448 189.936299 
L 447.689547 184.183743 
L 451.480279 178.885336 
L 453.375645 177.522888 
L 457.166377 173.586929 
L 459.061743 171.1648 
L 460.95711 168.137139 
L 464.747842 163.444264 
L 466.643208 160.416603 
L 468.538574 158.29724 
L 470.43394 155.572346 
L 476.120039 148.911491 
L 481.806137 143.158935 
L 483.701503 141.493722 
L 485.596869 139.979891 
L 487.492235 137.557762 
L 491.282968 133.773186 
L 493.178334 131.653823 
L 495.0737 130.442759 
L 496.969066 129.988609 
L 498.864432 129.080311 
L 500.759798 126.506799 
L 502.655165 124.992969 
L 510.236629 117.877965 
L 512.131995 116.515518 
L 514.027361 115.607219 
L 515.922727 113.63924 
L 517.818094 112.125409 
L 521.608826 108.794982 
L 527.294924 105.615938 
L 529.19029 105.313172 
L 531.085657 104.404873 
L 532.981023 103.799341 
L 534.876389 101.831362 
L 536.771755 100.166148 
L 538.667121 98.955084 
L 540.562487 98.046785 
L 542.457853 96.987104 
L 544.353219 96.230189 
L 546.248586 94.413592 
L 548.143952 93.656677 
L 550.039318 92.596995 
L 551.934684 91.84008 
L 553.83005 90.326249 
L 555.725416 89.720717 
L 557.620782 88.055504 
L 559.516149 86.844439 
L 561.411515 85.936141 
L 563.306881 85.179226 
L 565.202247 83.514012 
L 567.097613 83.059863 
L 570.888345 81.546032 
L 572.783711 80.637734 
L 574.679078 80.334968 
L 576.574444 79.880819 
L 578.46981 78.669754 
L 580.365176 78.064222 
L 582.260542 78.064222 
L 584.155908 77.307307 
L 586.051274 77.004541 
L 587.946641 76.247626 
L 589.842007 76.096242 
L 591.737373 74.885178 
L 593.632739 74.279646 
L 595.528105 73.825497 
L 597.423471 72.765815 
L 599.318837 72.311666 
L 601.214204 71.251985 
L 603.10957 70.949219 
L 605.004936 70.04092 
L 606.900302 70.04092 
L 608.795668 69.284005 
L 610.691034 69.132622 
L 612.5864 68.829856 
L 614.481766 68.678473 
L 618.272499 68.072941 
L 622.063231 66.55911 
L 625.853963 65.348046 
L 627.749329 64.893897 
L 629.644696 64.893897 
L 631.540062 64.439747 
L 633.435428 64.136981 
L 635.330794 63.531449 
L 637.22616 63.380066 
L 639.121526 62.471768 
L 641.016892 62.169002 
L 642.912258 62.017619 
L 644.807625 61.714852 
L 648.598357 60.806554 
L 650.493723 60.655171 
L 652.389089 60.201022 
L 654.284455 60.049639 
L 656.179821 59.292724 
L 658.075188 58.838574 
L 659.970554 58.687191 
L 661.86592 58.384425 
L 665.656652 57.173361 
L 667.552018 56.719212 
L 669.447384 56.719212 
L 673.238117 55.810913 
L 675.133483 55.205381 
L 677.028849 55.053998 
L 678.924215 54.599849 
L 680.819581 53.994317 
L 682.714947 53.842934 
L 684.610313 53.842934 
L 686.50568 53.691551 
L 688.401046 53.691551 
L 690.296412 53.540168 
L 692.191778 53.086018 
L 694.087144 52.934635 
L 695.98251 52.631869 
L 697.877876 52.026337 
L 699.773243 51.874954 
L 701.668609 51.118039 
L 703.563975 50.815273 
L 705.459341 50.66389 
L 709.250073 49.452825 
L 713.040805 49.150059 
L 714.936172 48.847293 
L 716.831538 48.393144 
L 720.62227 47.787611 
L 722.517636 47.333462 
L 724.413002 47.182079 
L 726.308368 46.72793 
L 730.099101 46.425164 
L 731.994467 45.971015 
L 733.889833 45.971015 
L 735.785199 45.365483 
L 737.680565 45.365483 
L 741.471297 45.062717 
L 749.052762 45.062717 
L 750.948128 44.911333 
L 752.843494 44.608567 
L 754.73886 44.154418 
L 756.634227 44.154418 
L 758.529593 44.003035 
L 762.320325 43.397503 
L 764.215691 43.24612 
L 766.111057 43.24612 
L 768.006423 42.943354 
L 769.901789 42.489205 
L 771.797156 42.337822 
L 775.587888 42.337822 
L 779.37862 42.035055 
L 781.273986 41.732289 
L 783.169352 41.580906 
L 785.064719 41.126757 
L 786.960085 41.126757 
L 790.750817 40.521225 
L 792.646183 40.369842 
L 796.436915 39.76431 
L 804.01838 39.76431 
L 805.913746 39.612927 
L 813.495211 39.612927 
L 815.390577 39.461544 
L 817.285943 39.007394 
L 819.181309 38.856011 
L 824.867407 38.856011 
L 828.65814 38.553245 
L 832.448872 38.553245 
L 834.344238 38.401862 
L 836.239604 38.099096 
L 840.030336 38.099096 
L 841.925703 37.79633 
L 843.821069 37.644947 
L 845.716435 37.644947 
L 847.611801 37.493564 
L 849.507167 37.493564 
L 851.402533 37.342181 
L 853.297899 37.342181 
L 857.088632 37.039415 
L 858.983998 37.039415 
L 860.879364 36.888032 
L 862.77473 36.888032 
L 864.670096 36.585266 
L 876.042293 36.585266 
L 877.937659 36.433882 
L 879.833025 36.433882 
L 881.728391 36.282499 
L 887.41449 36.282499 
L 889.309856 35.979733 
L 898.786687 35.979733 
L 900.682053 35.82835 
L 902.577419 35.82835 
L 904.472785 35.676967 
L 912.05425 35.676967 
L 913.949616 35.525584 
L 915.844982 35.525584 
L 917.740348 35.222818 
L 921.53108 35.222818 
L 923.426446 35.071435 
L 925.321813 35.071435 
L 929.112545 34.768669 
L 982.182797 34.768669 
L 984.078163 34.617286 
L 989.764261 34.617286 
L 993.554993 34.31452 
L 1001.136458 34.31452 
L 1003.031824 34.163137 
L 1021.985485 34.163137 
L 1023.880852 34.011754 
L 1031.462316 34.011754 
L 1033.357682 33.860371 
L 1035.253048 33.860371 
L 1037.148414 33.708988 
L 1056.102076 33.708988 
L 1057.997442 33.557604 
L 1101.590863 33.557604 
L 1103.486229 33.406221 
L 1114.858426 33.406221 
L 1116.753792 33.254838 
L 1139.498186 33.254838 
L 1141.393552 33.103455 
L 1238.057225 33.103455 
L 1239.952591 32.952072 
L 1255.11552 32.952072 
L 1257.010886 32.800689 
L 1296.813575 32.800689 
L 1298.708941 32.649306 
L 1473.082625 32.649306 
L 1474.977992 32.497923 
L 1504.9 32.497923 
L 1504.9 32.497923 
" style="fill:none;stroke:#d95f02;stroke-linecap:round;"/>
   </g>
   <g id="line2d_83">
    <path clip-path="url(#p01b7d25c6d)" d="M 123.156866 576.72 
L 132.343381 572.935424 
L 150.716412 572.935424 
L 159.902927 572.632658 
L 169.089442 572.481275 
L 178.275957 572.178508 
L 187.462473 571.724359 
L 196.648988 571.572976 
L 205.835503 570.513295 
L 215.022019 570.210529 
L 224.208534 568.999464 
L 233.395049 566.728718 
L 242.581564 563.095525 
L 251.76808 559.310949 
L 260.954595 555.072223 
L 270.14111 550.682115 
L 279.327626 545.686474 
L 288.514141 539.782535 
L 297.700656 532.818915 
L 306.887172 526.460826 
L 316.073687 519.19444 
L 325.260202 508.143477 
L 334.446717 499.666026 
L 343.633233 487.252615 
L 352.819748 475.59612 
L 362.006263 465.453456 
L 380.379294 446.681957 
L 389.565809 436.539293 
L 398.752324 427.00216 
L 417.125355 409.895875 
L 435.498386 394.152038 
L 444.684901 386.582885 
L 453.871416 376.89437 
L 463.057931 368.568302 
L 472.244447 360.090851 
L 481.430962 352.218932 
L 490.617477 346.012227 
L 499.803993 338.291691 
L 518.177023 323.758918 
L 527.363538 317.854979 
L 536.550054 313.46487 
L 545.736569 308.01508 
L 554.923084 301.808375 
L 564.1096 294.239222 
L 573.296115 288.032517 
L 582.48263 283.642409 
L 591.669145 278.495385 
L 600.855661 271.985914 
L 610.042176 267.444422 
L 619.228691 263.205696 
L 628.415207 259.118354 
L 637.601722 254.879629 
L 646.788237 250.48952 
L 655.974753 247.310476 
L 665.161268 242.768984 
L 674.347783 238.07611 
L 683.534298 232.929086 
L 692.720814 228.69036 
L 701.907329 224.300252 
L 711.093844 220.818442 
L 720.28036 215.217269 
L 729.466875 211.886841 
L 738.65339 208.405031 
L 747.839905 204.771838 
L 757.026421 200.835878 
L 766.212936 197.808217 
L 775.399451 194.023641 
L 784.585967 190.99598 
L 802.958997 183.426827 
L 812.145512 180.399166 
L 821.332028 176.917356 
L 830.518543 175.100759 
L 848.891574 170.559268 
L 858.078089 168.439905 
L 867.264604 165.71501 
L 876.451119 162.384583 
L 885.637635 158.75139 
L 894.82415 157.237559 
L 904.010665 154.058515 
L 913.197181 153.150217 
L 922.383696 150.425322 
L 931.570211 148.457342 
L 940.756726 146.943511 
L 949.943242 144.521383 
L 968.316272 140.888189 
L 977.502788 138.314677 
L 986.689303 136.498081 
L 995.875818 133.773186 
L 1005.062334 132.259355 
L 1014.248849 129.837226 
L 1023.435364 127.566481 
L 1032.621879 125.598501 
L 1078.554456 116.515518 
L 1087.740971 114.547538 
L 1096.927486 112.428175 
L 1106.114002 110.460196 
L 1115.300517 107.886684 
L 1124.487032 106.372853 
L 1133.673548 103.799341 
L 1142.860063 101.679978 
L 1152.046578 100.468914 
L 1161.233093 98.8037 
L 1179.606124 96.381572 
L 1188.792639 95.019124 
L 1197.979155 94.262209 
L 1216.352185 90.931782 
L 1225.5387 88.963802 
L 1234.725216 86.693056 
L 1243.911731 85.633375 
L 1253.098246 84.119544 
L 1262.284762 82.454331 
L 1280.657792 80.9405 
L 1289.844307 80.032202 
L 1299.030823 78.064222 
L 1308.217338 76.853158 
L 1317.403853 76.096242 
L 1326.590369 75.642093 
L 1335.776884 74.128263 
L 1344.963399 72.463049 
L 1354.149915 71.100602 
L 1363.33643 70.797836 
L 1372.522945 69.586771 
L 1381.70946 67.770175 
L 1390.895976 67.164642 
L 1400.082491 66.710493 
L 1409.269006 65.802195 
L 1418.455522 64.136981 
L 1436.828552 62.320385 
L 1446.015067 60.503788 
L 1455.201583 59.444107 
L 1464.388098 58.687191 
L 1473.574613 58.081659 
L 1482.761129 57.62751 
L 1491.947644 57.324744 
L 1501.134159 56.719212 
L 1504.9 56.657155 
L 1504.9 56.657155 
" style="fill:none;stroke:#7570b3;stroke-linecap:round;"/>
   </g>
   <g id="line2d_84">
    <path clip-path="url(#p01b7d25c6d)" d="M 121.912182 576.72 
L 123.81391 576.114468 
L 125.715638 575.357553 
L 127.617367 573.086807 
L 129.519095 569.30223 
L 133.322552 563.246908 
L 137.126008 557.948501 
L 139.027737 557.342969 
L 140.929465 556.283288 
L 142.831193 555.526373 
L 148.536379 554.618074 
L 150.438107 554.466691 
L 152.339835 554.466691 
L 154.241564 554.315308 
L 156.143292 554.012542 
L 159.946749 552.801478 
L 163.750205 552.801478 
L 165.651934 552.498711 
L 169.45539 552.498711 
L 175.160576 551.136264 
L 177.062304 550.076583 
L 178.964032 550.076583 
L 182.767489 549.168284 
L 184.669217 548.562752 
L 186.570946 548.108603 
L 188.472674 547.200305 
L 190.374402 546.594772 
L 192.276131 545.686474 
L 194.177859 544.626793 
L 196.079588 544.172644 
L 197.981316 543.415728 
L 199.883044 542.810196 
L 201.784773 542.50743 
L 203.686501 542.50743 
L 205.588229 541.599132 
L 207.489958 541.296366 
L 209.391686 540.53945 
L 211.293414 539.328386 
L 213.195143 538.268704 
L 215.096871 537.814555 
L 218.900328 535.695193 
L 220.802056 534.484128 
L 222.703785 533.121681 
L 224.605513 531.002318 
L 226.507241 529.337104 
L 228.40897 527.520508 
L 230.310698 526.612209 
L 232.212426 526.006677 
L 234.114155 524.038697 
L 236.015883 523.433165 
L 237.917611 522.070718 
L 239.81934 520.405504 
L 241.721068 519.19444 
L 245.524525 516.469545 
L 249.327982 512.382202 
L 256.934895 503.299219 
L 258.836623 501.785389 
L 260.738352 500.120175 
L 262.64008 497.243897 
L 264.541808 494.821768 
L 266.443537 492.853788 
L 270.246993 488.160914 
L 272.148722 485.436019 
L 274.05045 481.651442 
L 275.952179 479.834846 
L 277.853907 477.109951 
L 281.657364 471.206012 
L 283.559092 469.540798 
L 285.46082 467.421435 
L 287.362549 464.393774 
L 289.264277 460.609198 
L 291.166005 458.187069 
L 293.067734 454.705259 
L 294.969462 452.131747 
L 296.87119 448.80132 
L 300.674647 441.38355 
L 302.576376 437.750357 
L 308.281561 427.607692 
L 310.183289 424.125882 
L 312.085017 420.03854 
L 315.888474 413.226302 
L 317.790202 408.533428 
L 319.691931 404.294702 
L 327.298844 390.216078 
L 331.102301 382.344159 
L 333.004029 378.710966 
L 334.905758 374.018092 
L 336.807486 370.839047 
L 338.709214 367.357237 
L 340.610943 361.907447 
L 342.512671 358.425637 
L 344.414399 355.549359 
L 346.316128 350.250952 
L 348.217856 345.709461 
L 350.119584 342.22765 
L 352.021313 338.291691 
L 353.923041 335.566796 
L 357.726498 329.360091 
L 359.628226 326.33243 
L 363.431683 318.460511 
L 369.136868 307.409548 
L 372.940325 302.262524 
L 374.842053 299.08348 
L 376.743781 295.147521 
L 378.64551 290.454646 
L 382.448967 284.399324 
L 384.350695 280.160598 
L 386.252423 277.587087 
L 388.154152 273.045595 
L 390.05588 269.563785 
L 391.957608 266.83889 
L 393.859337 262.600164 
L 395.761065 259.572503 
L 399.564522 252.760266 
L 401.46625 248.067391 
L 403.367978 243.828666 
L 409.073164 233.383235 
L 410.974892 230.506957 
L 412.87662 228.538977 
L 414.778349 225.057167 
L 416.680077 222.937804 
L 420.483534 216.579716 
L 422.385262 213.703438 
L 424.28699 209.616096 
L 426.188719 206.891201 
L 428.090447 203.712156 
L 431.893904 199.624814 
L 433.795632 197.505451 
L 435.697361 195.688855 
L 437.599089 194.326407 
L 439.500817 192.509811 
L 441.402546 189.482149 
L 443.304274 188.119702 
L 445.206002 185.54619 
L 447.107731 183.275444 
L 449.009459 180.550549 
L 450.911187 179.339485 
L 452.812916 176.917356 
L 454.714644 175.100759 
L 456.616373 172.981397 
L 458.518101 171.1648 
L 460.419829 168.439905 
L 462.321558 166.774691 
L 464.223286 164.049796 
L 466.125014 160.870752 
L 468.026743 159.054156 
L 469.928471 156.480644 
L 473.731928 152.544684 
L 475.633656 149.971173 
L 477.535384 148.457342 
L 479.437113 146.337979 
L 481.338841 144.975532 
L 483.24057 143.91585 
L 487.044026 139.525742 
L 488.945755 137.103613 
L 494.65094 131.351057 
L 496.552668 130.291376 
L 498.454396 129.383077 
L 500.356125 127.415098 
L 502.257853 124.992969 
L 504.159581 123.176372 
L 506.06131 121.965308 
L 507.963038 120.300094 
L 509.864767 118.786264 
L 511.766495 116.969667 
L 513.668223 116.212752 
L 515.569952 114.244772 
L 517.47168 112.882324 
L 519.373408 111.217111 
L 521.275137 109.70328 
L 523.176865 108.492216 
L 525.078593 106.978385 
L 526.980322 105.918704 
L 528.88205 105.010406 
L 530.783778 104.556257 
L 532.685507 103.345192 
L 534.587235 102.436894 
L 538.390692 99.409233 
L 542.194149 97.28987 
L 544.095877 96.381572 
L 545.997605 95.32189 
L 547.899334 94.110826 
L 549.801062 92.748378 
L 551.70279 91.991463 
L 553.604519 90.931782 
L 555.506247 90.326249 
L 557.407975 89.115185 
L 559.309704 87.601355 
L 561.211432 87.147205 
L 563.113161 86.39029 
L 565.014889 84.573693 
L 568.818346 83.059863 
L 570.720074 82.151565 
L 572.621802 81.394649 
L 578.326987 80.032202 
L 580.228716 79.275287 
L 582.130444 78.821137 
L 584.032172 78.064222 
L 585.933901 77.610073 
L 587.835629 77.004541 
L 589.737358 76.701775 
L 591.639086 75.642093 
L 593.540814 75.036561 
L 595.442543 74.885178 
L 597.344271 73.371348 
L 599.245999 72.765815 
L 601.147728 71.857517 
L 603.049456 71.706134 
L 604.951184 70.49507 
L 606.852913 70.192303 
L 608.754641 69.738154 
L 610.656369 68.981239 
L 612.558098 68.52709 
L 616.361555 68.224324 
L 618.263283 67.921558 
L 620.165011 67.164642 
L 623.968468 66.256344 
L 625.870196 65.953578 
L 631.575381 64.59113 
L 633.47711 63.985598 
L 635.378838 63.531449 
L 637.280566 62.774534 
L 639.182295 61.866235 
L 642.985752 61.260703 
L 644.88748 61.260703 
L 646.789208 60.655171 
L 648.690937 60.352405 
L 650.592665 60.352405 
L 652.494393 59.898256 
L 658.199578 58.989957 
L 660.101307 58.989957 
L 662.003035 58.687191 
L 663.904764 57.930276 
L 667.70822 57.021978 
L 669.609949 57.021978 
L 671.511677 56.113679 
L 673.413405 55.65953 
L 675.315134 55.053998 
L 677.216862 55.053998 
L 679.11859 54.599849 
L 681.020319 53.842934 
L 682.922047 53.691551 
L 684.823775 53.691551 
L 686.725504 53.540168 
L 688.627232 53.540168 
L 690.528961 53.388784 
L 692.430689 52.934635 
L 696.234146 52.631869 
L 698.135874 52.17772 
L 700.037602 52.026337 
L 701.939331 51.118039 
L 703.841059 50.66389 
L 705.742787 50.512506 
L 707.644516 50.20974 
L 709.546244 49.604208 
L 713.349701 49.301442 
L 715.251429 48.847293 
L 717.153158 48.241761 
L 720.956614 47.333462 
L 722.858343 46.72793 
L 724.760071 46.72793 
L 726.661799 46.425164 
L 730.465256 46.122398 
L 732.366984 45.516866 
L 734.268713 45.365483 
L 736.170441 45.062717 
L 738.072169 45.062717 
L 741.875626 44.75995 
L 749.48254 44.75995 
L 753.285996 44.457184 
L 755.187725 44.154418 
L 757.089453 43.700269 
L 758.991181 43.397503 
L 762.794638 43.094737 
L 764.696366 43.094737 
L 766.598095 42.791971 
L 768.499823 42.791971 
L 770.401552 42.337822 
L 772.30328 41.732289 
L 776.106737 41.732289 
L 778.008465 41.580906 
L 781.811922 40.975374 
L 783.71365 40.823991 
L 787.517107 40.823991 
L 789.418835 40.672608 
L 797.025749 39.461544 
L 804.632662 39.461544 
L 806.53439 39.310161 
L 814.141304 39.310161 
L 816.043032 39.007394 
L 817.94476 39.007394 
L 819.846489 38.856011 
L 821.748217 38.856011 
L 825.551674 38.553245 
L 827.453402 38.553245 
L 829.355131 38.250479 
L 831.256859 38.250479 
L 833.158587 38.099096 
L 838.863772 38.099096 
L 842.667229 37.79633 
L 844.568957 37.79633 
L 846.470686 37.644947 
L 848.372414 37.644947 
L 852.175871 37.342181 
L 854.077599 37.342181 
L 857.881056 37.039415 
L 859.782784 37.039415 
L 861.684513 36.736649 
L 863.586241 36.736649 
L 865.487969 36.433882 
L 867.389698 36.433882 
L 869.291426 36.282499 
L 873.094883 36.282499 
L 874.996611 36.131116 
L 888.30871 36.131116 
L 890.210438 35.82835 
L 903.522537 35.82835 
L 907.325993 35.525584 
L 913.031178 35.525584 
L 914.932907 35.374201 
L 916.834635 35.374201 
L 918.736363 35.071435 
L 922.53982 35.071435 
L 928.245005 34.617286 
L 983.395128 34.617286 
L 985.296856 34.465903 
L 991.002041 34.465903 
L 992.903769 34.163137 
L 1006.215868 34.163137 
L 1008.117596 34.011754 
L 1021.429695 34.011754 
L 1023.331423 33.860371 
L 1030.938337 33.860371 
L 1032.840065 33.708988 
L 1034.741793 33.708988 
L 1036.643522 33.557604 
L 1061.36599 33.557604 
L 1063.267719 33.406221 
L 1114.614384 33.406221 
L 1116.516113 33.254838 
L 1143.14031 33.254838 
L 1145.042038 33.103455 
L 1242.030184 33.103455 
L 1243.931913 32.952072 
L 1255.342283 32.952072 
L 1257.244011 32.800689 
L 1302.885492 32.800689 
L 1304.78722 32.649306 
L 1477.844501 32.649306 
L 1479.746229 32.497923 
L 1504.9 32.497923 
L 1504.9 32.497923 
" style="fill:none;stroke:#e7298a;stroke-linecap:round;"/>
   </g>
   <g id="line2d_85">
    <path clip-path="url(#p01b7d25c6d)" d="M 121.799376 576.72 
L 126.428916 575.660319 
L 131.058456 567.7884 
L 135.687995 559.462332 
L 140.317535 556.586054 
L 144.947074 555.072223 
L 149.576614 555.072223 
L 154.206154 554.92084 
L 158.835693 554.92084 
L 172.724312 554.466691 
L 177.353852 554.466691 
L 181.983391 554.012542 
L 186.612931 553.709776 
L 214.390168 552.801478 
L 219.019708 551.893179 
L 223.649248 550.682115 
L 232.908327 549.168284 
L 237.537866 547.805837 
L 242.167406 545.98924 
L 246.796945 545.232325 
L 251.426485 543.415728 
L 256.056025 542.204664 
L 260.685564 539.328386 
L 265.315104 536.149342 
L 269.944643 533.424447 
L 274.574183 530.396786 
L 279.203723 526.612209 
L 283.833262 524.038697 
L 288.462802 519.799972 
L 293.092341 516.318162 
L 302.351421 507.386562 
L 306.98096 502.239538 
L 311.6105 497.698046 
L 325.499119 481.197293 
L 330.128658 476.807185 
L 334.758198 469.540798 
L 339.387737 465.15069 
L 344.017277 459.246751 
L 348.646816 453.948344 
L 353.276356 446.379191 
L 357.905896 439.112804 
L 367.164975 425.639713 
L 371.794514 418.221943 
L 376.424054 410.501407 
L 381.053594 403.991936 
L 385.683133 397.936614 
L 390.312673 392.335441 
L 394.942212 386.280119 
L 399.571752 378.710966 
L 404.201292 374.018092 
L 408.830831 367.50862 
L 413.460371 363.421278 
L 418.08991 356.911806 
L 422.71945 351.462017 
L 427.34899 346.466376 
L 431.978529 341.167969 
L 436.608069 336.77786 
L 441.237608 330.873921 
L 445.867148 326.33243 
L 450.496687 320.428491 
L 455.126227 315.43285 
L 459.755767 309.831677 
L 464.385306 306.047101 
L 469.014846 299.991778 
L 473.644385 294.541989 
L 478.273925 290.303263 
L 482.903465 284.550707 
L 487.533004 278.495385 
L 496.792083 268.049954 
L 501.421623 264.416761 
L 506.051163 260.329418 
L 515.310242 250.640903 
L 519.939781 247.159093 
L 524.569321 243.828666 
L 529.198861 240.195472 
L 533.8284 235.502598 
L 538.45794 231.415255 
L 543.087479 227.933445 
L 547.717019 225.057167 
L 552.346559 220.818442 
L 556.976098 217.033865 
L 561.605638 213.703438 
L 566.235177 210.82716 
L 570.864717 207.648116 
L 575.494256 204.166306 
L 580.123796 200.987262 
L 584.753336 197.202685 
L 589.382875 194.931939 
L 598.641954 188.876617 
L 603.271494 185.092041 
L 607.901034 181.458848 
L 612.530573 179.490868 
L 617.160113 175.857675 
L 621.789652 172.527247 
L 626.419192 169.802353 
L 631.048732 166.169159 
L 635.678271 163.898413 
L 640.307811 161.930434 
L 644.93735 159.356922 
L 649.56689 156.329261 
L 654.19643 153.604366 
L 658.825969 151.636386 
L 663.455509 149.36564 
L 668.085048 146.640745 
L 672.714588 144.521383 
L 677.344127 141.493722 
L 686.603207 136.346698 
L 695.862286 131.50244 
L 700.491825 130.139993 
L 705.121365 128.172013 
L 709.750905 126.355416 
L 719.009984 122.419457 
L 723.639523 120.148711 
L 728.269063 117.272433 
L 732.898603 115.001687 
L 737.528142 113.487857 
L 742.157682 111.368494 
L 746.787221 109.097748 
L 751.416761 106.978385 
L 756.046301 105.464555 
L 760.67584 103.647958 
L 765.30538 102.134128 
L 769.934919 100.317531 
L 774.564459 98.652317 
L 779.193999 95.624656 
L 783.823538 94.413592 
L 788.453078 92.748378 
L 793.082617 90.629016 
L 802.341696 85.481992 
L 806.971236 83.211246 
L 811.600776 82.302948 
L 816.230315 81.697415 
L 820.859855 80.334968 
L 825.489394 78.215605 
L 834.748474 75.49071 
L 839.378013 72.917198 
L 844.007553 72.0089 
L 848.637092 70.797836 
L 853.266632 70.192303 
L 857.896172 68.981239 
L 862.525711 68.375707 
L 871.78479 66.256344 
L 876.41433 65.499429 
L 881.04387 64.288364 
L 885.673409 63.531449 
L 894.932488 61.412086 
L 899.562028 59.898256 
L 904.191567 58.838574 
L 908.821107 57.021978 
L 913.450647 55.810913 
L 918.080186 55.053998 
L 922.709726 53.540168 
L 927.339265 53.086018 
L 931.968805 51.723571 
L 936.598345 50.058357 
L 941.227884 49.301442 
L 945.857424 48.393144 
L 950.486963 47.333462 
L 955.116503 46.425164 
L 959.746043 45.062717 
L 964.375582 44.911333 
L 973.634661 44.305801 
L 982.893741 43.397503 
L 987.52328 43.094737 
L 992.15282 43.094737 
L 996.782359 42.791971 
L 1001.411899 42.186439 
L 1006.041439 41.429523 
L 1010.670978 40.521225 
L 1015.300518 40.369842 
L 1019.930057 39.915693 
L 1024.559597 39.158777 
L 1029.189136 39.007394 
L 1038.448216 38.099096 
L 1047.707295 37.79633 
L 1056.966374 36.888032 
L 1061.595914 36.888032 
L 1066.225453 36.282499 
L 1080.114072 35.82835 
L 1084.743612 35.82835 
L 1089.373151 35.525584 
L 1107.89131 34.920052 
L 1112.520849 34.465903 
L 1117.150389 34.163137 
L 1126.409468 34.163137 
L 1135.668547 33.860371 
L 1144.927626 33.860371 
L 1149.557166 33.708988 
L 1154.186705 33.708988 
L 1158.816245 33.406221 
L 1168.075324 33.103455 
L 1186.593483 33.103455 
L 1191.223022 32.952072 
L 1195.852562 32.952072 
L 1200.482101 32.800689 
L 1214.37072 32.800689 
L 1219.00026 32.649306 
L 1232.888878 32.649306 
L 1237.518418 32.497923 
L 1288.443354 32.497923 
L 1293.072893 32.34654 
L 1390.293225 32.34654 
L 1394.922764 32.195157 
L 1408.811383 32.195157 
L 1413.440923 32.043774 
L 1504.9 32.043774 
L 1504.9 32.043774 
" style="fill:none;stroke:#000000;stroke-linecap:round;stroke-width:2.0;"/>
   </g>
   <g id="patch_3">
    <path d="M 187.9875 64.08 
L 1216.1619 64.08 
" style="fill:none;"/>
   </g>
   <g id="patch_4">
    <path d="M 1216.1619 576.72 
L 1216.1619 64.08 
" style="fill:none;"/>
   </g>
   <g id="patch_5">
    <path d="M 187.9875 576.72 
L 1216.1619 576.72 
" style="fill:none;"/>
   </g>
   <g id="patch_6">
    <path d="M 187.9875 576.72 
L 187.9875 64.08 
" style="fill:none;"/>
   </g>
   <g id="legend_1">
    <g id="text_11">
     <!-- Ping (ms) -->
     <defs>
      <path d="M 19.671875 64.796875 
L 19.671875 37.40625 
L 32.078125 37.40625 
Q 38.96875 37.40625 42.71875 40.96875 
Q 46.484375 44.53125 46.484375 51.125 
Q 46.484375 57.671875 42.71875 61.234375 
Q 38.96875 64.796875 32.078125 64.796875 
z
M 9.8125 72.90625 
L 32.078125 72.90625 
Q 44.34375 72.90625 50.609375 67.359375 
Q 56.890625 61.8125 56.890625 51.125 
Q 56.890625 40.328125 50.609375 34.8125 
Q 44.34375 29.296875 32.078125 29.296875 
L 19.671875 29.296875 
L 19.671875 0 
L 9.8125 0 
z
" id="BitstreamVeraSans-Roman-50"/>
      <path d="M 45.40625 27.984375 
Q 45.40625 37.75 41.375 43.109375 
Q 37.359375 48.484375 30.078125 48.484375 
Q 22.859375 48.484375 18.828125 43.109375 
Q 14.796875 37.75 14.796875 27.984375 
Q 14.796875 18.265625 18.828125 12.890625 
Q 22.859375 7.515625 30.078125 7.515625 
Q 37.359375 7.515625 41.375 12.890625 
Q 45.40625 18.265625 45.40625 27.984375 
M 54.390625 6.78125 
Q 54.390625 -7.171875 48.1875 -13.984375 
Q 42 -20.796875 29.203125 -20.796875 
Q 24.46875 -20.796875 20.265625 -20.09375 
Q 16.0625 -19.390625 12.109375 -17.921875 
L 12.109375 -9.1875 
Q 16.0625 -11.328125 19.921875 -12.34375 
Q 23.78125 -13.375 27.78125 -13.375 
Q 36.625 -13.375 41.015625 -8.765625 
Q 45.40625 -4.15625 45.40625 5.171875 
L 45.40625 9.625 
Q 42.625 4.78125 38.28125 2.390625 
Q 33.9375 0 27.875 0 
Q 17.828125 0 11.671875 7.65625 
Q 5.515625 15.328125 5.515625 27.984375 
Q 5.515625 40.671875 11.671875 48.328125 
Q 17.828125 56 27.875 56 
Q 33.9375 56 38.28125 53.609375 
Q 42.625 51.21875 45.40625 46.390625 
L 45.40625 54.6875 
L 54.390625 54.6875 
z
" id="BitstreamVeraSans-Roman-67"/>
     </defs>
     <g style="fill:#262626;" transform="translate(1276.70893987 77.196525)scale(0.12 -0.12)">
      <use xlink:href="#BitstreamVeraSans-Roman-50"/>
      <use x="60.271484375" xlink:href="#BitstreamVeraSans-Roman-69"/>
      <use x="88.0546875" xlink:href="#BitstreamVeraSans-Roman-6e"/>
      <use x="151.43359375" xlink:href="#BitstreamVeraSans-Roman-67"/>
      <use x="214.91015625" xlink:href="#BitstreamVeraSans-Roman-20"/>
      <use x="246.697265625" xlink:href="#BitstreamVeraSans-Roman-28"/>
      <use x="285.7109375" xlink:href="#BitstreamVeraSans-Roman-6d"/>
      <use x="383.123046875" xlink:href="#BitstreamVeraSans-Roman-73"/>
      <use x="435.22265625" xlink:href="#BitstreamVeraSans-Roman-29"/>
     </g>
    </g>
    <g id="line2d_86">
     <path d="M 1240.723788 88.786948 
L 1260.715788 88.786948 
" style="fill:none;stroke:#1b9e77;stroke-linecap:round;"/>
    </g>
    <g id="line2d_87"/>
    <g id="text_12">
     <!-- ICMP 172.22.224.10 -->
     <defs>
      <path d="M 9.8125 72.90625 
L 24.515625 72.90625 
L 43.109375 23.296875 
L 61.8125 72.90625 
L 76.515625 72.90625 
L 76.515625 0 
L 66.890625 0 
L 66.890625 64.015625 
L 48.09375 14.015625 
L 38.1875 14.015625 
L 19.390625 64.015625 
L 19.390625 0 
L 9.8125 0 
z
" id="BitstreamVeraSans-Roman-4d"/>
      <path d="M 8.203125 72.90625 
L 55.078125 72.90625 
L 55.078125 68.703125 
L 28.609375 0 
L 18.3125 0 
L 43.21875 64.59375 
L 8.203125 64.59375 
z
" id="BitstreamVeraSans-Roman-37"/>
      <path d="M 9.8125 72.90625 
L 19.671875 72.90625 
L 19.671875 0 
L 9.8125 0 
z
" id="BitstreamVeraSans-Roman-49"/>
     </defs>
     <g style="fill:#262626;" transform="translate(1268.712588 92.285548125)scale(0.09996 -0.09996)">
      <use xlink:href="#BitstreamVeraSans-Roman-49"/>
      <use x="29.4921875" xlink:href="#BitstreamVeraSans-Roman-43"/>
      <use x="99.31640625" xlink:href="#BitstreamVeraSans-Roman-4d"/>
      <use x="185.595703125" xlink:href="#BitstreamVeraSans-Roman-50"/>
      <use x="245.8984375" xlink:href="#BitstreamVeraSans-Roman-20"/>
      <use x="277.685546875" xlink:href="#BitstreamVeraSans-Roman-31"/>
      <use x="341.30859375" xlink:href="#BitstreamVeraSans-Roman-37"/>
      <use x="404.931640625" xlink:href="#BitstreamVeraSans-Roman-32"/>
      <use x="468.5546875" xlink:href="#BitstreamVeraSans-Roman-2e"/>
      <use x="500.341796875" xlink:href="#BitstreamVeraSans-Roman-32"/>
      <use x="563.96484375" xlink:href="#BitstreamVeraSans-Roman-32"/>
      <use x="627.587890625" xlink:href="#BitstreamVeraSans-Roman-2e"/>
      <use x="659.375" xlink:href="#BitstreamVeraSans-Roman-32"/>
      <use x="722.998046875" xlink:href="#BitstreamVeraSans-Roman-32"/>
      <use x="786.62109375" xlink:href="#BitstreamVeraSans-Roman-34"/>
      <use x="850.244140625" xlink:href="#BitstreamVeraSans-Roman-2e"/>
      <use x="882.03125" xlink:href="#BitstreamVeraSans-Roman-31"/>
      <use x="945.654296875" xlink:href="#BitstreamVeraSans-Roman-30"/>
     </g>
    </g>
    <g id="line2d_88">
     <path d="M 1240.723788 103.459202 
L 1260.715788 103.459202 
" style="fill:none;stroke:#d95f02;stroke-linecap:round;"/>
    </g>
    <g id="line2d_89"/>
    <g id="text_13">
     <!-- ICMP 172.22.224.11 -->
     <g style="fill:#262626;" transform="translate(1268.712588 106.957801875)scale(0.09996 -0.09996)">
      <use xlink:href="#BitstreamVeraSans-Roman-49"/>
      <use x="29.4921875" xlink:href="#BitstreamVeraSans-Roman-43"/>
      <use x="99.31640625" xlink:href="#BitstreamVeraSans-Roman-4d"/>
      <use x="185.595703125" xlink:href="#BitstreamVeraSans-Roman-50"/>
      <use x="245.8984375" xlink:href="#BitstreamVeraSans-Roman-20"/>
      <use x="277.685546875" xlink:href="#BitstreamVeraSans-Roman-31"/>
      <use x="341.30859375" xlink:href="#BitstreamVeraSans-Roman-37"/>
      <use x="404.931640625" xlink:href="#BitstreamVeraSans-Roman-32"/>
      <use x="468.5546875" xlink:href="#BitstreamVeraSans-Roman-2e"/>
      <use x="500.341796875" xlink:href="#BitstreamVeraSans-Roman-32"/>
      <use x="563.96484375" xlink:href="#BitstreamVeraSans-Roman-32"/>
      <use x="627.587890625" xlink:href="#BitstreamVeraSans-Roman-2e"/>
      <use x="659.375" xlink:href="#BitstreamVeraSans-Roman-32"/>
      <use x="722.998046875" xlink:href="#BitstreamVeraSans-Roman-32"/>
      <use x="786.62109375" xlink:href="#BitstreamVeraSans-Roman-34"/>
      <use x="850.244140625" xlink:href="#BitstreamVeraSans-Roman-2e"/>
      <use x="882.03125" xlink:href="#BitstreamVeraSans-Roman-31"/>
      <use x="945.654296875" xlink:href="#BitstreamVeraSans-Roman-31"/>
     </g>
    </g>
    <g id="line2d_90">
     <path d="M 1240.723788 118.131456 
L 1260.715788 118.131456 
" style="fill:none;stroke:#7570b3;stroke-linecap:round;"/>
    </g>
    <g id="line2d_91"/>
    <g id="text_14">
     <!-- ICMP 172.22.224.10 -->
     <g style="fill:#262626;" transform="translate(1268.712588 121.630055625)scale(0.09996 -0.09996)">
      <use xlink:href="#BitstreamVeraSans-Roman-49"/>
      <use x="29.4921875" xlink:href="#BitstreamVeraSans-Roman-43"/>
      <use x="99.31640625" xlink:href="#BitstreamVeraSans-Roman-4d"/>
      <use x="185.595703125" xlink:href="#BitstreamVeraSans-Roman-50"/>
      <use x="245.8984375" xlink:href="#BitstreamVeraSans-Roman-20"/>
      <use x="277.685546875" xlink:href="#BitstreamVeraSans-Roman-31"/>
      <use x="341.30859375" xlink:href="#BitstreamVeraSans-Roman-37"/>
      <use x="404.931640625" xlink:href="#BitstreamVeraSans-Roman-32"/>
      <use x="468.5546875" xlink:href="#BitstreamVeraSans-Roman-2e"/>
      <use x="500.341796875" xlink:href="#BitstreamVeraSans-Roman-32"/>
      <use x="563.96484375" xlink:href="#BitstreamVeraSans-Roman-32"/>
      <use x="627.587890625" xlink:href="#BitstreamVeraSans-Roman-2e"/>
      <use x="659.375" xlink:href="#BitstreamVeraSans-Roman-32"/>
      <use x="722.998046875" xlink:href="#BitstreamVeraSans-Roman-32"/>
      <use x="786.62109375" xlink:href="#BitstreamVeraSans-Roman-34"/>
      <use x="850.244140625" xlink:href="#BitstreamVeraSans-Roman-2e"/>
      <use x="882.03125" xlink:href="#BitstreamVeraSans-Roman-31"/>
      <use x="945.654296875" xlink:href="#BitstreamVeraSans-Roman-30"/>
     </g>
    </g>
    <g id="line2d_92">
     <path d="M 1240.723788 132.803709 
L 1260.715788 132.803709 
" style="fill:none;stroke:#e7298a;stroke-linecap:round;"/>
    </g>
    <g id="line2d_93"/>
    <g id="text_15">
     <!-- ICMP 172.22.224.11 -->
     <g style="fill:#262626;" transform="translate(1268.712588 136.302309375)scale(0.09996 -0.09996)">
      <use xlink:href="#BitstreamVeraSans-Roman-49"/>
      <use x="29.4921875" xlink:href="#BitstreamVeraSans-Roman-43"/>
      <use x="99.31640625" xlink:href="#BitstreamVeraSans-Roman-4d"/>
      <use x="185.595703125" xlink:href="#BitstreamVeraSans-Roman-50"/>
      <use x="245.8984375" xlink:href="#BitstreamVeraSans-Roman-20"/>
      <use x="277.685546875" xlink:href="#BitstreamVeraSans-Roman-31"/>
      <use x="341.30859375" xlink:href="#BitstreamVeraSans-Roman-37"/>
      <use x="404.931640625" xlink:href="#BitstreamVeraSans-Roman-32"/>
      <use x="468.5546875" xlink:href="#BitstreamVeraSans-Roman-2e"/>
      <use x="500.341796875" xlink:href="#BitstreamVeraSans-Roman-32"/>
      <use x="563.96484375" xlink:href="#BitstreamVeraSans-Roman-32"/>
      <use x="627.587890625" xlink:href="#BitstreamVeraSans-Roman-2e"/>
      <use x="659.375" xlink:href="#BitstreamVeraSans-Roman-32"/>
      <use x="722.998046875" xlink:href="#BitstreamVeraSans-Roman-32"/>
      <use x="786.62109375" xlink:href="#BitstreamVeraSans-Roman-34"/>
      <use x="850.244140625" xlink:href="#BitstreamVeraSans-Roman-2e"/>
      <use x="882.03125" xlink:href="#BitstreamVeraSans-Roman-31"/>
      <use x="945.654296875" xlink:href="#BitstreamVeraSans-Roman-31"/>
     </g>
    </g>
    <g id="line2d_94">
     <path d="M 1240.723788 147.475963 
L 1260.715788 147.475963 
" style="fill:none;stroke:#000000;stroke-linecap:round;stroke-width:2.0;"/>
    </g>
    <g id="line2d_95"/>
    <g id="text_16">
     <!-- Avg -->
     <defs>
      <path d="M 34.1875 63.1875 
L 20.796875 26.90625 
L 47.609375 26.90625 
z
M 28.609375 72.90625 
L 39.796875 72.90625 
L 67.578125 0 
L 57.328125 0 
L 50.6875 18.703125 
L 17.828125 18.703125 
L 11.1875 0 
L 0.78125 0 
z
" id="BitstreamVeraSans-Roman-41"/>
     </defs>
     <g style="fill:#262626;" transform="translate(1268.712588 150.974563125)scale(0.09996 -0.09996)">
      <use xlink:href="#BitstreamVeraSans-Roman-41"/>
      <use x="68.330078125" xlink:href="#BitstreamVeraSans-Roman-76"/>
      <use x="127.509765625" xlink:href="#BitstreamVeraSans-Roman-67"/>
     </g>
    </g>
   </g>
  </g>
  <g id="text_17">
   <!-- RTT Fair upstream only -->
   <defs>
    <path d="M 9.8125 72.90625 
L 51.703125 72.90625 
L 51.703125 64.59375 
L 19.671875 64.59375 
L 19.671875 43.109375 
L 48.578125 43.109375 
L 48.578125 34.8125 
L 19.671875 34.8125 
L 19.671875 0 
L 9.8125 0 
z
" id="BitstreamVeraSans-Roman-46"/>
    <path d="M 44.390625 34.1875 
Q 47.5625 33.109375 50.5625 29.59375 
Q 53.5625 26.078125 56.59375 19.921875 
L 66.609375 0 
L 56 0 
L 46.6875 18.703125 
Q 43.0625 26.03125 39.671875 28.421875 
Q 36.28125 30.8125 30.421875 30.8125 
L 19.671875 30.8125 
L 19.671875 0 
L 9.8125 0 
L 9.8125 72.90625 
L 32.078125 72.90625 
Q 44.578125 72.90625 50.734375 67.671875 
Q 56.890625 62.453125 56.890625 51.90625 
Q 56.890625 45.015625 53.6875 40.46875 
Q 50.484375 35.9375 44.390625 34.1875 
M 19.671875 64.796875 
L 19.671875 38.921875 
L 32.078125 38.921875 
Q 39.203125 38.921875 42.84375 42.21875 
Q 46.484375 45.515625 46.484375 51.90625 
Q 46.484375 58.296875 42.84375 61.546875 
Q 39.203125 64.796875 32.078125 64.796875 
z
" id="BitstreamVeraSans-Roman-52"/>
    <path d="M -0.296875 72.90625 
L 61.375 72.90625 
L 61.375 64.59375 
L 35.5 64.59375 
L 35.5 0 
L 25.59375 0 
L 25.59375 64.59375 
L -0.296875 64.59375 
z
" id="BitstreamVeraSans-Roman-54"/>
   </defs>
   <g style="fill:#262626;" transform="translate(670.37265625 10.6378125)scale(0.14 -0.14)">
    <use xlink:href="#BitstreamVeraSans-Roman-52"/>
    <use x="69.373046875" xlink:href="#BitstreamVeraSans-Roman-54"/>
    <use x="130.44140625" xlink:href="#BitstreamVeraSans-Roman-54"/>
    <use x="191.525390625" xlink:href="#BitstreamVeraSans-Roman-20"/>
    <use x="223.3125" xlink:href="#BitstreamVeraSans-Roman-46"/>
    <use x="280.69140625" xlink:href="#BitstreamVeraSans-Roman-61"/>
    <use x="341.970703125" xlink:href="#BitstreamVeraSans-Roman-69"/>
    <use x="369.75390625" xlink:href="#BitstreamVeraSans-Roman-72"/>
    <use x="410.8671875" xlink:href="#BitstreamVeraSans-Roman-20"/>
    <use x="442.654296875" xlink:href="#BitstreamVeraSans-Roman-75"/>
    <use x="506.033203125" xlink:href="#BitstreamVeraSans-Roman-70"/>
    <use x="569.509765625" xlink:href="#BitstreamVeraSans-Roman-73"/>
    <use x="621.609375" xlink:href="#BitstreamVeraSans-Roman-74"/>
    <use x="660.818359375" xlink:href="#BitstreamVeraSans-Roman-72"/>
    <use x="701.900390625" xlink:href="#BitstreamVeraSans-Roman-65"/>
    <use x="763.423828125" xlink:href="#BitstreamVeraSans-Roman-61"/>
    <use x="824.703125" xlink:href="#BitstreamVeraSans-Roman-6d"/>
    <use x="922.115234375" xlink:href="#BitstreamVeraSans-Roman-20"/>
    <use x="953.90234375" xlink:href="#BitstreamVeraSans-Roman-6f"/>
    <use x="1015.08398438" xlink:href="#BitstreamVeraSans-Roman-6e"/>
    <use x="1078.46289062" xlink:href="#BitstreamVeraSans-Roman-6c"/>
    <use x="1106.24609375" xlink:href="#BitstreamVeraSans-Roman-79"/>
   </g>
   <!-- Ping CDF plot -->
   <defs>
    <path d="M 19.671875 64.796875 
L 19.671875 8.109375 
L 31.59375 8.109375 
Q 46.6875 8.109375 53.6875 14.9375 
Q 60.6875 21.78125 60.6875 36.53125 
Q 60.6875 51.171875 53.6875 57.984375 
Q 46.6875 64.796875 31.59375 64.796875 
z
M 9.8125 72.90625 
L 30.078125 72.90625 
Q 51.265625 72.90625 61.171875 64.09375 
Q 71.09375 55.28125 71.09375 36.53125 
Q 71.09375 17.671875 61.125 8.828125 
Q 51.171875 0 30.078125 0 
L 9.8125 0 
z
" id="BitstreamVeraSans-Roman-44"/>
   </defs>
   <g style="fill:#262626;" transform="translate(704.7371875 26.31475)scale(0.14 -0.14)">
    <use xlink:href="#BitstreamVeraSans-Roman-50"/>
    <use x="60.271484375" xlink:href="#BitstreamVeraSans-Roman-69"/>
    <use x="88.0546875" xlink:href="#BitstreamVeraSans-Roman-6e"/>
    <use x="151.43359375" xlink:href="#BitstreamVeraSans-Roman-67"/>
    <use x="214.91015625" xlink:href="#BitstreamVeraSans-Roman-20"/>
    <use x="246.697265625" xlink:href="#BitstreamVeraSans-Roman-43"/>
    <use x="316.521484375" xlink:href="#BitstreamVeraSans-Roman-44"/>
    <use x="393.5234375" xlink:href="#BitstreamVeraSans-Roman-46"/>
    <use x="451.04296875" xlink:href="#BitstreamVeraSans-Roman-20"/>
    <use x="482.830078125" xlink:href="#BitstreamVeraSans-Roman-70"/>
    <use x="546.306640625" xlink:href="#BitstreamVeraSans-Roman-6c"/>
    <use x="574.08984375" xlink:href="#BitstreamVeraSans-Roman-6f"/>
    <use x="635.271484375" xlink:href="#BitstreamVeraSans-Roman-74"/>
   </g>
   <!-- osx-bed-vs-ubnt-down -->
   <defs>
    <path d="M 45.40625 46.390625 
L 45.40625 75.984375 
L 54.390625 75.984375 
L 54.390625 0 
L 45.40625 0 
L 45.40625 8.203125 
Q 42.578125 3.328125 38.25 0.953125 
Q 33.9375 -1.421875 27.875 -1.421875 
Q 17.96875 -1.421875 11.734375 6.484375 
Q 5.515625 14.40625 5.515625 27.296875 
Q 5.515625 40.1875 11.734375 48.09375 
Q 17.96875 56 27.875 56 
Q 33.9375 56 38.25 53.625 
Q 42.578125 51.265625 45.40625 46.390625 
M 14.796875 27.296875 
Q 14.796875 17.390625 18.875 11.75 
Q 22.953125 6.109375 30.078125 6.109375 
Q 37.203125 6.109375 41.296875 11.75 
Q 45.40625 17.390625 45.40625 27.296875 
Q 45.40625 37.203125 41.296875 42.84375 
Q 37.203125 48.484375 30.078125 48.484375 
Q 22.953125 48.484375 18.875 42.84375 
Q 14.796875 37.203125 14.796875 27.296875 
" id="BitstreamVeraSans-Roman-64"/>
    <path d="M 4.890625 31.390625 
L 31.203125 31.390625 
L 31.203125 23.390625 
L 4.890625 23.390625 
z
" id="BitstreamVeraSans-Roman-2d"/>
    <path d="M 54.890625 54.6875 
L 35.109375 28.078125 
L 55.90625 0 
L 45.3125 0 
L 29.390625 21.484375 
L 13.484375 0 
L 2.875 0 
L 24.125 28.609375 
L 4.6875 54.6875 
L 15.28125 54.6875 
L 29.78125 35.203125 
L 44.28125 54.6875 
z
" id="BitstreamVeraSans-Roman-78"/>
    <path d="M 4.203125 54.6875 
L 13.1875 54.6875 
L 24.421875 12.015625 
L 35.59375 54.6875 
L 46.1875 54.6875 
L 57.421875 12.015625 
L 68.609375 54.6875 
L 77.59375 54.6875 
L 63.28125 0 
L 52.6875 0 
L 40.921875 44.828125 
L 29.109375 0 
L 18.5 0 
z
" id="BitstreamVeraSans-Roman-77"/>
   </defs>
   <g style="fill:#262626;" transform="translate(673.84421875 41.9916875)scale(0.14 -0.14)">
    <use xlink:href="#BitstreamVeraSans-Roman-6f"/>
    <use x="61.181640625" xlink:href="#BitstreamVeraSans-Roman-73"/>
    <use x="113.28125" xlink:href="#BitstreamVeraSans-Roman-78"/>
    <use x="172.4609375" xlink:href="#BitstreamVeraSans-Roman-2d"/>
    <use x="208.544921875" xlink:href="#BitstreamVeraSans-Roman-62"/>
    <use x="272.021484375" xlink:href="#BitstreamVeraSans-Roman-65"/>
    <use x="333.544921875" xlink:href="#BitstreamVeraSans-Roman-64"/>
    <use x="397.021484375" xlink:href="#BitstreamVeraSans-Roman-2d"/>
    <use x="433.07421875" xlink:href="#BitstreamVeraSans-Roman-76"/>
    <use x="492.25390625" xlink:href="#BitstreamVeraSans-Roman-73"/>
    <use x="544.353515625" xlink:href="#BitstreamVeraSans-Roman-2d"/>
    <use x="580.4375" xlink:href="#BitstreamVeraSans-Roman-75"/>
    <use x="643.81640625" xlink:href="#BitstreamVeraSans-Roman-62"/>
    <use x="707.29296875" xlink:href="#BitstreamVeraSans-Roman-6e"/>
    <use x="770.671875" xlink:href="#BitstreamVeraSans-Roman-74"/>
    <use x="809.880859375" xlink:href="#BitstreamVeraSans-Roman-2d"/>
    <use x="845.96484375" xlink:href="#BitstreamVeraSans-Roman-64"/>
    <use x="909.44140625" xlink:href="#BitstreamVeraSans-Roman-6f"/>
    <use x="970.623046875" xlink:href="#BitstreamVeraSans-Roman-77"/>
    <use x="1052.41015625" xlink:href="#BitstreamVeraSans-Roman-6e"/>
   </g>
  </g>
  <g id="text_18">
   <!-- Local/remote: nemesis/172.22.224.10 - Time: 2016-10-09T09:44:24.850164 - Length/step: 180s/0.05s -->
   <defs>
    <path d="M 10.984375 1.515625 
L 10.984375 10.5 
Q 14.703125 8.734375 18.5 7.8125 
Q 22.3125 6.890625 25.984375 6.890625 
Q 35.75 6.890625 40.890625 13.453125 
Q 46.046875 20.015625 46.78125 33.40625 
Q 43.953125 29.203125 39.59375 26.953125 
Q 35.25 24.703125 29.984375 24.703125 
Q 19.046875 24.703125 12.671875 31.3125 
Q 6.296875 37.9375 6.296875 49.421875 
Q 6.296875 60.640625 12.9375 67.421875 
Q 19.578125 74.21875 30.609375 74.21875 
Q 43.265625 74.21875 49.921875 64.515625 
Q 56.59375 54.828125 56.59375 36.375 
Q 56.59375 19.140625 48.40625 8.859375 
Q 40.234375 -1.421875 26.421875 -1.421875 
Q 22.703125 -1.421875 18.890625 -0.6875 
Q 15.09375 0.046875 10.984375 1.515625 
M 30.609375 32.421875 
Q 37.25 32.421875 41.125 36.953125 
Q 45.015625 41.5 45.015625 49.421875 
Q 45.015625 57.28125 41.125 61.84375 
Q 37.25 66.40625 30.609375 66.40625 
Q 23.96875 66.40625 20.09375 61.84375 
Q 16.21875 57.28125 16.21875 49.421875 
Q 16.21875 41.5 20.09375 36.953125 
Q 23.96875 32.421875 30.609375 32.421875 
" id="BitstreamVeraSans-Roman-39"/>
    <path d="M 11.71875 12.40625 
L 22.015625 12.40625 
L 22.015625 0 
L 11.71875 0 
z
M 11.71875 51.703125 
L 22.015625 51.703125 
L 22.015625 39.3125 
L 11.71875 39.3125 
z
" id="BitstreamVeraSans-Roman-3a"/>
    <path d="M 54.890625 33.015625 
L 54.890625 0 
L 45.90625 0 
L 45.90625 32.71875 
Q 45.90625 40.484375 42.875 44.328125 
Q 39.84375 48.1875 33.796875 48.1875 
Q 26.515625 48.1875 22.3125 43.546875 
Q 18.109375 38.921875 18.109375 30.90625 
L 18.109375 0 
L 9.078125 0 
L 9.078125 75.984375 
L 18.109375 75.984375 
L 18.109375 46.1875 
Q 21.34375 51.125 25.703125 53.5625 
Q 30.078125 56 35.796875 56 
Q 45.21875 56 50.046875 50.171875 
Q 54.890625 44.34375 54.890625 33.015625 
" id="BitstreamVeraSans-Roman-68"/>
    <path d="M 25.390625 72.90625 
L 33.6875 72.90625 
L 8.296875 -9.28125 
L 0 -9.28125 
z
" id="BitstreamVeraSans-Roman-2f"/>
   </defs>
   <g style="fill:#262626;" transform="translate(546.5875 639.13625)scale(0.08 -0.08)">
    <use xlink:href="#BitstreamVeraSans-Roman-4c"/>
    <use x="55.697265625" xlink:href="#BitstreamVeraSans-Roman-6f"/>
    <use x="116.87890625" xlink:href="#BitstreamVeraSans-Roman-63"/>
    <use x="171.859375" xlink:href="#BitstreamVeraSans-Roman-61"/>
    <use x="233.138671875" xlink:href="#BitstreamVeraSans-Roman-6c"/>
    <use x="260.921875" xlink:href="#BitstreamVeraSans-Roman-2f"/>
    <use x="294.61328125" xlink:href="#BitstreamVeraSans-Roman-72"/>
    <use x="335.6953125" xlink:href="#BitstreamVeraSans-Roman-65"/>
    <use x="397.21875" xlink:href="#BitstreamVeraSans-Roman-6d"/>
    <use x="494.630859375" xlink:href="#BitstreamVeraSans-Roman-6f"/>
    <use x="555.8125" xlink:href="#BitstreamVeraSans-Roman-74"/>
    <use x="595.021484375" xlink:href="#BitstreamVeraSans-Roman-65"/>
    <use x="656.544921875" xlink:href="#BitstreamVeraSans-Roman-3a"/>
    <use x="690.236328125" xlink:href="#BitstreamVeraSans-Roman-20"/>
    <use x="722.0234375" xlink:href="#BitstreamVeraSans-Roman-6e"/>
    <use x="785.40234375" xlink:href="#BitstreamVeraSans-Roman-65"/>
    <use x="846.92578125" xlink:href="#BitstreamVeraSans-Roman-6d"/>
    <use x="944.337890625" xlink:href="#BitstreamVeraSans-Roman-65"/>
    <use x="1005.86132812" xlink:href="#BitstreamVeraSans-Roman-73"/>
    <use x="1057.9609375" xlink:href="#BitstreamVeraSans-Roman-69"/>
    <use x="1085.74414062" xlink:href="#BitstreamVeraSans-Roman-73"/>
    <use x="1137.84375" xlink:href="#BitstreamVeraSans-Roman-2f"/>
    <use x="1171.53515625" xlink:href="#BitstreamVeraSans-Roman-31"/>
    <use x="1235.15820312" xlink:href="#BitstreamVeraSans-Roman-37"/>
    <use x="1298.78125" xlink:href="#BitstreamVeraSans-Roman-32"/>
    <use x="1362.40429688" xlink:href="#BitstreamVeraSans-Roman-2e"/>
    <use x="1394.19140625" xlink:href="#BitstreamVeraSans-Roman-32"/>
    <use x="1457.81445312" xlink:href="#BitstreamVeraSans-Roman-32"/>
    <use x="1521.4375" xlink:href="#BitstreamVeraSans-Roman-2e"/>
    <use x="1553.22460938" xlink:href="#BitstreamVeraSans-Roman-32"/>
    <use x="1616.84765625" xlink:href="#BitstreamVeraSans-Roman-32"/>
    <use x="1680.47070312" xlink:href="#BitstreamVeraSans-Roman-34"/>
    <use x="1744.09375" xlink:href="#BitstreamVeraSans-Roman-2e"/>
    <use x="1775.88085938" xlink:href="#BitstreamVeraSans-Roman-31"/>
    <use x="1839.50390625" xlink:href="#BitstreamVeraSans-Roman-30"/>
    <use x="1903.12695312" xlink:href="#BitstreamVeraSans-Roman-20"/>
    <use x="1934.9140625" xlink:href="#BitstreamVeraSans-Roman-2d"/>
    <use x="1970.99804688" xlink:href="#BitstreamVeraSans-Roman-20"/>
    <use x="2002.78515625" xlink:href="#BitstreamVeraSans-Roman-54"/>
    <use x="2063.82226562" xlink:href="#BitstreamVeraSans-Roman-69"/>
    <use x="2091.60546875" xlink:href="#BitstreamVeraSans-Roman-6d"/>
    <use x="2189.01757812" xlink:href="#BitstreamVeraSans-Roman-65"/>
    <use x="2250.54101562" xlink:href="#BitstreamVeraSans-Roman-3a"/>
    <use x="2284.23242188" xlink:href="#BitstreamVeraSans-Roman-20"/>
    <use x="2316.01953125" xlink:href="#BitstreamVeraSans-Roman-32"/>
    <use x="2379.64257812" xlink:href="#BitstreamVeraSans-Roman-30"/>
    <use x="2443.265625" xlink:href="#BitstreamVeraSans-Roman-31"/>
    <use x="2506.88867188" xlink:href="#BitstreamVeraSans-Roman-36"/>
    <use x="2570.51171875" xlink:href="#BitstreamVeraSans-Roman-2d"/>
    <use x="2606.59570312" xlink:href="#BitstreamVeraSans-Roman-31"/>
    <use x="2670.21875" xlink:href="#BitstreamVeraSans-Roman-30"/>
    <use x="2733.84179688" xlink:href="#BitstreamVeraSans-Roman-2d"/>
    <use x="2769.92578125" xlink:href="#BitstreamVeraSans-Roman-30"/>
    <use x="2833.54882812" xlink:href="#BitstreamVeraSans-Roman-39"/>
    <use x="2897.171875" xlink:href="#BitstreamVeraSans-Roman-54"/>
    <use x="2958.25585938" xlink:href="#BitstreamVeraSans-Roman-30"/>
    <use x="3021.87890625" xlink:href="#BitstreamVeraSans-Roman-39"/>
    <use x="3085.50195312" xlink:href="#BitstreamVeraSans-Roman-3a"/>
    <use x="3119.19335938" xlink:href="#BitstreamVeraSans-Roman-34"/>
    <use x="3182.81640625" xlink:href="#BitstreamVeraSans-Roman-34"/>
    <use x="3246.43945312" xlink:href="#BitstreamVeraSans-Roman-3a"/>
    <use x="3280.13085938" xlink:href="#BitstreamVeraSans-Roman-32"/>
    <use x="3343.75390625" xlink:href="#BitstreamVeraSans-Roman-34"/>
    <use x="3407.37695312" xlink:href="#BitstreamVeraSans-Roman-2e"/>
    <use x="3439.1640625" xlink:href="#BitstreamVeraSans-Roman-38"/>
    <use x="3502.78710938" xlink:href="#BitstreamVeraSans-Roman-35"/>
    <use x="3566.41015625" xlink:href="#BitstreamVeraSans-Roman-30"/>
    <use x="3630.03320312" xlink:href="#BitstreamVeraSans-Roman-31"/>
    <use x="3693.65625" xlink:href="#BitstreamVeraSans-Roman-36"/>
    <use x="3757.27929688" xlink:href="#BitstreamVeraSans-Roman-34"/>
    <use x="3820.90234375" xlink:href="#BitstreamVeraSans-Roman-20"/>
    <use x="3852.68945312" xlink:href="#BitstreamVeraSans-Roman-2d"/>
    <use x="3888.7734375" xlink:href="#BitstreamVeraSans-Roman-20"/>
    <use x="3920.56054688" xlink:href="#BitstreamVeraSans-Roman-4c"/>
    <use x="3976.2578125" xlink:href="#BitstreamVeraSans-Roman-65"/>
    <use x="4037.78125" xlink:href="#BitstreamVeraSans-Roman-6e"/>
    <use x="4101.16015625" xlink:href="#BitstreamVeraSans-Roman-67"/>
    <use x="4164.63671875" xlink:href="#BitstreamVeraSans-Roman-74"/>
    <use x="4203.84570312" xlink:href="#BitstreamVeraSans-Roman-68"/>
    <use x="4267.22460938" xlink:href="#BitstreamVeraSans-Roman-2f"/>
    <use x="4300.91601562" xlink:href="#BitstreamVeraSans-Roman-73"/>
    <use x="4353.015625" xlink:href="#BitstreamVeraSans-Roman-74"/>
    <use x="4392.22460938" xlink:href="#BitstreamVeraSans-Roman-65"/>
    <use x="4453.74804688" xlink:href="#BitstreamVeraSans-Roman-70"/>
    <use x="4517.22460938" xlink:href="#BitstreamVeraSans-Roman-3a"/>
    <use x="4550.91601562" xlink:href="#BitstreamVeraSans-Roman-20"/>
    <use x="4582.703125" xlink:href="#BitstreamVeraSans-Roman-31"/>
    <use x="4646.32617188" xlink:href="#BitstreamVeraSans-Roman-38"/>
    <use x="4709.94921875" xlink:href="#BitstreamVeraSans-Roman-30"/>
    <use x="4773.57226562" xlink:href="#BitstreamVeraSans-Roman-73"/>
    <use x="4825.671875" xlink:href="#BitstreamVeraSans-Roman-2f"/>
    <use x="4859.36328125" xlink:href="#BitstreamVeraSans-Roman-30"/>
    <use x="4922.98632812" xlink:href="#BitstreamVeraSans-Roman-2e"/>
    <use x="4954.7734375" xlink:href="#BitstreamVeraSans-Roman-30"/>
    <use x="5018.39648438" xlink:href="#BitstreamVeraSans-Roman-35"/>
    <use x="5082.01953125" xlink:href="#BitstreamVeraSans-Roman-73"/>
   </g>
  </g>
 </g>
 <defs>
  <clipPath id="p01b7d25c6d">
   <rect height="512.64" width="1028.1744" x="187.9875" y="64.08"/>
  </clipPath>
 </defs>
</svg>
