<?xml version="1.0" encoding="utf-8" standalone="no"?>
<!DOCTYPE svg PUBLIC "-//W3C//DTD SVG 1.1//EN"
  "http://www.w3.org/Graphics/SVG/1.1/DTD/svg11.dtd">
<!-- Created with matplotlib (http://matplotlib.org/) -->
<svg height="358.56pt" version="1.1" viewBox="0 0 513.36 358.56" width="513.36pt" xmlns="http://www.w3.org/2000/svg" xmlns:xlink="http://www.w3.org/1999/xlink">
 <defs>
  <style type="text/css">
*{stroke-linecap:butt;stroke-linejoin:round;}
  </style>
 </defs>
 <g id="figure_1">
  <g id="patch_1">
   <path d="M 0 358.56 
L 513.36 358.56 
L 513.36 0 
L 0 0 
z
" style="fill:#ffffff;"/>
  </g>
  <g id="axes_1">
   <g id="patch_2">
    <path d="M 64.17 319.1184 
L 390.366 319.1184 
L 390.366 43.0272 
L 64.17 43.0272 
z
" style="fill:#e6e6e6;"/>
   </g>
   <g id="matplotlib.axis_1">
    <g id="xtick_1">
     <g id="line2d_1"/>
     <g id="text_1">
      <!-- 0 -->
      <defs>
       <path d="M 31.78125 66.40625 
Q 24.171875 66.40625 20.328125 58.90625 
Q 16.5 51.421875 16.5 36.375 
Q 16.5 21.390625 20.328125 13.890625 
Q 24.171875 6.390625 31.78125 6.390625 
Q 39.453125 6.390625 43.28125 13.890625 
Q 47.125 21.390625 47.125 36.375 
Q 47.125 51.421875 43.28125 58.90625 
Q 39.453125 66.40625 31.78125 66.40625 
z
M 31.78125 74.21875 
Q 44.046875 74.21875 50.515625 64.515625 
Q 56.984375 54.828125 56.984375 36.375 
Q 56.984375 17.96875 50.515625 8.265625 
Q 44.046875 -1.421875 31.78125 -1.421875 
Q 19.53125 -1.421875 13.0625 8.265625 
Q 6.59375 17.96875 6.59375 36.375 
Q 6.59375 54.828125 13.0625 64.515625 
Q 19.53125 74.21875 31.78125 74.21875 
z
" id="DejaVuSans-30"/>
      </defs>
      <g transform="translate(60.98875 330.216838)scale(0.1 -0.1)">
       <use xlink:href="#DejaVuSans-30"/>
      </g>
     </g>
    </g>
    <g id="xtick_2">
     <g id="line2d_2"/>
     <g id="text_2">
      <!-- 10 -->
      <defs>
       <path d="M 12.40625 8.296875 
L 28.515625 8.296875 
L 28.515625 63.921875 
L 10.984375 60.40625 
L 10.984375 69.390625 
L 28.421875 72.90625 
L 38.28125 72.90625 
L 38.28125 8.296875 
L 54.390625 8.296875 
L 54.390625 0 
L 12.40625 0 
z
" id="DejaVuSans-31"/>
      </defs>
      <g transform="translate(101.712181 330.216838)scale(0.1 -0.1)">
       <use xlink:href="#DejaVuSans-31"/>
       <use x="63.623047" xlink:href="#DejaVuSans-30"/>
      </g>
     </g>
    </g>
    <g id="xtick_3">
     <g id="line2d_3"/>
     <g id="text_3">
      <!-- 20 -->
      <defs>
       <path d="M 19.1875 8.296875 
L 53.609375 8.296875 
L 53.609375 0 
L 7.328125 0 
L 7.328125 8.296875 
Q 12.9375 14.109375 22.625 23.890625 
Q 32.328125 33.6875 34.8125 36.53125 
Q 39.546875 41.84375 41.421875 45.53125 
Q 43.3125 49.21875 43.3125 52.78125 
Q 43.3125 58.59375 39.234375 62.25 
Q 35.15625 65.921875 28.609375 65.921875 
Q 23.96875 65.921875 18.8125 64.3125 
Q 13.671875 62.703125 7.8125 59.421875 
L 7.8125 69.390625 
Q 13.765625 71.78125 18.9375 73 
Q 24.125 74.21875 28.421875 74.21875 
Q 39.75 74.21875 46.484375 68.546875 
Q 53.21875 62.890625 53.21875 53.421875 
Q 53.21875 48.921875 51.53125 44.890625 
Q 49.859375 40.875 45.40625 35.40625 
Q 44.1875 33.984375 37.640625 27.21875 
Q 31.109375 20.453125 19.1875 8.296875 
z
" id="DejaVuSans-32"/>
      </defs>
      <g transform="translate(145.616863 330.216838)scale(0.1 -0.1)">
       <use xlink:href="#DejaVuSans-32"/>
       <use x="63.623047" xlink:href="#DejaVuSans-30"/>
      </g>
     </g>
    </g>
    <g id="xtick_4">
     <g id="line2d_4"/>
     <g id="text_4">
      <!-- 30 -->
      <defs>
       <path d="M 40.578125 39.3125 
Q 47.65625 37.796875 51.625 33 
Q 55.609375 28.21875 55.609375 21.1875 
Q 55.609375 10.40625 48.1875 4.484375 
Q 40.765625 -1.421875 27.09375 -1.421875 
Q 22.515625 -1.421875 17.65625 -0.515625 
Q 12.796875 0.390625 7.625 2.203125 
L 7.625 11.71875 
Q 11.71875 9.328125 16.59375 8.109375 
Q 21.484375 6.890625 26.8125 6.890625 
Q 36.078125 6.890625 40.9375 10.546875 
Q 45.796875 14.203125 45.796875 21.1875 
Q 45.796875 27.640625 41.28125 31.265625 
Q 36.765625 34.90625 28.71875 34.90625 
L 20.21875 34.90625 
L 20.21875 43.015625 
L 29.109375 43.015625 
Q 36.375 43.015625 40.234375 45.921875 
Q 44.09375 48.828125 44.09375 54.296875 
Q 44.09375 59.90625 40.109375 62.90625 
Q 36.140625 65.921875 28.71875 65.921875 
Q 24.65625 65.921875 20.015625 65.03125 
Q 15.375 64.15625 9.8125 62.3125 
L 9.8125 71.09375 
Q 15.4375 72.65625 20.34375 73.4375 
Q 25.25 74.21875 29.59375 74.21875 
Q 40.828125 74.21875 47.359375 69.109375 
Q 53.90625 64.015625 53.90625 55.328125 
Q 53.90625 49.265625 50.4375 45.09375 
Q 46.96875 40.921875 40.578125 39.3125 
z
" id="DejaVuSans-33"/>
      </defs>
      <g transform="translate(189.521544 330.216838)scale(0.1 -0.1)">
       <use xlink:href="#DejaVuSans-33"/>
       <use x="63.623047" xlink:href="#DejaVuSans-30"/>
      </g>
     </g>
    </g>
    <g id="xtick_5">
     <g id="line2d_5"/>
     <g id="text_5">
      <!-- 40 -->
      <defs>
       <path d="M 37.796875 64.3125 
L 12.890625 25.390625 
L 37.796875 25.390625 
z
M 35.203125 72.90625 
L 47.609375 72.90625 
L 47.609375 25.390625 
L 58.015625 25.390625 
L 58.015625 17.1875 
L 47.609375 17.1875 
L 47.609375 0 
L 37.796875 0 
L 37.796875 17.1875 
L 4.890625 17.1875 
L 4.890625 26.703125 
z
" id="DejaVuSans-34"/>
      </defs>
      <g transform="translate(233.426226 330.216838)scale(0.1 -0.1)">
       <use xlink:href="#DejaVuSans-34"/>
       <use x="63.623047" xlink:href="#DejaVuSans-30"/>
      </g>
     </g>
    </g>
    <g id="xtick_6">
     <g id="line2d_6"/>
     <g id="text_6">
      <!-- 50 -->
      <defs>
       <path d="M 10.796875 72.90625 
L 49.515625 72.90625 
L 49.515625 64.59375 
L 19.828125 64.59375 
L 19.828125 46.734375 
Q 21.96875 47.46875 24.109375 47.828125 
Q 26.265625 48.1875 28.421875 48.1875 
Q 40.625 48.1875 47.75 41.5 
Q 54.890625 34.8125 54.890625 23.390625 
Q 54.890625 11.625 47.5625 5.09375 
Q 40.234375 -1.421875 26.90625 -1.421875 
Q 22.3125 -1.421875 17.546875 -0.640625 
Q 12.796875 0.140625 7.71875 1.703125 
L 7.71875 11.625 
Q 12.109375 9.234375 16.796875 8.0625 
Q 21.484375 6.890625 26.703125 6.890625 
Q 35.15625 6.890625 40.078125 11.328125 
Q 45.015625 15.765625 45.015625 23.390625 
Q 45.015625 31 40.078125 35.4375 
Q 35.15625 39.890625 26.703125 39.890625 
Q 22.75 39.890625 18.8125 39.015625 
Q 14.890625 38.140625 10.796875 36.28125 
z
" id="DejaVuSans-35"/>
      </defs>
      <g transform="translate(277.330907 330.216838)scale(0.1 -0.1)">
       <use xlink:href="#DejaVuSans-35"/>
       <use x="63.623047" xlink:href="#DejaVuSans-30"/>
      </g>
     </g>
    </g>
    <g id="xtick_7">
     <g id="line2d_7"/>
     <g id="text_7">
      <!-- 60 -->
      <defs>
       <path d="M 33.015625 40.375 
Q 26.375 40.375 22.484375 35.828125 
Q 18.609375 31.296875 18.609375 23.390625 
Q 18.609375 15.53125 22.484375 10.953125 
Q 26.375 6.390625 33.015625 6.390625 
Q 39.65625 6.390625 43.53125 10.953125 
Q 47.40625 15.53125 47.40625 23.390625 
Q 47.40625 31.296875 43.53125 35.828125 
Q 39.65625 40.375 33.015625 40.375 
z
M 52.59375 71.296875 
L 52.59375 62.3125 
Q 48.875 64.0625 45.09375 64.984375 
Q 41.3125 65.921875 37.59375 65.921875 
Q 27.828125 65.921875 22.671875 59.328125 
Q 17.53125 52.734375 16.796875 39.40625 
Q 19.671875 43.65625 24.015625 45.921875 
Q 28.375 48.1875 33.59375 48.1875 
Q 44.578125 48.1875 50.953125 41.515625 
Q 57.328125 34.859375 57.328125 23.390625 
Q 57.328125 12.15625 50.6875 5.359375 
Q 44.046875 -1.421875 33.015625 -1.421875 
Q 20.359375 -1.421875 13.671875 8.265625 
Q 6.984375 17.96875 6.984375 36.375 
Q 6.984375 53.65625 15.1875 63.9375 
Q 23.390625 74.21875 37.203125 74.21875 
Q 40.921875 74.21875 44.703125 73.484375 
Q 48.484375 72.75 52.59375 71.296875 
z
" id="DejaVuSans-36"/>
      </defs>
      <g transform="translate(321.235589 330.216838)scale(0.1 -0.1)">
       <use xlink:href="#DejaVuSans-36"/>
       <use x="63.623047" xlink:href="#DejaVuSans-30"/>
      </g>
     </g>
    </g>
    <g id="xtick_8">
     <g id="line2d_8"/>
     <g id="text_8">
      <!-- 70 -->
      <defs>
       <path d="M 8.203125 72.90625 
L 55.078125 72.90625 
L 55.078125 68.703125 
L 28.609375 0 
L 18.3125 0 
L 43.21875 64.59375 
L 8.203125 64.59375 
z
" id="DejaVuSans-37"/>
      </defs>
      <g transform="translate(365.14027 330.216838)scale(0.1 -0.1)">
       <use xlink:href="#DejaVuSans-37"/>
       <use x="63.623047" xlink:href="#DejaVuSans-30"/>
      </g>
     </g>
    </g>
    <g id="xtick_9">
     <g id="line2d_9"/>
    </g>
    <g id="xtick_10">
     <g id="line2d_10"/>
    </g>
    <g id="xtick_11">
     <g id="line2d_11"/>
    </g>
    <g id="xtick_12">
     <g id="line2d_12"/>
    </g>
    <g id="xtick_13">
     <g id="line2d_13"/>
    </g>
    <g id="xtick_14">
     <g id="line2d_14"/>
    </g>
    <g id="xtick_15">
     <g id="line2d_15"/>
    </g>
    <g id="xtick_16">
     <g id="line2d_16"/>
    </g>
    <g id="xtick_17">
     <g id="line2d_17"/>
    </g>
    <g id="xtick_18">
     <g id="line2d_18"/>
    </g>
    <g id="xtick_19">
     <g id="line2d_19"/>
    </g>
    <g id="xtick_20">
     <g id="line2d_20"/>
    </g>
    <g id="xtick_21">
     <g id="line2d_21"/>
    </g>
    <g id="xtick_22">
     <g id="line2d_22"/>
    </g>
    <g id="xtick_23">
     <g id="line2d_23"/>
    </g>
    <g id="xtick_24">
     <g id="line2d_24"/>
    </g>
    <g id="xtick_25">
     <g id="line2d_25"/>
    </g>
    <g id="xtick_26">
     <g id="line2d_26"/>
    </g>
    <g id="xtick_27">
     <g id="line2d_27"/>
    </g>
    <g id="xtick_28">
     <g id="line2d_28"/>
    </g>
    <g id="xtick_29">
     <g id="line2d_29"/>
    </g>
    <g id="xtick_30">
     <g id="line2d_30"/>
    </g>
    <g id="xtick_31">
     <g id="line2d_31"/>
    </g>
    <g id="xtick_32">
     <g id="line2d_32"/>
    </g>
    <g id="xtick_33">
     <g id="line2d_33"/>
    </g>
    <g id="xtick_34">
     <g id="line2d_34"/>
    </g>
    <g id="xtick_35">
     <g id="line2d_35"/>
    </g>
    <g id="xtick_36">
     <g id="line2d_36"/>
    </g>
    <g id="xtick_37">
     <g id="line2d_37"/>
    </g>
    <g id="xtick_38">
     <g id="line2d_38"/>
    </g>
    <g id="text_9">
     <!-- Time (s) -->
     <defs>
      <path d="M -0.296875 72.90625 
L 61.375 72.90625 
L 61.375 64.59375 
L 35.5 64.59375 
L 35.5 0 
L 25.59375 0 
L 25.59375 64.59375 
L -0.296875 64.59375 
z
" id="DejaVuSans-54"/>
      <path d="M 9.421875 54.6875 
L 18.40625 54.6875 
L 18.40625 0 
L 9.421875 0 
z
M 9.421875 75.984375 
L 18.40625 75.984375 
L 18.40625 64.59375 
L 9.421875 64.59375 
z
" id="DejaVuSans-69"/>
      <path d="M 52 44.1875 
Q 55.375 50.25 60.0625 53.125 
Q 64.75 56 71.09375 56 
Q 79.640625 56 84.28125 50.015625 
Q 88.921875 44.046875 88.921875 33.015625 
L 88.921875 0 
L 79.890625 0 
L 79.890625 32.71875 
Q 79.890625 40.578125 77.09375 44.375 
Q 74.3125 48.1875 68.609375 48.1875 
Q 61.625 48.1875 57.5625 43.546875 
Q 53.515625 38.921875 53.515625 30.90625 
L 53.515625 0 
L 44.484375 0 
L 44.484375 32.71875 
Q 44.484375 40.625 41.703125 44.40625 
Q 38.921875 48.1875 33.109375 48.1875 
Q 26.21875 48.1875 22.15625 43.53125 
Q 18.109375 38.875 18.109375 30.90625 
L 18.109375 0 
L 9.078125 0 
L 9.078125 54.6875 
L 18.109375 54.6875 
L 18.109375 46.1875 
Q 21.1875 51.21875 25.484375 53.609375 
Q 29.78125 56 35.6875 56 
Q 41.65625 56 45.828125 52.96875 
Q 50 49.953125 52 44.1875 
z
" id="DejaVuSans-6d"/>
      <path d="M 56.203125 29.59375 
L 56.203125 25.203125 
L 14.890625 25.203125 
Q 15.484375 15.921875 20.484375 11.0625 
Q 25.484375 6.203125 34.421875 6.203125 
Q 39.59375 6.203125 44.453125 7.46875 
Q 49.3125 8.734375 54.109375 11.28125 
L 54.109375 2.78125 
Q 49.265625 0.734375 44.1875 -0.34375 
Q 39.109375 -1.421875 33.890625 -1.421875 
Q 20.796875 -1.421875 13.15625 6.1875 
Q 5.515625 13.8125 5.515625 26.8125 
Q 5.515625 40.234375 12.765625 48.109375 
Q 20.015625 56 32.328125 56 
Q 43.359375 56 49.78125 48.890625 
Q 56.203125 41.796875 56.203125 29.59375 
z
M 47.21875 32.234375 
Q 47.125 39.59375 43.09375 43.984375 
Q 39.0625 48.390625 32.421875 48.390625 
Q 24.90625 48.390625 20.390625 44.140625 
Q 15.875 39.890625 15.1875 32.171875 
z
" id="DejaVuSans-65"/>
      <path id="DejaVuSans-20"/>
      <path d="M 31 75.875 
Q 24.46875 64.65625 21.28125 53.65625 
Q 18.109375 42.671875 18.109375 31.390625 
Q 18.109375 20.125 21.3125 9.0625 
Q 24.515625 -2 31 -13.1875 
L 23.1875 -13.1875 
Q 15.875 -1.703125 12.234375 9.375 
Q 8.59375 20.453125 8.59375 31.390625 
Q 8.59375 42.28125 12.203125 53.3125 
Q 15.828125 64.359375 23.1875 75.875 
z
" id="DejaVuSans-28"/>
      <path d="M 44.28125 53.078125 
L 44.28125 44.578125 
Q 40.484375 46.53125 36.375 47.5 
Q 32.28125 48.484375 27.875 48.484375 
Q 21.1875 48.484375 17.84375 46.4375 
Q 14.5 44.390625 14.5 40.28125 
Q 14.5 37.15625 16.890625 35.375 
Q 19.28125 33.59375 26.515625 31.984375 
L 29.59375 31.296875 
Q 39.15625 29.25 43.1875 25.515625 
Q 47.21875 21.78125 47.21875 15.09375 
Q 47.21875 7.46875 41.1875 3.015625 
Q 35.15625 -1.421875 24.609375 -1.421875 
Q 20.21875 -1.421875 15.453125 -0.5625 
Q 10.6875 0.296875 5.421875 2 
L 5.421875 11.28125 
Q 10.40625 8.6875 15.234375 7.390625 
Q 20.0625 6.109375 24.8125 6.109375 
Q 31.15625 6.109375 34.5625 8.28125 
Q 37.984375 10.453125 37.984375 14.40625 
Q 37.984375 18.0625 35.515625 20.015625 
Q 33.0625 21.96875 24.703125 23.78125 
L 21.578125 24.515625 
Q 13.234375 26.265625 9.515625 29.90625 
Q 5.8125 33.546875 5.8125 39.890625 
Q 5.8125 47.609375 11.28125 51.796875 
Q 16.75 56 26.8125 56 
Q 31.78125 56 36.171875 55.265625 
Q 40.578125 54.546875 44.28125 53.078125 
z
" id="DejaVuSans-73"/>
      <path d="M 8.015625 75.875 
L 15.828125 75.875 
Q 23.140625 64.359375 26.78125 53.3125 
Q 30.421875 42.28125 30.421875 31.390625 
Q 30.421875 20.453125 26.78125 9.375 
Q 23.140625 -1.703125 15.828125 -13.1875 
L 8.015625 -13.1875 
Q 14.5 -2 17.703125 9.0625 
Q 20.90625 20.125 20.90625 31.390625 
Q 20.90625 42.671875 17.703125 53.65625 
Q 14.5 64.65625 8.015625 75.875 
z
" id="DejaVuSans-29"/>
     </defs>
     <g transform="translate(206.785188 343.894963)scale(0.1 -0.1)">
      <use xlink:href="#DejaVuSans-54"/>
      <use x="61.037109" xlink:href="#DejaVuSans-69"/>
      <use x="88.820312" xlink:href="#DejaVuSans-6d"/>
      <use x="186.232422" xlink:href="#DejaVuSans-65"/>
      <use x="247.755859" xlink:href="#DejaVuSans-20"/>
      <use x="279.542969" xlink:href="#DejaVuSans-28"/>
      <use x="318.556641" xlink:href="#DejaVuSans-73"/>
      <use x="370.65625" xlink:href="#DejaVuSans-29"/>
     </g>
    </g>
   </g>
   <g id="matplotlib.axis_2">
    <g id="ytick_1">
     <g id="line2d_39"/>
     <g id="text_10">
      <!-- 5 -->
      <g transform="translate(54.3075 292.957777)scale(0.1 -0.1)">
       <use xlink:href="#DejaVuSans-35"/>
      </g>
     </g>
    </g>
    <g id="ytick_2">
     <g id="line2d_40"/>
     <g id="text_11">
      <!-- 10 -->
      <g transform="translate(47.945 250.831083)scale(0.1 -0.1)">
       <use xlink:href="#DejaVuSans-31"/>
       <use x="63.623047" xlink:href="#DejaVuSans-30"/>
      </g>
     </g>
    </g>
    <g id="ytick_3">
     <g id="line2d_41"/>
     <g id="text_12">
      <!-- 15 -->
      <g transform="translate(47.945 208.704389)scale(0.1 -0.1)">
       <use xlink:href="#DejaVuSans-31"/>
       <use x="63.623047" xlink:href="#DejaVuSans-35"/>
      </g>
     </g>
    </g>
    <g id="ytick_4">
     <g id="line2d_42"/>
     <g id="text_13">
      <!-- 20 -->
      <g transform="translate(47.945 166.577695)scale(0.1 -0.1)">
       <use xlink:href="#DejaVuSans-32"/>
       <use x="63.623047" xlink:href="#DejaVuSans-30"/>
      </g>
     </g>
    </g>
    <g id="ytick_5">
     <g id="line2d_43"/>
     <g id="text_14">
      <!-- 25 -->
      <g transform="translate(47.945 124.451001)scale(0.1 -0.1)">
       <use xlink:href="#DejaVuSans-32"/>
       <use x="63.623047" xlink:href="#DejaVuSans-35"/>
      </g>
     </g>
    </g>
    <g id="ytick_6">
     <g id="line2d_44"/>
     <g id="text_15">
      <!-- 30 -->
      <g transform="translate(47.945 82.324307)scale(0.1 -0.1)">
       <use xlink:href="#DejaVuSans-33"/>
       <use x="63.623047" xlink:href="#DejaVuSans-30"/>
      </g>
     </g>
    </g>
    <g id="ytick_7">
     <g id="line2d_45"/>
    </g>
    <g id="ytick_8">
     <g id="line2d_46"/>
    </g>
    <g id="ytick_9">
     <g id="line2d_47"/>
    </g>
    <g id="ytick_10">
     <g id="line2d_48"/>
    </g>
    <g id="ytick_11">
     <g id="line2d_49"/>
    </g>
    <g id="ytick_12">
     <g id="line2d_50"/>
    </g>
    <g id="ytick_13">
     <g id="line2d_51"/>
    </g>
    <g id="ytick_14">
     <g id="line2d_52"/>
    </g>
    <g id="ytick_15">
     <g id="line2d_53"/>
    </g>
    <g id="ytick_16">
     <g id="line2d_54"/>
    </g>
    <g id="ytick_17">
     <g id="line2d_55"/>
    </g>
    <g id="ytick_18">
     <g id="line2d_56"/>
    </g>
    <g id="ytick_19">
     <g id="line2d_57"/>
    </g>
    <g id="ytick_20">
     <g id="line2d_58"/>
    </g>
    <g id="ytick_21">
     <g id="line2d_59"/>
    </g>
    <g id="ytick_22">
     <g id="line2d_60"/>
    </g>
    <g id="ytick_23">
     <g id="line2d_61"/>
    </g>
    <g id="ytick_24">
     <g id="line2d_62"/>
    </g>
    <g id="ytick_25">
     <g id="line2d_63"/>
    </g>
    <g id="ytick_26">
     <g id="line2d_64"/>
    </g>
    <g id="ytick_27">
     <g id="line2d_65"/>
    </g>
    <g id="ytick_28">
     <g id="line2d_66"/>
    </g>
    <g id="ytick_29">
     <g id="line2d_67"/>
    </g>
    <g id="ytick_30">
     <g id="line2d_68"/>
    </g>
    <g id="ytick_31">
     <g id="line2d_69"/>
    </g>
    <g id="ytick_32">
     <g id="line2d_70"/>
    </g>
    <g id="ytick_33">
     <g id="line2d_71"/>
    </g>
    <g id="text_16">
     <!-- Mbits/s -->
     <defs>
      <path d="M 9.8125 72.90625 
L 24.515625 72.90625 
L 43.109375 23.296875 
L 61.8125 72.90625 
L 76.515625 72.90625 
L 76.515625 0 
L 66.890625 0 
L 66.890625 64.015625 
L 48.09375 14.015625 
L 38.1875 14.015625 
L 19.390625 64.015625 
L 19.390625 0 
L 9.8125 0 
z
" id="DejaVuSans-4d"/>
      <path d="M 48.6875 27.296875 
Q 48.6875 37.203125 44.609375 42.84375 
Q 40.53125 48.484375 33.40625 48.484375 
Q 26.265625 48.484375 22.1875 42.84375 
Q 18.109375 37.203125 18.109375 27.296875 
Q 18.109375 17.390625 22.1875 11.75 
Q 26.265625 6.109375 33.40625 6.109375 
Q 40.53125 6.109375 44.609375 11.75 
Q 48.6875 17.390625 48.6875 27.296875 
z
M 18.109375 46.390625 
Q 20.953125 51.265625 25.265625 53.625 
Q 29.59375 56 35.59375 56 
Q 45.5625 56 51.78125 48.09375 
Q 58.015625 40.1875 58.015625 27.296875 
Q 58.015625 14.40625 51.78125 6.484375 
Q 45.5625 -1.421875 35.59375 -1.421875 
Q 29.59375 -1.421875 25.265625 0.953125 
Q 20.953125 3.328125 18.109375 8.203125 
L 18.109375 0 
L 9.078125 0 
L 9.078125 75.984375 
L 18.109375 75.984375 
z
" id="DejaVuSans-62"/>
      <path d="M 18.3125 70.21875 
L 18.3125 54.6875 
L 36.8125 54.6875 
L 36.8125 47.703125 
L 18.3125 47.703125 
L 18.3125 18.015625 
Q 18.3125 11.328125 20.140625 9.421875 
Q 21.96875 7.515625 27.59375 7.515625 
L 36.8125 7.515625 
L 36.8125 0 
L 27.59375 0 
Q 17.1875 0 13.234375 3.875 
Q 9.28125 7.765625 9.28125 18.015625 
L 9.28125 47.703125 
L 2.6875 47.703125 
L 2.6875 54.6875 
L 9.28125 54.6875 
L 9.28125 70.21875 
z
" id="DejaVuSans-74"/>
      <path d="M 25.390625 72.90625 
L 33.6875 72.90625 
L 8.296875 -9.28125 
L 0 -9.28125 
z
" id="DejaVuSans-2f"/>
     </defs>
     <g transform="translate(41.865313 198.80405)rotate(-90)scale(0.1 -0.1)">
      <use xlink:href="#DejaVuSans-4d"/>
      <use x="86.279297" xlink:href="#DejaVuSans-62"/>
      <use x="149.755859" xlink:href="#DejaVuSans-69"/>
      <use x="177.539062" xlink:href="#DejaVuSans-74"/>
      <use x="216.748047" xlink:href="#DejaVuSans-73"/>
      <use x="268.847656" xlink:href="#DejaVuSans-2f"/>
      <use x="302.539062" xlink:href="#DejaVuSans-73"/>
     </g>
    </g>
   </g>
   <g id="line2d_72">
    <path clip-path="url(#p37ac8c4415)" d="M 87.878528 314.756547 
L 88.756622 316.245893 
L 89.634715 290.379575 
L 90.512809 277.612736 
L 91.390903 287.474515 
L 92.268996 294.756888 
L 93.14709 272.746897 
L 94.025183 279.721493 
L 94.903277 283.158288 
L 96.659464 212.202966 
L 97.537558 201.209449 
L 98.415652 196.450428 
L 99.293745 233.025135 
L 100.171839 242.374946 
L 101.049932 215.762662 
L 102.80612 276.352735 
L 103.684213 292.112976 
L 104.562307 281.921594 
L 105.440401 284.125487 
L 106.318494 283.562023 
L 107.196588 229.667342 
L 108.074681 212.512844 
L 108.952775 209.828044 
L 109.830869 204.302031 
L 110.708962 205.905432 
L 111.587056 203.400343 
L 112.46515 202.040644 
L 113.343243 201.282065 
L 114.221337 202.67716 
L 115.099431 198.483321 
L 115.977524 192.751422 
L 116.855618 193.495664 
L 117.733711 205.990018 
L 118.611805 208.322033 
L 119.489899 208.577065 
L 120.367992 187.816664 
L 121.246086 201.146346 
L 122.12418 232.5471 
L 123.002273 241.662847 
L 123.880367 230.154073 
L 124.75846 236.836624 
L 125.636554 200.051867 
L 126.514648 193.98514 
L 127.392741 202.789658 
L 128.270835 180.136436 
L 129.148929 198.088722 
L 130.027022 209.715871 
L 130.905116 142.536644 
L 131.783209 95.89173 
L 132.661303 100.299128 
L 133.539397 223.598269 
L 134.41749 223.796066 
L 135.295584 259.593352 
L 136.173678 251.076541 
L 137.051771 259.557593 
L 137.929865 259.123691 
L 138.807959 279.165453 
L 139.686052 259.446808 
L 140.564146 281.67972 
L 141.442239 299.839439 
L 142.320333 300.905344 
L 143.198427 295.621975 
L 144.07652 269.156429 
L 144.954614 216.364398 
L 145.832708 218.461895 
L 146.710801 219.014137 
L 147.588895 228.069351 
L 148.466988 252.299808 
L 149.345082 231.205873 
L 150.223176 214.295798 
L 151.101269 215.788739 
L 151.979363 212.139973 
L 152.857457 213.706837 
L 153.73555 224.684166 
L 154.613644 255.904331 
L 155.491737 257.959715 
L 156.369831 226.376046 
L 157.247925 200.236255 
L 158.126018 226.18598 
L 159.004112 284.539608 
L 159.882206 284.684179 
L 160.760299 227.768748 
L 161.638393 206.36073 
L 162.516487 261.169123 
L 163.39458 305.635908 
L 164.272674 310.646031 
L 165.150767 305.348846 
L 166.028861 266.537742 
L 166.906955 213.900958 
L 167.785048 214.466713 
L 168.663142 227.355975 
L 169.541236 217.932545 
L 170.419329 212.319932 
L 171.297423 216.288521 
L 172.175516 211.655576 
L 173.05361 209.789724 
L 173.931704 212.077389 
L 174.809797 229.820739 
L 175.687891 218.757945 
L 176.565985 210.763059 
L 177.444078 209.004411 
L 178.322172 208.81136 
L 179.200265 209.499177 
L 180.078359 198.522568 
L 180.956453 205.201273 
L 181.834546 206.812532 
L 182.71264 206.188607 
L 183.590734 210.620296 
L 184.468827 211.110103 
L 185.346921 204.99752 
L 186.225015 209.369235 
L 187.103108 208.148597 
L 187.981202 202.983769 
L 188.859295 208.469489 
L 189.737389 208.891739 
L 190.615483 201.823598 
L 191.493576 205.965149 
L 192.37167 216.217596 
L 193.249764 212.821391 
L 194.127857 213.849069 
L 195.005951 213.827344 
L 195.884044 210.277134 
L 196.762138 212.624529 
L 197.640232 214.425442 
L 198.518325 214.358236 
L 199.396419 214.571796 
L 200.274513 211.807841 
L 201.152606 243.298468 
L 202.0307 245.138216 
L 202.908793 224.709392 
L 203.786887 216.205363 
L 204.664981 209.13641 
L 205.543074 209.780684 
L 206.421168 209.467116 
L 207.299262 209.544485 
L 208.177355 207.104589 
L 209.055449 210.177671 
L 209.933543 204.990781 
L 210.811636 213.786289 
L 211.68973 209.997859 
L 212.567823 214.772183 
L 213.445917 241.169967 
L 214.324011 229.289305 
L 216.080198 247.377455 
L 216.958292 240.701389 
L 217.836385 230.136 
L 218.714479 221.539984 
L 219.592572 224.881696 
L 220.470666 234.093247 
L 221.34876 256.43235 
L 222.226853 222.535035 
L 223.104947 212.988799 
L 224.861134 218.636446 
L 225.739228 238.854763 
L 226.617321 224.580114 
L 227.495415 218.932602 
L 228.373509 224.331511 
L 229.251602 210.720963 
L 230.129696 208.457897 
L 231.00779 212.31386 
L 231.885883 210.629783 
L 232.763977 204.056022 
L 234.520164 217.446232 
L 235.398258 221.483214 
L 236.276351 217.13299 
L 237.154445 220.291097 
L 238.032539 209.803165 
L 238.910632 215.767911 
L 239.788726 225.034798 
L 240.66682 254.147491 
L 242.423007 222.069469 
L 243.3011 222.138849 
L 244.179194 225.800138 
L 245.057288 231.969029 
L 245.935381 219.259971 
L 246.813475 229.700867 
L 247.691569 232.983003 
L 248.569662 221.770035 
L 249.447756 229.741369 
L 250.325849 239.333308 
L 251.203943 235.505981 
L 252.082037 227.325138 
L 252.96013 227.569647 
L 253.838224 225.229934 
L 254.716318 223.866216 
L 255.594411 227.768098 
L 256.472505 226.92547 
L 257.350599 231.644323 
L 258.228692 231.726569 
L 259.106786 221.185536 
L 259.984879 241.89232 
L 260.862973 275.5982 
L 261.741067 227.4635 
L 262.61916 223.829697 
L 263.497254 232.265364 
L 264.375348 221.017927 
L 265.253441 219.748412 
L 266.131535 225.695093 
L 267.009628 221.609792 
L 267.887722 212.208569 
L 268.765816 208.166202 
L 269.643909 209.294569 
L 270.522003 217.145175 
L 271.400097 239.618956 
L 272.27819 283.57143 
L 273.156284 291.481653 
L 274.034377 221.093 
L 274.912471 213.768966 
L 275.790565 218.648874 
L 276.668658 206.498221 
L 277.546752 213.230302 
L 278.424846 215.059163 
L 279.302939 232.460656 
L 280.181033 280.547359 
L 281.059127 301.170371 
L 281.93722 284.220311 
L 282.815314 291.38472 
L 283.693407 292.890988 
L 284.571501 220.848623 
L 285.449595 224.743205 
L 286.327688 238.330186 
L 287.205782 265.126922 
L 288.083876 248.37452 
L 288.961969 233.841418 
L 289.840063 234.851348 
L 290.718156 224.199546 
L 291.59625 246.196156 
L 292.474344 238.739484 
L 293.352437 233.299123 
L 294.230531 237.947869 
L 295.108625 222.4968 
L 295.986718 216.599287 
L 296.864812 252.27396 
L 297.742905 223.992151 
L 298.620999 210.315237 
L 299.499093 218.915168 
L 300.377186 198.191981 
L 301.25528 202.141573 
L 302.133374 200.194803 
L 303.011467 200.561115 
L 303.889561 181.868438 
L 304.767655 188.660513 
L 305.645748 210.720316 
L 306.523842 205.623461 
L 307.401935 177.050703 
L 308.280029 177.894231 
L 310.036216 100.608118 
L 310.91431 50.260128 
L 311.792404 45.733976 
L 312.670497 90.796362 
L 313.548591 141.671538 
L 314.426684 151.959219 
L 315.304778 191.844915 
L 316.182872 312.759233 
L 317.060965 316.411624 
L 317.939059 297.16653 
L 318.817153 273.759628 
L 319.695246 301.817123 
L 320.57334 315.893361 
L 321.451433 301.853309 
L 322.329527 234.807479 
L 323.207621 207.884113 
L 324.085714 208.853768 
L 324.963808 211.875225 
L 325.841902 211.102898 
L 326.719995 215.416886 
L 327.598089 249.033211 
L 328.476183 251.873479 
L 329.354276 216.444276 
L 330.23237 207.956286 
L 331.110463 236.196555 
L 331.988557 295.641355 
L 332.866651 310.416838 
L 333.744744 296.172056 
L 334.622838 287.859169 
L 335.500932 239.116622 
L 336.379025 222.125278 
L 337.257119 210.120447 
L 338.135212 215.256025 
L 339.013306 215.668447 
L 339.8914 214.454993 
L 340.769493 207.194899 
L 341.647587 213.500702 
L 342.525681 207.657292 
L 343.403774 203.638587 
L 345.159961 171.172384 
L 346.038055 219.823371 
L 346.916149 260.530982 
L 348.672336 157.348214 
L 349.55043 171.776987 
L 350.428523 179.5449 
L 350.428523 179.5449 
" style="fill:none;stroke:#1b9e77;stroke-linecap:round;"/>
   </g>
   <g id="patch_3">
    <path d="M 64.17 319.1184 
L 64.17 43.0272 
" style="fill:none;"/>
   </g>
   <g id="patch_4">
    <path d="M 390.366 319.1184 
L 390.366 43.0272 
" style="fill:none;"/>
   </g>
   <g id="patch_5">
    <path d="M 64.17 319.1184 
L 390.366 319.1184 
" style="fill:none;"/>
   </g>
   <g id="patch_6">
    <path d="M 64.17 43.0272 
L 390.366 43.0272 
" style="fill:none;"/>
   </g>
   <g id="legend_1">
    <g id="line2d_73">
     <path d="M 429.57956 49.773198 
L 446.23956 49.773198 
" style="fill:none;stroke:#1b9e77;stroke-linecap:round;"/>
    </g>
    <g id="line2d_74"/>
    <g id="text_17">
     <!-- Download -->
     <defs>
      <path d="M 19.671875 64.796875 
L 19.671875 8.109375 
L 31.59375 8.109375 
Q 46.6875 8.109375 53.6875 14.9375 
Q 60.6875 21.78125 60.6875 36.53125 
Q 60.6875 51.171875 53.6875 57.984375 
Q 46.6875 64.796875 31.59375 64.796875 
z
M 9.8125 72.90625 
L 30.078125 72.90625 
Q 51.265625 72.90625 61.171875 64.09375 
Q 71.09375 55.28125 71.09375 36.53125 
Q 71.09375 17.671875 61.125 8.828125 
Q 51.171875 0 30.078125 0 
L 9.8125 0 
z
" id="DejaVuSans-44"/>
      <path d="M 30.609375 48.390625 
Q 23.390625 48.390625 19.1875 42.75 
Q 14.984375 37.109375 14.984375 27.296875 
Q 14.984375 17.484375 19.15625 11.84375 
Q 23.34375 6.203125 30.609375 6.203125 
Q 37.796875 6.203125 41.984375 11.859375 
Q 46.1875 17.53125 46.1875 27.296875 
Q 46.1875 37.015625 41.984375 42.703125 
Q 37.796875 48.390625 30.609375 48.390625 
z
M 30.609375 56 
Q 42.328125 56 49.015625 48.375 
Q 55.71875 40.765625 55.71875 27.296875 
Q 55.71875 13.875 49.015625 6.21875 
Q 42.328125 -1.421875 30.609375 -1.421875 
Q 18.84375 -1.421875 12.171875 6.21875 
Q 5.515625 13.875 5.515625 27.296875 
Q 5.515625 40.765625 12.171875 48.375 
Q 18.84375 56 30.609375 56 
z
" id="DejaVuSans-6f"/>
      <path d="M 4.203125 54.6875 
L 13.1875 54.6875 
L 24.421875 12.015625 
L 35.59375 54.6875 
L 46.1875 54.6875 
L 57.421875 12.015625 
L 68.609375 54.6875 
L 77.59375 54.6875 
L 63.28125 0 
L 52.6875 0 
L 40.921875 44.828125 
L 29.109375 0 
L 18.5 0 
z
" id="DejaVuSans-77"/>
      <path d="M 54.890625 33.015625 
L 54.890625 0 
L 45.90625 0 
L 45.90625 32.71875 
Q 45.90625 40.484375 42.875 44.328125 
Q 39.84375 48.1875 33.796875 48.1875 
Q 26.515625 48.1875 22.3125 43.546875 
Q 18.109375 38.921875 18.109375 30.90625 
L 18.109375 0 
L 9.078125 0 
L 9.078125 54.6875 
L 18.109375 54.6875 
L 18.109375 46.1875 
Q 21.34375 51.125 25.703125 53.5625 
Q 30.078125 56 35.796875 56 
Q 45.21875 56 50.046875 50.171875 
Q 54.890625 44.34375 54.890625 33.015625 
z
" id="DejaVuSans-6e"/>
      <path d="M 9.421875 75.984375 
L 18.40625 75.984375 
L 18.40625 0 
L 9.421875 0 
z
" id="DejaVuSans-6c"/>
      <path d="M 34.28125 27.484375 
Q 23.390625 27.484375 19.1875 25 
Q 14.984375 22.515625 14.984375 16.5 
Q 14.984375 11.71875 18.140625 8.90625 
Q 21.296875 6.109375 26.703125 6.109375 
Q 34.1875 6.109375 38.703125 11.40625 
Q 43.21875 16.703125 43.21875 25.484375 
L 43.21875 27.484375 
z
M 52.203125 31.203125 
L 52.203125 0 
L 43.21875 0 
L 43.21875 8.296875 
Q 40.140625 3.328125 35.546875 0.953125 
Q 30.953125 -1.421875 24.3125 -1.421875 
Q 15.921875 -1.421875 10.953125 3.296875 
Q 6 8.015625 6 15.921875 
Q 6 25.140625 12.171875 29.828125 
Q 18.359375 34.515625 30.609375 34.515625 
L 43.21875 34.515625 
L 43.21875 35.40625 
Q 43.21875 41.609375 39.140625 45 
Q 35.0625 48.390625 27.6875 48.390625 
Q 23 48.390625 18.546875 47.265625 
Q 14.109375 46.140625 10.015625 43.890625 
L 10.015625 52.203125 
Q 14.9375 54.109375 19.578125 55.046875 
Q 24.21875 56 28.609375 56 
Q 40.484375 56 46.34375 49.84375 
Q 52.203125 43.703125 52.203125 31.203125 
z
" id="DejaVuSans-61"/>
      <path d="M 45.40625 46.390625 
L 45.40625 75.984375 
L 54.390625 75.984375 
L 54.390625 0 
L 45.40625 0 
L 45.40625 8.203125 
Q 42.578125 3.328125 38.25 0.953125 
Q 33.9375 -1.421875 27.875 -1.421875 
Q 17.96875 -1.421875 11.734375 6.484375 
Q 5.515625 14.40625 5.515625 27.296875 
Q 5.515625 40.1875 11.734375 48.09375 
Q 17.96875 56 27.875 56 
Q 33.9375 56 38.25 53.625 
Q 42.578125 51.265625 45.40625 46.390625 
z
M 14.796875 27.296875 
Q 14.796875 17.390625 18.875 11.75 
Q 22.953125 6.109375 30.078125 6.109375 
Q 37.203125 6.109375 41.296875 11.75 
Q 45.40625 17.390625 45.40625 27.296875 
Q 45.40625 37.203125 41.296875 42.84375 
Q 37.203125 48.484375 30.078125 48.484375 
Q 22.953125 48.484375 18.875 42.84375 
Q 14.796875 37.203125 14.796875 27.296875 
z
" id="DejaVuSans-64"/>
     </defs>
     <g transform="translate(452.90356 52.688698)scale(0.0833 -0.0833)">
      <use xlink:href="#DejaVuSans-44"/>
      <use x="77.001953" xlink:href="#DejaVuSans-6f"/>
      <use x="138.183594" xlink:href="#DejaVuSans-77"/>
      <use x="219.970703" xlink:href="#DejaVuSans-6e"/>
      <use x="283.349609" xlink:href="#DejaVuSans-6c"/>
      <use x="311.132812" xlink:href="#DejaVuSans-6f"/>
      <use x="372.314453" xlink:href="#DejaVuSans-61"/>
      <use x="433.59375" xlink:href="#DejaVuSans-64"/>
     </g>
    </g>
    <g id="line2d_75">
     <path d="M 429.57956 62.000077 
L 446.23956 62.000077 
" style="fill:none;stroke:#d95f02;stroke-linecap:round;"/>
    </g>
    <g id="line2d_76"/>
    <g id="text_18">
     <!-- Ping (ms) -->
     <defs>
      <path d="M 19.671875 64.796875 
L 19.671875 37.40625 
L 32.078125 37.40625 
Q 38.96875 37.40625 42.71875 40.96875 
Q 46.484375 44.53125 46.484375 51.125 
Q 46.484375 57.671875 42.71875 61.234375 
Q 38.96875 64.796875 32.078125 64.796875 
z
M 9.8125 72.90625 
L 32.078125 72.90625 
Q 44.34375 72.90625 50.609375 67.359375 
Q 56.890625 61.8125 56.890625 51.125 
Q 56.890625 40.328125 50.609375 34.8125 
Q 44.34375 29.296875 32.078125 29.296875 
L 19.671875 29.296875 
L 19.671875 0 
L 9.8125 0 
z
" id="DejaVuSans-50"/>
      <path d="M 45.40625 27.984375 
Q 45.40625 37.75 41.375 43.109375 
Q 37.359375 48.484375 30.078125 48.484375 
Q 22.859375 48.484375 18.828125 43.109375 
Q 14.796875 37.75 14.796875 27.984375 
Q 14.796875 18.265625 18.828125 12.890625 
Q 22.859375 7.515625 30.078125 7.515625 
Q 37.359375 7.515625 41.375 12.890625 
Q 45.40625 18.265625 45.40625 27.984375 
z
M 54.390625 6.78125 
Q 54.390625 -7.171875 48.1875 -13.984375 
Q 42 -20.796875 29.203125 -20.796875 
Q 24.46875 -20.796875 20.265625 -20.09375 
Q 16.0625 -19.390625 12.109375 -17.921875 
L 12.109375 -9.1875 
Q 16.0625 -11.328125 19.921875 -12.34375 
Q 23.78125 -13.375 27.78125 -13.375 
Q 36.625 -13.375 41.015625 -8.765625 
Q 45.40625 -4.15625 45.40625 5.171875 
L 45.40625 9.625 
Q 42.625 4.78125 38.28125 2.390625 
Q 33.9375 0 27.875 0 
Q 17.828125 0 11.671875 7.65625 
Q 5.515625 15.328125 5.515625 27.984375 
Q 5.515625 40.671875 11.671875 48.328125 
Q 17.828125 56 27.875 56 
Q 33.9375 56 38.28125 53.609375 
Q 42.625 51.21875 45.40625 46.390625 
L 45.40625 54.6875 
L 54.390625 54.6875 
z
" id="DejaVuSans-67"/>
     </defs>
     <g transform="translate(452.90356 64.915577)scale(0.0833 -0.0833)">
      <use xlink:href="#DejaVuSans-50"/>
      <use x="60.271484" xlink:href="#DejaVuSans-69"/>
      <use x="88.054688" xlink:href="#DejaVuSans-6e"/>
      <use x="151.433594" xlink:href="#DejaVuSans-67"/>
      <use x="214.910156" xlink:href="#DejaVuSans-20"/>
      <use x="246.697266" xlink:href="#DejaVuSans-28"/>
      <use x="285.710938" xlink:href="#DejaVuSans-6d"/>
      <use x="383.123047" xlink:href="#DejaVuSans-73"/>
      <use x="435.222656" xlink:href="#DejaVuSans-29"/>
     </g>
    </g>
   </g>
  </g>
  <g id="axes_2">
   <g id="matplotlib.axis_3">
    <g id="ytick_34">
     <g id="line2d_77"/>
     <g id="text_19">
      <!-- 0 -->
      <g transform="translate(393.866 321.661218)scale(0.1 -0.1)">
       <use xlink:href="#DejaVuSans-30"/>
      </g>
     </g>
    </g>
    <g id="ytick_35">
     <g id="line2d_78"/>
     <g id="text_20">
      <!-- 500 -->
      <g transform="translate(393.866 269.489434)scale(0.1 -0.1)">
       <use xlink:href="#DejaVuSans-35"/>
       <use x="63.623047" xlink:href="#DejaVuSans-30"/>
       <use x="127.246094" xlink:href="#DejaVuSans-30"/>
      </g>
     </g>
    </g>
    <g id="ytick_36">
     <g id="line2d_79"/>
     <g id="text_21">
      <!-- 1000 -->
      <g transform="translate(393.866 217.317651)scale(0.1 -0.1)">
       <use xlink:href="#DejaVuSans-31"/>
       <use x="63.623047" xlink:href="#DejaVuSans-30"/>
       <use x="127.246094" xlink:href="#DejaVuSans-30"/>
       <use x="190.869141" xlink:href="#DejaVuSans-30"/>
      </g>
     </g>
    </g>
    <g id="ytick_37">
     <g id="line2d_80"/>
     <g id="text_22">
      <!-- 1500 -->
      <g transform="translate(393.866 165.145867)scale(0.1 -0.1)">
       <use xlink:href="#DejaVuSans-31"/>
       <use x="63.623047" xlink:href="#DejaVuSans-35"/>
       <use x="127.246094" xlink:href="#DejaVuSans-30"/>
       <use x="190.869141" xlink:href="#DejaVuSans-30"/>
      </g>
     </g>
    </g>
    <g id="ytick_38">
     <g id="line2d_81"/>
     <g id="text_23">
      <!-- 2000 -->
      <g transform="translate(393.866 112.974084)scale(0.1 -0.1)">
       <use xlink:href="#DejaVuSans-32"/>
       <use x="63.623047" xlink:href="#DejaVuSans-30"/>
       <use x="127.246094" xlink:href="#DejaVuSans-30"/>
       <use x="190.869141" xlink:href="#DejaVuSans-30"/>
      </g>
     </g>
    </g>
    <g id="ytick_39">
     <g id="line2d_82"/>
     <g id="text_24">
      <!-- 2500 -->
      <g transform="translate(393.866 60.8023)scale(0.1 -0.1)">
       <use xlink:href="#DejaVuSans-32"/>
       <use x="63.623047" xlink:href="#DejaVuSans-35"/>
       <use x="127.246094" xlink:href="#DejaVuSans-30"/>
       <use x="190.869141" xlink:href="#DejaVuSans-30"/>
      </g>
     </g>
    </g>
    <g id="ytick_40">
     <g id="line2d_83"/>
    </g>
    <g id="ytick_41">
     <g id="line2d_84"/>
    </g>
    <g id="ytick_42">
     <g id="line2d_85"/>
    </g>
    <g id="ytick_43">
     <g id="line2d_86"/>
    </g>
    <g id="ytick_44">
     <g id="line2d_87"/>
    </g>
    <g id="ytick_45">
     <g id="line2d_88"/>
    </g>
    <g id="ytick_46">
     <g id="line2d_89"/>
    </g>
    <g id="ytick_47">
     <g id="line2d_90"/>
    </g>
    <g id="ytick_48">
     <g id="line2d_91"/>
    </g>
    <g id="ytick_49">
     <g id="line2d_92"/>
    </g>
    <g id="ytick_50">
     <g id="line2d_93"/>
    </g>
    <g id="ytick_51">
     <g id="line2d_94"/>
    </g>
    <g id="ytick_52">
     <g id="line2d_95"/>
    </g>
    <g id="ytick_53">
     <g id="line2d_96"/>
    </g>
    <g id="ytick_54">
     <g id="line2d_97"/>
    </g>
    <g id="ytick_55">
     <g id="line2d_98"/>
    </g>
    <g id="ytick_56">
     <g id="line2d_99"/>
    </g>
    <g id="ytick_57">
     <g id="line2d_100"/>
    </g>
    <g id="ytick_58">
     <g id="line2d_101"/>
    </g>
    <g id="ytick_59">
     <g id="line2d_102"/>
    </g>
    <g id="ytick_60">
     <g id="line2d_103"/>
    </g>
    <g id="text_25">
     <!-- ms -->
     <g transform="translate(430.914438 188.5478)rotate(-90)scale(0.1 -0.1)">
      <use xlink:href="#DejaVuSans-6d"/>
      <use x="97.412109" xlink:href="#DejaVuSans-73"/>
     </g>
    </g>
   </g>
   <g id="line2d_104">
    <path clip-path="url(#p37ac8c4415)" d="M 64.17 316.192502 
L 65.079451 315.962946 
L 65.961413 316.255108 
L 67.763102 316.14033 
L 68.647281 316.338583 
L 70.439436 316.223805 
L 71.332118 316.369886 
L 72.224854 316.401189 
L 73.129866 316.098593 
L 74.035444 315.952512 
L 74.930397 316.004684 
L 75.830706 315.837734 
L 76.781238 314.460399 
L 77.603845 315.795996 
L 78.484849 316.182068 
L 79.377081 316.328149 
L 80.303237 315.462097 
L 81.167219 316.119462 
L 82.056144 316.255108 
L 82.951057 316.213371 
L 83.838991 316.328149 
L 84.749565 316.077724 
L 85.642906 316.109027 
L 86.563974 315.409925 
L 88.941333 280.193971 
L 88.95713 301.167028 
L 89.2176 316.265543 
L 90.238176 313.208276 
L 91.060749 314.84647 
L 92.298049 306.801581 
L 92.792643 316.338583 
L 94.223703 303.671274 
L 95.05801 305.02774 
L 95.665458 311.716163 
L 96.56712 311.476173 
L 97.369316 313.615216 
L 98.202991 315.023854 
L 100.119487 312.154406 
L 100.905262 314.877773 
L 102.282978 303.149556 
L 103.885723 286.245898 
L 104.392045 295.428132 
L 105.561306 288.854487 
L 106.479015 288.228426 
L 106.855264 300.645311 
L 107.140956 315.190804 
L 108.147788 312.582215 
L 109.167268 309.24322 
L 110.360258 302.001777 
L 111.340097 299.914906 
L 112.104556 303.045213 
L 112.818521 307.46938 
L 115.203959 293.236917 
L 115.750147 301.480059 
L 117.004613 292.819543 
L 117.83284 294.280353 
L 119.425166 277.689726 
L 119.91026 287.498021 
L 120.907875 285.098119 
L 120.968793 304.923397 
L 124.048653 252.9603 
L 125.140634 248.160496 
L 125.67023 257.0297 
L 126.84115 250.456055 
L 126.855128 271.324768 
L 127.744519 271.324768 
L 128.764895 267.985774 
L 130.373409 250.977773 
L 131.262654 251.082116 
L 131.826732 259.116571 
L 132.17008 272.159517 
L 133.657439 257.968792 
L 135.522787 235.013207 
L 139.347139 165.416048 
L 144.248231 69.83734 
L 144.89302 75.784924 
L 146.320647 84.236753 
L 146.823228 93.52333 
L 147.754688 114.079013 
L 148.888522 108.340117 
L 150.058863 186.493448 
L 150.511827 196.927805 
L 151.343764 198.388615 
L 152.210043 220.509451 
L 153.006934 222.491979 
L 153.393309 234.491489 
L 154.732669 223.848445 
L 156.2305 209.449033 
L 157.088415 210.283782 
L 161.050044 158.216342 
L 161.89575 159.259777 
L 164.915166 108.861834 
L 166.005504 104.270718 
L 166.808964 106.461932 
L 167.774287 104.688092 
L 168.294431 113.557295 
L 168.601465 127.643677 
L 169.547448 126.391554 
L 170.62822 122.009124 
L 170.777043 203.50145 
L 171.376003 210.179438 
L 171.585003 226.457034 
L 171.70344 244.508472 
L 172.292949 251.708178 
L 172.988534 256.403638 
L 173.764177 259.116571 
L 175.185433 246.595343 
L 176.958454 225.622286 
L 179.024191 197.866897 
L 180.052455 194.73659 
L 180.940313 194.840934 
L 181.581928 200.475486 
L 182.463538 200.788517 
L 183.284644 202.458014 
L 183.887227 209.449033 
L 184.738876 210.596812 
L 186.02232 201.310235 
L 187.023237 198.701646 
L 187.800082 201.414578 
L 188.911358 196.1974 
L 189.707301 198.492959 
L 190.6378 197.553866 
L 191.166798 206.214382 
L 192.490257 195.988713 
L 193.363174 196.406087 
L 194.125531 199.640738 
L 194.939028 201.623266 
L 195.700084 204.753573 
L 196.396856 209.553377 
L 196.759047 222.283292 
L 196.772241 243.152005 
L 198.722232 217.796518 
L 198.916317 234.387146 
L 200.355837 221.3442 
L 201.31191 219.779046 
L 204.797608 178.980711 
L 205.599817 181.171926 
L 206.518908 180.232834 
L 207.040983 189.102037 
L 207.761332 193.380124 
L 208.308372 201.623266 
L 209.190214 201.831953 
L 209.218713 222.387635 
L 209.787445 230.213403 
L 211.095323 220.509451 
L 212.286737 213.518432 
L 213.276323 211.327217 
L 214.818764 195.988713 
L 217.667015 170.946257 
L 218.866517 163.642207 
L 219.770839 163.329176 
L 220.412677 169.27676 
L 221.432649 166.35514 
L 222.203355 169.068073 
L 222.935151 172.928785 
L 223.812081 173.241815 
L 224.647437 174.598282 
L 225.621827 172.615754 
L 226.491342 173.137472 
L 227.110696 179.711116 
L 227.891527 182.424049 
L 228.808758 182.006675 
L 229.536917 185.867387 
L 230.225096 190.771535 
L 231.110523 190.875878 
L 231.976134 191.50194 
L 232.595132 197.971241 
L 233.580591 195.780026 
L 234.386128 198.075584 
L 235.425637 194.319216 
L 236.336401 193.693154 
L 237.458147 187.954258 
L 238.126745 193.380124 
L 239.105292 191.50194 
L 241.404454 179.502429 
L 242.47618 175.224343 
L 243.390144 174.702625 
L 244.423063 171.259288 
L 245.405773 168.755042 
L 246.341982 167.81595 
L 246.891885 176.059092 
L 247.860211 174.389595 
L 248.737431 174.806969 
L 249.690619 173.346159 
L 250.680064 170.946257 
L 251.518911 172.302723 
L 252.480389 170.73757 
L 253.313638 171.989692 
L 254.225432 171.154944 
L 254.869457 177.102527 
L 255.927205 173.137472 
L 256.740653 174.702625 
L 257.788596 170.841913 
L 258.553078 173.554846 
L 259.357771 175.537374 
L 260.942138 158.738059 
L 261.829562 158.842403 
L 262.52391 163.642207 
L 263.597185 159.259777 
L 264.287389 163.746551 
L 265.146525 164.581299 
L 265.754113 171.363631 
L 266.51736 174.389595 
L 267.997827 181.902331 
L 268.819691 183.571828 
L 269.525213 187.954258 
L 270.407807 188.371633 
L 271.459197 185.6587 
L 273.51243 158.320685 
L 274.184154 163.642207 
L 275.067451 164.059581 
L 275.88751 165.833422 
L 276.63512 169.27676 
L 277.666472 165.937766 
L 278.341506 171.0506 
L 278.662836 184.615264 
L 279.545671 184.928295 
L 283.650205 129.626204 
L 285.035139 118.044068 
L 285.143184 136.82591 
L 286.099086 135.156413 
L 287.801547 115.852853 
L 288.89375 110.740019 
L 289.283773 122.739529 
L 290.085468 125.035087 
L 290.154491 144.338647 
L 290.463431 158.320685 
L 291.224728 161.346649 
L 292.358919 155.607752 
L 293.06239 160.094526 
L 293.933792 160.616244 
L 294.576144 166.459483 
L 295.302912 170.424539 
L 295.941633 176.476466 
L 297.080625 170.528883 
L 297.966231 170.73757 
L 298.783833 172.51141 
L 299.45406 177.832932 
L 300.160855 182.215362 
L 300.779858 188.371633 
L 301.527265 191.919314 
L 302.126287 198.492959 
L 302.897816 201.101548 
L 303.75437 201.936296 
L 304.326575 209.762064 
L 305.289489 208.092567 
L 306.12269 209.136002 
L 307.005828 209.449033 
L 307.819649 211.431561 
L 308.61486 213.935806 
L 309.237924 220.509451 
L 309.621827 232.300274 
L 310.082466 242.630287 
L 310.137119 262.664252 
L 310.619551 272.472547 
L 311.017828 284.263371 
L 311.587035 291.984795 
L 312.640712 288.124083 
L 318.573561 168.337668 
L 323.061849 82.462912 
L 324.79766 62.637634 
L 326.410775 45.733976 
L 327.16655 49.072971 
L 327.258697 68.167843 
L 328.049262 70.567745 
L 328.670387 77.037047 
L 329.096499 88.097465 
L 329.591853 140.164905 
L 331.075762 126.182867 
L 335.113776 72.654617 
L 335.921389 74.637145 
L 336.628575 78.706544 
L 337.253466 85.071501 
L 338.053642 87.262716 
L 338.918139 87.993121 
L 339.713845 90.393023 
L 340.910793 83.193317 
L 341.68258 86.114937 
L 342.028851 99.053539 
L 342.613068 127.852364 
L 343.179264 135.573788 
L 343.698985 144.442991 
L 344.51905 145.799457 
L 345.18086 151.43401 
L 345.543434 164.163925 
L 346.752494 156.651188 
L 347.829222 152.268758 
L 348.946481 167.81595 
L 349.796836 168.859385 
L 350.632202 170.215852 
L 351.396349 173.241815 
L 352.116325 177.206871 
L 352.671047 185.345669 
L 353.010874 198.492959 
L 353.60317 205.588321 
L 354.279389 210.805499 
L 354.496397 226.457034 
L 354.50189 311.330092 
L 355.186452 316.244674 
L 356.059826 316.359452 
L 356.980393 315.754259 
L 357.845148 316.328149 
L 363.205515 316.359452 
L 364.107177 316.255108 
L 365.885662 316.38032 
L 366.780037 316.338583 
L 367.7052 315.681219 
L 368.639447 314.836036 
L 369.453309 316.390755 
L 370.348907 316.30728 
L 371.244887 316.411624 
L 372.144736 316.328149 
L 373.935919 316.328149 
L 374.832857 316.359452 
L 374.832857 316.359452 
" style="fill:none;stroke:#d95f02;stroke-linecap:round;"/>
   </g>
  </g>
  <g id="text_26">
   <!-- TCP download - N streams w/ping -->
   <defs>
    <path d="M 64.40625 67.28125 
L 64.40625 56.890625 
Q 59.421875 61.53125 53.78125 63.8125 
Q 48.140625 66.109375 41.796875 66.109375 
Q 29.296875 66.109375 22.65625 58.46875 
Q 16.015625 50.828125 16.015625 36.375 
Q 16.015625 21.96875 22.65625 14.328125 
Q 29.296875 6.6875 41.796875 6.6875 
Q 48.140625 6.6875 53.78125 8.984375 
Q 59.421875 11.28125 64.40625 15.921875 
L 64.40625 5.609375 
Q 59.234375 2.09375 53.4375 0.328125 
Q 47.65625 -1.421875 41.21875 -1.421875 
Q 24.65625 -1.421875 15.125 8.703125 
Q 5.609375 18.84375 5.609375 36.375 
Q 5.609375 53.953125 15.125 64.078125 
Q 24.65625 74.21875 41.21875 74.21875 
Q 47.75 74.21875 53.53125 72.484375 
Q 59.328125 70.75 64.40625 67.28125 
z
" id="DejaVuSans-43"/>
    <path d="M 4.890625 31.390625 
L 31.203125 31.390625 
L 31.203125 23.390625 
L 4.890625 23.390625 
z
" id="DejaVuSans-2d"/>
    <path d="M 9.8125 72.90625 
L 23.09375 72.90625 
L 55.421875 11.921875 
L 55.421875 72.90625 
L 64.984375 72.90625 
L 64.984375 0 
L 51.703125 0 
L 19.390625 60.984375 
L 19.390625 0 
L 9.8125 0 
z
" id="DejaVuSans-4e"/>
    <path d="M 41.109375 46.296875 
Q 39.59375 47.171875 37.8125 47.578125 
Q 36.03125 48 33.890625 48 
Q 26.265625 48 22.1875 43.046875 
Q 18.109375 38.09375 18.109375 28.8125 
L 18.109375 0 
L 9.078125 0 
L 9.078125 54.6875 
L 18.109375 54.6875 
L 18.109375 46.1875 
Q 20.953125 51.171875 25.484375 53.578125 
Q 30.03125 56 36.53125 56 
Q 37.453125 56 38.578125 55.875 
Q 39.703125 55.765625 41.0625 55.515625 
z
" id="DejaVuSans-72"/>
    <path d="M 18.109375 8.203125 
L 18.109375 -20.796875 
L 9.078125 -20.796875 
L 9.078125 54.6875 
L 18.109375 54.6875 
L 18.109375 46.390625 
Q 20.953125 51.265625 25.265625 53.625 
Q 29.59375 56 35.59375 56 
Q 45.5625 56 51.78125 48.09375 
Q 58.015625 40.1875 58.015625 27.296875 
Q 58.015625 14.40625 51.78125 6.484375 
Q 45.5625 -1.421875 35.59375 -1.421875 
Q 29.59375 -1.421875 25.265625 0.953125 
Q 20.953125 3.328125 18.109375 8.203125 
z
M 48.6875 27.296875 
Q 48.6875 37.203125 44.609375 42.84375 
Q 40.53125 48.484375 33.40625 48.484375 
Q 26.265625 48.484375 22.1875 42.84375 
Q 18.109375 37.203125 18.109375 27.296875 
Q 18.109375 17.390625 22.1875 11.75 
Q 26.265625 6.109375 33.40625 6.109375 
Q 40.53125 6.109375 44.609375 11.75 
Q 48.6875 17.390625 48.6875 27.296875 
z
" id="DejaVuSans-70"/>
   </defs>
   <g transform="translate(138.886406 13.625812)scale(0.14 -0.14)">
    <use xlink:href="#DejaVuSans-54"/>
    <use x="61.005859" xlink:href="#DejaVuSans-43"/>
    <use x="130.830078" xlink:href="#DejaVuSans-50"/>
    <use x="191.132812" xlink:href="#DejaVuSans-20"/>
    <use x="222.919922" xlink:href="#DejaVuSans-64"/>
    <use x="286.396484" xlink:href="#DejaVuSans-6f"/>
    <use x="347.578125" xlink:href="#DejaVuSans-77"/>
    <use x="429.365234" xlink:href="#DejaVuSans-6e"/>
    <use x="492.744141" xlink:href="#DejaVuSans-6c"/>
    <use x="520.527344" xlink:href="#DejaVuSans-6f"/>
    <use x="581.708984" xlink:href="#DejaVuSans-61"/>
    <use x="642.988281" xlink:href="#DejaVuSans-64"/>
    <use x="706.464844" xlink:href="#DejaVuSans-20"/>
    <use x="738.251953" xlink:href="#DejaVuSans-2d"/>
    <use x="774.335938" xlink:href="#DejaVuSans-20"/>
    <use x="806.123047" xlink:href="#DejaVuSans-4e"/>
    <use x="880.927734" xlink:href="#DejaVuSans-20"/>
    <use x="912.714844" xlink:href="#DejaVuSans-73"/>
    <use x="964.814453" xlink:href="#DejaVuSans-74"/>
    <use x="1004.023438" xlink:href="#DejaVuSans-72"/>
    <use x="1045.105469" xlink:href="#DejaVuSans-65"/>
    <use x="1106.628906" xlink:href="#DejaVuSans-61"/>
    <use x="1167.908203" xlink:href="#DejaVuSans-6d"/>
    <use x="1265.320312" xlink:href="#DejaVuSans-73"/>
    <use x="1317.419922" xlink:href="#DejaVuSans-20"/>
    <use x="1349.207031" xlink:href="#DejaVuSans-77"/>
    <use x="1430.994141" xlink:href="#DejaVuSans-2f"/>
    <use x="1464.685547" xlink:href="#DejaVuSans-70"/>
    <use x="1528.162109" xlink:href="#DejaVuSans-69"/>
    <use x="1555.945312" xlink:href="#DejaVuSans-6e"/>
    <use x="1619.324219" xlink:href="#DejaVuSans-67"/>
   </g>
   <!-- Bandwidth and ping plot -->
   <defs>
    <path d="M 19.671875 34.8125 
L 19.671875 8.109375 
L 35.5 8.109375 
Q 43.453125 8.109375 47.28125 11.40625 
Q 51.125 14.703125 51.125 21.484375 
Q 51.125 28.328125 47.28125 31.5625 
Q 43.453125 34.8125 35.5 34.8125 
z
M 19.671875 64.796875 
L 19.671875 42.828125 
L 34.28125 42.828125 
Q 41.5 42.828125 45.03125 45.53125 
Q 48.578125 48.25 48.578125 53.8125 
Q 48.578125 59.328125 45.03125 62.0625 
Q 41.5 64.796875 34.28125 64.796875 
z
M 9.8125 72.90625 
L 35.015625 72.90625 
Q 46.296875 72.90625 52.390625 68.21875 
Q 58.5 63.53125 58.5 54.890625 
Q 58.5 48.1875 55.375 44.234375 
Q 52.25 40.28125 46.1875 39.3125 
Q 53.46875 37.75 57.5 32.78125 
Q 61.53125 27.828125 61.53125 20.40625 
Q 61.53125 10.640625 54.890625 5.3125 
Q 48.25 0 35.984375 0 
L 9.8125 0 
z
" id="DejaVuSans-42"/>
    <path d="M 54.890625 33.015625 
L 54.890625 0 
L 45.90625 0 
L 45.90625 32.71875 
Q 45.90625 40.484375 42.875 44.328125 
Q 39.84375 48.1875 33.796875 48.1875 
Q 26.515625 48.1875 22.3125 43.546875 
Q 18.109375 38.921875 18.109375 30.90625 
L 18.109375 0 
L 9.078125 0 
L 9.078125 75.984375 
L 18.109375 75.984375 
L 18.109375 46.1875 
Q 21.34375 51.125 25.703125 53.5625 
Q 30.078125 56 35.796875 56 
Q 45.21875 56 50.046875 50.171875 
Q 54.890625 44.34375 54.890625 33.015625 
z
" id="DejaVuSans-68"/>
   </defs>
   <g transform="translate(170.885156 29.30275)scale(0.14 -0.14)">
    <use xlink:href="#DejaVuSans-42"/>
    <use x="68.603516" xlink:href="#DejaVuSans-61"/>
    <use x="129.882812" xlink:href="#DejaVuSans-6e"/>
    <use x="193.261719" xlink:href="#DejaVuSans-64"/>
    <use x="256.738281" xlink:href="#DejaVuSans-77"/>
    <use x="338.525391" xlink:href="#DejaVuSans-69"/>
    <use x="366.308594" xlink:href="#DejaVuSans-64"/>
    <use x="429.785156" xlink:href="#DejaVuSans-74"/>
    <use x="468.994141" xlink:href="#DejaVuSans-68"/>
    <use x="532.373047" xlink:href="#DejaVuSans-20"/>
    <use x="564.160156" xlink:href="#DejaVuSans-61"/>
    <use x="625.439453" xlink:href="#DejaVuSans-6e"/>
    <use x="688.818359" xlink:href="#DejaVuSans-64"/>
    <use x="752.294922" xlink:href="#DejaVuSans-20"/>
    <use x="784.082031" xlink:href="#DejaVuSans-70"/>
    <use x="847.558594" xlink:href="#DejaVuSans-69"/>
    <use x="875.341797" xlink:href="#DejaVuSans-6e"/>
    <use x="938.720703" xlink:href="#DejaVuSans-67"/>
    <use x="1002.197266" xlink:href="#DejaVuSans-20"/>
    <use x="1033.984375" xlink:href="#DejaVuSans-70"/>
    <use x="1097.460938" xlink:href="#DejaVuSans-6c"/>
    <use x="1125.244141" xlink:href="#DejaVuSans-6f"/>
    <use x="1186.425781" xlink:href="#DejaVuSans-74"/>
   </g>
   <!-- coffeecat -->
   <defs>
    <path d="M 48.78125 52.59375 
L 48.78125 44.1875 
Q 44.96875 46.296875 41.140625 47.34375 
Q 37.3125 48.390625 33.40625 48.390625 
Q 24.65625 48.390625 19.8125 42.84375 
Q 14.984375 37.3125 14.984375 27.296875 
Q 14.984375 17.28125 19.8125 11.734375 
Q 24.65625 6.203125 33.40625 6.203125 
Q 37.3125 6.203125 41.140625 7.25 
Q 44.96875 8.296875 48.78125 10.40625 
L 48.78125 2.09375 
Q 45.015625 0.34375 40.984375 -0.53125 
Q 36.96875 -1.421875 32.421875 -1.421875 
Q 20.0625 -1.421875 12.78125 6.34375 
Q 5.515625 14.109375 5.515625 27.296875 
Q 5.515625 40.671875 12.859375 48.328125 
Q 20.21875 56 33.015625 56 
Q 37.15625 56 41.109375 55.140625 
Q 45.0625 54.296875 48.78125 52.59375 
z
" id="DejaVuSans-63"/>
    <path d="M 37.109375 75.984375 
L 37.109375 68.5 
L 28.515625 68.5 
Q 23.6875 68.5 21.796875 66.546875 
Q 19.921875 64.59375 19.921875 59.515625 
L 19.921875 54.6875 
L 34.71875 54.6875 
L 34.71875 47.703125 
L 19.921875 47.703125 
L 19.921875 0 
L 10.890625 0 
L 10.890625 47.703125 
L 2.296875 47.703125 
L 2.296875 54.6875 
L 10.890625 54.6875 
L 10.890625 58.5 
Q 10.890625 67.625 15.140625 71.796875 
Q 19.390625 75.984375 28.609375 75.984375 
z
" id="DejaVuSans-66"/>
   </defs>
   <g transform="translate(224.122344 44.979688)scale(0.14 -0.14)">
    <use xlink:href="#DejaVuSans-63"/>
    <use x="54.980469" xlink:href="#DejaVuSans-6f"/>
    <use x="116.162109" xlink:href="#DejaVuSans-66"/>
    <use x="151.367188" xlink:href="#DejaVuSans-66"/>
    <use x="186.572266" xlink:href="#DejaVuSans-65"/>
    <use x="248.095703" xlink:href="#DejaVuSans-65"/>
    <use x="309.619141" xlink:href="#DejaVuSans-63"/>
    <use x="364.599609" xlink:href="#DejaVuSans-61"/>
    <use x="425.878906" xlink:href="#DejaVuSans-74"/>
   </g>
  </g>
  <g id="text_27">
   <!-- Local/remote: daves-MacBook-Air-6.local/flent-fremont.bufferbloat.net - Time: 2019-08-02T16:58:04.594035 - Length/step: 60s/0.20s -->
   <defs>
    <path d="M 9.8125 72.90625 
L 19.671875 72.90625 
L 19.671875 8.296875 
L 55.171875 8.296875 
L 55.171875 0 
L 9.8125 0 
z
" id="DejaVuSans-4c"/>
    <path d="M 11.71875 12.40625 
L 22.015625 12.40625 
L 22.015625 0 
L 11.71875 0 
z
M 11.71875 51.703125 
L 22.015625 51.703125 
L 22.015625 39.3125 
L 11.71875 39.3125 
z
" id="DejaVuSans-3a"/>
    <path d="M 2.984375 54.6875 
L 12.5 54.6875 
L 29.59375 8.796875 
L 46.6875 54.6875 
L 56.203125 54.6875 
L 35.6875 0 
L 23.484375 0 
z
" id="DejaVuSans-76"/>
    <path d="M 9.078125 75.984375 
L 18.109375 75.984375 
L 18.109375 31.109375 
L 44.921875 54.6875 
L 56.390625 54.6875 
L 27.390625 29.109375 
L 57.625 0 
L 45.90625 0 
L 18.109375 26.703125 
L 18.109375 0 
L 9.078125 0 
z
" id="DejaVuSans-6b"/>
    <path d="M 34.1875 63.1875 
L 20.796875 26.90625 
L 47.609375 26.90625 
z
M 28.609375 72.90625 
L 39.796875 72.90625 
L 67.578125 0 
L 57.328125 0 
L 50.6875 18.703125 
L 17.828125 18.703125 
L 11.1875 0 
L 0.78125 0 
z
" id="DejaVuSans-41"/>
    <path d="M 10.6875 12.40625 
L 21 12.40625 
L 21 0 
L 10.6875 0 
z
" id="DejaVuSans-2e"/>
    <path d="M 8.5 21.578125 
L 8.5 54.6875 
L 17.484375 54.6875 
L 17.484375 21.921875 
Q 17.484375 14.15625 20.5 10.265625 
Q 23.53125 6.390625 29.59375 6.390625 
Q 36.859375 6.390625 41.078125 11.03125 
Q 45.3125 15.671875 45.3125 23.6875 
L 45.3125 54.6875 
L 54.296875 54.6875 
L 54.296875 0 
L 45.3125 0 
L 45.3125 8.40625 
Q 42.046875 3.421875 37.71875 1 
Q 33.40625 -1.421875 27.6875 -1.421875 
Q 18.265625 -1.421875 13.375 4.4375 
Q 8.5 10.296875 8.5 21.578125 
z
M 31.109375 56 
z
" id="DejaVuSans-75"/>
    <path d="M 10.984375 1.515625 
L 10.984375 10.5 
Q 14.703125 8.734375 18.5 7.8125 
Q 22.3125 6.890625 25.984375 6.890625 
Q 35.75 6.890625 40.890625 13.453125 
Q 46.046875 20.015625 46.78125 33.40625 
Q 43.953125 29.203125 39.59375 26.953125 
Q 35.25 24.703125 29.984375 24.703125 
Q 19.046875 24.703125 12.671875 31.3125 
Q 6.296875 37.9375 6.296875 49.421875 
Q 6.296875 60.640625 12.9375 67.421875 
Q 19.578125 74.21875 30.609375 74.21875 
Q 43.265625 74.21875 49.921875 64.515625 
Q 56.59375 54.828125 56.59375 36.375 
Q 56.59375 19.140625 48.40625 8.859375 
Q 40.234375 -1.421875 26.421875 -1.421875 
Q 22.703125 -1.421875 18.890625 -0.6875 
Q 15.09375 0.046875 10.984375 1.515625 
z
M 30.609375 32.421875 
Q 37.25 32.421875 41.125 36.953125 
Q 45.015625 41.5 45.015625 49.421875 
Q 45.015625 57.28125 41.125 61.84375 
Q 37.25 66.40625 30.609375 66.40625 
Q 23.96875 66.40625 20.09375 61.84375 
Q 16.21875 57.28125 16.21875 49.421875 
Q 16.21875 41.5 20.09375 36.953125 
Q 23.96875 32.421875 30.609375 32.421875 
z
" id="DejaVuSans-39"/>
    <path d="M 31.78125 34.625 
Q 24.75 34.625 20.71875 30.859375 
Q 16.703125 27.09375 16.703125 20.515625 
Q 16.703125 13.921875 20.71875 10.15625 
Q 24.75 6.390625 31.78125 6.390625 
Q 38.8125 6.390625 42.859375 10.171875 
Q 46.921875 13.96875 46.921875 20.515625 
Q 46.921875 27.09375 42.890625 30.859375 
Q 38.875 34.625 31.78125 34.625 
z
M 21.921875 38.8125 
Q 15.578125 40.375 12.03125 44.71875 
Q 8.5 49.078125 8.5 55.328125 
Q 8.5 64.0625 14.71875 69.140625 
Q 20.953125 74.21875 31.78125 74.21875 
Q 42.671875 74.21875 48.875 69.140625 
Q 55.078125 64.0625 55.078125 55.328125 
Q 55.078125 49.078125 51.53125 44.71875 
Q 48 40.375 41.703125 38.8125 
Q 48.828125 37.15625 52.796875 32.3125 
Q 56.78125 27.484375 56.78125 20.515625 
Q 56.78125 9.90625 50.3125 4.234375 
Q 43.84375 -1.421875 31.78125 -1.421875 
Q 19.734375 -1.421875 13.25 4.234375 
Q 6.78125 9.90625 6.78125 20.515625 
Q 6.78125 27.484375 10.78125 32.3125 
Q 14.796875 37.15625 21.921875 38.8125 
z
M 18.3125 54.390625 
Q 18.3125 48.734375 21.84375 45.5625 
Q 25.390625 42.390625 31.78125 42.390625 
Q 38.140625 42.390625 41.71875 45.5625 
Q 45.3125 48.734375 45.3125 54.390625 
Q 45.3125 60.0625 41.71875 63.234375 
Q 38.140625 66.40625 31.78125 66.40625 
Q 25.390625 66.40625 21.84375 63.234375 
Q 18.3125 60.0625 18.3125 54.390625 
z
" id="DejaVuSans-38"/>
   </defs>
   <g transform="translate(-10.861875 353.90825)scale(0.08 -0.08)">
    <use xlink:href="#DejaVuSans-4c"/>
    <use x="55.697266" xlink:href="#DejaVuSans-6f"/>
    <use x="116.878906" xlink:href="#DejaVuSans-63"/>
    <use x="171.859375" xlink:href="#DejaVuSans-61"/>
    <use x="233.138672" xlink:href="#DejaVuSans-6c"/>
    <use x="260.921875" xlink:href="#DejaVuSans-2f"/>
    <use x="294.613281" xlink:href="#DejaVuSans-72"/>
    <use x="335.695312" xlink:href="#DejaVuSans-65"/>
    <use x="397.21875" xlink:href="#DejaVuSans-6d"/>
    <use x="494.630859" xlink:href="#DejaVuSans-6f"/>
    <use x="555.8125" xlink:href="#DejaVuSans-74"/>
    <use x="595.021484" xlink:href="#DejaVuSans-65"/>
    <use x="656.544922" xlink:href="#DejaVuSans-3a"/>
    <use x="690.236328" xlink:href="#DejaVuSans-20"/>
    <use x="722.023438" xlink:href="#DejaVuSans-64"/>
    <use x="785.5" xlink:href="#DejaVuSans-61"/>
    <use x="846.779297" xlink:href="#DejaVuSans-76"/>
    <use x="905.958984" xlink:href="#DejaVuSans-65"/>
    <use x="967.482422" xlink:href="#DejaVuSans-73"/>
    <use x="1019.582031" xlink:href="#DejaVuSans-2d"/>
    <use x="1055.666016" xlink:href="#DejaVuSans-4d"/>
    <use x="1141.945312" xlink:href="#DejaVuSans-61"/>
    <use x="1203.224609" xlink:href="#DejaVuSans-63"/>
    <use x="1258.205078" xlink:href="#DejaVuSans-42"/>
    <use x="1326.808594" xlink:href="#DejaVuSans-6f"/>
    <use x="1387.990234" xlink:href="#DejaVuSans-6f"/>
    <use x="1449.171875" xlink:href="#DejaVuSans-6b"/>
    <use x="1507.082031" xlink:href="#DejaVuSans-2d"/>
    <use x="1543.134766" xlink:href="#DejaVuSans-41"/>
    <use x="1611.542969" xlink:href="#DejaVuSans-69"/>
    <use x="1639.326172" xlink:href="#DejaVuSans-72"/>
    <use x="1680.345703" xlink:href="#DejaVuSans-2d"/>
    <use x="1716.429688" xlink:href="#DejaVuSans-36"/>
    <use x="1780.052734" xlink:href="#DejaVuSans-2e"/>
    <use x="1811.839844" xlink:href="#DejaVuSans-6c"/>
    <use x="1839.623047" xlink:href="#DejaVuSans-6f"/>
    <use x="1900.804688" xlink:href="#DejaVuSans-63"/>
    <use x="1955.785156" xlink:href="#DejaVuSans-61"/>
    <use x="2017.064453" xlink:href="#DejaVuSans-6c"/>
    <use x="2044.847656" xlink:href="#DejaVuSans-2f"/>
    <use x="2078.539062" xlink:href="#DejaVuSans-66"/>
    <use x="2113.744141" xlink:href="#DejaVuSans-6c"/>
    <use x="2141.527344" xlink:href="#DejaVuSans-65"/>
    <use x="2203.050781" xlink:href="#DejaVuSans-6e"/>
    <use x="2266.429688" xlink:href="#DejaVuSans-74"/>
    <use x="2305.638672" xlink:href="#DejaVuSans-2d"/>
    <use x="2341.722656" xlink:href="#DejaVuSans-66"/>
    <use x="2376.927734" xlink:href="#DejaVuSans-72"/>
    <use x="2418.009766" xlink:href="#DejaVuSans-65"/>
    <use x="2479.533203" xlink:href="#DejaVuSans-6d"/>
    <use x="2576.945312" xlink:href="#DejaVuSans-6f"/>
    <use x="2638.126953" xlink:href="#DejaVuSans-6e"/>
    <use x="2701.505859" xlink:href="#DejaVuSans-74"/>
    <use x="2740.714844" xlink:href="#DejaVuSans-2e"/>
    <use x="2772.501953" xlink:href="#DejaVuSans-62"/>
    <use x="2835.978516" xlink:href="#DejaVuSans-75"/>
    <use x="2899.357422" xlink:href="#DejaVuSans-66"/>
    <use x="2934.5625" xlink:href="#DejaVuSans-66"/>
    <use x="2969.767578" xlink:href="#DejaVuSans-65"/>
    <use x="3031.291016" xlink:href="#DejaVuSans-72"/>
    <use x="3072.404297" xlink:href="#DejaVuSans-62"/>
    <use x="3135.880859" xlink:href="#DejaVuSans-6c"/>
    <use x="3163.664062" xlink:href="#DejaVuSans-6f"/>
    <use x="3224.845703" xlink:href="#DejaVuSans-61"/>
    <use x="3286.125" xlink:href="#DejaVuSans-74"/>
    <use x="3325.333984" xlink:href="#DejaVuSans-2e"/>
    <use x="3357.121094" xlink:href="#DejaVuSans-6e"/>
    <use x="3420.5" xlink:href="#DejaVuSans-65"/>
    <use x="3482.023438" xlink:href="#DejaVuSans-74"/>
    <use x="3521.232422" xlink:href="#DejaVuSans-20"/>
    <use x="3553.019531" xlink:href="#DejaVuSans-2d"/>
    <use x="3589.103516" xlink:href="#DejaVuSans-20"/>
    <use x="3620.890625" xlink:href="#DejaVuSans-54"/>
    <use x="3681.927734" xlink:href="#DejaVuSans-69"/>
    <use x="3709.710938" xlink:href="#DejaVuSans-6d"/>
    <use x="3807.123047" xlink:href="#DejaVuSans-65"/>
    <use x="3868.646484" xlink:href="#DejaVuSans-3a"/>
    <use x="3902.337891" xlink:href="#DejaVuSans-20"/>
    <use x="3934.125" xlink:href="#DejaVuSans-32"/>
    <use x="3997.748047" xlink:href="#DejaVuSans-30"/>
    <use x="4061.371094" xlink:href="#DejaVuSans-31"/>
    <use x="4124.994141" xlink:href="#DejaVuSans-39"/>
    <use x="4188.617188" xlink:href="#DejaVuSans-2d"/>
    <use x="4224.701172" xlink:href="#DejaVuSans-30"/>
    <use x="4288.324219" xlink:href="#DejaVuSans-38"/>
    <use x="4351.947266" xlink:href="#DejaVuSans-2d"/>
    <use x="4388.03125" xlink:href="#DejaVuSans-30"/>
    <use x="4451.654297" xlink:href="#DejaVuSans-32"/>
    <use x="4515.277344" xlink:href="#DejaVuSans-54"/>
    <use x="4576.361328" xlink:href="#DejaVuSans-31"/>
    <use x="4639.984375" xlink:href="#DejaVuSans-36"/>
    <use x="4703.607422" xlink:href="#DejaVuSans-3a"/>
    <use x="4737.298828" xlink:href="#DejaVuSans-35"/>
    <use x="4800.921875" xlink:href="#DejaVuSans-38"/>
    <use x="4864.544922" xlink:href="#DejaVuSans-3a"/>
    <use x="4898.236328" xlink:href="#DejaVuSans-30"/>
    <use x="4961.859375" xlink:href="#DejaVuSans-34"/>
    <use x="5025.482422" xlink:href="#DejaVuSans-2e"/>
    <use x="5057.269531" xlink:href="#DejaVuSans-35"/>
    <use x="5120.892578" xlink:href="#DejaVuSans-39"/>
    <use x="5184.515625" xlink:href="#DejaVuSans-34"/>
    <use x="5248.138672" xlink:href="#DejaVuSans-30"/>
    <use x="5311.761719" xlink:href="#DejaVuSans-33"/>
    <use x="5375.384766" xlink:href="#DejaVuSans-35"/>
    <use x="5439.007812" xlink:href="#DejaVuSans-20"/>
    <use x="5470.794922" xlink:href="#DejaVuSans-2d"/>
    <use x="5506.878906" xlink:href="#DejaVuSans-20"/>
    <use x="5538.666016" xlink:href="#DejaVuSans-4c"/>
    <use x="5594.363281" xlink:href="#DejaVuSans-65"/>
    <use x="5655.886719" xlink:href="#DejaVuSans-6e"/>
    <use x="5719.265625" xlink:href="#DejaVuSans-67"/>
    <use x="5782.742188" xlink:href="#DejaVuSans-74"/>
    <use x="5821.951172" xlink:href="#DejaVuSans-68"/>
    <use x="5885.330078" xlink:href="#DejaVuSans-2f"/>
    <use x="5919.021484" xlink:href="#DejaVuSans-73"/>
    <use x="5971.121094" xlink:href="#DejaVuSans-74"/>
    <use x="6010.330078" xlink:href="#DejaVuSans-65"/>
    <use x="6071.853516" xlink:href="#DejaVuSans-70"/>
    <use x="6135.330078" xlink:href="#DejaVuSans-3a"/>
    <use x="6169.021484" xlink:href="#DejaVuSans-20"/>
    <use x="6200.808594" xlink:href="#DejaVuSans-36"/>
    <use x="6264.431641" xlink:href="#DejaVuSans-30"/>
    <use x="6328.054688" xlink:href="#DejaVuSans-73"/>
    <use x="6380.154297" xlink:href="#DejaVuSans-2f"/>
    <use x="6413.845703" xlink:href="#DejaVuSans-30"/>
    <use x="6477.46875" xlink:href="#DejaVuSans-2e"/>
    <use x="6509.255859" xlink:href="#DejaVuSans-32"/>
    <use x="6572.878906" xlink:href="#DejaVuSans-30"/>
    <use x="6636.501953" xlink:href="#DejaVuSans-73"/>
   </g>
  </g>
 </g>
 <defs>
  <clipPath id="p37ac8c4415">
   <rect height="276.0912" width="326.196" x="64.17" y="43.0272"/>
  </clipPath>
 </defs>
</svg>
