<?xml version="1.0" encoding="utf-8" standalone="no"?>
<!DOCTYPE svg PUBLIC "-//W3C//DTD SVG 1.1//EN"
  "http://www.w3.org/Graphics/SVG/1.1/DTD/svg11.dtd">
<!-- Created with matplotlib (http://matplotlib.org/) -->
<svg height="358.56pt" version="1.1" viewBox="0 0 513.36 358.56" width="513.36pt" xmlns="http://www.w3.org/2000/svg" xmlns:xlink="http://www.w3.org/1999/xlink">
 <defs>
  <style type="text/css">
*{stroke-linecap:butt;stroke-linejoin:round;}
  </style>
 </defs>
 <g id="figure_1">
  <g id="patch_1">
   <path d="M 0 358.56 
L 513.36 358.56 
L 513.36 0 
L 0 0 
z
" style="fill:#ffffff;"/>
  </g>
  <g id="axes_1">
   <g id="patch_2">
    <path d="M 64.17 319.1184 
L 392.256 319.1184 
L 392.256 43.0272 
L 64.17 43.0272 
z
" style="fill:#e6e6e6;"/>
   </g>
   <g id="matplotlib.axis_1">
    <g id="xtick_1">
     <g id="line2d_1"/>
     <g id="text_1">
      <!-- 0 -->
      <defs>
       <path d="M 31.78125 66.40625 
Q 24.171875 66.40625 20.328125 58.90625 
Q 16.5 51.421875 16.5 36.375 
Q 16.5 21.390625 20.328125 13.890625 
Q 24.171875 6.390625 31.78125 6.390625 
Q 39.453125 6.390625 43.28125 13.890625 
Q 47.125 21.390625 47.125 36.375 
Q 47.125 51.421875 43.28125 58.90625 
Q 39.453125 66.40625 31.78125 66.40625 
z
M 31.78125 74.21875 
Q 44.046875 74.21875 50.515625 64.515625 
Q 56.984375 54.828125 56.984375 36.375 
Q 56.984375 17.96875 50.515625 8.265625 
Q 44.046875 -1.421875 31.78125 -1.421875 
Q 19.53125 -1.421875 13.0625 8.265625 
Q 6.59375 17.96875 6.59375 36.375 
Q 6.59375 54.828125 13.0625 64.515625 
Q 19.53125 74.21875 31.78125 74.21875 
z
" id="DejaVuSans-30"/>
      </defs>
      <g transform="translate(60.98875 330.216838)scale(0.1 -0.1)">
       <use xlink:href="#DejaVuSans-30"/>
      </g>
     </g>
    </g>
    <g id="xtick_2">
     <g id="line2d_2"/>
     <g id="text_2">
      <!-- 10 -->
      <defs>
       <path d="M 12.40625 8.296875 
L 28.515625 8.296875 
L 28.515625 63.921875 
L 10.984375 60.40625 
L 10.984375 69.390625 
L 28.421875 72.90625 
L 38.28125 72.90625 
L 38.28125 8.296875 
L 54.390625 8.296875 
L 54.390625 0 
L 12.40625 0 
z
" id="DejaVuSans-31"/>
      </defs>
      <g transform="translate(101.918029 330.216838)scale(0.1 -0.1)">
       <use xlink:href="#DejaVuSans-31"/>
       <use x="63.623047" xlink:href="#DejaVuSans-30"/>
      </g>
     </g>
    </g>
    <g id="xtick_3">
     <g id="line2d_3"/>
     <g id="text_3">
      <!-- 20 -->
      <defs>
       <path d="M 19.1875 8.296875 
L 53.609375 8.296875 
L 53.609375 0 
L 7.328125 0 
L 7.328125 8.296875 
Q 12.9375 14.109375 22.625 23.890625 
Q 32.328125 33.6875 34.8125 36.53125 
Q 39.546875 41.84375 41.421875 45.53125 
Q 43.3125 49.21875 43.3125 52.78125 
Q 43.3125 58.59375 39.234375 62.25 
Q 35.15625 65.921875 28.609375 65.921875 
Q 23.96875 65.921875 18.8125 64.3125 
Q 13.671875 62.703125 7.8125 59.421875 
L 7.8125 69.390625 
Q 13.765625 71.78125 18.9375 73 
Q 24.125 74.21875 28.421875 74.21875 
Q 39.75 74.21875 46.484375 68.546875 
Q 53.21875 62.890625 53.21875 53.421875 
Q 53.21875 48.921875 51.53125 44.890625 
Q 49.859375 40.875 45.40625 35.40625 
Q 44.1875 33.984375 37.640625 27.21875 
Q 31.109375 20.453125 19.1875 8.296875 
z
" id="DejaVuSans-32"/>
      </defs>
      <g transform="translate(146.028557 330.216838)scale(0.1 -0.1)">
       <use xlink:href="#DejaVuSans-32"/>
       <use x="63.623047" xlink:href="#DejaVuSans-30"/>
      </g>
     </g>
    </g>
    <g id="xtick_4">
     <g id="line2d_4"/>
     <g id="text_4">
      <!-- 30 -->
      <defs>
       <path d="M 40.578125 39.3125 
Q 47.65625 37.796875 51.625 33 
Q 55.609375 28.21875 55.609375 21.1875 
Q 55.609375 10.40625 48.1875 4.484375 
Q 40.765625 -1.421875 27.09375 -1.421875 
Q 22.515625 -1.421875 17.65625 -0.515625 
Q 12.796875 0.390625 7.625 2.203125 
L 7.625 11.71875 
Q 11.71875 9.328125 16.59375 8.109375 
Q 21.484375 6.890625 26.8125 6.890625 
Q 36.078125 6.890625 40.9375 10.546875 
Q 45.796875 14.203125 45.796875 21.1875 
Q 45.796875 27.640625 41.28125 31.265625 
Q 36.765625 34.90625 28.71875 34.90625 
L 20.21875 34.90625 
L 20.21875 43.015625 
L 29.109375 43.015625 
Q 36.375 43.015625 40.234375 45.921875 
Q 44.09375 48.828125 44.09375 54.296875 
Q 44.09375 59.90625 40.109375 62.90625 
Q 36.140625 65.921875 28.71875 65.921875 
Q 24.65625 65.921875 20.015625 65.03125 
Q 15.375 64.15625 9.8125 62.3125 
L 9.8125 71.09375 
Q 15.4375 72.65625 20.34375 73.4375 
Q 25.25 74.21875 29.59375 74.21875 
Q 40.828125 74.21875 47.359375 69.109375 
Q 53.90625 64.015625 53.90625 55.328125 
Q 53.90625 49.265625 50.4375 45.09375 
Q 46.96875 40.921875 40.578125 39.3125 
z
" id="DejaVuSans-33"/>
      </defs>
      <g transform="translate(190.139086 330.216838)scale(0.1 -0.1)">
       <use xlink:href="#DejaVuSans-33"/>
       <use x="63.623047" xlink:href="#DejaVuSans-30"/>
      </g>
     </g>
    </g>
    <g id="xtick_5">
     <g id="line2d_5"/>
     <g id="text_5">
      <!-- 40 -->
      <defs>
       <path d="M 37.796875 64.3125 
L 12.890625 25.390625 
L 37.796875 25.390625 
z
M 35.203125 72.90625 
L 47.609375 72.90625 
L 47.609375 25.390625 
L 58.015625 25.390625 
L 58.015625 17.1875 
L 47.609375 17.1875 
L 47.609375 0 
L 37.796875 0 
L 37.796875 17.1875 
L 4.890625 17.1875 
L 4.890625 26.703125 
z
" id="DejaVuSans-34"/>
      </defs>
      <g transform="translate(234.249614 330.216838)scale(0.1 -0.1)">
       <use xlink:href="#DejaVuSans-34"/>
       <use x="63.623047" xlink:href="#DejaVuSans-30"/>
      </g>
     </g>
    </g>
    <g id="xtick_6">
     <g id="line2d_6"/>
     <g id="text_6">
      <!-- 50 -->
      <defs>
       <path d="M 10.796875 72.90625 
L 49.515625 72.90625 
L 49.515625 64.59375 
L 19.828125 64.59375 
L 19.828125 46.734375 
Q 21.96875 47.46875 24.109375 47.828125 
Q 26.265625 48.1875 28.421875 48.1875 
Q 40.625 48.1875 47.75 41.5 
Q 54.890625 34.8125 54.890625 23.390625 
Q 54.890625 11.625 47.5625 5.09375 
Q 40.234375 -1.421875 26.90625 -1.421875 
Q 22.3125 -1.421875 17.546875 -0.640625 
Q 12.796875 0.140625 7.71875 1.703125 
L 7.71875 11.625 
Q 12.109375 9.234375 16.796875 8.0625 
Q 21.484375 6.890625 26.703125 6.890625 
Q 35.15625 6.890625 40.078125 11.328125 
Q 45.015625 15.765625 45.015625 23.390625 
Q 45.015625 31 40.078125 35.4375 
Q 35.15625 39.890625 26.703125 39.890625 
Q 22.75 39.890625 18.8125 39.015625 
Q 14.890625 38.140625 10.796875 36.28125 
z
" id="DejaVuSans-35"/>
      </defs>
      <g transform="translate(278.360143 330.216838)scale(0.1 -0.1)">
       <use xlink:href="#DejaVuSans-35"/>
       <use x="63.623047" xlink:href="#DejaVuSans-30"/>
      </g>
     </g>
    </g>
    <g id="xtick_7">
     <g id="line2d_7"/>
     <g id="text_7">
      <!-- 60 -->
      <defs>
       <path d="M 33.015625 40.375 
Q 26.375 40.375 22.484375 35.828125 
Q 18.609375 31.296875 18.609375 23.390625 
Q 18.609375 15.53125 22.484375 10.953125 
Q 26.375 6.390625 33.015625 6.390625 
Q 39.65625 6.390625 43.53125 10.953125 
Q 47.40625 15.53125 47.40625 23.390625 
Q 47.40625 31.296875 43.53125 35.828125 
Q 39.65625 40.375 33.015625 40.375 
z
M 52.59375 71.296875 
L 52.59375 62.3125 
Q 48.875 64.0625 45.09375 64.984375 
Q 41.3125 65.921875 37.59375 65.921875 
Q 27.828125 65.921875 22.671875 59.328125 
Q 17.53125 52.734375 16.796875 39.40625 
Q 19.671875 43.65625 24.015625 45.921875 
Q 28.375 48.1875 33.59375 48.1875 
Q 44.578125 48.1875 50.953125 41.515625 
Q 57.328125 34.859375 57.328125 23.390625 
Q 57.328125 12.15625 50.6875 5.359375 
Q 44.046875 -1.421875 33.015625 -1.421875 
Q 20.359375 -1.421875 13.671875 8.265625 
Q 6.984375 17.96875 6.984375 36.375 
Q 6.984375 53.65625 15.1875 63.9375 
Q 23.390625 74.21875 37.203125 74.21875 
Q 40.921875 74.21875 44.703125 73.484375 
Q 48.484375 72.75 52.59375 71.296875 
z
" id="DejaVuSans-36"/>
      </defs>
      <g transform="translate(322.470671 330.216838)scale(0.1 -0.1)">
       <use xlink:href="#DejaVuSans-36"/>
       <use x="63.623047" xlink:href="#DejaVuSans-30"/>
      </g>
     </g>
    </g>
    <g id="xtick_8">
     <g id="line2d_8"/>
     <g id="text_8">
      <!-- 70 -->
      <defs>
       <path d="M 8.203125 72.90625 
L 55.078125 72.90625 
L 55.078125 68.703125 
L 28.609375 0 
L 18.3125 0 
L 43.21875 64.59375 
L 8.203125 64.59375 
z
" id="DejaVuSans-37"/>
      </defs>
      <g transform="translate(366.5812 330.216838)scale(0.1 -0.1)">
       <use xlink:href="#DejaVuSans-37"/>
       <use x="63.623047" xlink:href="#DejaVuSans-30"/>
      </g>
     </g>
    </g>
    <g id="xtick_9">
     <g id="line2d_9"/>
    </g>
    <g id="xtick_10">
     <g id="line2d_10"/>
    </g>
    <g id="xtick_11">
     <g id="line2d_11"/>
    </g>
    <g id="xtick_12">
     <g id="line2d_12"/>
    </g>
    <g id="xtick_13">
     <g id="line2d_13"/>
    </g>
    <g id="xtick_14">
     <g id="line2d_14"/>
    </g>
    <g id="xtick_15">
     <g id="line2d_15"/>
    </g>
    <g id="xtick_16">
     <g id="line2d_16"/>
    </g>
    <g id="xtick_17">
     <g id="line2d_17"/>
    </g>
    <g id="xtick_18">
     <g id="line2d_18"/>
    </g>
    <g id="xtick_19">
     <g id="line2d_19"/>
    </g>
    <g id="xtick_20">
     <g id="line2d_20"/>
    </g>
    <g id="xtick_21">
     <g id="line2d_21"/>
    </g>
    <g id="xtick_22">
     <g id="line2d_22"/>
    </g>
    <g id="xtick_23">
     <g id="line2d_23"/>
    </g>
    <g id="xtick_24">
     <g id="line2d_24"/>
    </g>
    <g id="xtick_25">
     <g id="line2d_25"/>
    </g>
    <g id="xtick_26">
     <g id="line2d_26"/>
    </g>
    <g id="xtick_27">
     <g id="line2d_27"/>
    </g>
    <g id="xtick_28">
     <g id="line2d_28"/>
    </g>
    <g id="xtick_29">
     <g id="line2d_29"/>
    </g>
    <g id="xtick_30">
     <g id="line2d_30"/>
    </g>
    <g id="xtick_31">
     <g id="line2d_31"/>
    </g>
    <g id="xtick_32">
     <g id="line2d_32"/>
    </g>
    <g id="xtick_33">
     <g id="line2d_33"/>
    </g>
    <g id="xtick_34">
     <g id="line2d_34"/>
    </g>
    <g id="xtick_35">
     <g id="line2d_35"/>
    </g>
    <g id="xtick_36">
     <g id="line2d_36"/>
    </g>
    <g id="xtick_37">
     <g id="line2d_37"/>
    </g>
    <g id="xtick_38">
     <g id="line2d_38"/>
    </g>
    <g id="text_9">
     <!-- Time (s) -->
     <defs>
      <path d="M -0.296875 72.90625 
L 61.375 72.90625 
L 61.375 64.59375 
L 35.5 64.59375 
L 35.5 0 
L 25.59375 0 
L 25.59375 64.59375 
L -0.296875 64.59375 
z
" id="DejaVuSans-54"/>
      <path d="M 9.421875 54.6875 
L 18.40625 54.6875 
L 18.40625 0 
L 9.421875 0 
z
M 9.421875 75.984375 
L 18.40625 75.984375 
L 18.40625 64.59375 
L 9.421875 64.59375 
z
" id="DejaVuSans-69"/>
      <path d="M 52 44.1875 
Q 55.375 50.25 60.0625 53.125 
Q 64.75 56 71.09375 56 
Q 79.640625 56 84.28125 50.015625 
Q 88.921875 44.046875 88.921875 33.015625 
L 88.921875 0 
L 79.890625 0 
L 79.890625 32.71875 
Q 79.890625 40.578125 77.09375 44.375 
Q 74.3125 48.1875 68.609375 48.1875 
Q 61.625 48.1875 57.5625 43.546875 
Q 53.515625 38.921875 53.515625 30.90625 
L 53.515625 0 
L 44.484375 0 
L 44.484375 32.71875 
Q 44.484375 40.625 41.703125 44.40625 
Q 38.921875 48.1875 33.109375 48.1875 
Q 26.21875 48.1875 22.15625 43.53125 
Q 18.109375 38.875 18.109375 30.90625 
L 18.109375 0 
L 9.078125 0 
L 9.078125 54.6875 
L 18.109375 54.6875 
L 18.109375 46.1875 
Q 21.1875 51.21875 25.484375 53.609375 
Q 29.78125 56 35.6875 56 
Q 41.65625 56 45.828125 52.96875 
Q 50 49.953125 52 44.1875 
z
" id="DejaVuSans-6d"/>
      <path d="M 56.203125 29.59375 
L 56.203125 25.203125 
L 14.890625 25.203125 
Q 15.484375 15.921875 20.484375 11.0625 
Q 25.484375 6.203125 34.421875 6.203125 
Q 39.59375 6.203125 44.453125 7.46875 
Q 49.3125 8.734375 54.109375 11.28125 
L 54.109375 2.78125 
Q 49.265625 0.734375 44.1875 -0.34375 
Q 39.109375 -1.421875 33.890625 -1.421875 
Q 20.796875 -1.421875 13.15625 6.1875 
Q 5.515625 13.8125 5.515625 26.8125 
Q 5.515625 40.234375 12.765625 48.109375 
Q 20.015625 56 32.328125 56 
Q 43.359375 56 49.78125 48.890625 
Q 56.203125 41.796875 56.203125 29.59375 
z
M 47.21875 32.234375 
Q 47.125 39.59375 43.09375 43.984375 
Q 39.0625 48.390625 32.421875 48.390625 
Q 24.90625 48.390625 20.390625 44.140625 
Q 15.875 39.890625 15.1875 32.171875 
z
" id="DejaVuSans-65"/>
      <path id="DejaVuSans-20"/>
      <path d="M 31 75.875 
Q 24.46875 64.65625 21.28125 53.65625 
Q 18.109375 42.671875 18.109375 31.390625 
Q 18.109375 20.125 21.3125 9.0625 
Q 24.515625 -2 31 -13.1875 
L 23.1875 -13.1875 
Q 15.875 -1.703125 12.234375 9.375 
Q 8.59375 20.453125 8.59375 31.390625 
Q 8.59375 42.28125 12.203125 53.3125 
Q 15.828125 64.359375 23.1875 75.875 
z
" id="DejaVuSans-28"/>
      <path d="M 44.28125 53.078125 
L 44.28125 44.578125 
Q 40.484375 46.53125 36.375 47.5 
Q 32.28125 48.484375 27.875 48.484375 
Q 21.1875 48.484375 17.84375 46.4375 
Q 14.5 44.390625 14.5 40.28125 
Q 14.5 37.15625 16.890625 35.375 
Q 19.28125 33.59375 26.515625 31.984375 
L 29.59375 31.296875 
Q 39.15625 29.25 43.1875 25.515625 
Q 47.21875 21.78125 47.21875 15.09375 
Q 47.21875 7.46875 41.1875 3.015625 
Q 35.15625 -1.421875 24.609375 -1.421875 
Q 20.21875 -1.421875 15.453125 -0.5625 
Q 10.6875 0.296875 5.421875 2 
L 5.421875 11.28125 
Q 10.40625 8.6875 15.234375 7.390625 
Q 20.0625 6.109375 24.8125 6.109375 
Q 31.15625 6.109375 34.5625 8.28125 
Q 37.984375 10.453125 37.984375 14.40625 
Q 37.984375 18.0625 35.515625 20.015625 
Q 33.0625 21.96875 24.703125 23.78125 
L 21.578125 24.515625 
Q 13.234375 26.265625 9.515625 29.90625 
Q 5.8125 33.546875 5.8125 39.890625 
Q 5.8125 47.609375 11.28125 51.796875 
Q 16.75 56 26.8125 56 
Q 31.78125 56 36.171875 55.265625 
Q 40.578125 54.546875 44.28125 53.078125 
z
" id="DejaVuSans-73"/>
      <path d="M 8.015625 75.875 
L 15.828125 75.875 
Q 23.140625 64.359375 26.78125 53.3125 
Q 30.421875 42.28125 30.421875 31.390625 
Q 30.421875 20.453125 26.78125 9.375 
Q 23.140625 -1.703125 15.828125 -13.1875 
L 8.015625 -13.1875 
Q 14.5 -2 17.703125 9.0625 
Q 20.90625 20.125 20.90625 31.390625 
Q 20.90625 42.671875 17.703125 53.65625 
Q 14.5 64.65625 8.015625 75.875 
z
" id="DejaVuSans-29"/>
     </defs>
     <g transform="translate(207.730188 343.894963)scale(0.1 -0.1)">
      <use xlink:href="#DejaVuSans-54"/>
      <use x="61.037109" xlink:href="#DejaVuSans-69"/>
      <use x="88.820312" xlink:href="#DejaVuSans-6d"/>
      <use x="186.232422" xlink:href="#DejaVuSans-65"/>
      <use x="247.755859" xlink:href="#DejaVuSans-20"/>
      <use x="279.542969" xlink:href="#DejaVuSans-28"/>
      <use x="318.556641" xlink:href="#DejaVuSans-73"/>
      <use x="370.65625" xlink:href="#DejaVuSans-29"/>
     </g>
    </g>
   </g>
   <g id="matplotlib.axis_2">
    <g id="ytick_1">
     <g id="line2d_39"/>
     <g id="text_10">
      <!-- 5 -->
      <g transform="translate(54.3075 283.48004)scale(0.1 -0.1)">
       <use xlink:href="#DejaVuSans-35"/>
      </g>
     </g>
    </g>
    <g id="ytick_2">
     <g id="line2d_40"/>
     <g id="text_11">
      <!-- 10 -->
      <g transform="translate(47.945 233.089118)scale(0.1 -0.1)">
       <use xlink:href="#DejaVuSans-31"/>
       <use x="63.623047" xlink:href="#DejaVuSans-30"/>
      </g>
     </g>
    </g>
    <g id="ytick_3">
     <g id="line2d_41"/>
     <g id="text_12">
      <!-- 15 -->
      <g transform="translate(47.945 182.698195)scale(0.1 -0.1)">
       <use xlink:href="#DejaVuSans-31"/>
       <use x="63.623047" xlink:href="#DejaVuSans-35"/>
      </g>
     </g>
    </g>
    <g id="ytick_4">
     <g id="line2d_42"/>
     <g id="text_13">
      <!-- 20 -->
      <g transform="translate(47.945 132.307273)scale(0.1 -0.1)">
       <use xlink:href="#DejaVuSans-32"/>
       <use x="63.623047" xlink:href="#DejaVuSans-30"/>
      </g>
     </g>
    </g>
    <g id="ytick_5">
     <g id="line2d_43"/>
     <g id="text_14">
      <!-- 25 -->
      <g transform="translate(47.945 81.91635)scale(0.1 -0.1)">
       <use xlink:href="#DejaVuSans-32"/>
       <use x="63.623047" xlink:href="#DejaVuSans-35"/>
      </g>
     </g>
    </g>
    <g id="ytick_6">
     <g id="line2d_44"/>
    </g>
    <g id="ytick_7">
     <g id="line2d_45"/>
    </g>
    <g id="ytick_8">
     <g id="line2d_46"/>
    </g>
    <g id="ytick_9">
     <g id="line2d_47"/>
    </g>
    <g id="ytick_10">
     <g id="line2d_48"/>
    </g>
    <g id="ytick_11">
     <g id="line2d_49"/>
    </g>
    <g id="ytick_12">
     <g id="line2d_50"/>
    </g>
    <g id="ytick_13">
     <g id="line2d_51"/>
    </g>
    <g id="ytick_14">
     <g id="line2d_52"/>
    </g>
    <g id="ytick_15">
     <g id="line2d_53"/>
    </g>
    <g id="ytick_16">
     <g id="line2d_54"/>
    </g>
    <g id="ytick_17">
     <g id="line2d_55"/>
    </g>
    <g id="ytick_18">
     <g id="line2d_56"/>
    </g>
    <g id="ytick_19">
     <g id="line2d_57"/>
    </g>
    <g id="ytick_20">
     <g id="line2d_58"/>
    </g>
    <g id="ytick_21">
     <g id="line2d_59"/>
    </g>
    <g id="ytick_22">
     <g id="line2d_60"/>
    </g>
    <g id="ytick_23">
     <g id="line2d_61"/>
    </g>
    <g id="ytick_24">
     <g id="line2d_62"/>
    </g>
    <g id="ytick_25">
     <g id="line2d_63"/>
    </g>
    <g id="ytick_26">
     <g id="line2d_64"/>
    </g>
    <g id="ytick_27">
     <g id="line2d_65"/>
    </g>
    <g id="text_15">
     <!-- Mbits/s -->
     <defs>
      <path d="M 9.8125 72.90625 
L 24.515625 72.90625 
L 43.109375 23.296875 
L 61.8125 72.90625 
L 76.515625 72.90625 
L 76.515625 0 
L 66.890625 0 
L 66.890625 64.015625 
L 48.09375 14.015625 
L 38.1875 14.015625 
L 19.390625 64.015625 
L 19.390625 0 
L 9.8125 0 
z
" id="DejaVuSans-4d"/>
      <path d="M 48.6875 27.296875 
Q 48.6875 37.203125 44.609375 42.84375 
Q 40.53125 48.484375 33.40625 48.484375 
Q 26.265625 48.484375 22.1875 42.84375 
Q 18.109375 37.203125 18.109375 27.296875 
Q 18.109375 17.390625 22.1875 11.75 
Q 26.265625 6.109375 33.40625 6.109375 
Q 40.53125 6.109375 44.609375 11.75 
Q 48.6875 17.390625 48.6875 27.296875 
z
M 18.109375 46.390625 
Q 20.953125 51.265625 25.265625 53.625 
Q 29.59375 56 35.59375 56 
Q 45.5625 56 51.78125 48.09375 
Q 58.015625 40.1875 58.015625 27.296875 
Q 58.015625 14.40625 51.78125 6.484375 
Q 45.5625 -1.421875 35.59375 -1.421875 
Q 29.59375 -1.421875 25.265625 0.953125 
Q 20.953125 3.328125 18.109375 8.203125 
L 18.109375 0 
L 9.078125 0 
L 9.078125 75.984375 
L 18.109375 75.984375 
z
" id="DejaVuSans-62"/>
      <path d="M 18.3125 70.21875 
L 18.3125 54.6875 
L 36.8125 54.6875 
L 36.8125 47.703125 
L 18.3125 47.703125 
L 18.3125 18.015625 
Q 18.3125 11.328125 20.140625 9.421875 
Q 21.96875 7.515625 27.59375 7.515625 
L 36.8125 7.515625 
L 36.8125 0 
L 27.59375 0 
Q 17.1875 0 13.234375 3.875 
Q 9.28125 7.765625 9.28125 18.015625 
L 9.28125 47.703125 
L 2.6875 47.703125 
L 2.6875 54.6875 
L 9.28125 54.6875 
L 9.28125 70.21875 
z
" id="DejaVuSans-74"/>
      <path d="M 25.390625 72.90625 
L 33.6875 72.90625 
L 8.296875 -9.28125 
L 0 -9.28125 
z
" id="DejaVuSans-2f"/>
     </defs>
     <g transform="translate(41.865313 198.80405)rotate(-90)scale(0.1 -0.1)">
      <use xlink:href="#DejaVuSans-4d"/>
      <use x="86.279297" xlink:href="#DejaVuSans-62"/>
      <use x="149.755859" xlink:href="#DejaVuSans-69"/>
      <use x="177.539062" xlink:href="#DejaVuSans-74"/>
      <use x="216.748047" xlink:href="#DejaVuSans-73"/>
      <use x="268.847656" xlink:href="#DejaVuSans-2f"/>
      <use x="302.539062" xlink:href="#DejaVuSans-73"/>
     </g>
    </g>
   </g>
   <g id="line2d_66">
    <path clip-path="url(#p786c409d61)" d="M 87.989685 266.377618 
L 88.871896 177.903281 
L 89.754107 124.150114 
L 90.636317 243.327422 
M 94.165159 87.380288 
L 97.694002 271.240955 
L 98.576212 255.252907 
L 99.458423 312.241692 
L 100.340633 312.324708 
L 101.222844 200.161705 
L 102.987265 235.516441 
L 103.869476 232.056033 
L 104.751686 163.242967 
L 105.633897 217.768987 
L 106.516107 251.101327 
L 107.398318 246.676436 
L 108.280529 201.784219 
L 109.162739 184.144519 
L 110.04495 157.527533 
L 110.92716 176.658976 
L 111.809371 200.104893 
L 112.691581 212.326187 
L 113.573792 180.064238 
L 114.456002 201.817492 
L 115.338213 216.685716 
L 116.220424 223.739047 
L 117.102634 221.922865 
L 117.984845 215.461922 
L 118.867055 206.631375 
L 119.749266 217.827371 
L 120.631476 224.790031 
L 121.513687 224.836414 
L 122.395898 233.824 
L 123.278108 195.532037 
L 124.160319 182.700509 
L 125.042529 200.083764 
L 125.92474 200.118507 
L 126.80695 212.27333 
L 127.689161 216.162493 
L 128.571372 214.26888 
L 129.453582 196.521186 
L 130.335793 199.999886 
L 131.218003 211.119638 
L 132.100214 225.59439 
L 132.982424 202.123774 
L 134.746846 233.947185 
L 135.629056 221.773271 
L 136.511267 211.300686 
L 138.275688 228.9464 
L 139.157898 231.530938 
L 140.040109 218.247942 
L 140.92232 191.938465 
L 141.80453 206.137578 
L 142.686741 213.466396 
L 143.568951 206.433429 
L 144.451162 205.575156 
L 145.333372 194.546356 
L 146.215583 214.858315 
L 147.097794 206.436746 
L 147.980004 200.282918 
L 148.862215 222.224648 
L 149.744425 202.38817 
L 150.626636 215.13514 
L 151.508846 239.274487 
L 152.391057 197.039419 
L 153.273268 208.964448 
L 154.155478 224.833954 
L 155.919899 237.137636 
L 156.80211 241.668079 
L 157.68432 240.144652 
L 158.566531 213.252468 
L 159.448742 222.902825 
L 160.330952 211.683856 
L 161.213163 166.871632 
L 162.095373 215.231835 
L 162.977584 229.982971 
L 163.859794 214.799547 
L 164.742005 204.247584 
L 165.624216 230.793296 
L 166.506426 243.860137 
L 167.388637 224.043032 
L 168.270847 192.385683 
L 169.153058 200.015568 
L 170.917479 223.528186 
L 171.79969 217.370634 
L 172.6819 201.572117 
L 173.564111 197.998428 
L 174.446321 217.020127 
L 175.328532 228.54719 
L 176.210742 209.050863 
L 177.092953 218.966766 
L 177.975164 209.676589 
L 178.857374 204.36756 
L 179.739585 203.644907 
L 180.621795 214.779248 
L 181.504006 228.067359 
L 182.386216 228.721317 
L 183.268427 220.850779 
L 184.150638 205.08244 
L 185.032848 202.243034 
L 185.915059 203.914476 
L 186.797269 216.411423 
L 187.67948 232.853912 
L 188.56169 234.254498 
L 189.443901 219.990564 
L 190.326112 216.789535 
L 191.208322 212.140768 
L 192.090533 223.489467 
L 192.972743 221.926192 
L 193.854954 213.954524 
L 194.737164 224.76272 
L 195.619375 228.325675 
L 196.501586 224.236456 
L 197.383796 197.664923 
L 198.266007 206.365215 
L 199.148217 204.484397 
L 200.030428 216.631041 
L 200.912638 208.05605 
L 201.794849 193.56894 
L 202.67706 221.967554 
L 203.55927 233.240874 
L 204.441481 230.256622 
L 205.323691 209.908169 
L 206.205902 214.487671 
L 207.088112 204.293219 
L 208.852533 223.600358 
L 209.734744 222.400133 
L 210.616955 226.584965 
L 211.499165 212.396699 
L 212.381376 201.666812 
L 213.263586 226.715308 
L 214.145797 240.615817 
L 215.028007 231.938139 
L 215.910218 234.297591 
L 216.792429 272.91203 
L 217.674639 293.518142 
L 218.55685 252.469741 
L 219.43906 243.753932 
L 220.321271 240.690421 
L 221.203481 251.711634 
L 223.850113 229.929465 
L 224.732324 229.73219 
L 225.614534 222.843525 
L 226.496745 222.436229 
L 227.378955 229.186155 
L 228.261166 193.349182 
L 229.143377 230.016506 
L 230.025587 247.113525 
L 230.907798 206.749168 
L 231.790008 198.151463 
L 232.672219 221.376262 
L 233.554429 234.712523 
L 234.43664 231.78807 
L 235.318851 225.879333 
L 236.201061 200.761633 
L 237.083272 214.846747 
L 237.965482 233.403808 
L 238.847693 226.309531 
L 239.729903 213.378759 
L 240.612114 219.023508 
L 241.494325 235.315329 
L 242.376535 246.87665 
L 243.258746 249.396274 
L 244.140956 245.123586 
L 245.023167 234.402152 
L 245.905377 217.013883 
L 246.787588 203.203457 
L 247.669799 211.663391 
L 248.552009 209.616615 
L 249.43422 210.004833 
L 250.31643 217.274681 
L 251.198641 221.308449 
L 252.963062 195.466898 
L 253.845273 203.144836 
L 254.727483 200.331221 
L 255.609694 217.679515 
L 256.491904 223.463214 
L 257.374115 218.836627 
L 258.256325 217.484258 
L 259.138536 221.647287 
L 260.020747 218.57489 
L 260.902957 218.236037 
L 261.785168 216.487015 
L 262.667378 222.902869 
L 263.549589 235.288703 
L 264.431799 195.833677 
L 265.31401 203.446856 
L 266.196221 221.136832 
L 267.078431 234.158299 
L 267.960642 239.369706 
L 268.842852 231.319985 
L 269.725063 225.729049 
L 270.607273 224.763377 
L 271.489484 219.772454 
L 272.371695 210.439839 
L 273.253905 222.604321 
L 275.018326 253.122388 
L 275.900537 244.340941 
L 276.782747 231.87935 
L 277.664958 231.169234 
L 278.547169 232.228989 
L 279.429379 242.343226 
L 280.31159 250.511007 
L 281.1938 256.712429 
L 282.958221 248.722477 
L 283.840432 250.384148 
L 284.722643 253.313147 
L 285.604853 257.22331 
L 286.487064 255.674174 
L 287.369274 245.2095 
L 288.251485 236.460632 
L 289.133695 235.481302 
L 290.015906 242.224314 
L 291.780327 261.369747 
L 292.662538 283.358553 
L 293.544748 284.606658 
L 294.426959 273.286624 
L 296.19138 280.232979 
L 297.073591 283.550521 
L 297.955801 284.671933 
L 298.838012 280.231244 
L 299.720222 269.944435 
L 300.602433 257.333877 
L 301.484643 233.082157 
L 302.366854 225.681623 
L 303.249065 222.297129 
L 304.131275 204.946947 
L 305.013486 198.87878 
L 305.895696 214.385177 
L 306.777907 226.187069 
L 307.660117 231.718418 
L 308.542328 239.290157 
L 310.306749 260.585998 
L 311.18896 265.183903 
L 312.07117 224.588262 
L 312.953381 124.020053 
L 313.835591 45.733976 
L 314.717802 82.409357 
L 316.482223 212.739411 
L 317.364434 236.297473 
L 318.246644 236.111961 
L 319.128855 275.803017 
M 325.304329 315.044361 
L 326.186539 316.411624 
L 327.06875 308.137331 
L 328.833171 313.569063 
L 329.715382 281.005156 
L 330.597592 266.854441 
L 332.362013 265.969383 
L 333.244224 79.621505 
L 334.126434 67.452288 
L 335.008645 100.843925 
L 335.890856 64.747088 
L 336.773066 61.957499 
L 337.655277 112.712923 
L 338.537487 215.844141 
L 339.419698 251.571202 
L 340.301908 237.783785 
L 341.184119 236.733795 
L 342.06633 253.268503 
L 342.94854 266.037676 
L 343.830751 267.879845 
L 346.477382 295.225713 
L 347.359593 292.244615 
L 348.241804 272.685191 
L 349.124014 259.540036 
L 350.006225 255.681121 
L 350.888435 287.229104 
L 351.770646 287.340242 
L 351.770646 287.340242 
" style="fill:none;stroke:#1b9e77;stroke-linecap:round;"/>
   </g>
   <g id="patch_3">
    <path d="M 64.17 319.1184 
L 64.17 43.0272 
" style="fill:none;"/>
   </g>
   <g id="patch_4">
    <path d="M 392.256 319.1184 
L 392.256 43.0272 
" style="fill:none;"/>
   </g>
   <g id="patch_5">
    <path d="M 64.17 319.1184 
L 392.256 319.1184 
" style="fill:none;"/>
   </g>
   <g id="patch_6">
    <path d="M 64.17 43.0272 
L 392.256 43.0272 
" style="fill:none;"/>
   </g>
   <g id="legend_1">
    <g id="line2d_67">
     <path d="M 431.67746 49.773198 
L 448.33746 49.773198 
" style="fill:none;stroke:#1b9e77;stroke-linecap:round;"/>
    </g>
    <g id="line2d_68"/>
    <g id="text_16">
     <!-- Upload -->
     <defs>
      <path d="M 8.6875 72.90625 
L 18.609375 72.90625 
L 18.609375 28.609375 
Q 18.609375 16.890625 22.84375 11.734375 
Q 27.09375 6.59375 36.625 6.59375 
Q 46.09375 6.59375 50.34375 11.734375 
Q 54.59375 16.890625 54.59375 28.609375 
L 54.59375 72.90625 
L 64.5 72.90625 
L 64.5 27.390625 
Q 64.5 13.140625 57.4375 5.859375 
Q 50.390625 -1.421875 36.625 -1.421875 
Q 22.796875 -1.421875 15.734375 5.859375 
Q 8.6875 13.140625 8.6875 27.390625 
z
" id="DejaVuSans-55"/>
      <path d="M 18.109375 8.203125 
L 18.109375 -20.796875 
L 9.078125 -20.796875 
L 9.078125 54.6875 
L 18.109375 54.6875 
L 18.109375 46.390625 
Q 20.953125 51.265625 25.265625 53.625 
Q 29.59375 56 35.59375 56 
Q 45.5625 56 51.78125 48.09375 
Q 58.015625 40.1875 58.015625 27.296875 
Q 58.015625 14.40625 51.78125 6.484375 
Q 45.5625 -1.421875 35.59375 -1.421875 
Q 29.59375 -1.421875 25.265625 0.953125 
Q 20.953125 3.328125 18.109375 8.203125 
z
M 48.6875 27.296875 
Q 48.6875 37.203125 44.609375 42.84375 
Q 40.53125 48.484375 33.40625 48.484375 
Q 26.265625 48.484375 22.1875 42.84375 
Q 18.109375 37.203125 18.109375 27.296875 
Q 18.109375 17.390625 22.1875 11.75 
Q 26.265625 6.109375 33.40625 6.109375 
Q 40.53125 6.109375 44.609375 11.75 
Q 48.6875 17.390625 48.6875 27.296875 
z
" id="DejaVuSans-70"/>
      <path d="M 9.421875 75.984375 
L 18.40625 75.984375 
L 18.40625 0 
L 9.421875 0 
z
" id="DejaVuSans-6c"/>
      <path d="M 30.609375 48.390625 
Q 23.390625 48.390625 19.1875 42.75 
Q 14.984375 37.109375 14.984375 27.296875 
Q 14.984375 17.484375 19.15625 11.84375 
Q 23.34375 6.203125 30.609375 6.203125 
Q 37.796875 6.203125 41.984375 11.859375 
Q 46.1875 17.53125 46.1875 27.296875 
Q 46.1875 37.015625 41.984375 42.703125 
Q 37.796875 48.390625 30.609375 48.390625 
z
M 30.609375 56 
Q 42.328125 56 49.015625 48.375 
Q 55.71875 40.765625 55.71875 27.296875 
Q 55.71875 13.875 49.015625 6.21875 
Q 42.328125 -1.421875 30.609375 -1.421875 
Q 18.84375 -1.421875 12.171875 6.21875 
Q 5.515625 13.875 5.515625 27.296875 
Q 5.515625 40.765625 12.171875 48.375 
Q 18.84375 56 30.609375 56 
z
" id="DejaVuSans-6f"/>
      <path d="M 34.28125 27.484375 
Q 23.390625 27.484375 19.1875 25 
Q 14.984375 22.515625 14.984375 16.5 
Q 14.984375 11.71875 18.140625 8.90625 
Q 21.296875 6.109375 26.703125 6.109375 
Q 34.1875 6.109375 38.703125 11.40625 
Q 43.21875 16.703125 43.21875 25.484375 
L 43.21875 27.484375 
z
M 52.203125 31.203125 
L 52.203125 0 
L 43.21875 0 
L 43.21875 8.296875 
Q 40.140625 3.328125 35.546875 0.953125 
Q 30.953125 -1.421875 24.3125 -1.421875 
Q 15.921875 -1.421875 10.953125 3.296875 
Q 6 8.015625 6 15.921875 
Q 6 25.140625 12.171875 29.828125 
Q 18.359375 34.515625 30.609375 34.515625 
L 43.21875 34.515625 
L 43.21875 35.40625 
Q 43.21875 41.609375 39.140625 45 
Q 35.0625 48.390625 27.6875 48.390625 
Q 23 48.390625 18.546875 47.265625 
Q 14.109375 46.140625 10.015625 43.890625 
L 10.015625 52.203125 
Q 14.9375 54.109375 19.578125 55.046875 
Q 24.21875 56 28.609375 56 
Q 40.484375 56 46.34375 49.84375 
Q 52.203125 43.703125 52.203125 31.203125 
z
" id="DejaVuSans-61"/>
      <path d="M 45.40625 46.390625 
L 45.40625 75.984375 
L 54.390625 75.984375 
L 54.390625 0 
L 45.40625 0 
L 45.40625 8.203125 
Q 42.578125 3.328125 38.25 0.953125 
Q 33.9375 -1.421875 27.875 -1.421875 
Q 17.96875 -1.421875 11.734375 6.484375 
Q 5.515625 14.40625 5.515625 27.296875 
Q 5.515625 40.1875 11.734375 48.09375 
Q 17.96875 56 27.875 56 
Q 33.9375 56 38.25 53.625 
Q 42.578125 51.265625 45.40625 46.390625 
z
M 14.796875 27.296875 
Q 14.796875 17.390625 18.875 11.75 
Q 22.953125 6.109375 30.078125 6.109375 
Q 37.203125 6.109375 41.296875 11.75 
Q 45.40625 17.390625 45.40625 27.296875 
Q 45.40625 37.203125 41.296875 42.84375 
Q 37.203125 48.484375 30.078125 48.484375 
Q 22.953125 48.484375 18.875 42.84375 
Q 14.796875 37.203125 14.796875 27.296875 
z
" id="DejaVuSans-64"/>
     </defs>
     <g transform="translate(455.00146 52.688698)scale(0.0833 -0.0833)">
      <use xlink:href="#DejaVuSans-55"/>
      <use x="73.193359" xlink:href="#DejaVuSans-70"/>
      <use x="136.669922" xlink:href="#DejaVuSans-6c"/>
      <use x="164.453125" xlink:href="#DejaVuSans-6f"/>
      <use x="225.634766" xlink:href="#DejaVuSans-61"/>
      <use x="286.914062" xlink:href="#DejaVuSans-64"/>
     </g>
    </g>
    <g id="line2d_69">
     <path d="M 431.67746 62.000077 
L 448.33746 62.000077 
" style="fill:none;stroke:#d95f02;stroke-linecap:round;"/>
    </g>
    <g id="line2d_70"/>
    <g id="text_17">
     <!-- Ping (ms) -->
     <defs>
      <path d="M 19.671875 64.796875 
L 19.671875 37.40625 
L 32.078125 37.40625 
Q 38.96875 37.40625 42.71875 40.96875 
Q 46.484375 44.53125 46.484375 51.125 
Q 46.484375 57.671875 42.71875 61.234375 
Q 38.96875 64.796875 32.078125 64.796875 
z
M 9.8125 72.90625 
L 32.078125 72.90625 
Q 44.34375 72.90625 50.609375 67.359375 
Q 56.890625 61.8125 56.890625 51.125 
Q 56.890625 40.328125 50.609375 34.8125 
Q 44.34375 29.296875 32.078125 29.296875 
L 19.671875 29.296875 
L 19.671875 0 
L 9.8125 0 
z
" id="DejaVuSans-50"/>
      <path d="M 54.890625 33.015625 
L 54.890625 0 
L 45.90625 0 
L 45.90625 32.71875 
Q 45.90625 40.484375 42.875 44.328125 
Q 39.84375 48.1875 33.796875 48.1875 
Q 26.515625 48.1875 22.3125 43.546875 
Q 18.109375 38.921875 18.109375 30.90625 
L 18.109375 0 
L 9.078125 0 
L 9.078125 54.6875 
L 18.109375 54.6875 
L 18.109375 46.1875 
Q 21.34375 51.125 25.703125 53.5625 
Q 30.078125 56 35.796875 56 
Q 45.21875 56 50.046875 50.171875 
Q 54.890625 44.34375 54.890625 33.015625 
z
" id="DejaVuSans-6e"/>
      <path d="M 45.40625 27.984375 
Q 45.40625 37.75 41.375 43.109375 
Q 37.359375 48.484375 30.078125 48.484375 
Q 22.859375 48.484375 18.828125 43.109375 
Q 14.796875 37.75 14.796875 27.984375 
Q 14.796875 18.265625 18.828125 12.890625 
Q 22.859375 7.515625 30.078125 7.515625 
Q 37.359375 7.515625 41.375 12.890625 
Q 45.40625 18.265625 45.40625 27.984375 
z
M 54.390625 6.78125 
Q 54.390625 -7.171875 48.1875 -13.984375 
Q 42 -20.796875 29.203125 -20.796875 
Q 24.46875 -20.796875 20.265625 -20.09375 
Q 16.0625 -19.390625 12.109375 -17.921875 
L 12.109375 -9.1875 
Q 16.0625 -11.328125 19.921875 -12.34375 
Q 23.78125 -13.375 27.78125 -13.375 
Q 36.625 -13.375 41.015625 -8.765625 
Q 45.40625 -4.15625 45.40625 5.171875 
L 45.40625 9.625 
Q 42.625 4.78125 38.28125 2.390625 
Q 33.9375 0 27.875 0 
Q 17.828125 0 11.671875 7.65625 
Q 5.515625 15.328125 5.515625 27.984375 
Q 5.515625 40.671875 11.671875 48.328125 
Q 17.828125 56 27.875 56 
Q 33.9375 56 38.28125 53.609375 
Q 42.625 51.21875 45.40625 46.390625 
L 45.40625 54.6875 
L 54.390625 54.6875 
z
" id="DejaVuSans-67"/>
     </defs>
     <g transform="translate(455.00146 64.915577)scale(0.0833 -0.0833)">
      <use xlink:href="#DejaVuSans-50"/>
      <use x="60.271484" xlink:href="#DejaVuSans-69"/>
      <use x="88.054688" xlink:href="#DejaVuSans-6e"/>
      <use x="151.433594" xlink:href="#DejaVuSans-67"/>
      <use x="214.910156" xlink:href="#DejaVuSans-20"/>
      <use x="246.697266" xlink:href="#DejaVuSans-28"/>
      <use x="285.710938" xlink:href="#DejaVuSans-6d"/>
      <use x="383.123047" xlink:href="#DejaVuSans-73"/>
      <use x="435.222656" xlink:href="#DejaVuSans-29"/>
     </g>
    </g>
   </g>
  </g>
  <g id="axes_2">
   <g id="matplotlib.axis_3">
    <g id="ytick_28">
     <g id="line2d_71"/>
     <g id="text_18">
      <!-- 0 -->
      <g transform="translate(395.756 323.296744)scale(0.1 -0.1)">
       <use xlink:href="#DejaVuSans-30"/>
      </g>
     </g>
    </g>
    <g id="ytick_29">
     <g id="line2d_72"/>
     <g id="text_19">
      <!-- 200 -->
      <g transform="translate(395.756 279.212436)scale(0.1 -0.1)">
       <use xlink:href="#DejaVuSans-32"/>
       <use x="63.623047" xlink:href="#DejaVuSans-30"/>
       <use x="127.246094" xlink:href="#DejaVuSans-30"/>
      </g>
     </g>
    </g>
    <g id="ytick_30">
     <g id="line2d_73"/>
     <g id="text_20">
      <!-- 400 -->
      <g transform="translate(395.756 235.128129)scale(0.1 -0.1)">
       <use xlink:href="#DejaVuSans-34"/>
       <use x="63.623047" xlink:href="#DejaVuSans-30"/>
       <use x="127.246094" xlink:href="#DejaVuSans-30"/>
      </g>
     </g>
    </g>
    <g id="ytick_31">
     <g id="line2d_74"/>
     <g id="text_21">
      <!-- 600 -->
      <g transform="translate(395.756 191.043822)scale(0.1 -0.1)">
       <use xlink:href="#DejaVuSans-36"/>
       <use x="63.623047" xlink:href="#DejaVuSans-30"/>
       <use x="127.246094" xlink:href="#DejaVuSans-30"/>
      </g>
     </g>
    </g>
    <g id="ytick_32">
     <g id="line2d_75"/>
     <g id="text_22">
      <!-- 800 -->
      <defs>
       <path d="M 31.78125 34.625 
Q 24.75 34.625 20.71875 30.859375 
Q 16.703125 27.09375 16.703125 20.515625 
Q 16.703125 13.921875 20.71875 10.15625 
Q 24.75 6.390625 31.78125 6.390625 
Q 38.8125 6.390625 42.859375 10.171875 
Q 46.921875 13.96875 46.921875 20.515625 
Q 46.921875 27.09375 42.890625 30.859375 
Q 38.875 34.625 31.78125 34.625 
z
M 21.921875 38.8125 
Q 15.578125 40.375 12.03125 44.71875 
Q 8.5 49.078125 8.5 55.328125 
Q 8.5 64.0625 14.71875 69.140625 
Q 20.953125 74.21875 31.78125 74.21875 
Q 42.671875 74.21875 48.875 69.140625 
Q 55.078125 64.0625 55.078125 55.328125 
Q 55.078125 49.078125 51.53125 44.71875 
Q 48 40.375 41.703125 38.8125 
Q 48.828125 37.15625 52.796875 32.3125 
Q 56.78125 27.484375 56.78125 20.515625 
Q 56.78125 9.90625 50.3125 4.234375 
Q 43.84375 -1.421875 31.78125 -1.421875 
Q 19.734375 -1.421875 13.25 4.234375 
Q 6.78125 9.90625 6.78125 20.515625 
Q 6.78125 27.484375 10.78125 32.3125 
Q 14.796875 37.15625 21.921875 38.8125 
z
M 18.3125 54.390625 
Q 18.3125 48.734375 21.84375 45.5625 
Q 25.390625 42.390625 31.78125 42.390625 
Q 38.140625 42.390625 41.71875 45.5625 
Q 45.3125 48.734375 45.3125 54.390625 
Q 45.3125 60.0625 41.71875 63.234375 
Q 38.140625 66.40625 31.78125 66.40625 
Q 25.390625 66.40625 21.84375 63.234375 
Q 18.3125 60.0625 18.3125 54.390625 
z
" id="DejaVuSans-38"/>
      </defs>
      <g transform="translate(395.756 146.959514)scale(0.1 -0.1)">
       <use xlink:href="#DejaVuSans-38"/>
       <use x="63.623047" xlink:href="#DejaVuSans-30"/>
       <use x="127.246094" xlink:href="#DejaVuSans-30"/>
      </g>
     </g>
    </g>
    <g id="ytick_33">
     <g id="line2d_76"/>
     <g id="text_23">
      <!-- 1000 -->
      <g transform="translate(395.756 102.875207)scale(0.1 -0.1)">
       <use xlink:href="#DejaVuSans-31"/>
       <use x="63.623047" xlink:href="#DejaVuSans-30"/>
       <use x="127.246094" xlink:href="#DejaVuSans-30"/>
       <use x="190.869141" xlink:href="#DejaVuSans-30"/>
      </g>
     </g>
    </g>
    <g id="ytick_34">
     <g id="line2d_77"/>
     <g id="text_24">
      <!-- 1200 -->
      <g transform="translate(395.756 58.7909)scale(0.1 -0.1)">
       <use xlink:href="#DejaVuSans-31"/>
       <use x="63.623047" xlink:href="#DejaVuSans-32"/>
       <use x="127.246094" xlink:href="#DejaVuSans-30"/>
       <use x="190.869141" xlink:href="#DejaVuSans-30"/>
      </g>
     </g>
    </g>
    <g id="ytick_35">
     <g id="line2d_78"/>
    </g>
    <g id="ytick_36">
     <g id="line2d_79"/>
    </g>
    <g id="ytick_37">
     <g id="line2d_80"/>
    </g>
    <g id="ytick_38">
     <g id="line2d_81"/>
    </g>
    <g id="ytick_39">
     <g id="line2d_82"/>
    </g>
    <g id="ytick_40">
     <g id="line2d_83"/>
    </g>
    <g id="ytick_41">
     <g id="line2d_84"/>
    </g>
    <g id="ytick_42">
     <g id="line2d_85"/>
    </g>
    <g id="ytick_43">
     <g id="line2d_86"/>
    </g>
    <g id="ytick_44">
     <g id="line2d_87"/>
    </g>
    <g id="ytick_45">
     <g id="line2d_88"/>
    </g>
    <g id="ytick_46">
     <g id="line2d_89"/>
    </g>
    <g id="ytick_47">
     <g id="line2d_90"/>
    </g>
    <g id="ytick_48">
     <g id="line2d_91"/>
    </g>
    <g id="ytick_49">
     <g id="line2d_92"/>
    </g>
    <g id="ytick_50">
     <g id="line2d_93"/>
    </g>
    <g id="ytick_51">
     <g id="line2d_94"/>
    </g>
    <g id="ytick_52">
     <g id="line2d_95"/>
    </g>
    <g id="ytick_53">
     <g id="line2d_96"/>
    </g>
    <g id="text_25">
     <!-- ms -->
     <g transform="translate(432.804438 188.5478)rotate(-90)scale(0.1 -0.1)">
      <use xlink:href="#DejaVuSans-6d"/>
      <use x="97.412109" xlink:href="#DejaVuSans-73"/>
     </g>
    </g>
   </g>
   <g id="line2d_97">
    <path clip-path="url(#p786c409d61)" d="M 64.17 315.816485 
L 65.06577 316.16916 
L 65.96469 316.16916 
L 66.873693 315.507895 
L 67.802396 313.876776 
L 68.673006 315.397684 
L 69.554295 315.904654 
L 70.463403 315.618106 
L 71.410761 313.325722 
L 72.26321 315.86057 
L 73.178054 315.243389 
L 74.054998 316.191202 
L 74.976348 314.934799 
L 75.847045 316.235286 
L 77.65383 316.16916 
L 78.554571 316.125076 
L 81.246165 316.411624 
L 82.178247 314.780504 
L 83.057013 315.992823 
L 83.988305 314.361703 
L 84.846294 316.257328 
L 85.753114 316.103033 
L 86.671107 315.419727 
L 88.309487 278.719541 
L 89.672039 255.575279 
L 89.811671 293.487784 
L 92.119132 222.952892 
L 94.597752 233.973969 
L 95.178563 249.844319 
L 96.492546 228.243009 
L 96.801368 257.779495 
L 97.453873 270.343522 
L 97.66136 304.751324 
L 98.352952 314.978884 
L 99.87723 283.789236 
L 100.741258 285.332187 
L 101.922754 315.684232 
L 102.808155 316.279371 
L 103.806875 311.143549 
L 104.897119 301.863802 
L 105.584872 312.510162 
L 106.750479 299.042406 
L 107.640489 299.461207 
L 108.220949 315.640148 
L 110.273839 302.745488 
L 110.913715 315.596064 
L 112.055539 303.561048 
L 112.774447 312.774668 
L 113.732206 309.754893 
L 114.768464 302.701404 
L 115.416902 315.089094 
L 116.588182 301.33479 
L 117.194653 315.816485 
L 118.2923 305.963643 
L 119.267773 302.414856 
L 120.021036 309.600598 
L 120.970929 306.867371 
L 121.964682 301.996055 
L 122.621007 313.854734 
L 123.692972 305.258294 
L 124.60404 303.825554 
L 125.420561 307.837226 
L 126.407627 303.252458 
L 127.073047 314.802546 
L 128.184963 304.045975 
L 128.938671 310.570453 
L 129.895297 307.462509 
L 130.922653 301.268664 
L 131.534973 315.750359 
L 132.620652 306.426528 
L 133.586435 303.296542 
L 134.278767 313.634312 
L 135.411292 301.819718 
L 136.118079 311.452139 
L 137.192938 302.877741 
L 137.869734 313.964944 
L 138.96533 304.001891 
L 139.697277 312.289741 
L 140.666646 308.278069 
L 141.638886 304.751324 
L 142.347994 314.405788 
L 143.42636 305.655053 
L 144.352989 304.134144 
L 145.103195 311.408055 
L 146.206884 301.180495 
L 146.909543 311.25376 
L 147.999038 301.929929 
L 148.852413 303.847596 
L 149.567759 312.884879 
L 150.648458 303.671259 
L 151.371698 312.267699 
L 152.246128 313.590228 
L 153.394056 300.783737 
L 154.021731 314.207408 
L 155.30892 295.030734 
L 156.195198 295.912421 
L 157.19644 290.622304 
L 158.025969 293.928627 
L 158.72704 303.009994 
L 159.476439 310.327989 
L 160.335416 312.17953 
L 161.401095 303.715343 
L 162.216271 307.88131 
L 163.096361 309.093629 
L 164.026739 307.506593 
L 165.84708 306.162022 
L 166.568512 314.868673 
L 167.676745 304.244355 
L 168.499287 308.079689 
L 169.411223 307.682931 
L 170.384302 303.913722 
L 171.056903 315.111136 
L 172.199521 302.96591 
L 172.88836 313.656354 
L 173.972094 304.420692 
L 174.750551 310.305947 
L 175.693268 308.322153 
L 176.686069 303.781469 
L 177.37714 314.11924 
L 178.500665 302.679362 
L 179.399374 302.811615 
L 180.16908 309.512429 
L 181.859616 314.582125 
L 183.000465 302.701404 
L 183.843227 305.699137 
L 184.692266 308.035605 
L 185.677806 303.58309 
L 186.360544 314.582125 
L 187.499681 301.974013 
L 188.117123 316.036907 
L 189.234438 304.971746 
L 191.022842 305.721179 
L 191.935868 304.222313 
L 192.750686 308.454406 
L 193.743628 303.428795 
L 194.405837 315.265432 
L 195.517679 304.486818 
L 196.179323 316.345497 
L 197.274305 306.75716 
L 198.220441 304.464776 
L 199.042687 308.145816 
L 200.074525 301.33479 
L 200.684473 315.640148 
L 201.820689 303.494921 
L 202.464138 316.257328 
L 203.555349 306.691034 
L 204.259644 316.103033 
L 205.322364 307.947437 
L 206.327819 302.833657 
L 207.007541 313.766565 
L 208.085699 304.310481 
L 209.089615 299.306912 
L 209.932695 301.951971 
L 210.808642 303.340626 
L 211.759545 300.893947 
L 212.767158 295.691999 
L 213.84738 286.875138 
L 214.711329 288.418088 
L 215.457441 296.132842 
L 217.468996 240.145772 
L 217.786023 313.942902 
L 218.794883 308.740954 
L 219.784927 304.222313 
L 220.657693 305.32442 
L 221.605862 302.96591 
L 222.35474 310.085525 
L 223.642587 290.622304 
L 224.526262 291.724411 
L 225.557398 285.111765 
L 226.282448 293.708205 
L 226.891278 308.079689 
L 227.682894 313.700439 
L 228.784069 303.58309 
L 229.517756 311.716645 
L 230.467451 309.446303 
L 231.477683 303.979849 
L 232.457794 299.769798 
L 233.024385 316.257328 
L 234.185572 302.987952 
L 235.058254 304.156186 
L 235.799391 312.091361 
L 236.925626 300.364936 
L 237.528003 314.868673 
L 238.883533 292.165254 
L 239.647276 299.108533 
L 240.925171 280.482913 
L 241.893464 276.735747 
L 242.279355 301.53317 
L 242.985742 311.187633 
L 243.805425 314.846631 
L 245.04501 298.006425 
L 245.593714 315.772401 
L 246.757487 302.65732 
L 247.706922 300.364936 
L 248.577681 301.511128 
L 249.512331 299.725713 
L 250.161205 312.48812 
L 251.230533 304.045975 
L 252.13449 303.671259 
L 252.885537 310.967212 
L 253.962607 301.885844 
L 254.728149 308.410322 
L 255.705886 304.530903 
L 256.648929 302.503025 
L 257.491268 305.32442 
L 258.413244 304.20027 
L 259.128955 313.546144 
L 260.270478 301.643381 
L 260.905189 315.133179 
L 261.940057 308.211942 
L 262.950714 302.723446 
L 263.593193 315.794443 
L 264.727529 303.208373 
L 265.644368 302.216477 
L 266.888748 284.891344 
L 267.726887 287.756824 
L 268.406565 298.844027 
L 269.240337 302.348729 
L 270.169926 300.629442 
L 271.286937 289.740618 
L 271.885694 304.773366 
L 272.965082 295.251156 
L 274.601883 258.440759 
L 275.697156 293.046941 
L 276.719952 287.095559 
L 277.818992 277.17659 
L 278.541236 285.332187 
L 279.870109 263.951298 
L 280.797167 262.187926 
L 281.195071 287.095559 
L 282.322646 275.633639 
L 283.834459 244.333781 
L 284.686195 246.537996 
L 285.024028 274.31111 
L 286.008624 270.343522 
L 286.856613 272.327316 
L 287.337572 293.046941 
L 288.64088 272.768159 
L 289.613018 269.020993 
L 291.728661 208.405071 
L 291.769427 296.132842 
L 297.126338 73.286669 
L 297.130397 117.811819 
L 297.449483 146.68704 
L 297.559605 275.633639 
L 299.652526 215.017717 
L 300.453639 220.087412 
L 301.002961 237.721135 
L 301.458685 259.98371 
L 302.931067 231.108489 
L 304.214472 211.931815 
L 304.706344 231.549332 
L 306.078054 208.184649 
L 306.758212 218.32404 
L 308.163881 193.195985 
L 311.082036 92.463342 
L 312.417199 70.421189 
L 312.683327 146.68704 
L 312.685215 236.398606 
L 313.128266 259.542867 
L 317.383027 91.581656 
L 319.198885 45.733976 
L 319.852775 58.298004 
L 320.339247 79.017629 
L 321.262923 167.627086 
L 321.911003 180.191114 
L 323.156486 162.777812 
L 323.331635 199.147366 
L 323.964869 212.59308 
L 324.007193 255.134436 
L 325.445853 228.022587 
L 327.384375 310.989254 
L 328.173362 316.125076 
L 329.101279 314.383745 
L 330.048981 312.113404 
L 331.119022 303.406753 
L 332.056552 301.621338 
L 332.798747 309.688767 
L 333.814313 304.068017 
L 334.780104 300.166556 
L 336.327872 312.576289 
L 337.632057 292.165254 
L 338.355862 300.783737 
L 339.708009 278.499119 
L 341.337266 241.468301 
L 341.579698 274.531532 
L 342.602815 268.359729 
L 346.930636 96.871773 
L 347.405402 117.811819 
L 347.740324 145.364511 
L 347.74406 234.635233 
L 347.865241 272.988581 
L 349.400433 240.807036 
L 350.104966 250.505584 
L 352.358445 182.615751 
L 352.368961 226.92048 
L 353.079776 236.398606 
L 353.534053 258.881602 
L 354.984539 231.108489 
L 355.054274 272.547738 
L 355.238413 307.220045 
L 356.363094 296.353264 
L 357.21999 297.719877 
L 357.789299 314.185366 
L 358.748632 311.408055 
L 359.559127 315.904654 
L 360.451298 316.125076 
L 362.245957 316.014865 
L 363.14025 316.103033 
L 364.048653 315.728317 
L 364.949138 315.904654 
L 365.880104 314.185366 
L 366.735076 316.235286 
L 367.643524 315.992823 
L 368.543697 315.992823 
L 369.436053 316.147118 
L 370.344584 315.684232 
L 371.235087 316.301413 
L 373.039459 316.036907 
L 373.933628 316.213244 
L 374.837021 316.213244 
L 375.741737 315.904654 
L 376.632857 316.16916 
L 376.632857 316.16916 
" style="fill:none;stroke:#d95f02;stroke-linecap:round;"/>
   </g>
  </g>
  <g id="text_26">
   <!-- TCP upload - N streams w/ping -->
   <defs>
    <path d="M 64.40625 67.28125 
L 64.40625 56.890625 
Q 59.421875 61.53125 53.78125 63.8125 
Q 48.140625 66.109375 41.796875 66.109375 
Q 29.296875 66.109375 22.65625 58.46875 
Q 16.015625 50.828125 16.015625 36.375 
Q 16.015625 21.96875 22.65625 14.328125 
Q 29.296875 6.6875 41.796875 6.6875 
Q 48.140625 6.6875 53.78125 8.984375 
Q 59.421875 11.28125 64.40625 15.921875 
L 64.40625 5.609375 
Q 59.234375 2.09375 53.4375 0.328125 
Q 47.65625 -1.421875 41.21875 -1.421875 
Q 24.65625 -1.421875 15.125 8.703125 
Q 5.609375 18.84375 5.609375 36.375 
Q 5.609375 53.953125 15.125 64.078125 
Q 24.65625 74.21875 41.21875 74.21875 
Q 47.75 74.21875 53.53125 72.484375 
Q 59.328125 70.75 64.40625 67.28125 
z
" id="DejaVuSans-43"/>
    <path d="M 8.5 21.578125 
L 8.5 54.6875 
L 17.484375 54.6875 
L 17.484375 21.921875 
Q 17.484375 14.15625 20.5 10.265625 
Q 23.53125 6.390625 29.59375 6.390625 
Q 36.859375 6.390625 41.078125 11.03125 
Q 45.3125 15.671875 45.3125 23.6875 
L 45.3125 54.6875 
L 54.296875 54.6875 
L 54.296875 0 
L 45.3125 0 
L 45.3125 8.40625 
Q 42.046875 3.421875 37.71875 1 
Q 33.40625 -1.421875 27.6875 -1.421875 
Q 18.265625 -1.421875 13.375 4.4375 
Q 8.5 10.296875 8.5 21.578125 
z
M 31.109375 56 
z
" id="DejaVuSans-75"/>
    <path d="M 4.890625 31.390625 
L 31.203125 31.390625 
L 31.203125 23.390625 
L 4.890625 23.390625 
z
" id="DejaVuSans-2d"/>
    <path d="M 9.8125 72.90625 
L 23.09375 72.90625 
L 55.421875 11.921875 
L 55.421875 72.90625 
L 64.984375 72.90625 
L 64.984375 0 
L 51.703125 0 
L 19.390625 60.984375 
L 19.390625 0 
L 9.8125 0 
z
" id="DejaVuSans-4e"/>
    <path d="M 41.109375 46.296875 
Q 39.59375 47.171875 37.8125 47.578125 
Q 36.03125 48 33.890625 48 
Q 26.265625 48 22.1875 43.046875 
Q 18.109375 38.09375 18.109375 28.8125 
L 18.109375 0 
L 9.078125 0 
L 9.078125 54.6875 
L 18.109375 54.6875 
L 18.109375 46.1875 
Q 20.953125 51.171875 25.484375 53.578125 
Q 30.03125 56 36.53125 56 
Q 37.453125 56 38.578125 55.875 
Q 39.703125 55.765625 41.0625 55.515625 
z
" id="DejaVuSans-72"/>
    <path d="M 4.203125 54.6875 
L 13.1875 54.6875 
L 24.421875 12.015625 
L 35.59375 54.6875 
L 46.1875 54.6875 
L 57.421875 12.015625 
L 68.609375 54.6875 
L 77.59375 54.6875 
L 63.28125 0 
L 52.6875 0 
L 40.921875 44.828125 
L 29.109375 0 
L 18.5 0 
z
" id="DejaVuSans-77"/>
   </defs>
   <g transform="translate(148.894219 13.625812)scale(0.14 -0.14)">
    <use xlink:href="#DejaVuSans-54"/>
    <use x="61.005859" xlink:href="#DejaVuSans-43"/>
    <use x="130.830078" xlink:href="#DejaVuSans-50"/>
    <use x="191.132812" xlink:href="#DejaVuSans-20"/>
    <use x="222.919922" xlink:href="#DejaVuSans-75"/>
    <use x="286.298828" xlink:href="#DejaVuSans-70"/>
    <use x="349.775391" xlink:href="#DejaVuSans-6c"/>
    <use x="377.558594" xlink:href="#DejaVuSans-6f"/>
    <use x="438.740234" xlink:href="#DejaVuSans-61"/>
    <use x="500.019531" xlink:href="#DejaVuSans-64"/>
    <use x="563.496094" xlink:href="#DejaVuSans-20"/>
    <use x="595.283203" xlink:href="#DejaVuSans-2d"/>
    <use x="631.367188" xlink:href="#DejaVuSans-20"/>
    <use x="663.154297" xlink:href="#DejaVuSans-4e"/>
    <use x="737.958984" xlink:href="#DejaVuSans-20"/>
    <use x="769.746094" xlink:href="#DejaVuSans-73"/>
    <use x="821.845703" xlink:href="#DejaVuSans-74"/>
    <use x="861.054688" xlink:href="#DejaVuSans-72"/>
    <use x="902.136719" xlink:href="#DejaVuSans-65"/>
    <use x="963.660156" xlink:href="#DejaVuSans-61"/>
    <use x="1024.939453" xlink:href="#DejaVuSans-6d"/>
    <use x="1122.351562" xlink:href="#DejaVuSans-73"/>
    <use x="1174.451172" xlink:href="#DejaVuSans-20"/>
    <use x="1206.238281" xlink:href="#DejaVuSans-77"/>
    <use x="1288.025391" xlink:href="#DejaVuSans-2f"/>
    <use x="1321.716797" xlink:href="#DejaVuSans-70"/>
    <use x="1385.193359" xlink:href="#DejaVuSans-69"/>
    <use x="1412.976562" xlink:href="#DejaVuSans-6e"/>
    <use x="1476.355469" xlink:href="#DejaVuSans-67"/>
   </g>
   <!-- Bandwidth and ping plot -->
   <defs>
    <path d="M 19.671875 34.8125 
L 19.671875 8.109375 
L 35.5 8.109375 
Q 43.453125 8.109375 47.28125 11.40625 
Q 51.125 14.703125 51.125 21.484375 
Q 51.125 28.328125 47.28125 31.5625 
Q 43.453125 34.8125 35.5 34.8125 
z
M 19.671875 64.796875 
L 19.671875 42.828125 
L 34.28125 42.828125 
Q 41.5 42.828125 45.03125 45.53125 
Q 48.578125 48.25 48.578125 53.8125 
Q 48.578125 59.328125 45.03125 62.0625 
Q 41.5 64.796875 34.28125 64.796875 
z
M 9.8125 72.90625 
L 35.015625 72.90625 
Q 46.296875 72.90625 52.390625 68.21875 
Q 58.5 63.53125 58.5 54.890625 
Q 58.5 48.1875 55.375 44.234375 
Q 52.25 40.28125 46.1875 39.3125 
Q 53.46875 37.75 57.5 32.78125 
Q 61.53125 27.828125 61.53125 20.40625 
Q 61.53125 10.640625 54.890625 5.3125 
Q 48.25 0 35.984375 0 
L 9.8125 0 
z
" id="DejaVuSans-42"/>
    <path d="M 54.890625 33.015625 
L 54.890625 0 
L 45.90625 0 
L 45.90625 32.71875 
Q 45.90625 40.484375 42.875 44.328125 
Q 39.84375 48.1875 33.796875 48.1875 
Q 26.515625 48.1875 22.3125 43.546875 
Q 18.109375 38.921875 18.109375 30.90625 
L 18.109375 0 
L 9.078125 0 
L 9.078125 75.984375 
L 18.109375 75.984375 
L 18.109375 46.1875 
Q 21.34375 51.125 25.703125 53.5625 
Q 30.078125 56 35.796875 56 
Q 45.21875 56 50.046875 50.171875 
Q 54.890625 44.34375 54.890625 33.015625 
z
" id="DejaVuSans-68"/>
   </defs>
   <g transform="translate(170.885156 29.30275)scale(0.14 -0.14)">
    <use xlink:href="#DejaVuSans-42"/>
    <use x="68.603516" xlink:href="#DejaVuSans-61"/>
    <use x="129.882812" xlink:href="#DejaVuSans-6e"/>
    <use x="193.261719" xlink:href="#DejaVuSans-64"/>
    <use x="256.738281" xlink:href="#DejaVuSans-77"/>
    <use x="338.525391" xlink:href="#DejaVuSans-69"/>
    <use x="366.308594" xlink:href="#DejaVuSans-64"/>
    <use x="429.785156" xlink:href="#DejaVuSans-74"/>
    <use x="468.994141" xlink:href="#DejaVuSans-68"/>
    <use x="532.373047" xlink:href="#DejaVuSans-20"/>
    <use x="564.160156" xlink:href="#DejaVuSans-61"/>
    <use x="625.439453" xlink:href="#DejaVuSans-6e"/>
    <use x="688.818359" xlink:href="#DejaVuSans-64"/>
    <use x="752.294922" xlink:href="#DejaVuSans-20"/>
    <use x="784.082031" xlink:href="#DejaVuSans-70"/>
    <use x="847.558594" xlink:href="#DejaVuSans-69"/>
    <use x="875.341797" xlink:href="#DejaVuSans-6e"/>
    <use x="938.720703" xlink:href="#DejaVuSans-67"/>
    <use x="1002.197266" xlink:href="#DejaVuSans-20"/>
    <use x="1033.984375" xlink:href="#DejaVuSans-70"/>
    <use x="1097.460938" xlink:href="#DejaVuSans-6c"/>
    <use x="1125.244141" xlink:href="#DejaVuSans-6f"/>
    <use x="1186.425781" xlink:href="#DejaVuSans-74"/>
   </g>
   <!-- coffeecat -->
   <defs>
    <path d="M 48.78125 52.59375 
L 48.78125 44.1875 
Q 44.96875 46.296875 41.140625 47.34375 
Q 37.3125 48.390625 33.40625 48.390625 
Q 24.65625 48.390625 19.8125 42.84375 
Q 14.984375 37.3125 14.984375 27.296875 
Q 14.984375 17.28125 19.8125 11.734375 
Q 24.65625 6.203125 33.40625 6.203125 
Q 37.3125 6.203125 41.140625 7.25 
Q 44.96875 8.296875 48.78125 10.40625 
L 48.78125 2.09375 
Q 45.015625 0.34375 40.984375 -0.53125 
Q 36.96875 -1.421875 32.421875 -1.421875 
Q 20.0625 -1.421875 12.78125 6.34375 
Q 5.515625 14.109375 5.515625 27.296875 
Q 5.515625 40.671875 12.859375 48.328125 
Q 20.21875 56 33.015625 56 
Q 37.15625 56 41.109375 55.140625 
Q 45.0625 54.296875 48.78125 52.59375 
z
" id="DejaVuSans-63"/>
    <path d="M 37.109375 75.984375 
L 37.109375 68.5 
L 28.515625 68.5 
Q 23.6875 68.5 21.796875 66.546875 
Q 19.921875 64.59375 19.921875 59.515625 
L 19.921875 54.6875 
L 34.71875 54.6875 
L 34.71875 47.703125 
L 19.921875 47.703125 
L 19.921875 0 
L 10.890625 0 
L 10.890625 47.703125 
L 2.296875 47.703125 
L 2.296875 54.6875 
L 10.890625 54.6875 
L 10.890625 58.5 
Q 10.890625 67.625 15.140625 71.796875 
Q 19.390625 75.984375 28.609375 75.984375 
z
" id="DejaVuSans-66"/>
   </defs>
   <g transform="translate(224.122344 44.979688)scale(0.14 -0.14)">
    <use xlink:href="#DejaVuSans-63"/>
    <use x="54.980469" xlink:href="#DejaVuSans-6f"/>
    <use x="116.162109" xlink:href="#DejaVuSans-66"/>
    <use x="151.367188" xlink:href="#DejaVuSans-66"/>
    <use x="186.572266" xlink:href="#DejaVuSans-65"/>
    <use x="248.095703" xlink:href="#DejaVuSans-65"/>
    <use x="309.619141" xlink:href="#DejaVuSans-63"/>
    <use x="364.599609" xlink:href="#DejaVuSans-61"/>
    <use x="425.878906" xlink:href="#DejaVuSans-74"/>
   </g>
  </g>
  <g id="text_27">
   <!-- Local/remote: daves-MacBook-Air-6.local/flent-fremont.bufferbloat.net - Time: 2019-08-02T16:55:01.845524 - Length/step: 60s/0.20s -->
   <defs>
    <path d="M 9.8125 72.90625 
L 19.671875 72.90625 
L 19.671875 8.296875 
L 55.171875 8.296875 
L 55.171875 0 
L 9.8125 0 
z
" id="DejaVuSans-4c"/>
    <path d="M 11.71875 12.40625 
L 22.015625 12.40625 
L 22.015625 0 
L 11.71875 0 
z
M 11.71875 51.703125 
L 22.015625 51.703125 
L 22.015625 39.3125 
L 11.71875 39.3125 
z
" id="DejaVuSans-3a"/>
    <path d="M 2.984375 54.6875 
L 12.5 54.6875 
L 29.59375 8.796875 
L 46.6875 54.6875 
L 56.203125 54.6875 
L 35.6875 0 
L 23.484375 0 
z
" id="DejaVuSans-76"/>
    <path d="M 9.078125 75.984375 
L 18.109375 75.984375 
L 18.109375 31.109375 
L 44.921875 54.6875 
L 56.390625 54.6875 
L 27.390625 29.109375 
L 57.625 0 
L 45.90625 0 
L 18.109375 26.703125 
L 18.109375 0 
L 9.078125 0 
z
" id="DejaVuSans-6b"/>
    <path d="M 34.1875 63.1875 
L 20.796875 26.90625 
L 47.609375 26.90625 
z
M 28.609375 72.90625 
L 39.796875 72.90625 
L 67.578125 0 
L 57.328125 0 
L 50.6875 18.703125 
L 17.828125 18.703125 
L 11.1875 0 
L 0.78125 0 
z
" id="DejaVuSans-41"/>
    <path d="M 10.6875 12.40625 
L 21 12.40625 
L 21 0 
L 10.6875 0 
z
" id="DejaVuSans-2e"/>
    <path d="M 10.984375 1.515625 
L 10.984375 10.5 
Q 14.703125 8.734375 18.5 7.8125 
Q 22.3125 6.890625 25.984375 6.890625 
Q 35.75 6.890625 40.890625 13.453125 
Q 46.046875 20.015625 46.78125 33.40625 
Q 43.953125 29.203125 39.59375 26.953125 
Q 35.25 24.703125 29.984375 24.703125 
Q 19.046875 24.703125 12.671875 31.3125 
Q 6.296875 37.9375 6.296875 49.421875 
Q 6.296875 60.640625 12.9375 67.421875 
Q 19.578125 74.21875 30.609375 74.21875 
Q 43.265625 74.21875 49.921875 64.515625 
Q 56.59375 54.828125 56.59375 36.375 
Q 56.59375 19.140625 48.40625 8.859375 
Q 40.234375 -1.421875 26.421875 -1.421875 
Q 22.703125 -1.421875 18.890625 -0.6875 
Q 15.09375 0.046875 10.984375 1.515625 
z
M 30.609375 32.421875 
Q 37.25 32.421875 41.125 36.953125 
Q 45.015625 41.5 45.015625 49.421875 
Q 45.015625 57.28125 41.125 61.84375 
Q 37.25 66.40625 30.609375 66.40625 
Q 23.96875 66.40625 20.09375 61.84375 
Q 16.21875 57.28125 16.21875 49.421875 
Q 16.21875 41.5 20.09375 36.953125 
Q 23.96875 32.421875 30.609375 32.421875 
z
" id="DejaVuSans-39"/>
   </defs>
   <g transform="translate(-10.861875 353.90825)scale(0.08 -0.08)">
    <use xlink:href="#DejaVuSans-4c"/>
    <use x="55.697266" xlink:href="#DejaVuSans-6f"/>
    <use x="116.878906" xlink:href="#DejaVuSans-63"/>
    <use x="171.859375" xlink:href="#DejaVuSans-61"/>
    <use x="233.138672" xlink:href="#DejaVuSans-6c"/>
    <use x="260.921875" xlink:href="#DejaVuSans-2f"/>
    <use x="294.613281" xlink:href="#DejaVuSans-72"/>
    <use x="335.695312" xlink:href="#DejaVuSans-65"/>
    <use x="397.21875" xlink:href="#DejaVuSans-6d"/>
    <use x="494.630859" xlink:href="#DejaVuSans-6f"/>
    <use x="555.8125" xlink:href="#DejaVuSans-74"/>
    <use x="595.021484" xlink:href="#DejaVuSans-65"/>
    <use x="656.544922" xlink:href="#DejaVuSans-3a"/>
    <use x="690.236328" xlink:href="#DejaVuSans-20"/>
    <use x="722.023438" xlink:href="#DejaVuSans-64"/>
    <use x="785.5" xlink:href="#DejaVuSans-61"/>
    <use x="846.779297" xlink:href="#DejaVuSans-76"/>
    <use x="905.958984" xlink:href="#DejaVuSans-65"/>
    <use x="967.482422" xlink:href="#DejaVuSans-73"/>
    <use x="1019.582031" xlink:href="#DejaVuSans-2d"/>
    <use x="1055.666016" xlink:href="#DejaVuSans-4d"/>
    <use x="1141.945312" xlink:href="#DejaVuSans-61"/>
    <use x="1203.224609" xlink:href="#DejaVuSans-63"/>
    <use x="1258.205078" xlink:href="#DejaVuSans-42"/>
    <use x="1326.808594" xlink:href="#DejaVuSans-6f"/>
    <use x="1387.990234" xlink:href="#DejaVuSans-6f"/>
    <use x="1449.171875" xlink:href="#DejaVuSans-6b"/>
    <use x="1507.082031" xlink:href="#DejaVuSans-2d"/>
    <use x="1543.134766" xlink:href="#DejaVuSans-41"/>
    <use x="1611.542969" xlink:href="#DejaVuSans-69"/>
    <use x="1639.326172" xlink:href="#DejaVuSans-72"/>
    <use x="1680.345703" xlink:href="#DejaVuSans-2d"/>
    <use x="1716.429688" xlink:href="#DejaVuSans-36"/>
    <use x="1780.052734" xlink:href="#DejaVuSans-2e"/>
    <use x="1811.839844" xlink:href="#DejaVuSans-6c"/>
    <use x="1839.623047" xlink:href="#DejaVuSans-6f"/>
    <use x="1900.804688" xlink:href="#DejaVuSans-63"/>
    <use x="1955.785156" xlink:href="#DejaVuSans-61"/>
    <use x="2017.064453" xlink:href="#DejaVuSans-6c"/>
    <use x="2044.847656" xlink:href="#DejaVuSans-2f"/>
    <use x="2078.539062" xlink:href="#DejaVuSans-66"/>
    <use x="2113.744141" xlink:href="#DejaVuSans-6c"/>
    <use x="2141.527344" xlink:href="#DejaVuSans-65"/>
    <use x="2203.050781" xlink:href="#DejaVuSans-6e"/>
    <use x="2266.429688" xlink:href="#DejaVuSans-74"/>
    <use x="2305.638672" xlink:href="#DejaVuSans-2d"/>
    <use x="2341.722656" xlink:href="#DejaVuSans-66"/>
    <use x="2376.927734" xlink:href="#DejaVuSans-72"/>
    <use x="2418.009766" xlink:href="#DejaVuSans-65"/>
    <use x="2479.533203" xlink:href="#DejaVuSans-6d"/>
    <use x="2576.945312" xlink:href="#DejaVuSans-6f"/>
    <use x="2638.126953" xlink:href="#DejaVuSans-6e"/>
    <use x="2701.505859" xlink:href="#DejaVuSans-74"/>
    <use x="2740.714844" xlink:href="#DejaVuSans-2e"/>
    <use x="2772.501953" xlink:href="#DejaVuSans-62"/>
    <use x="2835.978516" xlink:href="#DejaVuSans-75"/>
    <use x="2899.357422" xlink:href="#DejaVuSans-66"/>
    <use x="2934.5625" xlink:href="#DejaVuSans-66"/>
    <use x="2969.767578" xlink:href="#DejaVuSans-65"/>
    <use x="3031.291016" xlink:href="#DejaVuSans-72"/>
    <use x="3072.404297" xlink:href="#DejaVuSans-62"/>
    <use x="3135.880859" xlink:href="#DejaVuSans-6c"/>
    <use x="3163.664062" xlink:href="#DejaVuSans-6f"/>
    <use x="3224.845703" xlink:href="#DejaVuSans-61"/>
    <use x="3286.125" xlink:href="#DejaVuSans-74"/>
    <use x="3325.333984" xlink:href="#DejaVuSans-2e"/>
    <use x="3357.121094" xlink:href="#DejaVuSans-6e"/>
    <use x="3420.5" xlink:href="#DejaVuSans-65"/>
    <use x="3482.023438" xlink:href="#DejaVuSans-74"/>
    <use x="3521.232422" xlink:href="#DejaVuSans-20"/>
    <use x="3553.019531" xlink:href="#DejaVuSans-2d"/>
    <use x="3589.103516" xlink:href="#DejaVuSans-20"/>
    <use x="3620.890625" xlink:href="#DejaVuSans-54"/>
    <use x="3681.927734" xlink:href="#DejaVuSans-69"/>
    <use x="3709.710938" xlink:href="#DejaVuSans-6d"/>
    <use x="3807.123047" xlink:href="#DejaVuSans-65"/>
    <use x="3868.646484" xlink:href="#DejaVuSans-3a"/>
    <use x="3902.337891" xlink:href="#DejaVuSans-20"/>
    <use x="3934.125" xlink:href="#DejaVuSans-32"/>
    <use x="3997.748047" xlink:href="#DejaVuSans-30"/>
    <use x="4061.371094" xlink:href="#DejaVuSans-31"/>
    <use x="4124.994141" xlink:href="#DejaVuSans-39"/>
    <use x="4188.617188" xlink:href="#DejaVuSans-2d"/>
    <use x="4224.701172" xlink:href="#DejaVuSans-30"/>
    <use x="4288.324219" xlink:href="#DejaVuSans-38"/>
    <use x="4351.947266" xlink:href="#DejaVuSans-2d"/>
    <use x="4388.03125" xlink:href="#DejaVuSans-30"/>
    <use x="4451.654297" xlink:href="#DejaVuSans-32"/>
    <use x="4515.277344" xlink:href="#DejaVuSans-54"/>
    <use x="4576.361328" xlink:href="#DejaVuSans-31"/>
    <use x="4639.984375" xlink:href="#DejaVuSans-36"/>
    <use x="4703.607422" xlink:href="#DejaVuSans-3a"/>
    <use x="4737.298828" xlink:href="#DejaVuSans-35"/>
    <use x="4800.921875" xlink:href="#DejaVuSans-35"/>
    <use x="4864.544922" xlink:href="#DejaVuSans-3a"/>
    <use x="4898.236328" xlink:href="#DejaVuSans-30"/>
    <use x="4961.859375" xlink:href="#DejaVuSans-31"/>
    <use x="5025.482422" xlink:href="#DejaVuSans-2e"/>
    <use x="5057.269531" xlink:href="#DejaVuSans-38"/>
    <use x="5120.892578" xlink:href="#DejaVuSans-34"/>
    <use x="5184.515625" xlink:href="#DejaVuSans-35"/>
    <use x="5248.138672" xlink:href="#DejaVuSans-35"/>
    <use x="5311.761719" xlink:href="#DejaVuSans-32"/>
    <use x="5375.384766" xlink:href="#DejaVuSans-34"/>
    <use x="5439.007812" xlink:href="#DejaVuSans-20"/>
    <use x="5470.794922" xlink:href="#DejaVuSans-2d"/>
    <use x="5506.878906" xlink:href="#DejaVuSans-20"/>
    <use x="5538.666016" xlink:href="#DejaVuSans-4c"/>
    <use x="5594.363281" xlink:href="#DejaVuSans-65"/>
    <use x="5655.886719" xlink:href="#DejaVuSans-6e"/>
    <use x="5719.265625" xlink:href="#DejaVuSans-67"/>
    <use x="5782.742188" xlink:href="#DejaVuSans-74"/>
    <use x="5821.951172" xlink:href="#DejaVuSans-68"/>
    <use x="5885.330078" xlink:href="#DejaVuSans-2f"/>
    <use x="5919.021484" xlink:href="#DejaVuSans-73"/>
    <use x="5971.121094" xlink:href="#DejaVuSans-74"/>
    <use x="6010.330078" xlink:href="#DejaVuSans-65"/>
    <use x="6071.853516" xlink:href="#DejaVuSans-70"/>
    <use x="6135.330078" xlink:href="#DejaVuSans-3a"/>
    <use x="6169.021484" xlink:href="#DejaVuSans-20"/>
    <use x="6200.808594" xlink:href="#DejaVuSans-36"/>
    <use x="6264.431641" xlink:href="#DejaVuSans-30"/>
    <use x="6328.054688" xlink:href="#DejaVuSans-73"/>
    <use x="6380.154297" xlink:href="#DejaVuSans-2f"/>
    <use x="6413.845703" xlink:href="#DejaVuSans-30"/>
    <use x="6477.46875" xlink:href="#DejaVuSans-2e"/>
    <use x="6509.255859" xlink:href="#DejaVuSans-32"/>
    <use x="6572.878906" xlink:href="#DejaVuSans-30"/>
    <use x="6636.501953" xlink:href="#DejaVuSans-73"/>
   </g>
  </g>
 </g>
 <defs>
  <clipPath id="p786c409d61">
   <rect height="276.0912" width="328.086" x="64.17" y="43.0272"/>
  </clipPath>
 </defs>
</svg>
