<?xml version="1.0" encoding="utf-8" standalone="no"?>
<!DOCTYPE svg PUBLIC "-//W3C//DTD SVG 1.1//EN"
  "http://www.w3.org/Graphics/SVG/1.1/DTD/svg11.dtd">
<!-- Created with matplotlib (http://matplotlib.org/) -->
<svg height="385pt" version="1.1" viewBox="0 0 1402 385" width="1402pt" xmlns="http://www.w3.org/2000/svg" xmlns:xlink="http://www.w3.org/1999/xlink">
 <defs>
  <style type="text/css">
*{stroke-linecap:butt;stroke-linejoin:round;stroke-miterlimit:100000;}
  </style>
 </defs>
 <g id="figure_1">
  <g id="patch_1">
   <path d="M 0 385.2 
L 1402.2 385.2 
L 1402.2 0 
L 0 0 
z
" style="fill:#ffffff;"/>
  </g>
  <g id="axes_1">
   <g id="patch_2">
    <path d="M 175.275 346.68 
L 1178.2944 346.68 
L 1178.2944 38.52 
L 175.275 38.52 
z
" style="fill:#eaeaf2;"/>
   </g>
   <g id="matplotlib.axis_1">
    <g id="xtick_1">
     <g id="line2d_1">
      <defs>
       <path d="M 0 0 
L 0 0 
" id="m078e52bcdd" style="stroke:#262626;stroke-width:0.5;"/>
      </defs>
      <g>
       <use style="fill:#262626;stroke:#262626;stroke-width:0.5;" x="175.275" xlink:href="#m078e52bcdd" y="346.68"/>
      </g>
     </g>
     <g id="line2d_2">
      <g>
       <use style="fill:#262626;stroke:#262626;stroke-width:0.5;" x="175.275" xlink:href="#m078e52bcdd" y="38.52"/>
      </g>
     </g>
     <g id="text_1">
      <!-- 0 -->
      <defs>
       <path d="M 31.78125 66.40625 
Q 24.171875 66.40625 20.328125 58.90625 
Q 16.5 51.421875 16.5 36.375 
Q 16.5 21.390625 20.328125 13.890625 
Q 24.171875 6.390625 31.78125 6.390625 
Q 39.453125 6.390625 43.28125 13.890625 
Q 47.125 21.390625 47.125 36.375 
Q 47.125 51.421875 43.28125 58.90625 
Q 39.453125 66.40625 31.78125 66.40625 
M 31.78125 74.21875 
Q 44.046875 74.21875 50.515625 64.515625 
Q 56.984375 54.828125 56.984375 36.375 
Q 56.984375 17.96875 50.515625 8.265625 
Q 44.046875 -1.421875 31.78125 -1.421875 
Q 19.53125 -1.421875 13.0625 8.265625 
Q 6.59375 17.96875 6.59375 36.375 
Q 6.59375 54.828125 13.0625 64.515625 
Q 19.53125 74.21875 31.78125 74.21875 
" id="BitstreamVeraSans-Roman-30"/>
      </defs>
      <g style="fill:#262626;" transform="translate(171.4575 359.798125)scale(0.12 -0.12)">
       <use xlink:href="#BitstreamVeraSans-Roman-30"/>
      </g>
     </g>
    </g>
    <g id="xtick_2">
     <g id="line2d_3">
      <g>
       <use style="fill:#262626;stroke:#262626;stroke-width:0.5;" x="318.563485714" xlink:href="#m078e52bcdd" y="346.68"/>
      </g>
     </g>
     <g id="line2d_4">
      <g>
       <use style="fill:#262626;stroke:#262626;stroke-width:0.5;" x="318.563485714" xlink:href="#m078e52bcdd" y="38.52"/>
      </g>
     </g>
     <g id="text_2">
      <!-- 10 -->
      <defs>
       <path d="M 12.40625 8.296875 
L 28.515625 8.296875 
L 28.515625 63.921875 
L 10.984375 60.40625 
L 10.984375 69.390625 
L 28.421875 72.90625 
L 38.28125 72.90625 
L 38.28125 8.296875 
L 54.390625 8.296875 
L 54.390625 0 
L 12.40625 0 
z
" id="BitstreamVeraSans-Roman-31"/>
      </defs>
      <g style="fill:#262626;" transform="translate(310.928485714 359.798125)scale(0.12 -0.12)">
       <use xlink:href="#BitstreamVeraSans-Roman-31"/>
       <use x="63.623046875" xlink:href="#BitstreamVeraSans-Roman-30"/>
      </g>
     </g>
    </g>
    <g id="xtick_3">
     <g id="line2d_5">
      <g>
       <use style="fill:#262626;stroke:#262626;stroke-width:0.5;" x="461.851971429" xlink:href="#m078e52bcdd" y="346.68"/>
      </g>
     </g>
     <g id="line2d_6">
      <g>
       <use style="fill:#262626;stroke:#262626;stroke-width:0.5;" x="461.851971429" xlink:href="#m078e52bcdd" y="38.52"/>
      </g>
     </g>
     <g id="text_3">
      <!-- 20 -->
      <defs>
       <path d="M 19.1875 8.296875 
L 53.609375 8.296875 
L 53.609375 0 
L 7.328125 0 
L 7.328125 8.296875 
Q 12.9375 14.109375 22.625 23.890625 
Q 32.328125 33.6875 34.8125 36.53125 
Q 39.546875 41.84375 41.421875 45.53125 
Q 43.3125 49.21875 43.3125 52.78125 
Q 43.3125 58.59375 39.234375 62.25 
Q 35.15625 65.921875 28.609375 65.921875 
Q 23.96875 65.921875 18.8125 64.3125 
Q 13.671875 62.703125 7.8125 59.421875 
L 7.8125 69.390625 
Q 13.765625 71.78125 18.9375 73 
Q 24.125 74.21875 28.421875 74.21875 
Q 39.75 74.21875 46.484375 68.546875 
Q 53.21875 62.890625 53.21875 53.421875 
Q 53.21875 48.921875 51.53125 44.890625 
Q 49.859375 40.875 45.40625 35.40625 
Q 44.1875 33.984375 37.640625 27.21875 
Q 31.109375 20.453125 19.1875 8.296875 
" id="BitstreamVeraSans-Roman-32"/>
      </defs>
      <g style="fill:#262626;" transform="translate(454.216971429 359.798125)scale(0.12 -0.12)">
       <use xlink:href="#BitstreamVeraSans-Roman-32"/>
       <use x="63.623046875" xlink:href="#BitstreamVeraSans-Roman-30"/>
      </g>
     </g>
    </g>
    <g id="xtick_4">
     <g id="line2d_7">
      <g>
       <use style="fill:#262626;stroke:#262626;stroke-width:0.5;" x="605.140457143" xlink:href="#m078e52bcdd" y="346.68"/>
      </g>
     </g>
     <g id="line2d_8">
      <g>
       <use style="fill:#262626;stroke:#262626;stroke-width:0.5;" x="605.140457143" xlink:href="#m078e52bcdd" y="38.52"/>
      </g>
     </g>
     <g id="text_4">
      <!-- 30 -->
      <defs>
       <path d="M 40.578125 39.3125 
Q 47.65625 37.796875 51.625 33 
Q 55.609375 28.21875 55.609375 21.1875 
Q 55.609375 10.40625 48.1875 4.484375 
Q 40.765625 -1.421875 27.09375 -1.421875 
Q 22.515625 -1.421875 17.65625 -0.515625 
Q 12.796875 0.390625 7.625 2.203125 
L 7.625 11.71875 
Q 11.71875 9.328125 16.59375 8.109375 
Q 21.484375 6.890625 26.8125 6.890625 
Q 36.078125 6.890625 40.9375 10.546875 
Q 45.796875 14.203125 45.796875 21.1875 
Q 45.796875 27.640625 41.28125 31.265625 
Q 36.765625 34.90625 28.71875 34.90625 
L 20.21875 34.90625 
L 20.21875 43.015625 
L 29.109375 43.015625 
Q 36.375 43.015625 40.234375 45.921875 
Q 44.09375 48.828125 44.09375 54.296875 
Q 44.09375 59.90625 40.109375 62.90625 
Q 36.140625 65.921875 28.71875 65.921875 
Q 24.65625 65.921875 20.015625 65.03125 
Q 15.375 64.15625 9.8125 62.3125 
L 9.8125 71.09375 
Q 15.4375 72.65625 20.34375 73.4375 
Q 25.25 74.21875 29.59375 74.21875 
Q 40.828125 74.21875 47.359375 69.109375 
Q 53.90625 64.015625 53.90625 55.328125 
Q 53.90625 49.265625 50.4375 45.09375 
Q 46.96875 40.921875 40.578125 39.3125 
" id="BitstreamVeraSans-Roman-33"/>
      </defs>
      <g style="fill:#262626;" transform="translate(597.505457143 359.798125)scale(0.12 -0.12)">
       <use xlink:href="#BitstreamVeraSans-Roman-33"/>
       <use x="63.623046875" xlink:href="#BitstreamVeraSans-Roman-30"/>
      </g>
     </g>
    </g>
    <g id="xtick_5">
     <g id="line2d_9">
      <g>
       <use style="fill:#262626;stroke:#262626;stroke-width:0.5;" x="748.428942857" xlink:href="#m078e52bcdd" y="346.68"/>
      </g>
     </g>
     <g id="line2d_10">
      <g>
       <use style="fill:#262626;stroke:#262626;stroke-width:0.5;" x="748.428942857" xlink:href="#m078e52bcdd" y="38.52"/>
      </g>
     </g>
     <g id="text_5">
      <!-- 40 -->
      <defs>
       <path d="M 37.796875 64.3125 
L 12.890625 25.390625 
L 37.796875 25.390625 
z
M 35.203125 72.90625 
L 47.609375 72.90625 
L 47.609375 25.390625 
L 58.015625 25.390625 
L 58.015625 17.1875 
L 47.609375 17.1875 
L 47.609375 0 
L 37.796875 0 
L 37.796875 17.1875 
L 4.890625 17.1875 
L 4.890625 26.703125 
z
" id="BitstreamVeraSans-Roman-34"/>
      </defs>
      <g style="fill:#262626;" transform="translate(740.793942857 359.798125)scale(0.12 -0.12)">
       <use xlink:href="#BitstreamVeraSans-Roman-34"/>
       <use x="63.623046875" xlink:href="#BitstreamVeraSans-Roman-30"/>
      </g>
     </g>
    </g>
    <g id="xtick_6">
     <g id="line2d_11">
      <g>
       <use style="fill:#262626;stroke:#262626;stroke-width:0.5;" x="891.717428571" xlink:href="#m078e52bcdd" y="346.68"/>
      </g>
     </g>
     <g id="line2d_12">
      <g>
       <use style="fill:#262626;stroke:#262626;stroke-width:0.5;" x="891.717428571" xlink:href="#m078e52bcdd" y="38.52"/>
      </g>
     </g>
     <g id="text_6">
      <!-- 50 -->
      <defs>
       <path d="M 10.796875 72.90625 
L 49.515625 72.90625 
L 49.515625 64.59375 
L 19.828125 64.59375 
L 19.828125 46.734375 
Q 21.96875 47.46875 24.109375 47.828125 
Q 26.265625 48.1875 28.421875 48.1875 
Q 40.625 48.1875 47.75 41.5 
Q 54.890625 34.8125 54.890625 23.390625 
Q 54.890625 11.625 47.5625 5.09375 
Q 40.234375 -1.421875 26.90625 -1.421875 
Q 22.3125 -1.421875 17.546875 -0.640625 
Q 12.796875 0.140625 7.71875 1.703125 
L 7.71875 11.625 
Q 12.109375 9.234375 16.796875 8.0625 
Q 21.484375 6.890625 26.703125 6.890625 
Q 35.15625 6.890625 40.078125 11.328125 
Q 45.015625 15.765625 45.015625 23.390625 
Q 45.015625 31 40.078125 35.4375 
Q 35.15625 39.890625 26.703125 39.890625 
Q 22.75 39.890625 18.8125 39.015625 
Q 14.890625 38.140625 10.796875 36.28125 
z
" id="BitstreamVeraSans-Roman-35"/>
      </defs>
      <g style="fill:#262626;" transform="translate(884.082428571 359.798125)scale(0.12 -0.12)">
       <use xlink:href="#BitstreamVeraSans-Roman-35"/>
       <use x="63.623046875" xlink:href="#BitstreamVeraSans-Roman-30"/>
      </g>
     </g>
    </g>
    <g id="xtick_7">
     <g id="line2d_13">
      <g>
       <use style="fill:#262626;stroke:#262626;stroke-width:0.5;" x="1035.00591429" xlink:href="#m078e52bcdd" y="346.68"/>
      </g>
     </g>
     <g id="line2d_14">
      <g>
       <use style="fill:#262626;stroke:#262626;stroke-width:0.5;" x="1035.00591429" xlink:href="#m078e52bcdd" y="38.52"/>
      </g>
     </g>
     <g id="text_7">
      <!-- 60 -->
      <defs>
       <path d="M 33.015625 40.375 
Q 26.375 40.375 22.484375 35.828125 
Q 18.609375 31.296875 18.609375 23.390625 
Q 18.609375 15.53125 22.484375 10.953125 
Q 26.375 6.390625 33.015625 6.390625 
Q 39.65625 6.390625 43.53125 10.953125 
Q 47.40625 15.53125 47.40625 23.390625 
Q 47.40625 31.296875 43.53125 35.828125 
Q 39.65625 40.375 33.015625 40.375 
M 52.59375 71.296875 
L 52.59375 62.3125 
Q 48.875 64.0625 45.09375 64.984375 
Q 41.3125 65.921875 37.59375 65.921875 
Q 27.828125 65.921875 22.671875 59.328125 
Q 17.53125 52.734375 16.796875 39.40625 
Q 19.671875 43.65625 24.015625 45.921875 
Q 28.375 48.1875 33.59375 48.1875 
Q 44.578125 48.1875 50.953125 41.515625 
Q 57.328125 34.859375 57.328125 23.390625 
Q 57.328125 12.15625 50.6875 5.359375 
Q 44.046875 -1.421875 33.015625 -1.421875 
Q 20.359375 -1.421875 13.671875 8.265625 
Q 6.984375 17.96875 6.984375 36.375 
Q 6.984375 53.65625 15.1875 63.9375 
Q 23.390625 74.21875 37.203125 74.21875 
Q 40.921875 74.21875 44.703125 73.484375 
Q 48.484375 72.75 52.59375 71.296875 
" id="BitstreamVeraSans-Roman-36"/>
      </defs>
      <g style="fill:#262626;" transform="translate(1027.37091429 359.798125)scale(0.12 -0.12)">
       <use xlink:href="#BitstreamVeraSans-Roman-36"/>
       <use x="63.623046875" xlink:href="#BitstreamVeraSans-Roman-30"/>
      </g>
     </g>
    </g>
    <g id="xtick_8">
     <g id="line2d_15">
      <g>
       <use style="fill:#262626;stroke:#262626;stroke-width:0.5;" x="1178.2944" xlink:href="#m078e52bcdd" y="346.68"/>
      </g>
     </g>
     <g id="line2d_16">
      <g>
       <use style="fill:#262626;stroke:#262626;stroke-width:0.5;" x="1178.2944" xlink:href="#m078e52bcdd" y="38.52"/>
      </g>
     </g>
     <g id="text_8">
      <!-- 70 -->
      <defs>
       <path d="M 8.203125 72.90625 
L 55.078125 72.90625 
L 55.078125 68.703125 
L 28.609375 0 
L 18.3125 0 
L 43.21875 64.59375 
L 8.203125 64.59375 
z
" id="BitstreamVeraSans-Roman-37"/>
      </defs>
      <g style="fill:#262626;" transform="translate(1170.6594 359.798125)scale(0.12 -0.12)">
       <use xlink:href="#BitstreamVeraSans-Roman-37"/>
       <use x="63.623046875" xlink:href="#BitstreamVeraSans-Roman-30"/>
      </g>
     </g>
    </g>
    <g id="xtick_9">
     <g id="line2d_17">
      <g>
       <use style="fill:#262626;stroke:#262626;stroke-width:0.5;" x="203.932697143" xlink:href="#m078e52bcdd" y="346.68"/>
      </g>
     </g>
     <g id="line2d_18">
      <g>
       <use style="fill:#262626;stroke:#262626;stroke-width:0.5;" x="203.932697143" xlink:href="#m078e52bcdd" y="38.52"/>
      </g>
     </g>
    </g>
    <g id="xtick_10">
     <g id="line2d_19">
      <g>
       <use style="fill:#262626;stroke:#262626;stroke-width:0.5;" x="232.590394286" xlink:href="#m078e52bcdd" y="346.68"/>
      </g>
     </g>
     <g id="line2d_20">
      <g>
       <use style="fill:#262626;stroke:#262626;stroke-width:0.5;" x="232.590394286" xlink:href="#m078e52bcdd" y="38.52"/>
      </g>
     </g>
    </g>
    <g id="xtick_11">
     <g id="line2d_21">
      <g>
       <use style="fill:#262626;stroke:#262626;stroke-width:0.5;" x="261.248091429" xlink:href="#m078e52bcdd" y="346.68"/>
      </g>
     </g>
     <g id="line2d_22">
      <g>
       <use style="fill:#262626;stroke:#262626;stroke-width:0.5;" x="261.248091429" xlink:href="#m078e52bcdd" y="38.52"/>
      </g>
     </g>
    </g>
    <g id="xtick_12">
     <g id="line2d_23">
      <g>
       <use style="fill:#262626;stroke:#262626;stroke-width:0.5;" x="289.905788571" xlink:href="#m078e52bcdd" y="346.68"/>
      </g>
     </g>
     <g id="line2d_24">
      <g>
       <use style="fill:#262626;stroke:#262626;stroke-width:0.5;" x="289.905788571" xlink:href="#m078e52bcdd" y="38.52"/>
      </g>
     </g>
    </g>
    <g id="xtick_13">
     <g id="line2d_25">
      <g>
       <use style="fill:#262626;stroke:#262626;stroke-width:0.5;" x="347.221182857" xlink:href="#m078e52bcdd" y="346.68"/>
      </g>
     </g>
     <g id="line2d_26">
      <g>
       <use style="fill:#262626;stroke:#262626;stroke-width:0.5;" x="347.221182857" xlink:href="#m078e52bcdd" y="38.52"/>
      </g>
     </g>
    </g>
    <g id="xtick_14">
     <g id="line2d_27">
      <g>
       <use style="fill:#262626;stroke:#262626;stroke-width:0.5;" x="375.87888" xlink:href="#m078e52bcdd" y="346.68"/>
      </g>
     </g>
     <g id="line2d_28">
      <g>
       <use style="fill:#262626;stroke:#262626;stroke-width:0.5;" x="375.87888" xlink:href="#m078e52bcdd" y="38.52"/>
      </g>
     </g>
    </g>
    <g id="xtick_15">
     <g id="line2d_29">
      <g>
       <use style="fill:#262626;stroke:#262626;stroke-width:0.5;" x="404.536577143" xlink:href="#m078e52bcdd" y="346.68"/>
      </g>
     </g>
     <g id="line2d_30">
      <g>
       <use style="fill:#262626;stroke:#262626;stroke-width:0.5;" x="404.536577143" xlink:href="#m078e52bcdd" y="38.52"/>
      </g>
     </g>
    </g>
    <g id="xtick_16">
     <g id="line2d_31">
      <g>
       <use style="fill:#262626;stroke:#262626;stroke-width:0.5;" x="433.194274286" xlink:href="#m078e52bcdd" y="346.68"/>
      </g>
     </g>
     <g id="line2d_32">
      <g>
       <use style="fill:#262626;stroke:#262626;stroke-width:0.5;" x="433.194274286" xlink:href="#m078e52bcdd" y="38.52"/>
      </g>
     </g>
    </g>
    <g id="xtick_17">
     <g id="line2d_33">
      <g>
       <use style="fill:#262626;stroke:#262626;stroke-width:0.5;" x="490.509668571" xlink:href="#m078e52bcdd" y="346.68"/>
      </g>
     </g>
     <g id="line2d_34">
      <g>
       <use style="fill:#262626;stroke:#262626;stroke-width:0.5;" x="490.509668571" xlink:href="#m078e52bcdd" y="38.52"/>
      </g>
     </g>
    </g>
    <g id="xtick_18">
     <g id="line2d_35">
      <g>
       <use style="fill:#262626;stroke:#262626;stroke-width:0.5;" x="519.167365714" xlink:href="#m078e52bcdd" y="346.68"/>
      </g>
     </g>
     <g id="line2d_36">
      <g>
       <use style="fill:#262626;stroke:#262626;stroke-width:0.5;" x="519.167365714" xlink:href="#m078e52bcdd" y="38.52"/>
      </g>
     </g>
    </g>
    <g id="xtick_19">
     <g id="line2d_37">
      <g>
       <use style="fill:#262626;stroke:#262626;stroke-width:0.5;" x="547.825062857" xlink:href="#m078e52bcdd" y="346.68"/>
      </g>
     </g>
     <g id="line2d_38">
      <g>
       <use style="fill:#262626;stroke:#262626;stroke-width:0.5;" x="547.825062857" xlink:href="#m078e52bcdd" y="38.52"/>
      </g>
     </g>
    </g>
    <g id="xtick_20">
     <g id="line2d_39">
      <g>
       <use style="fill:#262626;stroke:#262626;stroke-width:0.5;" x="576.48276" xlink:href="#m078e52bcdd" y="346.68"/>
      </g>
     </g>
     <g id="line2d_40">
      <g>
       <use style="fill:#262626;stroke:#262626;stroke-width:0.5;" x="576.48276" xlink:href="#m078e52bcdd" y="38.52"/>
      </g>
     </g>
    </g>
    <g id="xtick_21">
     <g id="line2d_41">
      <g>
       <use style="fill:#262626;stroke:#262626;stroke-width:0.5;" x="633.798154286" xlink:href="#m078e52bcdd" y="346.68"/>
      </g>
     </g>
     <g id="line2d_42">
      <g>
       <use style="fill:#262626;stroke:#262626;stroke-width:0.5;" x="633.798154286" xlink:href="#m078e52bcdd" y="38.52"/>
      </g>
     </g>
    </g>
    <g id="xtick_22">
     <g id="line2d_43">
      <g>
       <use style="fill:#262626;stroke:#262626;stroke-width:0.5;" x="662.455851429" xlink:href="#m078e52bcdd" y="346.68"/>
      </g>
     </g>
     <g id="line2d_44">
      <g>
       <use style="fill:#262626;stroke:#262626;stroke-width:0.5;" x="662.455851429" xlink:href="#m078e52bcdd" y="38.52"/>
      </g>
     </g>
    </g>
    <g id="xtick_23">
     <g id="line2d_45">
      <g>
       <use style="fill:#262626;stroke:#262626;stroke-width:0.5;" x="691.113548571" xlink:href="#m078e52bcdd" y="346.68"/>
      </g>
     </g>
     <g id="line2d_46">
      <g>
       <use style="fill:#262626;stroke:#262626;stroke-width:0.5;" x="691.113548571" xlink:href="#m078e52bcdd" y="38.52"/>
      </g>
     </g>
    </g>
    <g id="xtick_24">
     <g id="line2d_47">
      <g>
       <use style="fill:#262626;stroke:#262626;stroke-width:0.5;" x="719.771245714" xlink:href="#m078e52bcdd" y="346.68"/>
      </g>
     </g>
     <g id="line2d_48">
      <g>
       <use style="fill:#262626;stroke:#262626;stroke-width:0.5;" x="719.771245714" xlink:href="#m078e52bcdd" y="38.52"/>
      </g>
     </g>
    </g>
    <g id="xtick_25">
     <g id="line2d_49">
      <g>
       <use style="fill:#262626;stroke:#262626;stroke-width:0.5;" x="777.08664" xlink:href="#m078e52bcdd" y="346.68"/>
      </g>
     </g>
     <g id="line2d_50">
      <g>
       <use style="fill:#262626;stroke:#262626;stroke-width:0.5;" x="777.08664" xlink:href="#m078e52bcdd" y="38.52"/>
      </g>
     </g>
    </g>
    <g id="xtick_26">
     <g id="line2d_51">
      <g>
       <use style="fill:#262626;stroke:#262626;stroke-width:0.5;" x="805.744337143" xlink:href="#m078e52bcdd" y="346.68"/>
      </g>
     </g>
     <g id="line2d_52">
      <g>
       <use style="fill:#262626;stroke:#262626;stroke-width:0.5;" x="805.744337143" xlink:href="#m078e52bcdd" y="38.52"/>
      </g>
     </g>
    </g>
    <g id="xtick_27">
     <g id="line2d_53">
      <g>
       <use style="fill:#262626;stroke:#262626;stroke-width:0.5;" x="834.402034286" xlink:href="#m078e52bcdd" y="346.68"/>
      </g>
     </g>
     <g id="line2d_54">
      <g>
       <use style="fill:#262626;stroke:#262626;stroke-width:0.5;" x="834.402034286" xlink:href="#m078e52bcdd" y="38.52"/>
      </g>
     </g>
    </g>
    <g id="xtick_28">
     <g id="line2d_55">
      <g>
       <use style="fill:#262626;stroke:#262626;stroke-width:0.5;" x="863.059731429" xlink:href="#m078e52bcdd" y="346.68"/>
      </g>
     </g>
     <g id="line2d_56">
      <g>
       <use style="fill:#262626;stroke:#262626;stroke-width:0.5;" x="863.059731429" xlink:href="#m078e52bcdd" y="38.52"/>
      </g>
     </g>
    </g>
    <g id="xtick_29">
     <g id="line2d_57">
      <g>
       <use style="fill:#262626;stroke:#262626;stroke-width:0.5;" x="920.375125714" xlink:href="#m078e52bcdd" y="346.68"/>
      </g>
     </g>
     <g id="line2d_58">
      <g>
       <use style="fill:#262626;stroke:#262626;stroke-width:0.5;" x="920.375125714" xlink:href="#m078e52bcdd" y="38.52"/>
      </g>
     </g>
    </g>
    <g id="xtick_30">
     <g id="line2d_59">
      <g>
       <use style="fill:#262626;stroke:#262626;stroke-width:0.5;" x="949.032822857" xlink:href="#m078e52bcdd" y="346.68"/>
      </g>
     </g>
     <g id="line2d_60">
      <g>
       <use style="fill:#262626;stroke:#262626;stroke-width:0.5;" x="949.032822857" xlink:href="#m078e52bcdd" y="38.52"/>
      </g>
     </g>
    </g>
    <g id="xtick_31">
     <g id="line2d_61">
      <g>
       <use style="fill:#262626;stroke:#262626;stroke-width:0.5;" x="977.69052" xlink:href="#m078e52bcdd" y="346.68"/>
      </g>
     </g>
     <g id="line2d_62">
      <g>
       <use style="fill:#262626;stroke:#262626;stroke-width:0.5;" x="977.69052" xlink:href="#m078e52bcdd" y="38.52"/>
      </g>
     </g>
    </g>
    <g id="xtick_32">
     <g id="line2d_63">
      <g>
       <use style="fill:#262626;stroke:#262626;stroke-width:0.5;" x="1006.34821714" xlink:href="#m078e52bcdd" y="346.68"/>
      </g>
     </g>
     <g id="line2d_64">
      <g>
       <use style="fill:#262626;stroke:#262626;stroke-width:0.5;" x="1006.34821714" xlink:href="#m078e52bcdd" y="38.52"/>
      </g>
     </g>
    </g>
    <g id="xtick_33">
     <g id="line2d_65">
      <g>
       <use style="fill:#262626;stroke:#262626;stroke-width:0.5;" x="1063.66361143" xlink:href="#m078e52bcdd" y="346.68"/>
      </g>
     </g>
     <g id="line2d_66">
      <g>
       <use style="fill:#262626;stroke:#262626;stroke-width:0.5;" x="1063.66361143" xlink:href="#m078e52bcdd" y="38.52"/>
      </g>
     </g>
    </g>
    <g id="xtick_34">
     <g id="line2d_67">
      <g>
       <use style="fill:#262626;stroke:#262626;stroke-width:0.5;" x="1092.32130857" xlink:href="#m078e52bcdd" y="346.68"/>
      </g>
     </g>
     <g id="line2d_68">
      <g>
       <use style="fill:#262626;stroke:#262626;stroke-width:0.5;" x="1092.32130857" xlink:href="#m078e52bcdd" y="38.52"/>
      </g>
     </g>
    </g>
    <g id="xtick_35">
     <g id="line2d_69">
      <g>
       <use style="fill:#262626;stroke:#262626;stroke-width:0.5;" x="1120.97900571" xlink:href="#m078e52bcdd" y="346.68"/>
      </g>
     </g>
     <g id="line2d_70">
      <g>
       <use style="fill:#262626;stroke:#262626;stroke-width:0.5;" x="1120.97900571" xlink:href="#m078e52bcdd" y="38.52"/>
      </g>
     </g>
    </g>
    <g id="xtick_36">
     <g id="line2d_71">
      <g>
       <use style="fill:#262626;stroke:#262626;stroke-width:0.5;" x="1149.63670286" xlink:href="#m078e52bcdd" y="346.68"/>
      </g>
     </g>
     <g id="line2d_72">
      <g>
       <use style="fill:#262626;stroke:#262626;stroke-width:0.5;" x="1149.63670286" xlink:href="#m078e52bcdd" y="38.52"/>
      </g>
     </g>
    </g>
    <g id="text_9">
     <!-- Time (s) -->
     <defs>
      <path id="BitstreamVeraSans-Roman-20"/>
      <path d="M 8.015625 75.875 
L 15.828125 75.875 
Q 23.140625 64.359375 26.78125 53.3125 
Q 30.421875 42.28125 30.421875 31.390625 
Q 30.421875 20.453125 26.78125 9.375 
Q 23.140625 -1.703125 15.828125 -13.1875 
L 8.015625 -13.1875 
Q 14.5 -2 17.703125 9.0625 
Q 20.90625 20.125 20.90625 31.390625 
Q 20.90625 42.671875 17.703125 53.65625 
Q 14.5 64.65625 8.015625 75.875 
" id="BitstreamVeraSans-Roman-29"/>
      <path d="M 31 75.875 
Q 24.46875 64.65625 21.28125 53.65625 
Q 18.109375 42.671875 18.109375 31.390625 
Q 18.109375 20.125 21.3125 9.0625 
Q 24.515625 -2 31 -13.1875 
L 23.1875 -13.1875 
Q 15.875 -1.703125 12.234375 9.375 
Q 8.59375 20.453125 8.59375 31.390625 
Q 8.59375 42.28125 12.203125 53.3125 
Q 15.828125 64.359375 23.1875 75.875 
z
" id="BitstreamVeraSans-Roman-28"/>
      <path d="M 9.421875 54.6875 
L 18.40625 54.6875 
L 18.40625 0 
L 9.421875 0 
z
M 9.421875 75.984375 
L 18.40625 75.984375 
L 18.40625 64.59375 
L 9.421875 64.59375 
z
" id="BitstreamVeraSans-Roman-69"/>
      <path d="M 52 44.1875 
Q 55.375 50.25 60.0625 53.125 
Q 64.75 56 71.09375 56 
Q 79.640625 56 84.28125 50.015625 
Q 88.921875 44.046875 88.921875 33.015625 
L 88.921875 0 
L 79.890625 0 
L 79.890625 32.71875 
Q 79.890625 40.578125 77.09375 44.375 
Q 74.3125 48.1875 68.609375 48.1875 
Q 61.625 48.1875 57.5625 43.546875 
Q 53.515625 38.921875 53.515625 30.90625 
L 53.515625 0 
L 44.484375 0 
L 44.484375 32.71875 
Q 44.484375 40.625 41.703125 44.40625 
Q 38.921875 48.1875 33.109375 48.1875 
Q 26.21875 48.1875 22.15625 43.53125 
Q 18.109375 38.875 18.109375 30.90625 
L 18.109375 0 
L 9.078125 0 
L 9.078125 54.6875 
L 18.109375 54.6875 
L 18.109375 46.1875 
Q 21.1875 51.21875 25.484375 53.609375 
Q 29.78125 56 35.6875 56 
Q 41.65625 56 45.828125 52.96875 
Q 50 49.953125 52 44.1875 
" id="BitstreamVeraSans-Roman-6d"/>
      <path d="M 56.203125 29.59375 
L 56.203125 25.203125 
L 14.890625 25.203125 
Q 15.484375 15.921875 20.484375 11.0625 
Q 25.484375 6.203125 34.421875 6.203125 
Q 39.59375 6.203125 44.453125 7.46875 
Q 49.3125 8.734375 54.109375 11.28125 
L 54.109375 2.78125 
Q 49.265625 0.734375 44.1875 -0.34375 
Q 39.109375 -1.421875 33.890625 -1.421875 
Q 20.796875 -1.421875 13.15625 6.1875 
Q 5.515625 13.8125 5.515625 26.8125 
Q 5.515625 40.234375 12.765625 48.109375 
Q 20.015625 56 32.328125 56 
Q 43.359375 56 49.78125 48.890625 
Q 56.203125 41.796875 56.203125 29.59375 
M 47.21875 32.234375 
Q 47.125 39.59375 43.09375 43.984375 
Q 39.0625 48.390625 32.421875 48.390625 
Q 24.90625 48.390625 20.390625 44.140625 
Q 15.875 39.890625 15.1875 32.171875 
z
" id="BitstreamVeraSans-Roman-65"/>
      <path d="M -0.296875 72.90625 
L 61.375 72.90625 
L 61.375 64.59375 
L 35.5 64.59375 
L 35.5 0 
L 25.59375 0 
L 25.59375 64.59375 
L -0.296875 64.59375 
z
" id="BitstreamVeraSans-Roman-54"/>
      <path d="M 44.28125 53.078125 
L 44.28125 44.578125 
Q 40.484375 46.53125 36.375 47.5 
Q 32.28125 48.484375 27.875 48.484375 
Q 21.1875 48.484375 17.84375 46.4375 
Q 14.5 44.390625 14.5 40.28125 
Q 14.5 37.15625 16.890625 35.375 
Q 19.28125 33.59375 26.515625 31.984375 
L 29.59375 31.296875 
Q 39.15625 29.25 43.1875 25.515625 
Q 47.21875 21.78125 47.21875 15.09375 
Q 47.21875 7.46875 41.1875 3.015625 
Q 35.15625 -1.421875 24.609375 -1.421875 
Q 20.21875 -1.421875 15.453125 -0.5625 
Q 10.6875 0.296875 5.421875 2 
L 5.421875 11.28125 
Q 10.40625 8.6875 15.234375 7.390625 
Q 20.0625 6.109375 24.8125 6.109375 
Q 31.15625 6.109375 34.5625 8.28125 
Q 37.984375 10.453125 37.984375 14.40625 
Q 37.984375 18.0625 35.515625 20.015625 
Q 33.0625 21.96875 24.703125 23.78125 
L 21.578125 24.515625 
Q 13.234375 26.265625 9.515625 29.90625 
Q 5.8125 33.546875 5.8125 39.890625 
Q 5.8125 47.609375 11.28125 51.796875 
Q 16.75 56 26.8125 56 
Q 31.78125 56 36.171875 55.265625 
Q 40.578125 54.546875 44.28125 53.078125 
" id="BitstreamVeraSans-Roman-73"/>
     </defs>
     <g style="fill:#262626;" transform="translate(652.205325 376.411875)scale(0.12 -0.12)">
      <use xlink:href="#BitstreamVeraSans-Roman-54"/>
      <use x="61.037109375" xlink:href="#BitstreamVeraSans-Roman-69"/>
      <use x="88.8203125" xlink:href="#BitstreamVeraSans-Roman-6d"/>
      <use x="186.232421875" xlink:href="#BitstreamVeraSans-Roman-65"/>
      <use x="247.755859375" xlink:href="#BitstreamVeraSans-Roman-20"/>
      <use x="279.54296875" xlink:href="#BitstreamVeraSans-Roman-28"/>
      <use x="318.556640625" xlink:href="#BitstreamVeraSans-Roman-73"/>
      <use x="370.65625" xlink:href="#BitstreamVeraSans-Roman-29"/>
     </g>
    </g>
   </g>
   <g id="matplotlib.axis_2">
    <g id="ytick_1">
     <g id="line2d_73">
      <g>
       <use style="fill:#262626;stroke:#262626;stroke-width:0.5;" x="175.275" xlink:href="#m078e52bcdd" y="342.998428906"/>
      </g>
     </g>
     <g id="text_10">
      <!-- 200 -->
      <g style="fill:#262626;" transform="translate(148.37 346.309678906)scale(0.12 -0.12)">
       <use xlink:href="#BitstreamVeraSans-Roman-32"/>
       <use x="63.623046875" xlink:href="#BitstreamVeraSans-Roman-30"/>
       <use x="127.24609375" xlink:href="#BitstreamVeraSans-Roman-30"/>
      </g>
     </g>
    </g>
    <g id="ytick_2">
     <g id="line2d_74">
      <g>
       <use style="fill:#262626;stroke:#262626;stroke-width:0.5;" x="175.275" xlink:href="#m078e52bcdd" y="275.974014468"/>
      </g>
     </g>
     <g id="text_11">
      <!-- 300 -->
      <g style="fill:#262626;" transform="translate(148.37 279.285264468)scale(0.12 -0.12)">
       <use xlink:href="#BitstreamVeraSans-Roman-33"/>
       <use x="63.623046875" xlink:href="#BitstreamVeraSans-Roman-30"/>
       <use x="127.24609375" xlink:href="#BitstreamVeraSans-Roman-30"/>
      </g>
     </g>
    </g>
    <g id="ytick_3">
     <g id="line2d_75">
      <g>
       <use style="fill:#262626;stroke:#262626;stroke-width:0.5;" x="175.275" xlink:href="#m078e52bcdd" y="208.949600029"/>
      </g>
     </g>
     <g id="text_12">
      <!-- 400 -->
      <g style="fill:#262626;" transform="translate(148.37 212.260850029)scale(0.12 -0.12)">
       <use xlink:href="#BitstreamVeraSans-Roman-34"/>
       <use x="63.623046875" xlink:href="#BitstreamVeraSans-Roman-30"/>
       <use x="127.24609375" xlink:href="#BitstreamVeraSans-Roman-30"/>
      </g>
     </g>
    </g>
    <g id="ytick_4">
     <g id="line2d_76">
      <g>
       <use style="fill:#262626;stroke:#262626;stroke-width:0.5;" x="175.275" xlink:href="#m078e52bcdd" y="141.92518559"/>
      </g>
     </g>
     <g id="text_13">
      <!-- 500 -->
      <g style="fill:#262626;" transform="translate(148.37 145.23643559)scale(0.12 -0.12)">
       <use xlink:href="#BitstreamVeraSans-Roman-35"/>
       <use x="63.623046875" xlink:href="#BitstreamVeraSans-Roman-30"/>
       <use x="127.24609375" xlink:href="#BitstreamVeraSans-Roman-30"/>
      </g>
     </g>
    </g>
    <g id="ytick_5">
     <g id="line2d_77">
      <g>
       <use style="fill:#262626;stroke:#262626;stroke-width:0.5;" x="175.275" xlink:href="#m078e52bcdd" y="74.9007711514"/>
      </g>
     </g>
     <g id="text_14">
      <!-- 600 -->
      <g style="fill:#262626;" transform="translate(148.37 78.2120211514)scale(0.12 -0.12)">
       <use xlink:href="#BitstreamVeraSans-Roman-36"/>
       <use x="63.623046875" xlink:href="#BitstreamVeraSans-Roman-30"/>
       <use x="127.24609375" xlink:href="#BitstreamVeraSans-Roman-30"/>
      </g>
     </g>
    </g>
    <g id="ytick_6">
     <g id="line2d_78">
      <g>
       <use style="fill:#262626;stroke:#262626;stroke-width:0.5;" x="175.275" xlink:href="#m078e52bcdd" y="329.593546019"/>
      </g>
     </g>
    </g>
    <g id="ytick_7">
     <g id="line2d_79">
      <g>
       <use style="fill:#262626;stroke:#262626;stroke-width:0.5;" x="175.275" xlink:href="#m078e52bcdd" y="316.188663131"/>
      </g>
     </g>
    </g>
    <g id="ytick_8">
     <g id="line2d_80">
      <g>
       <use style="fill:#262626;stroke:#262626;stroke-width:0.5;" x="175.275" xlink:href="#m078e52bcdd" y="302.783780243"/>
      </g>
     </g>
    </g>
    <g id="ytick_9">
     <g id="line2d_81">
      <g>
       <use style="fill:#262626;stroke:#262626;stroke-width:0.5;" x="175.275" xlink:href="#m078e52bcdd" y="289.378897355"/>
      </g>
     </g>
    </g>
    <g id="ytick_10">
     <g id="line2d_82">
      <g>
       <use style="fill:#262626;stroke:#262626;stroke-width:0.5;" x="175.275" xlink:href="#m078e52bcdd" y="262.56913158"/>
      </g>
     </g>
    </g>
    <g id="ytick_11">
     <g id="line2d_83">
      <g>
       <use style="fill:#262626;stroke:#262626;stroke-width:0.5;" x="175.275" xlink:href="#m078e52bcdd" y="249.164248692"/>
      </g>
     </g>
    </g>
    <g id="ytick_12">
     <g id="line2d_84">
      <g>
       <use style="fill:#262626;stroke:#262626;stroke-width:0.5;" x="175.275" xlink:href="#m078e52bcdd" y="235.759365804"/>
      </g>
     </g>
    </g>
    <g id="ytick_13">
     <g id="line2d_85">
      <g>
       <use style="fill:#262626;stroke:#262626;stroke-width:0.5;" x="175.275" xlink:href="#m078e52bcdd" y="222.354482917"/>
      </g>
     </g>
    </g>
    <g id="ytick_14">
     <g id="line2d_86">
      <g>
       <use style="fill:#262626;stroke:#262626;stroke-width:0.5;" x="175.275" xlink:href="#m078e52bcdd" y="195.544717141"/>
      </g>
     </g>
    </g>
    <g id="ytick_15">
     <g id="line2d_87">
      <g>
       <use style="fill:#262626;stroke:#262626;stroke-width:0.5;" x="175.275" xlink:href="#m078e52bcdd" y="182.139834253"/>
      </g>
     </g>
    </g>
    <g id="ytick_16">
     <g id="line2d_88">
      <g>
       <use style="fill:#262626;stroke:#262626;stroke-width:0.5;" x="175.275" xlink:href="#m078e52bcdd" y="168.734951366"/>
      </g>
     </g>
    </g>
    <g id="ytick_17">
     <g id="line2d_89">
      <g>
       <use style="fill:#262626;stroke:#262626;stroke-width:0.5;" x="175.275" xlink:href="#m078e52bcdd" y="155.330068478"/>
      </g>
     </g>
    </g>
    <g id="ytick_18">
     <g id="line2d_90">
      <g>
       <use style="fill:#262626;stroke:#262626;stroke-width:0.5;" x="175.275" xlink:href="#m078e52bcdd" y="128.520302702"/>
      </g>
     </g>
    </g>
    <g id="ytick_19">
     <g id="line2d_91">
      <g>
       <use style="fill:#262626;stroke:#262626;stroke-width:0.5;" x="175.275" xlink:href="#m078e52bcdd" y="115.115419815"/>
      </g>
     </g>
    </g>
    <g id="ytick_20">
     <g id="line2d_92">
      <g>
       <use style="fill:#262626;stroke:#262626;stroke-width:0.5;" x="175.275" xlink:href="#m078e52bcdd" y="101.710536927"/>
      </g>
     </g>
    </g>
    <g id="ytick_21">
     <g id="line2d_93">
      <g>
       <use style="fill:#262626;stroke:#262626;stroke-width:0.5;" x="175.275" xlink:href="#m078e52bcdd" y="88.3056540392"/>
      </g>
     </g>
    </g>
    <g id="ytick_22">
     <g id="line2d_94">
      <g>
       <use style="fill:#262626;stroke:#262626;stroke-width:0.5;" x="175.275" xlink:href="#m078e52bcdd" y="61.4958882637"/>
      </g>
     </g>
    </g>
    <g id="ytick_23">
     <g id="line2d_95">
      <g>
       <use style="fill:#262626;stroke:#262626;stroke-width:0.5;" x="175.275" xlink:href="#m078e52bcdd" y="48.091005376"/>
      </g>
     </g>
    </g>
    <g id="text_15">
     <!-- Mbits/s -->
     <defs>
      <path d="M 18.3125 70.21875 
L 18.3125 54.6875 
L 36.8125 54.6875 
L 36.8125 47.703125 
L 18.3125 47.703125 
L 18.3125 18.015625 
Q 18.3125 11.328125 20.140625 9.421875 
Q 21.96875 7.515625 27.59375 7.515625 
L 36.8125 7.515625 
L 36.8125 0 
L 27.59375 0 
Q 17.1875 0 13.234375 3.875 
Q 9.28125 7.765625 9.28125 18.015625 
L 9.28125 47.703125 
L 2.6875 47.703125 
L 2.6875 54.6875 
L 9.28125 54.6875 
L 9.28125 70.21875 
z
" id="BitstreamVeraSans-Roman-74"/>
      <path d="M 9.8125 72.90625 
L 24.515625 72.90625 
L 43.109375 23.296875 
L 61.8125 72.90625 
L 76.515625 72.90625 
L 76.515625 0 
L 66.890625 0 
L 66.890625 64.015625 
L 48.09375 14.015625 
L 38.1875 14.015625 
L 19.390625 64.015625 
L 19.390625 0 
L 9.8125 0 
z
" id="BitstreamVeraSans-Roman-4d"/>
      <path d="M 25.390625 72.90625 
L 33.6875 72.90625 
L 8.296875 -9.28125 
L 0 -9.28125 
z
" id="BitstreamVeraSans-Roman-2f"/>
      <path d="M 48.6875 27.296875 
Q 48.6875 37.203125 44.609375 42.84375 
Q 40.53125 48.484375 33.40625 48.484375 
Q 26.265625 48.484375 22.1875 42.84375 
Q 18.109375 37.203125 18.109375 27.296875 
Q 18.109375 17.390625 22.1875 11.75 
Q 26.265625 6.109375 33.40625 6.109375 
Q 40.53125 6.109375 44.609375 11.75 
Q 48.6875 17.390625 48.6875 27.296875 
M 18.109375 46.390625 
Q 20.953125 51.265625 25.265625 53.625 
Q 29.59375 56 35.59375 56 
Q 45.5625 56 51.78125 48.09375 
Q 58.015625 40.1875 58.015625 27.296875 
Q 58.015625 14.40625 51.78125 6.484375 
Q 45.5625 -1.421875 35.59375 -1.421875 
Q 29.59375 -1.421875 25.265625 0.953125 
Q 20.953125 3.328125 18.109375 8.203125 
L 18.109375 0 
L 9.078125 0 
L 9.078125 75.984375 
L 18.109375 75.984375 
z
" id="BitstreamVeraSans-Roman-62"/>
     </defs>
     <g style="fill:#262626;" transform="translate(140.874375 213.8775)rotate(-90.0)scale(0.12 -0.12)">
      <use xlink:href="#BitstreamVeraSans-Roman-4d"/>
      <use x="86.279296875" xlink:href="#BitstreamVeraSans-Roman-62"/>
      <use x="149.755859375" xlink:href="#BitstreamVeraSans-Roman-69"/>
      <use x="177.5390625" xlink:href="#BitstreamVeraSans-Roman-74"/>
      <use x="216.748046875" xlink:href="#BitstreamVeraSans-Roman-73"/>
      <use x="268.84765625" xlink:href="#BitstreamVeraSans-Roman-2f"/>
      <use x="302.5390625" xlink:href="#BitstreamVeraSans-Roman-73"/>
     </g>
    </g>
   </g>
   <g id="line2d_96">
    <path clip-path="url(#pab57cef4e0)" d="M 249.785013 256.9927 
L 252.650782 257.511133 
L 255.516552 257.652859 
L 258.382322 255.806034 
L 261.248091 256.867196 
L 264.113861 237.92211 
L 266.979631 118.62035 
L 269.845401 114.183316 
L 272.71117 115.741655 
L 275.57694 116.541921 
L 278.44271 116.978207 
L 281.308479 117.871064 
L 284.174249 116.689675 
L 287.040019 118.382081 
L 289.905789 118.611976 
L 292.771558 110.569351 
L 295.637328 54.113767 
L 298.503098 44.572138 
L 301.368867 44.819956 
L 304.234637 46.340351 
L 307.100407 46.412223 
L 309.966177 46.03846 
L 312.831946 52.602074 
L 315.697716 47.278111 
L 318.563486 45.189628 
L 321.429255 46.866545 
L 324.295025 45.411844 
L 330.026565 46.818185 
L 335.758104 45.920791 
L 338.623874 45.734645 
L 341.489643 46.226397 
L 344.355413 46.214084 
L 347.221183 45.721417 
L 350.086953 45.996716 
L 352.952722 48.422982 
L 355.818492 46.318183 
L 358.684262 46.762419 
L 361.550031 45.559763 
L 364.415801 46.322361 
L 367.281571 46.384728 
L 370.147341 46.710667 
L 373.01311 45.706136 
L 375.87888 46.083821 
L 378.74465 45.435313 
L 381.610419 54.735273 
L 384.476189 52.679194 
L 387.341959 46.912278 
L 390.207729 46.048042 
L 393.073498 45.713304 
L 395.939268 46.427133 
L 398.805038 45.252738 
L 401.670807 46.507687 
L 404.536577 45.681869 
L 407.402347 48.165269 
L 410.268117 46.447598 
L 413.133886 45.214393 
L 415.999656 48.786443 
L 418.865426 46.023906 
L 421.731195 44.264529 
L 424.596965 45.025413 
L 427.462735 46.562599 
L 430.328505 45.808429 
L 433.194274 45.43879 
L 436.060044 45.948888 
L 438.925814 46.074884 
L 441.791583 44.801863 
L 444.657353 46.92205 
L 447.523123 48.489931 
L 450.388893 47.671573 
L 453.254662 52.287922 
L 456.120432 51.659077 
L 458.986202 46.701322 
L 461.851971 200.537999 
L 464.717741 107.719408 
L 467.583511 48.078367 
L 470.449281 44.650514 
L 473.31505 44.232986 
L 476.18082 45.424486 
L 479.04659 47.819177 
L 481.912359 46.628492 
L 484.778129 45.802529 
L 487.643899 45.535718 
L 490.509669 44.175021 
L 493.375438 46.957066 
L 496.241208 46.845562 
L 499.106978 45.262619 
L 501.972747 46.198516 
L 504.838517 44.788945 
L 507.704287 47.073533 
L 510.570057 45.670287 
L 513.435826 46.071523 
L 516.301596 45.626663 
L 519.167366 45.316653 
L 522.033135 45.268635 
L 524.898905 45.794231 
L 527.764675 49.936974 
L 530.630445 49.603173 
L 533.496214 47.220843 
L 536.361984 45.638246 
L 539.227754 46.511416 
L 542.093523 45.874685 
L 544.959293 45.693779 
L 553.556602 45.710577 
L 556.422372 46.696657 
L 559.288142 46.384598 
L 562.153911 46.487644 
L 565.019681 47.010263 
L 567.885451 46.827076 
L 570.751221 45.733227 
L 576.48276 45.890849 
L 579.34853 47.765794 
L 582.214299 46.900881 
L 585.080069 44.852507 
L 587.945839 47.448331 
L 590.811609 55.054242 
L 593.677378 52.077662 
L 596.543148 48.659715 
L 599.408918 49.525385 
L 602.274687 50.938814 
L 605.140457 48.892818 
L 608.006227 48.396042 
L 610.871997 47.670521 
L 613.737766 46.771892 
L 616.603536 47.141558 
L 619.469306 47.712855 
L 622.335075 49.262551 
L 625.200845 48.545701 
L 628.066615 48.861162 
L 630.932385 48.60277 
L 633.798154 47.207155 
L 636.663924 47.580671 
L 639.529694 48.278124 
L 642.395463 47.552696 
L 645.261233 48.631735 
L 648.127003 49.053641 
L 650.992773 48.349314 
L 653.858542 47.436237 
L 656.724312 47.005993 
L 659.590082 47.424893 
L 662.455851 46.145371 
L 665.321621 45.879296 
L 668.187391 44.693925 
L 671.053161 46.573649 
L 673.91893 50.734866 
L 676.7847 47.47253 
L 679.65047 47.158711 
L 682.516239 46.98645 
L 685.382009 46.422991 
L 688.247779 45.741834 
L 691.113549 44.614958 
L 693.979318 45.748958 
L 696.845088 48.495704 
L 699.710858 46.110043 
L 702.576627 45.200199 
L 705.442397 125.962447 
L 708.308167 106.366161 
L 711.173937 53.755954 
L 714.039706 41.541176 
L 716.905476 44.144517 
L 719.771246 44.579101 
L 722.637015 46.088334 
L 725.502785 45.880977 
L 731.234325 45.339274 
L 734.100094 46.323868 
L 736.965864 46.083309 
L 739.831634 45.724146 
L 742.697403 45.088234 
L 745.563173 50.09547 
L 748.428943 48.303761 
L 751.294713 45.502393 
L 754.160482 45.346803 
L 757.026252 45.356091 
L 759.892022 46.185298 
L 762.757791 46.382474 
L 765.623561 49.184752 
L 768.489331 48.086423 
L 771.355101 46.631379 
L 774.22087 46.776569 
L 777.08664 45.520055 
L 779.95241 48.122048 
L 782.818179 51.391239 
L 785.683949 48.73252 
L 788.549719 48.032376 
L 791.415489 49.202217 
L 794.281258 48.12287 
L 797.147028 66.407243 
L 800.012798 55.931345 
L 802.878567 59.645836 
L 805.744337 242.237047 
L 808.610107 335.836809 
L 811.475877 337.799174 
L 814.341646 337.591527 
L 817.207416 337.626374 
L 820.073186 337.446374 
L 822.938955 337.755531 
L 825.804725 337.872325 
L 828.670495 337.411719 
L 831.536265 336.435835 
L 834.402034 336.981819 
L 837.267804 339.603452 
L 840.133574 341.943233 
L 842.999343 342.127298 
L 845.865113 341.143961 
L 848.730883 342.853778 
L 851.596653 342.890849 
L 854.462422 343.658824 
L 857.328192 321.798074 
L 860.193962 207.788694 
L 863.059731 143.4771 
L 865.925501 122.232905 
L 868.791271 71.366473 
L 871.657041 47.180525 
L 874.52281 46.305826 
L 877.38858 47.030746 
L 880.25435 47.516518 
L 883.120119 47.15851 
L 885.985889 47.651356 
L 888.851659 51.757941 
L 891.717429 50.273247 
L 894.583198 74.819646 
L 897.448968 67.731741 
L 900.314738 94.28214 
L 903.180507 79.826117 
L 906.046277 47.015878 
L 908.912047 47.243916 
L 911.777817 51.816482 
L 914.643586 52.604811 
L 917.509356 65.610111 
L 920.375126 89.396638 
L 923.240895 194.95542 
L 926.106665 306.869384 
L 928.972435 338.104129 
L 931.838205 338.704895 
L 934.703974 339.073846 
L 937.569744 337.794756 
L 940.435514 337.637669 
L 943.301283 335.563697 
L 946.167053 287.758041 
L 949.032823 135.448184 
L 951.898593 61.517888 
L 954.764362 90.524629 
L 957.630132 100.140487 
L 960.495902 106.349483 
L 963.361671 113.861803 
L 966.227441 116.634147 
L 969.093211 109.971283 
L 971.958981 106.532193 
L 974.82475 114.522554 
L 977.69052 109.999025 
L 980.55629 93.303402 
L 983.422059 70.189645 
L 986.287829 71.866413 
L 989.153599 77.662738 
L 992.019369 69.72461 
L 994.885138 65.582775 
L 997.750908 67.647972 
L 1000.616678 76.057047 
L 1003.482447 81.945797 
L 1006.348217 72.22716 
L 1009.213987 55.13449 
L 1012.079757 52.442181 
L 1014.945526 65.824774 
L 1017.811296 65.477995 
L 1020.677066 52.662007 
L 1023.542835 48.6645 
L 1026.408605 48.311795 
L 1029.274375 47.760243 
L 1032.140145 51.633768 
L 1035.005914 52.267425 
L 1037.871684 49.225588 
L 1040.737454 49.718751 
L 1046.468993 49.170108 
L 1049.334763 52.071617 
L 1052.200533 65.452946 
L 1055.066302 70.47343 
L 1057.932072 65.136511 
L 1060.797842 63.318476 
L 1066.529381 64.183103 
L 1069.395151 54.794275 
L 1072.260921 62.446089 
L 1075.12669 99.677267 
L 1077.99246 123.552677 
L 1080.85823 86.510152 
L 1083.723999 46.638205 
L 1086.589769 61.086679 
L 1089.455539 66.012282 
L 1092.321309 54.934473 
L 1098.052848 48.419549 
L 1100.918618 49.603666 
L 1103.784387 59.619666 
L 1106.650157 50.21464 
L 1109.515927 45.899307 
L 1109.515927 45.899307 
" style="fill:none;stroke:#1b9e77;stroke-linecap:round;"/>
   </g>
   <g id="patch_3">
    <path d="M 175.275 38.52 
L 1178.2944 38.52 
" style="fill:none;"/>
   </g>
   <g id="patch_4">
    <path d="M 1178.2944 346.68 
L 1178.2944 38.52 
" style="fill:none;"/>
   </g>
   <g id="patch_5">
    <path d="M 175.275 346.68 
L 1178.2944 346.68 
" style="fill:none;"/>
   </g>
   <g id="patch_6">
    <path d="M 175.275 346.68 
L 175.275 38.52 
" style="fill:none;"/>
   </g>
   <g id="legend_1">
    <g id="line2d_97">
     <path d="M 1292.624934 46.615198 
L 1312.616934 46.615198 
" style="fill:none;stroke:#1b9e77;stroke-linecap:round;"/>
    </g>
    <g id="line2d_98"/>
    <g id="text_16">
     <!-- Upload -->
     <defs>
      <path d="M 30.609375 48.390625 
Q 23.390625 48.390625 19.1875 42.75 
Q 14.984375 37.109375 14.984375 27.296875 
Q 14.984375 17.484375 19.15625 11.84375 
Q 23.34375 6.203125 30.609375 6.203125 
Q 37.796875 6.203125 41.984375 11.859375 
Q 46.1875 17.53125 46.1875 27.296875 
Q 46.1875 37.015625 41.984375 42.703125 
Q 37.796875 48.390625 30.609375 48.390625 
M 30.609375 56 
Q 42.328125 56 49.015625 48.375 
Q 55.71875 40.765625 55.71875 27.296875 
Q 55.71875 13.875 49.015625 6.21875 
Q 42.328125 -1.421875 30.609375 -1.421875 
Q 18.84375 -1.421875 12.171875 6.21875 
Q 5.515625 13.875 5.515625 27.296875 
Q 5.515625 40.765625 12.171875 48.375 
Q 18.84375 56 30.609375 56 
" id="BitstreamVeraSans-Roman-6f"/>
      <path d="M 9.421875 75.984375 
L 18.40625 75.984375 
L 18.40625 0 
L 9.421875 0 
z
" id="BitstreamVeraSans-Roman-6c"/>
      <path d="M 8.6875 72.90625 
L 18.609375 72.90625 
L 18.609375 28.609375 
Q 18.609375 16.890625 22.84375 11.734375 
Q 27.09375 6.59375 36.625 6.59375 
Q 46.09375 6.59375 50.34375 11.734375 
Q 54.59375 16.890625 54.59375 28.609375 
L 54.59375 72.90625 
L 64.5 72.90625 
L 64.5 27.390625 
Q 64.5 13.140625 57.4375 5.859375 
Q 50.390625 -1.421875 36.625 -1.421875 
Q 22.796875 -1.421875 15.734375 5.859375 
Q 8.6875 13.140625 8.6875 27.390625 
z
" id="BitstreamVeraSans-Roman-55"/>
      <path d="M 45.40625 46.390625 
L 45.40625 75.984375 
L 54.390625 75.984375 
L 54.390625 0 
L 45.40625 0 
L 45.40625 8.203125 
Q 42.578125 3.328125 38.25 0.953125 
Q 33.9375 -1.421875 27.875 -1.421875 
Q 17.96875 -1.421875 11.734375 6.484375 
Q 5.515625 14.40625 5.515625 27.296875 
Q 5.515625 40.1875 11.734375 48.09375 
Q 17.96875 56 27.875 56 
Q 33.9375 56 38.25 53.625 
Q 42.578125 51.265625 45.40625 46.390625 
M 14.796875 27.296875 
Q 14.796875 17.390625 18.875 11.75 
Q 22.953125 6.109375 30.078125 6.109375 
Q 37.203125 6.109375 41.296875 11.75 
Q 45.40625 17.390625 45.40625 27.296875 
Q 45.40625 37.203125 41.296875 42.84375 
Q 37.203125 48.484375 30.078125 48.484375 
Q 22.953125 48.484375 18.875 42.84375 
Q 14.796875 37.203125 14.796875 27.296875 
" id="BitstreamVeraSans-Roman-64"/>
      <path d="M 34.28125 27.484375 
Q 23.390625 27.484375 19.1875 25 
Q 14.984375 22.515625 14.984375 16.5 
Q 14.984375 11.71875 18.140625 8.90625 
Q 21.296875 6.109375 26.703125 6.109375 
Q 34.1875 6.109375 38.703125 11.40625 
Q 43.21875 16.703125 43.21875 25.484375 
L 43.21875 27.484375 
z
M 52.203125 31.203125 
L 52.203125 0 
L 43.21875 0 
L 43.21875 8.296875 
Q 40.140625 3.328125 35.546875 0.953125 
Q 30.953125 -1.421875 24.3125 -1.421875 
Q 15.921875 -1.421875 10.953125 3.296875 
Q 6 8.015625 6 15.921875 
Q 6 25.140625 12.171875 29.828125 
Q 18.359375 34.515625 30.609375 34.515625 
L 43.21875 34.515625 
L 43.21875 35.40625 
Q 43.21875 41.609375 39.140625 45 
Q 35.0625 48.390625 27.6875 48.390625 
Q 23 48.390625 18.546875 47.265625 
Q 14.109375 46.140625 10.015625 43.890625 
L 10.015625 52.203125 
Q 14.9375 54.109375 19.578125 55.046875 
Q 24.21875 56 28.609375 56 
Q 40.484375 56 46.34375 49.84375 
Q 52.203125 43.703125 52.203125 31.203125 
" id="BitstreamVeraSans-Roman-61"/>
      <path d="M 18.109375 8.203125 
L 18.109375 -20.796875 
L 9.078125 -20.796875 
L 9.078125 54.6875 
L 18.109375 54.6875 
L 18.109375 46.390625 
Q 20.953125 51.265625 25.265625 53.625 
Q 29.59375 56 35.59375 56 
Q 45.5625 56 51.78125 48.09375 
Q 58.015625 40.1875 58.015625 27.296875 
Q 58.015625 14.40625 51.78125 6.484375 
Q 45.5625 -1.421875 35.59375 -1.421875 
Q 29.59375 -1.421875 25.265625 0.953125 
Q 20.953125 3.328125 18.109375 8.203125 
M 48.6875 27.296875 
Q 48.6875 37.203125 44.609375 42.84375 
Q 40.53125 48.484375 33.40625 48.484375 
Q 26.265625 48.484375 22.1875 42.84375 
Q 18.109375 37.203125 18.109375 27.296875 
Q 18.109375 17.390625 22.1875 11.75 
Q 26.265625 6.109375 33.40625 6.109375 
Q 40.53125 6.109375 44.609375 11.75 
Q 48.6875 17.390625 48.6875 27.296875 
" id="BitstreamVeraSans-Roman-70"/>
     </defs>
     <g style="fill:#262626;" transform="translate(1320.613734 50.113798125)scale(0.09996 -0.09996)">
      <use xlink:href="#BitstreamVeraSans-Roman-55"/>
      <use x="73.193359375" xlink:href="#BitstreamVeraSans-Roman-70"/>
      <use x="136.669921875" xlink:href="#BitstreamVeraSans-Roman-6c"/>
      <use x="164.453125" xlink:href="#BitstreamVeraSans-Roman-6f"/>
      <use x="225.634765625" xlink:href="#BitstreamVeraSans-Roman-61"/>
      <use x="286.9140625" xlink:href="#BitstreamVeraSans-Roman-64"/>
     </g>
    </g>
    <g id="line2d_99">
     <path d="M 1292.624934 61.287452 
L 1312.616934 61.287452 
" style="fill:none;stroke:#d95f02;stroke-linecap:round;"/>
    </g>
    <g id="line2d_100"/>
    <g id="text_17">
     <!-- Ping (ms) -->
     <defs>
      <path d="M 19.671875 64.796875 
L 19.671875 37.40625 
L 32.078125 37.40625 
Q 38.96875 37.40625 42.71875 40.96875 
Q 46.484375 44.53125 46.484375 51.125 
Q 46.484375 57.671875 42.71875 61.234375 
Q 38.96875 64.796875 32.078125 64.796875 
z
M 9.8125 72.90625 
L 32.078125 72.90625 
Q 44.34375 72.90625 50.609375 67.359375 
Q 56.890625 61.8125 56.890625 51.125 
Q 56.890625 40.328125 50.609375 34.8125 
Q 44.34375 29.296875 32.078125 29.296875 
L 19.671875 29.296875 
L 19.671875 0 
L 9.8125 0 
z
" id="BitstreamVeraSans-Roman-50"/>
      <path d="M 54.890625 33.015625 
L 54.890625 0 
L 45.90625 0 
L 45.90625 32.71875 
Q 45.90625 40.484375 42.875 44.328125 
Q 39.84375 48.1875 33.796875 48.1875 
Q 26.515625 48.1875 22.3125 43.546875 
Q 18.109375 38.921875 18.109375 30.90625 
L 18.109375 0 
L 9.078125 0 
L 9.078125 54.6875 
L 18.109375 54.6875 
L 18.109375 46.1875 
Q 21.34375 51.125 25.703125 53.5625 
Q 30.078125 56 35.796875 56 
Q 45.21875 56 50.046875 50.171875 
Q 54.890625 44.34375 54.890625 33.015625 
" id="BitstreamVeraSans-Roman-6e"/>
      <path d="M 45.40625 27.984375 
Q 45.40625 37.75 41.375 43.109375 
Q 37.359375 48.484375 30.078125 48.484375 
Q 22.859375 48.484375 18.828125 43.109375 
Q 14.796875 37.75 14.796875 27.984375 
Q 14.796875 18.265625 18.828125 12.890625 
Q 22.859375 7.515625 30.078125 7.515625 
Q 37.359375 7.515625 41.375 12.890625 
Q 45.40625 18.265625 45.40625 27.984375 
M 54.390625 6.78125 
Q 54.390625 -7.171875 48.1875 -13.984375 
Q 42 -20.796875 29.203125 -20.796875 
Q 24.46875 -20.796875 20.265625 -20.09375 
Q 16.0625 -19.390625 12.109375 -17.921875 
L 12.109375 -9.1875 
Q 16.0625 -11.328125 19.921875 -12.34375 
Q 23.78125 -13.375 27.78125 -13.375 
Q 36.625 -13.375 41.015625 -8.765625 
Q 45.40625 -4.15625 45.40625 5.171875 
L 45.40625 9.625 
Q 42.625 4.78125 38.28125 2.390625 
Q 33.9375 0 27.875 0 
Q 17.828125 0 11.671875 7.65625 
Q 5.515625 15.328125 5.515625 27.984375 
Q 5.515625 40.671875 11.671875 48.328125 
Q 17.828125 56 27.875 56 
Q 33.9375 56 38.28125 53.609375 
Q 42.625 51.21875 45.40625 46.390625 
L 45.40625 54.6875 
L 54.390625 54.6875 
z
" id="BitstreamVeraSans-Roman-67"/>
     </defs>
     <g style="fill:#262626;" transform="translate(1320.613734 64.786051875)scale(0.09996 -0.09996)">
      <use xlink:href="#BitstreamVeraSans-Roman-50"/>
      <use x="60.271484375" xlink:href="#BitstreamVeraSans-Roman-69"/>
      <use x="88.0546875" xlink:href="#BitstreamVeraSans-Roman-6e"/>
      <use x="151.43359375" xlink:href="#BitstreamVeraSans-Roman-67"/>
      <use x="214.91015625" xlink:href="#BitstreamVeraSans-Roman-20"/>
      <use x="246.697265625" xlink:href="#BitstreamVeraSans-Roman-28"/>
      <use x="285.7109375" xlink:href="#BitstreamVeraSans-Roman-6d"/>
      <use x="383.123046875" xlink:href="#BitstreamVeraSans-Roman-73"/>
      <use x="435.22265625" xlink:href="#BitstreamVeraSans-Roman-29"/>
     </g>
    </g>
   </g>
  </g>
  <g id="axes_2">
   <g id="matplotlib.axis_3">
    <g id="ytick_24">
     <g id="line2d_101">
      <g>
       <use style="fill:#262626;stroke:#262626;stroke-width:0.5;" x="1178.2944" xlink:href="#m078e52bcdd" y="331.126853129"/>
      </g>
     </g>
     <g id="text_18">
      <!-- 0.10 -->
      <defs>
       <path d="M 10.6875 12.40625 
L 21 12.40625 
L 21 0 
L 10.6875 0 
z
" id="BitstreamVeraSans-Roman-2e"/>
      </defs>
      <g style="fill:#262626;" transform="translate(1182.2944 334.438103129)scale(0.12 -0.12)">
       <use xlink:href="#BitstreamVeraSans-Roman-30"/>
       <use x="63.623046875" xlink:href="#BitstreamVeraSans-Roman-2e"/>
       <use x="95.41015625" xlink:href="#BitstreamVeraSans-Roman-31"/>
       <use x="159.033203125" xlink:href="#BitstreamVeraSans-Roman-30"/>
      </g>
     </g>
    </g>
    <g id="ytick_25">
     <g id="line2d_102">
      <g>
       <use style="fill:#262626;stroke:#262626;stroke-width:0.5;" x="1178.2944" xlink:href="#m078e52bcdd" y="282.503407219"/>
      </g>
     </g>
     <g id="text_19">
      <!-- 0.15 -->
      <g style="fill:#262626;" transform="translate(1182.2944 285.814657219)scale(0.12 -0.12)">
       <use xlink:href="#BitstreamVeraSans-Roman-30"/>
       <use x="63.623046875" xlink:href="#BitstreamVeraSans-Roman-2e"/>
       <use x="95.41015625" xlink:href="#BitstreamVeraSans-Roman-31"/>
       <use x="159.033203125" xlink:href="#BitstreamVeraSans-Roman-35"/>
      </g>
     </g>
    </g>
    <g id="ytick_26">
     <g id="line2d_103">
      <g>
       <use style="fill:#262626;stroke:#262626;stroke-width:0.5;" x="1178.2944" xlink:href="#m078e52bcdd" y="233.879961308"/>
      </g>
     </g>
     <g id="text_20">
      <!-- 0.20 -->
      <g style="fill:#262626;" transform="translate(1182.2944 237.191211308)scale(0.12 -0.12)">
       <use xlink:href="#BitstreamVeraSans-Roman-30"/>
       <use x="63.623046875" xlink:href="#BitstreamVeraSans-Roman-2e"/>
       <use x="95.41015625" xlink:href="#BitstreamVeraSans-Roman-32"/>
       <use x="159.033203125" xlink:href="#BitstreamVeraSans-Roman-30"/>
      </g>
     </g>
    </g>
    <g id="ytick_27">
     <g id="line2d_104">
      <g>
       <use style="fill:#262626;stroke:#262626;stroke-width:0.5;" x="1178.2944" xlink:href="#m078e52bcdd" y="185.256515398"/>
      </g>
     </g>
     <g id="text_21">
      <!-- 0.25 -->
      <g style="fill:#262626;" transform="translate(1182.2944 188.567765398)scale(0.12 -0.12)">
       <use xlink:href="#BitstreamVeraSans-Roman-30"/>
       <use x="63.623046875" xlink:href="#BitstreamVeraSans-Roman-2e"/>
       <use x="95.41015625" xlink:href="#BitstreamVeraSans-Roman-32"/>
       <use x="159.033203125" xlink:href="#BitstreamVeraSans-Roman-35"/>
      </g>
     </g>
    </g>
    <g id="ytick_28">
     <g id="line2d_105">
      <g>
       <use style="fill:#262626;stroke:#262626;stroke-width:0.5;" x="1178.2944" xlink:href="#m078e52bcdd" y="136.633069488"/>
      </g>
     </g>
     <g id="text_22">
      <!-- 0.30 -->
      <g style="fill:#262626;" transform="translate(1182.2944 139.944319488)scale(0.12 -0.12)">
       <use xlink:href="#BitstreamVeraSans-Roman-30"/>
       <use x="63.623046875" xlink:href="#BitstreamVeraSans-Roman-2e"/>
       <use x="95.41015625" xlink:href="#BitstreamVeraSans-Roman-33"/>
       <use x="159.033203125" xlink:href="#BitstreamVeraSans-Roman-30"/>
      </g>
     </g>
    </g>
    <g id="ytick_29">
     <g id="line2d_106">
      <g>
       <use style="fill:#262626;stroke:#262626;stroke-width:0.5;" x="1178.2944" xlink:href="#m078e52bcdd" y="88.0096235775"/>
      </g>
     </g>
     <g id="text_23">
      <!-- 0.35 -->
      <g style="fill:#262626;" transform="translate(1182.2944 91.3208735775)scale(0.12 -0.12)">
       <use xlink:href="#BitstreamVeraSans-Roman-30"/>
       <use x="63.623046875" xlink:href="#BitstreamVeraSans-Roman-2e"/>
       <use x="95.41015625" xlink:href="#BitstreamVeraSans-Roman-33"/>
       <use x="159.033203125" xlink:href="#BitstreamVeraSans-Roman-35"/>
      </g>
     </g>
    </g>
    <g id="ytick_30">
     <g id="line2d_107">
      <g>
       <use style="fill:#262626;stroke:#262626;stroke-width:0.5;" x="1178.2944" xlink:href="#m078e52bcdd" y="39.3861776672"/>
      </g>
     </g>
     <g id="text_24">
      <!-- 0.40 -->
      <g style="fill:#262626;" transform="translate(1182.2944 42.6974276672)scale(0.12 -0.12)">
       <use xlink:href="#BitstreamVeraSans-Roman-30"/>
       <use x="63.623046875" xlink:href="#BitstreamVeraSans-Roman-2e"/>
       <use x="95.41015625" xlink:href="#BitstreamVeraSans-Roman-34"/>
       <use x="159.033203125" xlink:href="#BitstreamVeraSans-Roman-30"/>
      </g>
     </g>
    </g>
    <g id="ytick_31">
     <g id="line2d_108">
      <g>
       <use style="fill:#262626;stroke:#262626;stroke-width:0.5;" x="1178.2944" xlink:href="#m078e52bcdd" y="340.851542311"/>
      </g>
     </g>
    </g>
    <g id="ytick_32">
     <g id="line2d_109">
      <g>
       <use style="fill:#262626;stroke:#262626;stroke-width:0.5;" x="1178.2944" xlink:href="#m078e52bcdd" y="321.402163947"/>
      </g>
     </g>
    </g>
    <g id="ytick_33">
     <g id="line2d_110">
      <g>
       <use style="fill:#262626;stroke:#262626;stroke-width:0.5;" x="1178.2944" xlink:href="#m078e52bcdd" y="311.677474765"/>
      </g>
     </g>
    </g>
    <g id="ytick_34">
     <g id="line2d_111">
      <g>
       <use style="fill:#262626;stroke:#262626;stroke-width:0.5;" x="1178.2944" xlink:href="#m078e52bcdd" y="301.952785583"/>
      </g>
     </g>
    </g>
    <g id="ytick_35">
     <g id="line2d_112">
      <g>
       <use style="fill:#262626;stroke:#262626;stroke-width:0.5;" x="1178.2944" xlink:href="#m078e52bcdd" y="292.228096401"/>
      </g>
     </g>
    </g>
    <g id="ytick_36">
     <g id="line2d_113">
      <g>
       <use style="fill:#262626;stroke:#262626;stroke-width:0.5;" x="1178.2944" xlink:href="#m078e52bcdd" y="272.778718037"/>
      </g>
     </g>
    </g>
    <g id="ytick_37">
     <g id="line2d_114">
      <g>
       <use style="fill:#262626;stroke:#262626;stroke-width:0.5;" x="1178.2944" xlink:href="#m078e52bcdd" y="263.054028854"/>
      </g>
     </g>
    </g>
    <g id="ytick_38">
     <g id="line2d_115">
      <g>
       <use style="fill:#262626;stroke:#262626;stroke-width:0.5;" x="1178.2944" xlink:href="#m078e52bcdd" y="253.329339672"/>
      </g>
     </g>
    </g>
    <g id="ytick_39">
     <g id="line2d_116">
      <g>
       <use style="fill:#262626;stroke:#262626;stroke-width:0.5;" x="1178.2944" xlink:href="#m078e52bcdd" y="243.60465049"/>
      </g>
     </g>
    </g>
    <g id="ytick_40">
     <g id="line2d_117">
      <g>
       <use style="fill:#262626;stroke:#262626;stroke-width:0.5;" x="1178.2944" xlink:href="#m078e52bcdd" y="224.155272126"/>
      </g>
     </g>
    </g>
    <g id="ytick_41">
     <g id="line2d_118">
      <g>
       <use style="fill:#262626;stroke:#262626;stroke-width:0.5;" x="1178.2944" xlink:href="#m078e52bcdd" y="214.430582944"/>
      </g>
     </g>
    </g>
    <g id="ytick_42">
     <g id="line2d_119">
      <g>
       <use style="fill:#262626;stroke:#262626;stroke-width:0.5;" x="1178.2944" xlink:href="#m078e52bcdd" y="204.705893762"/>
      </g>
     </g>
    </g>
    <g id="ytick_43">
     <g id="line2d_120">
      <g>
       <use style="fill:#262626;stroke:#262626;stroke-width:0.5;" x="1178.2944" xlink:href="#m078e52bcdd" y="194.98120458"/>
      </g>
     </g>
    </g>
    <g id="ytick_44">
     <g id="line2d_121">
      <g>
       <use style="fill:#262626;stroke:#262626;stroke-width:0.5;" x="1178.2944" xlink:href="#m078e52bcdd" y="175.531826216"/>
      </g>
     </g>
    </g>
    <g id="ytick_45">
     <g id="line2d_122">
      <g>
       <use style="fill:#262626;stroke:#262626;stroke-width:0.5;" x="1178.2944" xlink:href="#m078e52bcdd" y="165.807137034"/>
      </g>
     </g>
    </g>
    <g id="ytick_46">
     <g id="line2d_123">
      <g>
       <use style="fill:#262626;stroke:#262626;stroke-width:0.5;" x="1178.2944" xlink:href="#m078e52bcdd" y="156.082447852"/>
      </g>
     </g>
    </g>
    <g id="ytick_47">
     <g id="line2d_124">
      <g>
       <use style="fill:#262626;stroke:#262626;stroke-width:0.5;" x="1178.2944" xlink:href="#m078e52bcdd" y="146.35775867"/>
      </g>
     </g>
    </g>
    <g id="ytick_48">
     <g id="line2d_125">
      <g>
       <use style="fill:#262626;stroke:#262626;stroke-width:0.5;" x="1178.2944" xlink:href="#m078e52bcdd" y="126.908380306"/>
      </g>
     </g>
    </g>
    <g id="ytick_49">
     <g id="line2d_126">
      <g>
       <use style="fill:#262626;stroke:#262626;stroke-width:0.5;" x="1178.2944" xlink:href="#m078e52bcdd" y="117.183691124"/>
      </g>
     </g>
    </g>
    <g id="ytick_50">
     <g id="line2d_127">
      <g>
       <use style="fill:#262626;stroke:#262626;stroke-width:0.5;" x="1178.2944" xlink:href="#m078e52bcdd" y="107.459001942"/>
      </g>
     </g>
    </g>
    <g id="ytick_51">
     <g id="line2d_128">
      <g>
       <use style="fill:#262626;stroke:#262626;stroke-width:0.5;" x="1178.2944" xlink:href="#m078e52bcdd" y="97.7343127595"/>
      </g>
     </g>
    </g>
    <g id="ytick_52">
     <g id="line2d_129">
      <g>
       <use style="fill:#262626;stroke:#262626;stroke-width:0.5;" x="1178.2944" xlink:href="#m078e52bcdd" y="78.2849343954"/>
      </g>
     </g>
    </g>
    <g id="ytick_53">
     <g id="line2d_130">
      <g>
       <use style="fill:#262626;stroke:#262626;stroke-width:0.5;" x="1178.2944" xlink:href="#m078e52bcdd" y="68.5602452134"/>
      </g>
     </g>
    </g>
    <g id="ytick_54">
     <g id="line2d_131">
      <g>
       <use style="fill:#262626;stroke:#262626;stroke-width:0.5;" x="1178.2944" xlink:href="#m078e52bcdd" y="58.8355560313"/>
      </g>
     </g>
    </g>
    <g id="ytick_55">
     <g id="line2d_132">
      <g>
       <use style="fill:#262626;stroke:#262626;stroke-width:0.5;" x="1178.2944" xlink:href="#m078e52bcdd" y="49.1108668493"/>
      </g>
     </g>
    </g>
    <g id="text_25">
     <!-- Latency (ms) -->
     <defs>
      <path d="M 9.8125 72.90625 
L 19.671875 72.90625 
L 19.671875 8.296875 
L 55.171875 8.296875 
L 55.171875 0 
L 9.8125 0 
z
" id="BitstreamVeraSans-Roman-4c"/>
      <path d="M 48.78125 52.59375 
L 48.78125 44.1875 
Q 44.96875 46.296875 41.140625 47.34375 
Q 37.3125 48.390625 33.40625 48.390625 
Q 24.65625 48.390625 19.8125 42.84375 
Q 14.984375 37.3125 14.984375 27.296875 
Q 14.984375 17.28125 19.8125 11.734375 
Q 24.65625 6.203125 33.40625 6.203125 
Q 37.3125 6.203125 41.140625 7.25 
Q 44.96875 8.296875 48.78125 10.40625 
L 48.78125 2.09375 
Q 45.015625 0.34375 40.984375 -0.53125 
Q 36.96875 -1.421875 32.421875 -1.421875 
Q 20.0625 -1.421875 12.78125 6.34375 
Q 5.515625 14.109375 5.515625 27.296875 
Q 5.515625 40.671875 12.859375 48.328125 
Q 20.21875 56 33.015625 56 
Q 37.15625 56 41.109375 55.140625 
Q 45.0625 54.296875 48.78125 52.59375 
" id="BitstreamVeraSans-Roman-63"/>
      <path d="M 32.171875 -5.078125 
Q 28.375 -14.84375 24.75 -17.8125 
Q 21.140625 -20.796875 15.09375 -20.796875 
L 7.90625 -20.796875 
L 7.90625 -13.28125 
L 13.1875 -13.28125 
Q 16.890625 -13.28125 18.9375 -11.515625 
Q 21 -9.765625 23.484375 -3.21875 
L 25.09375 0.875 
L 2.984375 54.6875 
L 12.5 54.6875 
L 29.59375 11.921875 
L 46.6875 54.6875 
L 56.203125 54.6875 
z
" id="BitstreamVeraSans-Roman-79"/>
     </defs>
     <g style="fill:#262626;" transform="translate(1223.131275 231.875625)rotate(-90.0)scale(0.12 -0.12)">
      <use xlink:href="#BitstreamVeraSans-Roman-4c"/>
      <use x="55.712890625" xlink:href="#BitstreamVeraSans-Roman-61"/>
      <use x="116.9921875" xlink:href="#BitstreamVeraSans-Roman-74"/>
      <use x="156.201171875" xlink:href="#BitstreamVeraSans-Roman-65"/>
      <use x="217.724609375" xlink:href="#BitstreamVeraSans-Roman-6e"/>
      <use x="281.103515625" xlink:href="#BitstreamVeraSans-Roman-63"/>
      <use x="336.083984375" xlink:href="#BitstreamVeraSans-Roman-79"/>
      <use x="395.263671875" xlink:href="#BitstreamVeraSans-Roman-20"/>
      <use x="427.05078125" xlink:href="#BitstreamVeraSans-Roman-28"/>
      <use x="466.064453125" xlink:href="#BitstreamVeraSans-Roman-6d"/>
      <use x="563.4765625" xlink:href="#BitstreamVeraSans-Roman-73"/>
      <use x="615.576171875" xlink:href="#BitstreamVeraSans-Roman-29"/>
     </g>
    </g>
   </g>
   <g id="line2d_133">
    <path clip-path="url(#pab57cef4e0)" d="M 175.275 204.705894 
L 178.14077 272.706977 
L 181.006539 272.778718 
L 183.872309 282.466877 
L 186.738079 282.503407 
L 189.603849 292.169321 
L 192.469618 253.632628 
L 195.335388 262.964784 
L 198.201158 263.054029 
L 201.066927 176.616188 
L 203.932697 281.099282 
L 206.798467 253.761249 
L 209.664237 262.895845 
L 212.530006 282.160475 
L 215.395776 272.964768 
L 218.261546 272.778718 
L 221.127315 282.290206 
L 223.993085 273.006045 
L 226.858855 282.262702 
L 229.724625 282.503407 
L 232.590394 291.969002 
L 235.456164 263.87902 
L 238.321934 253.619887 
L 241.187703 83.919595 
L 244.053473 294.753392 
L 246.919243 264.33761 
L 249.785013 281.856012 
L 252.650782 273.110386 
L 255.516552 291.548965 
L 258.382322 301.60836 
L 261.248091 273.826146 
L 264.113861 319.65443 
L 266.979631 312.028382 
L 269.845401 255.509883 
L 272.71117 300.138215 
L 275.57694 311.314264 
L 278.44271 311.677475 
L 287.040019 311.677475 
L 289.905789 321.028799 
L 292.771558 321.402164 
L 298.503098 321.402164 
L 301.368867 312.066836 
L 304.234637 321.011754 
L 307.100407 312.072211 
L 309.966177 321.002766 
L 312.831946 302.760744 
L 315.697716 311.273172 
L 318.563486 320.996323 
L 321.429255 321.402164 
L 324.295025 321.402164 
L 327.160795 312.089153 
L 330.026565 320.989858 
L 332.892334 321.402164 
L 335.758104 321.402164 
L 338.623874 293.505512 
L 341.489643 320.113014 
L 344.355413 321.402164 
L 347.221183 321.402164 
L 350.086953 330.690403 
L 352.952722 312.555028 
L 355.818492 320.960541 
L 358.684262 321.402164 
L 361.550031 321.402164 
L 364.415801 330.677971 
L 367.281571 321.85653 
L 370.147341 321.402164 
L 373.01311 321.402164 
L 375.87888 293.624384 
L 378.74465 320.004079 
L 381.610419 321.402164 
L 384.476189 321.402164 
L 387.341959 330.654507 
L 390.207729 312.624826 
L 393.073498 320.926575 
L 395.939268 321.402164 
L 398.805038 312.164774 
L 401.670807 320.913642 
L 404.536577 302.935374 
L 407.402347 311.181833 
L 410.268117 320.906539 
L 413.133886 321.402164 
L 415.999656 330.625512 
L 418.865426 321.905977 
L 421.731195 321.402164 
L 424.596965 275.327914 
L 427.462735 300.413605 
L 430.328505 301.952786 
L 436.060044 301.952786 
L 438.925814 329.571504 
L 441.791583 303.515416 
L 444.657353 320.359591 
L 447.523123 321.402164 
L 450.388893 303.00503 
L 453.254662 311.150442 
L 456.120432 330.055416 
L 458.986202 312.752043 
L 461.851971 302.493154 
L 464.717741 320.319233 
L 467.583511 312.221107 
L 470.449281 320.858581 
L 473.31505 321.402164 
L 476.18082 312.223688 
L 479.04659 320.85556 
L 481.912359 321.402164 
L 484.778129 321.402164 
L 487.643899 330.568213 
L 490.509669 303.646886 
L 493.375438 329.433758 
L 496.241208 303.653842 
L 499.106978 292.798775 
L 501.972747 310.533043 
L 504.838517 311.677475 
L 507.704287 284.241866 
L 510.570057 319.08538 
L 513.435826 321.402164 
L 516.301596 293.98832 
L 519.167366 319.64255 
L 522.033135 312.268351 
L 524.898905 311.677475 
L 527.764675 320.808728 
L 530.630445 330.53198 
L 533.496214 312.871599 
L 536.361984 320.80479 
L 539.227754 321.402164 
L 542.093523 303.168168 
L 544.959293 265.498607 
L 547.825063 299.51124 
L 550.690833 311.066012 
L 553.556602 329.885021 
L 556.422372 322.025131 
L 559.288142 330.498694 
L 562.153911 322.032399 
L 565.019681 303.221666 
L 567.885451 320.131153 
L 570.751221 321.402164 
L 573.61699 303.230172 
L 576.48276 329.207542 
L 579.34853 312.96042 
L 582.214299 311.677475 
L 587.945839 311.677475 
L 590.811609 302.599996 
L 593.677378 311.02566 
L 599.408918 330.472514 
L 602.274687 312.995317 
L 605.140457 320.742293 
L 608.006227 321.402164 
L 610.871997 321.402164 
L 613.737766 294.240048 
L 616.603536 319.391024 
L 619.469306 321.402164 
L 622.335075 312.352894 
L 625.200845 320.725644 
L 628.066615 303.315664 
L 630.932385 310.991469 
L 633.798154 266.500084 
L 636.663924 299.19127 
L 639.529694 292.925177 
L 642.395463 274.181606 
L 645.261233 308.871063 
L 648.127003 311.677475 
L 650.992773 293.646967 
L 653.858542 301.241772 
L 656.724312 319.981813 
L 659.590082 330.416075 
L 662.455851 295.081692 
L 665.321621 274.216551 
L 668.187391 326.814353 
L 671.053161 322.122317 
L 673.91893 285.39418 
L 676.7847 327.490801 
L 679.65047 322.132233 
L 685.382009 302.690938 
L 688.247779 328.903376 
L 691.113549 313.169178 
L 693.979318 311.677475 
L 696.845088 311.677475 
L 699.710858 320.644907 
L 702.576627 312.435954 
L 705.442397 311.677475 
L 708.308167 266.870454 
L 711.173937 343.658824 
L 714.039706 287.948345 
L 716.905476 291.448544 
L 719.771246 319.062205 
L 722.637015 321.402164 
L 725.502785 321.402164 
L 728.368555 294.593092 
L 731.234325 319.037579 
L 734.100094 303.534866 
L 736.965864 310.882027 
L 739.831634 311.677475 
L 742.697403 320.602583 
L 745.563173 312.48349 
L 748.428943 302.768972 
L 751.294713 319.766607 
L 754.160482 312.500974 
L 757.026252 311.677475 
L 759.892022 302.781181 
L 762.757791 310.847851 
L 765.623561 320.569343 
L 768.489331 312.512589 
L 771.355101 311.677475 
L 774.22087 329.453234 
L 777.08664 304.478724 
L 779.95241 328.593104 
L 782.818179 322.249563 
L 788.549719 302.803533 
L 791.415489 310.817209 
L 794.281258 311.677475 
L 797.147028 302.82077 
L 800.012798 310.804575 
L 802.878567 311.677475 
L 805.744337 320.514809 
L 808.610107 268.431489 
L 811.475877 316.009759 
L 814.341646 321.402164 
L 817.207416 312.580811 
L 820.073186 311.677475 
L 822.938955 320.491505 
L 825.804725 321.402164 
L 834.402034 321.402164 
L 837.267804 312.607447 
L 840.133574 311.677475 
L 848.730883 311.677475 
L 851.596653 302.905649 
L 854.462422 301.952786 
L 857.328192 310.719908 
L 860.193962 241.64031 
L 863.059731 268.877885 
L 865.925501 299.001911 
L 868.791271 310.69243 
L 871.657041 285.485481 
L 874.52281 317.421676 
L 877.38858 321.402164 
L 880.25435 277.830073 
L 883.120119 307.631241 
L 885.985889 302.966318 
L 888.851659 310.655145 
L 891.717429 294.277985 
L 894.583198 300.927268 
L 897.448968 301.952786 
L 900.314738 328.043838 
L 903.180507 331.126853 
L 906.046277 322.437867 
L 908.912047 312.717558 
L 911.777817 320.361665 
L 914.643586 286.675489 
L 917.509356 291.184132 
L 920.375126 196.878732 
L 923.240895 289.196459 
L 926.106665 310.6109 
L 928.972435 320.329635 
L 931.838205 312.752334 
L 934.703974 320.325585 
L 937.569744 321.402164 
L 940.435514 321.402164 
L 943.301283 330.040753 
L 946.167053 331.126853 
L 949.032823 305.227366 
L 951.898593 319.201956 
L 954.764362 312.781194 
L 957.630132 311.677475 
L 963.361671 311.677475 
L 966.227441 320.292584 
L 969.093211 312.793055 
L 971.958981 320.277769 
L 974.82475 304.222988 
L 977.69052 310.540493 
L 980.55629 311.677475 
L 983.422059 320.262165 
L 986.287829 312.819164 
L 989.153599 311.677475 
L 992.019369 303.096052 
L 994.885138 310.531518 
L 997.750908 294.533287 
L 1000.616678 309.361316 
L 1003.482447 140.622063 
L 1006.348217 288.177412 
L 1009.213987 320.224938 
L 1012.079757 312.861133 
L 1014.945526 269.01844 
L 1017.811296 322.778035 
L 1020.677066 322.595811 
L 1023.542835 321.402164 
L 1032.140145 321.402164 
L 1035.005914 329.918056 
L 1037.871684 314.10005 
L 1040.737454 320.189628 
L 1043.603223 329.913878 
L 1046.468993 314.115656 
L 1049.334763 320.1782 
L 1052.200533 312.903281 
L 1055.066302 294.689512 
L 1057.932072 317.707469 
L 1060.797842 321.402164 
L 1063.663611 295.932118 
L 1066.529381 300.714711 
L 1069.395151 318.923663 
L 1072.260921 202.764357 
L 1075.12669 41.541176 
L 1077.99246 256.850383 
L 1080.85823 317.611555 
L 1083.723999 321.402164 
L 1086.589769 321.402164 
L 1089.455539 296.03673 
L 1092.321309 317.592035 
L 1095.187078 321.402164 
L 1098.052848 312.958927 
L 1100.918618 311.677475 
L 1103.784387 320.112872 
L 1106.650157 304.554977 
L 1109.515927 259.904783 
L 1112.381697 303.731041 
L 1115.247466 311.677475 
L 1118.113236 311.677475 
L 1120.979006 320.039727 
L 1123.844775 288.009415 
L 1126.710545 307.516501 
L 1129.576315 311.677475 
L 1132.442085 104.137714 
L 1135.307854 259.375786 
L 1138.173624 68.927127 
L 1141.039394 261.150371 
L 1143.905163 227.684372 
L 1146.770933 280.368912 
L 1149.636703 292.228096 
L 1152.502473 234.73711 
L 1155.368242 265.156423 
L 1158.234012 158.253142 
L 1161.099782 128.468234 
L 1163.965551 249.265382 
L 1166.831321 297.22257 
L 1169.697091 277.552699 
L 1172.562861 151.081263 
L 1175.42863 191.730869 
L 1175.42863 191.730869 
" style="fill:none;stroke:#d95f02;stroke-linecap:round;"/>
   </g>
  </g>
  <g id="text_26">
   <!-- TCP upload stream w/ping -->
   <defs>
    <path d="M 41.109375 46.296875 
Q 39.59375 47.171875 37.8125 47.578125 
Q 36.03125 48 33.890625 48 
Q 26.265625 48 22.1875 43.046875 
Q 18.109375 38.09375 18.109375 28.8125 
L 18.109375 0 
L 9.078125 0 
L 9.078125 54.6875 
L 18.109375 54.6875 
L 18.109375 46.1875 
Q 20.953125 51.171875 25.484375 53.578125 
Q 30.03125 56 36.53125 56 
Q 37.453125 56 38.578125 55.875 
Q 39.703125 55.765625 41.0625 55.515625 
z
" id="BitstreamVeraSans-Roman-72"/>
    <path d="M 8.5 21.578125 
L 8.5 54.6875 
L 17.484375 54.6875 
L 17.484375 21.921875 
Q 17.484375 14.15625 20.5 10.265625 
Q 23.53125 6.390625 29.59375 6.390625 
Q 36.859375 6.390625 41.078125 11.03125 
Q 45.3125 15.671875 45.3125 23.6875 
L 45.3125 54.6875 
L 54.296875 54.6875 
L 54.296875 0 
L 45.3125 0 
L 45.3125 8.40625 
Q 42.046875 3.421875 37.71875 1 
Q 33.40625 -1.421875 27.6875 -1.421875 
Q 18.265625 -1.421875 13.375 4.4375 
Q 8.5 10.296875 8.5 21.578125 
" id="BitstreamVeraSans-Roman-75"/>
    <path d="M 64.40625 67.28125 
L 64.40625 56.890625 
Q 59.421875 61.53125 53.78125 63.8125 
Q 48.140625 66.109375 41.796875 66.109375 
Q 29.296875 66.109375 22.65625 58.46875 
Q 16.015625 50.828125 16.015625 36.375 
Q 16.015625 21.96875 22.65625 14.328125 
Q 29.296875 6.6875 41.796875 6.6875 
Q 48.140625 6.6875 53.78125 8.984375 
Q 59.421875 11.28125 64.40625 15.921875 
L 64.40625 5.609375 
Q 59.234375 2.09375 53.4375 0.328125 
Q 47.65625 -1.421875 41.21875 -1.421875 
Q 24.65625 -1.421875 15.125 8.703125 
Q 5.609375 18.84375 5.609375 36.375 
Q 5.609375 53.953125 15.125 64.078125 
Q 24.65625 74.21875 41.21875 74.21875 
Q 47.75 74.21875 53.53125 72.484375 
Q 59.328125 70.75 64.40625 67.28125 
" id="BitstreamVeraSans-Roman-43"/>
    <path d="M 4.203125 54.6875 
L 13.1875 54.6875 
L 24.421875 12.015625 
L 35.59375 54.6875 
L 46.1875 54.6875 
L 57.421875 12.015625 
L 68.609375 54.6875 
L 77.59375 54.6875 
L 63.28125 0 
L 52.6875 0 
L 40.921875 44.828125 
L 29.109375 0 
L 18.5 0 
z
" id="BitstreamVeraSans-Roman-77"/>
   </defs>
   <g style="fill:#262626;" transform="translate(609.1725 10.6378125)scale(0.14 -0.14)">
    <use xlink:href="#BitstreamVeraSans-Roman-54"/>
    <use x="61.005859375" xlink:href="#BitstreamVeraSans-Roman-43"/>
    <use x="130.830078125" xlink:href="#BitstreamVeraSans-Roman-50"/>
    <use x="191.1328125" xlink:href="#BitstreamVeraSans-Roman-20"/>
    <use x="222.919921875" xlink:href="#BitstreamVeraSans-Roman-75"/>
    <use x="286.298828125" xlink:href="#BitstreamVeraSans-Roman-70"/>
    <use x="349.775390625" xlink:href="#BitstreamVeraSans-Roman-6c"/>
    <use x="377.55859375" xlink:href="#BitstreamVeraSans-Roman-6f"/>
    <use x="438.740234375" xlink:href="#BitstreamVeraSans-Roman-61"/>
    <use x="500.01953125" xlink:href="#BitstreamVeraSans-Roman-64"/>
    <use x="563.49609375" xlink:href="#BitstreamVeraSans-Roman-20"/>
    <use x="595.283203125" xlink:href="#BitstreamVeraSans-Roman-73"/>
    <use x="647.3828125" xlink:href="#BitstreamVeraSans-Roman-74"/>
    <use x="686.591796875" xlink:href="#BitstreamVeraSans-Roman-72"/>
    <use x="727.673828125" xlink:href="#BitstreamVeraSans-Roman-65"/>
    <use x="789.197265625" xlink:href="#BitstreamVeraSans-Roman-61"/>
    <use x="850.4765625" xlink:href="#BitstreamVeraSans-Roman-6d"/>
    <use x="947.888671875" xlink:href="#BitstreamVeraSans-Roman-20"/>
    <use x="979.67578125" xlink:href="#BitstreamVeraSans-Roman-77"/>
    <use x="1061.46289062" xlink:href="#BitstreamVeraSans-Roman-2f"/>
    <use x="1095.15429688" xlink:href="#BitstreamVeraSans-Roman-70"/>
    <use x="1158.63085938" xlink:href="#BitstreamVeraSans-Roman-69"/>
    <use x="1186.4140625" xlink:href="#BitstreamVeraSans-Roman-6e"/>
    <use x="1249.79296875" xlink:href="#BitstreamVeraSans-Roman-67"/>
   </g>
   <!-- Bandwidth and ping plot -->
   <defs>
    <path d="M 19.671875 34.8125 
L 19.671875 8.109375 
L 35.5 8.109375 
Q 43.453125 8.109375 47.28125 11.40625 
Q 51.125 14.703125 51.125 21.484375 
Q 51.125 28.328125 47.28125 31.5625 
Q 43.453125 34.8125 35.5 34.8125 
z
M 19.671875 64.796875 
L 19.671875 42.828125 
L 34.28125 42.828125 
Q 41.5 42.828125 45.03125 45.53125 
Q 48.578125 48.25 48.578125 53.8125 
Q 48.578125 59.328125 45.03125 62.0625 
Q 41.5 64.796875 34.28125 64.796875 
z
M 9.8125 72.90625 
L 35.015625 72.90625 
Q 46.296875 72.90625 52.390625 68.21875 
Q 58.5 63.53125 58.5 54.890625 
Q 58.5 48.1875 55.375 44.234375 
Q 52.25 40.28125 46.1875 39.3125 
Q 53.46875 37.75 57.5 32.78125 
Q 61.53125 27.828125 61.53125 20.40625 
Q 61.53125 10.640625 54.890625 5.3125 
Q 48.25 0 35.984375 0 
L 9.8125 0 
z
" id="BitstreamVeraSans-Roman-42"/>
    <path d="M 54.890625 33.015625 
L 54.890625 0 
L 45.90625 0 
L 45.90625 32.71875 
Q 45.90625 40.484375 42.875 44.328125 
Q 39.84375 48.1875 33.796875 48.1875 
Q 26.515625 48.1875 22.3125 43.546875 
Q 18.109375 38.921875 18.109375 30.90625 
L 18.109375 0 
L 9.078125 0 
L 9.078125 75.984375 
L 18.109375 75.984375 
L 18.109375 46.1875 
Q 21.34375 51.125 25.703125 53.5625 
Q 30.078125 56 35.796875 56 
Q 45.21875 56 50.046875 50.171875 
Q 54.890625 44.34375 54.890625 33.015625 
" id="BitstreamVeraSans-Roman-68"/>
   </defs>
   <g style="fill:#262626;" transform="translate(615.30515625 26.31475)scale(0.14 -0.14)">
    <use xlink:href="#BitstreamVeraSans-Roman-42"/>
    <use x="68.603515625" xlink:href="#BitstreamVeraSans-Roman-61"/>
    <use x="129.8828125" xlink:href="#BitstreamVeraSans-Roman-6e"/>
    <use x="193.26171875" xlink:href="#BitstreamVeraSans-Roman-64"/>
    <use x="256.73828125" xlink:href="#BitstreamVeraSans-Roman-77"/>
    <use x="338.525390625" xlink:href="#BitstreamVeraSans-Roman-69"/>
    <use x="366.30859375" xlink:href="#BitstreamVeraSans-Roman-64"/>
    <use x="429.78515625" xlink:href="#BitstreamVeraSans-Roman-74"/>
    <use x="468.994140625" xlink:href="#BitstreamVeraSans-Roman-68"/>
    <use x="532.373046875" xlink:href="#BitstreamVeraSans-Roman-20"/>
    <use x="564.16015625" xlink:href="#BitstreamVeraSans-Roman-61"/>
    <use x="625.439453125" xlink:href="#BitstreamVeraSans-Roman-6e"/>
    <use x="688.818359375" xlink:href="#BitstreamVeraSans-Roman-64"/>
    <use x="752.294921875" xlink:href="#BitstreamVeraSans-Roman-20"/>
    <use x="784.08203125" xlink:href="#BitstreamVeraSans-Roman-70"/>
    <use x="847.55859375" xlink:href="#BitstreamVeraSans-Roman-69"/>
    <use x="875.341796875" xlink:href="#BitstreamVeraSans-Roman-6e"/>
    <use x="938.720703125" xlink:href="#BitstreamVeraSans-Roman-67"/>
    <use x="1002.19726562" xlink:href="#BitstreamVeraSans-Roman-20"/>
    <use x="1033.984375" xlink:href="#BitstreamVeraSans-Roman-70"/>
    <use x="1097.4609375" xlink:href="#BitstreamVeraSans-Roman-6c"/>
    <use x="1125.24414062" xlink:href="#BitstreamVeraSans-Roman-6f"/>
    <use x="1186.42578125" xlink:href="#BitstreamVeraSans-Roman-74"/>
   </g>
   <!-- pine64-pfifo-bbr -->
   <defs>
    <path d="M 37.109375 75.984375 
L 37.109375 68.5 
L 28.515625 68.5 
Q 23.6875 68.5 21.796875 66.546875 
Q 19.921875 64.59375 19.921875 59.515625 
L 19.921875 54.6875 
L 34.71875 54.6875 
L 34.71875 47.703125 
L 19.921875 47.703125 
L 19.921875 0 
L 10.890625 0 
L 10.890625 47.703125 
L 2.296875 47.703125 
L 2.296875 54.6875 
L 10.890625 54.6875 
L 10.890625 58.5 
Q 10.890625 67.625 15.140625 71.796875 
Q 19.390625 75.984375 28.609375 75.984375 
z
" id="BitstreamVeraSans-Roman-66"/>
    <path d="M 4.890625 31.390625 
L 31.203125 31.390625 
L 31.203125 23.390625 
L 4.890625 23.390625 
z
" id="BitstreamVeraSans-Roman-2d"/>
   </defs>
   <g style="fill:#262626;" transform="translate(644.6428125 41.9916875)scale(0.14 -0.14)">
    <use xlink:href="#BitstreamVeraSans-Roman-70"/>
    <use x="63.4765625" xlink:href="#BitstreamVeraSans-Roman-69"/>
    <use x="91.259765625" xlink:href="#BitstreamVeraSans-Roman-6e"/>
    <use x="154.638671875" xlink:href="#BitstreamVeraSans-Roman-65"/>
    <use x="216.162109375" xlink:href="#BitstreamVeraSans-Roman-36"/>
    <use x="279.78515625" xlink:href="#BitstreamVeraSans-Roman-34"/>
    <use x="343.408203125" xlink:href="#BitstreamVeraSans-Roman-2d"/>
    <use x="379.4921875" xlink:href="#BitstreamVeraSans-Roman-70"/>
    <use x="442.96875" xlink:href="#BitstreamVeraSans-Roman-66"/>
    <use x="478.173828125" xlink:href="#BitstreamVeraSans-Roman-69"/>
    <use x="505.95703125" xlink:href="#BitstreamVeraSans-Roman-66"/>
    <use x="541.162109375" xlink:href="#BitstreamVeraSans-Roman-6f"/>
    <use x="602.359375" xlink:href="#BitstreamVeraSans-Roman-2d"/>
    <use x="638.443359375" xlink:href="#BitstreamVeraSans-Roman-62"/>
    <use x="701.919921875" xlink:href="#BitstreamVeraSans-Roman-62"/>
    <use x="765.396484375" xlink:href="#BitstreamVeraSans-Roman-72"/>
   </g>
  </g>
  <g id="text_27">
   <!-- Local/remote: nemesis/172.22.148.15 - Time: 2016-09-26T15:02:59.413819 - Length/step: 60s/0.20s -->
   <defs>
    <path d="M 31.78125 34.625 
Q 24.75 34.625 20.71875 30.859375 
Q 16.703125 27.09375 16.703125 20.515625 
Q 16.703125 13.921875 20.71875 10.15625 
Q 24.75 6.390625 31.78125 6.390625 
Q 38.8125 6.390625 42.859375 10.171875 
Q 46.921875 13.96875 46.921875 20.515625 
Q 46.921875 27.09375 42.890625 30.859375 
Q 38.875 34.625 31.78125 34.625 
M 21.921875 38.8125 
Q 15.578125 40.375 12.03125 44.71875 
Q 8.5 49.078125 8.5 55.328125 
Q 8.5 64.0625 14.71875 69.140625 
Q 20.953125 74.21875 31.78125 74.21875 
Q 42.671875 74.21875 48.875 69.140625 
Q 55.078125 64.0625 55.078125 55.328125 
Q 55.078125 49.078125 51.53125 44.71875 
Q 48 40.375 41.703125 38.8125 
Q 48.828125 37.15625 52.796875 32.3125 
Q 56.78125 27.484375 56.78125 20.515625 
Q 56.78125 9.90625 50.3125 4.234375 
Q 43.84375 -1.421875 31.78125 -1.421875 
Q 19.734375 -1.421875 13.25 4.234375 
Q 6.78125 9.90625 6.78125 20.515625 
Q 6.78125 27.484375 10.78125 32.3125 
Q 14.796875 37.15625 21.921875 38.8125 
M 18.3125 54.390625 
Q 18.3125 48.734375 21.84375 45.5625 
Q 25.390625 42.390625 31.78125 42.390625 
Q 38.140625 42.390625 41.71875 45.5625 
Q 45.3125 48.734375 45.3125 54.390625 
Q 45.3125 60.0625 41.71875 63.234375 
Q 38.140625 66.40625 31.78125 66.40625 
Q 25.390625 66.40625 21.84375 63.234375 
Q 18.3125 60.0625 18.3125 54.390625 
" id="BitstreamVeraSans-Roman-38"/>
    <path d="M 11.71875 12.40625 
L 22.015625 12.40625 
L 22.015625 0 
L 11.71875 0 
z
M 11.71875 51.703125 
L 22.015625 51.703125 
L 22.015625 39.3125 
L 11.71875 39.3125 
z
" id="BitstreamVeraSans-Roman-3a"/>
    <path d="M 10.984375 1.515625 
L 10.984375 10.5 
Q 14.703125 8.734375 18.5 7.8125 
Q 22.3125 6.890625 25.984375 6.890625 
Q 35.75 6.890625 40.890625 13.453125 
Q 46.046875 20.015625 46.78125 33.40625 
Q 43.953125 29.203125 39.59375 26.953125 
Q 35.25 24.703125 29.984375 24.703125 
Q 19.046875 24.703125 12.671875 31.3125 
Q 6.296875 37.9375 6.296875 49.421875 
Q 6.296875 60.640625 12.9375 67.421875 
Q 19.578125 74.21875 30.609375 74.21875 
Q 43.265625 74.21875 49.921875 64.515625 
Q 56.59375 54.828125 56.59375 36.375 
Q 56.59375 19.140625 48.40625 8.859375 
Q 40.234375 -1.421875 26.421875 -1.421875 
Q 22.703125 -1.421875 18.890625 -0.6875 
Q 15.09375 0.046875 10.984375 1.515625 
M 30.609375 32.421875 
Q 37.25 32.421875 41.125 36.953125 
Q 45.015625 41.5 45.015625 49.421875 
Q 45.015625 57.28125 41.125 61.84375 
Q 37.25 66.40625 30.609375 66.40625 
Q 23.96875 66.40625 20.09375 61.84375 
Q 16.21875 57.28125 16.21875 49.421875 
Q 16.21875 41.5 20.09375 36.953125 
Q 23.96875 32.421875 30.609375 32.421875 
" id="BitstreamVeraSans-Roman-39"/>
   </defs>
   <g style="fill:#262626;" transform="translate(498.2825 383.53625)scale(0.08 -0.08)">
    <use xlink:href="#BitstreamVeraSans-Roman-4c"/>
    <use x="55.697265625" xlink:href="#BitstreamVeraSans-Roman-6f"/>
    <use x="116.87890625" xlink:href="#BitstreamVeraSans-Roman-63"/>
    <use x="171.859375" xlink:href="#BitstreamVeraSans-Roman-61"/>
    <use x="233.138671875" xlink:href="#BitstreamVeraSans-Roman-6c"/>
    <use x="260.921875" xlink:href="#BitstreamVeraSans-Roman-2f"/>
    <use x="294.61328125" xlink:href="#BitstreamVeraSans-Roman-72"/>
    <use x="335.6953125" xlink:href="#BitstreamVeraSans-Roman-65"/>
    <use x="397.21875" xlink:href="#BitstreamVeraSans-Roman-6d"/>
    <use x="494.630859375" xlink:href="#BitstreamVeraSans-Roman-6f"/>
    <use x="555.8125" xlink:href="#BitstreamVeraSans-Roman-74"/>
    <use x="595.021484375" xlink:href="#BitstreamVeraSans-Roman-65"/>
    <use x="656.544921875" xlink:href="#BitstreamVeraSans-Roman-3a"/>
    <use x="690.236328125" xlink:href="#BitstreamVeraSans-Roman-20"/>
    <use x="722.0234375" xlink:href="#BitstreamVeraSans-Roman-6e"/>
    <use x="785.40234375" xlink:href="#BitstreamVeraSans-Roman-65"/>
    <use x="846.92578125" xlink:href="#BitstreamVeraSans-Roman-6d"/>
    <use x="944.337890625" xlink:href="#BitstreamVeraSans-Roman-65"/>
    <use x="1005.86132812" xlink:href="#BitstreamVeraSans-Roman-73"/>
    <use x="1057.9609375" xlink:href="#BitstreamVeraSans-Roman-69"/>
    <use x="1085.74414062" xlink:href="#BitstreamVeraSans-Roman-73"/>
    <use x="1137.84375" xlink:href="#BitstreamVeraSans-Roman-2f"/>
    <use x="1171.53515625" xlink:href="#BitstreamVeraSans-Roman-31"/>
    <use x="1235.15820312" xlink:href="#BitstreamVeraSans-Roman-37"/>
    <use x="1298.78125" xlink:href="#BitstreamVeraSans-Roman-32"/>
    <use x="1362.40429688" xlink:href="#BitstreamVeraSans-Roman-2e"/>
    <use x="1394.19140625" xlink:href="#BitstreamVeraSans-Roman-32"/>
    <use x="1457.81445312" xlink:href="#BitstreamVeraSans-Roman-32"/>
    <use x="1521.4375" xlink:href="#BitstreamVeraSans-Roman-2e"/>
    <use x="1553.22460938" xlink:href="#BitstreamVeraSans-Roman-31"/>
    <use x="1616.84765625" xlink:href="#BitstreamVeraSans-Roman-34"/>
    <use x="1680.47070312" xlink:href="#BitstreamVeraSans-Roman-38"/>
    <use x="1744.09375" xlink:href="#BitstreamVeraSans-Roman-2e"/>
    <use x="1775.88085938" xlink:href="#BitstreamVeraSans-Roman-31"/>
    <use x="1839.50390625" xlink:href="#BitstreamVeraSans-Roman-35"/>
    <use x="1903.12695312" xlink:href="#BitstreamVeraSans-Roman-20"/>
    <use x="1934.9140625" xlink:href="#BitstreamVeraSans-Roman-2d"/>
    <use x="1970.99804688" xlink:href="#BitstreamVeraSans-Roman-20"/>
    <use x="2002.78515625" xlink:href="#BitstreamVeraSans-Roman-54"/>
    <use x="2063.82226562" xlink:href="#BitstreamVeraSans-Roman-69"/>
    <use x="2091.60546875" xlink:href="#BitstreamVeraSans-Roman-6d"/>
    <use x="2189.01757812" xlink:href="#BitstreamVeraSans-Roman-65"/>
    <use x="2250.54101562" xlink:href="#BitstreamVeraSans-Roman-3a"/>
    <use x="2284.23242188" xlink:href="#BitstreamVeraSans-Roman-20"/>
    <use x="2316.01953125" xlink:href="#BitstreamVeraSans-Roman-32"/>
    <use x="2379.64257812" xlink:href="#BitstreamVeraSans-Roman-30"/>
    <use x="2443.265625" xlink:href="#BitstreamVeraSans-Roman-31"/>
    <use x="2506.88867188" xlink:href="#BitstreamVeraSans-Roman-36"/>
    <use x="2570.51171875" xlink:href="#BitstreamVeraSans-Roman-2d"/>
    <use x="2606.59570312" xlink:href="#BitstreamVeraSans-Roman-30"/>
    <use x="2670.21875" xlink:href="#BitstreamVeraSans-Roman-39"/>
    <use x="2733.84179688" xlink:href="#BitstreamVeraSans-Roman-2d"/>
    <use x="2769.92578125" xlink:href="#BitstreamVeraSans-Roman-32"/>
    <use x="2833.54882812" xlink:href="#BitstreamVeraSans-Roman-36"/>
    <use x="2897.171875" xlink:href="#BitstreamVeraSans-Roman-54"/>
    <use x="2958.25585938" xlink:href="#BitstreamVeraSans-Roman-31"/>
    <use x="3021.87890625" xlink:href="#BitstreamVeraSans-Roman-35"/>
    <use x="3085.50195312" xlink:href="#BitstreamVeraSans-Roman-3a"/>
    <use x="3119.19335938" xlink:href="#BitstreamVeraSans-Roman-30"/>
    <use x="3182.81640625" xlink:href="#BitstreamVeraSans-Roman-32"/>
    <use x="3246.43945312" xlink:href="#BitstreamVeraSans-Roman-3a"/>
    <use x="3280.13085938" xlink:href="#BitstreamVeraSans-Roman-35"/>
    <use x="3343.75390625" xlink:href="#BitstreamVeraSans-Roman-39"/>
    <use x="3407.37695312" xlink:href="#BitstreamVeraSans-Roman-2e"/>
    <use x="3439.1640625" xlink:href="#BitstreamVeraSans-Roman-34"/>
    <use x="3502.78710938" xlink:href="#BitstreamVeraSans-Roman-31"/>
    <use x="3566.41015625" xlink:href="#BitstreamVeraSans-Roman-33"/>
    <use x="3630.03320312" xlink:href="#BitstreamVeraSans-Roman-38"/>
    <use x="3693.65625" xlink:href="#BitstreamVeraSans-Roman-31"/>
    <use x="3757.27929688" xlink:href="#BitstreamVeraSans-Roman-39"/>
    <use x="3820.90234375" xlink:href="#BitstreamVeraSans-Roman-20"/>
    <use x="3852.68945312" xlink:href="#BitstreamVeraSans-Roman-2d"/>
    <use x="3888.7734375" xlink:href="#BitstreamVeraSans-Roman-20"/>
    <use x="3920.56054688" xlink:href="#BitstreamVeraSans-Roman-4c"/>
    <use x="3976.2578125" xlink:href="#BitstreamVeraSans-Roman-65"/>
    <use x="4037.78125" xlink:href="#BitstreamVeraSans-Roman-6e"/>
    <use x="4101.16015625" xlink:href="#BitstreamVeraSans-Roman-67"/>
    <use x="4164.63671875" xlink:href="#BitstreamVeraSans-Roman-74"/>
    <use x="4203.84570312" xlink:href="#BitstreamVeraSans-Roman-68"/>
    <use x="4267.22460938" xlink:href="#BitstreamVeraSans-Roman-2f"/>
    <use x="4300.91601562" xlink:href="#BitstreamVeraSans-Roman-73"/>
    <use x="4353.015625" xlink:href="#BitstreamVeraSans-Roman-74"/>
    <use x="4392.22460938" xlink:href="#BitstreamVeraSans-Roman-65"/>
    <use x="4453.74804688" xlink:href="#BitstreamVeraSans-Roman-70"/>
    <use x="4517.22460938" xlink:href="#BitstreamVeraSans-Roman-3a"/>
    <use x="4550.91601562" xlink:href="#BitstreamVeraSans-Roman-20"/>
    <use x="4582.703125" xlink:href="#BitstreamVeraSans-Roman-36"/>
    <use x="4646.32617188" xlink:href="#BitstreamVeraSans-Roman-30"/>
    <use x="4709.94921875" xlink:href="#BitstreamVeraSans-Roman-73"/>
    <use x="4762.04882812" xlink:href="#BitstreamVeraSans-Roman-2f"/>
    <use x="4795.74023438" xlink:href="#BitstreamVeraSans-Roman-30"/>
    <use x="4859.36328125" xlink:href="#BitstreamVeraSans-Roman-2e"/>
    <use x="4891.15039062" xlink:href="#BitstreamVeraSans-Roman-32"/>
    <use x="4954.7734375" xlink:href="#BitstreamVeraSans-Roman-30"/>
    <use x="5018.39648438" xlink:href="#BitstreamVeraSans-Roman-73"/>
   </g>
  </g>
 </g>
 <defs>
  <clipPath id="pab57cef4e0">
   <rect height="308.16" width="1003.0194" x="175.275" y="38.52"/>
  </clipPath>
 </defs>
</svg>
