<?xml version="1.0" encoding="utf-8" standalone="no"?>
<!DOCTYPE svg PUBLIC "-//W3C//DTD SVG 1.1//EN"
  "http://www.w3.org/Graphics/SVG/1.1/DTD/svg11.dtd">
<!-- Created with matplotlib (http://matplotlib.org/) -->
<svg height="539pt" version="1.1" viewBox="0 0 693 539" width="693pt" xmlns="http://www.w3.org/2000/svg" xmlns:xlink="http://www.w3.org/1999/xlink">
 <defs>
  <style type="text/css">
*{stroke-linecap:butt;stroke-linejoin:round;stroke-miterlimit:100000;}
  </style>
 </defs>
 <g id="figure_1">
  <g id="patch_1">
   <path d="M 0 539.1 
L 693 539.1 
L 693 0 
L 0 0 
z
" style="fill:#ffffff;"/>
  </g>
  <g id="axes_1">
   <g id="patch_2">
    <path d="M 86.625 485.19 
L 537.8769 485.19 
L 537.8769 53.91 
L 86.625 53.91 
z
" style="fill:#eaeaf2;"/>
   </g>
   <g id="matplotlib.axis_1">
    <g id="xtick_1">
     <g id="line2d_1">
      <defs>
       <path d="M 0 0 
L 0 0 
" id="m872d7cd3b8" style="stroke:#262626;stroke-width:0.5;"/>
      </defs>
      <g>
       <use style="fill:#262626;stroke:#262626;stroke-width:0.5;" x="86.625" xlink:href="#m872d7cd3b8" y="485.19"/>
      </g>
     </g>
     <g id="line2d_2">
      <g>
       <use style="fill:#262626;stroke:#262626;stroke-width:0.5;" x="86.625" xlink:href="#m872d7cd3b8" y="53.91"/>
      </g>
     </g>
     <g id="text_1">
      <!-- 0 -->
      <defs>
       <path d="M 31.78125 66.40625 
Q 24.171875 66.40625 20.328125 58.90625 
Q 16.5 51.421875 16.5 36.375 
Q 16.5 21.390625 20.328125 13.890625 
Q 24.171875 6.390625 31.78125 6.390625 
Q 39.453125 6.390625 43.28125 13.890625 
Q 47.125 21.390625 47.125 36.375 
Q 47.125 51.421875 43.28125 58.90625 
Q 39.453125 66.40625 31.78125 66.40625 
M 31.78125 74.21875 
Q 44.046875 74.21875 50.515625 64.515625 
Q 56.984375 54.828125 56.984375 36.375 
Q 56.984375 17.96875 50.515625 8.265625 
Q 44.046875 -1.421875 31.78125 -1.421875 
Q 19.53125 -1.421875 13.0625 8.265625 
Q 6.59375 17.96875 6.59375 36.375 
Q 6.59375 54.828125 13.0625 64.515625 
Q 19.53125 74.21875 31.78125 74.21875 
" id="BitstreamVeraSans-Roman-30"/>
      </defs>
      <g style="fill:#262626;" transform="translate(82.8075 498.308125)scale(0.12 -0.12)">
       <use xlink:href="#BitstreamVeraSans-Roman-30"/>
      </g>
     </g>
    </g>
    <g id="xtick_2">
     <g id="line2d_3">
      <g>
       <use style="fill:#262626;stroke:#262626;stroke-width:0.5;" x="151.089557143" xlink:href="#m872d7cd3b8" y="485.19"/>
      </g>
     </g>
     <g id="line2d_4">
      <g>
       <use style="fill:#262626;stroke:#262626;stroke-width:0.5;" x="151.089557143" xlink:href="#m872d7cd3b8" y="53.91"/>
      </g>
     </g>
     <g id="text_2">
      <!-- 10 -->
      <defs>
       <path d="M 12.40625 8.296875 
L 28.515625 8.296875 
L 28.515625 63.921875 
L 10.984375 60.40625 
L 10.984375 69.390625 
L 28.421875 72.90625 
L 38.28125 72.90625 
L 38.28125 8.296875 
L 54.390625 8.296875 
L 54.390625 0 
L 12.40625 0 
z
" id="BitstreamVeraSans-Roman-31"/>
      </defs>
      <g style="fill:#262626;" transform="translate(143.454557143 498.308125)scale(0.12 -0.12)">
       <use xlink:href="#BitstreamVeraSans-Roman-31"/>
       <use x="63.623046875" xlink:href="#BitstreamVeraSans-Roman-30"/>
      </g>
     </g>
    </g>
    <g id="xtick_3">
     <g id="line2d_5">
      <g>
       <use style="fill:#262626;stroke:#262626;stroke-width:0.5;" x="215.554114286" xlink:href="#m872d7cd3b8" y="485.19"/>
      </g>
     </g>
     <g id="line2d_6">
      <g>
       <use style="fill:#262626;stroke:#262626;stroke-width:0.5;" x="215.554114286" xlink:href="#m872d7cd3b8" y="53.91"/>
      </g>
     </g>
     <g id="text_3">
      <!-- 20 -->
      <defs>
       <path d="M 19.1875 8.296875 
L 53.609375 8.296875 
L 53.609375 0 
L 7.328125 0 
L 7.328125 8.296875 
Q 12.9375 14.109375 22.625 23.890625 
Q 32.328125 33.6875 34.8125 36.53125 
Q 39.546875 41.84375 41.421875 45.53125 
Q 43.3125 49.21875 43.3125 52.78125 
Q 43.3125 58.59375 39.234375 62.25 
Q 35.15625 65.921875 28.609375 65.921875 
Q 23.96875 65.921875 18.8125 64.3125 
Q 13.671875 62.703125 7.8125 59.421875 
L 7.8125 69.390625 
Q 13.765625 71.78125 18.9375 73 
Q 24.125 74.21875 28.421875 74.21875 
Q 39.75 74.21875 46.484375 68.546875 
Q 53.21875 62.890625 53.21875 53.421875 
Q 53.21875 48.921875 51.53125 44.890625 
Q 49.859375 40.875 45.40625 35.40625 
Q 44.1875 33.984375 37.640625 27.21875 
Q 31.109375 20.453125 19.1875 8.296875 
" id="BitstreamVeraSans-Roman-32"/>
      </defs>
      <g style="fill:#262626;" transform="translate(207.919114286 498.308125)scale(0.12 -0.12)">
       <use xlink:href="#BitstreamVeraSans-Roman-32"/>
       <use x="63.623046875" xlink:href="#BitstreamVeraSans-Roman-30"/>
      </g>
     </g>
    </g>
    <g id="xtick_4">
     <g id="line2d_7">
      <g>
       <use style="fill:#262626;stroke:#262626;stroke-width:0.5;" x="280.018671429" xlink:href="#m872d7cd3b8" y="485.19"/>
      </g>
     </g>
     <g id="line2d_8">
      <g>
       <use style="fill:#262626;stroke:#262626;stroke-width:0.5;" x="280.018671429" xlink:href="#m872d7cd3b8" y="53.91"/>
      </g>
     </g>
     <g id="text_4">
      <!-- 30 -->
      <defs>
       <path d="M 40.578125 39.3125 
Q 47.65625 37.796875 51.625 33 
Q 55.609375 28.21875 55.609375 21.1875 
Q 55.609375 10.40625 48.1875 4.484375 
Q 40.765625 -1.421875 27.09375 -1.421875 
Q 22.515625 -1.421875 17.65625 -0.515625 
Q 12.796875 0.390625 7.625 2.203125 
L 7.625 11.71875 
Q 11.71875 9.328125 16.59375 8.109375 
Q 21.484375 6.890625 26.8125 6.890625 
Q 36.078125 6.890625 40.9375 10.546875 
Q 45.796875 14.203125 45.796875 21.1875 
Q 45.796875 27.640625 41.28125 31.265625 
Q 36.765625 34.90625 28.71875 34.90625 
L 20.21875 34.90625 
L 20.21875 43.015625 
L 29.109375 43.015625 
Q 36.375 43.015625 40.234375 45.921875 
Q 44.09375 48.828125 44.09375 54.296875 
Q 44.09375 59.90625 40.109375 62.90625 
Q 36.140625 65.921875 28.71875 65.921875 
Q 24.65625 65.921875 20.015625 65.03125 
Q 15.375 64.15625 9.8125 62.3125 
L 9.8125 71.09375 
Q 15.4375 72.65625 20.34375 73.4375 
Q 25.25 74.21875 29.59375 74.21875 
Q 40.828125 74.21875 47.359375 69.109375 
Q 53.90625 64.015625 53.90625 55.328125 
Q 53.90625 49.265625 50.4375 45.09375 
Q 46.96875 40.921875 40.578125 39.3125 
" id="BitstreamVeraSans-Roman-33"/>
      </defs>
      <g style="fill:#262626;" transform="translate(272.383671429 498.308125)scale(0.12 -0.12)">
       <use xlink:href="#BitstreamVeraSans-Roman-33"/>
       <use x="63.623046875" xlink:href="#BitstreamVeraSans-Roman-30"/>
      </g>
     </g>
    </g>
    <g id="xtick_5">
     <g id="line2d_9">
      <g>
       <use style="fill:#262626;stroke:#262626;stroke-width:0.5;" x="344.483228571" xlink:href="#m872d7cd3b8" y="485.19"/>
      </g>
     </g>
     <g id="line2d_10">
      <g>
       <use style="fill:#262626;stroke:#262626;stroke-width:0.5;" x="344.483228571" xlink:href="#m872d7cd3b8" y="53.91"/>
      </g>
     </g>
     <g id="text_5">
      <!-- 40 -->
      <defs>
       <path d="M 37.796875 64.3125 
L 12.890625 25.390625 
L 37.796875 25.390625 
z
M 35.203125 72.90625 
L 47.609375 72.90625 
L 47.609375 25.390625 
L 58.015625 25.390625 
L 58.015625 17.1875 
L 47.609375 17.1875 
L 47.609375 0 
L 37.796875 0 
L 37.796875 17.1875 
L 4.890625 17.1875 
L 4.890625 26.703125 
z
" id="BitstreamVeraSans-Roman-34"/>
      </defs>
      <g style="fill:#262626;" transform="translate(336.848228571 498.308125)scale(0.12 -0.12)">
       <use xlink:href="#BitstreamVeraSans-Roman-34"/>
       <use x="63.623046875" xlink:href="#BitstreamVeraSans-Roman-30"/>
      </g>
     </g>
    </g>
    <g id="xtick_6">
     <g id="line2d_11">
      <g>
       <use style="fill:#262626;stroke:#262626;stroke-width:0.5;" x="408.947785714" xlink:href="#m872d7cd3b8" y="485.19"/>
      </g>
     </g>
     <g id="line2d_12">
      <g>
       <use style="fill:#262626;stroke:#262626;stroke-width:0.5;" x="408.947785714" xlink:href="#m872d7cd3b8" y="53.91"/>
      </g>
     </g>
     <g id="text_6">
      <!-- 50 -->
      <defs>
       <path d="M 10.796875 72.90625 
L 49.515625 72.90625 
L 49.515625 64.59375 
L 19.828125 64.59375 
L 19.828125 46.734375 
Q 21.96875 47.46875 24.109375 47.828125 
Q 26.265625 48.1875 28.421875 48.1875 
Q 40.625 48.1875 47.75 41.5 
Q 54.890625 34.8125 54.890625 23.390625 
Q 54.890625 11.625 47.5625 5.09375 
Q 40.234375 -1.421875 26.90625 -1.421875 
Q 22.3125 -1.421875 17.546875 -0.640625 
Q 12.796875 0.140625 7.71875 1.703125 
L 7.71875 11.625 
Q 12.109375 9.234375 16.796875 8.0625 
Q 21.484375 6.890625 26.703125 6.890625 
Q 35.15625 6.890625 40.078125 11.328125 
Q 45.015625 15.765625 45.015625 23.390625 
Q 45.015625 31 40.078125 35.4375 
Q 35.15625 39.890625 26.703125 39.890625 
Q 22.75 39.890625 18.8125 39.015625 
Q 14.890625 38.140625 10.796875 36.28125 
z
" id="BitstreamVeraSans-Roman-35"/>
      </defs>
      <g style="fill:#262626;" transform="translate(401.312785714 498.308125)scale(0.12 -0.12)">
       <use xlink:href="#BitstreamVeraSans-Roman-35"/>
       <use x="63.623046875" xlink:href="#BitstreamVeraSans-Roman-30"/>
      </g>
     </g>
    </g>
    <g id="xtick_7">
     <g id="line2d_13">
      <g>
       <use style="fill:#262626;stroke:#262626;stroke-width:0.5;" x="473.412342857" xlink:href="#m872d7cd3b8" y="485.19"/>
      </g>
     </g>
     <g id="line2d_14">
      <g>
       <use style="fill:#262626;stroke:#262626;stroke-width:0.5;" x="473.412342857" xlink:href="#m872d7cd3b8" y="53.91"/>
      </g>
     </g>
     <g id="text_7">
      <!-- 60 -->
      <defs>
       <path d="M 33.015625 40.375 
Q 26.375 40.375 22.484375 35.828125 
Q 18.609375 31.296875 18.609375 23.390625 
Q 18.609375 15.53125 22.484375 10.953125 
Q 26.375 6.390625 33.015625 6.390625 
Q 39.65625 6.390625 43.53125 10.953125 
Q 47.40625 15.53125 47.40625 23.390625 
Q 47.40625 31.296875 43.53125 35.828125 
Q 39.65625 40.375 33.015625 40.375 
M 52.59375 71.296875 
L 52.59375 62.3125 
Q 48.875 64.0625 45.09375 64.984375 
Q 41.3125 65.921875 37.59375 65.921875 
Q 27.828125 65.921875 22.671875 59.328125 
Q 17.53125 52.734375 16.796875 39.40625 
Q 19.671875 43.65625 24.015625 45.921875 
Q 28.375 48.1875 33.59375 48.1875 
Q 44.578125 48.1875 50.953125 41.515625 
Q 57.328125 34.859375 57.328125 23.390625 
Q 57.328125 12.15625 50.6875 5.359375 
Q 44.046875 -1.421875 33.015625 -1.421875 
Q 20.359375 -1.421875 13.671875 8.265625 
Q 6.984375 17.96875 6.984375 36.375 
Q 6.984375 53.65625 15.1875 63.9375 
Q 23.390625 74.21875 37.203125 74.21875 
Q 40.921875 74.21875 44.703125 73.484375 
Q 48.484375 72.75 52.59375 71.296875 
" id="BitstreamVeraSans-Roman-36"/>
      </defs>
      <g style="fill:#262626;" transform="translate(465.777342857 498.308125)scale(0.12 -0.12)">
       <use xlink:href="#BitstreamVeraSans-Roman-36"/>
       <use x="63.623046875" xlink:href="#BitstreamVeraSans-Roman-30"/>
      </g>
     </g>
    </g>
    <g id="xtick_8">
     <g id="line2d_15">
      <g>
       <use style="fill:#262626;stroke:#262626;stroke-width:0.5;" x="537.8769" xlink:href="#m872d7cd3b8" y="485.19"/>
      </g>
     </g>
     <g id="line2d_16">
      <g>
       <use style="fill:#262626;stroke:#262626;stroke-width:0.5;" x="537.8769" xlink:href="#m872d7cd3b8" y="53.91"/>
      </g>
     </g>
     <g id="text_8">
      <!-- 70 -->
      <defs>
       <path d="M 8.203125 72.90625 
L 55.078125 72.90625 
L 55.078125 68.703125 
L 28.609375 0 
L 18.3125 0 
L 43.21875 64.59375 
L 8.203125 64.59375 
z
" id="BitstreamVeraSans-Roman-37"/>
      </defs>
      <g style="fill:#262626;" transform="translate(530.2419 498.308125)scale(0.12 -0.12)">
       <use xlink:href="#BitstreamVeraSans-Roman-37"/>
       <use x="63.623046875" xlink:href="#BitstreamVeraSans-Roman-30"/>
      </g>
     </g>
    </g>
    <g id="xtick_9">
     <g id="line2d_17">
      <g>
       <use style="fill:#262626;stroke:#262626;stroke-width:0.5;" x="99.5179114286" xlink:href="#m872d7cd3b8" y="485.19"/>
      </g>
     </g>
     <g id="line2d_18">
      <g>
       <use style="fill:#262626;stroke:#262626;stroke-width:0.5;" x="99.5179114286" xlink:href="#m872d7cd3b8" y="53.91"/>
      </g>
     </g>
    </g>
    <g id="xtick_10">
     <g id="line2d_19">
      <g>
       <use style="fill:#262626;stroke:#262626;stroke-width:0.5;" x="112.410822857" xlink:href="#m872d7cd3b8" y="485.19"/>
      </g>
     </g>
     <g id="line2d_20">
      <g>
       <use style="fill:#262626;stroke:#262626;stroke-width:0.5;" x="112.410822857" xlink:href="#m872d7cd3b8" y="53.91"/>
      </g>
     </g>
    </g>
    <g id="xtick_11">
     <g id="line2d_21">
      <g>
       <use style="fill:#262626;stroke:#262626;stroke-width:0.5;" x="125.303734286" xlink:href="#m872d7cd3b8" y="485.19"/>
      </g>
     </g>
     <g id="line2d_22">
      <g>
       <use style="fill:#262626;stroke:#262626;stroke-width:0.5;" x="125.303734286" xlink:href="#m872d7cd3b8" y="53.91"/>
      </g>
     </g>
    </g>
    <g id="xtick_12">
     <g id="line2d_23">
      <g>
       <use style="fill:#262626;stroke:#262626;stroke-width:0.5;" x="138.196645714" xlink:href="#m872d7cd3b8" y="485.19"/>
      </g>
     </g>
     <g id="line2d_24">
      <g>
       <use style="fill:#262626;stroke:#262626;stroke-width:0.5;" x="138.196645714" xlink:href="#m872d7cd3b8" y="53.91"/>
      </g>
     </g>
    </g>
    <g id="xtick_13">
     <g id="line2d_25">
      <g>
       <use style="fill:#262626;stroke:#262626;stroke-width:0.5;" x="163.982468571" xlink:href="#m872d7cd3b8" y="485.19"/>
      </g>
     </g>
     <g id="line2d_26">
      <g>
       <use style="fill:#262626;stroke:#262626;stroke-width:0.5;" x="163.982468571" xlink:href="#m872d7cd3b8" y="53.91"/>
      </g>
     </g>
    </g>
    <g id="xtick_14">
     <g id="line2d_27">
      <g>
       <use style="fill:#262626;stroke:#262626;stroke-width:0.5;" x="176.87538" xlink:href="#m872d7cd3b8" y="485.19"/>
      </g>
     </g>
     <g id="line2d_28">
      <g>
       <use style="fill:#262626;stroke:#262626;stroke-width:0.5;" x="176.87538" xlink:href="#m872d7cd3b8" y="53.91"/>
      </g>
     </g>
    </g>
    <g id="xtick_15">
     <g id="line2d_29">
      <g>
       <use style="fill:#262626;stroke:#262626;stroke-width:0.5;" x="189.768291429" xlink:href="#m872d7cd3b8" y="485.19"/>
      </g>
     </g>
     <g id="line2d_30">
      <g>
       <use style="fill:#262626;stroke:#262626;stroke-width:0.5;" x="189.768291429" xlink:href="#m872d7cd3b8" y="53.91"/>
      </g>
     </g>
    </g>
    <g id="xtick_16">
     <g id="line2d_31">
      <g>
       <use style="fill:#262626;stroke:#262626;stroke-width:0.5;" x="202.661202857" xlink:href="#m872d7cd3b8" y="485.19"/>
      </g>
     </g>
     <g id="line2d_32">
      <g>
       <use style="fill:#262626;stroke:#262626;stroke-width:0.5;" x="202.661202857" xlink:href="#m872d7cd3b8" y="53.91"/>
      </g>
     </g>
    </g>
    <g id="xtick_17">
     <g id="line2d_33">
      <g>
       <use style="fill:#262626;stroke:#262626;stroke-width:0.5;" x="228.447025714" xlink:href="#m872d7cd3b8" y="485.19"/>
      </g>
     </g>
     <g id="line2d_34">
      <g>
       <use style="fill:#262626;stroke:#262626;stroke-width:0.5;" x="228.447025714" xlink:href="#m872d7cd3b8" y="53.91"/>
      </g>
     </g>
    </g>
    <g id="xtick_18">
     <g id="line2d_35">
      <g>
       <use style="fill:#262626;stroke:#262626;stroke-width:0.5;" x="241.339937143" xlink:href="#m872d7cd3b8" y="485.19"/>
      </g>
     </g>
     <g id="line2d_36">
      <g>
       <use style="fill:#262626;stroke:#262626;stroke-width:0.5;" x="241.339937143" xlink:href="#m872d7cd3b8" y="53.91"/>
      </g>
     </g>
    </g>
    <g id="xtick_19">
     <g id="line2d_37">
      <g>
       <use style="fill:#262626;stroke:#262626;stroke-width:0.5;" x="254.232848571" xlink:href="#m872d7cd3b8" y="485.19"/>
      </g>
     </g>
     <g id="line2d_38">
      <g>
       <use style="fill:#262626;stroke:#262626;stroke-width:0.5;" x="254.232848571" xlink:href="#m872d7cd3b8" y="53.91"/>
      </g>
     </g>
    </g>
    <g id="xtick_20">
     <g id="line2d_39">
      <g>
       <use style="fill:#262626;stroke:#262626;stroke-width:0.5;" x="267.12576" xlink:href="#m872d7cd3b8" y="485.19"/>
      </g>
     </g>
     <g id="line2d_40">
      <g>
       <use style="fill:#262626;stroke:#262626;stroke-width:0.5;" x="267.12576" xlink:href="#m872d7cd3b8" y="53.91"/>
      </g>
     </g>
    </g>
    <g id="xtick_21">
     <g id="line2d_41">
      <g>
       <use style="fill:#262626;stroke:#262626;stroke-width:0.5;" x="292.911582857" xlink:href="#m872d7cd3b8" y="485.19"/>
      </g>
     </g>
     <g id="line2d_42">
      <g>
       <use style="fill:#262626;stroke:#262626;stroke-width:0.5;" x="292.911582857" xlink:href="#m872d7cd3b8" y="53.91"/>
      </g>
     </g>
    </g>
    <g id="xtick_22">
     <g id="line2d_43">
      <g>
       <use style="fill:#262626;stroke:#262626;stroke-width:0.5;" x="305.804494286" xlink:href="#m872d7cd3b8" y="485.19"/>
      </g>
     </g>
     <g id="line2d_44">
      <g>
       <use style="fill:#262626;stroke:#262626;stroke-width:0.5;" x="305.804494286" xlink:href="#m872d7cd3b8" y="53.91"/>
      </g>
     </g>
    </g>
    <g id="xtick_23">
     <g id="line2d_45">
      <g>
       <use style="fill:#262626;stroke:#262626;stroke-width:0.5;" x="318.697405714" xlink:href="#m872d7cd3b8" y="485.19"/>
      </g>
     </g>
     <g id="line2d_46">
      <g>
       <use style="fill:#262626;stroke:#262626;stroke-width:0.5;" x="318.697405714" xlink:href="#m872d7cd3b8" y="53.91"/>
      </g>
     </g>
    </g>
    <g id="xtick_24">
     <g id="line2d_47">
      <g>
       <use style="fill:#262626;stroke:#262626;stroke-width:0.5;" x="331.590317143" xlink:href="#m872d7cd3b8" y="485.19"/>
      </g>
     </g>
     <g id="line2d_48">
      <g>
       <use style="fill:#262626;stroke:#262626;stroke-width:0.5;" x="331.590317143" xlink:href="#m872d7cd3b8" y="53.91"/>
      </g>
     </g>
    </g>
    <g id="xtick_25">
     <g id="line2d_49">
      <g>
       <use style="fill:#262626;stroke:#262626;stroke-width:0.5;" x="357.37614" xlink:href="#m872d7cd3b8" y="485.19"/>
      </g>
     </g>
     <g id="line2d_50">
      <g>
       <use style="fill:#262626;stroke:#262626;stroke-width:0.5;" x="357.37614" xlink:href="#m872d7cd3b8" y="53.91"/>
      </g>
     </g>
    </g>
    <g id="xtick_26">
     <g id="line2d_51">
      <g>
       <use style="fill:#262626;stroke:#262626;stroke-width:0.5;" x="370.269051429" xlink:href="#m872d7cd3b8" y="485.19"/>
      </g>
     </g>
     <g id="line2d_52">
      <g>
       <use style="fill:#262626;stroke:#262626;stroke-width:0.5;" x="370.269051429" xlink:href="#m872d7cd3b8" y="53.91"/>
      </g>
     </g>
    </g>
    <g id="xtick_27">
     <g id="line2d_53">
      <g>
       <use style="fill:#262626;stroke:#262626;stroke-width:0.5;" x="383.161962857" xlink:href="#m872d7cd3b8" y="485.19"/>
      </g>
     </g>
     <g id="line2d_54">
      <g>
       <use style="fill:#262626;stroke:#262626;stroke-width:0.5;" x="383.161962857" xlink:href="#m872d7cd3b8" y="53.91"/>
      </g>
     </g>
    </g>
    <g id="xtick_28">
     <g id="line2d_55">
      <g>
       <use style="fill:#262626;stroke:#262626;stroke-width:0.5;" x="396.054874286" xlink:href="#m872d7cd3b8" y="485.19"/>
      </g>
     </g>
     <g id="line2d_56">
      <g>
       <use style="fill:#262626;stroke:#262626;stroke-width:0.5;" x="396.054874286" xlink:href="#m872d7cd3b8" y="53.91"/>
      </g>
     </g>
    </g>
    <g id="xtick_29">
     <g id="line2d_57">
      <g>
       <use style="fill:#262626;stroke:#262626;stroke-width:0.5;" x="421.840697143" xlink:href="#m872d7cd3b8" y="485.19"/>
      </g>
     </g>
     <g id="line2d_58">
      <g>
       <use style="fill:#262626;stroke:#262626;stroke-width:0.5;" x="421.840697143" xlink:href="#m872d7cd3b8" y="53.91"/>
      </g>
     </g>
    </g>
    <g id="xtick_30">
     <g id="line2d_59">
      <g>
       <use style="fill:#262626;stroke:#262626;stroke-width:0.5;" x="434.733608571" xlink:href="#m872d7cd3b8" y="485.19"/>
      </g>
     </g>
     <g id="line2d_60">
      <g>
       <use style="fill:#262626;stroke:#262626;stroke-width:0.5;" x="434.733608571" xlink:href="#m872d7cd3b8" y="53.91"/>
      </g>
     </g>
    </g>
    <g id="xtick_31">
     <g id="line2d_61">
      <g>
       <use style="fill:#262626;stroke:#262626;stroke-width:0.5;" x="447.62652" xlink:href="#m872d7cd3b8" y="485.19"/>
      </g>
     </g>
     <g id="line2d_62">
      <g>
       <use style="fill:#262626;stroke:#262626;stroke-width:0.5;" x="447.62652" xlink:href="#m872d7cd3b8" y="53.91"/>
      </g>
     </g>
    </g>
    <g id="xtick_32">
     <g id="line2d_63">
      <g>
       <use style="fill:#262626;stroke:#262626;stroke-width:0.5;" x="460.519431429" xlink:href="#m872d7cd3b8" y="485.19"/>
      </g>
     </g>
     <g id="line2d_64">
      <g>
       <use style="fill:#262626;stroke:#262626;stroke-width:0.5;" x="460.519431429" xlink:href="#m872d7cd3b8" y="53.91"/>
      </g>
     </g>
    </g>
    <g id="xtick_33">
     <g id="line2d_65">
      <g>
       <use style="fill:#262626;stroke:#262626;stroke-width:0.5;" x="486.305254286" xlink:href="#m872d7cd3b8" y="485.19"/>
      </g>
     </g>
     <g id="line2d_66">
      <g>
       <use style="fill:#262626;stroke:#262626;stroke-width:0.5;" x="486.305254286" xlink:href="#m872d7cd3b8" y="53.91"/>
      </g>
     </g>
    </g>
    <g id="xtick_34">
     <g id="line2d_67">
      <g>
       <use style="fill:#262626;stroke:#262626;stroke-width:0.5;" x="499.198165714" xlink:href="#m872d7cd3b8" y="485.19"/>
      </g>
     </g>
     <g id="line2d_68">
      <g>
       <use style="fill:#262626;stroke:#262626;stroke-width:0.5;" x="499.198165714" xlink:href="#m872d7cd3b8" y="53.91"/>
      </g>
     </g>
    </g>
    <g id="xtick_35">
     <g id="line2d_69">
      <g>
       <use style="fill:#262626;stroke:#262626;stroke-width:0.5;" x="512.091077143" xlink:href="#m872d7cd3b8" y="485.19"/>
      </g>
     </g>
     <g id="line2d_70">
      <g>
       <use style="fill:#262626;stroke:#262626;stroke-width:0.5;" x="512.091077143" xlink:href="#m872d7cd3b8" y="53.91"/>
      </g>
     </g>
    </g>
    <g id="xtick_36">
     <g id="line2d_71">
      <g>
       <use style="fill:#262626;stroke:#262626;stroke-width:0.5;" x="524.983988571" xlink:href="#m872d7cd3b8" y="485.19"/>
      </g>
     </g>
     <g id="line2d_72">
      <g>
       <use style="fill:#262626;stroke:#262626;stroke-width:0.5;" x="524.983988571" xlink:href="#m872d7cd3b8" y="53.91"/>
      </g>
     </g>
    </g>
    <g id="text_9">
     <!-- Time (s) -->
     <defs>
      <path id="BitstreamVeraSans-Roman-20"/>
      <path d="M 8.015625 75.875 
L 15.828125 75.875 
Q 23.140625 64.359375 26.78125 53.3125 
Q 30.421875 42.28125 30.421875 31.390625 
Q 30.421875 20.453125 26.78125 9.375 
Q 23.140625 -1.703125 15.828125 -13.1875 
L 8.015625 -13.1875 
Q 14.5 -2 17.703125 9.0625 
Q 20.90625 20.125 20.90625 31.390625 
Q 20.90625 42.671875 17.703125 53.65625 
Q 14.5 64.65625 8.015625 75.875 
" id="BitstreamVeraSans-Roman-29"/>
      <path d="M 31 75.875 
Q 24.46875 64.65625 21.28125 53.65625 
Q 18.109375 42.671875 18.109375 31.390625 
Q 18.109375 20.125 21.3125 9.0625 
Q 24.515625 -2 31 -13.1875 
L 23.1875 -13.1875 
Q 15.875 -1.703125 12.234375 9.375 
Q 8.59375 20.453125 8.59375 31.390625 
Q 8.59375 42.28125 12.203125 53.3125 
Q 15.828125 64.359375 23.1875 75.875 
z
" id="BitstreamVeraSans-Roman-28"/>
      <path d="M 9.421875 54.6875 
L 18.40625 54.6875 
L 18.40625 0 
L 9.421875 0 
z
M 9.421875 75.984375 
L 18.40625 75.984375 
L 18.40625 64.59375 
L 9.421875 64.59375 
z
" id="BitstreamVeraSans-Roman-69"/>
      <path d="M 52 44.1875 
Q 55.375 50.25 60.0625 53.125 
Q 64.75 56 71.09375 56 
Q 79.640625 56 84.28125 50.015625 
Q 88.921875 44.046875 88.921875 33.015625 
L 88.921875 0 
L 79.890625 0 
L 79.890625 32.71875 
Q 79.890625 40.578125 77.09375 44.375 
Q 74.3125 48.1875 68.609375 48.1875 
Q 61.625 48.1875 57.5625 43.546875 
Q 53.515625 38.921875 53.515625 30.90625 
L 53.515625 0 
L 44.484375 0 
L 44.484375 32.71875 
Q 44.484375 40.625 41.703125 44.40625 
Q 38.921875 48.1875 33.109375 48.1875 
Q 26.21875 48.1875 22.15625 43.53125 
Q 18.109375 38.875 18.109375 30.90625 
L 18.109375 0 
L 9.078125 0 
L 9.078125 54.6875 
L 18.109375 54.6875 
L 18.109375 46.1875 
Q 21.1875 51.21875 25.484375 53.609375 
Q 29.78125 56 35.6875 56 
Q 41.65625 56 45.828125 52.96875 
Q 50 49.953125 52 44.1875 
" id="BitstreamVeraSans-Roman-6d"/>
      <path d="M 56.203125 29.59375 
L 56.203125 25.203125 
L 14.890625 25.203125 
Q 15.484375 15.921875 20.484375 11.0625 
Q 25.484375 6.203125 34.421875 6.203125 
Q 39.59375 6.203125 44.453125 7.46875 
Q 49.3125 8.734375 54.109375 11.28125 
L 54.109375 2.78125 
Q 49.265625 0.734375 44.1875 -0.34375 
Q 39.109375 -1.421875 33.890625 -1.421875 
Q 20.796875 -1.421875 13.15625 6.1875 
Q 5.515625 13.8125 5.515625 26.8125 
Q 5.515625 40.234375 12.765625 48.109375 
Q 20.015625 56 32.328125 56 
Q 43.359375 56 49.78125 48.890625 
Q 56.203125 41.796875 56.203125 29.59375 
M 47.21875 32.234375 
Q 47.125 39.59375 43.09375 43.984375 
Q 39.0625 48.390625 32.421875 48.390625 
Q 24.90625 48.390625 20.390625 44.140625 
Q 15.875 39.890625 15.1875 32.171875 
z
" id="BitstreamVeraSans-Roman-65"/>
      <path d="M -0.296875 72.90625 
L 61.375 72.90625 
L 61.375 64.59375 
L 35.5 64.59375 
L 35.5 0 
L 25.59375 0 
L 25.59375 64.59375 
L -0.296875 64.59375 
z
" id="BitstreamVeraSans-Roman-54"/>
      <path d="M 44.28125 53.078125 
L 44.28125 44.578125 
Q 40.484375 46.53125 36.375 47.5 
Q 32.28125 48.484375 27.875 48.484375 
Q 21.1875 48.484375 17.84375 46.4375 
Q 14.5 44.390625 14.5 40.28125 
Q 14.5 37.15625 16.890625 35.375 
Q 19.28125 33.59375 26.515625 31.984375 
L 29.59375 31.296875 
Q 39.15625 29.25 43.1875 25.515625 
Q 47.21875 21.78125 47.21875 15.09375 
Q 47.21875 7.46875 41.1875 3.015625 
Q 35.15625 -1.421875 24.609375 -1.421875 
Q 20.21875 -1.421875 15.453125 -0.5625 
Q 10.6875 0.296875 5.421875 2 
L 5.421875 11.28125 
Q 10.40625 8.6875 15.234375 7.390625 
Q 20.0625 6.109375 24.8125 6.109375 
Q 31.15625 6.109375 34.5625 8.28125 
Q 37.984375 10.453125 37.984375 14.40625 
Q 37.984375 18.0625 35.515625 20.015625 
Q 33.0625 21.96875 24.703125 23.78125 
L 21.578125 24.515625 
Q 13.234375 26.265625 9.515625 29.90625 
Q 5.8125 33.546875 5.8125 39.890625 
Q 5.8125 47.609375 11.28125 51.796875 
Q 16.75 56 26.8125 56 
Q 31.78125 56 36.171875 55.265625 
Q 40.578125 54.546875 44.28125 53.078125 
" id="BitstreamVeraSans-Roman-73"/>
     </defs>
     <g style="fill:#262626;" transform="translate(287.671575 514.921875)scale(0.12 -0.12)">
      <use xlink:href="#BitstreamVeraSans-Roman-54"/>
      <use x="61.037109375" xlink:href="#BitstreamVeraSans-Roman-69"/>
      <use x="88.8203125" xlink:href="#BitstreamVeraSans-Roman-6d"/>
      <use x="186.232421875" xlink:href="#BitstreamVeraSans-Roman-65"/>
      <use x="247.755859375" xlink:href="#BitstreamVeraSans-Roman-20"/>
      <use x="279.54296875" xlink:href="#BitstreamVeraSans-Roman-28"/>
      <use x="318.556640625" xlink:href="#BitstreamVeraSans-Roman-73"/>
      <use x="370.65625" xlink:href="#BitstreamVeraSans-Roman-29"/>
     </g>
    </g>
   </g>
   <g id="matplotlib.axis_2">
    <g id="ytick_1">
     <g id="line2d_73">
      <g>
       <use style="fill:#262626;stroke:#262626;stroke-width:0.5;" x="86.625" xlink:href="#m872d7cd3b8" y="411.990646733"/>
      </g>
     </g>
     <g id="text_10">
      <!-- 120 -->
      <g style="fill:#262626;" transform="translate(59.72 415.301896733)scale(0.12 -0.12)">
       <use xlink:href="#BitstreamVeraSans-Roman-31"/>
       <use x="63.623046875" xlink:href="#BitstreamVeraSans-Roman-32"/>
       <use x="127.24609375" xlink:href="#BitstreamVeraSans-Roman-30"/>
      </g>
     </g>
    </g>
    <g id="ytick_2">
     <g id="line2d_74">
      <g>
       <use style="fill:#262626;stroke:#262626;stroke-width:0.5;" x="86.625" xlink:href="#m872d7cd3b8" y="334.413638767"/>
      </g>
     </g>
     <g id="text_11">
      <!-- 140 -->
      <g style="fill:#262626;" transform="translate(59.72 337.724888767)scale(0.12 -0.12)">
       <use xlink:href="#BitstreamVeraSans-Roman-31"/>
       <use x="63.623046875" xlink:href="#BitstreamVeraSans-Roman-34"/>
       <use x="127.24609375" xlink:href="#BitstreamVeraSans-Roman-30"/>
      </g>
     </g>
    </g>
    <g id="ytick_3">
     <g id="line2d_75">
      <g>
       <use style="fill:#262626;stroke:#262626;stroke-width:0.5;" x="86.625" xlink:href="#m872d7cd3b8" y="256.836630802"/>
      </g>
     </g>
     <g id="text_12">
      <!-- 160 -->
      <g style="fill:#262626;" transform="translate(59.72 260.147880802)scale(0.12 -0.12)">
       <use xlink:href="#BitstreamVeraSans-Roman-31"/>
       <use x="63.623046875" xlink:href="#BitstreamVeraSans-Roman-36"/>
       <use x="127.24609375" xlink:href="#BitstreamVeraSans-Roman-30"/>
      </g>
     </g>
    </g>
    <g id="ytick_4">
     <g id="line2d_76">
      <g>
       <use style="fill:#262626;stroke:#262626;stroke-width:0.5;" x="86.625" xlink:href="#m872d7cd3b8" y="179.259622836"/>
      </g>
     </g>
     <g id="text_13">
      <!-- 180 -->
      <defs>
       <path d="M 31.78125 34.625 
Q 24.75 34.625 20.71875 30.859375 
Q 16.703125 27.09375 16.703125 20.515625 
Q 16.703125 13.921875 20.71875 10.15625 
Q 24.75 6.390625 31.78125 6.390625 
Q 38.8125 6.390625 42.859375 10.171875 
Q 46.921875 13.96875 46.921875 20.515625 
Q 46.921875 27.09375 42.890625 30.859375 
Q 38.875 34.625 31.78125 34.625 
M 21.921875 38.8125 
Q 15.578125 40.375 12.03125 44.71875 
Q 8.5 49.078125 8.5 55.328125 
Q 8.5 64.0625 14.71875 69.140625 
Q 20.953125 74.21875 31.78125 74.21875 
Q 42.671875 74.21875 48.875 69.140625 
Q 55.078125 64.0625 55.078125 55.328125 
Q 55.078125 49.078125 51.53125 44.71875 
Q 48 40.375 41.703125 38.8125 
Q 48.828125 37.15625 52.796875 32.3125 
Q 56.78125 27.484375 56.78125 20.515625 
Q 56.78125 9.90625 50.3125 4.234375 
Q 43.84375 -1.421875 31.78125 -1.421875 
Q 19.734375 -1.421875 13.25 4.234375 
Q 6.78125 9.90625 6.78125 20.515625 
Q 6.78125 27.484375 10.78125 32.3125 
Q 14.796875 37.15625 21.921875 38.8125 
M 18.3125 54.390625 
Q 18.3125 48.734375 21.84375 45.5625 
Q 25.390625 42.390625 31.78125 42.390625 
Q 38.140625 42.390625 41.71875 45.5625 
Q 45.3125 48.734375 45.3125 54.390625 
Q 45.3125 60.0625 41.71875 63.234375 
Q 38.140625 66.40625 31.78125 66.40625 
Q 25.390625 66.40625 21.84375 63.234375 
Q 18.3125 60.0625 18.3125 54.390625 
" id="BitstreamVeraSans-Roman-38"/>
      </defs>
      <g style="fill:#262626;" transform="translate(59.72 182.570872836)scale(0.12 -0.12)">
       <use xlink:href="#BitstreamVeraSans-Roman-31"/>
       <use x="63.623046875" xlink:href="#BitstreamVeraSans-Roman-38"/>
       <use x="127.24609375" xlink:href="#BitstreamVeraSans-Roman-30"/>
      </g>
     </g>
    </g>
    <g id="ytick_5">
     <g id="line2d_77">
      <g>
       <use style="fill:#262626;stroke:#262626;stroke-width:0.5;" x="86.625" xlink:href="#m872d7cd3b8" y="101.682614871"/>
      </g>
     </g>
     <g id="text_14">
      <!-- 200 -->
      <g style="fill:#262626;" transform="translate(59.72 104.993864871)scale(0.12 -0.12)">
       <use xlink:href="#BitstreamVeraSans-Roman-32"/>
       <use x="63.623046875" xlink:href="#BitstreamVeraSans-Roman-30"/>
       <use x="127.24609375" xlink:href="#BitstreamVeraSans-Roman-30"/>
      </g>
     </g>
    </g>
    <g id="ytick_6">
     <g id="line2d_78">
      <g>
       <use style="fill:#262626;stroke:#262626;stroke-width:0.5;" x="86.625" xlink:href="#m872d7cd3b8" y="470.173402707"/>
      </g>
     </g>
    </g>
    <g id="ytick_7">
     <g id="line2d_79">
      <g>
       <use style="fill:#262626;stroke:#262626;stroke-width:0.5;" x="86.625" xlink:href="#m872d7cd3b8" y="450.779150716"/>
      </g>
     </g>
    </g>
    <g id="ytick_8">
     <g id="line2d_80">
      <g>
       <use style="fill:#262626;stroke:#262626;stroke-width:0.5;" x="86.625" xlink:href="#m872d7cd3b8" y="431.384898724"/>
      </g>
     </g>
    </g>
    <g id="ytick_9">
     <g id="line2d_81">
      <g>
       <use style="fill:#262626;stroke:#262626;stroke-width:0.5;" x="86.625" xlink:href="#m872d7cd3b8" y="392.596394742"/>
      </g>
     </g>
    </g>
    <g id="ytick_10">
     <g id="line2d_82">
      <g>
       <use style="fill:#262626;stroke:#262626;stroke-width:0.5;" x="86.625" xlink:href="#m872d7cd3b8" y="373.20214275"/>
      </g>
     </g>
    </g>
    <g id="ytick_11">
     <g id="line2d_83">
      <g>
       <use style="fill:#262626;stroke:#262626;stroke-width:0.5;" x="86.625" xlink:href="#m872d7cd3b8" y="353.807890759"/>
      </g>
     </g>
    </g>
    <g id="ytick_12">
     <g id="line2d_84">
      <g>
       <use style="fill:#262626;stroke:#262626;stroke-width:0.5;" x="86.625" xlink:href="#m872d7cd3b8" y="315.019386776"/>
      </g>
     </g>
    </g>
    <g id="ytick_13">
     <g id="line2d_85">
      <g>
       <use style="fill:#262626;stroke:#262626;stroke-width:0.5;" x="86.625" xlink:href="#m872d7cd3b8" y="295.625134785"/>
      </g>
     </g>
    </g>
    <g id="ytick_14">
     <g id="line2d_86">
      <g>
       <use style="fill:#262626;stroke:#262626;stroke-width:0.5;" x="86.625" xlink:href="#m872d7cd3b8" y="276.230882793"/>
      </g>
     </g>
    </g>
    <g id="ytick_15">
     <g id="line2d_87">
      <g>
       <use style="fill:#262626;stroke:#262626;stroke-width:0.5;" x="86.625" xlink:href="#m872d7cd3b8" y="237.442378811"/>
      </g>
     </g>
    </g>
    <g id="ytick_16">
     <g id="line2d_88">
      <g>
       <use style="fill:#262626;stroke:#262626;stroke-width:0.5;" x="86.625" xlink:href="#m872d7cd3b8" y="218.048126819"/>
      </g>
     </g>
    </g>
    <g id="ytick_17">
     <g id="line2d_89">
      <g>
       <use style="fill:#262626;stroke:#262626;stroke-width:0.5;" x="86.625" xlink:href="#m872d7cd3b8" y="198.653874828"/>
      </g>
     </g>
    </g>
    <g id="ytick_18">
     <g id="line2d_90">
      <g>
       <use style="fill:#262626;stroke:#262626;stroke-width:0.5;" x="86.625" xlink:href="#m872d7cd3b8" y="159.865370845"/>
      </g>
     </g>
    </g>
    <g id="ytick_19">
     <g id="line2d_91">
      <g>
       <use style="fill:#262626;stroke:#262626;stroke-width:0.5;" x="86.625" xlink:href="#m872d7cd3b8" y="140.471118854"/>
      </g>
     </g>
    </g>
    <g id="ytick_20">
     <g id="line2d_92">
      <g>
       <use style="fill:#262626;stroke:#262626;stroke-width:0.5;" x="86.625" xlink:href="#m872d7cd3b8" y="121.076866862"/>
      </g>
     </g>
    </g>
    <g id="ytick_21">
     <g id="line2d_93">
      <g>
       <use style="fill:#262626;stroke:#262626;stroke-width:0.5;" x="86.625" xlink:href="#m872d7cd3b8" y="82.2883628796"/>
      </g>
     </g>
    </g>
    <g id="ytick_22">
     <g id="line2d_94">
      <g>
       <use style="fill:#262626;stroke:#262626;stroke-width:0.5;" x="86.625" xlink:href="#m872d7cd3b8" y="62.8941108882"/>
      </g>
     </g>
    </g>
    <g id="text_15">
     <!-- Mbits/s -->
     <defs>
      <path d="M 18.3125 70.21875 
L 18.3125 54.6875 
L 36.8125 54.6875 
L 36.8125 47.703125 
L 18.3125 47.703125 
L 18.3125 18.015625 
Q 18.3125 11.328125 20.140625 9.421875 
Q 21.96875 7.515625 27.59375 7.515625 
L 36.8125 7.515625 
L 36.8125 0 
L 27.59375 0 
Q 17.1875 0 13.234375 3.875 
Q 9.28125 7.765625 9.28125 18.015625 
L 9.28125 47.703125 
L 2.6875 47.703125 
L 2.6875 54.6875 
L 9.28125 54.6875 
L 9.28125 70.21875 
z
" id="BitstreamVeraSans-Roman-74"/>
      <path d="M 9.8125 72.90625 
L 24.515625 72.90625 
L 43.109375 23.296875 
L 61.8125 72.90625 
L 76.515625 72.90625 
L 76.515625 0 
L 66.890625 0 
L 66.890625 64.015625 
L 48.09375 14.015625 
L 38.1875 14.015625 
L 19.390625 64.015625 
L 19.390625 0 
L 9.8125 0 
z
" id="BitstreamVeraSans-Roman-4d"/>
      <path d="M 25.390625 72.90625 
L 33.6875 72.90625 
L 8.296875 -9.28125 
L 0 -9.28125 
z
" id="BitstreamVeraSans-Roman-2f"/>
      <path d="M 48.6875 27.296875 
Q 48.6875 37.203125 44.609375 42.84375 
Q 40.53125 48.484375 33.40625 48.484375 
Q 26.265625 48.484375 22.1875 42.84375 
Q 18.109375 37.203125 18.109375 27.296875 
Q 18.109375 17.390625 22.1875 11.75 
Q 26.265625 6.109375 33.40625 6.109375 
Q 40.53125 6.109375 44.609375 11.75 
Q 48.6875 17.390625 48.6875 27.296875 
M 18.109375 46.390625 
Q 20.953125 51.265625 25.265625 53.625 
Q 29.59375 56 35.59375 56 
Q 45.5625 56 51.78125 48.09375 
Q 58.015625 40.1875 58.015625 27.296875 
Q 58.015625 14.40625 51.78125 6.484375 
Q 45.5625 -1.421875 35.59375 -1.421875 
Q 29.59375 -1.421875 25.265625 0.953125 
Q 20.953125 3.328125 18.109375 8.203125 
L 18.109375 0 
L 9.078125 0 
L 9.078125 75.984375 
L 18.109375 75.984375 
z
" id="BitstreamVeraSans-Roman-62"/>
     </defs>
     <g style="fill:#262626;" transform="translate(52.224375 290.8275)rotate(-90.0)scale(0.12 -0.12)">
      <use xlink:href="#BitstreamVeraSans-Roman-4d"/>
      <use x="86.279296875" xlink:href="#BitstreamVeraSans-Roman-62"/>
      <use x="149.755859375" xlink:href="#BitstreamVeraSans-Roman-69"/>
      <use x="177.5390625" xlink:href="#BitstreamVeraSans-Roman-74"/>
      <use x="216.748046875" xlink:href="#BitstreamVeraSans-Roman-73"/>
      <use x="268.84765625" xlink:href="#BitstreamVeraSans-Roman-2f"/>
      <use x="302.5390625" xlink:href="#BitstreamVeraSans-Roman-73"/>
     </g>
    </g>
   </g>
   <g id="line2d_95">
    <path clip-path="url(#pf5a009d137)" d="M 120.14657 264.516755 
L 121.435861 302.995643 
L 122.725152 265.335374 
L 124.014443 250.238189 
L 125.303734 260.972729 
L 126.593025 252.463437 
L 127.882317 288.939932 
L 129.171608 480.961765 
L 130.460899 170.426878 
L 131.75019 258.084024 
L 133.039481 279.019296 
L 134.328772 326.890176 
L 135.618063 318.900949 
L 138.196646 276.549212 
L 139.485937 284.566318 
L 140.775228 311.745205 
L 142.064519 319.495815 
L 143.35381 311.43817 
L 144.643101 337.917033 
L 145.932393 231.44688 
L 147.221684 303.958746 
L 148.510975 291.162102 
L 149.800266 269.211219 
L 151.089557 277.158148 
L 152.378848 308.250208 
L 153.668139 309.096273 
L 154.957431 280.521865 
L 156.246722 266.714589 
L 157.536013 260.02902 
L 158.825304 272.635152 
L 160.114595 272.048688 
L 161.403886 289.641779 
L 162.693177 300.373272 
L 163.982469 285.940208 
L 165.27176 288.768319 
L 166.561051 319.947561 
L 167.850342 298.224885 
L 169.139633 303.678296 
L 170.428924 284.784348 
L 171.718215 295.893847 
L 173.007507 292.64709 
L 174.296798 291.044029 
L 175.586089 288.065073 
L 176.87538 303.662924 
L 178.164671 304.197451 
L 179.453962 289.696291 
L 180.743253 299.009993 
L 182.032545 307.341233 
L 183.321836 291.573474 
L 184.611127 285.304412 
L 185.900418 298.763786 
L 187.189709 291.694984 
L 188.479 280.832349 
L 189.768291 304.570626 
L 191.057583 320.97908 
L 192.346874 301.049062 
L 193.636165 287.206824 
L 194.925456 276.009591 
L 196.214747 246.278802 
L 197.504038 249.118123 
L 198.793329 269.056753 
L 200.082621 300.079493 
L 201.371912 306.220647 
L 202.661203 325.585431 
L 203.950494 304.610085 
L 205.239785 311.125884 
L 206.529076 412.02731 
L 207.818367 142.81972 
L 209.107659 277.488434 
L 210.39695 330.720337 
L 211.686241 281.062032 
L 212.975532 281.97974 
L 214.264823 318.543972 
L 215.554114 295.974828 
L 216.843405 253.145266 
L 218.132697 300.679844 
L 219.421988 276.734157 
L 220.711279 239.016498 
L 222.00057 267.775253 
L 223.289861 229.885772 
L 224.579152 176.218575 
L 225.868443 164.499315 
L 227.157735 147.480772 
L 228.447026 193.455209 
L 229.736317 197.719619 
L 231.025608 192.224854 
L 232.314899 171.787506 
L 233.60419 161.199121 
L 234.893481 188.152063 
L 236.182773 180.41956 
L 237.472064 178.346562 
L 238.761355 201.77418 
L 240.050646 199.624556 
L 241.339937 193.047477 
L 242.629228 210.080004 
L 243.918519 203.230877 
L 245.207811 177.98515 
L 246.497102 155.044332 
L 247.786393 161.236213 
L 249.075684 198.78143 
L 251.654266 144.826742 
L 252.943557 151.607682 
L 254.232849 155.58055 
L 255.52214 154.732575 
L 256.811431 130.601967 
L 258.100722 142.128784 
L 259.390013 158.399874 
L 260.679304 147.12443 
L 261.968595 172.88383 
L 263.257887 207.116745 
L 264.547178 190.775365 
L 265.836469 152.610464 
L 267.12576 140.555516 
L 268.415051 171.792818 
L 269.704342 186.13804 
L 272.282925 171.801338 
L 273.572216 212.712566 
L 274.861507 175.624511 
L 276.150798 156.95161 
L 277.440089 167.364562 
L 278.72938 174.854816 
L 280.018671 164.23573 
L 281.307963 161.122891 
L 282.597254 215.817327 
L 285.175836 179.039449 
L 286.465127 180.923976 
L 287.754418 180.031207 
L 289.043709 192.050752 
L 290.333001 123.617091 
L 291.622292 154.472717 
L 292.911583 153.267793 
L 294.200874 177.40747 
L 295.490165 160.275599 
L 296.779456 157.91792 
L 298.068747 162.584139 
L 300.64733 195.525124 
L 301.936621 140.8173 
L 303.225912 162.844737 
L 304.515203 181.02055 
L 305.804494 153.120316 
L 307.093785 160.187615 
L 308.383077 176.584894 
L 309.672368 179.143773 
L 310.961659 166.461234 
L 312.25095 173.751508 
L 313.540241 185.262443 
L 314.829532 159.778824 
L 316.118823 152.660413 
L 317.408115 171.134762 
L 318.697406 185.906983 
L 319.986697 199.032095 
L 321.275988 166.92144 
L 322.565279 148.039565 
L 323.85457 151.302407 
L 325.143861 173.985378 
L 326.433153 214.494087 
L 327.722444 240.797135 
L 329.011735 183.725804 
L 330.301026 177.65733 
L 331.590317 181.626737 
L 332.879608 182.212116 
L 334.168899 141.589566 
L 336.747482 203.514044 
L 338.036773 155.794447 
L 339.326064 199.664827 
L 340.615355 186.406897 
L 341.904646 175.157933 
L 343.193937 135.41436 
L 344.483229 182.376838 
L 345.77252 177.701101 
L 347.061811 198.911801 
L 348.351102 195.165579 
L 349.640393 150.552705 
L 350.929684 154.441705 
L 352.218975 195.13574 
L 353.508267 203.219644 
L 354.797558 194.954427 
L 356.086849 196.927855 
L 357.37614 196.834325 
L 358.665431 182.851607 
L 359.954722 166.890832 
L 361.244013 152.728429 
L 362.533305 172.178541 
L 363.822596 177.336018 
L 365.111887 150.942916 
L 366.401178 104.553959 
L 367.690469 134.273244 
L 368.97976 171.732297 
L 370.269051 158.141148 
L 371.558343 133.299394 
L 372.847634 160.406901 
L 374.136925 198.269831 
L 375.426216 227.238108 
L 378.004798 153.786615 
L 379.294089 179.72167 
L 380.583381 187.069766 
L 381.872672 248.350075 
L 383.161963 183.985997 
L 384.451254 77.001848 
L 385.740545 156.147534 
L 387.029836 179.319117 
L 388.319127 197.659318 
L 389.608419 197.054944 
L 390.89771 171.547015 
L 392.187001 137.550362 
L 393.476292 159.858806 
L 394.765583 162.442615 
L 396.054874 215.641036 
L 397.344165 186.300186 
L 398.633457 146.425546 
L 399.922748 199.103307 
L 401.212039 231.288916 
L 402.50133 158.974483 
L 403.790621 187.885678 
L 405.079912 197.651188 
L 406.369203 201.264673 
L 407.658495 164.970783 
L 408.947786 160.942382 
L 410.237077 171.092333 
L 411.526368 203.640359 
L 412.815659 223.836999 
L 414.10495 192.305239 
L 415.394241 182.771567 
L 416.683533 177.49709 
L 417.972824 165.269934 
L 419.262115 181.553177 
L 420.551406 191.034158 
L 421.840697 190.826895 
L 423.129988 182.754858 
L 424.419279 170.353388 
L 425.708571 190.719915 
L 426.997862 199.238705 
L 428.287153 230.090114 
L 429.576444 209.436215 
L 430.865735 178.209229 
L 432.155026 202.121605 
L 433.444317 159.432911 
L 434.733609 159.661007 
L 436.0229 183.426536 
L 437.312191 219.784664 
L 438.601482 162.456203 
L 439.890773 139.485026 
L 441.180064 164.236409 
L 442.469355 169.303802 
L 443.758647 201.47319 
L 445.047938 297.229345 
L 446.337229 58.138235 
L 447.62652 178.549385 
L 448.915811 209.14011 
L 450.205102 223.973268 
L 451.494393 175.119036 
L 452.783685 211.737667 
L 454.072976 180.41318 
L 455.362267 163.021012 
L 456.651558 141.224986 
L 457.940849 122.874277 
L 459.23014 117.084336 
L 460.519431 110.73412 
L 461.808723 132.166528 
L 463.098014 156.352731 
L 464.387305 102.100988 
L 465.676596 122.704955 
L 466.965887 148.618955 
L 468.255178 131.312754 
L 469.544469 145.359338 
L 470.833761 133.492424 
L 472.123052 113.912828 
L 473.412343 147.172431 
L 474.701634 153.32982 
L 475.990925 117.511955 
L 477.280216 132.950606 
L 478.569507 168.061444 
L 479.858799 118.559688 
L 482.437381 118.736524 
L 483.726672 144.338388 
L 485.015963 144.883306 
L 486.305254 156.728706 
L 487.594545 130.129099 
L 488.883837 119.994812 
L 490.173128 152.037193 
L 491.462419 133.387811 
L 492.75171 118.423481 
L 494.041001 123.329113 
L 495.330292 136.850574 
L 496.619583 163.277127 
L 497.908875 132.359229 
L 499.198166 111.431968 
L 500.487457 137.701092 
L 501.776748 152.941286 
L 503.066039 186.998434 
L 504.35533 170.212625 
L 505.644621 188.357346 
L 506.933913 193.882889 
L 506.933913 193.882889 
" style="fill:none;stroke:#1b9e77;stroke-linecap:round;"/>
   </g>
   <g id="patch_3">
    <path d="M 86.625 53.91 
L 537.8769 53.91 
" style="fill:none;"/>
   </g>
   <g id="patch_4">
    <path d="M 537.8769 485.19 
L 537.8769 53.91 
" style="fill:none;"/>
   </g>
   <g id="patch_5">
    <path d="M 86.625 485.19 
L 537.8769 485.19 
" style="fill:none;"/>
   </g>
   <g id="patch_6">
    <path d="M 86.625 485.19 
L 86.625 53.91 
" style="fill:none;"/>
   </g>
   <g id="legend_1">
    <g id="line2d_96">
     <path d="M 591.513009 62.005198 
L 611.505009 62.005198 
" style="fill:none;stroke:#1b9e77;stroke-linecap:round;"/>
    </g>
    <g id="line2d_97"/>
    <g id="text_16">
     <!-- Download -->
     <defs>
      <path d="M 54.890625 33.015625 
L 54.890625 0 
L 45.90625 0 
L 45.90625 32.71875 
Q 45.90625 40.484375 42.875 44.328125 
Q 39.84375 48.1875 33.796875 48.1875 
Q 26.515625 48.1875 22.3125 43.546875 
Q 18.109375 38.921875 18.109375 30.90625 
L 18.109375 0 
L 9.078125 0 
L 9.078125 54.6875 
L 18.109375 54.6875 
L 18.109375 46.1875 
Q 21.34375 51.125 25.703125 53.5625 
Q 30.078125 56 35.796875 56 
Q 45.21875 56 50.046875 50.171875 
Q 54.890625 44.34375 54.890625 33.015625 
" id="BitstreamVeraSans-Roman-6e"/>
      <path d="M 30.609375 48.390625 
Q 23.390625 48.390625 19.1875 42.75 
Q 14.984375 37.109375 14.984375 27.296875 
Q 14.984375 17.484375 19.15625 11.84375 
Q 23.34375 6.203125 30.609375 6.203125 
Q 37.796875 6.203125 41.984375 11.859375 
Q 46.1875 17.53125 46.1875 27.296875 
Q 46.1875 37.015625 41.984375 42.703125 
Q 37.796875 48.390625 30.609375 48.390625 
M 30.609375 56 
Q 42.328125 56 49.015625 48.375 
Q 55.71875 40.765625 55.71875 27.296875 
Q 55.71875 13.875 49.015625 6.21875 
Q 42.328125 -1.421875 30.609375 -1.421875 
Q 18.84375 -1.421875 12.171875 6.21875 
Q 5.515625 13.875 5.515625 27.296875 
Q 5.515625 40.765625 12.171875 48.375 
Q 18.84375 56 30.609375 56 
" id="BitstreamVeraSans-Roman-6f"/>
      <path d="M 9.421875 75.984375 
L 18.40625 75.984375 
L 18.40625 0 
L 9.421875 0 
z
" id="BitstreamVeraSans-Roman-6c"/>
      <path d="M 19.671875 64.796875 
L 19.671875 8.109375 
L 31.59375 8.109375 
Q 46.6875 8.109375 53.6875 14.9375 
Q 60.6875 21.78125 60.6875 36.53125 
Q 60.6875 51.171875 53.6875 57.984375 
Q 46.6875 64.796875 31.59375 64.796875 
z
M 9.8125 72.90625 
L 30.078125 72.90625 
Q 51.265625 72.90625 61.171875 64.09375 
Q 71.09375 55.28125 71.09375 36.53125 
Q 71.09375 17.671875 61.125 8.828125 
Q 51.171875 0 30.078125 0 
L 9.8125 0 
z
" id="BitstreamVeraSans-Roman-44"/>
      <path d="M 45.40625 46.390625 
L 45.40625 75.984375 
L 54.390625 75.984375 
L 54.390625 0 
L 45.40625 0 
L 45.40625 8.203125 
Q 42.578125 3.328125 38.25 0.953125 
Q 33.9375 -1.421875 27.875 -1.421875 
Q 17.96875 -1.421875 11.734375 6.484375 
Q 5.515625 14.40625 5.515625 27.296875 
Q 5.515625 40.1875 11.734375 48.09375 
Q 17.96875 56 27.875 56 
Q 33.9375 56 38.25 53.625 
Q 42.578125 51.265625 45.40625 46.390625 
M 14.796875 27.296875 
Q 14.796875 17.390625 18.875 11.75 
Q 22.953125 6.109375 30.078125 6.109375 
Q 37.203125 6.109375 41.296875 11.75 
Q 45.40625 17.390625 45.40625 27.296875 
Q 45.40625 37.203125 41.296875 42.84375 
Q 37.203125 48.484375 30.078125 48.484375 
Q 22.953125 48.484375 18.875 42.84375 
Q 14.796875 37.203125 14.796875 27.296875 
" id="BitstreamVeraSans-Roman-64"/>
      <path d="M 4.203125 54.6875 
L 13.1875 54.6875 
L 24.421875 12.015625 
L 35.59375 54.6875 
L 46.1875 54.6875 
L 57.421875 12.015625 
L 68.609375 54.6875 
L 77.59375 54.6875 
L 63.28125 0 
L 52.6875 0 
L 40.921875 44.828125 
L 29.109375 0 
L 18.5 0 
z
" id="BitstreamVeraSans-Roman-77"/>
      <path d="M 34.28125 27.484375 
Q 23.390625 27.484375 19.1875 25 
Q 14.984375 22.515625 14.984375 16.5 
Q 14.984375 11.71875 18.140625 8.90625 
Q 21.296875 6.109375 26.703125 6.109375 
Q 34.1875 6.109375 38.703125 11.40625 
Q 43.21875 16.703125 43.21875 25.484375 
L 43.21875 27.484375 
z
M 52.203125 31.203125 
L 52.203125 0 
L 43.21875 0 
L 43.21875 8.296875 
Q 40.140625 3.328125 35.546875 0.953125 
Q 30.953125 -1.421875 24.3125 -1.421875 
Q 15.921875 -1.421875 10.953125 3.296875 
Q 6 8.015625 6 15.921875 
Q 6 25.140625 12.171875 29.828125 
Q 18.359375 34.515625 30.609375 34.515625 
L 43.21875 34.515625 
L 43.21875 35.40625 
Q 43.21875 41.609375 39.140625 45 
Q 35.0625 48.390625 27.6875 48.390625 
Q 23 48.390625 18.546875 47.265625 
Q 14.109375 46.140625 10.015625 43.890625 
L 10.015625 52.203125 
Q 14.9375 54.109375 19.578125 55.046875 
Q 24.21875 56 28.609375 56 
Q 40.484375 56 46.34375 49.84375 
Q 52.203125 43.703125 52.203125 31.203125 
" id="BitstreamVeraSans-Roman-61"/>
     </defs>
     <g style="fill:#262626;" transform="translate(619.501809 65.503798125)scale(0.09996 -0.09996)">
      <use xlink:href="#BitstreamVeraSans-Roman-44"/>
      <use x="77.001953125" xlink:href="#BitstreamVeraSans-Roman-6f"/>
      <use x="138.18359375" xlink:href="#BitstreamVeraSans-Roman-77"/>
      <use x="219.970703125" xlink:href="#BitstreamVeraSans-Roman-6e"/>
      <use x="283.349609375" xlink:href="#BitstreamVeraSans-Roman-6c"/>
      <use x="311.1328125" xlink:href="#BitstreamVeraSans-Roman-6f"/>
      <use x="372.314453125" xlink:href="#BitstreamVeraSans-Roman-61"/>
      <use x="433.59375" xlink:href="#BitstreamVeraSans-Roman-64"/>
     </g>
    </g>
    <g id="line2d_98">
     <path d="M 591.513009 76.677452 
L 611.505009 76.677452 
" style="fill:none;stroke:#d95f02;stroke-linecap:round;"/>
    </g>
    <g id="line2d_99"/>
    <g id="text_17">
     <!-- Ping (ms) -->
     <defs>
      <path d="M 19.671875 64.796875 
L 19.671875 37.40625 
L 32.078125 37.40625 
Q 38.96875 37.40625 42.71875 40.96875 
Q 46.484375 44.53125 46.484375 51.125 
Q 46.484375 57.671875 42.71875 61.234375 
Q 38.96875 64.796875 32.078125 64.796875 
z
M 9.8125 72.90625 
L 32.078125 72.90625 
Q 44.34375 72.90625 50.609375 67.359375 
Q 56.890625 61.8125 56.890625 51.125 
Q 56.890625 40.328125 50.609375 34.8125 
Q 44.34375 29.296875 32.078125 29.296875 
L 19.671875 29.296875 
L 19.671875 0 
L 9.8125 0 
z
" id="BitstreamVeraSans-Roman-50"/>
      <path d="M 45.40625 27.984375 
Q 45.40625 37.75 41.375 43.109375 
Q 37.359375 48.484375 30.078125 48.484375 
Q 22.859375 48.484375 18.828125 43.109375 
Q 14.796875 37.75 14.796875 27.984375 
Q 14.796875 18.265625 18.828125 12.890625 
Q 22.859375 7.515625 30.078125 7.515625 
Q 37.359375 7.515625 41.375 12.890625 
Q 45.40625 18.265625 45.40625 27.984375 
M 54.390625 6.78125 
Q 54.390625 -7.171875 48.1875 -13.984375 
Q 42 -20.796875 29.203125 -20.796875 
Q 24.46875 -20.796875 20.265625 -20.09375 
Q 16.0625 -19.390625 12.109375 -17.921875 
L 12.109375 -9.1875 
Q 16.0625 -11.328125 19.921875 -12.34375 
Q 23.78125 -13.375 27.78125 -13.375 
Q 36.625 -13.375 41.015625 -8.765625 
Q 45.40625 -4.15625 45.40625 5.171875 
L 45.40625 9.625 
Q 42.625 4.78125 38.28125 2.390625 
Q 33.9375 0 27.875 0 
Q 17.828125 0 11.671875 7.65625 
Q 5.515625 15.328125 5.515625 27.984375 
Q 5.515625 40.671875 11.671875 48.328125 
Q 17.828125 56 27.875 56 
Q 33.9375 56 38.28125 53.609375 
Q 42.625 51.21875 45.40625 46.390625 
L 45.40625 54.6875 
L 54.390625 54.6875 
z
" id="BitstreamVeraSans-Roman-67"/>
     </defs>
     <g style="fill:#262626;" transform="translate(619.501809 80.176051875)scale(0.09996 -0.09996)">
      <use xlink:href="#BitstreamVeraSans-Roman-50"/>
      <use x="60.271484375" xlink:href="#BitstreamVeraSans-Roman-69"/>
      <use x="88.0546875" xlink:href="#BitstreamVeraSans-Roman-6e"/>
      <use x="151.43359375" xlink:href="#BitstreamVeraSans-Roman-67"/>
      <use x="214.91015625" xlink:href="#BitstreamVeraSans-Roman-20"/>
      <use x="246.697265625" xlink:href="#BitstreamVeraSans-Roman-28"/>
      <use x="285.7109375" xlink:href="#BitstreamVeraSans-Roman-6d"/>
      <use x="383.123046875" xlink:href="#BitstreamVeraSans-Roman-73"/>
      <use x="435.22265625" xlink:href="#BitstreamVeraSans-Roman-29"/>
     </g>
    </g>
   </g>
  </g>
  <g id="axes_2">
   <g id="matplotlib.axis_3">
    <g id="ytick_23">
     <g id="line2d_100">
      <g>
       <use style="fill:#262626;stroke:#262626;stroke-width:0.5;" x="537.8769" xlink:href="#m872d7cd3b8" y="483.389724891"/>
      </g>
     </g>
     <g id="text_18">
      <!-- 0 -->
      <g style="fill:#262626;" transform="translate(541.8769 486.700974891)scale(0.12 -0.12)">
       <use xlink:href="#BitstreamVeraSans-Roman-30"/>
      </g>
     </g>
    </g>
    <g id="ytick_24">
     <g id="line2d_101">
      <g>
       <use style="fill:#262626;stroke:#262626;stroke-width:0.5;" x="537.8769" xlink:href="#m872d7cd3b8" y="388.386202569"/>
      </g>
     </g>
     <g id="text_19">
      <!-- 20 -->
      <g style="fill:#262626;" transform="translate(541.8769 391.697452569)scale(0.12 -0.12)">
       <use xlink:href="#BitstreamVeraSans-Roman-32"/>
       <use x="63.623046875" xlink:href="#BitstreamVeraSans-Roman-30"/>
      </g>
     </g>
    </g>
    <g id="ytick_25">
     <g id="line2d_102">
      <g>
       <use style="fill:#262626;stroke:#262626;stroke-width:0.5;" x="537.8769" xlink:href="#m872d7cd3b8" y="293.382680248"/>
      </g>
     </g>
     <g id="text_20">
      <!-- 40 -->
      <g style="fill:#262626;" transform="translate(541.8769 296.693930248)scale(0.12 -0.12)">
       <use xlink:href="#BitstreamVeraSans-Roman-34"/>
       <use x="63.623046875" xlink:href="#BitstreamVeraSans-Roman-30"/>
      </g>
     </g>
    </g>
    <g id="ytick_26">
     <g id="line2d_103">
      <g>
       <use style="fill:#262626;stroke:#262626;stroke-width:0.5;" x="537.8769" xlink:href="#m872d7cd3b8" y="198.379157926"/>
      </g>
     </g>
     <g id="text_21">
      <!-- 60 -->
      <g style="fill:#262626;" transform="translate(541.8769 201.690407926)scale(0.12 -0.12)">
       <use xlink:href="#BitstreamVeraSans-Roman-36"/>
       <use x="63.623046875" xlink:href="#BitstreamVeraSans-Roman-30"/>
      </g>
     </g>
    </g>
    <g id="ytick_27">
     <g id="line2d_104">
      <g>
       <use style="fill:#262626;stroke:#262626;stroke-width:0.5;" x="537.8769" xlink:href="#m872d7cd3b8" y="103.375635604"/>
      </g>
     </g>
     <g id="text_22">
      <!-- 80 -->
      <g style="fill:#262626;" transform="translate(541.8769 106.686885604)scale(0.12 -0.12)">
       <use xlink:href="#BitstreamVeraSans-Roman-38"/>
       <use x="63.623046875" xlink:href="#BitstreamVeraSans-Roman-30"/>
      </g>
     </g>
    </g>
    <g id="ytick_28">
     <g id="line2d_105">
      <g>
       <use style="fill:#262626;stroke:#262626;stroke-width:0.5;" x="537.8769" xlink:href="#m872d7cd3b8" y="459.63884431"/>
      </g>
     </g>
    </g>
    <g id="ytick_29">
     <g id="line2d_106">
      <g>
       <use style="fill:#262626;stroke:#262626;stroke-width:0.5;" x="537.8769" xlink:href="#m872d7cd3b8" y="435.88796373"/>
      </g>
     </g>
    </g>
    <g id="ytick_30">
     <g id="line2d_107">
      <g>
       <use style="fill:#262626;stroke:#262626;stroke-width:0.5;" x="537.8769" xlink:href="#m872d7cd3b8" y="412.13708315"/>
      </g>
     </g>
    </g>
    <g id="ytick_31">
     <g id="line2d_108">
      <g>
       <use style="fill:#262626;stroke:#262626;stroke-width:0.5;" x="537.8769" xlink:href="#m872d7cd3b8" y="364.635321989"/>
      </g>
     </g>
    </g>
    <g id="ytick_32">
     <g id="line2d_109">
      <g>
       <use style="fill:#262626;stroke:#262626;stroke-width:0.5;" x="537.8769" xlink:href="#m872d7cd3b8" y="340.884441408"/>
      </g>
     </g>
    </g>
    <g id="ytick_33">
     <g id="line2d_110">
      <g>
       <use style="fill:#262626;stroke:#262626;stroke-width:0.5;" x="537.8769" xlink:href="#m872d7cd3b8" y="317.133560828"/>
      </g>
     </g>
    </g>
    <g id="ytick_34">
     <g id="line2d_111">
      <g>
       <use style="fill:#262626;stroke:#262626;stroke-width:0.5;" x="537.8769" xlink:href="#m872d7cd3b8" y="269.631799667"/>
      </g>
     </g>
    </g>
    <g id="ytick_35">
     <g id="line2d_112">
      <g>
       <use style="fill:#262626;stroke:#262626;stroke-width:0.5;" x="537.8769" xlink:href="#m872d7cd3b8" y="245.880919087"/>
      </g>
     </g>
    </g>
    <g id="ytick_36">
     <g id="line2d_113">
      <g>
       <use style="fill:#262626;stroke:#262626;stroke-width:0.5;" x="537.8769" xlink:href="#m872d7cd3b8" y="222.130038506"/>
      </g>
     </g>
    </g>
    <g id="ytick_37">
     <g id="line2d_114">
      <g>
       <use style="fill:#262626;stroke:#262626;stroke-width:0.5;" x="537.8769" xlink:href="#m872d7cd3b8" y="174.628277345"/>
      </g>
     </g>
    </g>
    <g id="ytick_38">
     <g id="line2d_115">
      <g>
       <use style="fill:#262626;stroke:#262626;stroke-width:0.5;" x="537.8769" xlink:href="#m872d7cd3b8" y="150.877396765"/>
      </g>
     </g>
    </g>
    <g id="ytick_39">
     <g id="line2d_116">
      <g>
       <use style="fill:#262626;stroke:#262626;stroke-width:0.5;" x="537.8769" xlink:href="#m872d7cd3b8" y="127.126516185"/>
      </g>
     </g>
    </g>
    <g id="ytick_40">
     <g id="line2d_117">
      <g>
       <use style="fill:#262626;stroke:#262626;stroke-width:0.5;" x="537.8769" xlink:href="#m872d7cd3b8" y="79.6247550237"/>
      </g>
     </g>
    </g>
    <g id="ytick_41">
     <g id="line2d_118">
      <g>
       <use style="fill:#262626;stroke:#262626;stroke-width:0.5;" x="537.8769" xlink:href="#m872d7cd3b8" y="55.8738744433"/>
      </g>
     </g>
    </g>
    <g id="text_23">
     <!-- ms -->
     <g style="fill:#262626;" transform="translate(571.265025 278.52)rotate(-90.0)scale(0.12 -0.12)">
      <use xlink:href="#BitstreamVeraSans-Roman-6d"/>
      <use x="97.412109375" xlink:href="#BitstreamVeraSans-Roman-73"/>
     </g>
    </g>
   </g>
   <g id="line2d_119">
    <path clip-path="url(#pf5a009d137)" d="M 86.625 480.254609 
L 87.914291 480.539402 
L 89.203582 477.892051 
L 90.492873 480.768464 
L 91.782165 480.209294 
L 93.071456 480.490748 
L 94.360747 480.633806 
L 95.650038 480.587422 
L 96.939329 480.163037 
L 98.22862 480.348031 
L 99.517911 480.961765 
L 100.807203 480.590988 
L 102.096494 480.77504 
L 103.385785 480.308102 
L 104.675076 480.395847 
L 105.964367 480.865521 
L 107.253658 480.497955 
L 108.542949 480.538843 
L 109.832241 480.306341 
L 111.121532 480.441959 
L 112.410823 478.910625 
L 113.700114 480.318387 
L 114.989405 480.628383 
L 116.278696 480.216919 
L 117.567987 480.485472 
L 118.857279 480.538467 
L 120.14657 385.437354 
L 121.435861 356.93533 
L 122.725152 302.353698 
L 124.014443 258.366171 
L 125.303734 228.673584 
L 126.593025 185.616965 
L 127.882317 125.101029 
L 129.171608 146.984432 
L 130.460899 184.34595 
L 131.75019 182.491033 
L 133.039481 134.423245 
L 135.618063 116.286426 
L 136.907355 101.993333 
L 138.196646 118.506323 
L 139.485937 124.282061 
L 140.775228 77.072654 
L 142.064519 58.138235 
L 143.35381 98.092408 
L 144.643101 190.693529 
L 145.932393 181.820445 
L 147.221684 194.481355 
L 148.510975 211.801156 
L 149.800266 195.289143 
L 151.089557 163.228977 
L 152.378848 159.050541 
L 153.668139 158.006435 
L 154.957431 158.214553 
L 156.246722 174.515562 
L 158.825304 164.924784 
L 160.114595 187.924794 
L 161.403886 280.583391 
L 162.693177 197.427127 
L 163.982469 141.509672 
L 165.27176 131.014343 
L 166.561051 130.491668 
L 167.850342 143.846631 
L 169.139633 151.918694 
L 170.428924 150.516019 
L 171.718215 143.828308 
L 173.007507 143.415968 
L 174.296798 179.324317 
L 175.586089 146.296887 
L 176.87538 122.471684 
L 178.164671 118.488182 
L 179.453962 119.656947 
L 180.743253 116.586355 
L 182.032545 108.298777 
L 183.321836 148.228835 
L 184.611127 134.121677 
L 185.900418 114.078126 
L 187.189709 116.564618 
L 188.479 107.595602 
L 189.768291 77.272588 
L 191.057583 78.195194 
L 192.346874 103.817311 
L 193.636165 105.668488 
L 194.925456 118.341255 
L 196.214747 123.445477 
L 197.504038 139.127535 
L 198.793329 144.798827 
L 200.082621 128.741889 
L 201.371912 94.042329 
L 202.661203 92.264252 
L 203.950494 89.427869 
L 205.239785 90.239949 
L 206.529076 174.282476 
L 207.818367 190.091215 
L 209.107659 127.795432 
L 210.39695 165.851913 
L 211.686241 165.14242 
L 212.975532 149.296398 
L 214.264823 140.807563 
L 215.554114 162.129434 
L 216.843405 121.097532 
L 218.132697 98.228557 
L 219.421988 176.001553 
L 220.711279 168.000696 
L 222.00057 143.980126 
L 223.289861 174.000616 
L 224.579152 216.869848 
L 225.868443 222.897469 
L 227.157735 183.005582 
L 228.447026 178.665268 
L 229.736317 172.451505 
L 231.025608 199.886231 
L 232.314899 205.356758 
L 233.60419 169.265945 
L 234.893481 170.21342 
L 236.182773 156.35479 
L 237.472064 179.572857 
L 238.761355 184.342554 
L 240.050646 178.240072 
L 241.339937 185.940275 
L 242.629228 185.2728 
L 243.918519 165.593096 
L 245.207811 161.338022 
L 246.497102 158.737879 
L 247.786393 164.95202 
L 249.075684 139.871512 
L 250.364975 148.39997 
L 251.654266 165.761626 
L 252.943557 152.631203 
L 254.232849 149.013199 
L 255.52214 166.389101 
L 256.811431 175.020549 
L 258.100722 175.520896 
L 259.390013 191.684532 
L 260.679304 199.429863 
L 261.968595 295.016892 
L 263.257887 232.516738 
L 264.547178 162.91852 
L 265.836469 162.366688 
L 267.12576 178.405856 
L 268.415051 180.461249 
L 269.704342 170.256667 
L 270.993633 157.774222 
L 272.282925 164.793518 
L 273.572216 151.035915 
L 274.861507 165.119957 
L 276.150798 192.72761 
L 277.440089 173.679388 
L 278.72938 185.437854 
L 280.018671 221.178128 
L 281.307963 175.423792 
L 282.597254 146.444104 
L 283.886545 162.181719 
L 285.175836 166.036171 
L 286.465127 170.327105 
L 287.754418 160.740718 
L 289.043709 185.729003 
L 290.333001 222.646857 
L 291.622292 221.835097 
L 292.911583 205.28387 
L 294.200874 192.635491 
L 295.490165 194.492105 
L 296.779456 210.333184 
L 298.068747 192.722029 
L 299.358039 168.623713 
L 300.64733 195.882965 
L 301.936621 213.989357 
L 303.225912 181.459736 
L 304.515203 165.345341 
L 305.804494 178.521088 
L 307.093785 201.153323 
L 308.383077 192.544617 
L 309.672368 178.158651 
L 310.961659 179.811668 
L 312.25095 161.711946 
L 313.540241 161.802116 
L 314.829532 189.897786 
L 316.118823 201.28912 
L 318.697406 172.796257 
L 319.986697 174.66249 
L 321.275988 175.638602 
L 322.565279 185.857356 
L 323.85457 184.143267 
L 325.143861 167.226815 
L 326.433153 153.38113 
L 327.722444 155.55434 
L 329.011735 151.732204 
L 330.301026 158.136824 
L 331.590317 162.841616 
L 332.879608 169.470485 
L 334.168899 172.779976 
L 335.458191 148.342318 
L 336.747482 187.848854 
L 338.036773 220.316477 
L 339.326064 213.490516 
L 340.615355 229.085869 
L 341.904646 229.011495 
L 343.193937 204.698658 
L 344.483229 166.783876 
L 345.77252 151.002331 
L 347.061811 148.263022 
L 348.351102 173.808857 
L 349.640393 183.685618 
L 350.929684 155.229705 
L 352.218975 156.015664 
L 353.508267 159.685366 
L 354.797558 157.746078 
L 356.086849 153.163794 
L 357.37614 153.321507 
L 358.665431 162.265064 
L 359.954722 198.166088 
L 361.244013 199.633278 
L 362.533305 189.778384 
L 363.822596 217.823931 
L 366.401178 219.006609 
L 367.690469 201.555661 
L 368.97976 180.347832 
L 370.269051 183.469749 
L 371.558343 185.797869 
L 372.847634 181.677618 
L 374.136925 172.738647 
L 375.426216 165.414863 
L 376.715507 164.610134 
L 378.004798 150.389025 
L 379.294089 119.218228 
L 380.583381 123.675187 
L 383.161963 198.73892 
L 384.451254 230.071113 
L 385.740545 219.030085 
L 387.029836 194.994348 
L 388.319127 184.83969 
L 390.89771 198.854176 
L 392.187001 194.969031 
L 393.476292 187.670428 
L 394.765583 163.078405 
L 396.054874 151.632206 
L 397.344165 183.783116 
L 398.633457 189.296331 
L 399.922748 159.748757 
L 401.212039 155.502734 
L 402.50133 190.070927 
L 403.790621 197.278986 
L 405.079912 168.862725 
L 406.369203 159.627357 
L 407.658495 190.434605 
L 408.947786 187.9616 
L 410.237077 163.381193 
L 411.526368 152.197705 
L 412.815659 163.808335 
L 414.10495 182.190418 
L 415.394241 186.489817 
L 416.683533 222.37328 
L 417.972824 219.408354 
L 419.262115 194.131287 
L 420.551406 177.215392 
L 421.840697 173.924218 
L 423.129988 196.397729 
L 424.419279 189.522745 
L 425.708571 184.387402 
L 426.997862 189.343487 
L 428.287153 169.810755 
L 429.576444 162.422035 
L 430.865735 171.831286 
L 432.155026 188.818704 
L 433.444317 188.989265 
L 434.733609 179.43446 
L 436.0229 172.053708 
L 437.312191 157.218341 
L 439.890773 192.591647 
L 441.180064 189.158286 
L 442.469355 164.905009 
L 443.758647 149.261249 
L 445.047938 189.618518 
L 446.337229 220.630677 
L 447.62652 204.319922 
L 448.915811 183.332039 
L 450.205102 188.65958 
L 451.494393 200.471496 
L 452.783685 193.90167 
L 454.072976 196.554196 
L 455.362267 202.111355 
L 456.651558 215.855451 
L 457.940849 214.229741 
L 459.23014 203.944153 
L 460.519431 205.585077 
L 461.808723 196.613007 
L 463.098014 204.187168 
L 464.387305 206.935645 
L 465.676596 179.975845 
L 466.965887 178.575416 
L 468.255178 186.810119 
L 469.544469 199.837349 
L 470.833761 202.083405 
L 472.123052 176.001457 
L 473.412343 167.628847 
L 474.701634 192.925217 
L 475.990925 243.224484 
L 477.280216 219.360415 
L 478.569507 193.085438 
L 479.858799 215.169323 
L 481.14809 227.162852 
L 482.437381 213.516143 
L 483.726672 211.266647 
L 485.015963 207.268324 
L 486.305254 198.586325 
L 487.594545 200.676224 
L 488.883837 182.249918 
L 490.173128 175.358162 
L 491.462419 199.8974 
L 492.75171 207.438359 
L 494.041001 190.399391 
L 495.330292 178.553196 
L 496.619583 173.006163 
L 497.908875 170.256095 
L 499.198166 169.79926 
L 500.487457 166.010468 
L 501.776748 147.045073 
L 503.066039 136.981427 
L 504.35533 165.013424 
L 505.644621 243.597879 
L 506.933913 436.939354 
L 508.223204 469.189743 
L 509.512495 476.702045 
L 510.801786 480.528928 
L 512.091077 480.245972 
L 514.669659 480.549826 
L 517.248242 480.314667 
L 518.537533 477.556628 
L 519.826824 479.402056 
L 521.116115 480.61858 
L 522.405406 480.369616 
L 523.694697 480.289269 
L 524.983989 480.336716 
L 526.27328 479.86638 
L 527.562571 479.994997 
L 528.851862 480.319102 
L 530.141153 480.224839 
L 531.430444 480.607051 
L 534.009027 480.165007 
L 535.298318 480.385986 
L 536.587609 480.492117 
L 536.587609 480.492117 
" style="fill:none;stroke:#d95f02;stroke-linecap:round;"/>
   </g>
  </g>
  <g id="text_24">
   <!-- TCP download - N streams w/ping -->
   <defs>
    <path d="M 41.109375 46.296875 
Q 39.59375 47.171875 37.8125 47.578125 
Q 36.03125 48 33.890625 48 
Q 26.265625 48 22.1875 43.046875 
Q 18.109375 38.09375 18.109375 28.8125 
L 18.109375 0 
L 9.078125 0 
L 9.078125 54.6875 
L 18.109375 54.6875 
L 18.109375 46.1875 
Q 20.953125 51.171875 25.484375 53.578125 
Q 30.03125 56 36.53125 56 
Q 37.453125 56 38.578125 55.875 
Q 39.703125 55.765625 41.0625 55.515625 
z
" id="BitstreamVeraSans-Roman-72"/>
    <path d="M 9.8125 72.90625 
L 23.09375 72.90625 
L 55.421875 11.921875 
L 55.421875 72.90625 
L 64.984375 72.90625 
L 64.984375 0 
L 51.703125 0 
L 19.390625 60.984375 
L 19.390625 0 
L 9.8125 0 
z
" id="BitstreamVeraSans-Roman-4e"/>
    <path d="M 64.40625 67.28125 
L 64.40625 56.890625 
Q 59.421875 61.53125 53.78125 63.8125 
Q 48.140625 66.109375 41.796875 66.109375 
Q 29.296875 66.109375 22.65625 58.46875 
Q 16.015625 50.828125 16.015625 36.375 
Q 16.015625 21.96875 22.65625 14.328125 
Q 29.296875 6.6875 41.796875 6.6875 
Q 48.140625 6.6875 53.78125 8.984375 
Q 59.421875 11.28125 64.40625 15.921875 
L 64.40625 5.609375 
Q 59.234375 2.09375 53.4375 0.328125 
Q 47.65625 -1.421875 41.21875 -1.421875 
Q 24.65625 -1.421875 15.125 8.703125 
Q 5.609375 18.84375 5.609375 36.375 
Q 5.609375 53.953125 15.125 64.078125 
Q 24.65625 74.21875 41.21875 74.21875 
Q 47.75 74.21875 53.53125 72.484375 
Q 59.328125 70.75 64.40625 67.28125 
" id="BitstreamVeraSans-Roman-43"/>
    <path d="M 4.890625 31.390625 
L 31.203125 31.390625 
L 31.203125 23.390625 
L 4.890625 23.390625 
z
" id="BitstreamVeraSans-Roman-2d"/>
    <path d="M 18.109375 8.203125 
L 18.109375 -20.796875 
L 9.078125 -20.796875 
L 9.078125 54.6875 
L 18.109375 54.6875 
L 18.109375 46.390625 
Q 20.953125 51.265625 25.265625 53.625 
Q 29.59375 56 35.59375 56 
Q 45.5625 56 51.78125 48.09375 
Q 58.015625 40.1875 58.015625 27.296875 
Q 58.015625 14.40625 51.78125 6.484375 
Q 45.5625 -1.421875 35.59375 -1.421875 
Q 29.59375 -1.421875 25.265625 0.953125 
Q 20.953125 3.328125 18.109375 8.203125 
M 48.6875 27.296875 
Q 48.6875 37.203125 44.609375 42.84375 
Q 40.53125 48.484375 33.40625 48.484375 
Q 26.265625 48.484375 22.1875 42.84375 
Q 18.109375 37.203125 18.109375 27.296875 
Q 18.109375 17.390625 22.1875 11.75 
Q 26.265625 6.109375 33.40625 6.109375 
Q 40.53125 6.109375 44.609375 11.75 
Q 48.6875 17.390625 48.6875 27.296875 
" id="BitstreamVeraSans-Roman-70"/>
   </defs>
   <g style="fill:#262626;" transform="translate(228.70640625 10.6378125)scale(0.14 -0.14)">
    <use xlink:href="#BitstreamVeraSans-Roman-54"/>
    <use x="61.005859375" xlink:href="#BitstreamVeraSans-Roman-43"/>
    <use x="130.830078125" xlink:href="#BitstreamVeraSans-Roman-50"/>
    <use x="191.1328125" xlink:href="#BitstreamVeraSans-Roman-20"/>
    <use x="222.919921875" xlink:href="#BitstreamVeraSans-Roman-64"/>
    <use x="286.396484375" xlink:href="#BitstreamVeraSans-Roman-6f"/>
    <use x="347.578125" xlink:href="#BitstreamVeraSans-Roman-77"/>
    <use x="429.365234375" xlink:href="#BitstreamVeraSans-Roman-6e"/>
    <use x="492.744140625" xlink:href="#BitstreamVeraSans-Roman-6c"/>
    <use x="520.52734375" xlink:href="#BitstreamVeraSans-Roman-6f"/>
    <use x="581.708984375" xlink:href="#BitstreamVeraSans-Roman-61"/>
    <use x="642.98828125" xlink:href="#BitstreamVeraSans-Roman-64"/>
    <use x="706.46484375" xlink:href="#BitstreamVeraSans-Roman-20"/>
    <use x="738.251953125" xlink:href="#BitstreamVeraSans-Roman-2d"/>
    <use x="774.3359375" xlink:href="#BitstreamVeraSans-Roman-20"/>
    <use x="806.123046875" xlink:href="#BitstreamVeraSans-Roman-4e"/>
    <use x="880.927734375" xlink:href="#BitstreamVeraSans-Roman-20"/>
    <use x="912.71484375" xlink:href="#BitstreamVeraSans-Roman-73"/>
    <use x="964.814453125" xlink:href="#BitstreamVeraSans-Roman-74"/>
    <use x="1004.0234375" xlink:href="#BitstreamVeraSans-Roman-72"/>
    <use x="1045.10546875" xlink:href="#BitstreamVeraSans-Roman-65"/>
    <use x="1106.62890625" xlink:href="#BitstreamVeraSans-Roman-61"/>
    <use x="1167.90820312" xlink:href="#BitstreamVeraSans-Roman-6d"/>
    <use x="1265.3203125" xlink:href="#BitstreamVeraSans-Roman-73"/>
    <use x="1317.41992188" xlink:href="#BitstreamVeraSans-Roman-20"/>
    <use x="1349.20703125" xlink:href="#BitstreamVeraSans-Roman-77"/>
    <use x="1430.99414062" xlink:href="#BitstreamVeraSans-Roman-2f"/>
    <use x="1464.68554688" xlink:href="#BitstreamVeraSans-Roman-70"/>
    <use x="1528.16210938" xlink:href="#BitstreamVeraSans-Roman-69"/>
    <use x="1555.9453125" xlink:href="#BitstreamVeraSans-Roman-6e"/>
    <use x="1619.32421875" xlink:href="#BitstreamVeraSans-Roman-67"/>
   </g>
   <!-- Bandwidth and ping plot -->
   <defs>
    <path d="M 19.671875 34.8125 
L 19.671875 8.109375 
L 35.5 8.109375 
Q 43.453125 8.109375 47.28125 11.40625 
Q 51.125 14.703125 51.125 21.484375 
Q 51.125 28.328125 47.28125 31.5625 
Q 43.453125 34.8125 35.5 34.8125 
z
M 19.671875 64.796875 
L 19.671875 42.828125 
L 34.28125 42.828125 
Q 41.5 42.828125 45.03125 45.53125 
Q 48.578125 48.25 48.578125 53.8125 
Q 48.578125 59.328125 45.03125 62.0625 
Q 41.5 64.796875 34.28125 64.796875 
z
M 9.8125 72.90625 
L 35.015625 72.90625 
Q 46.296875 72.90625 52.390625 68.21875 
Q 58.5 63.53125 58.5 54.890625 
Q 58.5 48.1875 55.375 44.234375 
Q 52.25 40.28125 46.1875 39.3125 
Q 53.46875 37.75 57.5 32.78125 
Q 61.53125 27.828125 61.53125 20.40625 
Q 61.53125 10.640625 54.890625 5.3125 
Q 48.25 0 35.984375 0 
L 9.8125 0 
z
" id="BitstreamVeraSans-Roman-42"/>
    <path d="M 54.890625 33.015625 
L 54.890625 0 
L 45.90625 0 
L 45.90625 32.71875 
Q 45.90625 40.484375 42.875 44.328125 
Q 39.84375 48.1875 33.796875 48.1875 
Q 26.515625 48.1875 22.3125 43.546875 
Q 18.109375 38.921875 18.109375 30.90625 
L 18.109375 0 
L 9.078125 0 
L 9.078125 75.984375 
L 18.109375 75.984375 
L 18.109375 46.1875 
Q 21.34375 51.125 25.703125 53.5625 
Q 30.078125 56 35.796875 56 
Q 45.21875 56 50.046875 50.171875 
Q 54.890625 44.34375 54.890625 33.015625 
" id="BitstreamVeraSans-Roman-68"/>
   </defs>
   <g style="fill:#262626;" transform="translate(260.70515625 26.31475)scale(0.14 -0.14)">
    <use xlink:href="#BitstreamVeraSans-Roman-42"/>
    <use x="68.603515625" xlink:href="#BitstreamVeraSans-Roman-61"/>
    <use x="129.8828125" xlink:href="#BitstreamVeraSans-Roman-6e"/>
    <use x="193.26171875" xlink:href="#BitstreamVeraSans-Roman-64"/>
    <use x="256.73828125" xlink:href="#BitstreamVeraSans-Roman-77"/>
    <use x="338.525390625" xlink:href="#BitstreamVeraSans-Roman-69"/>
    <use x="366.30859375" xlink:href="#BitstreamVeraSans-Roman-64"/>
    <use x="429.78515625" xlink:href="#BitstreamVeraSans-Roman-74"/>
    <use x="468.994140625" xlink:href="#BitstreamVeraSans-Roman-68"/>
    <use x="532.373046875" xlink:href="#BitstreamVeraSans-Roman-20"/>
    <use x="564.16015625" xlink:href="#BitstreamVeraSans-Roman-61"/>
    <use x="625.439453125" xlink:href="#BitstreamVeraSans-Roman-6e"/>
    <use x="688.818359375" xlink:href="#BitstreamVeraSans-Roman-64"/>
    <use x="752.294921875" xlink:href="#BitstreamVeraSans-Roman-20"/>
    <use x="784.08203125" xlink:href="#BitstreamVeraSans-Roman-70"/>
    <use x="847.55859375" xlink:href="#BitstreamVeraSans-Roman-69"/>
    <use x="875.341796875" xlink:href="#BitstreamVeraSans-Roman-6e"/>
    <use x="938.720703125" xlink:href="#BitstreamVeraSans-Roman-67"/>
    <use x="1002.19726562" xlink:href="#BitstreamVeraSans-Roman-20"/>
    <use x="1033.984375" xlink:href="#BitstreamVeraSans-Roman-70"/>
    <use x="1097.4609375" xlink:href="#BitstreamVeraSans-Roman-6c"/>
    <use x="1125.24414062" xlink:href="#BitstreamVeraSans-Roman-6f"/>
    <use x="1186.42578125" xlink:href="#BitstreamVeraSans-Roman-74"/>
   </g>
   <!-- newap -->
   <g style="fill:#262626;" transform="translate(323.29828125 41.9916875)scale(0.14 -0.14)">
    <use xlink:href="#BitstreamVeraSans-Roman-6e"/>
    <use x="63.37890625" xlink:href="#BitstreamVeraSans-Roman-65"/>
    <use x="124.90234375" xlink:href="#BitstreamVeraSans-Roman-77"/>
    <use x="206.689453125" xlink:href="#BitstreamVeraSans-Roman-61"/>
    <use x="267.96875" xlink:href="#BitstreamVeraSans-Roman-70"/>
   </g>
  </g>
  <g id="text_25">
   <!-- Local/remote: nemesis/172.26.128.1 - Time: 2016-09-06T19:59:59.661134 - Length/step: 60s/0.20s -->
   <defs>
    <path d="M 10.6875 12.40625 
L 21 12.40625 
L 21 0 
L 10.6875 0 
z
" id="BitstreamVeraSans-Roman-2e"/>
    <path d="M 10.984375 1.515625 
L 10.984375 10.5 
Q 14.703125 8.734375 18.5 7.8125 
Q 22.3125 6.890625 25.984375 6.890625 
Q 35.75 6.890625 40.890625 13.453125 
Q 46.046875 20.015625 46.78125 33.40625 
Q 43.953125 29.203125 39.59375 26.953125 
Q 35.25 24.703125 29.984375 24.703125 
Q 19.046875 24.703125 12.671875 31.3125 
Q 6.296875 37.9375 6.296875 49.421875 
Q 6.296875 60.640625 12.9375 67.421875 
Q 19.578125 74.21875 30.609375 74.21875 
Q 43.265625 74.21875 49.921875 64.515625 
Q 56.59375 54.828125 56.59375 36.375 
Q 56.59375 19.140625 48.40625 8.859375 
Q 40.234375 -1.421875 26.421875 -1.421875 
Q 22.703125 -1.421875 18.890625 -0.6875 
Q 15.09375 0.046875 10.984375 1.515625 
M 30.609375 32.421875 
Q 37.25 32.421875 41.125 36.953125 
Q 45.015625 41.5 45.015625 49.421875 
Q 45.015625 57.28125 41.125 61.84375 
Q 37.25 66.40625 30.609375 66.40625 
Q 23.96875 66.40625 20.09375 61.84375 
Q 16.21875 57.28125 16.21875 49.421875 
Q 16.21875 41.5 20.09375 36.953125 
Q 23.96875 32.421875 30.609375 32.421875 
" id="BitstreamVeraSans-Roman-39"/>
    <path d="M 11.71875 12.40625 
L 22.015625 12.40625 
L 22.015625 0 
L 11.71875 0 
z
M 11.71875 51.703125 
L 22.015625 51.703125 
L 22.015625 39.3125 
L 11.71875 39.3125 
z
" id="BitstreamVeraSans-Roman-3a"/>
    <path d="M 9.8125 72.90625 
L 19.671875 72.90625 
L 19.671875 8.296875 
L 55.171875 8.296875 
L 55.171875 0 
L 9.8125 0 
z
" id="BitstreamVeraSans-Roman-4c"/>
    <path d="M 48.78125 52.59375 
L 48.78125 44.1875 
Q 44.96875 46.296875 41.140625 47.34375 
Q 37.3125 48.390625 33.40625 48.390625 
Q 24.65625 48.390625 19.8125 42.84375 
Q 14.984375 37.3125 14.984375 27.296875 
Q 14.984375 17.28125 19.8125 11.734375 
Q 24.65625 6.203125 33.40625 6.203125 
Q 37.3125 6.203125 41.140625 7.25 
Q 44.96875 8.296875 48.78125 10.40625 
L 48.78125 2.09375 
Q 45.015625 0.34375 40.984375 -0.53125 
Q 36.96875 -1.421875 32.421875 -1.421875 
Q 20.0625 -1.421875 12.78125 6.34375 
Q 5.515625 14.109375 5.515625 27.296875 
Q 5.515625 40.671875 12.859375 48.328125 
Q 20.21875 56 33.015625 56 
Q 37.15625 56 41.109375 55.140625 
Q 45.0625 54.296875 48.78125 52.59375 
" id="BitstreamVeraSans-Roman-63"/>
   </defs>
   <g style="fill:#262626;" transform="translate(146.2275 537.43625)scale(0.08 -0.08)">
    <use xlink:href="#BitstreamVeraSans-Roman-4c"/>
    <use x="55.697265625" xlink:href="#BitstreamVeraSans-Roman-6f"/>
    <use x="116.87890625" xlink:href="#BitstreamVeraSans-Roman-63"/>
    <use x="171.859375" xlink:href="#BitstreamVeraSans-Roman-61"/>
    <use x="233.138671875" xlink:href="#BitstreamVeraSans-Roman-6c"/>
    <use x="260.921875" xlink:href="#BitstreamVeraSans-Roman-2f"/>
    <use x="294.61328125" xlink:href="#BitstreamVeraSans-Roman-72"/>
    <use x="335.6953125" xlink:href="#BitstreamVeraSans-Roman-65"/>
    <use x="397.21875" xlink:href="#BitstreamVeraSans-Roman-6d"/>
    <use x="494.630859375" xlink:href="#BitstreamVeraSans-Roman-6f"/>
    <use x="555.8125" xlink:href="#BitstreamVeraSans-Roman-74"/>
    <use x="595.021484375" xlink:href="#BitstreamVeraSans-Roman-65"/>
    <use x="656.544921875" xlink:href="#BitstreamVeraSans-Roman-3a"/>
    <use x="690.236328125" xlink:href="#BitstreamVeraSans-Roman-20"/>
    <use x="722.0234375" xlink:href="#BitstreamVeraSans-Roman-6e"/>
    <use x="785.40234375" xlink:href="#BitstreamVeraSans-Roman-65"/>
    <use x="846.92578125" xlink:href="#BitstreamVeraSans-Roman-6d"/>
    <use x="944.337890625" xlink:href="#BitstreamVeraSans-Roman-65"/>
    <use x="1005.86132812" xlink:href="#BitstreamVeraSans-Roman-73"/>
    <use x="1057.9609375" xlink:href="#BitstreamVeraSans-Roman-69"/>
    <use x="1085.74414062" xlink:href="#BitstreamVeraSans-Roman-73"/>
    <use x="1137.84375" xlink:href="#BitstreamVeraSans-Roman-2f"/>
    <use x="1171.53515625" xlink:href="#BitstreamVeraSans-Roman-31"/>
    <use x="1235.15820312" xlink:href="#BitstreamVeraSans-Roman-37"/>
    <use x="1298.78125" xlink:href="#BitstreamVeraSans-Roman-32"/>
    <use x="1362.40429688" xlink:href="#BitstreamVeraSans-Roman-2e"/>
    <use x="1394.19140625" xlink:href="#BitstreamVeraSans-Roman-32"/>
    <use x="1457.81445312" xlink:href="#BitstreamVeraSans-Roman-36"/>
    <use x="1521.4375" xlink:href="#BitstreamVeraSans-Roman-2e"/>
    <use x="1553.22460938" xlink:href="#BitstreamVeraSans-Roman-31"/>
    <use x="1616.84765625" xlink:href="#BitstreamVeraSans-Roman-32"/>
    <use x="1680.47070312" xlink:href="#BitstreamVeraSans-Roman-38"/>
    <use x="1744.09375" xlink:href="#BitstreamVeraSans-Roman-2e"/>
    <use x="1775.88085938" xlink:href="#BitstreamVeraSans-Roman-31"/>
    <use x="1839.50390625" xlink:href="#BitstreamVeraSans-Roman-20"/>
    <use x="1871.29101562" xlink:href="#BitstreamVeraSans-Roman-2d"/>
    <use x="1907.375" xlink:href="#BitstreamVeraSans-Roman-20"/>
    <use x="1939.16210938" xlink:href="#BitstreamVeraSans-Roman-54"/>
    <use x="2000.19921875" xlink:href="#BitstreamVeraSans-Roman-69"/>
    <use x="2027.98242188" xlink:href="#BitstreamVeraSans-Roman-6d"/>
    <use x="2125.39453125" xlink:href="#BitstreamVeraSans-Roman-65"/>
    <use x="2186.91796875" xlink:href="#BitstreamVeraSans-Roman-3a"/>
    <use x="2220.609375" xlink:href="#BitstreamVeraSans-Roman-20"/>
    <use x="2252.39648438" xlink:href="#BitstreamVeraSans-Roman-32"/>
    <use x="2316.01953125" xlink:href="#BitstreamVeraSans-Roman-30"/>
    <use x="2379.64257812" xlink:href="#BitstreamVeraSans-Roman-31"/>
    <use x="2443.265625" xlink:href="#BitstreamVeraSans-Roman-36"/>
    <use x="2506.88867188" xlink:href="#BitstreamVeraSans-Roman-2d"/>
    <use x="2542.97265625" xlink:href="#BitstreamVeraSans-Roman-30"/>
    <use x="2606.59570312" xlink:href="#BitstreamVeraSans-Roman-39"/>
    <use x="2670.21875" xlink:href="#BitstreamVeraSans-Roman-2d"/>
    <use x="2706.30273438" xlink:href="#BitstreamVeraSans-Roman-30"/>
    <use x="2769.92578125" xlink:href="#BitstreamVeraSans-Roman-36"/>
    <use x="2833.54882812" xlink:href="#BitstreamVeraSans-Roman-54"/>
    <use x="2894.6328125" xlink:href="#BitstreamVeraSans-Roman-31"/>
    <use x="2958.25585938" xlink:href="#BitstreamVeraSans-Roman-39"/>
    <use x="3021.87890625" xlink:href="#BitstreamVeraSans-Roman-3a"/>
    <use x="3055.5703125" xlink:href="#BitstreamVeraSans-Roman-35"/>
    <use x="3119.19335938" xlink:href="#BitstreamVeraSans-Roman-39"/>
    <use x="3182.81640625" xlink:href="#BitstreamVeraSans-Roman-3a"/>
    <use x="3216.5078125" xlink:href="#BitstreamVeraSans-Roman-35"/>
    <use x="3280.13085938" xlink:href="#BitstreamVeraSans-Roman-39"/>
    <use x="3343.75390625" xlink:href="#BitstreamVeraSans-Roman-2e"/>
    <use x="3375.54101562" xlink:href="#BitstreamVeraSans-Roman-36"/>
    <use x="3439.1640625" xlink:href="#BitstreamVeraSans-Roman-36"/>
    <use x="3502.78710938" xlink:href="#BitstreamVeraSans-Roman-31"/>
    <use x="3566.41015625" xlink:href="#BitstreamVeraSans-Roman-31"/>
    <use x="3630.03320312" xlink:href="#BitstreamVeraSans-Roman-33"/>
    <use x="3693.65625" xlink:href="#BitstreamVeraSans-Roman-34"/>
    <use x="3757.27929688" xlink:href="#BitstreamVeraSans-Roman-20"/>
    <use x="3789.06640625" xlink:href="#BitstreamVeraSans-Roman-2d"/>
    <use x="3825.15039062" xlink:href="#BitstreamVeraSans-Roman-20"/>
    <use x="3856.9375" xlink:href="#BitstreamVeraSans-Roman-4c"/>
    <use x="3912.63476562" xlink:href="#BitstreamVeraSans-Roman-65"/>
    <use x="3974.15820312" xlink:href="#BitstreamVeraSans-Roman-6e"/>
    <use x="4037.53710938" xlink:href="#BitstreamVeraSans-Roman-67"/>
    <use x="4101.01367188" xlink:href="#BitstreamVeraSans-Roman-74"/>
    <use x="4140.22265625" xlink:href="#BitstreamVeraSans-Roman-68"/>
    <use x="4203.6015625" xlink:href="#BitstreamVeraSans-Roman-2f"/>
    <use x="4237.29296875" xlink:href="#BitstreamVeraSans-Roman-73"/>
    <use x="4289.39257812" xlink:href="#BitstreamVeraSans-Roman-74"/>
    <use x="4328.6015625" xlink:href="#BitstreamVeraSans-Roman-65"/>
    <use x="4390.125" xlink:href="#BitstreamVeraSans-Roman-70"/>
    <use x="4453.6015625" xlink:href="#BitstreamVeraSans-Roman-3a"/>
    <use x="4487.29296875" xlink:href="#BitstreamVeraSans-Roman-20"/>
    <use x="4519.08007812" xlink:href="#BitstreamVeraSans-Roman-36"/>
    <use x="4582.703125" xlink:href="#BitstreamVeraSans-Roman-30"/>
    <use x="4646.32617188" xlink:href="#BitstreamVeraSans-Roman-73"/>
    <use x="4698.42578125" xlink:href="#BitstreamVeraSans-Roman-2f"/>
    <use x="4732.1171875" xlink:href="#BitstreamVeraSans-Roman-30"/>
    <use x="4795.74023438" xlink:href="#BitstreamVeraSans-Roman-2e"/>
    <use x="4827.52734375" xlink:href="#BitstreamVeraSans-Roman-32"/>
    <use x="4891.15039062" xlink:href="#BitstreamVeraSans-Roman-30"/>
    <use x="4954.7734375" xlink:href="#BitstreamVeraSans-Roman-73"/>
   </g>
  </g>
 </g>
 <defs>
  <clipPath id="pf5a009d137">
   <rect height="431.28" width="451.2519" x="86.625" y="53.91"/>
  </clipPath>
 </defs>
</svg>
