<?xml version="1.0" encoding="utf-8" standalone="no"?>
<!DOCTYPE svg PUBLIC "-//W3C//DTD SVG 1.1//EN"
  "http://www.w3.org/Graphics/SVG/1.1/DTD/svg11.dtd">
<!-- Created with matplotlib (http://matplotlib.org/) -->
<svg height="539pt" version="1.1" viewBox="0 0 693 539" width="693pt" xmlns="http://www.w3.org/2000/svg" xmlns:xlink="http://www.w3.org/1999/xlink">
 <defs>
  <style type="text/css">
*{stroke-linecap:butt;stroke-linejoin:round;stroke-miterlimit:100000;}
  </style>
 </defs>
 <g id="figure_1">
  <g id="patch_1">
   <path d="M 0 539.1 
L 693 539.1 
L 693 0 
L 0 0 
z
" style="fill:#ffffff;"/>
  </g>
  <g id="axes_1">
   <g id="patch_2">
    <path d="M 86.625 485.19 
L 537.8769 485.19 
L 537.8769 53.91 
L 86.625 53.91 
z
" style="fill:#eaeaf2;"/>
   </g>
   <g id="matplotlib.axis_1">
    <g id="xtick_1">
     <g id="line2d_1">
      <defs>
       <path d="M 0 0 
L 0 0 
" id="mb882e58dd6" style="stroke:#262626;stroke-width:0.5;"/>
      </defs>
      <g>
       <use style="fill:#262626;stroke:#262626;stroke-width:0.5;" x="86.625" xlink:href="#mb882e58dd6" y="485.19"/>
      </g>
     </g>
     <g id="line2d_2">
      <g>
       <use style="fill:#262626;stroke:#262626;stroke-width:0.5;" x="86.625" xlink:href="#mb882e58dd6" y="53.91"/>
      </g>
     </g>
     <g id="text_1">
      <!-- 0 -->
      <defs>
       <path d="M 31.78125 66.40625 
Q 24.171875 66.40625 20.328125 58.90625 
Q 16.5 51.421875 16.5 36.375 
Q 16.5 21.390625 20.328125 13.890625 
Q 24.171875 6.390625 31.78125 6.390625 
Q 39.453125 6.390625 43.28125 13.890625 
Q 47.125 21.390625 47.125 36.375 
Q 47.125 51.421875 43.28125 58.90625 
Q 39.453125 66.40625 31.78125 66.40625 
M 31.78125 74.21875 
Q 44.046875 74.21875 50.515625 64.515625 
Q 56.984375 54.828125 56.984375 36.375 
Q 56.984375 17.96875 50.515625 8.265625 
Q 44.046875 -1.421875 31.78125 -1.421875 
Q 19.53125 -1.421875 13.0625 8.265625 
Q 6.59375 17.96875 6.59375 36.375 
Q 6.59375 54.828125 13.0625 64.515625 
Q 19.53125 74.21875 31.78125 74.21875 
" id="BitstreamVeraSans-Roman-30"/>
      </defs>
      <g style="fill:#262626;" transform="translate(82.8075 498.308125)scale(0.12 -0.12)">
       <use xlink:href="#BitstreamVeraSans-Roman-30"/>
      </g>
     </g>
    </g>
    <g id="xtick_2">
     <g id="line2d_3">
      <g>
       <use style="fill:#262626;stroke:#262626;stroke-width:0.5;" x="151.089557143" xlink:href="#mb882e58dd6" y="485.19"/>
      </g>
     </g>
     <g id="line2d_4">
      <g>
       <use style="fill:#262626;stroke:#262626;stroke-width:0.5;" x="151.089557143" xlink:href="#mb882e58dd6" y="53.91"/>
      </g>
     </g>
     <g id="text_2">
      <!-- 10 -->
      <defs>
       <path d="M 12.40625 8.296875 
L 28.515625 8.296875 
L 28.515625 63.921875 
L 10.984375 60.40625 
L 10.984375 69.390625 
L 28.421875 72.90625 
L 38.28125 72.90625 
L 38.28125 8.296875 
L 54.390625 8.296875 
L 54.390625 0 
L 12.40625 0 
z
" id="BitstreamVeraSans-Roman-31"/>
      </defs>
      <g style="fill:#262626;" transform="translate(143.454557143 498.308125)scale(0.12 -0.12)">
       <use xlink:href="#BitstreamVeraSans-Roman-31"/>
       <use x="63.623046875" xlink:href="#BitstreamVeraSans-Roman-30"/>
      </g>
     </g>
    </g>
    <g id="xtick_3">
     <g id="line2d_5">
      <g>
       <use style="fill:#262626;stroke:#262626;stroke-width:0.5;" x="215.554114286" xlink:href="#mb882e58dd6" y="485.19"/>
      </g>
     </g>
     <g id="line2d_6">
      <g>
       <use style="fill:#262626;stroke:#262626;stroke-width:0.5;" x="215.554114286" xlink:href="#mb882e58dd6" y="53.91"/>
      </g>
     </g>
     <g id="text_3">
      <!-- 20 -->
      <defs>
       <path d="M 19.1875 8.296875 
L 53.609375 8.296875 
L 53.609375 0 
L 7.328125 0 
L 7.328125 8.296875 
Q 12.9375 14.109375 22.625 23.890625 
Q 32.328125 33.6875 34.8125 36.53125 
Q 39.546875 41.84375 41.421875 45.53125 
Q 43.3125 49.21875 43.3125 52.78125 
Q 43.3125 58.59375 39.234375 62.25 
Q 35.15625 65.921875 28.609375 65.921875 
Q 23.96875 65.921875 18.8125 64.3125 
Q 13.671875 62.703125 7.8125 59.421875 
L 7.8125 69.390625 
Q 13.765625 71.78125 18.9375 73 
Q 24.125 74.21875 28.421875 74.21875 
Q 39.75 74.21875 46.484375 68.546875 
Q 53.21875 62.890625 53.21875 53.421875 
Q 53.21875 48.921875 51.53125 44.890625 
Q 49.859375 40.875 45.40625 35.40625 
Q 44.1875 33.984375 37.640625 27.21875 
Q 31.109375 20.453125 19.1875 8.296875 
" id="BitstreamVeraSans-Roman-32"/>
      </defs>
      <g style="fill:#262626;" transform="translate(207.919114286 498.308125)scale(0.12 -0.12)">
       <use xlink:href="#BitstreamVeraSans-Roman-32"/>
       <use x="63.623046875" xlink:href="#BitstreamVeraSans-Roman-30"/>
      </g>
     </g>
    </g>
    <g id="xtick_4">
     <g id="line2d_7">
      <g>
       <use style="fill:#262626;stroke:#262626;stroke-width:0.5;" x="280.018671429" xlink:href="#mb882e58dd6" y="485.19"/>
      </g>
     </g>
     <g id="line2d_8">
      <g>
       <use style="fill:#262626;stroke:#262626;stroke-width:0.5;" x="280.018671429" xlink:href="#mb882e58dd6" y="53.91"/>
      </g>
     </g>
     <g id="text_4">
      <!-- 30 -->
      <defs>
       <path d="M 40.578125 39.3125 
Q 47.65625 37.796875 51.625 33 
Q 55.609375 28.21875 55.609375 21.1875 
Q 55.609375 10.40625 48.1875 4.484375 
Q 40.765625 -1.421875 27.09375 -1.421875 
Q 22.515625 -1.421875 17.65625 -0.515625 
Q 12.796875 0.390625 7.625 2.203125 
L 7.625 11.71875 
Q 11.71875 9.328125 16.59375 8.109375 
Q 21.484375 6.890625 26.8125 6.890625 
Q 36.078125 6.890625 40.9375 10.546875 
Q 45.796875 14.203125 45.796875 21.1875 
Q 45.796875 27.640625 41.28125 31.265625 
Q 36.765625 34.90625 28.71875 34.90625 
L 20.21875 34.90625 
L 20.21875 43.015625 
L 29.109375 43.015625 
Q 36.375 43.015625 40.234375 45.921875 
Q 44.09375 48.828125 44.09375 54.296875 
Q 44.09375 59.90625 40.109375 62.90625 
Q 36.140625 65.921875 28.71875 65.921875 
Q 24.65625 65.921875 20.015625 65.03125 
Q 15.375 64.15625 9.8125 62.3125 
L 9.8125 71.09375 
Q 15.4375 72.65625 20.34375 73.4375 
Q 25.25 74.21875 29.59375 74.21875 
Q 40.828125 74.21875 47.359375 69.109375 
Q 53.90625 64.015625 53.90625 55.328125 
Q 53.90625 49.265625 50.4375 45.09375 
Q 46.96875 40.921875 40.578125 39.3125 
" id="BitstreamVeraSans-Roman-33"/>
      </defs>
      <g style="fill:#262626;" transform="translate(272.383671429 498.308125)scale(0.12 -0.12)">
       <use xlink:href="#BitstreamVeraSans-Roman-33"/>
       <use x="63.623046875" xlink:href="#BitstreamVeraSans-Roman-30"/>
      </g>
     </g>
    </g>
    <g id="xtick_5">
     <g id="line2d_9">
      <g>
       <use style="fill:#262626;stroke:#262626;stroke-width:0.5;" x="344.483228571" xlink:href="#mb882e58dd6" y="485.19"/>
      </g>
     </g>
     <g id="line2d_10">
      <g>
       <use style="fill:#262626;stroke:#262626;stroke-width:0.5;" x="344.483228571" xlink:href="#mb882e58dd6" y="53.91"/>
      </g>
     </g>
     <g id="text_5">
      <!-- 40 -->
      <defs>
       <path d="M 37.796875 64.3125 
L 12.890625 25.390625 
L 37.796875 25.390625 
z
M 35.203125 72.90625 
L 47.609375 72.90625 
L 47.609375 25.390625 
L 58.015625 25.390625 
L 58.015625 17.1875 
L 47.609375 17.1875 
L 47.609375 0 
L 37.796875 0 
L 37.796875 17.1875 
L 4.890625 17.1875 
L 4.890625 26.703125 
z
" id="BitstreamVeraSans-Roman-34"/>
      </defs>
      <g style="fill:#262626;" transform="translate(336.848228571 498.308125)scale(0.12 -0.12)">
       <use xlink:href="#BitstreamVeraSans-Roman-34"/>
       <use x="63.623046875" xlink:href="#BitstreamVeraSans-Roman-30"/>
      </g>
     </g>
    </g>
    <g id="xtick_6">
     <g id="line2d_11">
      <g>
       <use style="fill:#262626;stroke:#262626;stroke-width:0.5;" x="408.947785714" xlink:href="#mb882e58dd6" y="485.19"/>
      </g>
     </g>
     <g id="line2d_12">
      <g>
       <use style="fill:#262626;stroke:#262626;stroke-width:0.5;" x="408.947785714" xlink:href="#mb882e58dd6" y="53.91"/>
      </g>
     </g>
     <g id="text_6">
      <!-- 50 -->
      <defs>
       <path d="M 10.796875 72.90625 
L 49.515625 72.90625 
L 49.515625 64.59375 
L 19.828125 64.59375 
L 19.828125 46.734375 
Q 21.96875 47.46875 24.109375 47.828125 
Q 26.265625 48.1875 28.421875 48.1875 
Q 40.625 48.1875 47.75 41.5 
Q 54.890625 34.8125 54.890625 23.390625 
Q 54.890625 11.625 47.5625 5.09375 
Q 40.234375 -1.421875 26.90625 -1.421875 
Q 22.3125 -1.421875 17.546875 -0.640625 
Q 12.796875 0.140625 7.71875 1.703125 
L 7.71875 11.625 
Q 12.109375 9.234375 16.796875 8.0625 
Q 21.484375 6.890625 26.703125 6.890625 
Q 35.15625 6.890625 40.078125 11.328125 
Q 45.015625 15.765625 45.015625 23.390625 
Q 45.015625 31 40.078125 35.4375 
Q 35.15625 39.890625 26.703125 39.890625 
Q 22.75 39.890625 18.8125 39.015625 
Q 14.890625 38.140625 10.796875 36.28125 
z
" id="BitstreamVeraSans-Roman-35"/>
      </defs>
      <g style="fill:#262626;" transform="translate(401.312785714 498.308125)scale(0.12 -0.12)">
       <use xlink:href="#BitstreamVeraSans-Roman-35"/>
       <use x="63.623046875" xlink:href="#BitstreamVeraSans-Roman-30"/>
      </g>
     </g>
    </g>
    <g id="xtick_7">
     <g id="line2d_13">
      <g>
       <use style="fill:#262626;stroke:#262626;stroke-width:0.5;" x="473.412342857" xlink:href="#mb882e58dd6" y="485.19"/>
      </g>
     </g>
     <g id="line2d_14">
      <g>
       <use style="fill:#262626;stroke:#262626;stroke-width:0.5;" x="473.412342857" xlink:href="#mb882e58dd6" y="53.91"/>
      </g>
     </g>
     <g id="text_7">
      <!-- 60 -->
      <defs>
       <path d="M 33.015625 40.375 
Q 26.375 40.375 22.484375 35.828125 
Q 18.609375 31.296875 18.609375 23.390625 
Q 18.609375 15.53125 22.484375 10.953125 
Q 26.375 6.390625 33.015625 6.390625 
Q 39.65625 6.390625 43.53125 10.953125 
Q 47.40625 15.53125 47.40625 23.390625 
Q 47.40625 31.296875 43.53125 35.828125 
Q 39.65625 40.375 33.015625 40.375 
M 52.59375 71.296875 
L 52.59375 62.3125 
Q 48.875 64.0625 45.09375 64.984375 
Q 41.3125 65.921875 37.59375 65.921875 
Q 27.828125 65.921875 22.671875 59.328125 
Q 17.53125 52.734375 16.796875 39.40625 
Q 19.671875 43.65625 24.015625 45.921875 
Q 28.375 48.1875 33.59375 48.1875 
Q 44.578125 48.1875 50.953125 41.515625 
Q 57.328125 34.859375 57.328125 23.390625 
Q 57.328125 12.15625 50.6875 5.359375 
Q 44.046875 -1.421875 33.015625 -1.421875 
Q 20.359375 -1.421875 13.671875 8.265625 
Q 6.984375 17.96875 6.984375 36.375 
Q 6.984375 53.65625 15.1875 63.9375 
Q 23.390625 74.21875 37.203125 74.21875 
Q 40.921875 74.21875 44.703125 73.484375 
Q 48.484375 72.75 52.59375 71.296875 
" id="BitstreamVeraSans-Roman-36"/>
      </defs>
      <g style="fill:#262626;" transform="translate(465.777342857 498.308125)scale(0.12 -0.12)">
       <use xlink:href="#BitstreamVeraSans-Roman-36"/>
       <use x="63.623046875" xlink:href="#BitstreamVeraSans-Roman-30"/>
      </g>
     </g>
    </g>
    <g id="xtick_8">
     <g id="line2d_15">
      <g>
       <use style="fill:#262626;stroke:#262626;stroke-width:0.5;" x="537.8769" xlink:href="#mb882e58dd6" y="485.19"/>
      </g>
     </g>
     <g id="line2d_16">
      <g>
       <use style="fill:#262626;stroke:#262626;stroke-width:0.5;" x="537.8769" xlink:href="#mb882e58dd6" y="53.91"/>
      </g>
     </g>
     <g id="text_8">
      <!-- 70 -->
      <defs>
       <path d="M 8.203125 72.90625 
L 55.078125 72.90625 
L 55.078125 68.703125 
L 28.609375 0 
L 18.3125 0 
L 43.21875 64.59375 
L 8.203125 64.59375 
z
" id="BitstreamVeraSans-Roman-37"/>
      </defs>
      <g style="fill:#262626;" transform="translate(530.2419 498.308125)scale(0.12 -0.12)">
       <use xlink:href="#BitstreamVeraSans-Roman-37"/>
       <use x="63.623046875" xlink:href="#BitstreamVeraSans-Roman-30"/>
      </g>
     </g>
    </g>
    <g id="xtick_9">
     <g id="line2d_17">
      <g>
       <use style="fill:#262626;stroke:#262626;stroke-width:0.5;" x="99.5179114286" xlink:href="#mb882e58dd6" y="485.19"/>
      </g>
     </g>
     <g id="line2d_18">
      <g>
       <use style="fill:#262626;stroke:#262626;stroke-width:0.5;" x="99.5179114286" xlink:href="#mb882e58dd6" y="53.91"/>
      </g>
     </g>
    </g>
    <g id="xtick_10">
     <g id="line2d_19">
      <g>
       <use style="fill:#262626;stroke:#262626;stroke-width:0.5;" x="112.410822857" xlink:href="#mb882e58dd6" y="485.19"/>
      </g>
     </g>
     <g id="line2d_20">
      <g>
       <use style="fill:#262626;stroke:#262626;stroke-width:0.5;" x="112.410822857" xlink:href="#mb882e58dd6" y="53.91"/>
      </g>
     </g>
    </g>
    <g id="xtick_11">
     <g id="line2d_21">
      <g>
       <use style="fill:#262626;stroke:#262626;stroke-width:0.5;" x="125.303734286" xlink:href="#mb882e58dd6" y="485.19"/>
      </g>
     </g>
     <g id="line2d_22">
      <g>
       <use style="fill:#262626;stroke:#262626;stroke-width:0.5;" x="125.303734286" xlink:href="#mb882e58dd6" y="53.91"/>
      </g>
     </g>
    </g>
    <g id="xtick_12">
     <g id="line2d_23">
      <g>
       <use style="fill:#262626;stroke:#262626;stroke-width:0.5;" x="138.196645714" xlink:href="#mb882e58dd6" y="485.19"/>
      </g>
     </g>
     <g id="line2d_24">
      <g>
       <use style="fill:#262626;stroke:#262626;stroke-width:0.5;" x="138.196645714" xlink:href="#mb882e58dd6" y="53.91"/>
      </g>
     </g>
    </g>
    <g id="xtick_13">
     <g id="line2d_25">
      <g>
       <use style="fill:#262626;stroke:#262626;stroke-width:0.5;" x="163.982468571" xlink:href="#mb882e58dd6" y="485.19"/>
      </g>
     </g>
     <g id="line2d_26">
      <g>
       <use style="fill:#262626;stroke:#262626;stroke-width:0.5;" x="163.982468571" xlink:href="#mb882e58dd6" y="53.91"/>
      </g>
     </g>
    </g>
    <g id="xtick_14">
     <g id="line2d_27">
      <g>
       <use style="fill:#262626;stroke:#262626;stroke-width:0.5;" x="176.87538" xlink:href="#mb882e58dd6" y="485.19"/>
      </g>
     </g>
     <g id="line2d_28">
      <g>
       <use style="fill:#262626;stroke:#262626;stroke-width:0.5;" x="176.87538" xlink:href="#mb882e58dd6" y="53.91"/>
      </g>
     </g>
    </g>
    <g id="xtick_15">
     <g id="line2d_29">
      <g>
       <use style="fill:#262626;stroke:#262626;stroke-width:0.5;" x="189.768291429" xlink:href="#mb882e58dd6" y="485.19"/>
      </g>
     </g>
     <g id="line2d_30">
      <g>
       <use style="fill:#262626;stroke:#262626;stroke-width:0.5;" x="189.768291429" xlink:href="#mb882e58dd6" y="53.91"/>
      </g>
     </g>
    </g>
    <g id="xtick_16">
     <g id="line2d_31">
      <g>
       <use style="fill:#262626;stroke:#262626;stroke-width:0.5;" x="202.661202857" xlink:href="#mb882e58dd6" y="485.19"/>
      </g>
     </g>
     <g id="line2d_32">
      <g>
       <use style="fill:#262626;stroke:#262626;stroke-width:0.5;" x="202.661202857" xlink:href="#mb882e58dd6" y="53.91"/>
      </g>
     </g>
    </g>
    <g id="xtick_17">
     <g id="line2d_33">
      <g>
       <use style="fill:#262626;stroke:#262626;stroke-width:0.5;" x="228.447025714" xlink:href="#mb882e58dd6" y="485.19"/>
      </g>
     </g>
     <g id="line2d_34">
      <g>
       <use style="fill:#262626;stroke:#262626;stroke-width:0.5;" x="228.447025714" xlink:href="#mb882e58dd6" y="53.91"/>
      </g>
     </g>
    </g>
    <g id="xtick_18">
     <g id="line2d_35">
      <g>
       <use style="fill:#262626;stroke:#262626;stroke-width:0.5;" x="241.339937143" xlink:href="#mb882e58dd6" y="485.19"/>
      </g>
     </g>
     <g id="line2d_36">
      <g>
       <use style="fill:#262626;stroke:#262626;stroke-width:0.5;" x="241.339937143" xlink:href="#mb882e58dd6" y="53.91"/>
      </g>
     </g>
    </g>
    <g id="xtick_19">
     <g id="line2d_37">
      <g>
       <use style="fill:#262626;stroke:#262626;stroke-width:0.5;" x="254.232848571" xlink:href="#mb882e58dd6" y="485.19"/>
      </g>
     </g>
     <g id="line2d_38">
      <g>
       <use style="fill:#262626;stroke:#262626;stroke-width:0.5;" x="254.232848571" xlink:href="#mb882e58dd6" y="53.91"/>
      </g>
     </g>
    </g>
    <g id="xtick_20">
     <g id="line2d_39">
      <g>
       <use style="fill:#262626;stroke:#262626;stroke-width:0.5;" x="267.12576" xlink:href="#mb882e58dd6" y="485.19"/>
      </g>
     </g>
     <g id="line2d_40">
      <g>
       <use style="fill:#262626;stroke:#262626;stroke-width:0.5;" x="267.12576" xlink:href="#mb882e58dd6" y="53.91"/>
      </g>
     </g>
    </g>
    <g id="xtick_21">
     <g id="line2d_41">
      <g>
       <use style="fill:#262626;stroke:#262626;stroke-width:0.5;" x="292.911582857" xlink:href="#mb882e58dd6" y="485.19"/>
      </g>
     </g>
     <g id="line2d_42">
      <g>
       <use style="fill:#262626;stroke:#262626;stroke-width:0.5;" x="292.911582857" xlink:href="#mb882e58dd6" y="53.91"/>
      </g>
     </g>
    </g>
    <g id="xtick_22">
     <g id="line2d_43">
      <g>
       <use style="fill:#262626;stroke:#262626;stroke-width:0.5;" x="305.804494286" xlink:href="#mb882e58dd6" y="485.19"/>
      </g>
     </g>
     <g id="line2d_44">
      <g>
       <use style="fill:#262626;stroke:#262626;stroke-width:0.5;" x="305.804494286" xlink:href="#mb882e58dd6" y="53.91"/>
      </g>
     </g>
    </g>
    <g id="xtick_23">
     <g id="line2d_45">
      <g>
       <use style="fill:#262626;stroke:#262626;stroke-width:0.5;" x="318.697405714" xlink:href="#mb882e58dd6" y="485.19"/>
      </g>
     </g>
     <g id="line2d_46">
      <g>
       <use style="fill:#262626;stroke:#262626;stroke-width:0.5;" x="318.697405714" xlink:href="#mb882e58dd6" y="53.91"/>
      </g>
     </g>
    </g>
    <g id="xtick_24">
     <g id="line2d_47">
      <g>
       <use style="fill:#262626;stroke:#262626;stroke-width:0.5;" x="331.590317143" xlink:href="#mb882e58dd6" y="485.19"/>
      </g>
     </g>
     <g id="line2d_48">
      <g>
       <use style="fill:#262626;stroke:#262626;stroke-width:0.5;" x="331.590317143" xlink:href="#mb882e58dd6" y="53.91"/>
      </g>
     </g>
    </g>
    <g id="xtick_25">
     <g id="line2d_49">
      <g>
       <use style="fill:#262626;stroke:#262626;stroke-width:0.5;" x="357.37614" xlink:href="#mb882e58dd6" y="485.19"/>
      </g>
     </g>
     <g id="line2d_50">
      <g>
       <use style="fill:#262626;stroke:#262626;stroke-width:0.5;" x="357.37614" xlink:href="#mb882e58dd6" y="53.91"/>
      </g>
     </g>
    </g>
    <g id="xtick_26">
     <g id="line2d_51">
      <g>
       <use style="fill:#262626;stroke:#262626;stroke-width:0.5;" x="370.269051429" xlink:href="#mb882e58dd6" y="485.19"/>
      </g>
     </g>
     <g id="line2d_52">
      <g>
       <use style="fill:#262626;stroke:#262626;stroke-width:0.5;" x="370.269051429" xlink:href="#mb882e58dd6" y="53.91"/>
      </g>
     </g>
    </g>
    <g id="xtick_27">
     <g id="line2d_53">
      <g>
       <use style="fill:#262626;stroke:#262626;stroke-width:0.5;" x="383.161962857" xlink:href="#mb882e58dd6" y="485.19"/>
      </g>
     </g>
     <g id="line2d_54">
      <g>
       <use style="fill:#262626;stroke:#262626;stroke-width:0.5;" x="383.161962857" xlink:href="#mb882e58dd6" y="53.91"/>
      </g>
     </g>
    </g>
    <g id="xtick_28">
     <g id="line2d_55">
      <g>
       <use style="fill:#262626;stroke:#262626;stroke-width:0.5;" x="396.054874286" xlink:href="#mb882e58dd6" y="485.19"/>
      </g>
     </g>
     <g id="line2d_56">
      <g>
       <use style="fill:#262626;stroke:#262626;stroke-width:0.5;" x="396.054874286" xlink:href="#mb882e58dd6" y="53.91"/>
      </g>
     </g>
    </g>
    <g id="xtick_29">
     <g id="line2d_57">
      <g>
       <use style="fill:#262626;stroke:#262626;stroke-width:0.5;" x="421.840697143" xlink:href="#mb882e58dd6" y="485.19"/>
      </g>
     </g>
     <g id="line2d_58">
      <g>
       <use style="fill:#262626;stroke:#262626;stroke-width:0.5;" x="421.840697143" xlink:href="#mb882e58dd6" y="53.91"/>
      </g>
     </g>
    </g>
    <g id="xtick_30">
     <g id="line2d_59">
      <g>
       <use style="fill:#262626;stroke:#262626;stroke-width:0.5;" x="434.733608571" xlink:href="#mb882e58dd6" y="485.19"/>
      </g>
     </g>
     <g id="line2d_60">
      <g>
       <use style="fill:#262626;stroke:#262626;stroke-width:0.5;" x="434.733608571" xlink:href="#mb882e58dd6" y="53.91"/>
      </g>
     </g>
    </g>
    <g id="xtick_31">
     <g id="line2d_61">
      <g>
       <use style="fill:#262626;stroke:#262626;stroke-width:0.5;" x="447.62652" xlink:href="#mb882e58dd6" y="485.19"/>
      </g>
     </g>
     <g id="line2d_62">
      <g>
       <use style="fill:#262626;stroke:#262626;stroke-width:0.5;" x="447.62652" xlink:href="#mb882e58dd6" y="53.91"/>
      </g>
     </g>
    </g>
    <g id="xtick_32">
     <g id="line2d_63">
      <g>
       <use style="fill:#262626;stroke:#262626;stroke-width:0.5;" x="460.519431429" xlink:href="#mb882e58dd6" y="485.19"/>
      </g>
     </g>
     <g id="line2d_64">
      <g>
       <use style="fill:#262626;stroke:#262626;stroke-width:0.5;" x="460.519431429" xlink:href="#mb882e58dd6" y="53.91"/>
      </g>
     </g>
    </g>
    <g id="xtick_33">
     <g id="line2d_65">
      <g>
       <use style="fill:#262626;stroke:#262626;stroke-width:0.5;" x="486.305254286" xlink:href="#mb882e58dd6" y="485.19"/>
      </g>
     </g>
     <g id="line2d_66">
      <g>
       <use style="fill:#262626;stroke:#262626;stroke-width:0.5;" x="486.305254286" xlink:href="#mb882e58dd6" y="53.91"/>
      </g>
     </g>
    </g>
    <g id="xtick_34">
     <g id="line2d_67">
      <g>
       <use style="fill:#262626;stroke:#262626;stroke-width:0.5;" x="499.198165714" xlink:href="#mb882e58dd6" y="485.19"/>
      </g>
     </g>
     <g id="line2d_68">
      <g>
       <use style="fill:#262626;stroke:#262626;stroke-width:0.5;" x="499.198165714" xlink:href="#mb882e58dd6" y="53.91"/>
      </g>
     </g>
    </g>
    <g id="xtick_35">
     <g id="line2d_69">
      <g>
       <use style="fill:#262626;stroke:#262626;stroke-width:0.5;" x="512.091077143" xlink:href="#mb882e58dd6" y="485.19"/>
      </g>
     </g>
     <g id="line2d_70">
      <g>
       <use style="fill:#262626;stroke:#262626;stroke-width:0.5;" x="512.091077143" xlink:href="#mb882e58dd6" y="53.91"/>
      </g>
     </g>
    </g>
    <g id="xtick_36">
     <g id="line2d_71">
      <g>
       <use style="fill:#262626;stroke:#262626;stroke-width:0.5;" x="524.983988571" xlink:href="#mb882e58dd6" y="485.19"/>
      </g>
     </g>
     <g id="line2d_72">
      <g>
       <use style="fill:#262626;stroke:#262626;stroke-width:0.5;" x="524.983988571" xlink:href="#mb882e58dd6" y="53.91"/>
      </g>
     </g>
    </g>
    <g id="text_9">
     <!-- Time (s) -->
     <defs>
      <path id="BitstreamVeraSans-Roman-20"/>
      <path d="M 8.015625 75.875 
L 15.828125 75.875 
Q 23.140625 64.359375 26.78125 53.3125 
Q 30.421875 42.28125 30.421875 31.390625 
Q 30.421875 20.453125 26.78125 9.375 
Q 23.140625 -1.703125 15.828125 -13.1875 
L 8.015625 -13.1875 
Q 14.5 -2 17.703125 9.0625 
Q 20.90625 20.125 20.90625 31.390625 
Q 20.90625 42.671875 17.703125 53.65625 
Q 14.5 64.65625 8.015625 75.875 
" id="BitstreamVeraSans-Roman-29"/>
      <path d="M 31 75.875 
Q 24.46875 64.65625 21.28125 53.65625 
Q 18.109375 42.671875 18.109375 31.390625 
Q 18.109375 20.125 21.3125 9.0625 
Q 24.515625 -2 31 -13.1875 
L 23.1875 -13.1875 
Q 15.875 -1.703125 12.234375 9.375 
Q 8.59375 20.453125 8.59375 31.390625 
Q 8.59375 42.28125 12.203125 53.3125 
Q 15.828125 64.359375 23.1875 75.875 
z
" id="BitstreamVeraSans-Roman-28"/>
      <path d="M 9.421875 54.6875 
L 18.40625 54.6875 
L 18.40625 0 
L 9.421875 0 
z
M 9.421875 75.984375 
L 18.40625 75.984375 
L 18.40625 64.59375 
L 9.421875 64.59375 
z
" id="BitstreamVeraSans-Roman-69"/>
      <path d="M 52 44.1875 
Q 55.375 50.25 60.0625 53.125 
Q 64.75 56 71.09375 56 
Q 79.640625 56 84.28125 50.015625 
Q 88.921875 44.046875 88.921875 33.015625 
L 88.921875 0 
L 79.890625 0 
L 79.890625 32.71875 
Q 79.890625 40.578125 77.09375 44.375 
Q 74.3125 48.1875 68.609375 48.1875 
Q 61.625 48.1875 57.5625 43.546875 
Q 53.515625 38.921875 53.515625 30.90625 
L 53.515625 0 
L 44.484375 0 
L 44.484375 32.71875 
Q 44.484375 40.625 41.703125 44.40625 
Q 38.921875 48.1875 33.109375 48.1875 
Q 26.21875 48.1875 22.15625 43.53125 
Q 18.109375 38.875 18.109375 30.90625 
L 18.109375 0 
L 9.078125 0 
L 9.078125 54.6875 
L 18.109375 54.6875 
L 18.109375 46.1875 
Q 21.1875 51.21875 25.484375 53.609375 
Q 29.78125 56 35.6875 56 
Q 41.65625 56 45.828125 52.96875 
Q 50 49.953125 52 44.1875 
" id="BitstreamVeraSans-Roman-6d"/>
      <path d="M 56.203125 29.59375 
L 56.203125 25.203125 
L 14.890625 25.203125 
Q 15.484375 15.921875 20.484375 11.0625 
Q 25.484375 6.203125 34.421875 6.203125 
Q 39.59375 6.203125 44.453125 7.46875 
Q 49.3125 8.734375 54.109375 11.28125 
L 54.109375 2.78125 
Q 49.265625 0.734375 44.1875 -0.34375 
Q 39.109375 -1.421875 33.890625 -1.421875 
Q 20.796875 -1.421875 13.15625 6.1875 
Q 5.515625 13.8125 5.515625 26.8125 
Q 5.515625 40.234375 12.765625 48.109375 
Q 20.015625 56 32.328125 56 
Q 43.359375 56 49.78125 48.890625 
Q 56.203125 41.796875 56.203125 29.59375 
M 47.21875 32.234375 
Q 47.125 39.59375 43.09375 43.984375 
Q 39.0625 48.390625 32.421875 48.390625 
Q 24.90625 48.390625 20.390625 44.140625 
Q 15.875 39.890625 15.1875 32.171875 
z
" id="BitstreamVeraSans-Roman-65"/>
      <path d="M -0.296875 72.90625 
L 61.375 72.90625 
L 61.375 64.59375 
L 35.5 64.59375 
L 35.5 0 
L 25.59375 0 
L 25.59375 64.59375 
L -0.296875 64.59375 
z
" id="BitstreamVeraSans-Roman-54"/>
      <path d="M 44.28125 53.078125 
L 44.28125 44.578125 
Q 40.484375 46.53125 36.375 47.5 
Q 32.28125 48.484375 27.875 48.484375 
Q 21.1875 48.484375 17.84375 46.4375 
Q 14.5 44.390625 14.5 40.28125 
Q 14.5 37.15625 16.890625 35.375 
Q 19.28125 33.59375 26.515625 31.984375 
L 29.59375 31.296875 
Q 39.15625 29.25 43.1875 25.515625 
Q 47.21875 21.78125 47.21875 15.09375 
Q 47.21875 7.46875 41.1875 3.015625 
Q 35.15625 -1.421875 24.609375 -1.421875 
Q 20.21875 -1.421875 15.453125 -0.5625 
Q 10.6875 0.296875 5.421875 2 
L 5.421875 11.28125 
Q 10.40625 8.6875 15.234375 7.390625 
Q 20.0625 6.109375 24.8125 6.109375 
Q 31.15625 6.109375 34.5625 8.28125 
Q 37.984375 10.453125 37.984375 14.40625 
Q 37.984375 18.0625 35.515625 20.015625 
Q 33.0625 21.96875 24.703125 23.78125 
L 21.578125 24.515625 
Q 13.234375 26.265625 9.515625 29.90625 
Q 5.8125 33.546875 5.8125 39.890625 
Q 5.8125 47.609375 11.28125 51.796875 
Q 16.75 56 26.8125 56 
Q 31.78125 56 36.171875 55.265625 
Q 40.578125 54.546875 44.28125 53.078125 
" id="BitstreamVeraSans-Roman-73"/>
     </defs>
     <g style="fill:#262626;" transform="translate(287.671575 514.921875)scale(0.12 -0.12)">
      <use xlink:href="#BitstreamVeraSans-Roman-54"/>
      <use x="61.037109375" xlink:href="#BitstreamVeraSans-Roman-69"/>
      <use x="88.8203125" xlink:href="#BitstreamVeraSans-Roman-6d"/>
      <use x="186.232421875" xlink:href="#BitstreamVeraSans-Roman-65"/>
      <use x="247.755859375" xlink:href="#BitstreamVeraSans-Roman-20"/>
      <use x="279.54296875" xlink:href="#BitstreamVeraSans-Roman-28"/>
      <use x="318.556640625" xlink:href="#BitstreamVeraSans-Roman-73"/>
      <use x="370.65625" xlink:href="#BitstreamVeraSans-Roman-29"/>
     </g>
    </g>
   </g>
   <g id="matplotlib.axis_2">
    <g id="ytick_1">
     <g id="line2d_73">
      <g>
       <use style="fill:#262626;stroke:#262626;stroke-width:0.5;" x="86.625" xlink:href="#mb882e58dd6" y="457.455930343"/>
      </g>
     </g>
     <g id="text_10">
      <!-- 60 -->
      <g style="fill:#262626;" transform="translate(67.355 460.767180343)scale(0.12 -0.12)">
       <use xlink:href="#BitstreamVeraSans-Roman-36"/>
       <use x="63.623046875" xlink:href="#BitstreamVeraSans-Roman-30"/>
      </g>
     </g>
    </g>
    <g id="ytick_2">
     <g id="line2d_74">
      <g>
       <use style="fill:#262626;stroke:#262626;stroke-width:0.5;" x="86.625" xlink:href="#mb882e58dd6" y="390.1056538"/>
      </g>
     </g>
     <g id="text_11">
      <!-- 80 -->
      <defs>
       <path d="M 31.78125 34.625 
Q 24.75 34.625 20.71875 30.859375 
Q 16.703125 27.09375 16.703125 20.515625 
Q 16.703125 13.921875 20.71875 10.15625 
Q 24.75 6.390625 31.78125 6.390625 
Q 38.8125 6.390625 42.859375 10.171875 
Q 46.921875 13.96875 46.921875 20.515625 
Q 46.921875 27.09375 42.890625 30.859375 
Q 38.875 34.625 31.78125 34.625 
M 21.921875 38.8125 
Q 15.578125 40.375 12.03125 44.71875 
Q 8.5 49.078125 8.5 55.328125 
Q 8.5 64.0625 14.71875 69.140625 
Q 20.953125 74.21875 31.78125 74.21875 
Q 42.671875 74.21875 48.875 69.140625 
Q 55.078125 64.0625 55.078125 55.328125 
Q 55.078125 49.078125 51.53125 44.71875 
Q 48 40.375 41.703125 38.8125 
Q 48.828125 37.15625 52.796875 32.3125 
Q 56.78125 27.484375 56.78125 20.515625 
Q 56.78125 9.90625 50.3125 4.234375 
Q 43.84375 -1.421875 31.78125 -1.421875 
Q 19.734375 -1.421875 13.25 4.234375 
Q 6.78125 9.90625 6.78125 20.515625 
Q 6.78125 27.484375 10.78125 32.3125 
Q 14.796875 37.15625 21.921875 38.8125 
M 18.3125 54.390625 
Q 18.3125 48.734375 21.84375 45.5625 
Q 25.390625 42.390625 31.78125 42.390625 
Q 38.140625 42.390625 41.71875 45.5625 
Q 45.3125 48.734375 45.3125 54.390625 
Q 45.3125 60.0625 41.71875 63.234375 
Q 38.140625 66.40625 31.78125 66.40625 
Q 25.390625 66.40625 21.84375 63.234375 
Q 18.3125 60.0625 18.3125 54.390625 
" id="BitstreamVeraSans-Roman-38"/>
      </defs>
      <g style="fill:#262626;" transform="translate(67.355 393.4169038)scale(0.12 -0.12)">
       <use xlink:href="#BitstreamVeraSans-Roman-38"/>
       <use x="63.623046875" xlink:href="#BitstreamVeraSans-Roman-30"/>
      </g>
     </g>
    </g>
    <g id="ytick_3">
     <g id="line2d_75">
      <g>
       <use style="fill:#262626;stroke:#262626;stroke-width:0.5;" x="86.625" xlink:href="#mb882e58dd6" y="322.755377256"/>
      </g>
     </g>
     <g id="text_12">
      <!-- 100 -->
      <g style="fill:#262626;" transform="translate(59.72 326.066627256)scale(0.12 -0.12)">
       <use xlink:href="#BitstreamVeraSans-Roman-31"/>
       <use x="63.623046875" xlink:href="#BitstreamVeraSans-Roman-30"/>
       <use x="127.24609375" xlink:href="#BitstreamVeraSans-Roman-30"/>
      </g>
     </g>
    </g>
    <g id="ytick_4">
     <g id="line2d_76">
      <g>
       <use style="fill:#262626;stroke:#262626;stroke-width:0.5;" x="86.625" xlink:href="#mb882e58dd6" y="255.405100713"/>
      </g>
     </g>
     <g id="text_13">
      <!-- 120 -->
      <g style="fill:#262626;" transform="translate(59.72 258.716350713)scale(0.12 -0.12)">
       <use xlink:href="#BitstreamVeraSans-Roman-31"/>
       <use x="63.623046875" xlink:href="#BitstreamVeraSans-Roman-32"/>
       <use x="127.24609375" xlink:href="#BitstreamVeraSans-Roman-30"/>
      </g>
     </g>
    </g>
    <g id="ytick_5">
     <g id="line2d_77">
      <g>
       <use style="fill:#262626;stroke:#262626;stroke-width:0.5;" x="86.625" xlink:href="#mb882e58dd6" y="188.054824169"/>
      </g>
     </g>
     <g id="text_14">
      <!-- 140 -->
      <g style="fill:#262626;" transform="translate(59.72 191.366074169)scale(0.12 -0.12)">
       <use xlink:href="#BitstreamVeraSans-Roman-31"/>
       <use x="63.623046875" xlink:href="#BitstreamVeraSans-Roman-34"/>
       <use x="127.24609375" xlink:href="#BitstreamVeraSans-Roman-30"/>
      </g>
     </g>
    </g>
    <g id="ytick_6">
     <g id="line2d_78">
      <g>
       <use style="fill:#262626;stroke:#262626;stroke-width:0.5;" x="86.625" xlink:href="#mb882e58dd6" y="120.704547626"/>
      </g>
     </g>
     <g id="text_15">
      <!-- 160 -->
      <g style="fill:#262626;" transform="translate(59.72 124.015797626)scale(0.12 -0.12)">
       <use xlink:href="#BitstreamVeraSans-Roman-31"/>
       <use x="63.623046875" xlink:href="#BitstreamVeraSans-Roman-36"/>
       <use x="127.24609375" xlink:href="#BitstreamVeraSans-Roman-30"/>
      </g>
     </g>
    </g>
    <g id="ytick_7">
     <g id="line2d_79">
      <g>
       <use style="fill:#262626;stroke:#262626;stroke-width:0.5;" x="86.625" xlink:href="#mb882e58dd6" y="474.293499479"/>
      </g>
     </g>
    </g>
    <g id="ytick_8">
     <g id="line2d_80">
      <g>
       <use style="fill:#262626;stroke:#262626;stroke-width:0.5;" x="86.625" xlink:href="#mb882e58dd6" y="440.618361208"/>
      </g>
     </g>
    </g>
    <g id="ytick_9">
     <g id="line2d_81">
      <g>
       <use style="fill:#262626;stroke:#262626;stroke-width:0.5;" x="86.625" xlink:href="#mb882e58dd6" y="423.780792072"/>
      </g>
     </g>
    </g>
    <g id="ytick_10">
     <g id="line2d_82">
      <g>
       <use style="fill:#262626;stroke:#262626;stroke-width:0.5;" x="86.625" xlink:href="#mb882e58dd6" y="406.943222936"/>
      </g>
     </g>
    </g>
    <g id="ytick_11">
     <g id="line2d_83">
      <g>
       <use style="fill:#262626;stroke:#262626;stroke-width:0.5;" x="86.625" xlink:href="#mb882e58dd6" y="373.268084664"/>
      </g>
     </g>
    </g>
    <g id="ytick_12">
     <g id="line2d_84">
      <g>
       <use style="fill:#262626;stroke:#262626;stroke-width:0.5;" x="86.625" xlink:href="#mb882e58dd6" y="356.430515528"/>
      </g>
     </g>
    </g>
    <g id="ytick_13">
     <g id="line2d_85">
      <g>
       <use style="fill:#262626;stroke:#262626;stroke-width:0.5;" x="86.625" xlink:href="#mb882e58dd6" y="339.592946392"/>
      </g>
     </g>
    </g>
    <g id="ytick_14">
     <g id="line2d_86">
      <g>
       <use style="fill:#262626;stroke:#262626;stroke-width:0.5;" x="86.625" xlink:href="#mb882e58dd6" y="305.91780812"/>
      </g>
     </g>
    </g>
    <g id="ytick_15">
     <g id="line2d_87">
      <g>
       <use style="fill:#262626;stroke:#262626;stroke-width:0.5;" x="86.625" xlink:href="#mb882e58dd6" y="289.080238985"/>
      </g>
     </g>
    </g>
    <g id="ytick_16">
     <g id="line2d_88">
      <g>
       <use style="fill:#262626;stroke:#262626;stroke-width:0.5;" x="86.625" xlink:href="#mb882e58dd6" y="272.242669849"/>
      </g>
     </g>
    </g>
    <g id="ytick_17">
     <g id="line2d_89">
      <g>
       <use style="fill:#262626;stroke:#262626;stroke-width:0.5;" x="86.625" xlink:href="#mb882e58dd6" y="238.567531577"/>
      </g>
     </g>
    </g>
    <g id="ytick_18">
     <g id="line2d_90">
      <g>
       <use style="fill:#262626;stroke:#262626;stroke-width:0.5;" x="86.625" xlink:href="#mb882e58dd6" y="221.729962441"/>
      </g>
     </g>
    </g>
    <g id="ytick_19">
     <g id="line2d_91">
      <g>
       <use style="fill:#262626;stroke:#262626;stroke-width:0.5;" x="86.625" xlink:href="#mb882e58dd6" y="204.892393305"/>
      </g>
     </g>
    </g>
    <g id="ytick_20">
     <g id="line2d_92">
      <g>
       <use style="fill:#262626;stroke:#262626;stroke-width:0.5;" x="86.625" xlink:href="#mb882e58dd6" y="171.217255033"/>
      </g>
     </g>
    </g>
    <g id="ytick_21">
     <g id="line2d_93">
      <g>
       <use style="fill:#262626;stroke:#262626;stroke-width:0.5;" x="86.625" xlink:href="#mb882e58dd6" y="154.379685897"/>
      </g>
     </g>
    </g>
    <g id="ytick_22">
     <g id="line2d_94">
      <g>
       <use style="fill:#262626;stroke:#262626;stroke-width:0.5;" x="86.625" xlink:href="#mb882e58dd6" y="137.542116762"/>
      </g>
     </g>
    </g>
    <g id="ytick_23">
     <g id="line2d_95">
      <g>
       <use style="fill:#262626;stroke:#262626;stroke-width:0.5;" x="86.625" xlink:href="#mb882e58dd6" y="103.86697849"/>
      </g>
     </g>
    </g>
    <g id="ytick_24">
     <g id="line2d_96">
      <g>
       <use style="fill:#262626;stroke:#262626;stroke-width:0.5;" x="86.625" xlink:href="#mb882e58dd6" y="87.0294093539"/>
      </g>
     </g>
    </g>
    <g id="ytick_25">
     <g id="line2d_97">
      <g>
       <use style="fill:#262626;stroke:#262626;stroke-width:0.5;" x="86.625" xlink:href="#mb882e58dd6" y="70.191840218"/>
      </g>
     </g>
    </g>
    <g id="text_16">
     <!-- Mbits/s -->
     <defs>
      <path d="M 18.3125 70.21875 
L 18.3125 54.6875 
L 36.8125 54.6875 
L 36.8125 47.703125 
L 18.3125 47.703125 
L 18.3125 18.015625 
Q 18.3125 11.328125 20.140625 9.421875 
Q 21.96875 7.515625 27.59375 7.515625 
L 36.8125 7.515625 
L 36.8125 0 
L 27.59375 0 
Q 17.1875 0 13.234375 3.875 
Q 9.28125 7.765625 9.28125 18.015625 
L 9.28125 47.703125 
L 2.6875 47.703125 
L 2.6875 54.6875 
L 9.28125 54.6875 
L 9.28125 70.21875 
z
" id="BitstreamVeraSans-Roman-74"/>
      <path d="M 9.8125 72.90625 
L 24.515625 72.90625 
L 43.109375 23.296875 
L 61.8125 72.90625 
L 76.515625 72.90625 
L 76.515625 0 
L 66.890625 0 
L 66.890625 64.015625 
L 48.09375 14.015625 
L 38.1875 14.015625 
L 19.390625 64.015625 
L 19.390625 0 
L 9.8125 0 
z
" id="BitstreamVeraSans-Roman-4d"/>
      <path d="M 25.390625 72.90625 
L 33.6875 72.90625 
L 8.296875 -9.28125 
L 0 -9.28125 
z
" id="BitstreamVeraSans-Roman-2f"/>
      <path d="M 48.6875 27.296875 
Q 48.6875 37.203125 44.609375 42.84375 
Q 40.53125 48.484375 33.40625 48.484375 
Q 26.265625 48.484375 22.1875 42.84375 
Q 18.109375 37.203125 18.109375 27.296875 
Q 18.109375 17.390625 22.1875 11.75 
Q 26.265625 6.109375 33.40625 6.109375 
Q 40.53125 6.109375 44.609375 11.75 
Q 48.6875 17.390625 48.6875 27.296875 
M 18.109375 46.390625 
Q 20.953125 51.265625 25.265625 53.625 
Q 29.59375 56 35.59375 56 
Q 45.5625 56 51.78125 48.09375 
Q 58.015625 40.1875 58.015625 27.296875 
Q 58.015625 14.40625 51.78125 6.484375 
Q 45.5625 -1.421875 35.59375 -1.421875 
Q 29.59375 -1.421875 25.265625 0.953125 
Q 20.953125 3.328125 18.109375 8.203125 
L 18.109375 0 
L 9.078125 0 
L 9.078125 75.984375 
L 18.109375 75.984375 
z
" id="BitstreamVeraSans-Roman-62"/>
     </defs>
     <g style="fill:#262626;" transform="translate(52.224375 290.8275)rotate(-90.0)scale(0.12 -0.12)">
      <use xlink:href="#BitstreamVeraSans-Roman-4d"/>
      <use x="86.279296875" xlink:href="#BitstreamVeraSans-Roman-62"/>
      <use x="149.755859375" xlink:href="#BitstreamVeraSans-Roman-69"/>
      <use x="177.5390625" xlink:href="#BitstreamVeraSans-Roman-74"/>
      <use x="216.748046875" xlink:href="#BitstreamVeraSans-Roman-73"/>
      <use x="268.84765625" xlink:href="#BitstreamVeraSans-Roman-2f"/>
      <use x="302.5390625" xlink:href="#BitstreamVeraSans-Roman-73"/>
     </g>
    </g>
   </g>
   <g id="line2d_98">
    <path clip-path="url(#pe419784d48)" d="M 120.14657 130.773414 
L 121.435861 62.071921 
L 122.725152 107.971463 
L 124.014443 115.933515 
L 125.303734 132.379988 
L 126.593025 132.289987 
L 127.882317 124.031936 
L 129.171608 124.794908 
L 130.460899 141.911361 
L 131.75019 126.170408 
L 133.039481 136.837614 
L 134.328772 115.185215 
L 135.618063 135.529296 
L 136.907355 147.754473 
L 138.196646 142.409315 
L 139.485937 113.5266 
L 140.775228 141.326587 
L 142.064519 86.110811 
L 143.35381 160.248227 
L 144.643101 157.334383 
L 145.932393 117.051538 
L 147.221684 109.062414 
L 148.510975 135.141349 
L 149.800266 101.515419 
L 151.089557 161.300865 
L 152.378848 96.209832 
L 153.668139 134.501149 
L 154.957431 113.630055 
L 156.246722 144.432557 
L 157.536013 126.358415 
L 158.825304 126.756563 
L 160.114595 119.759002 
L 161.403886 104.271913 
L 162.693177 114.191245 
L 163.982469 112.882464 
L 165.27176 106.806703 
L 166.561051 148.617214 
L 167.850342 120.322376 
L 169.139633 144.114847 
L 170.428924 112.652329 
L 171.718215 139.130108 
L 173.007507 140.691886 
L 174.296798 131.099764 
L 175.586089 118.359802 
L 176.87538 135.11397 
L 178.164671 121.098161 
L 179.453962 135.146902 
L 180.743253 133.026996 
L 182.032545 112.536095 
L 183.321836 128.703925 
L 184.611127 137.595096 
L 185.900418 117.104935 
L 187.189709 123.522759 
L 188.479 144.269626 
L 189.768291 135.108811 
L 191.057583 114.548077 
L 192.346874 118.24401 
L 193.636165 129.319735 
L 196.214747 114.146356 
L 197.504038 126.096345 
L 198.793329 109.679567 
L 200.082621 135.00328 
L 201.371912 134.23765 
L 202.661203 124.438252 
L 203.950494 139.356794 
L 205.239785 123.900305 
L 206.529076 99.851335 
L 207.818367 134.418372 
L 209.107659 129.582752 
L 210.39695 119.60292 
L 211.686241 126.142353 
L 212.975532 120.414201 
L 214.264823 110.356939 
L 215.554114 122.226076 
L 216.843405 137.179177 
L 218.132697 130.020825 
L 219.421988 118.983191 
L 220.711279 118.049346 
L 222.00057 128.885491 
L 223.289861 126.299229 
L 224.579152 116.07866 
L 225.868443 107.208624 
L 227.157735 118.502505 
L 228.447026 127.385975 
L 229.736317 124.590682 
L 231.025608 124.997437 
L 232.314899 110.695493 
L 233.60419 94.609279 
L 234.893481 159.12887 
L 236.182773 108.772264 
L 237.472064 109.955892 
L 238.761355 114.752056 
L 240.050646 111.632663 
L 241.339937 125.570306 
L 242.629228 158.821817 
L 245.207811 124.374457 
L 246.497102 93.607084 
L 247.786393 115.222749 
L 249.075684 125.408497 
L 250.364975 132.552301 
L 251.654266 151.024202 
L 252.943557 118.970383 
L 254.232849 138.634213 
L 255.52214 112.901446 
L 256.811431 105.174705 
L 258.100722 119.331748 
L 259.390013 148.852056 
L 260.679304 128.264696 
L 261.968595 115.563529 
L 263.257887 123.033937 
L 264.547178 146.005488 
L 265.836469 106.001294 
L 267.12576 127.917012 
L 268.415051 134.271123 
L 269.704342 123.483284 
L 270.993633 109.290897 
L 272.282925 114.466275 
L 274.861507 150.714514 
L 276.150798 127.241546 
L 277.440089 131.266166 
L 278.72938 134.374117 
L 280.018671 112.207586 
L 281.307963 119.507632 
L 282.597254 124.746528 
L 283.886545 132.750173 
L 285.175836 116.581607 
L 286.465127 138.595237 
L 287.754418 171.339769 
L 289.043709 58.138235 
L 290.333001 104.497453 
L 291.622292 165.258017 
L 292.911583 115.023905 
L 294.200874 145.261651 
L 295.490165 150.570774 
L 296.779456 137.901441 
L 298.068747 131.955112 
L 299.358039 127.275672 
L 300.64733 132.474014 
L 301.936621 131.800494 
L 303.225912 137.910143 
L 304.515203 121.075034 
L 305.804494 165.987232 
L 307.093785 145.458862 
L 308.383077 120.608485 
L 309.672368 122.412039 
L 310.961659 148.998519 
L 312.25095 125.111245 
L 313.540241 118.371007 
L 314.829532 132.899063 
L 316.118823 130.335552 
L 318.697406 140.555255 
L 319.986697 144.968866 
L 321.275988 154.029278 
L 322.565279 123.303437 
L 323.85457 137.314239 
L 325.143861 113.379577 
L 326.433153 142.335 
L 327.722444 125.385188 
L 329.011735 130.983244 
L 330.301026 189.903843 
L 331.590317 124.220437 
L 332.879608 129.287306 
L 334.168899 118.20634 
L 335.458191 127.058883 
L 336.747482 139.47787 
L 338.036773 137.010446 
L 339.326064 122.221213 
L 340.615355 128.186373 
L 341.904646 141.558465 
L 343.193937 136.196372 
L 344.483229 132.229927 
L 345.77252 134.125568 
L 347.061811 135.172172 
L 348.351102 127.705936 
L 349.640393 131.211588 
L 350.929684 129.537827 
L 352.218975 117.955932 
L 353.508267 138.738977 
L 354.797558 130.772335 
L 356.086849 153.429316 
L 357.37614 141.399625 
L 358.665431 125.057126 
L 359.954722 133.525913 
L 361.244013 124.696354 
L 362.533305 121.759733 
L 363.822596 128.240279 
L 365.111887 145.56767 
L 366.401178 111.821751 
L 367.690469 153.569014 
L 368.97976 137.48832 
L 370.269051 149.298394 
L 371.558343 130.7235 
L 372.847634 128.730837 
L 374.136925 131.288217 
L 375.426216 155.390809 
L 376.715507 130.35876 
L 378.004798 130.869647 
L 379.294089 129.636846 
L 380.583381 144.773028 
L 381.872672 146.091642 
L 383.161963 134.620267 
L 384.451254 147.118927 
L 385.740545 133.203471 
L 387.029836 126.807487 
L 388.319127 109.189318 
L 389.608419 141.86219 
L 390.89771 139.029605 
L 392.187001 114.166252 
L 393.476292 165.941367 
L 394.765583 114.991706 
L 396.054874 138.133745 
L 397.344165 148.70144 
L 398.633457 128.567111 
L 399.922748 121.355717 
L 401.212039 143.744711 
L 402.50133 141.488345 
L 403.790621 127.11286 
L 405.079912 133.580197 
L 406.369203 127.759975 
L 407.658495 132.102713 
L 408.947786 116.673377 
L 410.237077 127.151939 
L 411.526368 147.293106 
L 412.815659 126.922065 
L 414.10495 120.432854 
L 415.394241 117.686628 
L 416.683533 134.666911 
L 417.972824 154.927239 
L 419.262115 134.654015 
L 420.551406 117.314807 
L 421.840697 145.310374 
L 423.129988 126.726604 
L 424.419279 121.901874 
L 425.708571 154.346999 
L 426.997862 130.460157 
L 428.287153 116.647839 
L 429.576444 142.677651 
L 432.155026 145.250532 
L 433.444317 120.864277 
L 434.733609 114.174828 
L 436.0229 155.093449 
L 437.312191 135.993379 
L 438.601482 126.201134 
L 439.890773 121.345274 
L 441.180064 147.623033 
L 442.469355 134.439575 
L 443.758647 111.677902 
L 445.047938 116.099215 
L 446.337229 188.666582 
L 447.62652 345.265693 
L 448.915811 320.849131 
L 450.205102 277.468782 
L 451.494393 209.623602 
L 452.783685 412.296351 
L 454.072976 364.949068 
L 455.362267 254.220096 
L 456.651558 281.240145 
L 457.940849 382.484815 
L 459.23014 271.483933 
L 460.519431 264.757949 
L 461.808723 353.176751 
L 463.098014 175.420858 
L 464.387305 234.149053 
L 465.676596 305.233903 
L 468.255178 201.542337 
L 469.544469 370.815623 
L 470.833761 197.146926 
L 472.123052 217.388152 
L 473.412343 401.316154 
L 474.701634 166.611495 
L 475.990925 350.329062 
L 477.280216 312.780838 
L 478.569507 396.899053 
L 479.858799 424.321306 
L 481.14809 323.370265 
L 482.437381 111.637302 
L 483.726672 420.203998 
L 485.015963 348.730861 
L 486.305254 187.72751 
L 487.594545 326.427371 
L 488.883837 283.032619 
L 490.173128 390.232061 
L 491.462419 370.718573 
L 492.75171 379.651772 
L 494.041001 352.142346 
L 495.330292 373.505526 
L 496.619583 426.499491 
L 497.908875 467.821744 
L 499.198166 385.958373 
L 500.487457 239.135863 
L 501.776748 480.961765 
L 503.066039 399.574418 
L 504.35533 325.45515 
L 505.644621 451.899321 
L 506.933913 480.018273 
L 506.933913 480.018273 
" style="fill:none;stroke:#1b9e77;stroke-linecap:round;"/>
   </g>
   <g id="patch_3">
    <path d="M 86.625 53.91 
L 537.8769 53.91 
" style="fill:none;"/>
   </g>
   <g id="patch_4">
    <path d="M 537.8769 485.19 
L 537.8769 53.91 
" style="fill:none;"/>
   </g>
   <g id="patch_5">
    <path d="M 86.625 485.19 
L 537.8769 485.19 
" style="fill:none;"/>
   </g>
   <g id="patch_6">
    <path d="M 86.625 485.19 
L 86.625 53.91 
" style="fill:none;"/>
   </g>
   <g id="legend_1">
    <g id="line2d_99">
     <path d="M 591.513009 62.005198 
L 611.505009 62.005198 
" style="fill:none;stroke:#1b9e77;stroke-linecap:round;"/>
    </g>
    <g id="line2d_100"/>
    <g id="text_17">
     <!-- Download -->
     <defs>
      <path d="M 54.890625 33.015625 
L 54.890625 0 
L 45.90625 0 
L 45.90625 32.71875 
Q 45.90625 40.484375 42.875 44.328125 
Q 39.84375 48.1875 33.796875 48.1875 
Q 26.515625 48.1875 22.3125 43.546875 
Q 18.109375 38.921875 18.109375 30.90625 
L 18.109375 0 
L 9.078125 0 
L 9.078125 54.6875 
L 18.109375 54.6875 
L 18.109375 46.1875 
Q 21.34375 51.125 25.703125 53.5625 
Q 30.078125 56 35.796875 56 
Q 45.21875 56 50.046875 50.171875 
Q 54.890625 44.34375 54.890625 33.015625 
" id="BitstreamVeraSans-Roman-6e"/>
      <path d="M 30.609375 48.390625 
Q 23.390625 48.390625 19.1875 42.75 
Q 14.984375 37.109375 14.984375 27.296875 
Q 14.984375 17.484375 19.15625 11.84375 
Q 23.34375 6.203125 30.609375 6.203125 
Q 37.796875 6.203125 41.984375 11.859375 
Q 46.1875 17.53125 46.1875 27.296875 
Q 46.1875 37.015625 41.984375 42.703125 
Q 37.796875 48.390625 30.609375 48.390625 
M 30.609375 56 
Q 42.328125 56 49.015625 48.375 
Q 55.71875 40.765625 55.71875 27.296875 
Q 55.71875 13.875 49.015625 6.21875 
Q 42.328125 -1.421875 30.609375 -1.421875 
Q 18.84375 -1.421875 12.171875 6.21875 
Q 5.515625 13.875 5.515625 27.296875 
Q 5.515625 40.765625 12.171875 48.375 
Q 18.84375 56 30.609375 56 
" id="BitstreamVeraSans-Roman-6f"/>
      <path d="M 9.421875 75.984375 
L 18.40625 75.984375 
L 18.40625 0 
L 9.421875 0 
z
" id="BitstreamVeraSans-Roman-6c"/>
      <path d="M 19.671875 64.796875 
L 19.671875 8.109375 
L 31.59375 8.109375 
Q 46.6875 8.109375 53.6875 14.9375 
Q 60.6875 21.78125 60.6875 36.53125 
Q 60.6875 51.171875 53.6875 57.984375 
Q 46.6875 64.796875 31.59375 64.796875 
z
M 9.8125 72.90625 
L 30.078125 72.90625 
Q 51.265625 72.90625 61.171875 64.09375 
Q 71.09375 55.28125 71.09375 36.53125 
Q 71.09375 17.671875 61.125 8.828125 
Q 51.171875 0 30.078125 0 
L 9.8125 0 
z
" id="BitstreamVeraSans-Roman-44"/>
      <path d="M 45.40625 46.390625 
L 45.40625 75.984375 
L 54.390625 75.984375 
L 54.390625 0 
L 45.40625 0 
L 45.40625 8.203125 
Q 42.578125 3.328125 38.25 0.953125 
Q 33.9375 -1.421875 27.875 -1.421875 
Q 17.96875 -1.421875 11.734375 6.484375 
Q 5.515625 14.40625 5.515625 27.296875 
Q 5.515625 40.1875 11.734375 48.09375 
Q 17.96875 56 27.875 56 
Q 33.9375 56 38.25 53.625 
Q 42.578125 51.265625 45.40625 46.390625 
M 14.796875 27.296875 
Q 14.796875 17.390625 18.875 11.75 
Q 22.953125 6.109375 30.078125 6.109375 
Q 37.203125 6.109375 41.296875 11.75 
Q 45.40625 17.390625 45.40625 27.296875 
Q 45.40625 37.203125 41.296875 42.84375 
Q 37.203125 48.484375 30.078125 48.484375 
Q 22.953125 48.484375 18.875 42.84375 
Q 14.796875 37.203125 14.796875 27.296875 
" id="BitstreamVeraSans-Roman-64"/>
      <path d="M 4.203125 54.6875 
L 13.1875 54.6875 
L 24.421875 12.015625 
L 35.59375 54.6875 
L 46.1875 54.6875 
L 57.421875 12.015625 
L 68.609375 54.6875 
L 77.59375 54.6875 
L 63.28125 0 
L 52.6875 0 
L 40.921875 44.828125 
L 29.109375 0 
L 18.5 0 
z
" id="BitstreamVeraSans-Roman-77"/>
      <path d="M 34.28125 27.484375 
Q 23.390625 27.484375 19.1875 25 
Q 14.984375 22.515625 14.984375 16.5 
Q 14.984375 11.71875 18.140625 8.90625 
Q 21.296875 6.109375 26.703125 6.109375 
Q 34.1875 6.109375 38.703125 11.40625 
Q 43.21875 16.703125 43.21875 25.484375 
L 43.21875 27.484375 
z
M 52.203125 31.203125 
L 52.203125 0 
L 43.21875 0 
L 43.21875 8.296875 
Q 40.140625 3.328125 35.546875 0.953125 
Q 30.953125 -1.421875 24.3125 -1.421875 
Q 15.921875 -1.421875 10.953125 3.296875 
Q 6 8.015625 6 15.921875 
Q 6 25.140625 12.171875 29.828125 
Q 18.359375 34.515625 30.609375 34.515625 
L 43.21875 34.515625 
L 43.21875 35.40625 
Q 43.21875 41.609375 39.140625 45 
Q 35.0625 48.390625 27.6875 48.390625 
Q 23 48.390625 18.546875 47.265625 
Q 14.109375 46.140625 10.015625 43.890625 
L 10.015625 52.203125 
Q 14.9375 54.109375 19.578125 55.046875 
Q 24.21875 56 28.609375 56 
Q 40.484375 56 46.34375 49.84375 
Q 52.203125 43.703125 52.203125 31.203125 
" id="BitstreamVeraSans-Roman-61"/>
     </defs>
     <g style="fill:#262626;" transform="translate(619.501809 65.503798125)scale(0.09996 -0.09996)">
      <use xlink:href="#BitstreamVeraSans-Roman-44"/>
      <use x="77.001953125" xlink:href="#BitstreamVeraSans-Roman-6f"/>
      <use x="138.18359375" xlink:href="#BitstreamVeraSans-Roman-77"/>
      <use x="219.970703125" xlink:href="#BitstreamVeraSans-Roman-6e"/>
      <use x="283.349609375" xlink:href="#BitstreamVeraSans-Roman-6c"/>
      <use x="311.1328125" xlink:href="#BitstreamVeraSans-Roman-6f"/>
      <use x="372.314453125" xlink:href="#BitstreamVeraSans-Roman-61"/>
      <use x="433.59375" xlink:href="#BitstreamVeraSans-Roman-64"/>
     </g>
    </g>
    <g id="line2d_101">
     <path d="M 591.513009 76.677452 
L 611.505009 76.677452 
" style="fill:none;stroke:#d95f02;stroke-linecap:round;"/>
    </g>
    <g id="line2d_102"/>
    <g id="text_18">
     <!-- Ping (ms) -->
     <defs>
      <path d="M 19.671875 64.796875 
L 19.671875 37.40625 
L 32.078125 37.40625 
Q 38.96875 37.40625 42.71875 40.96875 
Q 46.484375 44.53125 46.484375 51.125 
Q 46.484375 57.671875 42.71875 61.234375 
Q 38.96875 64.796875 32.078125 64.796875 
z
M 9.8125 72.90625 
L 32.078125 72.90625 
Q 44.34375 72.90625 50.609375 67.359375 
Q 56.890625 61.8125 56.890625 51.125 
Q 56.890625 40.328125 50.609375 34.8125 
Q 44.34375 29.296875 32.078125 29.296875 
L 19.671875 29.296875 
L 19.671875 0 
L 9.8125 0 
z
" id="BitstreamVeraSans-Roman-50"/>
      <path d="M 45.40625 27.984375 
Q 45.40625 37.75 41.375 43.109375 
Q 37.359375 48.484375 30.078125 48.484375 
Q 22.859375 48.484375 18.828125 43.109375 
Q 14.796875 37.75 14.796875 27.984375 
Q 14.796875 18.265625 18.828125 12.890625 
Q 22.859375 7.515625 30.078125 7.515625 
Q 37.359375 7.515625 41.375 12.890625 
Q 45.40625 18.265625 45.40625 27.984375 
M 54.390625 6.78125 
Q 54.390625 -7.171875 48.1875 -13.984375 
Q 42 -20.796875 29.203125 -20.796875 
Q 24.46875 -20.796875 20.265625 -20.09375 
Q 16.0625 -19.390625 12.109375 -17.921875 
L 12.109375 -9.1875 
Q 16.0625 -11.328125 19.921875 -12.34375 
Q 23.78125 -13.375 27.78125 -13.375 
Q 36.625 -13.375 41.015625 -8.765625 
Q 45.40625 -4.15625 45.40625 5.171875 
L 45.40625 9.625 
Q 42.625 4.78125 38.28125 2.390625 
Q 33.9375 0 27.875 0 
Q 17.828125 0 11.671875 7.65625 
Q 5.515625 15.328125 5.515625 27.984375 
Q 5.515625 40.671875 11.671875 48.328125 
Q 17.828125 56 27.875 56 
Q 33.9375 56 38.28125 53.609375 
Q 42.625 51.21875 45.40625 46.390625 
L 45.40625 54.6875 
L 54.390625 54.6875 
z
" id="BitstreamVeraSans-Roman-67"/>
     </defs>
     <g style="fill:#262626;" transform="translate(619.501809 80.176051875)scale(0.09996 -0.09996)">
      <use xlink:href="#BitstreamVeraSans-Roman-50"/>
      <use x="60.271484375" xlink:href="#BitstreamVeraSans-Roman-69"/>
      <use x="88.0546875" xlink:href="#BitstreamVeraSans-Roman-6e"/>
      <use x="151.43359375" xlink:href="#BitstreamVeraSans-Roman-67"/>
      <use x="214.91015625" xlink:href="#BitstreamVeraSans-Roman-20"/>
      <use x="246.697265625" xlink:href="#BitstreamVeraSans-Roman-28"/>
      <use x="285.7109375" xlink:href="#BitstreamVeraSans-Roman-6d"/>
      <use x="383.123046875" xlink:href="#BitstreamVeraSans-Roman-73"/>
      <use x="435.22265625" xlink:href="#BitstreamVeraSans-Roman-29"/>
     </g>
    </g>
   </g>
  </g>
  <g id="axes_2">
   <g id="matplotlib.axis_3">
    <g id="ytick_26">
     <g id="line2d_103">
      <g>
       <use style="fill:#262626;stroke:#262626;stroke-width:0.5;" x="537.8769" xlink:href="#mb882e58dd6" y="482.439847236"/>
      </g>
     </g>
     <g id="text_19">
      <!-- 0 -->
      <g style="fill:#262626;" transform="translate(541.8769 485.751097236)scale(0.12 -0.12)">
       <use xlink:href="#BitstreamVeraSans-Roman-30"/>
      </g>
     </g>
    </g>
    <g id="ytick_27">
     <g id="line2d_104">
      <g>
       <use style="fill:#262626;stroke:#262626;stroke-width:0.5;" x="537.8769" xlink:href="#mb882e58dd6" y="370.695411857"/>
      </g>
     </g>
     <g id="text_20">
      <!-- 50 -->
      <g style="fill:#262626;" transform="translate(541.8769 374.006661857)scale(0.12 -0.12)">
       <use xlink:href="#BitstreamVeraSans-Roman-35"/>
       <use x="63.623046875" xlink:href="#BitstreamVeraSans-Roman-30"/>
      </g>
     </g>
    </g>
    <g id="ytick_28">
     <g id="line2d_105">
      <g>
       <use style="fill:#262626;stroke:#262626;stroke-width:0.5;" x="537.8769" xlink:href="#mb882e58dd6" y="258.950976479"/>
      </g>
     </g>
     <g id="text_21">
      <!-- 100 -->
      <g style="fill:#262626;" transform="translate(541.8769 262.262226479)scale(0.12 -0.12)">
       <use xlink:href="#BitstreamVeraSans-Roman-31"/>
       <use x="63.623046875" xlink:href="#BitstreamVeraSans-Roman-30"/>
       <use x="127.24609375" xlink:href="#BitstreamVeraSans-Roman-30"/>
      </g>
     </g>
    </g>
    <g id="ytick_29">
     <g id="line2d_106">
      <g>
       <use style="fill:#262626;stroke:#262626;stroke-width:0.5;" x="537.8769" xlink:href="#mb882e58dd6" y="147.2065411"/>
      </g>
     </g>
     <g id="text_22">
      <!-- 150 -->
      <g style="fill:#262626;" transform="translate(541.8769 150.5177911)scale(0.12 -0.12)">
       <use xlink:href="#BitstreamVeraSans-Roman-31"/>
       <use x="63.623046875" xlink:href="#BitstreamVeraSans-Roman-35"/>
       <use x="127.24609375" xlink:href="#BitstreamVeraSans-Roman-30"/>
      </g>
     </g>
    </g>
    <g id="ytick_30">
     <g id="line2d_107">
      <g>
       <use style="fill:#262626;stroke:#262626;stroke-width:0.5;" x="537.8769" xlink:href="#mb882e58dd6" y="460.09096016"/>
      </g>
     </g>
    </g>
    <g id="ytick_31">
     <g id="line2d_108">
      <g>
       <use style="fill:#262626;stroke:#262626;stroke-width:0.5;" x="537.8769" xlink:href="#mb882e58dd6" y="437.742073084"/>
      </g>
     </g>
    </g>
    <g id="ytick_32">
     <g id="line2d_109">
      <g>
       <use style="fill:#262626;stroke:#262626;stroke-width:0.5;" x="537.8769" xlink:href="#mb882e58dd6" y="415.393186009"/>
      </g>
     </g>
    </g>
    <g id="ytick_33">
     <g id="line2d_110">
      <g>
       <use style="fill:#262626;stroke:#262626;stroke-width:0.5;" x="537.8769" xlink:href="#mb882e58dd6" y="393.044298933"/>
      </g>
     </g>
    </g>
    <g id="ytick_34">
     <g id="line2d_111">
      <g>
       <use style="fill:#262626;stroke:#262626;stroke-width:0.5;" x="537.8769" xlink:href="#mb882e58dd6" y="348.346524782"/>
      </g>
     </g>
    </g>
    <g id="ytick_35">
     <g id="line2d_112">
      <g>
       <use style="fill:#262626;stroke:#262626;stroke-width:0.5;" x="537.8769" xlink:href="#mb882e58dd6" y="325.997637706"/>
      </g>
     </g>
    </g>
    <g id="ytick_36">
     <g id="line2d_113">
      <g>
       <use style="fill:#262626;stroke:#262626;stroke-width:0.5;" x="537.8769" xlink:href="#mb882e58dd6" y="303.64875063"/>
      </g>
     </g>
    </g>
    <g id="ytick_37">
     <g id="line2d_114">
      <g>
       <use style="fill:#262626;stroke:#262626;stroke-width:0.5;" x="537.8769" xlink:href="#mb882e58dd6" y="281.299863555"/>
      </g>
     </g>
    </g>
    <g id="ytick_38">
     <g id="line2d_115">
      <g>
       <use style="fill:#262626;stroke:#262626;stroke-width:0.5;" x="537.8769" xlink:href="#mb882e58dd6" y="236.602089403"/>
      </g>
     </g>
    </g>
    <g id="ytick_39">
     <g id="line2d_116">
      <g>
       <use style="fill:#262626;stroke:#262626;stroke-width:0.5;" x="537.8769" xlink:href="#mb882e58dd6" y="214.253202327"/>
      </g>
     </g>
    </g>
    <g id="ytick_40">
     <g id="line2d_117">
      <g>
       <use style="fill:#262626;stroke:#262626;stroke-width:0.5;" x="537.8769" xlink:href="#mb882e58dd6" y="191.904315252"/>
      </g>
     </g>
    </g>
    <g id="ytick_41">
     <g id="line2d_118">
      <g>
       <use style="fill:#262626;stroke:#262626;stroke-width:0.5;" x="537.8769" xlink:href="#mb882e58dd6" y="169.555428176"/>
      </g>
     </g>
    </g>
    <g id="ytick_42">
     <g id="line2d_119">
      <g>
       <use style="fill:#262626;stroke:#262626;stroke-width:0.5;" x="537.8769" xlink:href="#mb882e58dd6" y="124.857654025"/>
      </g>
     </g>
    </g>
    <g id="ytick_43">
     <g id="line2d_120">
      <g>
       <use style="fill:#262626;stroke:#262626;stroke-width:0.5;" x="537.8769" xlink:href="#mb882e58dd6" y="102.508766949"/>
      </g>
     </g>
    </g>
    <g id="ytick_44">
     <g id="line2d_121">
      <g>
       <use style="fill:#262626;stroke:#262626;stroke-width:0.5;" x="537.8769" xlink:href="#mb882e58dd6" y="80.1598798732"/>
      </g>
     </g>
    </g>
    <g id="ytick_45">
     <g id="line2d_122">
      <g>
       <use style="fill:#262626;stroke:#262626;stroke-width:0.5;" x="537.8769" xlink:href="#mb882e58dd6" y="57.8109927975"/>
      </g>
     </g>
    </g>
    <g id="text_23">
     <!-- ms -->
     <g style="fill:#262626;" transform="translate(578.900025 278.52)rotate(-90.0)scale(0.12 -0.12)">
      <use xlink:href="#BitstreamVeraSans-Roman-6d"/>
      <use x="97.412109375" xlink:href="#BitstreamVeraSans-Roman-73"/>
     </g>
    </g>
   </g>
   <g id="line2d_123">
    <path clip-path="url(#pe419784d48)" d="M 86.625 480.696634 
L 89.203582 480.830553 
L 90.492873 479.940798 
L 91.782165 480.805111 
L 93.071456 480.786115 
L 95.650038 480.942236 
L 96.939329 480.654036 
L 99.517911 480.874448 
L 102.096494 480.675024 
L 103.385785 479.814974 
L 104.675076 480.663006 
L 105.964367 480.894898 
L 107.253658 480.765605 
L 108.542949 480.895697 
L 109.832241 478.599592 
L 111.121532 480.769995 
L 112.410823 480.764469 
L 114.989405 480.410165 
L 116.278696 480.624929 
L 118.857279 480.827196 
L 120.14657 467.142101 
L 121.435861 459.708918 
L 122.725152 467.304443 
L 124.014443 467.525671 
L 125.303734 469.503516 
L 126.593025 470.524813 
L 127.882317 469.029602 
L 129.171608 465.611513 
L 130.460899 471.62634 
L 131.75019 467.384025 
L 133.039481 464.336704 
L 134.328772 472.991921 
L 135.618063 473.3919 
L 136.907355 470.730288 
L 138.196646 474.720677 
L 139.485937 469.681239 
L 140.775228 463.90185 
L 142.064519 471.676784 
L 143.35381 469.419614 
L 144.643101 472.877744 
L 145.932393 470.917406 
L 147.221684 473.216362 
L 148.510975 469.638358 
L 149.800266 468.411749 
L 151.089557 470.670457 
L 152.378848 465.722118 
L 153.668139 470.450489 
L 154.957431 465.261065 
L 156.246722 470.137784 
L 157.536013 468.874083 
L 158.825304 466.110543 
L 160.114595 452.797185 
L 161.403886 461.65156 
L 162.693177 451.134828 
L 163.982469 460.890146 
L 165.27176 446.177387 
L 166.561051 464.369297 
L 167.850342 449.553595 
L 169.139633 439.33225 
L 170.428924 457.784736 
L 171.718215 466.405534 
L 173.007507 460.022556 
L 175.586089 466.045317 
L 176.87538 459.189521 
L 178.164671 454.571177 
L 179.453962 464.90162 
L 180.743253 455.311381 
L 182.032545 448.433585 
L 183.321836 469.242076 
L 184.611127 469.593545 
L 185.900418 465.553092 
L 187.189709 470.543741 
L 188.479 469.48781 
L 189.768291 468.776272 
L 191.057583 465.202325 
L 192.346874 472.359294 
L 193.636165 471.118336 
L 194.925456 468.679424 
L 196.214747 466.511365 
L 197.504038 469.211804 
L 198.793329 467.528575 
L 200.082621 473.212135 
L 201.371912 463.072724 
L 202.661203 468.459926 
L 203.950494 467.189724 
L 205.239785 464.622752 
L 206.529076 470.107283 
L 207.818367 466.701838 
L 209.107659 468.731348 
L 210.39695 465.336981 
L 212.975532 470.561233 
L 214.264823 475.481491 
L 215.554114 470.590044 
L 216.843405 470.11987 
L 218.132697 474.041636 
L 219.421988 468.992291 
L 220.711279 465.403011 
L 222.00057 466.705796 
L 224.579152 464.995614 
L 225.868443 467.001421 
L 227.157735 466.027877 
L 228.447026 466.164522 
L 229.736317 470.966026 
L 231.025608 474.472098 
L 232.314899 470.788698 
L 233.60419 457.498963 
L 234.893481 455.737716 
L 236.182773 441.922159 
L 237.472064 459.526674 
L 238.761355 465.883076 
L 240.050646 449.958624 
L 241.339937 464.063813 
L 243.918519 434.493899 
L 245.207811 432.181699 
L 246.497102 438.5875 
L 247.786393 461.590157 
L 249.075684 464.101397 
L 250.364975 462.730727 
L 251.654266 461.042649 
L 252.943557 466.028895 
L 254.232849 456.094283 
L 255.52214 458.483579 
L 256.811431 458.49145 
L 258.100722 458.67435 
L 259.390013 455.989061 
L 260.679304 467.399658 
L 261.968595 469.697125 
L 263.257887 465.242136 
L 264.547178 468.673834 
L 267.12576 458.074619 
L 268.415051 452.115532 
L 269.704342 472.883129 
L 270.993633 444.606927 
L 272.282925 460.487103 
L 273.572216 473.025558 
L 274.861507 473.371249 
L 276.150798 467.533082 
L 277.440089 465.80482 
L 280.018671 467.874756 
L 281.307963 470.130741 
L 282.597254 466.590056 
L 283.886545 466.012179 
L 285.175836 455.8589 
L 286.465127 466.208918 
L 287.754418 418.038524 
L 289.043709 453.649508 
L 290.333001 469.16134 
L 291.622292 466.70863 
L 292.911583 470.269592 
L 294.200874 471.09036 
L 295.490165 470.326554 
L 296.779456 468.804558 
L 298.068747 470.36802 
L 299.358039 473.5867 
L 300.64733 468.325934 
L 301.936621 466.570884 
L 303.225912 470.18065 
L 304.515203 472.902191 
L 305.804494 466.479184 
L 307.093785 471.03 
L 308.383077 468.521335 
L 309.672368 467.212953 
L 310.961659 456.128842 
L 312.25095 455.266286 
L 313.540241 447.458361 
L 316.118823 463.405541 
L 317.408115 464.847083 
L 318.697406 459.687673 
L 319.986697 462.386272 
L 321.275988 460.901023 
L 322.565279 460.242651 
L 323.85457 443.083327 
L 325.143861 459.035356 
L 326.433153 466.233547 
L 327.722444 461.122715 
L 329.011735 459.12111 
L 330.301026 452.646997 
L 331.590317 459.899408 
L 332.879608 462.079019 
L 334.168899 452.700944 
L 335.458191 464.178577 
L 336.747482 464.657957 
L 338.036773 449.571352 
L 339.326064 460.756813 
L 340.615355 473.271848 
L 341.904646 471.77852 
L 343.193937 474.372737 
L 344.483229 472.42138 
L 345.77252 470.843036 
L 347.061811 469.750954 
L 348.351102 470.708699 
L 349.640393 467.740295 
L 350.929684 465.273694 
L 353.508267 474.125601 
L 354.797558 468.736807 
L 356.086849 469.684273 
L 357.37614 470.468797 
L 358.665431 472.209204 
L 359.954722 474.978003 
L 361.244013 468.727517 
L 362.533305 466.084026 
L 363.822596 472.183452 
L 365.111887 472.716394 
L 366.401178 469.179761 
L 367.690469 468.058752 
L 368.97976 469.67941 
L 370.269051 471.541429 
L 371.558343 471.225915 
L 372.847634 467.191653 
L 374.136925 472.071464 
L 375.426216 473.107423 
L 376.715507 469.538533 
L 378.004798 471.406552 
L 379.294089 470.012938 
L 380.583381 466.833143 
L 381.872672 469.64845 
L 383.161963 468.080283 
L 384.451254 467.085328 
L 385.740545 467.648773 
L 387.029836 466.00216 
L 388.319127 469.209634 
L 389.608419 467.081545 
L 390.89771 446.86403 
L 392.187001 448.009592 
L 393.476292 443.589107 
L 394.765583 451.768301 
L 396.054874 465.448285 
L 397.344165 467.105575 
L 398.633457 465.755057 
L 401.212039 463.716029 
L 402.50133 455.454807 
L 403.790621 458.469496 
L 405.079912 459.50187 
L 406.369203 458.171371 
L 407.658495 464.855483 
L 408.947786 462.364897 
L 410.237077 461.352016 
L 411.526368 445.297749 
L 412.815659 448.228999 
L 414.10495 458.142115 
L 415.394241 471.503935 
L 416.683533 474.10388 
L 417.972824 475.026958 
L 419.262115 468.856753 
L 420.551406 467.676349 
L 421.840697 465.228561 
L 423.129988 470.458748 
L 424.419279 470.323252 
L 425.708571 464.835001 
L 426.997862 468.462486 
L 428.287153 473.302255 
L 430.865735 467.854011 
L 432.155026 471.734436 
L 433.444317 474.647414 
L 434.733609 474.617219 
L 436.0229 469.424 
L 437.312191 468.70806 
L 438.601482 472.88659 
L 439.890773 471.555842 
L 441.180064 472.200463 
L 442.469355 471.437005 
L 443.758647 472.011487 
L 445.047938 469.438834 
L 446.337229 356.801909 
L 447.62652 279.6794 
L 448.915811 446.266765 
L 450.205102 417.835839 
L 451.494393 280.040284 
L 452.783685 75.748263 
L 454.072976 296.955505 
L 455.362267 164.188165 
L 456.651558 294.641329 
L 457.940849 249.898231 
L 459.23014 328.774533 
L 460.519431 254.083602 
L 461.808723 72.135677 
L 463.098014 272.121353 
L 464.387305 179.19957 
L 465.676596 290.786903 
L 466.965887 138.347214 
L 468.255178 249.344137 
L 469.544469 86.476279 
L 470.833761 306.299409 
L 472.123052 253.017681 
L 473.412343 112.304118 
L 474.701634 348.627475 
L 475.990925 348.052728 
L 477.280216 240.871424 
L 478.569507 70.051508 
L 479.858799 276.717364 
L 481.14809 126.186412 
L 482.437381 318.619129 
L 483.726672 282.197453 
L 485.015963 363.052882 
L 486.305254 277.212763 
L 487.594545 116.376417 
L 488.883837 274.228482 
L 490.173128 110.191813 
L 491.462419 298.811455 
L 492.75171 267.925816 
L 494.041001 321.734821 
L 495.330292 227.011409 
L 496.619583 61.622711 
L 497.908875 220.447971 
L 499.198166 122.875498 
L 500.487457 282.761186 
L 501.776748 187.023941 
L 503.066039 58.138235 
L 504.35533 221.32602 
L 505.644621 78.272581 
L 506.933913 351.236765 
L 508.223204 424.211451 
L 509.512495 480.647045 
L 510.801786 364.41517 
L 512.091077 292.419769 
L 513.380368 425.526668 
L 514.669659 444.641862 
L 515.958951 480.676975 
L 517.248242 425.933074 
L 518.537533 444.578588 
L 519.826824 480.741332 
L 521.116115 389.206894 
L 522.405406 384.149826 
L 523.694697 480.534335 
L 527.562571 480.627817 
L 528.851862 480.591769 
L 530.141153 480.723964 
L 531.430444 480.662639 
L 534.009027 480.753837 
L 535.298318 480.780402 
L 536.587609 480.961765 
L 536.587609 480.961765 
" style="fill:none;stroke:#d95f02;stroke-linecap:round;"/>
   </g>
  </g>
  <g id="text_24">
   <!-- TCP download - N streams w/ping -->
   <defs>
    <path d="M 41.109375 46.296875 
Q 39.59375 47.171875 37.8125 47.578125 
Q 36.03125 48 33.890625 48 
Q 26.265625 48 22.1875 43.046875 
Q 18.109375 38.09375 18.109375 28.8125 
L 18.109375 0 
L 9.078125 0 
L 9.078125 54.6875 
L 18.109375 54.6875 
L 18.109375 46.1875 
Q 20.953125 51.171875 25.484375 53.578125 
Q 30.03125 56 36.53125 56 
Q 37.453125 56 38.578125 55.875 
Q 39.703125 55.765625 41.0625 55.515625 
z
" id="BitstreamVeraSans-Roman-72"/>
    <path d="M 9.8125 72.90625 
L 23.09375 72.90625 
L 55.421875 11.921875 
L 55.421875 72.90625 
L 64.984375 72.90625 
L 64.984375 0 
L 51.703125 0 
L 19.390625 60.984375 
L 19.390625 0 
L 9.8125 0 
z
" id="BitstreamVeraSans-Roman-4e"/>
    <path d="M 64.40625 67.28125 
L 64.40625 56.890625 
Q 59.421875 61.53125 53.78125 63.8125 
Q 48.140625 66.109375 41.796875 66.109375 
Q 29.296875 66.109375 22.65625 58.46875 
Q 16.015625 50.828125 16.015625 36.375 
Q 16.015625 21.96875 22.65625 14.328125 
Q 29.296875 6.6875 41.796875 6.6875 
Q 48.140625 6.6875 53.78125 8.984375 
Q 59.421875 11.28125 64.40625 15.921875 
L 64.40625 5.609375 
Q 59.234375 2.09375 53.4375 0.328125 
Q 47.65625 -1.421875 41.21875 -1.421875 
Q 24.65625 -1.421875 15.125 8.703125 
Q 5.609375 18.84375 5.609375 36.375 
Q 5.609375 53.953125 15.125 64.078125 
Q 24.65625 74.21875 41.21875 74.21875 
Q 47.75 74.21875 53.53125 72.484375 
Q 59.328125 70.75 64.40625 67.28125 
" id="BitstreamVeraSans-Roman-43"/>
    <path d="M 4.890625 31.390625 
L 31.203125 31.390625 
L 31.203125 23.390625 
L 4.890625 23.390625 
z
" id="BitstreamVeraSans-Roman-2d"/>
    <path d="M 18.109375 8.203125 
L 18.109375 -20.796875 
L 9.078125 -20.796875 
L 9.078125 54.6875 
L 18.109375 54.6875 
L 18.109375 46.390625 
Q 20.953125 51.265625 25.265625 53.625 
Q 29.59375 56 35.59375 56 
Q 45.5625 56 51.78125 48.09375 
Q 58.015625 40.1875 58.015625 27.296875 
Q 58.015625 14.40625 51.78125 6.484375 
Q 45.5625 -1.421875 35.59375 -1.421875 
Q 29.59375 -1.421875 25.265625 0.953125 
Q 20.953125 3.328125 18.109375 8.203125 
M 48.6875 27.296875 
Q 48.6875 37.203125 44.609375 42.84375 
Q 40.53125 48.484375 33.40625 48.484375 
Q 26.265625 48.484375 22.1875 42.84375 
Q 18.109375 37.203125 18.109375 27.296875 
Q 18.109375 17.390625 22.1875 11.75 
Q 26.265625 6.109375 33.40625 6.109375 
Q 40.53125 6.109375 44.609375 11.75 
Q 48.6875 17.390625 48.6875 27.296875 
" id="BitstreamVeraSans-Roman-70"/>
   </defs>
   <g style="fill:#262626;" transform="translate(228.70640625 10.6378125)scale(0.14 -0.14)">
    <use xlink:href="#BitstreamVeraSans-Roman-54"/>
    <use x="61.005859375" xlink:href="#BitstreamVeraSans-Roman-43"/>
    <use x="130.830078125" xlink:href="#BitstreamVeraSans-Roman-50"/>
    <use x="191.1328125" xlink:href="#BitstreamVeraSans-Roman-20"/>
    <use x="222.919921875" xlink:href="#BitstreamVeraSans-Roman-64"/>
    <use x="286.396484375" xlink:href="#BitstreamVeraSans-Roman-6f"/>
    <use x="347.578125" xlink:href="#BitstreamVeraSans-Roman-77"/>
    <use x="429.365234375" xlink:href="#BitstreamVeraSans-Roman-6e"/>
    <use x="492.744140625" xlink:href="#BitstreamVeraSans-Roman-6c"/>
    <use x="520.52734375" xlink:href="#BitstreamVeraSans-Roman-6f"/>
    <use x="581.708984375" xlink:href="#BitstreamVeraSans-Roman-61"/>
    <use x="642.98828125" xlink:href="#BitstreamVeraSans-Roman-64"/>
    <use x="706.46484375" xlink:href="#BitstreamVeraSans-Roman-20"/>
    <use x="738.251953125" xlink:href="#BitstreamVeraSans-Roman-2d"/>
    <use x="774.3359375" xlink:href="#BitstreamVeraSans-Roman-20"/>
    <use x="806.123046875" xlink:href="#BitstreamVeraSans-Roman-4e"/>
    <use x="880.927734375" xlink:href="#BitstreamVeraSans-Roman-20"/>
    <use x="912.71484375" xlink:href="#BitstreamVeraSans-Roman-73"/>
    <use x="964.814453125" xlink:href="#BitstreamVeraSans-Roman-74"/>
    <use x="1004.0234375" xlink:href="#BitstreamVeraSans-Roman-72"/>
    <use x="1045.10546875" xlink:href="#BitstreamVeraSans-Roman-65"/>
    <use x="1106.62890625" xlink:href="#BitstreamVeraSans-Roman-61"/>
    <use x="1167.90820312" xlink:href="#BitstreamVeraSans-Roman-6d"/>
    <use x="1265.3203125" xlink:href="#BitstreamVeraSans-Roman-73"/>
    <use x="1317.41992188" xlink:href="#BitstreamVeraSans-Roman-20"/>
    <use x="1349.20703125" xlink:href="#BitstreamVeraSans-Roman-77"/>
    <use x="1430.99414062" xlink:href="#BitstreamVeraSans-Roman-2f"/>
    <use x="1464.68554688" xlink:href="#BitstreamVeraSans-Roman-70"/>
    <use x="1528.16210938" xlink:href="#BitstreamVeraSans-Roman-69"/>
    <use x="1555.9453125" xlink:href="#BitstreamVeraSans-Roman-6e"/>
    <use x="1619.32421875" xlink:href="#BitstreamVeraSans-Roman-67"/>
   </g>
   <!-- Bandwidth and ping plot -->
   <defs>
    <path d="M 19.671875 34.8125 
L 19.671875 8.109375 
L 35.5 8.109375 
Q 43.453125 8.109375 47.28125 11.40625 
Q 51.125 14.703125 51.125 21.484375 
Q 51.125 28.328125 47.28125 31.5625 
Q 43.453125 34.8125 35.5 34.8125 
z
M 19.671875 64.796875 
L 19.671875 42.828125 
L 34.28125 42.828125 
Q 41.5 42.828125 45.03125 45.53125 
Q 48.578125 48.25 48.578125 53.8125 
Q 48.578125 59.328125 45.03125 62.0625 
Q 41.5 64.796875 34.28125 64.796875 
z
M 9.8125 72.90625 
L 35.015625 72.90625 
Q 46.296875 72.90625 52.390625 68.21875 
Q 58.5 63.53125 58.5 54.890625 
Q 58.5 48.1875 55.375 44.234375 
Q 52.25 40.28125 46.1875 39.3125 
Q 53.46875 37.75 57.5 32.78125 
Q 61.53125 27.828125 61.53125 20.40625 
Q 61.53125 10.640625 54.890625 5.3125 
Q 48.25 0 35.984375 0 
L 9.8125 0 
z
" id="BitstreamVeraSans-Roman-42"/>
    <path d="M 54.890625 33.015625 
L 54.890625 0 
L 45.90625 0 
L 45.90625 32.71875 
Q 45.90625 40.484375 42.875 44.328125 
Q 39.84375 48.1875 33.796875 48.1875 
Q 26.515625 48.1875 22.3125 43.546875 
Q 18.109375 38.921875 18.109375 30.90625 
L 18.109375 0 
L 9.078125 0 
L 9.078125 75.984375 
L 18.109375 75.984375 
L 18.109375 46.1875 
Q 21.34375 51.125 25.703125 53.5625 
Q 30.078125 56 35.796875 56 
Q 45.21875 56 50.046875 50.171875 
Q 54.890625 44.34375 54.890625 33.015625 
" id="BitstreamVeraSans-Roman-68"/>
   </defs>
   <g style="fill:#262626;" transform="translate(260.70515625 26.31475)scale(0.14 -0.14)">
    <use xlink:href="#BitstreamVeraSans-Roman-42"/>
    <use x="68.603515625" xlink:href="#BitstreamVeraSans-Roman-61"/>
    <use x="129.8828125" xlink:href="#BitstreamVeraSans-Roman-6e"/>
    <use x="193.26171875" xlink:href="#BitstreamVeraSans-Roman-64"/>
    <use x="256.73828125" xlink:href="#BitstreamVeraSans-Roman-77"/>
    <use x="338.525390625" xlink:href="#BitstreamVeraSans-Roman-69"/>
    <use x="366.30859375" xlink:href="#BitstreamVeraSans-Roman-64"/>
    <use x="429.78515625" xlink:href="#BitstreamVeraSans-Roman-74"/>
    <use x="468.994140625" xlink:href="#BitstreamVeraSans-Roman-68"/>
    <use x="532.373046875" xlink:href="#BitstreamVeraSans-Roman-20"/>
    <use x="564.16015625" xlink:href="#BitstreamVeraSans-Roman-61"/>
    <use x="625.439453125" xlink:href="#BitstreamVeraSans-Roman-6e"/>
    <use x="688.818359375" xlink:href="#BitstreamVeraSans-Roman-64"/>
    <use x="752.294921875" xlink:href="#BitstreamVeraSans-Roman-20"/>
    <use x="784.08203125" xlink:href="#BitstreamVeraSans-Roman-70"/>
    <use x="847.55859375" xlink:href="#BitstreamVeraSans-Roman-69"/>
    <use x="875.341796875" xlink:href="#BitstreamVeraSans-Roman-6e"/>
    <use x="938.720703125" xlink:href="#BitstreamVeraSans-Roman-67"/>
    <use x="1002.19726562" xlink:href="#BitstreamVeraSans-Roman-20"/>
    <use x="1033.984375" xlink:href="#BitstreamVeraSans-Roman-70"/>
    <use x="1097.4609375" xlink:href="#BitstreamVeraSans-Roman-6c"/>
    <use x="1125.24414062" xlink:href="#BitstreamVeraSans-Roman-6f"/>
    <use x="1186.42578125" xlink:href="#BitstreamVeraSans-Roman-74"/>
   </g>
   <!-- newap -->
   <g style="fill:#262626;" transform="translate(323.29828125 41.9916875)scale(0.14 -0.14)">
    <use xlink:href="#BitstreamVeraSans-Roman-6e"/>
    <use x="63.37890625" xlink:href="#BitstreamVeraSans-Roman-65"/>
    <use x="124.90234375" xlink:href="#BitstreamVeraSans-Roman-77"/>
    <use x="206.689453125" xlink:href="#BitstreamVeraSans-Roman-61"/>
    <use x="267.96875" xlink:href="#BitstreamVeraSans-Roman-70"/>
   </g>
  </g>
  <g id="text_25">
   <!-- Local/remote: nemesis/172.22.128.1 - Time: 2016-09-06T19:58:43.114077 - Length/step: 60s/0.20s -->
   <defs>
    <path d="M 10.6875 12.40625 
L 21 12.40625 
L 21 0 
L 10.6875 0 
z
" id="BitstreamVeraSans-Roman-2e"/>
    <path d="M 10.984375 1.515625 
L 10.984375 10.5 
Q 14.703125 8.734375 18.5 7.8125 
Q 22.3125 6.890625 25.984375 6.890625 
Q 35.75 6.890625 40.890625 13.453125 
Q 46.046875 20.015625 46.78125 33.40625 
Q 43.953125 29.203125 39.59375 26.953125 
Q 35.25 24.703125 29.984375 24.703125 
Q 19.046875 24.703125 12.671875 31.3125 
Q 6.296875 37.9375 6.296875 49.421875 
Q 6.296875 60.640625 12.9375 67.421875 
Q 19.578125 74.21875 30.609375 74.21875 
Q 43.265625 74.21875 49.921875 64.515625 
Q 56.59375 54.828125 56.59375 36.375 
Q 56.59375 19.140625 48.40625 8.859375 
Q 40.234375 -1.421875 26.421875 -1.421875 
Q 22.703125 -1.421875 18.890625 -0.6875 
Q 15.09375 0.046875 10.984375 1.515625 
M 30.609375 32.421875 
Q 37.25 32.421875 41.125 36.953125 
Q 45.015625 41.5 45.015625 49.421875 
Q 45.015625 57.28125 41.125 61.84375 
Q 37.25 66.40625 30.609375 66.40625 
Q 23.96875 66.40625 20.09375 61.84375 
Q 16.21875 57.28125 16.21875 49.421875 
Q 16.21875 41.5 20.09375 36.953125 
Q 23.96875 32.421875 30.609375 32.421875 
" id="BitstreamVeraSans-Roman-39"/>
    <path d="M 11.71875 12.40625 
L 22.015625 12.40625 
L 22.015625 0 
L 11.71875 0 
z
M 11.71875 51.703125 
L 22.015625 51.703125 
L 22.015625 39.3125 
L 11.71875 39.3125 
z
" id="BitstreamVeraSans-Roman-3a"/>
    <path d="M 9.8125 72.90625 
L 19.671875 72.90625 
L 19.671875 8.296875 
L 55.171875 8.296875 
L 55.171875 0 
L 9.8125 0 
z
" id="BitstreamVeraSans-Roman-4c"/>
    <path d="M 48.78125 52.59375 
L 48.78125 44.1875 
Q 44.96875 46.296875 41.140625 47.34375 
Q 37.3125 48.390625 33.40625 48.390625 
Q 24.65625 48.390625 19.8125 42.84375 
Q 14.984375 37.3125 14.984375 27.296875 
Q 14.984375 17.28125 19.8125 11.734375 
Q 24.65625 6.203125 33.40625 6.203125 
Q 37.3125 6.203125 41.140625 7.25 
Q 44.96875 8.296875 48.78125 10.40625 
L 48.78125 2.09375 
Q 45.015625 0.34375 40.984375 -0.53125 
Q 36.96875 -1.421875 32.421875 -1.421875 
Q 20.0625 -1.421875 12.78125 6.34375 
Q 5.515625 14.109375 5.515625 27.296875 
Q 5.515625 40.671875 12.859375 48.328125 
Q 20.21875 56 33.015625 56 
Q 37.15625 56 41.109375 55.140625 
Q 45.0625 54.296875 48.78125 52.59375 
" id="BitstreamVeraSans-Roman-63"/>
   </defs>
   <g style="fill:#262626;" transform="translate(146.2275 537.43625)scale(0.08 -0.08)">
    <use xlink:href="#BitstreamVeraSans-Roman-4c"/>
    <use x="55.697265625" xlink:href="#BitstreamVeraSans-Roman-6f"/>
    <use x="116.87890625" xlink:href="#BitstreamVeraSans-Roman-63"/>
    <use x="171.859375" xlink:href="#BitstreamVeraSans-Roman-61"/>
    <use x="233.138671875" xlink:href="#BitstreamVeraSans-Roman-6c"/>
    <use x="260.921875" xlink:href="#BitstreamVeraSans-Roman-2f"/>
    <use x="294.61328125" xlink:href="#BitstreamVeraSans-Roman-72"/>
    <use x="335.6953125" xlink:href="#BitstreamVeraSans-Roman-65"/>
    <use x="397.21875" xlink:href="#BitstreamVeraSans-Roman-6d"/>
    <use x="494.630859375" xlink:href="#BitstreamVeraSans-Roman-6f"/>
    <use x="555.8125" xlink:href="#BitstreamVeraSans-Roman-74"/>
    <use x="595.021484375" xlink:href="#BitstreamVeraSans-Roman-65"/>
    <use x="656.544921875" xlink:href="#BitstreamVeraSans-Roman-3a"/>
    <use x="690.236328125" xlink:href="#BitstreamVeraSans-Roman-20"/>
    <use x="722.0234375" xlink:href="#BitstreamVeraSans-Roman-6e"/>
    <use x="785.40234375" xlink:href="#BitstreamVeraSans-Roman-65"/>
    <use x="846.92578125" xlink:href="#BitstreamVeraSans-Roman-6d"/>
    <use x="944.337890625" xlink:href="#BitstreamVeraSans-Roman-65"/>
    <use x="1005.86132812" xlink:href="#BitstreamVeraSans-Roman-73"/>
    <use x="1057.9609375" xlink:href="#BitstreamVeraSans-Roman-69"/>
    <use x="1085.74414062" xlink:href="#BitstreamVeraSans-Roman-73"/>
    <use x="1137.84375" xlink:href="#BitstreamVeraSans-Roman-2f"/>
    <use x="1171.53515625" xlink:href="#BitstreamVeraSans-Roman-31"/>
    <use x="1235.15820312" xlink:href="#BitstreamVeraSans-Roman-37"/>
    <use x="1298.78125" xlink:href="#BitstreamVeraSans-Roman-32"/>
    <use x="1362.40429688" xlink:href="#BitstreamVeraSans-Roman-2e"/>
    <use x="1394.19140625" xlink:href="#BitstreamVeraSans-Roman-32"/>
    <use x="1457.81445312" xlink:href="#BitstreamVeraSans-Roman-32"/>
    <use x="1521.4375" xlink:href="#BitstreamVeraSans-Roman-2e"/>
    <use x="1553.22460938" xlink:href="#BitstreamVeraSans-Roman-31"/>
    <use x="1616.84765625" xlink:href="#BitstreamVeraSans-Roman-32"/>
    <use x="1680.47070312" xlink:href="#BitstreamVeraSans-Roman-38"/>
    <use x="1744.09375" xlink:href="#BitstreamVeraSans-Roman-2e"/>
    <use x="1775.88085938" xlink:href="#BitstreamVeraSans-Roman-31"/>
    <use x="1839.50390625" xlink:href="#BitstreamVeraSans-Roman-20"/>
    <use x="1871.29101562" xlink:href="#BitstreamVeraSans-Roman-2d"/>
    <use x="1907.375" xlink:href="#BitstreamVeraSans-Roman-20"/>
    <use x="1939.16210938" xlink:href="#BitstreamVeraSans-Roman-54"/>
    <use x="2000.19921875" xlink:href="#BitstreamVeraSans-Roman-69"/>
    <use x="2027.98242188" xlink:href="#BitstreamVeraSans-Roman-6d"/>
    <use x="2125.39453125" xlink:href="#BitstreamVeraSans-Roman-65"/>
    <use x="2186.91796875" xlink:href="#BitstreamVeraSans-Roman-3a"/>
    <use x="2220.609375" xlink:href="#BitstreamVeraSans-Roman-20"/>
    <use x="2252.39648438" xlink:href="#BitstreamVeraSans-Roman-32"/>
    <use x="2316.01953125" xlink:href="#BitstreamVeraSans-Roman-30"/>
    <use x="2379.64257812" xlink:href="#BitstreamVeraSans-Roman-31"/>
    <use x="2443.265625" xlink:href="#BitstreamVeraSans-Roman-36"/>
    <use x="2506.88867188" xlink:href="#BitstreamVeraSans-Roman-2d"/>
    <use x="2542.97265625" xlink:href="#BitstreamVeraSans-Roman-30"/>
    <use x="2606.59570312" xlink:href="#BitstreamVeraSans-Roman-39"/>
    <use x="2670.21875" xlink:href="#BitstreamVeraSans-Roman-2d"/>
    <use x="2706.30273438" xlink:href="#BitstreamVeraSans-Roman-30"/>
    <use x="2769.92578125" xlink:href="#BitstreamVeraSans-Roman-36"/>
    <use x="2833.54882812" xlink:href="#BitstreamVeraSans-Roman-54"/>
    <use x="2894.6328125" xlink:href="#BitstreamVeraSans-Roman-31"/>
    <use x="2958.25585938" xlink:href="#BitstreamVeraSans-Roman-39"/>
    <use x="3021.87890625" xlink:href="#BitstreamVeraSans-Roman-3a"/>
    <use x="3055.5703125" xlink:href="#BitstreamVeraSans-Roman-35"/>
    <use x="3119.19335938" xlink:href="#BitstreamVeraSans-Roman-38"/>
    <use x="3182.81640625" xlink:href="#BitstreamVeraSans-Roman-3a"/>
    <use x="3216.5078125" xlink:href="#BitstreamVeraSans-Roman-34"/>
    <use x="3280.13085938" xlink:href="#BitstreamVeraSans-Roman-33"/>
    <use x="3343.75390625" xlink:href="#BitstreamVeraSans-Roman-2e"/>
    <use x="3375.54101562" xlink:href="#BitstreamVeraSans-Roman-31"/>
    <use x="3439.1640625" xlink:href="#BitstreamVeraSans-Roman-31"/>
    <use x="3502.78710938" xlink:href="#BitstreamVeraSans-Roman-34"/>
    <use x="3566.41015625" xlink:href="#BitstreamVeraSans-Roman-30"/>
    <use x="3630.03320312" xlink:href="#BitstreamVeraSans-Roman-37"/>
    <use x="3693.65625" xlink:href="#BitstreamVeraSans-Roman-37"/>
    <use x="3757.27929688" xlink:href="#BitstreamVeraSans-Roman-20"/>
    <use x="3789.06640625" xlink:href="#BitstreamVeraSans-Roman-2d"/>
    <use x="3825.15039062" xlink:href="#BitstreamVeraSans-Roman-20"/>
    <use x="3856.9375" xlink:href="#BitstreamVeraSans-Roman-4c"/>
    <use x="3912.63476562" xlink:href="#BitstreamVeraSans-Roman-65"/>
    <use x="3974.15820312" xlink:href="#BitstreamVeraSans-Roman-6e"/>
    <use x="4037.53710938" xlink:href="#BitstreamVeraSans-Roman-67"/>
    <use x="4101.01367188" xlink:href="#BitstreamVeraSans-Roman-74"/>
    <use x="4140.22265625" xlink:href="#BitstreamVeraSans-Roman-68"/>
    <use x="4203.6015625" xlink:href="#BitstreamVeraSans-Roman-2f"/>
    <use x="4237.29296875" xlink:href="#BitstreamVeraSans-Roman-73"/>
    <use x="4289.39257812" xlink:href="#BitstreamVeraSans-Roman-74"/>
    <use x="4328.6015625" xlink:href="#BitstreamVeraSans-Roman-65"/>
    <use x="4390.125" xlink:href="#BitstreamVeraSans-Roman-70"/>
    <use x="4453.6015625" xlink:href="#BitstreamVeraSans-Roman-3a"/>
    <use x="4487.29296875" xlink:href="#BitstreamVeraSans-Roman-20"/>
    <use x="4519.08007812" xlink:href="#BitstreamVeraSans-Roman-36"/>
    <use x="4582.703125" xlink:href="#BitstreamVeraSans-Roman-30"/>
    <use x="4646.32617188" xlink:href="#BitstreamVeraSans-Roman-73"/>
    <use x="4698.42578125" xlink:href="#BitstreamVeraSans-Roman-2f"/>
    <use x="4732.1171875" xlink:href="#BitstreamVeraSans-Roman-30"/>
    <use x="4795.74023438" xlink:href="#BitstreamVeraSans-Roman-2e"/>
    <use x="4827.52734375" xlink:href="#BitstreamVeraSans-Roman-32"/>
    <use x="4891.15039062" xlink:href="#BitstreamVeraSans-Roman-30"/>
    <use x="4954.7734375" xlink:href="#BitstreamVeraSans-Roman-73"/>
   </g>
  </g>
 </g>
 <defs>
  <clipPath id="pe419784d48">
   <rect height="431.28" width="451.2519" x="86.625" y="53.91"/>
  </clipPath>
 </defs>
</svg>
