<?xml version="1.0" encoding="utf-8" standalone="no"?>
<!DOCTYPE svg PUBLIC "-//W3C//DTD SVG 1.1//EN"
  "http://www.w3.org/Graphics/SVG/1.1/DTD/svg11.dtd">
<!-- Created with matplotlib (http://matplotlib.org/) -->
<svg height="539pt" version="1.1" viewBox="0 0 1387 539" width="1387pt" xmlns="http://www.w3.org/2000/svg" xmlns:xlink="http://www.w3.org/1999/xlink">
 <defs>
  <style type="text/css">
*{stroke-linecap:butt;stroke-linejoin:round;stroke-miterlimit:100000;}
  </style>
 </defs>
 <g id="figure_1">
  <g id="patch_1">
   <path d="M 0 539.1 
L 1387.8 539.1 
L 1387.8 0 
L 0 0 
z
" style="fill:#ffffff;"/>
  </g>
  <g id="axes_1">
   <g id="patch_2">
    <path d="M 62.451 485.7291 
L 830.1249 485.7291 
L 830.1249 53.91 
L 62.451 53.91 
z
" style="fill:#eaeaf2;"/>
   </g>
   <g id="matplotlib.axis_1">
    <g id="xtick_1">
     <g id="line2d_1">
      <defs>
       <path d="M 0 0 
L 0 0 
" id="m2a9e34465b" style="stroke:#262626;stroke-width:0.5;"/>
      </defs>
      <g>
       <use style="fill:#262626;stroke:#262626;stroke-width:0.5;" x="62.451" xlink:href="#m2a9e34465b" y="485.7291"/>
      </g>
     </g>
     <g id="line2d_2">
      <g>
       <use style="fill:#262626;stroke:#262626;stroke-width:0.5;" x="62.451" xlink:href="#m2a9e34465b" y="53.91"/>
      </g>
     </g>
     <g id="text_1">
      <!-- 0 -->
      <defs>
       <path d="M 31.78125 66.40625 
Q 24.171875 66.40625 20.328125 58.90625 
Q 16.5 51.421875 16.5 36.375 
Q 16.5 21.390625 20.328125 13.890625 
Q 24.171875 6.390625 31.78125 6.390625 
Q 39.453125 6.390625 43.28125 13.890625 
Q 47.125 21.390625 47.125 36.375 
Q 47.125 51.421875 43.28125 58.90625 
Q 39.453125 66.40625 31.78125 66.40625 
M 31.78125 74.21875 
Q 44.046875 74.21875 50.515625 64.515625 
Q 56.984375 54.828125 56.984375 36.375 
Q 56.984375 17.96875 50.515625 8.265625 
Q 44.046875 -1.421875 31.78125 -1.421875 
Q 19.53125 -1.421875 13.0625 8.265625 
Q 6.59375 17.96875 6.59375 36.375 
Q 6.59375 54.828125 13.0625 64.515625 
Q 19.53125 74.21875 31.78125 74.21875 
" id="BitstreamVeraSans-Roman-30"/>
      </defs>
      <g style="fill:#262626;" transform="translate(58.6335 498.847225)scale(0.12 -0.12)">
       <use xlink:href="#BitstreamVeraSans-Roman-30"/>
      </g>
     </g>
    </g>
    <g id="xtick_2">
     <g id="line2d_3">
      <g>
       <use style="fill:#262626;stroke:#262626;stroke-width:0.5;" x="232.290358407" xlink:href="#m2a9e34465b" y="485.7291"/>
      </g>
     </g>
     <g id="line2d_4">
      <g>
       <use style="fill:#262626;stroke:#262626;stroke-width:0.5;" x="232.290358407" xlink:href="#m2a9e34465b" y="53.91"/>
      </g>
     </g>
     <g id="text_2">
      <!-- 10 -->
      <defs>
       <path d="M 12.40625 8.296875 
L 28.515625 8.296875 
L 28.515625 63.921875 
L 10.984375 60.40625 
L 10.984375 69.390625 
L 28.421875 72.90625 
L 38.28125 72.90625 
L 38.28125 8.296875 
L 54.390625 8.296875 
L 54.390625 0 
L 12.40625 0 
z
" id="BitstreamVeraSans-Roman-31"/>
      </defs>
      <g style="fill:#262626;" transform="translate(224.655358407 498.847225)scale(0.12 -0.12)">
       <use xlink:href="#BitstreamVeraSans-Roman-31"/>
       <use x="63.623046875" xlink:href="#BitstreamVeraSans-Roman-30"/>
      </g>
     </g>
    </g>
    <g id="xtick_3">
     <g id="line2d_5">
      <g>
       <use style="fill:#262626;stroke:#262626;stroke-width:0.5;" x="402.129716814" xlink:href="#m2a9e34465b" y="485.7291"/>
      </g>
     </g>
     <g id="line2d_6">
      <g>
       <use style="fill:#262626;stroke:#262626;stroke-width:0.5;" x="402.129716814" xlink:href="#m2a9e34465b" y="53.91"/>
      </g>
     </g>
     <g id="text_3">
      <!-- 20 -->
      <defs>
       <path d="M 19.1875 8.296875 
L 53.609375 8.296875 
L 53.609375 0 
L 7.328125 0 
L 7.328125 8.296875 
Q 12.9375 14.109375 22.625 23.890625 
Q 32.328125 33.6875 34.8125 36.53125 
Q 39.546875 41.84375 41.421875 45.53125 
Q 43.3125 49.21875 43.3125 52.78125 
Q 43.3125 58.59375 39.234375 62.25 
Q 35.15625 65.921875 28.609375 65.921875 
Q 23.96875 65.921875 18.8125 64.3125 
Q 13.671875 62.703125 7.8125 59.421875 
L 7.8125 69.390625 
Q 13.765625 71.78125 18.9375 73 
Q 24.125 74.21875 28.421875 74.21875 
Q 39.75 74.21875 46.484375 68.546875 
Q 53.21875 62.890625 53.21875 53.421875 
Q 53.21875 48.921875 51.53125 44.890625 
Q 49.859375 40.875 45.40625 35.40625 
Q 44.1875 33.984375 37.640625 27.21875 
Q 31.109375 20.453125 19.1875 8.296875 
" id="BitstreamVeraSans-Roman-32"/>
      </defs>
      <g style="fill:#262626;" transform="translate(394.494716814 498.847225)scale(0.12 -0.12)">
       <use xlink:href="#BitstreamVeraSans-Roman-32"/>
       <use x="63.623046875" xlink:href="#BitstreamVeraSans-Roman-30"/>
      </g>
     </g>
    </g>
    <g id="xtick_4">
     <g id="line2d_7">
      <g>
       <use style="fill:#262626;stroke:#262626;stroke-width:0.5;" x="571.969075221" xlink:href="#m2a9e34465b" y="485.7291"/>
      </g>
     </g>
     <g id="line2d_8">
      <g>
       <use style="fill:#262626;stroke:#262626;stroke-width:0.5;" x="571.969075221" xlink:href="#m2a9e34465b" y="53.91"/>
      </g>
     </g>
     <g id="text_4">
      <!-- 30 -->
      <defs>
       <path d="M 40.578125 39.3125 
Q 47.65625 37.796875 51.625 33 
Q 55.609375 28.21875 55.609375 21.1875 
Q 55.609375 10.40625 48.1875 4.484375 
Q 40.765625 -1.421875 27.09375 -1.421875 
Q 22.515625 -1.421875 17.65625 -0.515625 
Q 12.796875 0.390625 7.625 2.203125 
L 7.625 11.71875 
Q 11.71875 9.328125 16.59375 8.109375 
Q 21.484375 6.890625 26.8125 6.890625 
Q 36.078125 6.890625 40.9375 10.546875 
Q 45.796875 14.203125 45.796875 21.1875 
Q 45.796875 27.640625 41.28125 31.265625 
Q 36.765625 34.90625 28.71875 34.90625 
L 20.21875 34.90625 
L 20.21875 43.015625 
L 29.109375 43.015625 
Q 36.375 43.015625 40.234375 45.921875 
Q 44.09375 48.828125 44.09375 54.296875 
Q 44.09375 59.90625 40.109375 62.90625 
Q 36.140625 65.921875 28.71875 65.921875 
Q 24.65625 65.921875 20.015625 65.03125 
Q 15.375 64.15625 9.8125 62.3125 
L 9.8125 71.09375 
Q 15.4375 72.65625 20.34375 73.4375 
Q 25.25 74.21875 29.59375 74.21875 
Q 40.828125 74.21875 47.359375 69.109375 
Q 53.90625 64.015625 53.90625 55.328125 
Q 53.90625 49.265625 50.4375 45.09375 
Q 46.96875 40.921875 40.578125 39.3125 
" id="BitstreamVeraSans-Roman-33"/>
      </defs>
      <g style="fill:#262626;" transform="translate(564.334075221 498.847225)scale(0.12 -0.12)">
       <use xlink:href="#BitstreamVeraSans-Roman-33"/>
       <use x="63.623046875" xlink:href="#BitstreamVeraSans-Roman-30"/>
      </g>
     </g>
    </g>
    <g id="xtick_5">
     <g id="line2d_9">
      <g>
       <use style="fill:#262626;stroke:#262626;stroke-width:0.5;" x="741.808433628" xlink:href="#m2a9e34465b" y="485.7291"/>
      </g>
     </g>
     <g id="line2d_10">
      <g>
       <use style="fill:#262626;stroke:#262626;stroke-width:0.5;" x="741.808433628" xlink:href="#m2a9e34465b" y="53.91"/>
      </g>
     </g>
     <g id="text_5">
      <!-- 40 -->
      <defs>
       <path d="M 37.796875 64.3125 
L 12.890625 25.390625 
L 37.796875 25.390625 
z
M 35.203125 72.90625 
L 47.609375 72.90625 
L 47.609375 25.390625 
L 58.015625 25.390625 
L 58.015625 17.1875 
L 47.609375 17.1875 
L 47.609375 0 
L 37.796875 0 
L 37.796875 17.1875 
L 4.890625 17.1875 
L 4.890625 26.703125 
z
" id="BitstreamVeraSans-Roman-34"/>
      </defs>
      <g style="fill:#262626;" transform="translate(734.173433628 498.847225)scale(0.12 -0.12)">
       <use xlink:href="#BitstreamVeraSans-Roman-34"/>
       <use x="63.623046875" xlink:href="#BitstreamVeraSans-Roman-30"/>
      </g>
     </g>
    </g>
    <g id="xtick_6">
     <g id="line2d_11">
      <g>
       <use style="fill:#262626;stroke:#262626;stroke-width:0.5;" x="96.4188716814" xlink:href="#m2a9e34465b" y="485.7291"/>
      </g>
     </g>
     <g id="line2d_12">
      <g>
       <use style="fill:#262626;stroke:#262626;stroke-width:0.5;" x="96.4188716814" xlink:href="#m2a9e34465b" y="53.91"/>
      </g>
     </g>
    </g>
    <g id="xtick_7">
     <g id="line2d_13">
      <g>
       <use style="fill:#262626;stroke:#262626;stroke-width:0.5;" x="130.386743363" xlink:href="#m2a9e34465b" y="485.7291"/>
      </g>
     </g>
     <g id="line2d_14">
      <g>
       <use style="fill:#262626;stroke:#262626;stroke-width:0.5;" x="130.386743363" xlink:href="#m2a9e34465b" y="53.91"/>
      </g>
     </g>
    </g>
    <g id="xtick_8">
     <g id="line2d_15">
      <g>
       <use style="fill:#262626;stroke:#262626;stroke-width:0.5;" x="164.354615044" xlink:href="#m2a9e34465b" y="485.7291"/>
      </g>
     </g>
     <g id="line2d_16">
      <g>
       <use style="fill:#262626;stroke:#262626;stroke-width:0.5;" x="164.354615044" xlink:href="#m2a9e34465b" y="53.91"/>
      </g>
     </g>
    </g>
    <g id="xtick_9">
     <g id="line2d_17">
      <g>
       <use style="fill:#262626;stroke:#262626;stroke-width:0.5;" x="198.322486726" xlink:href="#m2a9e34465b" y="485.7291"/>
      </g>
     </g>
     <g id="line2d_18">
      <g>
       <use style="fill:#262626;stroke:#262626;stroke-width:0.5;" x="198.322486726" xlink:href="#m2a9e34465b" y="53.91"/>
      </g>
     </g>
    </g>
    <g id="xtick_10">
     <g id="line2d_19">
      <g>
       <use style="fill:#262626;stroke:#262626;stroke-width:0.5;" x="266.258230088" xlink:href="#m2a9e34465b" y="485.7291"/>
      </g>
     </g>
     <g id="line2d_20">
      <g>
       <use style="fill:#262626;stroke:#262626;stroke-width:0.5;" x="266.258230088" xlink:href="#m2a9e34465b" y="53.91"/>
      </g>
     </g>
    </g>
    <g id="xtick_11">
     <g id="line2d_21">
      <g>
       <use style="fill:#262626;stroke:#262626;stroke-width:0.5;" x="300.22610177" xlink:href="#m2a9e34465b" y="485.7291"/>
      </g>
     </g>
     <g id="line2d_22">
      <g>
       <use style="fill:#262626;stroke:#262626;stroke-width:0.5;" x="300.22610177" xlink:href="#m2a9e34465b" y="53.91"/>
      </g>
     </g>
    </g>
    <g id="xtick_12">
     <g id="line2d_23">
      <g>
       <use style="fill:#262626;stroke:#262626;stroke-width:0.5;" x="334.193973451" xlink:href="#m2a9e34465b" y="485.7291"/>
      </g>
     </g>
     <g id="line2d_24">
      <g>
       <use style="fill:#262626;stroke:#262626;stroke-width:0.5;" x="334.193973451" xlink:href="#m2a9e34465b" y="53.91"/>
      </g>
     </g>
    </g>
    <g id="xtick_13">
     <g id="line2d_25">
      <g>
       <use style="fill:#262626;stroke:#262626;stroke-width:0.5;" x="368.161845133" xlink:href="#m2a9e34465b" y="485.7291"/>
      </g>
     </g>
     <g id="line2d_26">
      <g>
       <use style="fill:#262626;stroke:#262626;stroke-width:0.5;" x="368.161845133" xlink:href="#m2a9e34465b" y="53.91"/>
      </g>
     </g>
    </g>
    <g id="xtick_14">
     <g id="line2d_27">
      <g>
       <use style="fill:#262626;stroke:#262626;stroke-width:0.5;" x="436.097588496" xlink:href="#m2a9e34465b" y="485.7291"/>
      </g>
     </g>
     <g id="line2d_28">
      <g>
       <use style="fill:#262626;stroke:#262626;stroke-width:0.5;" x="436.097588496" xlink:href="#m2a9e34465b" y="53.91"/>
      </g>
     </g>
    </g>
    <g id="xtick_15">
     <g id="line2d_29">
      <g>
       <use style="fill:#262626;stroke:#262626;stroke-width:0.5;" x="470.065460177" xlink:href="#m2a9e34465b" y="485.7291"/>
      </g>
     </g>
     <g id="line2d_30">
      <g>
       <use style="fill:#262626;stroke:#262626;stroke-width:0.5;" x="470.065460177" xlink:href="#m2a9e34465b" y="53.91"/>
      </g>
     </g>
    </g>
    <g id="xtick_16">
     <g id="line2d_31">
      <g>
       <use style="fill:#262626;stroke:#262626;stroke-width:0.5;" x="504.033331858" xlink:href="#m2a9e34465b" y="485.7291"/>
      </g>
     </g>
     <g id="line2d_32">
      <g>
       <use style="fill:#262626;stroke:#262626;stroke-width:0.5;" x="504.033331858" xlink:href="#m2a9e34465b" y="53.91"/>
      </g>
     </g>
    </g>
    <g id="xtick_17">
     <g id="line2d_33">
      <g>
       <use style="fill:#262626;stroke:#262626;stroke-width:0.5;" x="538.00120354" xlink:href="#m2a9e34465b" y="485.7291"/>
      </g>
     </g>
     <g id="line2d_34">
      <g>
       <use style="fill:#262626;stroke:#262626;stroke-width:0.5;" x="538.00120354" xlink:href="#m2a9e34465b" y="53.91"/>
      </g>
     </g>
    </g>
    <g id="xtick_18">
     <g id="line2d_35">
      <g>
       <use style="fill:#262626;stroke:#262626;stroke-width:0.5;" x="605.936946903" xlink:href="#m2a9e34465b" y="485.7291"/>
      </g>
     </g>
     <g id="line2d_36">
      <g>
       <use style="fill:#262626;stroke:#262626;stroke-width:0.5;" x="605.936946903" xlink:href="#m2a9e34465b" y="53.91"/>
      </g>
     </g>
    </g>
    <g id="xtick_19">
     <g id="line2d_37">
      <g>
       <use style="fill:#262626;stroke:#262626;stroke-width:0.5;" x="639.904818584" xlink:href="#m2a9e34465b" y="485.7291"/>
      </g>
     </g>
     <g id="line2d_38">
      <g>
       <use style="fill:#262626;stroke:#262626;stroke-width:0.5;" x="639.904818584" xlink:href="#m2a9e34465b" y="53.91"/>
      </g>
     </g>
    </g>
    <g id="xtick_20">
     <g id="line2d_39">
      <g>
       <use style="fill:#262626;stroke:#262626;stroke-width:0.5;" x="673.872690265" xlink:href="#m2a9e34465b" y="485.7291"/>
      </g>
     </g>
     <g id="line2d_40">
      <g>
       <use style="fill:#262626;stroke:#262626;stroke-width:0.5;" x="673.872690265" xlink:href="#m2a9e34465b" y="53.91"/>
      </g>
     </g>
    </g>
    <g id="xtick_21">
     <g id="line2d_41">
      <g>
       <use style="fill:#262626;stroke:#262626;stroke-width:0.5;" x="707.840561947" xlink:href="#m2a9e34465b" y="485.7291"/>
      </g>
     </g>
     <g id="line2d_42">
      <g>
       <use style="fill:#262626;stroke:#262626;stroke-width:0.5;" x="707.840561947" xlink:href="#m2a9e34465b" y="53.91"/>
      </g>
     </g>
    </g>
    <g id="xtick_22">
     <g id="line2d_43">
      <g>
       <use style="fill:#262626;stroke:#262626;stroke-width:0.5;" x="775.77630531" xlink:href="#m2a9e34465b" y="485.7291"/>
      </g>
     </g>
     <g id="line2d_44">
      <g>
       <use style="fill:#262626;stroke:#262626;stroke-width:0.5;" x="775.77630531" xlink:href="#m2a9e34465b" y="53.91"/>
      </g>
     </g>
    </g>
    <g id="xtick_23">
     <g id="line2d_45">
      <g>
       <use style="fill:#262626;stroke:#262626;stroke-width:0.5;" x="809.744176991" xlink:href="#m2a9e34465b" y="485.7291"/>
      </g>
     </g>
     <g id="line2d_46">
      <g>
       <use style="fill:#262626;stroke:#262626;stroke-width:0.5;" x="809.744176991" xlink:href="#m2a9e34465b" y="53.91"/>
      </g>
     </g>
    </g>
    <g id="text_6">
     <!-- Time (s) -->
     <defs>
      <path id="BitstreamVeraSans-Roman-20"/>
      <path d="M 8.015625 75.875 
L 15.828125 75.875 
Q 23.140625 64.359375 26.78125 53.3125 
Q 30.421875 42.28125 30.421875 31.390625 
Q 30.421875 20.453125 26.78125 9.375 
Q 23.140625 -1.703125 15.828125 -13.1875 
L 8.015625 -13.1875 
Q 14.5 -2 17.703125 9.0625 
Q 20.90625 20.125 20.90625 31.390625 
Q 20.90625 42.671875 17.703125 53.65625 
Q 14.5 64.65625 8.015625 75.875 
" id="BitstreamVeraSans-Roman-29"/>
      <path d="M 31 75.875 
Q 24.46875 64.65625 21.28125 53.65625 
Q 18.109375 42.671875 18.109375 31.390625 
Q 18.109375 20.125 21.3125 9.0625 
Q 24.515625 -2 31 -13.1875 
L 23.1875 -13.1875 
Q 15.875 -1.703125 12.234375 9.375 
Q 8.59375 20.453125 8.59375 31.390625 
Q 8.59375 42.28125 12.203125 53.3125 
Q 15.828125 64.359375 23.1875 75.875 
z
" id="BitstreamVeraSans-Roman-28"/>
      <path d="M 9.421875 54.6875 
L 18.40625 54.6875 
L 18.40625 0 
L 9.421875 0 
z
M 9.421875 75.984375 
L 18.40625 75.984375 
L 18.40625 64.59375 
L 9.421875 64.59375 
z
" id="BitstreamVeraSans-Roman-69"/>
      <path d="M 52 44.1875 
Q 55.375 50.25 60.0625 53.125 
Q 64.75 56 71.09375 56 
Q 79.640625 56 84.28125 50.015625 
Q 88.921875 44.046875 88.921875 33.015625 
L 88.921875 0 
L 79.890625 0 
L 79.890625 32.71875 
Q 79.890625 40.578125 77.09375 44.375 
Q 74.3125 48.1875 68.609375 48.1875 
Q 61.625 48.1875 57.5625 43.546875 
Q 53.515625 38.921875 53.515625 30.90625 
L 53.515625 0 
L 44.484375 0 
L 44.484375 32.71875 
Q 44.484375 40.625 41.703125 44.40625 
Q 38.921875 48.1875 33.109375 48.1875 
Q 26.21875 48.1875 22.15625 43.53125 
Q 18.109375 38.875 18.109375 30.90625 
L 18.109375 0 
L 9.078125 0 
L 9.078125 54.6875 
L 18.109375 54.6875 
L 18.109375 46.1875 
Q 21.1875 51.21875 25.484375 53.609375 
Q 29.78125 56 35.6875 56 
Q 41.65625 56 45.828125 52.96875 
Q 50 49.953125 52 44.1875 
" id="BitstreamVeraSans-Roman-6d"/>
      <path d="M 56.203125 29.59375 
L 56.203125 25.203125 
L 14.890625 25.203125 
Q 15.484375 15.921875 20.484375 11.0625 
Q 25.484375 6.203125 34.421875 6.203125 
Q 39.59375 6.203125 44.453125 7.46875 
Q 49.3125 8.734375 54.109375 11.28125 
L 54.109375 2.78125 
Q 49.265625 0.734375 44.1875 -0.34375 
Q 39.109375 -1.421875 33.890625 -1.421875 
Q 20.796875 -1.421875 13.15625 6.1875 
Q 5.515625 13.8125 5.515625 26.8125 
Q 5.515625 40.234375 12.765625 48.109375 
Q 20.015625 56 32.328125 56 
Q 43.359375 56 49.78125 48.890625 
Q 56.203125 41.796875 56.203125 29.59375 
M 47.21875 32.234375 
Q 47.125 39.59375 43.09375 43.984375 
Q 39.0625 48.390625 32.421875 48.390625 
Q 24.90625 48.390625 20.390625 44.140625 
Q 15.875 39.890625 15.1875 32.171875 
z
" id="BitstreamVeraSans-Roman-65"/>
      <path d="M -0.296875 72.90625 
L 61.375 72.90625 
L 61.375 64.59375 
L 35.5 64.59375 
L 35.5 0 
L 25.59375 0 
L 25.59375 64.59375 
L -0.296875 64.59375 
z
" id="BitstreamVeraSans-Roman-54"/>
      <path d="M 44.28125 53.078125 
L 44.28125 44.578125 
Q 40.484375 46.53125 36.375 47.5 
Q 32.28125 48.484375 27.875 48.484375 
Q 21.1875 48.484375 17.84375 46.4375 
Q 14.5 44.390625 14.5 40.28125 
Q 14.5 37.15625 16.890625 35.375 
Q 19.28125 33.59375 26.515625 31.984375 
L 29.59375 31.296875 
Q 39.15625 29.25 43.1875 25.515625 
Q 47.21875 21.78125 47.21875 15.09375 
Q 47.21875 7.46875 41.1875 3.015625 
Q 35.15625 -1.421875 24.609375 -1.421875 
Q 20.21875 -1.421875 15.453125 -0.5625 
Q 10.6875 0.296875 5.421875 2 
L 5.421875 11.28125 
Q 10.40625 8.6875 15.234375 7.390625 
Q 20.0625 6.109375 24.8125 6.109375 
Q 31.15625 6.109375 34.5625 8.28125 
Q 37.984375 10.453125 37.984375 14.40625 
Q 37.984375 18.0625 35.515625 20.015625 
Q 33.0625 21.96875 24.703125 23.78125 
L 21.578125 24.515625 
Q 13.234375 26.265625 9.515625 29.90625 
Q 5.8125 33.546875 5.8125 39.890625 
Q 5.8125 47.609375 11.28125 51.796875 
Q 16.75 56 26.8125 56 
Q 31.78125 56 36.171875 55.265625 
Q 40.578125 54.546875 44.28125 53.078125 
" id="BitstreamVeraSans-Roman-73"/>
     </defs>
     <g style="fill:#262626;" transform="translate(421.708575 515.460975)scale(0.12 -0.12)">
      <use xlink:href="#BitstreamVeraSans-Roman-54"/>
      <use x="61.037109375" xlink:href="#BitstreamVeraSans-Roman-69"/>
      <use x="88.8203125" xlink:href="#BitstreamVeraSans-Roman-6d"/>
      <use x="186.232421875" xlink:href="#BitstreamVeraSans-Roman-65"/>
      <use x="247.755859375" xlink:href="#BitstreamVeraSans-Roman-20"/>
      <use x="279.54296875" xlink:href="#BitstreamVeraSans-Roman-28"/>
      <use x="318.556640625" xlink:href="#BitstreamVeraSans-Roman-73"/>
      <use x="370.65625" xlink:href="#BitstreamVeraSans-Roman-29"/>
     </g>
    </g>
   </g>
   <g id="matplotlib.axis_2">
    <g id="ytick_1">
     <g id="line2d_47">
      <g>
       <use style="fill:#262626;stroke:#262626;stroke-width:0.5;" x="62.451" xlink:href="#m2a9e34465b" y="398.953658186"/>
      </g>
     </g>
     <g id="text_7">
      <!-- 200 -->
      <g style="fill:#262626;" transform="translate(35.546 402.264908186)scale(0.12 -0.12)">
       <use xlink:href="#BitstreamVeraSans-Roman-32"/>
       <use x="63.623046875" xlink:href="#BitstreamVeraSans-Roman-30"/>
       <use x="127.24609375" xlink:href="#BitstreamVeraSans-Roman-30"/>
      </g>
     </g>
    </g>
    <g id="ytick_2">
     <g id="line2d_48">
      <g>
       <use style="fill:#262626;stroke:#262626;stroke-width:0.5;" x="62.451" xlink:href="#m2a9e34465b" y="310.997521799"/>
      </g>
     </g>
     <g id="text_8">
      <!-- 250 -->
      <defs>
       <path d="M 10.796875 72.90625 
L 49.515625 72.90625 
L 49.515625 64.59375 
L 19.828125 64.59375 
L 19.828125 46.734375 
Q 21.96875 47.46875 24.109375 47.828125 
Q 26.265625 48.1875 28.421875 48.1875 
Q 40.625 48.1875 47.75 41.5 
Q 54.890625 34.8125 54.890625 23.390625 
Q 54.890625 11.625 47.5625 5.09375 
Q 40.234375 -1.421875 26.90625 -1.421875 
Q 22.3125 -1.421875 17.546875 -0.640625 
Q 12.796875 0.140625 7.71875 1.703125 
L 7.71875 11.625 
Q 12.109375 9.234375 16.796875 8.0625 
Q 21.484375 6.890625 26.703125 6.890625 
Q 35.15625 6.890625 40.078125 11.328125 
Q 45.015625 15.765625 45.015625 23.390625 
Q 45.015625 31 40.078125 35.4375 
Q 35.15625 39.890625 26.703125 39.890625 
Q 22.75 39.890625 18.8125 39.015625 
Q 14.890625 38.140625 10.796875 36.28125 
z
" id="BitstreamVeraSans-Roman-35"/>
      </defs>
      <g style="fill:#262626;" transform="translate(35.546 314.308771799)scale(0.12 -0.12)">
       <use xlink:href="#BitstreamVeraSans-Roman-32"/>
       <use x="63.623046875" xlink:href="#BitstreamVeraSans-Roman-35"/>
       <use x="127.24609375" xlink:href="#BitstreamVeraSans-Roman-30"/>
      </g>
     </g>
    </g>
    <g id="ytick_3">
     <g id="line2d_49">
      <g>
       <use style="fill:#262626;stroke:#262626;stroke-width:0.5;" x="62.451" xlink:href="#m2a9e34465b" y="223.041385412"/>
      </g>
     </g>
     <g id="text_9">
      <!-- 300 -->
      <g style="fill:#262626;" transform="translate(35.546 226.352635412)scale(0.12 -0.12)">
       <use xlink:href="#BitstreamVeraSans-Roman-33"/>
       <use x="63.623046875" xlink:href="#BitstreamVeraSans-Roman-30"/>
       <use x="127.24609375" xlink:href="#BitstreamVeraSans-Roman-30"/>
      </g>
     </g>
    </g>
    <g id="ytick_4">
     <g id="line2d_50">
      <g>
       <use style="fill:#262626;stroke:#262626;stroke-width:0.5;" x="62.451" xlink:href="#m2a9e34465b" y="135.085249025"/>
      </g>
     </g>
     <g id="text_10">
      <!-- 350 -->
      <g style="fill:#262626;" transform="translate(35.546 138.396499025)scale(0.12 -0.12)">
       <use xlink:href="#BitstreamVeraSans-Roman-33"/>
       <use x="63.623046875" xlink:href="#BitstreamVeraSans-Roman-35"/>
       <use x="127.24609375" xlink:href="#BitstreamVeraSans-Roman-30"/>
      </g>
     </g>
    </g>
    <g id="ytick_5">
     <g id="line2d_51">
      <g>
       <use style="fill:#262626;stroke:#262626;stroke-width:0.5;" x="62.451" xlink:href="#m2a9e34465b" y="469.318567296"/>
      </g>
     </g>
    </g>
    <g id="ytick_6">
     <g id="line2d_52">
      <g>
       <use style="fill:#262626;stroke:#262626;stroke-width:0.5;" x="62.451" xlink:href="#m2a9e34465b" y="451.727340019"/>
      </g>
     </g>
    </g>
    <g id="ytick_7">
     <g id="line2d_53">
      <g>
       <use style="fill:#262626;stroke:#262626;stroke-width:0.5;" x="62.451" xlink:href="#m2a9e34465b" y="434.136112741"/>
      </g>
     </g>
    </g>
    <g id="ytick_8">
     <g id="line2d_54">
      <g>
       <use style="fill:#262626;stroke:#262626;stroke-width:0.5;" x="62.451" xlink:href="#m2a9e34465b" y="416.544885464"/>
      </g>
     </g>
    </g>
    <g id="ytick_9">
     <g id="line2d_55">
      <g>
       <use style="fill:#262626;stroke:#262626;stroke-width:0.5;" x="62.451" xlink:href="#m2a9e34465b" y="381.362430909"/>
      </g>
     </g>
    </g>
    <g id="ytick_10">
     <g id="line2d_56">
      <g>
       <use style="fill:#262626;stroke:#262626;stroke-width:0.5;" x="62.451" xlink:href="#m2a9e34465b" y="363.771203632"/>
      </g>
     </g>
    </g>
    <g id="ytick_11">
     <g id="line2d_57">
      <g>
       <use style="fill:#262626;stroke:#262626;stroke-width:0.5;" x="62.451" xlink:href="#m2a9e34465b" y="346.179976354"/>
      </g>
     </g>
    </g>
    <g id="ytick_12">
     <g id="line2d_58">
      <g>
       <use style="fill:#262626;stroke:#262626;stroke-width:0.5;" x="62.451" xlink:href="#m2a9e34465b" y="328.588749077"/>
      </g>
     </g>
    </g>
    <g id="ytick_13">
     <g id="line2d_59">
      <g>
       <use style="fill:#262626;stroke:#262626;stroke-width:0.5;" x="62.451" xlink:href="#m2a9e34465b" y="293.406294522"/>
      </g>
     </g>
    </g>
    <g id="ytick_14">
     <g id="line2d_60">
      <g>
       <use style="fill:#262626;stroke:#262626;stroke-width:0.5;" x="62.451" xlink:href="#m2a9e34465b" y="275.815067244"/>
      </g>
     </g>
    </g>
    <g id="ytick_15">
     <g id="line2d_61">
      <g>
       <use style="fill:#262626;stroke:#262626;stroke-width:0.5;" x="62.451" xlink:href="#m2a9e34465b" y="258.223839967"/>
      </g>
     </g>
    </g>
    <g id="ytick_16">
     <g id="line2d_62">
      <g>
       <use style="fill:#262626;stroke:#262626;stroke-width:0.5;" x="62.451" xlink:href="#m2a9e34465b" y="240.632612689"/>
      </g>
     </g>
    </g>
    <g id="ytick_17">
     <g id="line2d_63">
      <g>
       <use style="fill:#262626;stroke:#262626;stroke-width:0.5;" x="62.451" xlink:href="#m2a9e34465b" y="205.450158135"/>
      </g>
     </g>
    </g>
    <g id="ytick_18">
     <g id="line2d_64">
      <g>
       <use style="fill:#262626;stroke:#262626;stroke-width:0.5;" x="62.451" xlink:href="#m2a9e34465b" y="187.858930857"/>
      </g>
     </g>
    </g>
    <g id="ytick_19">
     <g id="line2d_65">
      <g>
       <use style="fill:#262626;stroke:#262626;stroke-width:0.5;" x="62.451" xlink:href="#m2a9e34465b" y="170.26770358"/>
      </g>
     </g>
    </g>
    <g id="ytick_20">
     <g id="line2d_66">
      <g>
       <use style="fill:#262626;stroke:#262626;stroke-width:0.5;" x="62.451" xlink:href="#m2a9e34465b" y="152.676476302"/>
      </g>
     </g>
    </g>
    <g id="ytick_21">
     <g id="line2d_67">
      <g>
       <use style="fill:#262626;stroke:#262626;stroke-width:0.5;" x="62.451" xlink:href="#m2a9e34465b" y="117.494021747"/>
      </g>
     </g>
    </g>
    <g id="ytick_22">
     <g id="line2d_68">
      <g>
       <use style="fill:#262626;stroke:#262626;stroke-width:0.5;" x="62.451" xlink:href="#m2a9e34465b" y="99.90279447"/>
      </g>
     </g>
    </g>
    <g id="ytick_23">
     <g id="line2d_69">
      <g>
       <use style="fill:#262626;stroke:#262626;stroke-width:0.5;" x="62.451" xlink:href="#m2a9e34465b" y="82.3115671925"/>
      </g>
     </g>
    </g>
    <g id="ytick_24">
     <g id="line2d_70">
      <g>
       <use style="fill:#262626;stroke:#262626;stroke-width:0.5;" x="62.451" xlink:href="#m2a9e34465b" y="64.7203399151"/>
      </g>
     </g>
    </g>
    <g id="text_11">
     <!-- Mbits/s -->
     <defs>
      <path d="M 18.3125 70.21875 
L 18.3125 54.6875 
L 36.8125 54.6875 
L 36.8125 47.703125 
L 18.3125 47.703125 
L 18.3125 18.015625 
Q 18.3125 11.328125 20.140625 9.421875 
Q 21.96875 7.515625 27.59375 7.515625 
L 36.8125 7.515625 
L 36.8125 0 
L 27.59375 0 
Q 17.1875 0 13.234375 3.875 
Q 9.28125 7.765625 9.28125 18.015625 
L 9.28125 47.703125 
L 2.6875 47.703125 
L 2.6875 54.6875 
L 9.28125 54.6875 
L 9.28125 70.21875 
z
" id="BitstreamVeraSans-Roman-74"/>
      <path d="M 9.8125 72.90625 
L 24.515625 72.90625 
L 43.109375 23.296875 
L 61.8125 72.90625 
L 76.515625 72.90625 
L 76.515625 0 
L 66.890625 0 
L 66.890625 64.015625 
L 48.09375 14.015625 
L 38.1875 14.015625 
L 19.390625 64.015625 
L 19.390625 0 
L 9.8125 0 
z
" id="BitstreamVeraSans-Roman-4d"/>
      <path d="M 25.390625 72.90625 
L 33.6875 72.90625 
L 8.296875 -9.28125 
L 0 -9.28125 
z
" id="BitstreamVeraSans-Roman-2f"/>
      <path d="M 48.6875 27.296875 
Q 48.6875 37.203125 44.609375 42.84375 
Q 40.53125 48.484375 33.40625 48.484375 
Q 26.265625 48.484375 22.1875 42.84375 
Q 18.109375 37.203125 18.109375 27.296875 
Q 18.109375 17.390625 22.1875 11.75 
Q 26.265625 6.109375 33.40625 6.109375 
Q 40.53125 6.109375 44.609375 11.75 
Q 48.6875 17.390625 48.6875 27.296875 
M 18.109375 46.390625 
Q 20.953125 51.265625 25.265625 53.625 
Q 29.59375 56 35.59375 56 
Q 45.5625 56 51.78125 48.09375 
Q 58.015625 40.1875 58.015625 27.296875 
Q 58.015625 14.40625 51.78125 6.484375 
Q 45.5625 -1.421875 35.59375 -1.421875 
Q 29.59375 -1.421875 25.265625 0.953125 
Q 20.953125 3.328125 18.109375 8.203125 
L 18.109375 0 
L 9.078125 0 
L 9.078125 75.984375 
L 18.109375 75.984375 
z
" id="BitstreamVeraSans-Roman-62"/>
     </defs>
     <g style="fill:#262626;" transform="translate(28.050375 291.09705)rotate(-90.0)scale(0.12 -0.12)">
      <use xlink:href="#BitstreamVeraSans-Roman-4d"/>
      <use x="86.279296875" xlink:href="#BitstreamVeraSans-Roman-62"/>
      <use x="149.755859375" xlink:href="#BitstreamVeraSans-Roman-69"/>
      <use x="177.5390625" xlink:href="#BitstreamVeraSans-Roman-74"/>
      <use x="216.748046875" xlink:href="#BitstreamVeraSans-Roman-73"/>
      <use x="268.84765625" xlink:href="#BitstreamVeraSans-Roman-2f"/>
      <use x="302.5390625" xlink:href="#BitstreamVeraSans-Roman-73"/>
     </g>
    </g>
   </g>
   <g id="line2d_71">
    <path clip-path="url(#p3709d75bde)" d="M 150.767466 470.501118 
L 154.164254 460.056653 
L 157.561041 445.727344 
L 160.957828 433.701614 
L 164.354615 422.60207 
L 167.751402 411.001599 
L 171.148189 378.220683 
L 174.544977 342.655253 
L 177.941764 304.176475 
L 181.338551 277.926681 
L 184.735338 262.174151 
L 188.132125 251.637134 
L 191.528912 245.740422 
L 194.9257 240.218576 
L 198.322487 238.658847 
L 201.719274 236.958875 
L 205.116061 243.76459 
L 208.512848 263.641811 
L 211.909635 287.537252 
L 215.306423 301.734812 
L 218.70321 301.852565 
L 222.099997 296.892844 
L 225.496784 287.999348 
L 228.893571 276.061445 
L 232.290358 269.041656 
L 235.687146 267.23426 
L 239.083933 269.07136 
L 242.48072 270.366569 
L 245.877507 276.733207 
L 249.274294 286.873252 
L 252.671081 289.593904 
L 256.067869 286.706323 
L 259.464656 286.91261 
L 262.861443 289.712591 
L 266.25823 285.433976 
L 269.655017 279.838829 
L 273.051804 270.771263 
L 276.448592 253.893696 
L 279.845379 240.002876 
L 283.242166 231.596987 
L 286.638953 233.348079 
L 293.432527 252.688544 
L 300.226102 274.860865 
L 303.622889 285.743341 
L 307.019676 295.015113 
L 310.416463 304.8337 
L 313.81325 314.059998 
L 317.210038 324.643701 
L 320.606825 331.632662 
L 324.003612 333.670409 
L 327.400399 337.027511 
L 330.797186 342.078461 
L 334.193973 350.349956 
L 337.590761 357.634243 
L 340.987548 363.511871 
L 344.384335 369.84457 
L 347.781122 373.656531 
L 351.177909 370.715834 
L 354.574696 368.990279 
L 357.971484 371.733403 
L 361.368271 375.561057 
L 368.161845 391.129707 
L 371.558632 400.485791 
L 374.955419 411.081591 
L 378.352207 422.581316 
L 381.748994 434.625774 
L 388.542568 460.030858 
L 391.939355 471.33931 
L 395.336142 481.495579 
L 398.73293 481.248455 
L 402.129717 478.425762 
L 405.526504 470.75822 
L 408.923291 462.158991 
L 412.320078 452.102314 
L 415.716865 433.881153 
L 419.113653 421.454895 
L 425.907227 398.592727 
L 429.304014 391.649867 
L 432.700801 387.934717 
L 436.097588 381.611611 
L 439.494376 382.476832 
L 442.891163 385.980381 
L 446.28795 382.664814 
L 449.684737 386.34056 
L 453.081524 382.410291 
L 456.478312 377.811803 
L 459.875099 373.872845 
L 466.668673 353.234233 
L 470.06546 348.416465 
L 473.462247 336.180618 
L 476.859035 319.097234 
L 480.255822 310.445762 
L 483.652609 302.917282 
L 487.049396 299.757637 
L 490.446183 304.631684 
L 493.84297 309.110876 
L 497.239758 314.826047 
L 500.636545 318.753647 
L 504.033332 317.757979 
L 507.430119 321.966397 
L 510.826906 326.767482 
L 514.223693 329.182123 
L 517.620481 329.191211 
L 521.017268 330.19003 
L 524.414055 328.330736 
L 527.810842 326.894554 
L 531.207629 326.517926 
L 534.604416 327.901765 
L 538.001204 331.043901 
L 541.397991 335.553364 
L 544.794778 342.313163 
L 548.191565 353.404864 
L 551.588352 370.223253 
L 554.985139 385.84182 
L 561.778714 405.711537 
L 565.175501 413.71222 
L 568.572288 422.071499 
L 571.969075 429.461627 
L 575.365862 433.722574 
L 578.76265 439.740538 
L 582.159437 445.200549 
L 585.556224 447.444296 
L 588.953011 449.382554 
L 592.349798 453.50531 
L 595.746585 457.063965 
L 599.143373 459.462885 
L 602.54016 458.238629 
L 605.936947 450.62229 
L 609.333734 444.26917 
L 612.730521 439.261728 
L 616.127308 432.251046 
L 619.524096 424.824184 
L 626.31767 402.047293 
L 629.714457 393.963505 
L 633.111244 391.782365 
L 636.508031 394.870091 
L 639.904819 405.178378 
L 643.301606 411.165713 
L 646.698393 420.665571 
L 650.09518 424.425142 
L 653.491967 429.009534 
L 660.285542 447.912179 
L 660.285542 447.912179 
" style="fill:none;stroke:#1b9e77;stroke-linecap:round;"/>
   </g>
   <g id="line2d_72">
    <path clip-path="url(#p3709d75bde)" d="M 150.767466 238.137388 
L 157.561041 254.070491 
L 160.957828 268.974048 
L 164.354615 287.017894 
L 167.751402 300.220361 
L 171.148189 323.476525 
L 174.544977 340.687389 
L 177.941764 354.398287 
L 181.338551 365.892492 
L 184.735338 372.971362 
L 188.132125 386.372861 
L 191.528912 397.525679 
L 194.9257 400.939304 
L 198.322487 398.798172 
L 201.719274 393.926883 
L 205.116061 390.166812 
L 208.512848 392.282534 
L 211.909635 394.674189 
L 215.306423 399.142933 
L 218.70321 403.265467 
L 222.099997 401.476286 
L 225.496784 398.255007 
L 228.893571 392.367064 
L 232.290358 382.924665 
L 235.687146 372.305545 
L 239.083933 368.608132 
L 242.48072 367.079521 
L 245.877507 364.674932 
L 249.274294 362.539976 
L 252.671081 354.769766 
L 256.067869 344.24653 
L 259.464656 337.891799 
L 262.861443 334.071948 
L 266.25823 332.529841 
L 269.655017 334.718263 
L 273.051804 334.754321 
L 276.448592 327.231288 
L 279.845379 320.534743 
L 283.242166 308.994886 
L 286.638953 304.424679 
L 290.03574 304.735699 
L 293.432527 301.039895 
L 296.829315 298.82228 
L 303.622889 293.514408 
L 307.019676 287.056137 
L 310.416463 278.669827 
L 313.81325 269.139238 
L 317.210038 264.048993 
L 320.606825 256.296791 
L 324.003612 241.378054 
L 327.400399 229.943514 
L 330.797186 217.735933 
L 334.193973 203.432248 
L 337.590761 187.807171 
L 340.987548 178.774313 
L 344.384335 173.000814 
L 347.781122 166.085925 
L 351.177909 156.874249 
L 354.574696 148.946186 
L 357.971484 148.098946 
L 361.368271 147.708637 
L 364.765058 145.565586 
L 368.161845 141.600885 
L 371.558632 138.789876 
L 374.955419 130.597474 
L 381.748994 105.615834 
L 385.145781 94.983434 
L 388.542568 87.125031 
L 391.939355 78.15625 
L 395.336142 68.490497 
L 398.73293 59.564541 
L 402.129717 58.143521 
L 405.526504 60.772035 
L 408.923291 63.55523 
L 412.320078 72.494673 
L 415.716865 80.26845 
L 419.113653 88.668125 
L 422.51044 98.9828 
L 425.907227 115.164169 
L 432.700801 153.289393 
L 439.494376 183.317557 
L 442.891163 199.756972 
L 446.28795 212.279085 
L 449.684737 229.230716 
L 453.081524 244.937081 
L 456.478312 258.658652 
L 459.875099 265.515788 
L 463.271886 265.586205 
L 466.668673 265.869849 
L 470.06546 270.852617 
L 473.462247 276.147338 
L 476.859035 280.242551 
L 480.255822 285.24148 
L 483.652609 287.348195 
L 487.049396 289.757672 
L 490.446183 290.778924 
L 497.239758 280.105129 
L 500.636545 273.123643 
L 507.430119 254.031381 
L 514.223693 229.047637 
L 517.620481 219.457592 
L 521.017268 210.739718 
L 524.414055 198.952013 
L 527.810842 190.80303 
L 531.207629 184.526566 
L 534.604416 175.945554 
L 538.001204 168.224113 
L 541.397991 161.080542 
L 544.794778 156.306983 
L 548.191565 153.758179 
L 551.588352 153.866372 
L 554.985139 152.767279 
L 558.381927 152.471295 
L 561.778714 156.060052 
L 565.175501 161.057252 
L 568.572288 170.249115 
L 571.969075 177.498535 
L 575.365862 182.199821 
L 578.76265 183.354364 
L 582.159437 185.028761 
L 585.556224 171.371036 
L 592.349798 138.736869 
L 595.746585 126.717419 
L 599.143373 119.669211 
L 602.54016 113.767999 
L 605.936947 110.172588 
L 609.333734 109.815822 
L 612.730521 115.17784 
L 616.127308 118.808001 
L 619.524096 134.640154 
L 622.920883 153.684868 
L 626.31767 176.594922 
L 629.714457 195.281043 
L 639.904819 257.489439 
L 643.301606 267.311399 
L 646.698393 291.77206 
L 650.09518 299.699076 
L 653.491967 308.114168 
L 656.888754 319.54458 
L 660.285542 331.950607 
L 660.285542 331.950607 
" style="fill:none;stroke:#d95f02;stroke-linecap:round;"/>
   </g>
   <g id="patch_3">
    <path d="M 62.451 53.91 
L 830.1249 53.91 
" style="fill:none;"/>
   </g>
   <g id="patch_4">
    <path d="M 830.1249 485.7291 
L 830.1249 53.91 
" style="fill:none;"/>
   </g>
   <g id="patch_5">
    <path d="M 62.451 485.7291 
L 830.1249 485.7291 
" style="fill:none;"/>
   </g>
   <g id="patch_6">
    <path d="M 62.451 485.7291 
L 62.451 53.91 
" style="fill:none;"/>
   </g>
   <g id="legend_1">
    <g id="line2d_73">
     <path d="M 918.567429 62.005198 
L 938.559429 62.005198 
" style="fill:none;stroke:#1b9e77;stroke-linecap:round;"/>
    </g>
    <g id="line2d_74"/>
    <g id="text_12">
     <!-- Download -->
     <defs>
      <path d="M 54.890625 33.015625 
L 54.890625 0 
L 45.90625 0 
L 45.90625 32.71875 
Q 45.90625 40.484375 42.875 44.328125 
Q 39.84375 48.1875 33.796875 48.1875 
Q 26.515625 48.1875 22.3125 43.546875 
Q 18.109375 38.921875 18.109375 30.90625 
L 18.109375 0 
L 9.078125 0 
L 9.078125 54.6875 
L 18.109375 54.6875 
L 18.109375 46.1875 
Q 21.34375 51.125 25.703125 53.5625 
Q 30.078125 56 35.796875 56 
Q 45.21875 56 50.046875 50.171875 
Q 54.890625 44.34375 54.890625 33.015625 
" id="BitstreamVeraSans-Roman-6e"/>
      <path d="M 30.609375 48.390625 
Q 23.390625 48.390625 19.1875 42.75 
Q 14.984375 37.109375 14.984375 27.296875 
Q 14.984375 17.484375 19.15625 11.84375 
Q 23.34375 6.203125 30.609375 6.203125 
Q 37.796875 6.203125 41.984375 11.859375 
Q 46.1875 17.53125 46.1875 27.296875 
Q 46.1875 37.015625 41.984375 42.703125 
Q 37.796875 48.390625 30.609375 48.390625 
M 30.609375 56 
Q 42.328125 56 49.015625 48.375 
Q 55.71875 40.765625 55.71875 27.296875 
Q 55.71875 13.875 49.015625 6.21875 
Q 42.328125 -1.421875 30.609375 -1.421875 
Q 18.84375 -1.421875 12.171875 6.21875 
Q 5.515625 13.875 5.515625 27.296875 
Q 5.515625 40.765625 12.171875 48.375 
Q 18.84375 56 30.609375 56 
" id="BitstreamVeraSans-Roman-6f"/>
      <path d="M 9.421875 75.984375 
L 18.40625 75.984375 
L 18.40625 0 
L 9.421875 0 
z
" id="BitstreamVeraSans-Roman-6c"/>
      <path d="M 19.671875 64.796875 
L 19.671875 8.109375 
L 31.59375 8.109375 
Q 46.6875 8.109375 53.6875 14.9375 
Q 60.6875 21.78125 60.6875 36.53125 
Q 60.6875 51.171875 53.6875 57.984375 
Q 46.6875 64.796875 31.59375 64.796875 
z
M 9.8125 72.90625 
L 30.078125 72.90625 
Q 51.265625 72.90625 61.171875 64.09375 
Q 71.09375 55.28125 71.09375 36.53125 
Q 71.09375 17.671875 61.125 8.828125 
Q 51.171875 0 30.078125 0 
L 9.8125 0 
z
" id="BitstreamVeraSans-Roman-44"/>
      <path d="M 45.40625 46.390625 
L 45.40625 75.984375 
L 54.390625 75.984375 
L 54.390625 0 
L 45.40625 0 
L 45.40625 8.203125 
Q 42.578125 3.328125 38.25 0.953125 
Q 33.9375 -1.421875 27.875 -1.421875 
Q 17.96875 -1.421875 11.734375 6.484375 
Q 5.515625 14.40625 5.515625 27.296875 
Q 5.515625 40.1875 11.734375 48.09375 
Q 17.96875 56 27.875 56 
Q 33.9375 56 38.25 53.625 
Q 42.578125 51.265625 45.40625 46.390625 
M 14.796875 27.296875 
Q 14.796875 17.390625 18.875 11.75 
Q 22.953125 6.109375 30.078125 6.109375 
Q 37.203125 6.109375 41.296875 11.75 
Q 45.40625 17.390625 45.40625 27.296875 
Q 45.40625 37.203125 41.296875 42.84375 
Q 37.203125 48.484375 30.078125 48.484375 
Q 22.953125 48.484375 18.875 42.84375 
Q 14.796875 37.203125 14.796875 27.296875 
" id="BitstreamVeraSans-Roman-64"/>
      <path d="M 4.203125 54.6875 
L 13.1875 54.6875 
L 24.421875 12.015625 
L 35.59375 54.6875 
L 46.1875 54.6875 
L 57.421875 12.015625 
L 68.609375 54.6875 
L 77.59375 54.6875 
L 63.28125 0 
L 52.6875 0 
L 40.921875 44.828125 
L 29.109375 0 
L 18.5 0 
z
" id="BitstreamVeraSans-Roman-77"/>
      <path d="M 34.28125 27.484375 
Q 23.390625 27.484375 19.1875 25 
Q 14.984375 22.515625 14.984375 16.5 
Q 14.984375 11.71875 18.140625 8.90625 
Q 21.296875 6.109375 26.703125 6.109375 
Q 34.1875 6.109375 38.703125 11.40625 
Q 43.21875 16.703125 43.21875 25.484375 
L 43.21875 27.484375 
z
M 52.203125 31.203125 
L 52.203125 0 
L 43.21875 0 
L 43.21875 8.296875 
Q 40.140625 3.328125 35.546875 0.953125 
Q 30.953125 -1.421875 24.3125 -1.421875 
Q 15.921875 -1.421875 10.953125 3.296875 
Q 6 8.015625 6 15.921875 
Q 6 25.140625 12.171875 29.828125 
Q 18.359375 34.515625 30.609375 34.515625 
L 43.21875 34.515625 
L 43.21875 35.40625 
Q 43.21875 41.609375 39.140625 45 
Q 35.0625 48.390625 27.6875 48.390625 
Q 23 48.390625 18.546875 47.265625 
Q 14.109375 46.140625 10.015625 43.890625 
L 10.015625 52.203125 
Q 14.9375 54.109375 19.578125 55.046875 
Q 24.21875 56 28.609375 56 
Q 40.484375 56 46.34375 49.84375 
Q 52.203125 43.703125 52.203125 31.203125 
" id="BitstreamVeraSans-Roman-61"/>
     </defs>
     <g style="fill:#262626;" transform="translate(946.556229 65.503798125)scale(0.09996 -0.09996)">
      <use xlink:href="#BitstreamVeraSans-Roman-44"/>
      <use x="77.001953125" xlink:href="#BitstreamVeraSans-Roman-6f"/>
      <use x="138.18359375" xlink:href="#BitstreamVeraSans-Roman-77"/>
      <use x="219.970703125" xlink:href="#BitstreamVeraSans-Roman-6e"/>
      <use x="283.349609375" xlink:href="#BitstreamVeraSans-Roman-6c"/>
      <use x="311.1328125" xlink:href="#BitstreamVeraSans-Roman-6f"/>
      <use x="372.314453125" xlink:href="#BitstreamVeraSans-Roman-61"/>
      <use x="433.59375" xlink:href="#BitstreamVeraSans-Roman-64"/>
     </g>
    </g>
    <g id="line2d_75">
     <path d="M 918.567429 76.677452 
L 938.559429 76.677452 
" style="fill:none;stroke:#d95f02;stroke-linecap:round;"/>
    </g>
    <g id="line2d_76"/>
    <g id="text_13">
     <!-- Upload -->
     <defs>
      <path d="M 8.6875 72.90625 
L 18.609375 72.90625 
L 18.609375 28.609375 
Q 18.609375 16.890625 22.84375 11.734375 
Q 27.09375 6.59375 36.625 6.59375 
Q 46.09375 6.59375 50.34375 11.734375 
Q 54.59375 16.890625 54.59375 28.609375 
L 54.59375 72.90625 
L 64.5 72.90625 
L 64.5 27.390625 
Q 64.5 13.140625 57.4375 5.859375 
Q 50.390625 -1.421875 36.625 -1.421875 
Q 22.796875 -1.421875 15.734375 5.859375 
Q 8.6875 13.140625 8.6875 27.390625 
z
" id="BitstreamVeraSans-Roman-55"/>
      <path d="M 18.109375 8.203125 
L 18.109375 -20.796875 
L 9.078125 -20.796875 
L 9.078125 54.6875 
L 18.109375 54.6875 
L 18.109375 46.390625 
Q 20.953125 51.265625 25.265625 53.625 
Q 29.59375 56 35.59375 56 
Q 45.5625 56 51.78125 48.09375 
Q 58.015625 40.1875 58.015625 27.296875 
Q 58.015625 14.40625 51.78125 6.484375 
Q 45.5625 -1.421875 35.59375 -1.421875 
Q 29.59375 -1.421875 25.265625 0.953125 
Q 20.953125 3.328125 18.109375 8.203125 
M 48.6875 27.296875 
Q 48.6875 37.203125 44.609375 42.84375 
Q 40.53125 48.484375 33.40625 48.484375 
Q 26.265625 48.484375 22.1875 42.84375 
Q 18.109375 37.203125 18.109375 27.296875 
Q 18.109375 17.390625 22.1875 11.75 
Q 26.265625 6.109375 33.40625 6.109375 
Q 40.53125 6.109375 44.609375 11.75 
Q 48.6875 17.390625 48.6875 27.296875 
" id="BitstreamVeraSans-Roman-70"/>
     </defs>
     <g style="fill:#262626;" transform="translate(946.556229 80.176051875)scale(0.09996 -0.09996)">
      <use xlink:href="#BitstreamVeraSans-Roman-55"/>
      <use x="73.193359375" xlink:href="#BitstreamVeraSans-Roman-70"/>
      <use x="136.669921875" xlink:href="#BitstreamVeraSans-Roman-6c"/>
      <use x="164.453125" xlink:href="#BitstreamVeraSans-Roman-6f"/>
      <use x="225.634765625" xlink:href="#BitstreamVeraSans-Roman-61"/>
      <use x="286.9140625" xlink:href="#BitstreamVeraSans-Roman-64"/>
     </g>
    </g>
    <g id="line2d_77">
     <path d="M 918.567429 91.349706 
L 938.559429 91.349706 
" style="fill:none;stroke:#7570b3;stroke-linecap:round;"/>
    </g>
    <g id="line2d_78"/>
    <g id="text_14">
     <!-- Ping (ms) -->
     <defs>
      <path d="M 19.671875 64.796875 
L 19.671875 37.40625 
L 32.078125 37.40625 
Q 38.96875 37.40625 42.71875 40.96875 
Q 46.484375 44.53125 46.484375 51.125 
Q 46.484375 57.671875 42.71875 61.234375 
Q 38.96875 64.796875 32.078125 64.796875 
z
M 9.8125 72.90625 
L 32.078125 72.90625 
Q 44.34375 72.90625 50.609375 67.359375 
Q 56.890625 61.8125 56.890625 51.125 
Q 56.890625 40.328125 50.609375 34.8125 
Q 44.34375 29.296875 32.078125 29.296875 
L 19.671875 29.296875 
L 19.671875 0 
L 9.8125 0 
z
" id="BitstreamVeraSans-Roman-50"/>
      <path d="M 45.40625 27.984375 
Q 45.40625 37.75 41.375 43.109375 
Q 37.359375 48.484375 30.078125 48.484375 
Q 22.859375 48.484375 18.828125 43.109375 
Q 14.796875 37.75 14.796875 27.984375 
Q 14.796875 18.265625 18.828125 12.890625 
Q 22.859375 7.515625 30.078125 7.515625 
Q 37.359375 7.515625 41.375 12.890625 
Q 45.40625 18.265625 45.40625 27.984375 
M 54.390625 6.78125 
Q 54.390625 -7.171875 48.1875 -13.984375 
Q 42 -20.796875 29.203125 -20.796875 
Q 24.46875 -20.796875 20.265625 -20.09375 
Q 16.0625 -19.390625 12.109375 -17.921875 
L 12.109375 -9.1875 
Q 16.0625 -11.328125 19.921875 -12.34375 
Q 23.78125 -13.375 27.78125 -13.375 
Q 36.625 -13.375 41.015625 -8.765625 
Q 45.40625 -4.15625 45.40625 5.171875 
L 45.40625 9.625 
Q 42.625 4.78125 38.28125 2.390625 
Q 33.9375 0 27.875 0 
Q 17.828125 0 11.671875 7.65625 
Q 5.515625 15.328125 5.515625 27.984375 
Q 5.515625 40.671875 11.671875 48.328125 
Q 17.828125 56 27.875 56 
Q 33.9375 56 38.28125 53.609375 
Q 42.625 51.21875 45.40625 46.390625 
L 45.40625 54.6875 
L 54.390625 54.6875 
z
" id="BitstreamVeraSans-Roman-67"/>
     </defs>
     <g style="fill:#262626;" transform="translate(946.556229 94.848305625)scale(0.09996 -0.09996)">
      <use xlink:href="#BitstreamVeraSans-Roman-50"/>
      <use x="60.271484375" xlink:href="#BitstreamVeraSans-Roman-69"/>
      <use x="88.0546875" xlink:href="#BitstreamVeraSans-Roman-6e"/>
      <use x="151.43359375" xlink:href="#BitstreamVeraSans-Roman-67"/>
      <use x="214.91015625" xlink:href="#BitstreamVeraSans-Roman-20"/>
      <use x="246.697265625" xlink:href="#BitstreamVeraSans-Roman-28"/>
      <use x="285.7109375" xlink:href="#BitstreamVeraSans-Roman-6d"/>
      <use x="383.123046875" xlink:href="#BitstreamVeraSans-Roman-73"/>
      <use x="435.22265625" xlink:href="#BitstreamVeraSans-Roman-29"/>
     </g>
    </g>
   </g>
  </g>
  <g id="axes_2">
   <g id="matplotlib.axis_3">
    <g id="ytick_25">
     <g id="line2d_79">
      <g>
       <use style="fill:#262626;stroke:#262626;stroke-width:0.5;" x="830.1249" xlink:href="#m2a9e34465b" y="434.239904785"/>
      </g>
     </g>
     <g id="text_15">
      <!-- 5 -->
      <g style="fill:#262626;" transform="translate(834.1249 437.551154785)scale(0.12 -0.12)">
       <use xlink:href="#BitstreamVeraSans-Roman-35"/>
      </g>
     </g>
    </g>
    <g id="ytick_26">
     <g id="line2d_80">
      <g>
       <use style="fill:#262626;stroke:#262626;stroke-width:0.5;" x="830.1249" xlink:href="#m2a9e34465b" y="361.556073893"/>
      </g>
     </g>
     <g id="text_16">
      <!-- 10 -->
      <g style="fill:#262626;" transform="translate(834.1249 364.867323893)scale(0.12 -0.12)">
       <use xlink:href="#BitstreamVeraSans-Roman-31"/>
       <use x="63.623046875" xlink:href="#BitstreamVeraSans-Roman-30"/>
      </g>
     </g>
    </g>
    <g id="ytick_27">
     <g id="line2d_81">
      <g>
       <use style="fill:#262626;stroke:#262626;stroke-width:0.5;" x="830.1249" xlink:href="#m2a9e34465b" y="288.872243002"/>
      </g>
     </g>
     <g id="text_17">
      <!-- 15 -->
      <g style="fill:#262626;" transform="translate(834.1249 292.183493002)scale(0.12 -0.12)">
       <use xlink:href="#BitstreamVeraSans-Roman-31"/>
       <use x="63.623046875" xlink:href="#BitstreamVeraSans-Roman-35"/>
      </g>
     </g>
    </g>
    <g id="ytick_28">
     <g id="line2d_82">
      <g>
       <use style="fill:#262626;stroke:#262626;stroke-width:0.5;" x="830.1249" xlink:href="#m2a9e34465b" y="216.18841211"/>
      </g>
     </g>
     <g id="text_18">
      <!-- 20 -->
      <g style="fill:#262626;" transform="translate(834.1249 219.49966211)scale(0.12 -0.12)">
       <use xlink:href="#BitstreamVeraSans-Roman-32"/>
       <use x="63.623046875" xlink:href="#BitstreamVeraSans-Roman-30"/>
      </g>
     </g>
    </g>
    <g id="ytick_29">
     <g id="line2d_83">
      <g>
       <use style="fill:#262626;stroke:#262626;stroke-width:0.5;" x="830.1249" xlink:href="#m2a9e34465b" y="143.504581219"/>
      </g>
     </g>
     <g id="text_19">
      <!-- 25 -->
      <g style="fill:#262626;" transform="translate(834.1249 146.815831219)scale(0.12 -0.12)">
       <use xlink:href="#BitstreamVeraSans-Roman-32"/>
       <use x="63.623046875" xlink:href="#BitstreamVeraSans-Roman-35"/>
      </g>
     </g>
    </g>
    <g id="ytick_30">
     <g id="line2d_84">
      <g>
       <use style="fill:#262626;stroke:#262626;stroke-width:0.5;" x="830.1249" xlink:href="#m2a9e34465b" y="70.8207503277"/>
      </g>
     </g>
     <g id="text_20">
      <!-- 30 -->
      <g style="fill:#262626;" transform="translate(834.1249 74.1320003277)scale(0.12 -0.12)">
       <use xlink:href="#BitstreamVeraSans-Roman-33"/>
       <use x="63.623046875" xlink:href="#BitstreamVeraSans-Roman-30"/>
      </g>
     </g>
    </g>
    <g id="ytick_31">
     <g id="line2d_85">
      <g>
       <use style="fill:#262626;stroke:#262626;stroke-width:0.5;" x="830.1249" xlink:href="#m2a9e34465b" y="477.850203319"/>
      </g>
     </g>
    </g>
    <g id="ytick_32">
     <g id="line2d_86">
      <g>
       <use style="fill:#262626;stroke:#262626;stroke-width:0.5;" x="830.1249" xlink:href="#m2a9e34465b" y="463.313437141"/>
      </g>
     </g>
    </g>
    <g id="ytick_33">
     <g id="line2d_87">
      <g>
       <use style="fill:#262626;stroke:#262626;stroke-width:0.5;" x="830.1249" xlink:href="#m2a9e34465b" y="448.776670963"/>
      </g>
     </g>
    </g>
    <g id="ytick_34">
     <g id="line2d_88">
      <g>
       <use style="fill:#262626;stroke:#262626;stroke-width:0.5;" x="830.1249" xlink:href="#m2a9e34465b" y="419.703138606"/>
      </g>
     </g>
    </g>
    <g id="ytick_35">
     <g id="line2d_89">
      <g>
       <use style="fill:#262626;stroke:#262626;stroke-width:0.5;" x="830.1249" xlink:href="#m2a9e34465b" y="405.166372428"/>
      </g>
     </g>
    </g>
    <g id="ytick_36">
     <g id="line2d_90">
      <g>
       <use style="fill:#262626;stroke:#262626;stroke-width:0.5;" x="830.1249" xlink:href="#m2a9e34465b" y="390.62960625"/>
      </g>
     </g>
    </g>
    <g id="ytick_37">
     <g id="line2d_91">
      <g>
       <use style="fill:#262626;stroke:#262626;stroke-width:0.5;" x="830.1249" xlink:href="#m2a9e34465b" y="376.092840072"/>
      </g>
     </g>
    </g>
    <g id="ytick_38">
     <g id="line2d_92">
      <g>
       <use style="fill:#262626;stroke:#262626;stroke-width:0.5;" x="830.1249" xlink:href="#m2a9e34465b" y="347.019307715"/>
      </g>
     </g>
    </g>
    <g id="ytick_39">
     <g id="line2d_93">
      <g>
       <use style="fill:#262626;stroke:#262626;stroke-width:0.5;" x="830.1249" xlink:href="#m2a9e34465b" y="332.482541537"/>
      </g>
     </g>
    </g>
    <g id="ytick_40">
     <g id="line2d_94">
      <g>
       <use style="fill:#262626;stroke:#262626;stroke-width:0.5;" x="830.1249" xlink:href="#m2a9e34465b" y="317.945775358"/>
      </g>
     </g>
    </g>
    <g id="ytick_41">
     <g id="line2d_95">
      <g>
       <use style="fill:#262626;stroke:#262626;stroke-width:0.5;" x="830.1249" xlink:href="#m2a9e34465b" y="303.40900918"/>
      </g>
     </g>
    </g>
    <g id="ytick_42">
     <g id="line2d_96">
      <g>
       <use style="fill:#262626;stroke:#262626;stroke-width:0.5;" x="830.1249" xlink:href="#m2a9e34465b" y="274.335476824"/>
      </g>
     </g>
    </g>
    <g id="ytick_43">
     <g id="line2d_97">
      <g>
       <use style="fill:#262626;stroke:#262626;stroke-width:0.5;" x="830.1249" xlink:href="#m2a9e34465b" y="259.798710645"/>
      </g>
     </g>
    </g>
    <g id="ytick_44">
     <g id="line2d_98">
      <g>
       <use style="fill:#262626;stroke:#262626;stroke-width:0.5;" x="830.1249" xlink:href="#m2a9e34465b" y="245.261944467"/>
      </g>
     </g>
    </g>
    <g id="ytick_45">
     <g id="line2d_99">
      <g>
       <use style="fill:#262626;stroke:#262626;stroke-width:0.5;" x="830.1249" xlink:href="#m2a9e34465b" y="230.725178289"/>
      </g>
     </g>
    </g>
    <g id="ytick_46">
     <g id="line2d_100">
      <g>
       <use style="fill:#262626;stroke:#262626;stroke-width:0.5;" x="830.1249" xlink:href="#m2a9e34465b" y="201.651645932"/>
      </g>
     </g>
    </g>
    <g id="ytick_47">
     <g id="line2d_101">
      <g>
       <use style="fill:#262626;stroke:#262626;stroke-width:0.5;" x="830.1249" xlink:href="#m2a9e34465b" y="187.114879754"/>
      </g>
     </g>
    </g>
    <g id="ytick_48">
     <g id="line2d_102">
      <g>
       <use style="fill:#262626;stroke:#262626;stroke-width:0.5;" x="830.1249" xlink:href="#m2a9e34465b" y="172.578113576"/>
      </g>
     </g>
    </g>
    <g id="ytick_49">
     <g id="line2d_103">
      <g>
       <use style="fill:#262626;stroke:#262626;stroke-width:0.5;" x="830.1249" xlink:href="#m2a9e34465b" y="158.041347397"/>
      </g>
     </g>
    </g>
    <g id="ytick_50">
     <g id="line2d_104">
      <g>
       <use style="fill:#262626;stroke:#262626;stroke-width:0.5;" x="830.1249" xlink:href="#m2a9e34465b" y="128.967815041"/>
      </g>
     </g>
    </g>
    <g id="ytick_51">
     <g id="line2d_105">
      <g>
       <use style="fill:#262626;stroke:#262626;stroke-width:0.5;" x="830.1249" xlink:href="#m2a9e34465b" y="114.431048863"/>
      </g>
     </g>
    </g>
    <g id="ytick_52">
     <g id="line2d_106">
      <g>
       <use style="fill:#262626;stroke:#262626;stroke-width:0.5;" x="830.1249" xlink:href="#m2a9e34465b" y="99.8942826843"/>
      </g>
     </g>
    </g>
    <g id="ytick_53">
     <g id="line2d_107">
      <g>
       <use style="fill:#262626;stroke:#262626;stroke-width:0.5;" x="830.1249" xlink:href="#m2a9e34465b" y="85.357516506"/>
      </g>
     </g>
    </g>
    <g id="ytick_54">
     <g id="line2d_108">
      <g>
       <use style="fill:#262626;stroke:#262626;stroke-width:0.5;" x="830.1249" xlink:href="#m2a9e34465b" y="56.2839841494"/>
      </g>
     </g>
    </g>
    <g id="text_21">
     <!-- Latency (ms) -->
     <defs>
      <path d="M 9.8125 72.90625 
L 19.671875 72.90625 
L 19.671875 8.296875 
L 55.171875 8.296875 
L 55.171875 0 
L 9.8125 0 
z
" id="BitstreamVeraSans-Roman-4c"/>
      <path d="M 48.78125 52.59375 
L 48.78125 44.1875 
Q 44.96875 46.296875 41.140625 47.34375 
Q 37.3125 48.390625 33.40625 48.390625 
Q 24.65625 48.390625 19.8125 42.84375 
Q 14.984375 37.3125 14.984375 27.296875 
Q 14.984375 17.28125 19.8125 11.734375 
Q 24.65625 6.203125 33.40625 6.203125 
Q 37.3125 6.203125 41.140625 7.25 
Q 44.96875 8.296875 48.78125 10.40625 
L 48.78125 2.09375 
Q 45.015625 0.34375 40.984375 -0.53125 
Q 36.96875 -1.421875 32.421875 -1.421875 
Q 20.0625 -1.421875 12.78125 6.34375 
Q 5.515625 14.109375 5.515625 27.296875 
Q 5.515625 40.671875 12.859375 48.328125 
Q 20.21875 56 33.015625 56 
Q 37.15625 56 41.109375 55.140625 
Q 45.0625 54.296875 48.78125 52.59375 
" id="BitstreamVeraSans-Roman-63"/>
      <path d="M 32.171875 -5.078125 
Q 28.375 -14.84375 24.75 -17.8125 
Q 21.140625 -20.796875 15.09375 -20.796875 
L 7.90625 -20.796875 
L 7.90625 -13.28125 
L 13.1875 -13.28125 
Q 16.890625 -13.28125 18.9375 -11.515625 
Q 21 -9.765625 23.484375 -3.21875 
L 25.09375 0.875 
L 2.984375 54.6875 
L 12.5 54.6875 
L 29.59375 11.921875 
L 46.6875 54.6875 
L 56.203125 54.6875 
z
" id="BitstreamVeraSans-Roman-79"/>
     </defs>
     <g style="fill:#262626;" transform="translate(863.513025 309.095175)rotate(-90.0)scale(0.12 -0.12)">
      <use xlink:href="#BitstreamVeraSans-Roman-4c"/>
      <use x="55.712890625" xlink:href="#BitstreamVeraSans-Roman-61"/>
      <use x="116.9921875" xlink:href="#BitstreamVeraSans-Roman-74"/>
      <use x="156.201171875" xlink:href="#BitstreamVeraSans-Roman-65"/>
      <use x="217.724609375" xlink:href="#BitstreamVeraSans-Roman-6e"/>
      <use x="281.103515625" xlink:href="#BitstreamVeraSans-Roman-63"/>
      <use x="336.083984375" xlink:href="#BitstreamVeraSans-Roman-79"/>
      <use x="395.263671875" xlink:href="#BitstreamVeraSans-Roman-20"/>
      <use x="427.05078125" xlink:href="#BitstreamVeraSans-Roman-28"/>
      <use x="466.064453125" xlink:href="#BitstreamVeraSans-Roman-6d"/>
      <use x="563.4765625" xlink:href="#BitstreamVeraSans-Roman-73"/>
      <use x="615.576171875" xlink:href="#BitstreamVeraSans-Roman-29"/>
     </g>
    </g>
   </g>
   <g id="line2d_109">
    <path clip-path="url(#p3709d75bde)" d="M 62.451 480.791423 
L 65.847787 480.804937 
L 69.244574 480.779214 
L 72.641362 481.064405 
L 76.038149 480.644485 
L 79.434936 480.838308 
L 82.831723 480.853513 
L 86.22851 480.534075 
L 89.625297 480.960789 
L 93.022085 481.260314 
L 99.815659 480.880215 
L 103.212446 480.985745 
L 106.609233 480.913669 
L 110.00602 481.472094 
L 113.402808 481.495579 
L 116.799595 480.852516 
L 126.989956 480.972822 
L 133.783531 480.279365 
L 137.180318 454.634367 
L 140.577105 417.418745 
L 143.973892 376.783336 
L 147.370679 331.444827 
L 150.767466 287.735148 
L 154.164254 246.702639 
L 157.561041 207.537813 
L 160.957828 155.983116 
L 164.354615 102.200821 
L 167.751402 59.753759 
L 171.148189 58.888248 
L 174.544977 71.564693 
L 177.941764 90.541556 
L 181.338551 116.3621 
L 184.735338 136.837158 
L 188.132125 153.013802 
L 191.528912 167.056995 
L 198.322487 220.624457 
L 201.719274 237.141936 
L 205.116061 231.471151 
L 208.512848 223.140031 
L 211.909635 212.435639 
L 215.306423 203.443244 
L 222.099997 191.716999 
L 225.496784 188.654401 
L 228.893571 187.720996 
L 232.290358 188.864062 
L 235.687146 191.69288 
L 239.083933 195.19547 
L 242.48072 194.889566 
L 245.877507 194.963158 
L 249.274294 192.194485 
L 252.671081 191.974187 
L 256.067869 196.388121 
L 259.464656 199.520526 
L 262.861443 197.957911 
L 266.25823 195.342161 
L 269.655017 189.417833 
L 273.051804 187.277235 
L 276.448592 191.38483 
L 279.845379 192.866722 
L 283.242166 195.312117 
L 286.638953 196.970084 
L 290.03574 193.566262 
L 293.432527 187.78879 
L 296.829315 184.244083 
L 300.226102 181.966757 
L 307.019676 175.31196 
L 313.81325 165.505975 
L 317.210038 157.282636 
L 320.606825 152.232165 
L 324.003612 153.343267 
L 327.400399 154.061134 
L 330.797186 152.137173 
L 334.193973 151.09885 
L 337.590761 152.46909 
L 340.987548 157.457827 
L 344.384335 160.415639 
L 347.781122 164.257102 
L 351.177909 169.356691 
L 354.574696 170.74035 
L 357.971484 165.529466 
L 361.368271 159.205155 
L 364.765058 158.548394 
L 368.161845 160.090128 
L 371.558632 160.300391 
L 374.955419 157.683182 
L 378.352207 158.18125 
L 381.748994 159.661101 
L 385.145781 157.856617 
L 388.542568 153.668647 
L 391.939355 152.060883 
L 395.336142 154.518374 
L 398.73293 155.394715 
L 402.129717 153.385078 
L 405.526504 152.651942 
L 408.923291 152.30531 
L 412.320078 153.955016 
L 415.716865 157.582324 
L 419.113653 164.268941 
L 422.51044 173.90408 
L 425.907227 179.90324 
L 429.304014 182.441885 
L 432.700801 183.994188 
L 436.097588 185.016602 
L 442.891163 180.341731 
L 446.28795 176.634719 
L 449.684737 174.736592 
L 453.081524 175.100709 
L 456.478312 173.496895 
L 459.875099 173.609724 
L 463.271886 176.809297 
L 466.668673 176.848816 
L 470.06546 176.039413 
L 473.462247 180.908635 
L 476.859035 186.111338 
L 480.255822 188.360256 
L 483.652609 186.43762 
L 487.049396 181.509869 
L 490.446183 176.966596 
L 493.84297 175.599683 
L 497.239758 173.113978 
L 500.636545 175.323904 
L 507.430119 182.479704 
L 510.826906 188.634821 
L 514.223693 196.33814 
L 517.620481 204.656211 
L 521.017268 211.195142 
L 524.414055 219.214808 
L 527.810842 226.753699 
L 531.207629 232.903219 
L 534.604416 235.978359 
L 538.001204 237.151696 
L 541.397991 231.653118 
L 544.794778 221.651872 
L 548.191565 209.332766 
L 551.588352 193.111926 
L 558.381927 164.319227 
L 561.778714 147.644167 
L 565.175501 132.70052 
L 568.572288 122.879718 
L 571.969075 114.295512 
L 575.365862 108.392495 
L 578.76265 104.320303 
L 582.159437 103.375157 
L 585.556224 109.303617 
L 588.953011 123.610318 
L 592.349798 132.484109 
L 595.746585 135.878042 
L 599.143373 137.757775 
L 602.54016 139.383101 
L 605.936947 146.206984 
L 609.333734 149.876164 
L 612.730521 150.980992 
L 616.127308 149.315595 
L 619.524096 141.600312 
L 622.920883 126.05027 
L 626.31767 116.06765 
L 629.714457 109.845547 
L 633.111244 98.882644 
L 636.508031 79.597981 
L 639.904819 58.143521 
L 643.301606 66.122531 
L 646.698393 99.073798 
L 650.09518 136.425035 
L 660.285542 257.030928 
L 663.682329 294.424566 
L 667.079116 338.982309 
L 673.87269 438.801042 
L 677.269477 464.106708 
L 680.666265 466.72917 
L 684.063052 466.425706 
L 687.459839 465.738582 
L 690.856626 465.32188 
L 694.253413 465.212191 
L 697.6502 470.382839 
L 701.046988 474.130612 
L 704.443775 476.266592 
L 707.840562 477.341935 
L 714.634136 478.225658 
L 721.427711 478.756478 
L 728.221285 478.593977 
L 735.014859 477.93222 
L 738.411646 477.936248 
L 741.808434 477.73753 
L 751.998795 476.73588 
L 765.585944 476.621497 
L 772.379518 476.673114 
L 775.776305 476.649151 
L 782.56988 476.432054 
L 789.363454 476.40753 
L 796.157028 476.399602 
L 802.950603 476.256956 
L 806.34739 476.377937 
L 809.744177 476.320667 
L 813.140964 476.513882 
L 830.1249 476.427063 
L 830.1249 476.427063 
" style="fill:none;stroke:#7570b3;stroke-linecap:round;"/>
   </g>
  </g>
  <g id="text_22">
   <!-- Realtime Response Under Load - exclusively Best Effort -->
   <defs>
    <path d="M 37.109375 75.984375 
L 37.109375 68.5 
L 28.515625 68.5 
Q 23.6875 68.5 21.796875 66.546875 
Q 19.921875 64.59375 19.921875 59.515625 
L 19.921875 54.6875 
L 34.71875 54.6875 
L 34.71875 47.703125 
L 19.921875 47.703125 
L 19.921875 0 
L 10.890625 0 
L 10.890625 47.703125 
L 2.296875 47.703125 
L 2.296875 54.6875 
L 10.890625 54.6875 
L 10.890625 58.5 
Q 10.890625 67.625 15.140625 71.796875 
Q 19.390625 75.984375 28.609375 75.984375 
z
" id="BitstreamVeraSans-Roman-66"/>
    <path d="M 9.8125 72.90625 
L 55.90625 72.90625 
L 55.90625 64.59375 
L 19.671875 64.59375 
L 19.671875 43.015625 
L 54.390625 43.015625 
L 54.390625 34.71875 
L 19.671875 34.71875 
L 19.671875 8.296875 
L 56.78125 8.296875 
L 56.78125 0 
L 9.8125 0 
z
" id="BitstreamVeraSans-Roman-45"/>
    <path d="M 44.390625 34.1875 
Q 47.5625 33.109375 50.5625 29.59375 
Q 53.5625 26.078125 56.59375 19.921875 
L 66.609375 0 
L 56 0 
L 46.6875 18.703125 
Q 43.0625 26.03125 39.671875 28.421875 
Q 36.28125 30.8125 30.421875 30.8125 
L 19.671875 30.8125 
L 19.671875 0 
L 9.8125 0 
L 9.8125 72.90625 
L 32.078125 72.90625 
Q 44.578125 72.90625 50.734375 67.671875 
Q 56.890625 62.453125 56.890625 51.90625 
Q 56.890625 45.015625 53.6875 40.46875 
Q 50.484375 35.9375 44.390625 34.1875 
M 19.671875 64.796875 
L 19.671875 38.921875 
L 32.078125 38.921875 
Q 39.203125 38.921875 42.84375 42.21875 
Q 46.484375 45.515625 46.484375 51.90625 
Q 46.484375 58.296875 42.84375 61.546875 
Q 39.203125 64.796875 32.078125 64.796875 
z
" id="BitstreamVeraSans-Roman-52"/>
    <path d="M 4.890625 31.390625 
L 31.203125 31.390625 
L 31.203125 23.390625 
L 4.890625 23.390625 
z
" id="BitstreamVeraSans-Roman-2d"/>
    <path d="M 54.890625 54.6875 
L 35.109375 28.078125 
L 55.90625 0 
L 45.3125 0 
L 29.390625 21.484375 
L 13.484375 0 
L 2.875 0 
L 24.125 28.609375 
L 4.6875 54.6875 
L 15.28125 54.6875 
L 29.78125 35.203125 
L 44.28125 54.6875 
z
" id="BitstreamVeraSans-Roman-78"/>
    <path d="M 2.984375 54.6875 
L 12.5 54.6875 
L 29.59375 8.796875 
L 46.6875 54.6875 
L 56.203125 54.6875 
L 35.6875 0 
L 23.484375 0 
z
" id="BitstreamVeraSans-Roman-76"/>
    <path d="M 8.5 21.578125 
L 8.5 54.6875 
L 17.484375 54.6875 
L 17.484375 21.921875 
Q 17.484375 14.15625 20.5 10.265625 
Q 23.53125 6.390625 29.59375 6.390625 
Q 36.859375 6.390625 41.078125 11.03125 
Q 45.3125 15.671875 45.3125 23.6875 
L 45.3125 54.6875 
L 54.296875 54.6875 
L 54.296875 0 
L 45.3125 0 
L 45.3125 8.40625 
Q 42.046875 3.421875 37.71875 1 
Q 33.40625 -1.421875 27.6875 -1.421875 
Q 18.265625 -1.421875 13.375 4.4375 
Q 8.5 10.296875 8.5 21.578125 
" id="BitstreamVeraSans-Roman-75"/>
    <path d="M 41.109375 46.296875 
Q 39.59375 47.171875 37.8125 47.578125 
Q 36.03125 48 33.890625 48 
Q 26.265625 48 22.1875 43.046875 
Q 18.109375 38.09375 18.109375 28.8125 
L 18.109375 0 
L 9.078125 0 
L 9.078125 54.6875 
L 18.109375 54.6875 
L 18.109375 46.1875 
Q 20.953125 51.171875 25.484375 53.578125 
Q 30.03125 56 36.53125 56 
Q 37.453125 56 38.578125 55.875 
Q 39.703125 55.765625 41.0625 55.515625 
z
" id="BitstreamVeraSans-Roman-72"/>
    <path d="M 19.671875 34.8125 
L 19.671875 8.109375 
L 35.5 8.109375 
Q 43.453125 8.109375 47.28125 11.40625 
Q 51.125 14.703125 51.125 21.484375 
Q 51.125 28.328125 47.28125 31.5625 
Q 43.453125 34.8125 35.5 34.8125 
z
M 19.671875 64.796875 
L 19.671875 42.828125 
L 34.28125 42.828125 
Q 41.5 42.828125 45.03125 45.53125 
Q 48.578125 48.25 48.578125 53.8125 
Q 48.578125 59.328125 45.03125 62.0625 
Q 41.5 64.796875 34.28125 64.796875 
z
M 9.8125 72.90625 
L 35.015625 72.90625 
Q 46.296875 72.90625 52.390625 68.21875 
Q 58.5 63.53125 58.5 54.890625 
Q 58.5 48.1875 55.375 44.234375 
Q 52.25 40.28125 46.1875 39.3125 
Q 53.46875 37.75 57.5 32.78125 
Q 61.53125 27.828125 61.53125 20.40625 
Q 61.53125 10.640625 54.890625 5.3125 
Q 48.25 0 35.984375 0 
L 9.8125 0 
z
" id="BitstreamVeraSans-Roman-42"/>
   </defs>
   <g style="fill:#262626;" transform="translate(498.9871875 10.2484375)scale(0.14 -0.14)">
    <use xlink:href="#BitstreamVeraSans-Roman-52"/>
    <use x="69.419921875" xlink:href="#BitstreamVeraSans-Roman-65"/>
    <use x="130.943359375" xlink:href="#BitstreamVeraSans-Roman-61"/>
    <use x="192.22265625" xlink:href="#BitstreamVeraSans-Roman-6c"/>
    <use x="220.005859375" xlink:href="#BitstreamVeraSans-Roman-74"/>
    <use x="259.21484375" xlink:href="#BitstreamVeraSans-Roman-69"/>
    <use x="286.998046875" xlink:href="#BitstreamVeraSans-Roman-6d"/>
    <use x="384.41015625" xlink:href="#BitstreamVeraSans-Roman-65"/>
    <use x="445.93359375" xlink:href="#BitstreamVeraSans-Roman-20"/>
    <use x="477.720703125" xlink:href="#BitstreamVeraSans-Roman-52"/>
    <use x="547.140625" xlink:href="#BitstreamVeraSans-Roman-65"/>
    <use x="608.6640625" xlink:href="#BitstreamVeraSans-Roman-73"/>
    <use x="660.763671875" xlink:href="#BitstreamVeraSans-Roman-70"/>
    <use x="724.240234375" xlink:href="#BitstreamVeraSans-Roman-6f"/>
    <use x="785.421875" xlink:href="#BitstreamVeraSans-Roman-6e"/>
    <use x="848.80078125" xlink:href="#BitstreamVeraSans-Roman-73"/>
    <use x="900.900390625" xlink:href="#BitstreamVeraSans-Roman-65"/>
    <use x="962.423828125" xlink:href="#BitstreamVeraSans-Roman-20"/>
    <use x="994.2109375" xlink:href="#BitstreamVeraSans-Roman-55"/>
    <use x="1067.40429688" xlink:href="#BitstreamVeraSans-Roman-6e"/>
    <use x="1130.78320312" xlink:href="#BitstreamVeraSans-Roman-64"/>
    <use x="1194.25976562" xlink:href="#BitstreamVeraSans-Roman-65"/>
    <use x="1255.78320312" xlink:href="#BitstreamVeraSans-Roman-72"/>
    <use x="1296.89648438" xlink:href="#BitstreamVeraSans-Roman-20"/>
    <use x="1328.68359375" xlink:href="#BitstreamVeraSans-Roman-4c"/>
    <use x="1384.38085938" xlink:href="#BitstreamVeraSans-Roman-6f"/>
    <use x="1445.5625" xlink:href="#BitstreamVeraSans-Roman-61"/>
    <use x="1506.84179688" xlink:href="#BitstreamVeraSans-Roman-64"/>
    <use x="1570.31835938" xlink:href="#BitstreamVeraSans-Roman-20"/>
    <use x="1602.10546875" xlink:href="#BitstreamVeraSans-Roman-2d"/>
    <use x="1638.18945312" xlink:href="#BitstreamVeraSans-Roman-20"/>
    <use x="1669.9765625" xlink:href="#BitstreamVeraSans-Roman-65"/>
    <use x="1731.484375" xlink:href="#BitstreamVeraSans-Roman-78"/>
    <use x="1790.6484375" xlink:href="#BitstreamVeraSans-Roman-63"/>
    <use x="1845.62890625" xlink:href="#BitstreamVeraSans-Roman-6c"/>
    <use x="1873.41210938" xlink:href="#BitstreamVeraSans-Roman-75"/>
    <use x="1936.79101562" xlink:href="#BitstreamVeraSans-Roman-73"/>
    <use x="1988.890625" xlink:href="#BitstreamVeraSans-Roman-69"/>
    <use x="2016.67382812" xlink:href="#BitstreamVeraSans-Roman-76"/>
    <use x="2075.85351562" xlink:href="#BitstreamVeraSans-Roman-65"/>
    <use x="2137.37695312" xlink:href="#BitstreamVeraSans-Roman-6c"/>
    <use x="2165.16015625" xlink:href="#BitstreamVeraSans-Roman-79"/>
    <use x="2224.33984375" xlink:href="#BitstreamVeraSans-Roman-20"/>
    <use x="2256.12695312" xlink:href="#BitstreamVeraSans-Roman-42"/>
    <use x="2324.73046875" xlink:href="#BitstreamVeraSans-Roman-65"/>
    <use x="2386.25390625" xlink:href="#BitstreamVeraSans-Roman-73"/>
    <use x="2438.35351562" xlink:href="#BitstreamVeraSans-Roman-74"/>
    <use x="2477.5625" xlink:href="#BitstreamVeraSans-Roman-20"/>
    <use x="2509.34960938" xlink:href="#BitstreamVeraSans-Roman-45"/>
    <use x="2572.53320312" xlink:href="#BitstreamVeraSans-Roman-66"/>
    <use x="2607.73828125" xlink:href="#BitstreamVeraSans-Roman-66"/>
    <use x="2642.94335938" xlink:href="#BitstreamVeraSans-Roman-6f"/>
    <use x="2704.125" xlink:href="#BitstreamVeraSans-Roman-72"/>
    <use x="2745.23828125" xlink:href="#BitstreamVeraSans-Roman-74"/>
   </g>
   <!-- Total bandwidth and average ping plot -->
   <defs>
    <path d="M 54.890625 33.015625 
L 54.890625 0 
L 45.90625 0 
L 45.90625 32.71875 
Q 45.90625 40.484375 42.875 44.328125 
Q 39.84375 48.1875 33.796875 48.1875 
Q 26.515625 48.1875 22.3125 43.546875 
Q 18.109375 38.921875 18.109375 30.90625 
L 18.109375 0 
L 9.078125 0 
L 9.078125 75.984375 
L 18.109375 75.984375 
L 18.109375 46.1875 
Q 21.34375 51.125 25.703125 53.5625 
Q 30.078125 56 35.796875 56 
Q 45.21875 56 50.046875 50.171875 
Q 54.890625 44.34375 54.890625 33.015625 
" id="BitstreamVeraSans-Roman-68"/>
   </defs>
   <g style="fill:#262626;" transform="translate(557.8375 25.925375)scale(0.14 -0.14)">
    <use xlink:href="#BitstreamVeraSans-Roman-54"/>
    <use x="60.818359375" xlink:href="#BitstreamVeraSans-Roman-6f"/>
    <use x="122.0" xlink:href="#BitstreamVeraSans-Roman-74"/>
    <use x="161.208984375" xlink:href="#BitstreamVeraSans-Roman-61"/>
    <use x="222.48828125" xlink:href="#BitstreamVeraSans-Roman-6c"/>
    <use x="250.271484375" xlink:href="#BitstreamVeraSans-Roman-20"/>
    <use x="282.05859375" xlink:href="#BitstreamVeraSans-Roman-62"/>
    <use x="345.53515625" xlink:href="#BitstreamVeraSans-Roman-61"/>
    <use x="406.814453125" xlink:href="#BitstreamVeraSans-Roman-6e"/>
    <use x="470.193359375" xlink:href="#BitstreamVeraSans-Roman-64"/>
    <use x="533.669921875" xlink:href="#BitstreamVeraSans-Roman-77"/>
    <use x="615.45703125" xlink:href="#BitstreamVeraSans-Roman-69"/>
    <use x="643.240234375" xlink:href="#BitstreamVeraSans-Roman-64"/>
    <use x="706.716796875" xlink:href="#BitstreamVeraSans-Roman-74"/>
    <use x="745.92578125" xlink:href="#BitstreamVeraSans-Roman-68"/>
    <use x="809.3046875" xlink:href="#BitstreamVeraSans-Roman-20"/>
    <use x="841.091796875" xlink:href="#BitstreamVeraSans-Roman-61"/>
    <use x="902.37109375" xlink:href="#BitstreamVeraSans-Roman-6e"/>
    <use x="965.75" xlink:href="#BitstreamVeraSans-Roman-64"/>
    <use x="1029.2265625" xlink:href="#BitstreamVeraSans-Roman-20"/>
    <use x="1061.01367188" xlink:href="#BitstreamVeraSans-Roman-61"/>
    <use x="1122.29296875" xlink:href="#BitstreamVeraSans-Roman-76"/>
    <use x="1181.47265625" xlink:href="#BitstreamVeraSans-Roman-65"/>
    <use x="1242.99609375" xlink:href="#BitstreamVeraSans-Roman-72"/>
    <use x="1284.109375" xlink:href="#BitstreamVeraSans-Roman-61"/>
    <use x="1345.38867188" xlink:href="#BitstreamVeraSans-Roman-67"/>
    <use x="1408.86523438" xlink:href="#BitstreamVeraSans-Roman-65"/>
    <use x="1470.38867188" xlink:href="#BitstreamVeraSans-Roman-20"/>
    <use x="1502.17578125" xlink:href="#BitstreamVeraSans-Roman-70"/>
    <use x="1565.65234375" xlink:href="#BitstreamVeraSans-Roman-69"/>
    <use x="1593.43554688" xlink:href="#BitstreamVeraSans-Roman-6e"/>
    <use x="1656.81445312" xlink:href="#BitstreamVeraSans-Roman-67"/>
    <use x="1720.29101562" xlink:href="#BitstreamVeraSans-Roman-20"/>
    <use x="1752.078125" xlink:href="#BitstreamVeraSans-Roman-70"/>
    <use x="1815.5546875" xlink:href="#BitstreamVeraSans-Roman-6c"/>
    <use x="1843.33789062" xlink:href="#BitstreamVeraSans-Roman-6f"/>
    <use x="1904.51953125" xlink:href="#BitstreamVeraSans-Roman-74"/>
   </g>
   <!-- osx_wifi_old -->
   <defs>
    <path d="M 50.984375 -16.609375 
L 50.984375 -23.578125 
L -0.984375 -23.578125 
L -0.984375 -16.609375 
z
" id="BitstreamVeraSans-Roman-5f"/>
   </defs>
   <g style="fill:#262626;" transform="translate(652.0771875 41.6023125)scale(0.14 -0.14)">
    <use xlink:href="#BitstreamVeraSans-Roman-6f"/>
    <use x="61.181640625" xlink:href="#BitstreamVeraSans-Roman-73"/>
    <use x="113.28125" xlink:href="#BitstreamVeraSans-Roman-78"/>
    <use x="172.4609375" xlink:href="#BitstreamVeraSans-Roman-5f"/>
    <use x="222.4609375" xlink:href="#BitstreamVeraSans-Roman-77"/>
    <use x="304.248046875" xlink:href="#BitstreamVeraSans-Roman-69"/>
    <use x="332.03125" xlink:href="#BitstreamVeraSans-Roman-66"/>
    <use x="367.236328125" xlink:href="#BitstreamVeraSans-Roman-69"/>
    <use x="395.01953125" xlink:href="#BitstreamVeraSans-Roman-5f"/>
    <use x="445.01953125" xlink:href="#BitstreamVeraSans-Roman-6f"/>
    <use x="506.201171875" xlink:href="#BitstreamVeraSans-Roman-6c"/>
    <use x="533.984375" xlink:href="#BitstreamVeraSans-Roman-64"/>
   </g>
  </g>
  <g id="text_23">
   <!-- Local/remote: dair-2506.local/172.22.128.105 - Time: 2016-09-04T16:05:13.639552 - Length/step: 30s/0.20s -->
   <defs>
    <path d="M 33.015625 40.375 
Q 26.375 40.375 22.484375 35.828125 
Q 18.609375 31.296875 18.609375 23.390625 
Q 18.609375 15.53125 22.484375 10.953125 
Q 26.375 6.390625 33.015625 6.390625 
Q 39.65625 6.390625 43.53125 10.953125 
Q 47.40625 15.53125 47.40625 23.390625 
Q 47.40625 31.296875 43.53125 35.828125 
Q 39.65625 40.375 33.015625 40.375 
M 52.59375 71.296875 
L 52.59375 62.3125 
Q 48.875 64.0625 45.09375 64.984375 
Q 41.3125 65.921875 37.59375 65.921875 
Q 27.828125 65.921875 22.671875 59.328125 
Q 17.53125 52.734375 16.796875 39.40625 
Q 19.671875 43.65625 24.015625 45.921875 
Q 28.375 48.1875 33.59375 48.1875 
Q 44.578125 48.1875 50.953125 41.515625 
Q 57.328125 34.859375 57.328125 23.390625 
Q 57.328125 12.15625 50.6875 5.359375 
Q 44.046875 -1.421875 33.015625 -1.421875 
Q 20.359375 -1.421875 13.671875 8.265625 
Q 6.984375 17.96875 6.984375 36.375 
Q 6.984375 53.65625 15.1875 63.9375 
Q 23.390625 74.21875 37.203125 74.21875 
Q 40.921875 74.21875 44.703125 73.484375 
Q 48.484375 72.75 52.59375 71.296875 
" id="BitstreamVeraSans-Roman-36"/>
    <path d="M 8.203125 72.90625 
L 55.078125 72.90625 
L 55.078125 68.703125 
L 28.609375 0 
L 18.3125 0 
L 43.21875 64.59375 
L 8.203125 64.59375 
z
" id="BitstreamVeraSans-Roman-37"/>
    <path d="M 31.78125 34.625 
Q 24.75 34.625 20.71875 30.859375 
Q 16.703125 27.09375 16.703125 20.515625 
Q 16.703125 13.921875 20.71875 10.15625 
Q 24.75 6.390625 31.78125 6.390625 
Q 38.8125 6.390625 42.859375 10.171875 
Q 46.921875 13.96875 46.921875 20.515625 
Q 46.921875 27.09375 42.890625 30.859375 
Q 38.875 34.625 31.78125 34.625 
M 21.921875 38.8125 
Q 15.578125 40.375 12.03125 44.71875 
Q 8.5 49.078125 8.5 55.328125 
Q 8.5 64.0625 14.71875 69.140625 
Q 20.953125 74.21875 31.78125 74.21875 
Q 42.671875 74.21875 48.875 69.140625 
Q 55.078125 64.0625 55.078125 55.328125 
Q 55.078125 49.078125 51.53125 44.71875 
Q 48 40.375 41.703125 38.8125 
Q 48.828125 37.15625 52.796875 32.3125 
Q 56.78125 27.484375 56.78125 20.515625 
Q 56.78125 9.90625 50.3125 4.234375 
Q 43.84375 -1.421875 31.78125 -1.421875 
Q 19.734375 -1.421875 13.25 4.234375 
Q 6.78125 9.90625 6.78125 20.515625 
Q 6.78125 27.484375 10.78125 32.3125 
Q 14.796875 37.15625 21.921875 38.8125 
M 18.3125 54.390625 
Q 18.3125 48.734375 21.84375 45.5625 
Q 25.390625 42.390625 31.78125 42.390625 
Q 38.140625 42.390625 41.71875 45.5625 
Q 45.3125 48.734375 45.3125 54.390625 
Q 45.3125 60.0625 41.71875 63.234375 
Q 38.140625 66.40625 31.78125 66.40625 
Q 25.390625 66.40625 21.84375 63.234375 
Q 18.3125 60.0625 18.3125 54.390625 
" id="BitstreamVeraSans-Roman-38"/>
    <path d="M 10.984375 1.515625 
L 10.984375 10.5 
Q 14.703125 8.734375 18.5 7.8125 
Q 22.3125 6.890625 25.984375 6.890625 
Q 35.75 6.890625 40.890625 13.453125 
Q 46.046875 20.015625 46.78125 33.40625 
Q 43.953125 29.203125 39.59375 26.953125 
Q 35.25 24.703125 29.984375 24.703125 
Q 19.046875 24.703125 12.671875 31.3125 
Q 6.296875 37.9375 6.296875 49.421875 
Q 6.296875 60.640625 12.9375 67.421875 
Q 19.578125 74.21875 30.609375 74.21875 
Q 43.265625 74.21875 49.921875 64.515625 
Q 56.59375 54.828125 56.59375 36.375 
Q 56.59375 19.140625 48.40625 8.859375 
Q 40.234375 -1.421875 26.421875 -1.421875 
Q 22.703125 -1.421875 18.890625 -0.6875 
Q 15.09375 0.046875 10.984375 1.515625 
M 30.609375 32.421875 
Q 37.25 32.421875 41.125 36.953125 
Q 45.015625 41.5 45.015625 49.421875 
Q 45.015625 57.28125 41.125 61.84375 
Q 37.25 66.40625 30.609375 66.40625 
Q 23.96875 66.40625 20.09375 61.84375 
Q 16.21875 57.28125 16.21875 49.421875 
Q 16.21875 41.5 20.09375 36.953125 
Q 23.96875 32.421875 30.609375 32.421875 
" id="BitstreamVeraSans-Roman-39"/>
    <path d="M 11.71875 12.40625 
L 22.015625 12.40625 
L 22.015625 0 
L 11.71875 0 
z
M 11.71875 51.703125 
L 22.015625 51.703125 
L 22.015625 39.3125 
L 11.71875 39.3125 
z
" id="BitstreamVeraSans-Roman-3a"/>
    <path d="M 10.6875 12.40625 
L 21 12.40625 
L 21 0 
L 10.6875 0 
z
" id="BitstreamVeraSans-Roman-2e"/>
   </defs>
   <g style="fill:#262626;" transform="translate(475.2125 537.43625)scale(0.08 -0.08)">
    <use xlink:href="#BitstreamVeraSans-Roman-4c"/>
    <use x="55.697265625" xlink:href="#BitstreamVeraSans-Roman-6f"/>
    <use x="116.87890625" xlink:href="#BitstreamVeraSans-Roman-63"/>
    <use x="171.859375" xlink:href="#BitstreamVeraSans-Roman-61"/>
    <use x="233.138671875" xlink:href="#BitstreamVeraSans-Roman-6c"/>
    <use x="260.921875" xlink:href="#BitstreamVeraSans-Roman-2f"/>
    <use x="294.61328125" xlink:href="#BitstreamVeraSans-Roman-72"/>
    <use x="335.6953125" xlink:href="#BitstreamVeraSans-Roman-65"/>
    <use x="397.21875" xlink:href="#BitstreamVeraSans-Roman-6d"/>
    <use x="494.630859375" xlink:href="#BitstreamVeraSans-Roman-6f"/>
    <use x="555.8125" xlink:href="#BitstreamVeraSans-Roman-74"/>
    <use x="595.021484375" xlink:href="#BitstreamVeraSans-Roman-65"/>
    <use x="656.544921875" xlink:href="#BitstreamVeraSans-Roman-3a"/>
    <use x="690.236328125" xlink:href="#BitstreamVeraSans-Roman-20"/>
    <use x="722.0234375" xlink:href="#BitstreamVeraSans-Roman-64"/>
    <use x="785.5" xlink:href="#BitstreamVeraSans-Roman-61"/>
    <use x="846.779296875" xlink:href="#BitstreamVeraSans-Roman-69"/>
    <use x="874.5625" xlink:href="#BitstreamVeraSans-Roman-72"/>
    <use x="915.58203125" xlink:href="#BitstreamVeraSans-Roman-2d"/>
    <use x="951.666015625" xlink:href="#BitstreamVeraSans-Roman-32"/>
    <use x="1015.2890625" xlink:href="#BitstreamVeraSans-Roman-35"/>
    <use x="1078.91210938" xlink:href="#BitstreamVeraSans-Roman-30"/>
    <use x="1142.53515625" xlink:href="#BitstreamVeraSans-Roman-36"/>
    <use x="1206.15820312" xlink:href="#BitstreamVeraSans-Roman-2e"/>
    <use x="1237.9453125" xlink:href="#BitstreamVeraSans-Roman-6c"/>
    <use x="1265.72851562" xlink:href="#BitstreamVeraSans-Roman-6f"/>
    <use x="1326.91015625" xlink:href="#BitstreamVeraSans-Roman-63"/>
    <use x="1381.890625" xlink:href="#BitstreamVeraSans-Roman-61"/>
    <use x="1443.16992188" xlink:href="#BitstreamVeraSans-Roman-6c"/>
    <use x="1470.953125" xlink:href="#BitstreamVeraSans-Roman-2f"/>
    <use x="1504.64453125" xlink:href="#BitstreamVeraSans-Roman-31"/>
    <use x="1568.26757812" xlink:href="#BitstreamVeraSans-Roman-37"/>
    <use x="1631.890625" xlink:href="#BitstreamVeraSans-Roman-32"/>
    <use x="1695.51367188" xlink:href="#BitstreamVeraSans-Roman-2e"/>
    <use x="1727.30078125" xlink:href="#BitstreamVeraSans-Roman-32"/>
    <use x="1790.92382812" xlink:href="#BitstreamVeraSans-Roman-32"/>
    <use x="1854.546875" xlink:href="#BitstreamVeraSans-Roman-2e"/>
    <use x="1886.33398438" xlink:href="#BitstreamVeraSans-Roman-31"/>
    <use x="1949.95703125" xlink:href="#BitstreamVeraSans-Roman-32"/>
    <use x="2013.58007812" xlink:href="#BitstreamVeraSans-Roman-38"/>
    <use x="2077.203125" xlink:href="#BitstreamVeraSans-Roman-2e"/>
    <use x="2108.99023438" xlink:href="#BitstreamVeraSans-Roman-31"/>
    <use x="2172.61328125" xlink:href="#BitstreamVeraSans-Roman-30"/>
    <use x="2236.23632812" xlink:href="#BitstreamVeraSans-Roman-35"/>
    <use x="2299.859375" xlink:href="#BitstreamVeraSans-Roman-20"/>
    <use x="2331.64648438" xlink:href="#BitstreamVeraSans-Roman-2d"/>
    <use x="2367.73046875" xlink:href="#BitstreamVeraSans-Roman-20"/>
    <use x="2399.51757812" xlink:href="#BitstreamVeraSans-Roman-54"/>
    <use x="2460.5546875" xlink:href="#BitstreamVeraSans-Roman-69"/>
    <use x="2488.33789062" xlink:href="#BitstreamVeraSans-Roman-6d"/>
    <use x="2585.75" xlink:href="#BitstreamVeraSans-Roman-65"/>
    <use x="2647.2734375" xlink:href="#BitstreamVeraSans-Roman-3a"/>
    <use x="2680.96484375" xlink:href="#BitstreamVeraSans-Roman-20"/>
    <use x="2712.75195312" xlink:href="#BitstreamVeraSans-Roman-32"/>
    <use x="2776.375" xlink:href="#BitstreamVeraSans-Roman-30"/>
    <use x="2839.99804688" xlink:href="#BitstreamVeraSans-Roman-31"/>
    <use x="2903.62109375" xlink:href="#BitstreamVeraSans-Roman-36"/>
    <use x="2967.24414062" xlink:href="#BitstreamVeraSans-Roman-2d"/>
    <use x="3003.328125" xlink:href="#BitstreamVeraSans-Roman-30"/>
    <use x="3066.95117188" xlink:href="#BitstreamVeraSans-Roman-39"/>
    <use x="3130.57421875" xlink:href="#BitstreamVeraSans-Roman-2d"/>
    <use x="3166.65820312" xlink:href="#BitstreamVeraSans-Roman-30"/>
    <use x="3230.28125" xlink:href="#BitstreamVeraSans-Roman-34"/>
    <use x="3293.90429688" xlink:href="#BitstreamVeraSans-Roman-54"/>
    <use x="3354.98828125" xlink:href="#BitstreamVeraSans-Roman-31"/>
    <use x="3418.61132812" xlink:href="#BitstreamVeraSans-Roman-36"/>
    <use x="3482.234375" xlink:href="#BitstreamVeraSans-Roman-3a"/>
    <use x="3515.92578125" xlink:href="#BitstreamVeraSans-Roman-30"/>
    <use x="3579.54882812" xlink:href="#BitstreamVeraSans-Roman-35"/>
    <use x="3643.171875" xlink:href="#BitstreamVeraSans-Roman-3a"/>
    <use x="3676.86328125" xlink:href="#BitstreamVeraSans-Roman-31"/>
    <use x="3740.48632812" xlink:href="#BitstreamVeraSans-Roman-33"/>
    <use x="3804.109375" xlink:href="#BitstreamVeraSans-Roman-2e"/>
    <use x="3835.89648438" xlink:href="#BitstreamVeraSans-Roman-36"/>
    <use x="3899.51953125" xlink:href="#BitstreamVeraSans-Roman-33"/>
    <use x="3963.14257812" xlink:href="#BitstreamVeraSans-Roman-39"/>
    <use x="4026.765625" xlink:href="#BitstreamVeraSans-Roman-35"/>
    <use x="4090.38867188" xlink:href="#BitstreamVeraSans-Roman-35"/>
    <use x="4154.01171875" xlink:href="#BitstreamVeraSans-Roman-32"/>
    <use x="4217.63476562" xlink:href="#BitstreamVeraSans-Roman-20"/>
    <use x="4249.421875" xlink:href="#BitstreamVeraSans-Roman-2d"/>
    <use x="4285.50585938" xlink:href="#BitstreamVeraSans-Roman-20"/>
    <use x="4317.29296875" xlink:href="#BitstreamVeraSans-Roman-4c"/>
    <use x="4372.99023438" xlink:href="#BitstreamVeraSans-Roman-65"/>
    <use x="4434.51367188" xlink:href="#BitstreamVeraSans-Roman-6e"/>
    <use x="4497.89257812" xlink:href="#BitstreamVeraSans-Roman-67"/>
    <use x="4561.36914062" xlink:href="#BitstreamVeraSans-Roman-74"/>
    <use x="4600.578125" xlink:href="#BitstreamVeraSans-Roman-68"/>
    <use x="4663.95703125" xlink:href="#BitstreamVeraSans-Roman-2f"/>
    <use x="4697.6484375" xlink:href="#BitstreamVeraSans-Roman-73"/>
    <use x="4749.74804688" xlink:href="#BitstreamVeraSans-Roman-74"/>
    <use x="4788.95703125" xlink:href="#BitstreamVeraSans-Roman-65"/>
    <use x="4850.48046875" xlink:href="#BitstreamVeraSans-Roman-70"/>
    <use x="4913.95703125" xlink:href="#BitstreamVeraSans-Roman-3a"/>
    <use x="4947.6484375" xlink:href="#BitstreamVeraSans-Roman-20"/>
    <use x="4979.43554688" xlink:href="#BitstreamVeraSans-Roman-33"/>
    <use x="5043.05859375" xlink:href="#BitstreamVeraSans-Roman-30"/>
    <use x="5106.68164062" xlink:href="#BitstreamVeraSans-Roman-73"/>
    <use x="5158.78125" xlink:href="#BitstreamVeraSans-Roman-2f"/>
    <use x="5192.47265625" xlink:href="#BitstreamVeraSans-Roman-30"/>
    <use x="5256.09570312" xlink:href="#BitstreamVeraSans-Roman-2e"/>
    <use x="5287.8828125" xlink:href="#BitstreamVeraSans-Roman-32"/>
    <use x="5351.50585938" xlink:href="#BitstreamVeraSans-Roman-30"/>
    <use x="5415.12890625" xlink:href="#BitstreamVeraSans-Roman-73"/>
   </g>
  </g>
 </g>
 <defs>
  <clipPath id="p3709d75bde">
   <rect height="431.8191" width="767.6739" x="62.451" y="53.91"/>
  </clipPath>
 </defs>
</svg>
